<svg xmlns="http://www.w3.org/2000/svg" viewBox="0 0 27.7 58.85"><defs><style>.cls-1{fill:#122867;fill-rule:evenodd;}</style></defs><g id="Layer_2" data-name="Layer 2"><g id="Layer_1-2" data-name="Layer 1"><path class="cls-1" d="M13.85,11.59a5.8,5.8,0,1,0-5.79-5.8,5.8,5.8,0,0,0,5.79,5.8ZM27.67,29.64,23.28,14.36a2.93,2.93,0,0,0-2.89-2.42H7.3a2.92,2.92,0,0,0-2.88,2.42L0,29.64a.79.79,0,0,0,0,.43,2.83,2.83,0,0,0,0,.41,2.93,2.93,0,0,0,5.81.59L7.7,24,4.57,39.22a2.88,2.88,0,0,0-.21,1.08A2.94,2.94,0,0,0,7.3,43.24h.32V55.92a2.94,2.94,0,0,0,5.88,0V43.24h.7V55.92a2.94,2.94,0,0,0,5.88,0V43.24h.32a2.94,2.94,0,0,0,2.93-2.94,3,3,0,0,0-.2-1.08L20,24l1.87,7a2.94,2.94,0,0,0,5.83-.53,1.9,1.9,0,0,0,0-.41A.78.78,0,0,0,27.67,29.64Z"/></g></g></svg>