<svg xmlns="http://www.w3.org/2000/svg" viewBox="0 0 45.49 45.49"><defs><style>.cls-1,.cls-2{fill:#2a79be;}.cls-2{fill-rule:evenodd;}</style></defs><g id="Layer_2" data-name="Layer 2"><g id="Layer_1-2" data-name="Layer 1"><rect class="cls-1" x="37.02" y="27.63" width="2.67" height="3.91"/><rect class="cls-1" x="37.02" y="34.21" width="2.67" height="3.91"/><path class="cls-2" d="M45.49,45.49V22.34l-4.17-6.26H33.85V12.61l-4.6-7.16H24.08V2.67h2V0H21.41V5.45H16.24l-4.6,7.16v3.47H4.17L0,22.34V45.49Zm-5.6-26.74,1.78,2.66H33.85V18.75ZM17.7,8.12H27.8l2.28,3.55H15.41L17.7,8.12ZM5.6,18.75h6v2.66H3.82L5.6,18.75ZM2.67,42.83V24.08h9V42.83Zm21.85,0H21V38.15a1.78,1.78,0,1,1,3.55,0v4.68Zm2.67,0V38.15a4.45,4.45,0,0,0-8.89,0v4.68h-4V14.34H31.19V42.83Zm6.66,0V24.08h9V42.83Z"/><rect class="cls-1" x="16.53" y="27.19" width="2.67" height="3.91"/><rect class="cls-1" x="21.41" y="27.19" width="2.67" height="3.91"/><rect class="cls-1" x="26.3" y="27.19" width="2.67" height="3.91"/><path class="cls-2" d="M22.75,16.91a3.65,3.65,0,1,0,3.64,3.65,3.66,3.66,0,0,0-3.64-3.65Zm0,4.62a1,1,0,1,1,1-1A1,1,0,0,1,22.75,21.53Z"/><rect class="cls-1" x="5.81" y="27.63" width="2.67" height="3.91"/><rect class="cls-1" x="5.81" y="34.21" width="2.67" height="3.91"/></g></g></svg>