<svg xmlns="http://www.w3.org/2000/svg" viewBox="0 0 39.07 39.07"><defs><style>.cls-1{fill:#2a79be;fill-rule:evenodd;}</style></defs><g id="Layer_2" data-name="Layer 2"><g id="Layer_1-2" data-name="Layer 1"><path class="cls-1" d="M21.06,8.32a1.53,1.53,0,1,0-1.52,1.52A1.53,1.53,0,0,0,21.06,8.32Z"/><path class="cls-1" d="M38.8,36.67l-3.74-5.34a1.54,1.54,0,0,0-1.25-.65H27.7V16.79a1.91,1.91,0,0,1,3.82,0v7.86a1.53,1.53,0,0,0,3.05,0V14.8h3a1.52,1.52,0,0,0,1.53-1.52V9.16a1.53,1.53,0,0,0-.93-1.41L20.09.12a1.54,1.54,0,0,0-1.19,0L.93,7.75A1.53,1.53,0,0,0,0,9.16v4.12A1.52,1.52,0,0,0,1.53,14.8H4V31.29a.05.05,0,0,0,0,0L.28,36.67a1.53,1.53,0,0,0-.11,1.58,1.55,1.55,0,0,0,1.36.82h36a1.53,1.53,0,0,0,1.26-2.4ZM3.05,11.75V10.17l16.45-7,16.52,7v1.58Zm21.6,5V30.68H20.83V16.79a1.91,1.91,0,0,1,3.82,0Zm-6.87,0V30.68H14V16.79a1.91,1.91,0,0,1,3.82,0Zm-6.87,0V30.68H7.1V16.79a1.91,1.91,0,1,1,3.81,0ZM4.46,36l1.6-2.29H33L34.61,36Z"/></g></g></svg>