<svg xmlns="http://www.w3.org/2000/svg" viewBox="0 0 32.6 37.4"><defs><style>.cls-1{fill:#fff;fill-rule:evenodd;}</style></defs><g id="Layer_2" data-name="Layer 2"><g id="Layer_1-2" data-name="Layer 1"><path class="cls-1" d="M1,0H31.87l.05.31c1.52,9.19.32,16.37-2,21.85A30.28,30.28,0,0,1,16.36,37.37l-.12,0-.12-.06c-.06,0-20-9.5-15.44-37L.73,0Zm30.2.73H1.36c-4.07,25.43,13.16,35,14.93,35.88a29.67,29.67,0,0,0,13-14.73C31.49,16.57,32.67,9.62,31.24.73Z"/><path class="cls-1" d="M6.1,2.06A3.56,3.56,0,1,1,2.5,5.62,3.58,3.58,0,0,1,6.1,2.06Z"/><path class="cls-1" d="M26.5,2.06a3.56,3.56,0,1,1-3.6,3.56A3.57,3.57,0,0,1,26.5,2.06Z"/><path class="cls-1" d="M16.3,2.06a3.56,3.56,0,1,1-3.6,3.56A3.58,3.58,0,0,1,16.3,2.06Z"/><path class="cls-1" d="M16.41,26.3a3.56,3.56,0,1,1-3.61,3.56A3.58,3.58,0,0,1,16.41,26.3Z"/><path class="cls-1" d="M16.3,10.87c0,.47.07.92.11,1.37,1.28,0,2.55.92,3.82.92s2.62-.93,3.93-.93,2.62.93,3.93.93,2.62-.93,3.93-.93v0c0-.45.08-.91.11-1.38H.47c0,.47.07.94.11,1.39v0c1.31,0,2.62.93,3.93.93s2.62-.93,3.93-.93,2.62.93,3.93.93,2.55-.87,3.82-.92c0-.45.08-.9.11-1.37Zm.14,1.58a1.94,1.94,0,0,0,0,.24,1.94,1.94,0,0,1,0-.24Zm0,.42h0l0,.22,0-.22Zm.17,1.26h0c.11.66.22,1.31.36,1.94a17.42,17.42,0,0,0,3.22.85c1.31,0,2.62-.93,3.93-.93s2.62.93,3.93.93c1.12,0,2.23-.68,3.35-.88.13-.62.25-1.26.34-1.92-1.23.1-2.46.92-3.69.92s-2.62-.93-3.93-.93-2.62.93-3.93.93-2.38-.77-3.58-.91Zm.85,3.94h0c.2.72.42,1.42.65,2.09a6.4,6.4,0,0,0,2.08.51c1.31,0,2.62-.93,3.93-.93s2.62.93,3.93.93a7,7,0,0,0,2.23-.56v0c.24-.68.46-1.38.65-2.11a11.62,11.62,0,0,1-2.87.76c-1.31,0-2.62-.93-3.93-.93s-2.62.93-3.93.93a10.22,10.22,0,0,1-2.73-.72Zm.7,2.24h0c0,.06.05.13.08.19s-.05-.13-.08-.19Zm.8,2h0c.32.73.65,1.42,1,2.08h.23c1.31,0,2.62-.93,3.93-.93s2.62.93,3.93.93a2.69,2.69,0,0,0,.4,0c.35-.67.69-1.38,1-2.12a4.31,4.31,0,0,1-1.4.28c-1.31,0-2.62-.94-3.93-.94s-2.62.94-3.93.94A4.09,4.09,0,0,1,19,22.33Zm1.85,3.6h0a2.53,2.53,0,0,1,.13.22,2.53,2.53,0,0,0-.13-.22Zm.15.24h0c.35.58.71,1.12,1.07,1.64l0,0a6.61,6.61,0,0,1,2.12-.53,7.24,7.24,0,0,1,2.27.58c.36-.51.71-1.05,1.05-1.61l0,0c-1.1-.21-2.2-.86-3.3-.86A15,15,0,0,0,21,26.2l0,0Zm2.15,3.1h0c.37.47.74.91,1.11,1.33h0c.36-.4.71-.83,1.07-1.28a4,4,0,0,0-1.17-.2,3.92,3.92,0,0,0-1,.15Zm4.36-3.12h0l.12-.19-.12.19Zm.17-.28h0l.11-.19-.11.19Zm2.15-4.42h0c0-.06.05-.11.07-.17s0,.11-.07.17Zm.12-.3h0c0-.07.05-.14.07-.2s-.05.13-.07.2Zm.11-.31h0l.08-.21-.08.21Zm.13-.35h0l.07-.19-.07.19Zm1.68-7h0l0-.22,0,.22Zm.06-.42h0c0-.07,0-.14,0-.22,0,.08,0,.15,0,.22Zm.05-.41h0a1.8,1.8,0,0,1,0-.22,1.8,1.8,0,0,0,0,.22ZM.82,14.12h0c.11.73.24,1.45.39,2.14,0-.07,0-.15-.05-.22,1.12.2,2.24.88,3.35.88,1.31,0,2.62-.93,3.93-.93s2.62.93,3.93.93a17.42,17.42,0,0,0,3.22-.85c.14-.63.26-1.28.36-1.94-1.19.14-2.39.91-3.58.91s-2.62-.93-3.93-.93S5.82,15,4.51,15s-2.46-.82-3.69-.92Zm.42,2.27h0a1.74,1.74,0,0,0,.05.22,1.74,1.74,0,0,1-.05-.22Zm.08.39h0c0,.06,0,.13.05.2s0-.14-.05-.2ZM1.64,18h0c.19.71.41,1.41.64,2.08a7,7,0,0,0,2.23.56c1.31,0,2.62-.93,3.93-.93s2.62.93,3.93.93a6.4,6.4,0,0,0,2.08-.51c.23-.67.45-1.37.65-2.09a10.22,10.22,0,0,1-2.73.72c-1.31,0-2.62-.93-3.93-.93s-2.62.93-3.93.93A11.73,11.73,0,0,1,1.64,18Zm1.47,4.24h0c.32.75.65,1.46,1,2.14v0a2.69,2.69,0,0,0,.4,0c1.31,0,2.62-.93,3.93-.93s2.62.93,3.93.93h.22c.36-.67.7-1.38,1-2.11v0a4.09,4.09,0,0,1-1.23.22c-1.31,0-2.62-.94-3.93-.94s-2.62.94-3.93.94a4.36,4.36,0,0,1-1.4-.28Zm2,4h0c.34.56.68,1.08,1,1.59a7.31,7.31,0,0,1,2.27-.58,6.86,6.86,0,0,1,2.12.52l0,0c.36-.51.71-1,1.05-1.61a15,15,0,0,0-3.14-.83c-1.1,0-2.2.65-3.3.86Zm2.14,3.09h0c.35.45.71.87,1.06,1.28h0c.37-.42.74-.86,1.11-1.33a3.92,3.92,0,0,0-1-.15,3.93,3.93,0,0,0-1.16.2Zm4.51-3.47h0l.1-.16Z"/></g></g></svg>