<?xml version="1.0" encoding="utf-8"?>
<!-- Generator: Adobe Illustrator 25.0.0, SVG Export Plug-In . SVG Version: 6.00 Build 0)  -->
<svg version="1.1" id="Layer_1" xmlns="http://www.w3.org/2000/svg" xmlns:xlink="http://www.w3.org/1999/xlink" x="0px" y="0px"
	 viewBox="0 0 750 696.5" style="enable-background:new 0 0 750 696.5;" xml:space="preserve">
<style type="text/css">
	.st0{fill:#D71629;}
	.st1{opacity:0.8;fill:#FFFFFF;enable-background:new    ;}
	.st2{fill:#FFFFFF;}
	.st3{fill:#EBEBEB;}
	.st4{fill:#E0E0E0;}
	.st5{fill:#F5F5F5;}
	.st6{fill:#455A64;}
	.st7{fill:#263238;}
	.st8{fill:#B78876;}
	.st9{fill:#AA6550;}
	.st10{opacity:0.3;}
	.st11{fill:#FF725E;}
	.st12{fill:#FFBE9D;}
	.st13{fill:#EB996E;}
	.st14{fill:#FAFAFA;}
	.st15{opacity:0.2;}
</style>
<g id="freepik--background-simple--inject-18_1_">
	<g id="freepik--background-simple--inject-18">
		<path class="st0" d="M496.6,78.5c-41,9.9-78.7,31.6-122,40.4c-70.2,14.3-149.3,10.1-201.3,67.9c-39.3,43.7-61.5,107.6-48.2,165.9
			C159.7,504.4,377.4,531.4,494.6,467c60.8-33.4,104.9-95.5,135.6-156.2c28.2-55.7,58.1-129,15.7-185.6c-20.2-27-52-44.2-85.3-49.8
			C537.8,71.7,516.8,73.7,496.6,78.5z"/>
		<path class="st1" d="M496.6,78.5c-41,9.9-78.7,31.6-122,40.4c-70.2,14.3-149.3,10.1-201.3,67.9c-39.3,43.7-61.5,107.6-48.2,165.9
			C159.7,504.4,377.4,531.4,494.6,467c60.8-33.4,104.9-95.5,135.6-156.2c28.2-55.7,58.1-129,15.7-185.6c-20.2-27-52-44.2-85.3-49.8
			C537.8,71.7,516.8,73.7,496.6,78.5z"/>
	</g>
</g>
<g id="freepik--background-complete--inject-18">
	<rect x="276.8" y="300.5" class="st2" width="205.7" height="119.9"/>
	<path class="st3" d="M483.3,421.1H276.1V299.8h207.1V421.1z"/>
	<path class="st4" d="M292.9,414.3c-0.1,0-0.2-24.5-0.2-54.7s0.1-54.8,0.2-54.8s0.2,24.5,0.2,54.8
		C293.1,389.8,293,414.3,292.9,414.3z"/>
	<path class="st4" d="M288.7,309.4c-2.3,0.3-4.6,0.3-6.8,0C284.1,309.2,286.4,309.2,288.7,309.4z"/>
	<path class="st4" d="M288.7,316.7c-2.3,0.3-4.6,0.3-6.8,0C284.1,316.4,286.4,316.4,288.7,316.7z"/>
	<path class="st4" d="M288.7,323.9c-2.3,0.3-4.6,0.3-6.8,0C284.1,323.6,286.4,323.6,288.7,323.9z"/>
	<path class="st4" d="M288.7,331.1c-2.3,0.3-4.6,0.3-6.8,0C284.1,330.8,286.4,330.8,288.7,331.1z"/>
	<path class="st4" d="M288.7,338.3c-2.3,0.3-4.6,0.3-6.8,0C284.1,338,286.4,338,288.7,338.3z"/>
	<path class="st4" d="M288.7,345.5c-2.3,0.3-4.6,0.3-6.8,0C284.1,345.3,286.4,345.3,288.7,345.5z"/>
	<path class="st4" d="M288.7,352.7c-2.3,0.3-4.6,0.3-6.8,0C284.1,352.5,286.4,352.5,288.7,352.7z"/>
	<path class="st4" d="M288.7,359.9c-2.3,0.3-4.6,0.3-6.8,0C284.1,359.6,286.4,359.6,288.7,359.9z"/>
	<path class="st4" d="M288.7,367.2c-2.3,0.3-4.6,0.3-6.8,0C284.1,366.9,286.4,366.9,288.7,367.2z"/>
	<path class="st4" d="M288.7,374.4c-2.3,0.3-4.6,0.3-6.8,0C284.1,374.1,286.4,374.1,288.7,374.4z"/>
	<path class="st4" d="M288.7,381.6c-2.3,0.3-4.6,0.3-6.8,0C284.1,381.3,286.4,381.3,288.7,381.6z"/>
	<path class="st4" d="M288.7,388.8c-2.3,0.3-4.6,0.3-6.8,0C284.1,388.5,286.4,388.5,288.7,388.8z"/>
	<path class="st4" d="M288.7,396c-2.3,0.3-4.6,0.3-6.8,0C284.1,395.8,286.4,395.8,288.7,396z"/>
	<path class="st4" d="M288.7,403.2c-2.3,0.3-4.6,0.3-6.8,0C284.1,403,286.4,403,288.7,403.2z"/>
	<path class="st4" d="M288.7,410.5c-2.3,0.3-4.6,0.3-6.8,0C284.1,410.2,286.4,410.2,288.7,410.5z"/>
	<path class="st4" d="M316,309c0,0.1-4,0.2-8.8,0.2s-8.9-0.1-8.9-0.2c0-0.1,4-0.2,8.9-0.2S316,308.9,316,309z"/>
	<path class="st4" d="M316,410.5c0,0.1-4,0.2-8.8,0.2s-8.9-0.1-8.9-0.2c0-0.1,4-0.2,8.9-0.2S316,410.4,316,410.5z"/>
	<path class="st4" d="M340.6,323.9c0,0.1-7.4,0.2-16.5,0.2s-16.5-0.1-16.5-0.2s7.4-0.2,16.5-0.2S340.6,323.8,340.6,323.9z"/>
	<path class="st4" d="M378.9,323.9c0,0.1-7.4,0.2-16.5,0.2s-16.5-0.1-16.5-0.2s7.4-0.2,16.5-0.2S378.9,323.8,378.9,323.9z"/>
	<path class="st4" d="M364.3,331.1c0,0.1-10.9,0.2-24.4,0.2s-24.4-0.1-24.4-0.2c0-0.1,10.9-0.2,24.4-0.2S364.3,331,364.3,331.1z"/>
	<path class="st4" d="M364.3,338.3c0,0.1-10.9,0.2-24.4,0.2s-24.4-0.1-24.4-0.2s10.9-0.2,24.4-0.2S364.3,338.2,364.3,338.3z"/>
	<path class="st4" d="M397.8,359.9c0,0.1-10.9,0.2-24.4,0.2s-24.4-0.1-24.4-0.2c0-0.1,10.9-0.2,24.4-0.2S397.8,359.8,397.8,359.9z"
		/>
	<path class="st4" d="M383.4,345.5c0,0.1-10.9,0.2-24.4,0.2s-24.4-0.1-24.4-0.2c0-0.1,10.9-0.2,24.4-0.2S383.4,345.4,383.4,345.5z"
		/>
	<path class="st4" d="M442.9,345.5c0,0.1-10.9,0.2-24.4,0.2s-24.4-0.1-24.4-0.2c0-0.1,10.9-0.2,24.4-0.2S442.9,345.4,442.9,345.5z"
		/>
	<path class="st4" d="M422.2,331.1c0,0.1-10.9,0.2-24.4,0.2s-24.4-0.1-24.4-0.2c0-0.1,10.9-0.2,24.4-0.2S422.2,331,422.2,331.1z"/>
	<path class="st4" d="M455.9,359.9c0,0.1-10.9,0.2-24.4,0.2s-24.4-0.1-24.4-0.2c0-0.1,10.9-0.2,24.4-0.2S455.9,359.8,455.9,359.9z"
		/>
	<path class="st4" d="M449.2,338.3c0,0.1-17,0.2-37.9,0.2s-37.9-0.1-37.9-0.2s17-0.2,37.9-0.2S449.2,338.2,449.2,338.3z"/>
	<path class="st4" d="M316,316.7c0,0.1-4,0.2-8.8,0.2s-8.9-0.1-8.9-0.2c0-0.1,4-0.2,8.9-0.2S316,316.6,316,316.7z"/>
	<path class="st4" d="M316,403.2c0,0.1-4,0.2-8.8,0.2s-8.9-0.1-8.9-0.2c0-0.1,4-0.2,8.9-0.2S316,403.1,316,403.2z"/>
	<path class="st4" d="M324.8,345.5c0,0.1-4,0.2-8.8,0.2s-8.9-0.1-8.9-0.2c0-0.1,4-0.2,8.9-0.2S324.8,345.4,324.8,345.5z"/>
	<path class="st4" d="M466.5,345.5c0,0.1-4,0.2-8.8,0.2s-8.8-0.1-8.8-0.2c0-0.1,4-0.2,8.8-0.2S466.5,345.4,466.5,345.5z"/>
	<path class="st4" d="M340.6,374.3c0,0.1-7.4,0.2-16.5,0.2s-16.5-0.1-16.5-0.2c0-0.1,7.4-0.2,16.5-0.2S340.6,374.2,340.6,374.3z"/>
	<path class="st4" d="M378.9,374.3c0,0.1-7.4,0.2-16.5,0.2s-16.5-0.1-16.5-0.2c0-0.1,7.4-0.2,16.5-0.2S378.9,374.2,378.9,374.3z"/>
	<path class="st4" d="M364.3,381.6c0,0.1-10.9,0.2-24.4,0.2s-24.4-0.1-24.4-0.2c0-0.1,10.9-0.2,24.4-0.2S364.3,381.5,364.3,381.6z"
		/>
	<path class="st4" d="M364.3,388.8c0,0.1-10.9,0.2-24.4,0.2s-24.4-0.1-24.4-0.2c0-0.1,10.9-0.2,24.4-0.2S364.3,388.7,364.3,388.8z"
		/>
	<path class="st4" d="M383.4,396c0,0.1-10.9,0.2-24.4,0.2s-24.4-0.1-24.4-0.2c0-0.1,10.9-0.2,24.4-0.2S383.4,395.9,383.4,396z"/>
	<path class="st4" d="M442.9,396c0,0.1-10.9,0.2-24.4,0.2s-24.4-0.1-24.4-0.2c0-0.1,10.9-0.2,24.4-0.2S442.9,395.9,442.9,396z"/>
	<path class="st4" d="M422.2,381.6c0,0.1-10.9,0.2-24.4,0.2s-24.4-0.1-24.4-0.2c0-0.1,10.9-0.2,24.4-0.2S422.2,381.5,422.2,381.6z"
		/>
	<path class="st4" d="M449.2,388.8c0,0.1-17,0.2-37.9,0.2s-37.9-0.1-37.9-0.2c0-0.1,17-0.2,37.9-0.2S449.2,388.7,449.2,388.8z"/>
	<path class="st4" d="M324.8,396c0,0.1-4,0.2-8.8,0.2s-8.9-0.1-8.9-0.2c0-0.1,4-0.2,8.9-0.2S324.8,395.9,324.8,396z"/>
	<path class="st4" d="M466.5,396c0,0.1-4,0.2-8.8,0.2s-8.8-0.1-8.8-0.2c0-0.1,4-0.2,8.8-0.2S466.5,395.9,466.5,396z"/>
	<rect x="39" y="365.2" class="st4" width="70" height="49.9"/>
	<path class="st2" d="M109.5,372.6c0,0.1-15.8,0.2-35.3,0.2S39,372.7,39,372.6s15.8-0.2,35.3-0.2S109.5,372.5,109.5,372.6z"/>
	<path class="st2" d="M44.7,368.9c0,0.5-0.5,0.9-1,0.8c-0.5,0.1-0.9-0.2-1-0.7c-0.1-0.5,0.2-0.9,0.7-1c0.1,0,0.2,0,0.3,0
		C44.2,368.1,44.7,368.4,44.7,368.9z"/>
	<path class="st2" d="M48.1,368.9c0.1,0.5-0.3,1-0.8,1.1c-0.5,0.1-1-0.3-1.1-0.8c-0.1-0.5,0.3-1,0.8-1.1c0,0,0.1,0,0.1,0
		C47.7,368.1,48.1,368.4,48.1,368.9z"/>
	<path class="st2" d="M51.5,368.9c0.1,0.5-0.3,1-0.8,1.1c-0.5,0.1-1-0.3-1.1-0.8c-0.1-0.5,0.3-1,0.8-1.1c0,0,0.1,0,0.1,0
		C51.1,368.1,51.5,368.4,51.5,368.9z"/>
	<rect x="254.3" y="438.7" class="st2" width="105.5" height="61.5"/>
	<path class="st5" d="M360.2,500.5H254v-62.2h106.2V500.5z"/>
	<path class="st4" d="M262.6,497.1c-0.1,0-0.1-12.6-0.1-28.1s0-28.1,0.1-28.1s0.1,12.6,0.1,28.1S262.6,497.1,262.6,497.1z"/>
	<path class="st4" d="M260.4,443.3c-1.2,0.1-2.3,0.1-3.5,0C258.1,443.1,259.2,443.1,260.4,443.3z"/>
	<path class="st4" d="M260.4,447c-1.2,0.1-2.3,0.1-3.5,0C258.1,446.8,259.2,446.8,260.4,447z"/>
	<path class="st4" d="M260.4,450.7c-1.2,0.1-2.3,0.1-3.5,0C258.1,450.5,259.2,450.5,260.4,450.7z"/>
	<path class="st4" d="M260.4,454.4c-1.2,0.1-2.3,0.1-3.5,0C258.1,454.2,259.2,454.2,260.4,454.4z"/>
	<path class="st4" d="M260.4,458.1c-1.2,0.1-2.3,0.1-3.5,0C258.1,457.9,259.2,457.9,260.4,458.1z"/>
	<path class="st4" d="M260.4,461.8c-1.2,0.1-2.3,0.1-3.5,0C258.1,461.6,259.2,461.6,260.4,461.8z"/>
	<path class="st4" d="M260.4,465.5c-1.2,0.1-2.3,0.1-3.5,0C258.1,465.3,259.2,465.3,260.4,465.5z"/>
	<path class="st4" d="M260.4,469.2c-1.2,0.1-2.3,0.1-3.5,0C258.1,469,259.2,469,260.4,469.2z"/>
	<path class="st4" d="M260.4,472.9c-1.2,0.1-2.3,0.1-3.5,0C258.1,472.8,259.2,472.8,260.4,472.9z"/>
	<path class="st4" d="M260.4,476.6c-1.2,0.1-2.3,0.1-3.5,0C258.1,476.4,259.2,476.4,260.4,476.6z"/>
	<path class="st4" d="M260.4,480.3c-1.2,0.1-2.3,0.1-3.5,0C258.1,480.1,259.2,480.1,260.4,480.3z"/>
	<path class="st4" d="M260.4,484c-1.2,0.1-2.3,0.1-3.5,0C258.1,483.8,259.2,483.8,260.4,484z"/>
	<path class="st4" d="M260.4,487.7c-1.2,0.1-2.3,0.1-3.5,0C258.1,487.5,259.2,487.5,260.4,487.7z"/>
	<path class="st4" d="M260.4,491.4c-1.2,0.1-2.3,0.1-3.5,0C258.1,491.2,259.2,491.2,260.4,491.4z"/>
	<path class="st4" d="M260.4,495.1c-1.2,0.1-2.3,0.1-3.5,0C258.1,494.9,259.2,494.9,260.4,495.1z"/>
	<path class="st4" d="M274.4,443c0,0.1-2,0.1-4.5,0.1s-4.5,0-4.5-0.1s2-0.1,4.5-0.1S274.4,443,274.4,443z"/>
	<path class="st4" d="M274.4,495.1c0,0-2,0.1-4.5,0.1s-4.5,0-4.5-0.1s2-0.1,4.5-0.1S274.4,495,274.4,495.1z"/>
	<path class="st4" d="M287,450.7c0,0.1-3.8,0.1-8.5,0.1s-8.5,0-8.5-0.1s3.8-0.1,8.5-0.1S287,450.6,287,450.7z"/>
	<path class="st4" d="M306.7,450.7c0,0.1-3.8,0.1-8.5,0.1s-8.5,0-8.5-0.1s3.8-0.1,8.5-0.1S306.7,450.6,306.7,450.7z"/>
	<path class="st4" d="M299.2,454.4c0,0.1-5.6,0.1-12.5,0.1s-12.5,0-12.5-0.1s5.6-0.1,12.5-0.1S299.2,454.3,299.2,454.4z"/>
	<path class="st4" d="M299.2,458.1c0,0.1-5.6,0.1-12.5,0.1s-12.5,0-12.5-0.1s5.6-0.1,12.5-0.1S299.2,458,299.2,458.1z"/>
	<path class="st4" d="M316.4,469.2c0,0.1-5.6,0.1-12.5,0.1s-12.5,0-12.5-0.1s5.6-0.1,12.5-0.1S316.4,469.1,316.4,469.2z"/>
	<path class="st4" d="M309,461.8c0,0.1-5.6,0.1-12.5,0.1s-12.5,0-12.5-0.1s5.6-0.1,12.5-0.1S309,461.7,309,461.8z"/>
	<path class="st4" d="M339.5,461.8c0,0.1-5.6,0.1-12.5,0.1s-12.5,0-12.5-0.1s5.6-0.1,12.5-0.1S339.5,461.7,339.5,461.8z"/>
	<path class="st4" d="M328.9,454.4c0,0.1-5.6,0.1-12.5,0.1s-12.5,0-12.5-0.1s5.6-0.1,12.5-0.1S328.9,454.3,328.9,454.4z"/>
	<path class="st4" d="M346.2,469.2c0,0.1-5.6,0.1-12.5,0.1s-12.5,0-12.5-0.1s5.6-0.1,12.5-0.1S346.2,469.1,346.2,469.2z"/>
	<path class="st4" d="M342.7,458.1c0,0.1-8.7,0.1-19.4,0.1s-19.4,0-19.4-0.1s8.7-0.1,19.4-0.1S342.7,458,342.7,458.1z"/>
	<path class="st4" d="M274.4,447c0,0-2,0.1-4.5,0.1s-4.5,0-4.5-0.1s2-0.1,4.5-0.1S274.4,446.9,274.4,447z"/>
	<path class="st4" d="M274.4,491.4c0,0-2,0.1-4.5,0.1s-4.5,0-4.5-0.1s2-0.1,4.5-0.1S274.4,491.3,274.4,491.4z"/>
	<path class="st4" d="M278.9,461.8c0,0.1-2,0.1-4.5,0.1s-4.5,0-4.5-0.1s2-0.1,4.5-0.1S278.9,461.7,278.9,461.8z"/>
	<path class="st4" d="M351.6,461.8c0,0.1-2,0.1-4.5,0.1s-4.5,0-4.5-0.1s2-0.1,4.5-0.1S351.6,461.7,351.6,461.8z"/>
	<path class="st4" d="M287,476.5c0,0.1-3.8,0.1-8.5,0.1s-8.5,0-8.5-0.1s3.8-0.1,8.5-0.1S287,476.5,287,476.5z"/>
	<path class="st4" d="M306.7,476.5c0,0.1-3.8,0.1-8.5,0.1s-8.5,0-8.5-0.1s3.8-0.1,8.5-0.1S306.7,476.5,306.7,476.5z"/>
	<path class="st4" d="M299.2,480.2c0,0.1-5.6,0.1-12.5,0.1s-12.5,0-12.5-0.1s5.6-0.1,12.5-0.1S299.2,480.2,299.2,480.2z"/>
	<path class="st4" d="M299.2,483.9c0,0.1-5.6,0.1-12.5,0.1s-12.5,0-12.5-0.1s5.6-0.1,12.5-0.1S299.2,483.9,299.2,483.9z"/>
	<path class="st4" d="M309,487.6c0,0.1-5.6,0.1-12.5,0.1s-12.5,0-12.5-0.1s5.6-0.1,12.5-0.1S309,487.6,309,487.6z"/>
	<path class="st4" d="M339.5,487.6c0,0.1-5.6,0.1-12.5,0.1s-12.5,0-12.5-0.1s5.6-0.1,12.5-0.1S339.5,487.6,339.5,487.6z"/>
	<path class="st4" d="M328.9,480.2c0,0.1-5.6,0.1-12.5,0.1s-12.5,0-12.5-0.1s5.6-0.1,12.5-0.1S328.9,480.2,328.9,480.2z"/>
	<path class="st4" d="M342.7,483.9c0,0.1-8.7,0.1-19.4,0.1s-19.4,0-19.4-0.1s8.7-0.1,19.4-0.1S342.7,483.9,342.7,483.9z"/>
	<path class="st4" d="M278.9,487.6c0,0.1-2,0.1-4.5,0.1s-4.5,0-4.5-0.1s2-0.1,4.5-0.1S278.9,487.6,278.9,487.6z"/>
	<path class="st4" d="M351.6,487.6c0,0.1-2,0.1-4.5,0.1s-4.5,0-4.5-0.1s2-0.1,4.5-0.1S351.6,487.6,351.6,487.6z"/>
	<rect x="556" y="234.2" class="st2" width="105.5" height="61.5"/>
	<path class="st5" d="M661.9,296.1H555.6v-62.2h106.3V296.1z"/>
	<path class="st4" d="M564.2,292.6c-0.1,0-0.1-12.6-0.1-28.1c0-15.5,0-28.1,0.1-28.1s0.1,12.6,0.1,28.1
		C564.3,280.1,564.3,292.6,564.2,292.6z"/>
	<path class="st4" d="M562.1,238.8c-1.2,0.1-2.3,0.1-3.5,0C559.7,238.7,560.9,238.7,562.1,238.8z"/>
	<path class="st4" d="M562.1,242.5c-1.2,0.1-2.3,0.1-3.5,0C559.7,242.4,560.9,242.4,562.1,242.5z"/>
	<path class="st4" d="M562.1,246.2c-1.2,0.1-2.3,0.1-3.5,0C559.7,246.1,560.9,246.1,562.1,246.2z"/>
	<path class="st4" d="M562.1,249.9c-1.2,0.1-2.3,0.1-3.5,0C559.7,249.8,560.9,249.8,562.1,249.9z"/>
	<path class="st4" d="M562.1,253.6c-1.2,0.1-2.3,0.1-3.5,0C559.7,253.5,560.9,253.5,562.1,253.6z"/>
	<path class="st4" d="M562.1,257.3c-1.2,0.1-2.3,0.1-3.5,0C559.7,257.2,560.9,257.2,562.1,257.3z"/>
	<path class="st4" d="M562.1,261c-1.2,0.1-2.3,0.1-3.5,0C559.7,260.9,560.9,260.9,562.1,261z"/>
	<path class="st4" d="M562.1,264.7c-1.2,0.1-2.3,0.1-3.5,0C559.7,264.6,560.9,264.6,562.1,264.7z"/>
	<path class="st4" d="M562.1,268.4c-1.2,0.1-2.3,0.1-3.5,0C559.7,268.3,560.9,268.3,562.1,268.4z"/>
	<path class="st4" d="M562.1,272.1c-1.2,0.1-2.3,0.1-3.5,0C559.7,272,560.9,272,562.1,272.1z"/>
	<path class="st4" d="M562.1,275.8c-1.2,0.1-2.3,0.1-3.5,0C559.7,275.7,560.9,275.7,562.1,275.8z"/>
	<path class="st4" d="M562.1,279.5c-1.2,0.1-2.3,0.1-3.5,0C559.7,279.4,560.9,279.4,562.1,279.5z"/>
	<path class="st4" d="M562.1,283.2c-1.2,0.1-2.3,0.1-3.5,0C559.7,283.1,560.9,283.1,562.1,283.2z"/>
	<path class="st4" d="M562.1,286.9c-1.2,0.1-2.3,0.1-3.5,0C559.7,286.8,560.9,286.8,562.1,286.9z"/>
	<path class="st4" d="M562.1,290.6c-1.2,0.1-2.3,0.1-3.5,0C559.7,290.5,560.9,290.5,562.1,290.6z"/>
	<path class="st4" d="M576.1,238.6c0,0.1-2,0.1-4.5,0.1s-4.5,0-4.5-0.1c0-0.1,2-0.1,4.5-0.1S576.1,238.6,576.1,238.6z"/>
	<path class="st4" d="M576.1,290.6c0,0-2,0.1-4.5,0.1s-4.5,0-4.5-0.1c0-0.1,2-0.1,4.5-0.1S576.1,290.6,576.1,290.6z"/>
	<path class="st4" d="M588.7,246.2c0,0-3.8,0.1-8.5,0.1s-8.5-0.1-8.5-0.1c0,0,3.8-0.1,8.5-0.1S588.7,246.2,588.7,246.2z"/>
	<path class="st4" d="M608.3,246.2c0,0-3.8,0.1-8.5,0.1s-8.5-0.1-8.5-0.1c0,0,3.8-0.1,8.5-0.1S608.3,246.2,608.3,246.2z"/>
	<path class="st4" d="M600.8,249.9c0,0.1-5.6,0.1-12.5,0.1s-12.5,0-12.5-0.1c0-0.1,5.6-0.1,12.5-0.1S600.8,249.9,600.8,249.9z"/>
	<path class="st4" d="M600.8,253.6c0,0.1-5.6,0.1-12.5,0.1s-12.5,0-12.5-0.1c0-0.1,5.6-0.1,12.5-0.1S600.8,253.6,600.8,253.6z"/>
	<path class="st4" d="M618,264.7c0,0.1-5.6,0.1-12.5,0.1s-12.5,0-12.5-0.1c0-0.1,5.6-0.1,12.5-0.1S618,264.7,618,264.7z"/>
	<path class="st4" d="M610.6,257.3c0,0.1-5.6,0.1-12.5,0.1s-12.5,0-12.5-0.1c0-0.1,5.6-0.1,12.5-0.1S610.6,257.3,610.6,257.3z"/>
	<path class="st4" d="M641.2,257.3c0,0.1-5.6,0.1-12.5,0.1s-12.5,0-12.5-0.1c0-0.1,5.6-0.1,12.5-0.1S641.2,257.3,641.2,257.3z"/>
	<path class="st4" d="M630.5,249.9c0,0.1-5.6,0.1-12.5,0.1s-12.5,0-12.5-0.1c0-0.1,5.6-0.1,12.5-0.1S630.5,249.9,630.5,249.9z"/>
	<path class="st4" d="M647.8,264.7c0,0.1-5.6,0.1-12.5,0.1s-12.5,0-12.5-0.1c0-0.1,5.6-0.1,12.5-0.1S647.8,264.7,647.8,264.7z"/>
	<path class="st4" d="M644.4,253.6c0,0.1-8.7,0.1-19.4,0.1s-19.4,0-19.4-0.1c0-0.1,8.7-0.1,19.4-0.1S644.4,253.6,644.4,253.6z"/>
	<path class="st4" d="M576.1,242.5c0,0.1-2,0.1-4.5,0.1s-4.5,0-4.5-0.1c0-0.1,2-0.1,4.5-0.1S576.1,242.5,576.1,242.5z"/>
	<path class="st4" d="M576.1,286.9c0,0-2,0.1-4.5,0.1s-4.5,0-4.5-0.1s2-0.1,4.5-0.1S576.1,286.9,576.1,286.9z"/>
	<path class="st4" d="M580.6,257.3c0,0.1-2,0.1-4.5,0.1s-4.5,0-4.5-0.1c0-0.1,2-0.1,4.5-0.1S580.6,257.3,580.6,257.3z"/>
	<path class="st4" d="M653.3,257.3c0,0.1-2,0.1-4.5,0.1s-4.5,0-4.5-0.1c0-0.1,2-0.1,4.5-0.1S653.3,257.3,653.3,257.3z"/>
	<path class="st4" d="M588.7,272.1c0,0.1-3.8,0.1-8.5,0.1s-8.5,0-8.5-0.1c0-0.1,3.8-0.1,8.5-0.1S588.7,272.1,588.7,272.1z"/>
	<path class="st4" d="M608.3,272.1c0,0.1-3.8,0.1-8.5,0.1s-8.5,0-8.5-0.1c0-0.1,3.8-0.1,8.5-0.1S608.3,272.1,608.3,272.1z"/>
	<path class="st4" d="M600.8,275.8c0,0.1-5.6,0.1-12.5,0.1s-12.5,0-12.5-0.1s5.6-0.1,12.5-0.1S600.8,275.8,600.8,275.8z"/>
	<path class="st4" d="M600.8,279.5c0,0.1-5.6,0.1-12.5,0.1s-12.5,0-12.5-0.1c0-0.1,5.6-0.1,12.5-0.1S600.8,279.5,600.8,279.5z"/>
	<path class="st4" d="M610.6,283.2c0,0.1-5.6,0.1-12.5,0.1s-12.5,0-12.5-0.1c0-0.1,5.6-0.1,12.5-0.1S610.6,283.2,610.6,283.2z"/>
	<path class="st4" d="M641.2,283.2c0,0.1-5.6,0.1-12.5,0.1s-12.5,0-12.5-0.1c0-0.1,5.6-0.1,12.5-0.1S641.2,283.2,641.2,283.2z"/>
	<path class="st4" d="M630.5,275.8c0,0.1-5.6,0.1-12.5,0.1s-12.5,0-12.5-0.1s5.6-0.1,12.5-0.1S630.5,275.8,630.5,275.8z"/>
	<path class="st4" d="M644.4,279.5c0,0.1-8.7,0.1-19.4,0.1s-19.4,0-19.4-0.1c0-0.1,8.7-0.1,19.4-0.1S644.4,279.5,644.4,279.5z"/>
	<path class="st4" d="M580.6,283.2c0,0.1-2,0.1-4.5,0.1s-4.5,0-4.5-0.1c0-0.1,2-0.1,4.5-0.1S580.6,283.2,580.6,283.2z"/>
	<path class="st4" d="M653.3,283.2c0,0.1-2,0.1-4.5,0.1s-4.5,0-4.5-0.1c0-0.1,2-0.1,4.5-0.1S653.3,283.2,653.3,283.2z"/>
	<path class="st4" d="M687.2,380.3c0.2-0.3,0.5-0.6,0.8-0.9l2.3-2.3c1.9-1.9,4.6-4.5,7.6-7.4l0.1-0.1v0.4c-3-2.8-5.7-5.4-7.7-7.2
		l-2.3-2.2c-0.3-0.3-0.6-0.5-0.8-0.9c0.3,0.2,0.6,0.4,0.9,0.7l2.4,2.1c2,1.8,4.8,4.3,7.8,7.1l0.2,0.2l-0.2,0.2l-0.1,0.1
		c-3,2.9-5.7,5.4-7.7,7.2l-2.4,2.1C687.9,379.9,687.6,380.1,687.2,380.3z"/>
	<path class="st4" d="M664,359.8c-0.2,0.3-0.5,0.6-0.8,0.9L661,363c-1.9,1.9-4.6,4.5-7.6,7.4l-0.1,0.1V370c3,2.8,5.7,5.4,7.7,7.2
		l2.3,2.2c0.3,0.3,0.6,0.6,0.8,0.9c-0.3-0.2-0.6-0.4-0.9-0.7l-2.4-2.1c-2-1.8-4.8-4.3-7.8-7.1l-0.2-0.2l0.2-0.2l0.1-0.1
		c3-2.9,5.7-5.4,7.7-7.3l2.4-2.1C663.4,360.3,663.7,360,664,359.8z"/>
	<path class="st4" d="M670,385.2c-0.1,0,2.3-6.9,5.5-15.3c3.2-8.4,5.8-15.2,5.9-15.1s-2.3,6.9-5.5,15.3S670.1,385.2,670,385.2z"/>
	<path class="st4" d="M713.7,399.9c0,0,0-0.4,0-1.1s0-1.9,0-3.3c0-2.9,0-7.1-0.1-12.5c0-10.8-0.1-26.1-0.1-44.7l0.2,0.2h-75.6l0,0
		l0.3-0.3c0,22.3,0,43.3,0,61.6l-0.2-0.2l54.6,0.1l15.5,0.1h4.1h1.1l0,0h-1h-4.1l-15.4,0.1l-54.8,0.1h-0.2v-0.2
		c0-18.3,0-39.3,0-61.6v-0.3h0.1h75.6h0.2v0.2c0,18.6-0.1,34-0.1,44.8c0,5.4,0,9.6,0,12.5c0,1.4,0,2.5,0,3.3
		C713.7,399.3,713.7,399.9,713.7,399.9z"/>
	<path class="st4" d="M714.3,347.4c0,0.1-17.1,0.3-38.1,0.3s-38.1-0.1-38.1-0.3c0-0.1,17.1-0.3,38.1-0.3S714.3,347.2,714.3,347.4z"
		/>
	<path class="st4" d="M644.2,342.9c0,0.6-0.4,1-1,1s-1-0.4-1-1c0-0.6,0.4-1,1-1S644.2,342.4,644.2,342.9z"/>
	<path class="st4" d="M647.9,342.9c0,0.6-0.4,1-1,1s-1-0.4-1-1c0-0.6,0.4-1,1-1S647.9,342.4,647.9,342.9z"/>
	<path class="st4" d="M651.6,342.9c0,0.6-0.4,1-1,1s-1-0.4-1-1c0-0.6,0.4-1,1-1S651.6,342.4,651.6,342.9z"/>
</g>
<g id="freepik--character-2--inject-18">
	<path class="st6" d="M700.3,635.3l11.7-124c0.9-9.3-5.9-17.5-15.2-18.4c-0.4,0-0.8-0.1-1.2-0.1l-130.4-2.6
		c-8.9-0.2-16.4,6.6-17.1,15.5l-10,129.5L700.3,635.3z"/>
	<path class="st7" d="M681.8,635.3c0-0.1,0-0.3,0-0.4c0-0.3,0.1-0.7,0.1-1.3c0.1-1.2,0.3-2.8,0.4-5c0.4-4.3,1-10.6,1.7-18.3
		c1.5-15.4,3.5-36.7,5.7-60.2c1.8-18.3,3.4-35.3,4.8-49l0,0c0-0.7,0-1.4,0-2c0-0.7,0-1.3-0.2-1.9c-0.3-1.2-1-2.2-2-3
		c-0.9-0.7-2.1-1.2-3.3-1.2l-3.4-0.1l-11.4-0.3l-7.3-0.2l-1.9-0.1c-0.4,0-0.7,0-0.7,0s0.2,0,0.7,0h1.9l7.3,0.1l11.4,0.2l3.4,0.1
		c2.7,0.1,4.9,1.9,5.6,4.5c0.2,0.7,0.2,1.3,0.2,2l0.1,2l0,0l0,0c-1.3,13.8-2.9,30.7-4.7,49c-2.3,23.5-4.4,44.8-5.9,60.2
		c-0.8,7.7-1.4,13.9-1.8,18.2c-0.2,2.1-0.4,3.8-0.5,5c-0.1,0.5-0.1,1-0.2,1.3C681.8,635.2,681.8,635.3,681.8,635.3z"/>
	<path class="st8" d="M524.9,539.7c-1.8,0-14,22.1-22.9,38.8c-6,11.1-17.8,17.6-30.4,16.7l0,0c-14.9-1-27.1-12.3-29.4-27.1
		l-7.5-86.2l30.2-7.5l12.3,67.5l7.6-21.5L524.9,539.7z"/>
	<path class="st8" d="M465.2,480.7l-1-15.1c0,0-4.3-33.9-4.3-37.3c0-3.8-1.8-4.8-3.2-4.7c-2.2,0.1-3.8,2.9-3.9,6.1
		c0,1.1,0.1,19.1,0.1,19.1c-1-1.7-2.2-3.3-3.5-4.8c-2.6-3.4-8.9-5.3-15.3-5.1c-6.4,0.2-8.2,0.8-8.2,3.3c0,1,0.5,1.8,1.3,2.4
		c1.2,1,2.7,1.5,4.2,1.5c10.2-0.2,13,5.3,13,5.3l0.1,2c0,0-6.2-4.5-11.2-2.6c-0.7,0.3-1.4,0.7-2,1.2c-4.4,0-8,3.6-8,8
		c0,1.4,0.4,2.7,1,3.9c0.7,1.2,1.9,2.3,3.2,2c0.7-0.2,1.3-0.6,1.8-1.1c0.3-0.3,0.6-0.5,0.9-0.7l1.1,5.5c0,0,3.2,12.2,4,17.7"/>
	<path class="st8" d="M462.3,479.5c-1.9,0.5-3.8-0.9-4.8-2.5s-1.4-3.6-2.3-5.4c-2.7-5.2-9.1-7.7-11.5-13c-0.3-0.7-0.5-1.8,0.1-2.2
		s1.5-0.1,2.1,0.3l16.9,9.4"/>
	<path class="st9" d="M462.7,466c-0.5-0.5-1.1-0.9-1.7-1.2c-1.1-0.7-2.8-1.7-4.9-2.9l-7.3-4.2l-2.1-1.2c-0.7-0.3-1.5-1.1-2.8-0.8
		c-0.6,0.2-1.1,0.8-1.1,1.5c0,0.5,0.1,1.1,0.3,1.5c0.4,0.9,0.9,1.7,1.5,2.5c2.3,3,5.4,4.9,7.5,7.2c1.1,1,2,2.2,2.7,3.4
		c0.6,1.2,1,2.5,1.5,3.6c0.6,1.9,2,3.5,3.9,4.2c0.7,0.3,1.5,0.3,2.1-0.1c-0.7,0-1.4-0.1-2-0.3c-1.6-0.8-2.9-2.3-3.3-4.1
		c-0.4-1.3-0.9-2.5-1.5-3.7c-0.7-1.4-1.7-2.6-2.8-3.7c-2.2-2.3-5.2-4.3-7.4-7.1c-0.5-0.7-1-1.4-1.3-2.2c-0.3-0.7-0.3-1.5,0.1-1.5
		s1.2,0.3,1.9,0.7l2.1,1.2l7.4,4c2.1,1.1,3.9,2,5.1,2.6C461.4,465.5,462,465.8,462.7,466z"/>
	<path class="st9" d="M444.8,453.5c-0.1-1.2-0.5-2.4-1.2-3.5c-0.8-1.1-1.9-1.9-3.1-2.3c-1.6-0.5-3.2-0.7-4.9-0.7
		c-1.7,0-3.4-0.1-5.1-0.4c-1.4-0.3-2.7-0.9-3.8-1.9c-0.7-0.7-1.1-1.7-1-2.6c0-0.4,0.1-0.7,0.3-1c0.1,0,0,0.4-0.1,1
		c0,0.9,0.4,1.7,1.1,2.3c1,0.8,2.3,1.4,3.6,1.6c1.6,0.3,3.3,0.4,4.9,0.4c1.7,0,3.4,0.2,5,0.8c1.4,0.5,2.5,1.4,3.3,2.6
		c0.5,0.8,0.8,1.7,0.9,2.7C445,453.1,444.9,453.5,444.8,453.5z"/>
	<path class="st9" d="M452.9,428.5c0.1,1.2,0.1,2.4,0,3.6c0,2.4,0,5.4-0.1,8.6s0,6.1,0,8.6c0.1,1.2,0,2.4-0.1,3.6
		c-0.3-1.2-0.4-2.4-0.4-3.5c-0.1-2.2-0.3-5.2-0.2-8.6c0-3.4,0.1-6.4,0.3-8.6C452.4,430.9,452.6,429.7,452.9,428.5z"/>
	<path class="st9" d="M440.8,457.5c-0.3-0.1-0.7-0.2-1-0.4c-0.9-0.4-1.9-0.5-2.8-0.1c-0.6,0.3-0.9,0.9-0.9,1.5c0,0.8,0,1.6,0.2,2.3
		c0.2,1,0.1,2-0.4,2.8c-0.6,0.9-1.6,1.4-2.7,1.4c-1.1,0-2.1-0.4-2.8-1.2c-0.7-0.7-1.1-1.5-1.3-2.5c-0.2-1.5-0.2-3.1,0.1-4.6
		c0.1-1,0.4-2,0.9-3c0.4-0.6,0.7-0.9,0.7-0.9c-0.1,0.3-0.3,0.7-0.5,1c-0.3,0.9-0.6,1.9-0.7,2.9c-0.2,1.5-0.1,2.9,0.1,4.4
		c0.3,1.7,1.7,3,3.5,3.1c0.9,0,1.7-0.4,2.2-1.1c0.4-0.7,0.5-1.5,0.4-2.3c-0.1-0.8-0.2-1.7-0.1-2.5c0.1-0.8,0.6-1.5,1.3-1.9
		c1-0.4,2.2-0.3,3.1,0.3C440.5,457.2,440.8,457.5,440.8,457.5z"/>
	<path class="st9" d="M430.5,463.3c0,0,0.1,0.4-0.1,1c-0.4,0.9-1.1,1.6-2.1,1.8c-1.4,0.3-2.9-0.1-3.9-1.2c-1.2-1.3-1.8-3-1.8-4.7
		c0-1.7,0.5-3.4,1.5-4.8c0.8-1.1,1.9-2,3.2-2.6c0.8-0.4,1.8-0.6,2.7-0.6c0.6,0,1,0,1,0.1c-1.2,0.2-2.4,0.5-3.5,1
		c-1.2,0.6-2.1,1.4-2.9,2.5c-0.9,1.3-1.4,2.8-1.4,4.4c0,1.6,0.5,3.1,1.5,4.3c0.8,0.9,2.1,1.4,3.3,1.2c0.8-0.2,1.5-0.7,2-1.5
		C430.5,463.6,430.5,463.3,430.5,463.3z"/>
	<path class="st9" d="M442.9,475.3c0.6-0.2,1.2-0.2,1.7,0c1.5,0.3,2.8,1.1,3.7,2.3l-0.6,0.2c0.1-0.8,0.2-1.6,0.4-2.4
		c1-4.6,3.6-7.6,3.7-7.5s-2,3.2-3,7.6c-0.2,0.8-0.3,1.6-0.4,2.3l-0.1,0.8l-0.5-0.6c-0.9-1.1-2-1.9-3.3-2.3
		C443.5,475.4,442.9,475.4,442.9,475.3z"/>
	<path class="st9" d="M442.5,444.7c0.2,0.1-0.5,1.4-2.1,2c-1.6,0.6-3,0.3-2.9,0.1s1.3-0.2,2.6-0.8
		C441.5,445.5,442.4,444.6,442.5,444.7z"/>
	<path class="st0" d="M633.9,552.7l52.8-13c0,0-3.4-8.1-12.7-35.8c-8.6-25.5-16-34.3-16-34.3s-27-14.9-42.8-23.5l-11.1-11.7v1.2
		l-10.3,4.5l-16.3,7.2l-15.7-5.8l-6.6-2.4l-2.3,4.6l-28,7.7c0,0-20,7.3-32.8,36.6c-15.8,36.2-17,42.5-17,42.5l41.4,24l-6.9,80.8
		l126.5,0.1l-2.5-61.9L633.9,552.7z"/>
	<path class="st7" d="M626.7,489c0-0.4,0-0.9,0.1-1.3c0.2-1.2,0.5-2.3,1-3.4c1.5-3.7,4-6.9,7.2-9.2c4.2-3,9.2-4.7,14.4-4.9
		c0.4,0,0.9,0,1.3,0c0,0.1-1.9,0.1-4.8,0.7c-3.8,0.7-7.4,2.3-10.6,4.6c-3.1,2.3-5.6,5.4-7.2,8.9C627.5,485.8,627,487.4,626.7,489z"
		/>
	<path class="st7" d="M686.8,539.7l-0.3,0.1l-0.8,0.2l-3.1,0.8l-11.5,2.9l-38.2,9.3l-0.2,0l-0.3,0.1l0-0.3
		c-2.5-15.1-4.9-28.7-6.5-38.6c-0.8-4.9-1.5-8.9-1.9-11.7c-0.2-1.4-0.4-2.4-0.5-3.2c0-0.3-0.1-0.6-0.1-0.8c0-0.1,0-0.2,0-0.3
		c0,0.1,0.1,0.2,0.1,0.3c0,0.2,0.1,0.5,0.2,0.8c0.2,0.8,0.3,1.8,0.6,3.2c0.5,2.8,1.2,6.8,2.1,11.7c1.7,9.9,4.1,23.5,6.7,38.5
		l-0.3-0.2l0.2-0.1l38.2-9.1l11.6-2.7l3.2-0.7l0.8-0.2C686.6,539.7,686.7,539.7,686.8,539.7z"/>
	<path class="st7" d="M552.9,443.7c0.1,0.3,0.2,0.5,0.2,0.8c0.1,0.6,0.2,1.4,0.4,2.3v-0.1c3.4,4.2,7.3,8.1,11.5,11.6
		c0.5,0.4,1,0.8,1.6,1.2c0.5,0.4,1.1,0.8,1.5,0.6s0.7-0.9,1-1.4l0.9-1.6c1.2-2,2.3-3.8,3.3-5.3s1.8-2.6,2.5-3.4
		c0.3-0.4,0.6-0.7,0.7-0.9s0.3-0.3,0.3-0.3c-0.3,0.4-0.5,0.9-0.9,1.3c-0.6,0.8-1.4,2-2.3,3.5s-2,3.3-3.2,5.3c-0.3,0.5-0.6,1-0.9,1.6
		l-0.4,0.8c-0.2,0.3-0.4,0.6-0.7,0.8c-0.4,0.2-0.8,0.2-1.2,0c-0.3-0.2-0.6-0.3-0.9-0.6c-0.5-0.4-1-0.8-1.6-1.2
		c-4.3-3.5-8.1-7.4-11.4-11.8l0,0l0,0c-0.1-0.9-0.2-1.7-0.3-2.3C552.9,444.3,552.9,444,552.9,443.7z"/>
	<path class="st7" d="M613.5,445.4c-0.1,0.1-0.3,0.2-0.4,0.3l-1.2,0.7l-4.5,2.6c-3.8,2.2-9.1,5.3-14.8,8.9c-2.4,1.6-4.8,3.1-6.9,4.5
		l-0.2,0.1l-0.1-0.2c-2.3-4.1-4.3-7.7-5.5-10.3c-0.6-1.3-1.1-2.3-1.4-3c-0.2-0.4-0.3-0.7-0.4-1.1c0.2,0.3,0.4,0.7,0.5,1.1
		c0.3,0.7,0.9,1.7,1.5,3c1.3,2.5,3.3,6.1,5.7,10.1l-0.3-0.1c2.1-1.4,4.4-3,6.9-4.6c5.7-3.6,11-6.7,14.9-8.8c1.9-1.1,3.5-1.9,4.6-2.4
		l1.3-0.6C613.2,445.5,613.3,445.5,613.5,445.4z"/>
	<path class="st7" d="M584.6,503.6c-0.2,0-0.5,0-0.7,0l-2.1-0.2l-7.7-0.8h-0.2v-0.2c0.2-5.2,0.4-11.9,0.7-19.3
		c0.4-8.2,0.7-15.7,0.9-21.1c0.1-2.6,0.3-4.8,0.3-6.4c0-0.7,0.1-1.3,0.1-1.7c0-0.2,0-0.4,0.1-0.6c0,0.2,0,0.4,0,0.6c0,0.5,0,1,0,1.8
		c0,1.6-0.1,3.8-0.2,6.4c-0.2,5.5-0.5,12.9-0.8,21.1c-0.3,7.4-0.6,14.1-0.8,19.3l-0.2-0.2l7.7,1l2.1,0.3
		C584.1,503.5,584.4,503.5,584.6,503.6z"/>
	<path class="st7" d="M584,471.6c0,0,0.1,0,0.2,0c0.2,0,0.4,0.1,0.6,0.2c0.7,0.4,1.2,1,1.6,1.7c0.5,1.1,0.5,2.4,0,3.5
		c-0.3,0.6-0.9,1.2-1.5,1.5c-0.7,0.3-1.5,0.4-2.2,0.4c-0.8-0.1-1.5-0.4-2.1-0.9c-0.6-0.4-1-1.1-1.2-1.8c-0.3-1.2,0-2.4,0.7-3.3
		c0.5-0.6,1.2-1.1,1.9-1.4c0.2-0.1,0.4-0.1,0.6-0.1c0.1,0,0.2,0,0.2,0c0,0.1-0.3,0.1-0.8,0.3c-0.7,0.3-1.3,0.8-1.7,1.4
		c-0.6,0.9-0.8,2-0.6,3c0.7,1.8,2.7,2.7,4.5,2c0.7-0.3,1.3-0.7,1.7-1.3c0.5-1,0.5-2.1,0.1-3.1c-0.3-0.7-0.7-1.3-1.3-1.7
		C584.2,471.8,583.9,471.7,584,471.6z"/>
	<path class="st7" d="M583.3,488.5c0.1,0,0.1,0,0.2,0c0.2,0,0.4,0.1,0.6,0.2c0.7,0.4,1.2,1,1.6,1.7c0.5,1.1,0.5,2.4,0,3.5
		c-0.3,0.6-0.9,1.2-1.5,1.5c-0.7,0.3-1.5,0.4-2.3,0.4c-0.8-0.1-1.5-0.4-2.1-0.9c-0.6-0.4-1-1.1-1.2-1.8c-0.3-1.2,0-2.4,0.8-3.4
		c0.5-0.6,1.2-1.1,1.9-1.3c0.2-0.1,0.4-0.1,0.6-0.1c0.1,0,0.2,0,0.2,0c0,0.1-0.3,0.1-0.8,0.3c-0.7,0.3-1.3,0.8-1.7,1.4
		c-0.6,0.9-0.8,2-0.6,3c0.7,1.8,2.7,2.7,4.5,2c0.7-0.3,1.3-0.7,1.7-1.3c0.5-1,0.5-2.1,0.1-3.1c-0.3-0.7-0.7-1.3-1.3-1.7
		C583.5,488.7,583.2,488.6,583.3,488.5z"/>
	<g class="st10">
		<path d="M577.9,447.6c-0.2,0.4,2.6,11.4,4.6,18.6c0.7,2.4,3.1,3.7,5.5,3.1c0.7-0.2,1.4-0.6,2-1.2l20.9-21.3l-25.3,15.4
			L577.9,447.6z"/>
	</g>
	<g class="st10">
		<path d="M554.3,448c0,0,4.8,16.9,14.2,18.3c0,0,3,0.1,3.7-2.3s4.5-16.6,4.5-16.6l-8.7,13C562.6,457.3,557.9,453.1,554.3,448z"/>
	</g>
	<path class="st8" d="M604.1,435.6l0.2-66.8c0.1-19.7-15.9-35.8-35.6-35.9c-0.3,0-0.7,0-1,0h-0.5c-19.4,1.6-34.4,17.9-34.3,37.4
		c0,17.1,0.3,35.6,1.2,44.6c1.8,19.2,21.3,20.6,21.3,20.6s0,1.4,0,3.5l22.3,8.2L604.1,435.6z"/>
	<path class="st9" d="M555.3,435.3c0,0,12.2,0,24.5-9.2c0,0-4.8,14.4-24.1,14.2L555.3,435.3z"/>
	<path class="st7" d="M539.3,382c0.1,1.5,1.4,2.6,2.9,2.6c1.5,0,2.6-1.2,2.6-2.7c0,0,0,0,0-0.1c-0.1-1.5-1.4-2.6-2.9-2.6
		C540.4,379.3,539.3,380.5,539.3,382C539.3,382,539.3,382,539.3,382z"/>
	<path class="st7" d="M537.7,378.1c0.4,0.3,2.3-1.4,5.3-1.6s5.3,1.1,5.5,0.7c0.1-0.2-0.3-0.8-1.3-1.4c-1.4-0.8-2.9-1.1-4.5-1
		c-1.5,0.1-3,0.7-4.2,1.7C537.8,377.3,537.5,377.9,537.7,378.1z"/>
	<path class="st7" d="M567.4,380.1c0.1,1.5,1.4,2.6,2.9,2.6c1.5,0,2.6-1.2,2.6-2.7c0,0,0,0,0-0.1c-0.1-1.5-1.4-2.6-2.9-2.5
		C568.6,377.4,567.4,378.6,567.4,380.1C567.4,380.1,567.4,380.1,567.4,380.1z"/>
	<path class="st7" d="M566.8,376.2c0.4,0.3,2.3-1.4,5.3-1.6c3-0.2,5.3,1.1,5.5,0.7c0.2-0.2-0.3-0.8-1.3-1.4c-1.3-0.8-2.9-1.1-4.5-1
		c-1.5,0.1-3,0.7-4.2,1.7C566.9,375.4,566.6,376.1,566.8,376.2z"/>
	<path class="st7" d="M557.9,399c0-0.2-1.9-0.3-4.9-0.5c-0.8,0-1.5-0.1-1.7-0.6c-0.1-0.8,0-1.6,0.3-2.3c0.6-1.9,1.1-3.9,1.8-5.9
		c2.4-8.4,4.1-15.4,3.8-15.5s-2.6,6.7-5,15.1c-0.6,2.1-1.1,4.1-1.7,6c-0.4,1-0.5,2-0.2,3c0.3,0.5,0.8,0.9,1.3,1
		c0.4,0.1,0.9,0.1,1.3,0.1C556,399.4,557.9,399.2,557.9,399z"/>
	<path class="st7" d="M566.8,400.4c-0.5,0-0.2,3.2-2.8,5.7c-2.6,2.5-6,2.4-6,2.9c0,0.2,0.8,0.6,2.3,0.5c1.9-0.1,3.6-0.9,5-2.2
		c1.3-1.3,2.1-3,2.1-4.8C567.4,401.1,567,400.3,566.8,400.4z"/>
	<path class="st7" d="M565.1,364.7c0.4,0.8,3.3,0.1,6.8,0.3s6.4,0.9,6.8,0.1c0.2-0.4-0.4-1.1-1.6-1.8c-1.6-0.9-3.3-1.3-5.1-1.3
		c-1.8-0.1-3.6,0.3-5.2,1C565.5,363.6,564.9,364.3,565.1,364.7z"/>
	<path class="st7" d="M538.1,369.4c0.6,0.6,2.6-0.2,5-0.5c2.4-0.2,4.6,0.1,5-0.7c0.2-0.4-0.2-1-1.2-1.6c-2.6-1.3-5.8-1-8,0.9
		C538,368.4,537.8,369.1,538.1,369.4z"/>
	<path class="st7" d="M581.6,349.4l0.1,0.1c3.3,2.2,5.6,5.5,6.4,9.3c0,0.1,0.1,0.3,0.1,0.4c1.2,5.4,1.5,11,2.8,16.4s1,9.6,6.5,10.8
		c2.9,0.6,5.9-0.6,7.6-3.1c0.4-0.8,0.6-1.7,0.5-2.6c-0.1-13.3,2.6-18.5,1.4-32.4c-0.3-3.8-2.4-7.2-5.6-9.1c-3.1-1.8-6.8-3.7-9.9-1.9
		c-3.1,1.8-6.8,8.2-9.1,11"/>
	<path class="st8" d="M598.5,378c0.3-0.2,12.9-5,13.6,8.2s-12.7,11.1-12.8,10.8S598.5,378,598.5,378z"/>
	<path class="st9" d="M603.1,391.8c0,0,0.2,0.1,0.6,0.3c0.6,0.2,1.2,0.2,1.7-0.1c1.4-0.6,2.4-2.9,2.4-5.2c0-1.1-0.3-2.2-0.8-3.3
		c-0.3-0.8-1-1.5-1.8-1.7c-0.6-0.1-1.1,0.2-1.3,0.7c-0.2,0.4-0.1,0.6-0.1,0.7c-0.1,0-0.3-0.2-0.2-0.8c0.1-0.3,0.2-0.6,0.5-0.9
		c0.4-0.3,0.8-0.4,1.3-0.4c1.1,0.2,2.1,0.9,2.5,1.9c0.6,1.1,1,2.4,1,3.6c0,2.7-1.2,5.2-3.1,5.9c-0.7,0.2-1.5,0.2-2.1-0.2
		C603.1,392.1,603,391.8,603.1,391.8z"/>
	<path class="st7" d="M592.1,339.3c2.8-5.5-6.7-12.4-13.4-13.9c-6.7-1.5-15,2.4-21.2,5c-4,1.7-7.9,3.9-12.2,4.1
		c-2.9,0.1-5.7-0.7-8.5-1.4c-2.8-0.9-5.7-1.3-8.5-1c-2.9,0.4-5.7,2.2-6.6,5c-0.9,2.8,1,6.3,3.9,6.4c-3.8-1.7-8.9,1.4-9.1,5.5
		s4.4,7.8,8.4,6.6c-2-1.3-4.7,1.3-4.2,3.6c0.4,2.3,2.7,3.8,4.9,4.6c5.7,2,12,0.7,17.5-1.7s10.5-5.8,16-8.3c5.5-2.5,14.6-7,20.4-5.5
		c4.3,1.1,7.6,5.9,9.8,4.6c2.1-1.4,3.5-3.7,3.7-6.3C593.1,344.3,592.8,341.7,592.1,339.3"/>
	<path class="st6" d="M523.9,343.4c0.1-0.1,0.8,0.9,2.3,2.3c2.2,2,4.8,3.4,7.7,4.1c4.2,1.1,8.7,0.6,12.5-1.5
		c4.3-2.4,7.8-6.7,11.9-10.9c4.1-4.1,9-7.4,14.2-8.3c5.2-0.9,10.1,0.6,13,3.3c2.3,2.1,3.6,5.1,3.7,8.3c0,0.8-0.1,1.7-0.4,2.5
		c-0.2,0.5-0.3,0.8-0.4,0.8c0.2-1.1,0.2-2.2,0.2-3.2c-0.2-2.9-1.6-5.6-3.8-7.6c-2.7-2.4-7.3-3.7-12.1-2.8c-4.8,0.9-9.5,4-13.5,8.1
		s-7.6,8.5-12.2,11c-4.1,2.2-8.9,2.7-13.3,1.4c-3-0.8-5.7-2.4-7.8-4.6c-0.6-0.6-1.1-1.2-1.5-1.9C524,343.7,523.9,343.4,523.9,343.4z
		"/>
	<path class="st6" d="M601.8,377.2c0,0-0.6-0.3-1.2-1.3c-0.8-1.5-1.1-3.1-1-4.7c-0.1-4.3,3.3-9.1,3.3-15c0.1-2.7-0.6-5.4-2.1-7.7
		c-1.3-1.8-3.1-3.2-5.2-3.8c-1.4-0.5-3-0.5-4.4-0.2c-1,0.3-1.6,0.5-1.7,0.4c-0.1-0.1,0.4-0.5,1.5-0.9c1.6-0.5,3.2-0.6,4.8-0.2
		c2.4,0.6,4.5,2,6,4c1.7,2.5,2.5,5.4,2.4,8.4c-0.1,2.9-0.7,5.8-1.8,8.5c-0.9,2.1-1.5,4.3-1.8,6.6
		C600.4,373.3,600.8,375.3,601.8,377.2z"/>
	<path class="st8" d="M682.1,540.9l18.7,44.6c3.4,8.2,2.8,17.5-1.6,25.2l0,0c-5.7,9.9-16.9,15.4-28.2,13.9l-65.4-6.4l1.2-25.9
		l48.4-7.6l-13.4-33.9L682.1,540.9z"/>
	<path class="st8" d="M607.6,592.5c0,0-10.6-2.3-15.1-3.3c-1.5-0.3-2.8-1.1-4.2-1.5c-7.1-1.8-15.8-6.4-17.7-8.3
		c-3.4-3.4-5.9,1.8-2.5,6c1.7,2.2,3.7,4.2,6,5.7l-14.4,3.8c-0.8,0.2-1.4,0.7-1.8,1.3l-11.2,17.7c-1.1,1.4-0.9,3.4,0.4,4.7
		c0.6,0.7,1.7,0.7,2.4,0.2l-1.4,2.4c-2.4,4,3.5,7.9,6,4c0,0,0.1-0.1,0.1-0.1l2.8,3.8c0,0,1.3,3.7,5.6,1.3c3.5-2,15.4-10.7,15.4-10.7
		s33.5,0.8,35.2-4.2L607.6,592.5z"/>
	<path class="st9" d="M554,625.1c0.2,0.1,1.1-1.6,2.8-4.2s4.2-6.1,6.7-10.2c1.3-1.9,2.8-3.8,4-5.3c0.6-0.6,1.4-1,2.3-1.1l2.5-0.4
		c3.1-0.5,5-0.8,5-1c0-0.2-2-0.1-5.1,0.2l-2.5,0.2c-1.1,0-2.2,0.5-3,1.3c-1.5,1.7-2.9,3.5-4.2,5.4c-2.5,4.1-4.9,7.6-6.5,10.4
		C554.5,623.3,553.9,625.1,554,625.1z"/>
	<path class="st9" d="M549.4,618.7c0.4,0.3,4.2-6.3,9.6-13.6c1.3-1.8,2.6-3.7,4.2-4.5c1.6-0.7,3.2-1.3,4.9-1.7
		c1.1-0.3,2.3-0.5,3.4-0.7c0.8-0.1,1.3,0,1.3-0.1s-0.4-0.3-1.3-0.4c-1.2-0.1-2.4,0-3.6,0.3c-1.8,0.3-3.5,0.9-5.2,1.5
		c-2.1,1-3.3,3-4.7,4.8c-2.3,3.2-4.5,6.5-6.4,10C550.1,616.9,549.3,618.7,549.4,618.7z"/>
	<path class="st9" d="M580.5,611.2c0-0.2-1.7-0.1-4.5,0.1l-2.3,0.2c-0.9,0-1.8,0.2-2.7,0.6c-0.9,0.5-1.7,1.2-2.3,2l-2,2.3
		c-5.5,6.3-9.8,11.6-9.6,11.9c0.3,0.2,4.9-4.7,10.5-11l2-2.3c0.5-0.7,1.2-1.3,1.9-1.8c0.7-0.3,1.5-0.5,2.3-0.6l2.2-0.3
		C578.8,611.7,580.5,611.4,580.5,611.2z"/>
	<path class="st9" d="M588.8,590.5c0-0.5-4.6-0.7-10.3-0.1c-5.6,0.6-10.1,1.8-10,2.2c0.1,0.4,4.5-0.4,10.2-1l7.2-0.7
		C586.9,590.9,587.9,590.8,588.8,590.5z"/>
</g>
<g id="freepik--character-1--inject-18">
	<path class="st6" d="M48.9,635.3l-11.7-124c-0.9-9.3,5.9-17.5,15.2-18.4c0.4,0,0.8-0.1,1.2-0.1l130.4-2.6
		c8.9-0.2,16.4,6.6,17.1,15.5l10,129.5L48.9,635.3z"/>
	<path class="st7" d="M67.4,635.3c0-0.1-0.1-0.3-0.1-0.4c0-0.3-0.1-0.7-0.2-1.3c-0.1-1.2-0.3-2.8-0.5-5c-0.4-4.3-1.1-10.5-1.8-18.2
		c-1.5-15.4-3.6-36.7-5.9-60.2c-1.8-18.3-3.4-35.3-4.7-49l0,0l0,0c0-0.7,0-1.4,0-2c0-0.7,0.1-1.3,0.2-2c0.7-2.6,3-4.4,5.6-4.5
		l3.4-0.1l11.5-0.2l7.3-0.1h1.9c0.4,0,0.7,0,0.7,0s-0.2,0-0.7,0l-1.9,0.1l-7.3,0.2l-11.4,0.3l-3.4,0.1c-1.2,0.1-2.3,0.5-3.3,1.2
		c-1,0.8-1.7,1.8-2,3c-0.1,0.6-0.2,1.3-0.2,1.9c0,0.7,0,1.3,0,2l0,0c1.3,13.8,3,30.7,4.8,49c2.2,23.5,4.3,44.8,5.7,60.2
		c0.7,7.7,1.3,13.9,1.7,18.3c0.2,2.1,0.3,3.8,0.4,5c0,0.6,0.1,1,0.1,1.3C67.4,634.9,67.4,635.1,67.4,635.3z"/>
	<path class="st7" d="M132.4,384.5c1.8-3.8-0.1-8.7-3.6-11c-3.5-2.3-8.2-2.3-12.1-0.9c-7.2,2.6-12.2,9.2-12.8,16.8
		c-3.1,0.8-5.8,2.6-7.7,5.2c-5.5,6.9-4.6,17.9,1.5,24.3c6.1,6.4,16.5,7.9,24.4,3.9c7.9-3.9,13-12.8,12.9-21.6"/>
	<path class="st11" d="M138.2,388.5c0.4-1.6-0.3-3.2-1.7-4c-1.4-0.8-3.1-0.9-4.6-0.3c-1.5,0.5-2.9,1.4-4.1,2.4
		c-1.9,1.4-3.5,3.1-4.7,5.1c-1.3,2-1.8,4.3-1.6,6.6c0.3,2.4,1.7,4.4,3.8,5.5c2.2,1,4.7,0.5,6.3-1.3"/>
	<path class="st7" d="M144,367.5c-0.1-4.3,3.9-7.7,7.9-9.3c4-1.6,8.5-2.2,12.1-4.7c3.2-2.1,5.3-5.5,8-8.3
		c10.3-10.5,27.2-10.7,37.7-0.4c3.5,3.4,6,7.7,7.2,12.4c1.6,6.2,0.6,13.5-4.3,17.6c-5.6,4.8-14,3.8-21.2,2.3
		c-7.2-1.5-15.4-2.9-21.4,1.4c-3.6,2.6-5.7,6.8-7.9,10.6c-2.2,3.9-5,7.8-9.2,9.3s-9.9-1-10.1-5.4"/>
	<path class="st7" d="M144.3,369.9c0.5,3.6-2.1,6.9-4.7,9.5c-2.6,2.6-5.5,5.3-6,8.9c-0.5,4.2,2.6,8.4,1.7,12.6
		c-0.6,2.6-2.6,4.7-3.9,7.1c-1.6,3.5-1.9,7.5-0.7,11.1c1.1,3.6,2.9,11.8,5.4,14.6c7.1,7.8,18.3,14.5,28.6,16.9s20.9,2.3,31.5,1.6
		c8.6-0.6,18.5-0.2,25.6-12.1c3.7-6.1,5.5-14.3,7.4-21.2c1.7-6,3.1-12.3,1.3-18.2c-1.1-3.4-3.1-6.5-4.2-9.9
		c-1.3-4.3-0.9-8.9-1.4-13.4c-2-16.8-17.3-28.9-34.1-26.9c-3.4,0.4-6.6,1.4-9.7,2.8"/>
	<path class="st12" d="M220.9,384.4c-0.9-12.4-9.1-27.5-21.4-26.1l-38.4,10c-3.7,0.4-6.5,3.6-6.4,7.4l4.7,92.7l-0.3,0
		c0,0,8.9,26.1,34.3,18c5-1.6,7.3-7.1,8.3-12.8h0.3c0-0.7,0-1.3,0-1.9c0.5-4.2,0.5-8.5,0.1-12.7l0,0c0-7.5,0-10.5,0-10.5
		s15.8-2.7,18.9-23.4C222.5,414.9,221.9,398.1,220.9,384.4z"/>
	<path class="st7" d="M215.7,398.5c0,1.4-1.1,2.6-2.5,2.7c-1.4,0.1-2.6-0.9-2.7-2.3c0,0,0-0.1,0-0.1c0-1.4,1.1-2.6,2.5-2.7
		C214.4,396,215.6,397,215.7,398.5C215.7,398.4,215.7,398.4,215.7,398.5z"/>
	<path class="st7" d="M217.3,393.2c-0.3,0.3-2.3-1.1-5.2-1.1s-4.9,1.5-5.2,1.1c-0.1-0.1,0.2-0.8,1.1-1.4c1.2-0.9,2.7-1.3,4.2-1.3
		c1.5,0,2.9,0.4,4.1,1.3C217.2,392.4,217.5,393,217.3,393.2z"/>
	<path class="st7" d="M188.6,398.8c0,1.4-1.1,2.6-2.5,2.7c-1.4,0.1-2.6-0.9-2.7-2.3c0,0,0-0.1,0-0.1c0-1.4,1.1-2.6,2.5-2.7
		C187.2,396.3,188.5,397.3,188.6,398.8C188.6,398.7,188.6,398.8,188.6,398.8z"/>
	<path class="st7" d="M189.4,393.9c-0.3,0.3-2.3-1.1-5.2-1.1s-4.9,1.5-5.2,1.1c-0.1-0.1,0.2-0.8,1.1-1.5c1.2-0.9,2.7-1.3,4.2-1.3
		c1.5,0,2.9,0.4,4.1,1.3C189.3,393.1,189.6,393.7,189.4,393.9z"/>
	<path class="st7" d="M199.9,414.9c0-0.2,1.8-0.5,4.6-0.9c0.7-0.1,1.4-0.2,1.5-0.7c0.1-0.8-0.1-1.5-0.5-2.1l-2.2-5.5
		c-3-7.9-5.2-14.3-4.9-14.4c0.3-0.1,3,6.1,6.1,14c0.7,1.9,1.4,3.8,2.1,5.5c0.5,0.9,0.6,1.9,0.4,2.8c-0.2,0.5-0.6,0.9-1.2,1.1
		c-0.4,0.1-0.8,0.2-1.2,0.2C201.6,415,199.9,415.1,199.9,414.9z"/>
	<path class="st13" d="M202,448.5c-9.7,0.2-19.3-2.3-27.6-7.2c0,0,6.8,14.1,27.4,12L202,448.5z"/>
	<path class="st13" d="M198.7,421.8c-1.1-1.4-2.9-2.1-4.6-1.9c-1.3,0.1-2.4,0.8-3.2,1.8c-0.8,1-0.8,2.3-0.2,3.4
		c0.9,1,2.4,1.4,3.7,0.9c1.3-0.5,2.6-1.2,3.6-2.2c0.3-0.2,0.6-0.5,0.8-0.9c0.2-0.3,0.2-0.7,0-1.1"/>
	<path class="st7" d="M191.5,416.9c0.5,0,0.5,3.1,3.1,5.2c2.6,2.2,5.9,1.8,6,2.2c0,0.2-0.7,0.6-2.1,0.6c-1.8,0-3.6-0.6-5-1.7
		c-1.4-1.1-2.2-2.7-2.4-4.4C191,417.7,191.3,416.9,191.5,416.9z"/>
	<path class="st7" d="M190.6,388.9c-0.3,0.8-3.1,0.4-6.4,0.9s-6,1.4-6.5,0.7c-0.2-0.3,0.3-1.1,1.4-1.8c2.9-1.9,6.6-2.3,9.8-1.2
		C190.1,387.9,190.8,388.5,190.6,388.9z"/>
	<path class="st7" d="M216.2,384.9c-0.5,0.6-2.5,0-4.8,0s-4.4,0.5-4.8-0.2c-0.2-0.3,0.1-1,1-1.6c1.2-0.8,2.5-1.1,3.9-1.1
		c1.4,0,2.7,0.5,3.8,1.3C216.2,384,216.4,384.6,216.2,384.9z"/>
	<path class="st7" d="M147,436.2c9.9,2,19.5-4.5,21.5-14.4c0.4-2,0.4-4,0.2-5.9c-0.7-5-3.4-10.2-1.7-15c2.3-6.3,11.2-8.3,13.5-14.7
		c1.4-3.7,0.1-8,1.6-11.6c1.4-3.4,5-5.4,8.5-6.6c3.5-1.3,7.2-2.2,10.1-4.4s4.7-6.6,2.8-9.7c-15.4,1.9-30.5,5.7-45,11.1
		c-3.4,1.3-6.9,2.8-8.9,5.8c-2.1,3.2-2,7.3-1.8,11c0.9,18.5,1.9,37,2.8,55.5"/>
	<path class="st6" d="M148.3,443.2c-0.1-0.1-0.2-0.1-0.3-0.2l-0.9-0.7c-0.8-0.6-2-1.5-3.4-2.8c-1.8-1.5-3.4-3.2-4.9-5.1
		c-2-2.5-3.3-5.4-3.9-8.5c-0.8-3.8,0.1-7.8,2.6-10.9c1.5-1.5,3.1-2.9,4.8-4.1c1.7-1.3,3-3.1,3.7-5.1c1.5-4.2,0.8-9.1,1.4-14
		c0.6-5.2,2.6-10.1,5.8-14.2c1.7-2.1,3.7-3.8,6.1-5c2.3-1.1,4.7-1.9,7.2-2.5c2.3-0.6,4.5-1.7,6.3-3.1c1.8-1.5,3.3-3.2,4.6-5.2
		c2.6-3.7,4.5-7.6,6.9-10.9c1.1-1.6,2.5-3.1,4-4.3c1.4-1.2,3.1-2.1,4.8-2.6c3-1.2,6.4-0.8,9.1,0.9c1.9,1.5,3.1,3.7,3.3,6.1
		c0.1,1.5-0.3,3-1.2,4.3c-0.2,0.3-0.5,0.6-0.8,0.8c-0.2,0.2-0.3,0.2-0.3,0.2c0,0,0.1-0.1,0.3-0.3c0.3-0.2,0.5-0.5,0.8-0.8
		c0.8-1.2,1.2-2.7,1-4.1c-0.2-2.3-1.4-4.4-3.2-5.8c-2.6-1.6-5.8-1.8-8.7-0.7c-1.7,0.6-3.2,1.5-4.6,2.6c-1.5,1.2-2.8,2.7-3.9,4.2
		c-2.4,3.2-4.2,7.1-6.8,10.9c-1.3,2-2.9,3.7-4.7,5.3c-1.9,1.6-4.2,2.7-6.6,3.3c-2.4,0.6-4.8,1.4-7,2.4c-2.2,1.2-4.2,2.8-5.8,4.8
		c-3.1,4-5,8.7-5.6,13.8c-0.6,4.8,0.1,9.7-1.5,14.2c-0.8,2.2-2.2,4.1-4,5.5c-1.7,1.2-3.2,2.6-4.7,4c-2.4,2.9-3.3,6.7-2.5,10.3
		c0.5,3,1.8,5.8,3.7,8.3c1.4,1.8,3,3.6,4.7,5.1c1.4,1.3,2.5,2.3,3.3,2.9C147.6,442.5,148,442.9,148.3,443.2z"/>
	<path class="st7" d="M98,405c-0.2,0.1-0.3,0.2-0.5,0.3c-0.4,0.3-0.8,0.7-1.2,1.1c-1.3,1.6-2,3.6-2.1,5.7c0,3.1,0.9,6.1,2.6,8.6
		c1.9,3.2,4.7,5.8,8,7.6c3.4,1.7,7.2,2.2,10.9,1.4c1.6-0.4,3.1-1,4.5-1.9c1.2-0.8,2.2-1.8,3.1-2.9c1.3-1.6,2.1-3.5,2.4-5.6
		c0.1-0.5,0.1-1.1,0.1-1.6c0-0.2,0-0.4-0.1-0.6c-0.1,0,0,0.8-0.3,2.2c-0.4,1.9-1.3,3.8-2.5,5.3c-1.8,2.3-4.4,3.9-7.3,4.5
		c-3.5,0.8-7.2,0.3-10.4-1.4c-3.2-1.7-5.9-4.2-7.8-7.3c-1.6-2.5-2.5-5.3-2.6-8.3c0-2,0.7-3.9,1.8-5.5C97,406,97.5,405.5,98,405z"/>
	<path class="st7" d="M149.7,410.5c0.2,0.1,0.4,0.2,0.7,0.3c0.5,0.2,1.1,0.4,2,0.7c2.6,0.8,5.2,1.2,7.9,1.1c4.1,0,7.9-1.6,10.9-4.5
		c1.7-1.7,2.8-3.9,3.3-6.2c0.6-2.4,1-4.9,2-7.1c1.1-2.2,2.8-4,4.8-5.4c1.9-1.3,3.9-2.5,5.9-3.5c4-2,7.6-4,9.8-6.7
		c1.8-2,2.9-4.6,3-7.4c0-0.7-0.1-1.5-0.3-2.2c-0.1-0.2-0.2-0.5-0.3-0.7c0.2,0.9,0.3,1.9,0.3,2.9c-0.2,2.6-1.3,5.1-3.1,7.1
		c-2.2,2.5-5.7,4.5-9.7,6.4c-2.1,1-4.1,2.2-6.1,3.5c-2.1,1.5-3.8,3.4-5,5.7c-1.1,2.4-1.4,4.9-2,7.3c-0.5,2.2-1.6,4.3-3.1,5.9
		c-2.8,2.7-6.5,4.3-10.4,4.4c-2.6,0.1-5.3-0.2-7.8-0.9C150.7,410.8,149.7,410.4,149.7,410.5z"/>
	<polygon class="st7" points="212.6,471.2 200.4,462 154.9,459.1 153.1,465.2 167.9,557.7 158,635.3 221.6,635.3 	"/>
	<path class="st7" d="M202.7,473.1l1.4-13.2c0.2-2.3-1.4-4.4-3.7-4.6c0,0,0,0-0.1,0l-42-3.8c-1.1-0.1-2.1,0.7-2.2,1.8
		c0,0,0,0.1,0,0.1l-0.5,15.7l12.1,20.6l12.5,4h15.3l8.8-9.4L202.7,473.1z"/>
	<path class="st6" d="M161.9,464c0,0,0.6-0.1,1.7-0.2c1.5-0.1,3.1-0.2,4.6-0.1c2.3,0.2,4.5,0.5,6.7,1c2.5,0.5,5.2,1.3,8.1,2
		c2.7,0.7,5.5,1.2,8.3,1.5c2.3,0.2,4.6,0.1,6.8-0.5c1.5-0.4,3-1,4.3-1.8c0.3-0.2,0.7-0.5,1-0.7c0.2-0.2,0.3-0.3,0.3-0.3
		s-0.5,0.3-1.4,0.9c-1.3,0.7-2.8,1.3-4.3,1.6c-2.2,0.5-4.5,0.6-6.7,0.3c-2.8-0.3-5.5-0.8-8.2-1.5c-2.9-0.7-5.6-1.4-8.1-1.9
		c-2.2-0.5-4.5-0.8-6.8-0.9c-1.5-0.1-3.1,0-4.6,0.3c-0.5,0.1-1,0.2-1.2,0.2S161.9,464,161.9,464z"/>
	<g class="st10">
		<path d="M201.7,466.1c1.1,3.1,1.1,6.9-1.1,9.3c-1.9,1.9-4.8,2.4-7.5,1.9c-2.6-0.7-5.1-1.8-7.3-3.3c-5.8-3.4-11.6-7-18.2-8.5
			c-0.4-0.1-0.8-0.2-1.2-0.5c-0.3-0.3-0.3-0.8,0-1.1c0,0,0,0,0,0c0.2-0.1,0.4-0.2,0.6-0.1c5.8-0.6,11.4,1.7,17.1,3
			s12.2,2.6,17.4-0.5"/>
	</g>
	<path class="st6" d="M193.7,454.8c0.6,0.3,1.1,0.8,1.4,1.4c0.7,1.1,0.6,2.9,0.6,4.8c-0.1,3.9-0.8,7-0.6,7.1c0.3-0.6,0.5-1.3,0.6-2
		c0.3-1.6,0.5-3.3,0.6-5c0-0.9,0-1.9-0.1-2.8c-0.1-0.8-0.3-1.6-0.7-2.2c-0.3-0.5-0.7-0.8-1.2-1C193.9,454.8,193.7,454.8,193.7,454.8
		z"/>
	<path class="st6" d="M182.6,466.3c0-2.1,0.1-4.3,0.3-6.4c0.4-2.1,0.9-4.2,1.5-6.2c-0.4,0.5-0.7,1.1-0.9,1.7
		c-0.5,1.4-0.9,2.9-1.1,4.5c-0.2,1.5-0.3,3.1-0.1,4.6C182.3,465.1,182.4,465.7,182.6,466.3z"/>
	<path class="st6" d="M169.1,452.5c-0.4,0.5-0.6,1-0.8,1.5c-0.5,1.4-0.6,2.8-0.6,4.2c0.1,1.4,0.5,2.8,1.1,4.1c0.2,0.5,0.6,1,1,1.4
		c-0.8-1.8-1.4-3.6-1.6-5.6C168.2,456.3,168.5,454.4,169.1,452.5z"/>
	<path class="st0" d="M254.6,590.1c0,0-5.6-72.5-8.6-86.1c-3.8-17.3-18.1-26.9-18.1-26.9l-5.9,134.1l11.4,16.9l13.8,5.3
		c3.2,1.2,6.7,1.3,9.9,0.1l13.3-4.6l1.1-25.3l-11.2-3.3L254.6,590.1z"/>
	<polyline class="st0" points="214.9,635.6 213.3,535.1 210.5,470.4 203.7,464.5 227.9,477.1 233.6,496 238.7,550.5 229.1,614.4 
		235.7,635.4 	"/>
	<path class="st7" d="M234.4,587.3c0,0,0.1-0.3,0.2-0.8l0.6-2.3c0.3-1,0.5-2.2,0.8-3.6c0.3-1.4,0.6-3,0.9-4.9
		c0.3-1.8,0.6-3.8,0.9-5.9s0.5-4.4,0.8-6.8c0.4-4.8,0.7-10.2,0.7-15.7c0-5.6-0.3-10.9-0.8-15.7c-0.3-2.4-0.5-4.7-0.8-6.8
		s-0.6-4.1-1-5.9c-0.4-1.8-0.7-3.4-0.9-4.8s-0.6-2.6-0.8-3.6s-0.4-1.7-0.6-2.3c-0.1-0.3-0.1-0.5-0.2-0.8c0,0.3,0.1,0.5,0.1,0.8
		c0.1,0.6,0.3,1.3,0.5,2.3s0.5,2.2,0.7,3.6s0.6,3,0.9,4.9c0.3,1.8,0.6,3.8,0.9,5.9s0.5,4.4,0.8,6.8c0.4,4.8,0.7,10.1,0.8,15.7
		s-0.3,10.9-0.7,15.7c-0.2,2.4-0.4,4.7-0.8,6.8s-0.6,4.1-0.9,5.9c-0.3,1.8-0.6,3.4-0.9,4.9s-0.5,2.6-0.7,3.6s-0.4,1.7-0.5,2.3
		C234.5,586.8,234.4,587,234.4,587.3z"/>
	<path class="st0" d="M116.4,475.6c-10.3,4-18,12.9-20.4,23.7c-7.9,35-21.5,81.5-21.7,96.5c-0.3,19.1,8.1,32.2,19,34.6
		c6.2,1.4,48.7,0.7,71.7,0.2c8.5-0.2,15.6-6.6,16.7-15l0,0c1.2-9.3-5.3-17.8-14.5-19.1l-46.7-6.9l8.7-48.5l-8.6-67.1L116.4,475.6z"
		/>
	<path class="st0" d="M163.1,517.8l-8.8-45.8c-1-4.3-0.3-8.9,1.8-12.7l-0.1-2.4l-18.1,10l-17.5,7.2l-0.4,53.2l10.5,107.8l37.1,0.1
		l-0.1-48.2C169,563.9,167.5,540.6,163.1,517.8z"/>
	<path class="st7" d="M129.6,536.2c-0.1,0.2-0.1,0.4-0.1,0.5c-0.1,0.4-0.2,0.9-0.3,1.5l-1,5.7c-0.9,4.9-2,11.6-3.3,18.9
		c-1.3,7.4-2.3,14-3.2,18.9c-0.4,2.4-0.7,4.3-0.9,5.7c-0.1,0.6-0.2,1.2-0.2,1.6c0,0.2,0,0.4,0,0.5c0.1-0.2,0.1-0.3,0.1-0.5
		c0.1-0.4,0.2-0.9,0.3-1.5c0.3-1.4,0.6-3.4,1.1-5.7c0.9-4.8,2-11.5,3.3-18.9s2.4-14.1,3.1-18.9c0.4-2.4,0.7-4.3,0.9-5.8
		c0.1-0.6,0.1-1.2,0.2-1.6C129.6,536.6,129.6,536.4,129.6,536.2z"/>
	<path class="st7" d="M112,483.2c0.5,0.2,0.9,0.4,1.4,0.5c1.3,0.5,2.6,1,3.8,1.6c4.1,2.1,7.6,5.1,10.3,8.8c0.8,1,1.4,2.1,2,3.3
		c0.5,1.1,0.9,2.2,1.2,3.4c0.5,2,0.8,4,1,6c0.1,1.7,0.2,3.2,0.2,4.1s0,1.5,0,1.5c0.1-0.5,0.2-1,0.2-1.5c0.1-1.4,0.1-2.8,0-4.2
		c-0.1-2.1-0.4-4.1-0.9-6.1c-0.3-1.2-0.7-2.4-1.2-3.5c-0.6-1.2-1.3-2.3-2.1-3.4c-2.7-3.7-6.4-6.8-10.5-8.8c-1.3-0.6-2.6-1.1-3.9-1.5
		C113,483.3,112.5,483.2,112,483.2z"/>
	<path class="st14" d="M88.8,534.2c0,0.1-0.3,0.2-0.5,0.2c-0.3,0-0.5-0.2-0.4-0.3c0-0.1,0.3-0.2,0.5-0.2
		C88.6,533.9,88.8,534.1,88.8,534.2z"/>
	<path class="st14" d="M92.6,534.9c0,0.1-0.5,0.2-1,0.1s-0.9-0.3-0.9-0.4s0.5-0.2,1-0.1C92.2,534.6,92.6,534.8,92.6,534.9z"/>
	<path class="st14" d="M96.4,535.7c0,0.1-0.5,0.2-1,0c-0.5-0.1-0.9-0.3-0.9-0.5s0.5-0.2,1,0C96,535.4,96.4,535.6,96.4,535.7z"/>
	<path class="st14" d="M100.2,536.7c0,0.1-0.5,0.1-1,0s-0.9-0.4-0.9-0.5s0.5-0.1,1,0S100.2,536.6,100.2,536.7z"/>
	<path class="st14" d="M103.9,537.8c0,0.1-0.5,0.1-1,0s-0.9-0.4-0.9-0.5s0.5-0.1,1,0S104,537.7,103.9,537.8z"/>
	<path class="st14" d="M107.6,539.1c0,0.1-0.5,0.1-1-0.1s-0.9-0.4-0.8-0.6s0.5-0.1,1,0.1S107.6,538.9,107.6,539.1z"/>
	<path class="st14" d="M111.2,540.5c-0.1,0.1-0.5,0.1-1-0.1c-0.5-0.2-0.9-0.5-0.8-0.6c0.1-0.1,0.5-0.1,1,0.1
		C110.9,540.1,111.3,540.3,111.2,540.5z"/>
	<path class="st14" d="M114.8,542c-0.1,0.1-0.5,0.1-1-0.2c-0.5-0.2-0.8-0.5-0.8-0.6s0.5-0.1,1,0.2
		C114.5,541.6,114.9,541.9,114.8,542z"/>
	<path class="st14" d="M118.3,543.7c-0.1,0.1-0.5,0-1-0.2s-0.8-0.5-0.8-0.7s0.5,0,1,0.2S118.4,543.6,118.3,543.7z"/>
	<path class="st14" d="M121.8,545.5c-0.1,0.1-0.5,0-1-0.2c-0.5-0.2-0.8-0.6-0.7-0.7s0.5,0,1,0.2C121.5,545,121.8,545.4,121.8,545.5z
		"/>
	<path class="st14" d="M125.2,547.4c-0.1,0.1-0.5,0-1-0.3c-0.5-0.3-0.8-0.6-0.7-0.7s0.5,0,1,0.3C124.9,547,125.2,547.3,125.2,547.4z
		"/>
	<path class="st14" d="M127.7,549c-0.1,0.1-0.3,0.1-0.6,0c-0.2-0.1-0.3-0.4-0.3-0.5s0.3-0.1,0.6,0
		C127.6,548.7,127.7,548.9,127.7,549z"/>
	<path class="st14" d="M125.9,560c0,0.1-0.3,0.2-0.5,0.2c-0.3,0-0.5-0.2-0.5-0.3s0.3-0.2,0.5-0.2C125.7,559.7,125.9,559.9,125.9,560
		z"/>
	<path class="st14" d="M129.8,560.5c0,0.1-0.5,0.2-1,0.2s-1-0.2-0.9-0.4c0.1-0.1,0.5-0.2,1-0.2S129.8,560.3,129.8,560.5z"/>
	<path class="st14" d="M133.7,560.8c0,0.2-0.5,0.2-1,0.2c-0.5,0-1-0.2-0.9-0.3c0.1-0.1,0.5-0.2,1-0.2
		C133.3,560.5,133.7,560.7,133.7,560.8z"/>
	<path class="st14" d="M137.6,561c0,0.2-0.4,0.2-1,0.2c-0.6,0-1-0.2-1-0.3c0-0.2,0.5-0.2,1-0.2C137.1,560.7,137.6,560.9,137.6,561z"
		/>
	<path class="st14" d="M141.5,561.1c0,0.1-0.4,0.3-1,0.2s-1-0.1-1-0.3c0-0.1,0.4-0.3,1-0.2S141.5,561,141.5,561.1z"/>
	<path class="st14" d="M145.4,561.2c0,0.1-0.4,0.3-1,0.3s-1-0.1-1-0.3s0.4-0.3,1-0.3S145.4,561,145.4,561.2z"/>
	<path class="st14" d="M149.3,561.1c0,0.1-0.4,0.3-1,0.3s-1-0.1-1-0.2s0.4-0.3,1-0.3S149.3,560.9,149.3,561.1z"/>
	<path class="st14" d="M153.2,560.9c0,0.1-0.4,0.3-1,0.3c-0.6,0-1-0.1-1-0.2c0-0.2,0.4-0.3,1-0.3
		C152.8,560.7,153.2,560.7,153.2,560.9z"/>
	<path class="st14" d="M157.1,560.6c0,0.1-0.4,0.3-1,0.3c-0.6,0-1,0-1-0.2c0-0.2,0.4-0.3,1-0.3C156.7,560.3,157.1,560.4,157.1,560.6
		z"/>
	<path class="st14" d="M161,560.1c0,0.1-0.4,0.3-0.9,0.4s-1,0-1-0.2c0-0.1,0.4-0.3,0.9-0.4S160.9,560,161,560.1z"/>
	<path class="st14" d="M164.8,559.6c0,0.2-0.4,0.3-0.9,0.4c-0.5,0.1-1,0-1-0.1s0.4-0.3,0.9-0.4S164.8,559.5,164.8,559.6z"/>
	<path class="st14" d="M167.7,559.1c0,0.1-0.2,0.3-0.4,0.3s-0.5,0-0.5-0.2s0.2-0.3,0.4-0.3S167.7,559,167.7,559.1z"/>
	<path class="st14" d="M214.9,554.3c0,0.1-0.2,0.3-0.4,0.4s-0.5,0-0.6-0.1c0-0.2,0.2-0.3,0.4-0.4S214.8,554.2,214.9,554.3z"/>
	<path class="st14" d="M218.8,553.6c0,0.1-0.4,0.3-0.9,0.4s-1,0-1-0.1c0-0.1,0.4-0.3,0.9-0.4S218.8,553.4,218.8,553.6z"/>
	<path class="st14" d="M222.8,553.1c0,0.1-0.4,0.3-1,0.3c-0.6,0.1-1,0-1-0.2c0-0.2,0.4-0.3,1-0.4S222.8,553,222.8,553.1z"/>
	<path class="st14" d="M226.8,552.9c0,0.1-0.4,0.3-1,0.3s-1-0.1-1-0.2s0.4-0.3,1-0.3S226.8,552.8,226.8,552.9z"/>
	<path class="st14" d="M230.8,553c0,0.2-0.5,0.3-1,0.2c-0.5,0-1-0.2-1-0.3c0-0.1,0.4-0.3,1-0.2C230.4,552.8,230.8,552.9,230.8,553z"
		/>
	<path class="st14" d="M234.8,553.4c0,0.1-0.5,0.2-1,0.2s-1-0.2-1-0.4c0-0.1,0.5-0.2,1-0.1S234.8,553.2,234.8,553.4z"/>
	<path class="st14" d="M237.8,553.8c0,0.1-0.3,0.2-0.5,0.2s-0.5-0.2-0.5-0.3c0-0.1,0.3-0.2,0.5-0.2
		C237.6,553.5,237.8,553.7,237.8,553.8z"/>
	<path class="st14" d="M239.7,568.1c0,0.1-0.3,0.2-0.6,0.1s-0.5-0.2-0.4-0.4s0.3-0.2,0.6-0.1S239.8,567.9,239.7,568.1z"/>
	<path class="st14" d="M244,568.7c0,0.2-0.5,0.2-1.1,0.2s-1.1-0.2-1.1-0.4c0-0.2,0.5-0.2,1.1-0.2S244,568.6,244,568.7z"/>
	<path class="st14" d="M248.3,568.5c0,0.1-0.4,0.3-1,0.4s-1.1,0-1.1-0.1c0-0.2,0.5-0.3,1.1-0.4S248.3,568.3,248.3,568.5z"/>
	<path class="st14" d="M251.4,567.8c0,0.1-0.1,0.3-0.4,0.4s-0.5,0-0.6-0.1s0.1-0.3,0.4-0.4S251.4,567.6,251.4,567.8z"/>
	<path class="st14" d="M212.3,509.7c0,0.1-0.2,0.3-0.5,0.3s-0.5,0-0.5-0.2s0.2-0.3,0.5-0.3S212.3,509.5,212.3,509.7z"/>
	<path class="st14" d="M216.1,509.3c0,0.1-0.4,0.3-0.9,0.3s-1,0-1-0.2s0.4-0.3,0.9-0.3S216.1,509.2,216.1,509.3z"/>
	<path class="st14" d="M220,509.2c0,0.1-0.4,0.3-1,0.3s-1-0.1-1-0.3s0.4-0.3,1-0.3S220,509.1,220,509.2z"/>
	<path class="st14" d="M223.8,509.4c0,0.1-0.4,0.2-1,0.2s-1-0.2-0.9-0.3s0.4-0.2,1-0.2S223.9,509.3,223.8,509.4z"/>
	<path class="st14" d="M227.7,509.9c0,0.1-0.5,0.2-1,0.1s-0.9-0.2-0.9-0.4s0.5-0.2,1-0.1S227.7,509.7,227.7,509.9z"/>
	<path class="st14" d="M231.4,510.6c0,0.1-0.5,0.2-1,0.1s-0.9-0.3-0.9-0.5s0.5-0.2,1-0.1S231.5,510.5,231.4,510.6z"/>
	<path class="st14" d="M234.3,511.3c0,0.1-0.3,0.2-0.6,0.1s-0.4-0.2-0.4-0.4s0.3-0.2,0.6-0.1S234.3,511.2,234.3,511.3z"/>
	<path class="st14" d="M212.3,475.3c0,0.1-0.2,0.3-0.5,0.2s-0.5-0.1-0.5-0.3s0.2-0.3,0.5-0.2S212.3,475.2,212.3,475.3z"/>
	<path class="st14" d="M216.6,475.7c0,0.1-0.5,0.2-1.1,0.2s-1.1-0.2-1.1-0.4s0.5-0.2,1.1-0.2S216.6,475.5,216.6,475.7z"/>
	<path class="st14" d="M220.9,476.3c0,0.1-0.5,0.2-1.1,0.1s-1.1-0.3-1-0.4s0.5-0.2,1.1-0.1S220.9,476.1,220.9,476.3z"/>
	<path class="st14" d="M225.1,477.1c0,0.1-0.5,0.2-1.1,0s-1-0.3-1-0.5s0.5-0.2,1.1,0S225.2,476.9,225.1,477.1z"/>
	<path class="st14" d="M228.2,477.8c0,0.1-0.3,0.2-0.6,0.1s-0.5-0.2-0.4-0.4s0.3-0.2,0.6-0.1S228.3,477.7,228.2,477.8z"/>
	<path class="st14" d="M132.8,505.2c0,0.1-0.1,0.3-0.4,0.4s-0.5,0-0.6-0.1s0.1-0.3,0.4-0.4S132.8,505,132.8,505.2z"/>
	<path class="st14" d="M136.7,504.2c0,0.1-0.4,0.4-0.9,0.5s-1,0.1-1,0s0.4-0.4,0.9-0.5S136.7,504.1,136.7,504.2z"/>
	<path class="st14" d="M140.7,503.5c0,0.1-0.4,0.3-1,0.4s-1,0.1-1-0.1s0.4-0.3,0.9-0.4S140.6,503.4,140.7,503.5z"/>
	<path class="st14" d="M144.7,502.9c0,0.1-0.4,0.3-1,0.4s-1,0-1-0.1s0.4-0.3,1-0.4S144.6,502.8,144.7,502.9z"/>
	<path class="st14" d="M148.7,502.5c0,0.1-0.4,0.3-1,0.4s-1,0-1-0.2s0.4-0.3,1-0.4S148.7,502.4,148.7,502.5z"/>
	<path class="st14" d="M152.7,502.3c0,0.1-0.4,0.3-1,0.3s-1-0.1-1-0.2s0.4-0.3,1-0.3S152.7,502.2,152.7,502.3z"/>
	<path class="st14" d="M156.7,502.3c0,0.1-0.4,0.3-1,0.3s-1-0.1-1-0.3s0.4-0.3,1-0.3S156.7,502.1,156.7,502.3z"/>
	<path class="st14" d="M159.7,502.4c0,0.1-0.2,0.3-0.5,0.2s-0.5-0.1-0.5-0.3s0.2-0.3,0.5-0.2S159.7,502.2,159.7,502.4z"/>
	<path class="st14" d="M101,489.5c0,0.1-0.2,0.3-0.4,0.4s-0.5,0-0.5-0.2s0.2-0.3,0.4-0.4S101,489.4,101,489.5z"/>
	<path class="st14" d="M104.8,489c0,0.1-0.4,0.3-0.9,0.4s-0.9,0-1-0.1s0.4-0.3,0.9-0.4S104.7,488.9,104.8,489z"/>
	<path class="st14" d="M108.5,488.8c0,0.1-0.4,0.3-0.9,0.3s-0.9-0.1-1-0.2s0.4-0.3,0.9-0.3S108.5,488.6,108.5,488.8z"/>
	<path class="st14" d="M112.3,488.9c0,0.1-0.4,0.2-1,0.2s-0.9-0.2-0.9-0.3s0.4-0.2,1-0.2S112.3,488.7,112.3,488.9z"/>
	<path class="st14" d="M116.1,489.3c0,0.1-0.5,0.2-1,0.1s-0.9-0.2-0.9-0.4s0.4-0.2,1-0.1S116.1,489.1,116.1,489.3z"/>
	<path class="st14" d="M119.8,490c0,0.1-0.5,0.2-1,0.1s-0.9-0.3-0.9-0.5s0.5-0.2,1-0.1S119.8,489.8,119.8,490z"/>
	<path class="st14" d="M123.4,491c0,0.1-0.5,0.1-1,0s-0.9-0.4-0.8-0.5s0.5-0.1,1,0S123.4,490.9,123.4,491z"/>
	<path class="st14" d="M126.1,492c-0.1,0.1-0.3,0.2-0.6,0.1s-0.4-0.3-0.4-0.4s0.3-0.2,0.6-0.1S126.2,491.8,126.1,492z"/>
	<path class="st14" d="M134.8,469.8c0,0.1-0.2,0.3-0.5,0.3s-0.5-0.1-0.5-0.2s0.2-0.3,0.5-0.3S134.8,469.6,134.8,469.8z"/>
	<path class="st14" d="M138.4,469.6c0,0.1-0.4,0.3-0.9,0.3s-0.9-0.1-0.9-0.2s0.4-0.3,0.9-0.3S138.4,469.5,138.4,469.6z"/>
	<path class="st14" d="M142,469.5c0,0.1-0.4,0.3-0.9,0.3s-0.9-0.1-0.9-0.2s0.4-0.3,0.9-0.3S141.9,469.3,142,469.5z"/>
	<path class="st14" d="M145.5,469.3c0,0.1-0.4,0.3-0.9,0.3s-0.9-0.1-0.9-0.2s0.4-0.3,0.9-0.3S145.5,469.1,145.5,469.3z"/>
	<path class="st14" d="M149.1,469.1c0,0.1-0.4,0.3-0.9,0.3s-0.9-0.1-0.9-0.2s0.4-0.3,0.9-0.3S149.1,469,149.1,469.1z"/>
	<path class="st14" d="M151.9,469c0,0.1-0.2,0.3-0.5,0.3s-0.5-0.1-0.5-0.2s0.2-0.3,0.5-0.3S151.9,468.8,151.9,469z"/>
	<path class="st14" d="M80.8,617.4c0.1,0.1,0,0.3-0.2,0.5s-0.4,0.3-0.5,0.2s0-0.4,0.2-0.5S80.7,617.3,80.8,617.4z"/>
	<path class="st14" d="M83.6,614.7c0.1,0.1-0.1,0.5-0.5,0.9c-0.4,0.4-0.8,0.6-0.9,0.5s0.1-0.5,0.5-0.8S83.5,614.6,83.6,614.7z"/>
	<path class="st14" d="M86.4,612.1c0.1,0.1-0.2,0.5-0.6,0.8s-0.8,0.6-0.9,0.5s0.2-0.5,0.6-0.8S86.3,612,86.4,612.1z"/>
	<path class="st14" d="M89.4,609.6c0.1,0.1-0.2,0.5-0.6,0.8c-0.4,0.3-0.8,0.5-0.9,0.4s0.2-0.5,0.6-0.8
		C88.9,609.7,89.3,609.5,89.4,609.6z"/>
	<path class="st14" d="M92.4,607.2c0.1,0.1-0.2,0.5-0.6,0.8c-0.4,0.3-0.8,0.5-0.9,0.4c-0.1-0.1,0.2-0.5,0.6-0.8
		C91.9,607.3,92.3,607.1,92.4,607.2z"/>
	<path class="st14" d="M95.5,604.9c0.1,0.1-0.2,0.5-0.6,0.8s-0.8,0.5-0.9,0.4c-0.1-0.1,0.2-0.5,0.6-0.8S95.4,604.8,95.5,604.9z"/>
	<path class="st14" d="M98.6,602.7c0.1,0.1-0.2,0.5-0.6,0.8c-0.4,0.3-0.9,0.5-0.9,0.3s0.2-0.5,0.7-0.8S98.6,602.6,98.6,602.7z"/>
	<path class="st14" d="M101.8,600.5c0.1,0.1-0.2,0.5-0.7,0.8c-0.4,0.3-0.9,0.4-1,0.3s0.2-0.5,0.7-0.7S101.8,600.4,101.8,600.5z"/>
	<path class="st14" d="M105.1,598.5c0.1,0.1-0.2,0.5-0.7,0.7c-0.5,0.3-0.9,0.4-1,0.3s0.2-0.5,0.7-0.7
		C104.6,598.5,105,598.4,105.1,598.5z"/>
	<path class="st14" d="M108.4,596.5c0.1,0.1-0.3,0.5-0.7,0.7c-0.5,0.3-0.9,0.4-1,0.3s0.2-0.4,0.7-0.7
		C107.9,596.5,108.4,596.4,108.4,596.5z"/>
	<path class="st14" d="M111.8,594.7c0.1,0.1-0.3,0.4-0.7,0.7s-0.9,0.4-1,0.2c-0.1-0.1,0.3-0.4,0.7-0.7S111.8,594.5,111.8,594.7z"/>
	<path class="st14" d="M115.3,592.9c0.1,0.1-0.3,0.4-0.8,0.7c-0.5,0.2-0.9,0.3-1,0.2c-0.1-0.1,0.3-0.4,0.8-0.7
		C114.8,592.9,115.2,592.8,115.3,592.9z"/>
	<path class="st14" d="M118.8,591.3c0.1,0.1-0.3,0.4-0.8,0.6c-0.5,0.2-0.9,0.3-1,0.2c-0.1-0.1,0.3-0.4,0.8-0.6
		C118.2,591.2,118.7,591.1,118.8,591.3z"/>
	<path class="st14" d="M121.4,590.1c0.1,0.1-0.1,0.3-0.3,0.4c-0.3,0.1-0.5,0.1-0.6,0c0-0.1,0.1-0.3,0.3-0.4
		C121.1,590,121.4,589.9,121.4,590.1z"/>
	<path class="st14" d="M158.9,597.6c-0.1-0.1-0.1-0.3,0-0.6s0.3-0.4,0.4-0.3s0.1,0.3,0,0.6S159,597.7,158.9,597.6z"/>
	<path class="st14" d="M157.4,601.1c-0.1,0-0.1-0.5,0.1-1s0.5-0.8,0.6-0.8s0.1,0.5-0.1,1S157.5,601.2,157.4,601.1z"/>
	<path class="st14" d="M156,604.7c-0.1,0-0.1-0.5,0.1-1c0.2-0.5,0.4-0.9,0.6-0.8s0.1,0.5-0.1,1S156.2,604.8,156,604.7z"/>
	<path class="st14" d="M154.9,608.4c-0.1,0-0.1-0.5,0-1c0.1-0.5,0.4-0.9,0.5-0.8c0.1,0,0.1,0.5,0,1S155.1,608.4,154.9,608.4z"/>
	<path class="st14" d="M154.1,612.1c-0.1,0-0.2-0.5-0.1-1c0.1-0.5,0.3-0.9,0.5-0.9c0.1,0,0.2,0.5,0.1,1
		C154.4,611.8,154.2,612.2,154.1,612.1z"/>
	<path class="st14" d="M153.4,615.9c-0.1,0-0.2-0.5-0.1-1c0.1-0.5,0.3-0.9,0.4-0.9c0.1,0,0.2,0.5,0.1,1
		C153.7,615.5,153.6,615.9,153.4,615.9z"/>
	<path class="st14" d="M153,619.7c-0.1,0-0.2-0.5-0.2-1s0.2-0.9,0.4-0.9s0.2,0.5,0.2,1C153.3,619.3,153.1,619.7,153,619.7z"/>
	<path class="st14" d="M152.8,623.5c-0.1,0-0.3-0.4-0.2-1s0.1-1,0.3-1s0.2,0.4,0.2,1S152.9,623.5,152.8,623.5z"/>
	<path class="st14" d="M152.8,627.4c-0.1,0-0.3-0.4-0.3-1c0-0.5,0.1-1,0.2-1s0.3,0.4,0.3,1C153.1,626.9,153,627.4,152.8,627.4z"/>
	<path class="st14" d="M153,630.3c-0.1,0-0.3-0.2-0.3-0.5c0-0.3,0.1-0.5,0.2-0.5c0.1,0,0.3,0.2,0.3,0.5S153.2,630.3,153,630.3z"/>
	<path class="st14" d="M258.6,600.8c-0.1-0.1,0.1-0.3,0.4-0.5c0.3-0.1,0.5-0.1,0.6,0c0.1,0.1-0.1,0.3-0.3,0.5
		C258.9,600.9,258.7,600.9,258.6,600.8z"/>
	<path class="st14" d="M255.2,602.7c-0.1-0.1,0.2-0.5,0.7-0.7s0.9-0.4,1-0.3s-0.2,0.5-0.7,0.7C255.7,602.7,255.3,602.8,255.2,602.7z
		"/>
	<path class="st14" d="M252.1,605.1c-0.1-0.1,0.2-0.5,0.6-0.8s0.8-0.5,0.9-0.4c0.1,0.1-0.2,0.5-0.6,0.8
		C252.6,605.1,252.2,605.3,252.1,605.1z"/>
	<path class="st14" d="M249.4,608c-0.1-0.1,0.1-0.5,0.5-0.9c0.4-0.4,0.8-0.7,0.9-0.5c0.1,0.1-0.1,0.5-0.5,0.9
		C249.9,607.8,249.5,608.1,249.4,608z"/>
	<path class="st14" d="M247,611.1c-0.1-0.1,0-0.5,0.3-1s0.7-0.8,0.8-0.7c0.1,0.1,0,0.5-0.3,1C247.4,611,247.1,611.2,247,611.1z"/>
	<path class="st14" d="M245.2,614.6c-0.1-0.1,0-0.5,0.2-1s0.6-0.8,0.7-0.8c0.1,0.1,0,0.5-0.2,1S245.3,614.7,245.2,614.6z"/>
	<path class="st14" d="M243.8,618.3c-0.1,0-0.1-0.5,0.1-1s0.4-0.9,0.6-0.8s0.1,0.5-0.1,1S243.9,618.3,243.8,618.3z"/>
	<path class="st14" d="M243,622.1c-0.1,0-0.2-0.5-0.1-1c0.1-0.5,0.3-1,0.4-0.9c0.1,0,0.2,0.5,0.1,1S243.1,622.2,243,622.1z"/>
	<path class="st14" d="M242.6,626.1c-0.1,0-0.2-0.5-0.2-1s0.2-1,0.3-1s0.2,0.5,0.2,1C242.9,625.6,242.8,626.1,242.6,626.1z"/>
	<path class="st14" d="M242.8,629c-0.1,0-0.3-0.2-0.3-0.5c0-0.3,0.1-0.5,0.2-0.5c0.1,0,0.3,0.2,0.3,0.5S242.9,629,242.8,629z"/>
	<path class="st14" d="M216.1,615c0,0.1-0.3,0.2-0.5,0.2s-0.5-0.2-0.4-0.4c0-0.1,0.3-0.2,0.6-0.2S216.1,614.8,216.1,615z"/>
	<path class="st14" d="M220.2,615.6c0,0.2-0.5,0.2-1,0.2s-1-0.2-1-0.4c0-0.2,0.5-0.2,1-0.1S220.2,615.4,220.2,615.6z"/>
	<path class="st14" d="M224.3,615.7c0,0.1-0.5,0.3-1,0.3s-1-0.1-1-0.3s0.5-0.3,1-0.3S224.3,615.6,224.3,615.7z"/>
	<path class="st14" d="M228.5,615.4c0,0.1-0.4,0.3-1,0.4s-1,0-1.1-0.2c-0.1-0.1,0.4-0.3,1-0.4S228.4,615.3,228.5,615.4z"/>
	<path class="st14" d="M231.5,614.9c0,0.1-0.2,0.3-0.4,0.4c-0.3,0-0.5,0-0.5-0.2c0-0.2,0.2-0.3,0.4-0.3
		C231.2,614.7,231.5,614.8,231.5,614.9z"/>
	<path class="st7" d="M168.1,596.7c-0.2,0-0.4,0-0.6,0l-1.9-0.2l-6.8-1l-22.5-3.3l-16.3-2.5l0,0c-2.1,0.3-4,1.2-5.7,2.5
		c-1.3,1-2.3,2.3-3.1,3.7c-0.7,1.3-1.1,2.6-1.4,4c0,0,0-0.1,0-0.3c0-0.3,0.1-0.6,0.1-0.8c0.2-1,0.5-2.1,1-3c0.8-1.5,1.8-2.8,3.1-3.9
		c1.7-1.4,3.7-2.3,5.8-2.7h0.1l16.4,2.5l22.4,3.5l6.8,1.1l1.8,0.3C167.7,596.5,167.9,596.6,168.1,596.7z"/>
	<path class="st7" d="M164.4,630.6c-0.2,0-0.3-0.1-0.4-0.2c-0.4-0.2-0.8-0.3-1.2-0.5c-1.5-0.8-2.8-1.8-3.9-3.1
		c-1.6-1.9-2.8-4.1-3.5-6.4c-0.9-2.9-1.1-5.9-0.7-8.9c0.5-3,1.8-5.8,3.7-8.2c1.5-1.9,3.5-3.5,5.6-4.6c1.5-0.8,3-1.3,4.6-1.6
		c0.5-0.1,0.9-0.1,1.4-0.1c0.2,0,0.3,0,0.5,0c-2.2,0.4-4.3,1.1-6.3,2.1c-2.1,1.2-4,2.7-5.4,4.6c-1.8,2.3-3.1,5-3.5,7.9
		c-0.4,2.9-0.2,5.9,0.6,8.7c0.7,2.3,1.8,4.5,3.3,6.3c1,1.3,2.3,2.3,3.7,3.1C163.8,630.3,164.4,630.6,164.4,630.6z"/>
	<g class="st15">
		<polygon points="128.9,539.7 135.8,591.8 127,589.8 124.3,567.1 		"/>
	</g>
	<g class="st10">
		<path d="M271.4,603.7c-4.2-0.8-8.5-0.8-12.7,0c-3.6,0.8-6.7,3.2-8.5,6.5c-1.6,3.1-2.2,6.6-1.4,10c0.6,2.9,1.2,6,3.4,8
			c3.2,3.1,6.3,4.1,10.4,3.3l7.9-2.6L271.4,603.7z"/>
	</g>
	<path class="st7" d="M264.6,631c-0.2,0.1-0.3,0.2-0.5,0.2c-0.5,0.2-1,0.3-1.6,0.4c-2,0.4-4.1,0.3-6-0.3c-1.3-0.4-2.6-1.1-3.6-2.1
		c-1.2-1.1-2.2-2.4-2.9-3.8c-0.8-1.6-1.4-3.3-1.7-5c-0.4-1.9-0.4-3.8-0.1-5.7c0.4-1.9,1.1-3.6,2.1-5.3c1.7-3,4.6-5.1,7.9-5.9
		c1.4-0.3,2.7-0.5,4.1-0.5c2,0,4,0.1,6,0.4l1.6,0.2c0.2,0,0.4,0.1,0.6,0.1c-0.2,0-0.4,0-0.6,0l-1.6-0.1c-2-0.2-4-0.3-5.9-0.2
		c-1.3,0-2.7,0.2-4,0.5c-1.5,0.4-2.9,1-4.2,1.9c-2.8,2.2-4.7,5.4-5.4,8.9c-0.3,1.8-0.3,3.7,0.1,5.5c0.3,1.7,0.8,3.3,1.6,4.9
		c0.7,1.4,1.6,2.7,2.8,3.7c1,0.9,2.2,1.6,3.5,2c1.9,0.6,3.9,0.8,5.8,0.5C263.9,631.3,264.6,631,264.6,631z"/>
	<path class="st7" d="M234.7,586.5c0,0.2,0,0.3-0.1,0.5c-0.1,0.4-0.1,0.9-0.3,1.4c-0.3,1.2-0.6,3-0.9,5.2c-1,5.8-1.5,11.6-1.6,17.4
		c0,3.2,0.2,6.4,0.6,9.6c0.3,2.6,0.8,5.2,1.4,7.7c0.2,1.1,0.5,2.1,0.8,2.9s0.4,1.6,0.6,2.2c0.2,0.6,0.3,1,0.4,1.4
		c0.1,0.2,0.1,0.3,0.1,0.5c-0.1-0.1-0.2-0.3-0.2-0.5l-0.5-1.4c-0.2-0.6-0.5-1.3-0.7-2.2s-0.6-1.8-0.8-2.9c-0.7-2.6-1.2-5.1-1.5-7.8
		c-0.4-3.2-0.6-6.4-0.6-9.7c0-5.9,0.6-11.7,1.7-17.5c0.4-2.2,0.8-4,1.1-5.2c0.1-0.6,0.3-1,0.4-1.4
		C234.5,586.8,234.6,586.7,234.7,586.5z"/>
	<g class="st10">
		<path d="M169.3,597c-3.7,1-7.6,2.2-10.2,5c-5.3,6.5-5.8,15.8-1.2,22.8c1.2,1.9,2.7,3.5,4.6,4.8c1.9,1,4.1,1.3,6.1,0.9
			c5.7-1.1,10.3-5.3,11.9-10.8c1.6-5.8,0.8-11.9-2.4-17C176.7,600.3,171.9,597.8,169.3,597"/>
	</g>
	<path class="st12" d="M305.5,625.8c0.3,0,1.6,0.8,0.5,2.9c-1.1,2.1-8.9,9.1-11.3,6.8s1.1-5.3,1.1-5.3L305.5,625.8z"/>
	<path class="st12" d="M295.5,630.2c0,0-9.6,1.4-13.4,2.9c-4,1.6-9,0.7-12.3-1.5c-1.9-1.2-3.7-2.6-5.3-4.2l-12.4,0.1
		c-3.7-4.2-4.8-10.1-2.7-15.3c0.6-1.8,1.5-3.4,2.7-4.9c1.4-1.6,3.7-3,7.7-3.7l14.7,2.9c0,0,22.7-2.1,26.8-0.3c0,0,5.1,2.9,6.7,4.1
		c0.6,0.5,2.5,6.2-1.1,9.3c0,0,3.3,2.5,1.6,4.8l-0.8,1c0,0,2.2,2.8,1.1,4s-10.7,7.1-14.2,5.9S294,630.8,295.5,630.2"/>
	<path class="st13" d="M304.4,614.7c-0.4,0.1-0.8,0.3-1.2,0.5c-0.8,0.3-1.9,0.8-3.3,1.2c-0.7,0.2-1.5,0.5-2.3,0.7s-1.7,0.4-2.7,0.8
		c-1,0.3-1.9,0.9-2.6,1.7c-0.8,0.9-1,2.1-0.6,3.3c0.2,0.6,0.7,1,1.2,1.3c0.5,0.2,1.1,0.4,1.6,0.4c1,0,2.1,0,3.1-0.2
		c1.7-0.3,3.4-0.8,5-1.4c1.4-0.5,2.5-1,3.2-1.3c0.4-0.2,0.8-0.3,1.1-0.6c-0.4,0.1-0.8,0.3-1.2,0.4c-0.8,0.3-1.9,0.7-3.3,1.2
		c-1.6,0.6-3.3,1-5,1.3c-1,0.2-2,0.2-3,0.2c-0.5,0-1-0.2-1.5-0.4c-0.4-0.2-0.8-0.6-1-1.1c-0.3-1-0.1-2.1,0.6-2.9
		c0.7-0.7,1.5-1.3,2.5-1.6c0.9-0.3,1.8-0.5,2.6-0.8s1.6-0.5,2.3-0.8c1.4-0.5,2.5-1,3.2-1.3C303.7,615.2,304.1,615,304.4,614.7z"/>
	<path class="st13" d="M303.4,607.7c-0.4,0.1-0.8,0.3-1.2,0.5c-0.8,0.3-1.9,0.8-3.2,1.3s-3,1-4.9,1.5c-1,0.2-2,0.6-2.9,1.2
		c-0.4,0.4-0.7,0.9-0.8,1.5c-0.1,0.6,0,1.2,0.3,1.7c0.5,1,1.5,1.8,2.6,2.1c1,0.3,2.1,0.4,3.1,0.2c1.7-0.4,3.3-0.9,4.9-1.5l3.2-1.2
		c0.4-0.1,0.8-0.3,1.2-0.5c-0.4,0.1-0.8,0.2-1.2,0.3l-3.3,1.1c-1.6,0.6-3.2,1.1-4.9,1.4c-1,0.2-2,0.1-2.9-0.2c-1-0.3-1.9-1-2.3-1.9
		c-0.5-0.9-0.3-2,0.4-2.8c0.8-0.6,1.7-1,2.7-1.2c1.7-0.5,3.3-1,4.9-1.6c1.4-0.5,2.5-1,3.2-1.4C302.7,608.2,303.1,608,303.4,607.7z"
		/>
	<path class="st13" d="M298.8,609.8c0.2-0.6,0.3-1.3,0.4-2c0.2-0.6,0.4-1.3,0.5-1.9C298.8,607.1,298.5,608.5,298.8,609.8z"/>
	<path class="st12" d="M264.6,610.8l8.6-3.5c0,0,23.7-11.7,24.1-11.1c0.4,0.6,1.7,0.5,1.5,3.4s-14.1,9.1-14.5,10.1s0.4,6.1-4.7,9.9
		c-5.1,3.8-8.8,3.9-8.8,3.9"/>
	<path class="st13" d="M270.9,623.6h0.2l0.6-0.1c0.8-0.1,1.5-0.3,2.2-0.6c1.1-0.4,2.3-0.9,3.3-1.5c1.4-0.8,2.7-1.7,3.9-2.8
		c1.4-1.4,2.4-3.2,2.8-5.1c0.2-1.1,0.4-2.1,0.4-3.2c0-0.1,0-0.3,0.1-0.4c0-0.1,0.1-0.1,0.2-0.2c0.1-0.1,0.5-0.3,0.7-0.5
		c0.5-0.3,1-0.6,1.5-0.9c2.1-1.2,4.3-2.3,6.5-3.7c1.1-0.7,2.2-1.4,3.3-2.2c0.6-0.4,1.1-0.8,1.5-1.3c0.2-0.3,0.5-0.5,0.6-0.8
		c0.1-0.2,0.2-0.4,0.2-0.5c0-0.2,0-0.4,0-0.5c0.1-0.7-0.1-1.4-0.4-2.1c-0.2-0.3-0.5-0.6-0.8-0.8c-0.1-0.1-0.2-0.2-0.3-0.3l-0.1-0.1
		c-0.1,0-0.1,0-0.2,0h-0.2l-0.3,0.1c-1.3,0.4-2.5,1-3.6,1.5c-2.4,1-4.6,2.1-6.7,3.1c-4.3,2-8.1,3.9-11.3,5.5
		c-0.8,0.4-1.6,0.8-2.3,1.1l-2.1,0.9l-3.4,1.4l-2.1,0.9l-0.5,0.2l-0.2,0.1c0,0,0.1,0,0.2-0.1l0.6-0.2l2.1-0.8l3.4-1.4l2.1-0.8
		c0.7-0.3,1.5-0.7,2.3-1.1l11.3-5.4c2.1-1,4.4-2,6.7-3.1c1.2-0.5,2.4-1.1,3.6-1.5l0.2-0.1h0.1l0,0c0,0,0-0.1,0-0.1l0,0
		c-0.3,0.2-0.1,0.1-0.1,0.1l0,0c0.1,0.1,0.3,0.3,0.4,0.4c0.3,0.2,0.5,0.4,0.7,0.6c0.3,0.6,0.4,1.2,0.4,1.9c0,0.3,0,0.6-0.2,0.9
		c-0.2,0.3-0.4,0.5-0.6,0.8c-0.5,0.5-1,0.9-1.5,1.3c-1,0.8-2.1,1.5-3.2,2.1c-2.2,1.3-4.4,2.5-6.4,3.7c-0.5,0.3-1,0.6-1.5,0.9
		c-0.3,0.2-0.5,0.3-0.7,0.5c-0.1,0.1-0.3,0.2-0.3,0.4c0,0.1-0.1,0.3-0.1,0.5c-0.1,1.1-0.2,2.2-0.4,3.2c-0.4,1.9-1.3,3.6-2.7,5
		c-1.2,1.1-2.4,2-3.8,2.8c-1,0.6-2.1,1.1-3.3,1.6c-0.7,0.3-1.4,0.5-2.2,0.7C271.3,623.6,271.1,623.6,270.9,623.6L270.9,623.6z"/>
	<path class="st13" d="M297.4,624.2c-0.3,0-0.6,0.1-0.9,0.3c-0.8,0.3-1.6,0.8-2.2,1.3c-0.5,0.4-0.9,0.8-1.3,1.3
		c-0.5,0.6-0.7,1.3-0.6,2c0.2,0.8,0.8,1.5,1.6,1.7c0.8,0.2,1.7,0.2,2.5-0.1c2.7-0.9,5.4-2,7.9-3.4c0.8-0.4,1.5-0.9,2.2-1.4
		c0.3-0.2,0.5-0.4,0.7-0.6c-0.3,0.1-0.6,0.3-0.8,0.5c-0.5,0.3-1.3,0.8-2.3,1.3c-2.5,1.3-5.2,2.4-7.9,3.2c-0.7,0.3-1.5,0.3-2.3,0.1
		c-0.7-0.2-1.2-0.7-1.4-1.4c-0.1-0.6,0.1-1.3,0.6-1.8c0.4-0.5,0.8-0.9,1.2-1.3C295.3,625.3,296.3,624.7,297.4,624.2z"/>
	<path class="st12" d="M161.4,600.6l15.2,0.3c0,0,22.8-8.3,27.5-7.5c4.2,0.7,19.7,11,22.8,13c0.3,0.2,0.6,0.6,0.7,0.9l0,0
		c0.6,1.7-0.2,3.5-1.9,4.2l-0.3,0.1l0.1,0.5c0.2,0.6,0.3,1.2,0.2,1.8c-0.1,1.2-1.1,2.2-2.4,2.1c-0.7,0-1.4-0.5-1.8-1.1l0.6,1
		c0.2,0.4,0.4,0.9,0.3,1.4l-0.1,0.9c-0.1,1-0.8,1.9-1.8,2.3l0,0c-0.9,0.3-2,0-2.7-0.7c-2-2.2-6.2-6.5-9.1-7
		c-3.1-0.4-6.2-0.5-9.4-0.5c-1.3,0-2.5,0.8-2.9,2l0,0c1.7,0.1,13.6,6.3,17.8,8.5c1.3,0.7,2.2,1.9,2.4,3.4c0.1,1.3-0.5,2.7-3.1,2.1
		c-5.6-1.3-15.6-5.9-15.6-5.9s-5.2-1.5-8.5,0.9c-4.7,3.3-6.9,4.5-10.9,3.2c-2.4-0.8-4.8-1.9-7-3.3l-13.8,1.3
		C157.9,624.7,149.4,611.1,161.4,600.6z"/>
	<path class="st13" d="M196.7,604.8c0,0.1,1.6-0.4,4.3-0.6c7.1-0.5,13.9,2.5,18.5,7.9c0.9,1.1,1.8,2.3,2.5,3.5
		c-0.1-0.4-0.3-0.7-0.5-1.1c-0.5-0.9-1.1-1.8-1.8-2.7c-4.5-5.6-11.5-8.6-18.7-8c-1.1,0.1-2.1,0.3-3.2,0.5
		C197.4,604.5,197,604.6,196.7,604.8z"/>
	<path class="st13" d="M199.1,599.2c1.5-0.4,3-0.7,4.5-0.8c3.7,0,7.3,1,10.4,2.9c3.1,2,5.9,4.4,8.4,7.1l2.3,2.4
		c0.3,0.3,0.6,0.6,0.9,0.9c-0.2-0.4-0.5-0.7-0.8-1c-0.5-0.6-1.3-1.5-2.2-2.5c-2.4-2.8-5.2-5.3-8.4-7.3c-3.2-2-6.9-3-10.6-2.9
		c-1.1,0.1-2.2,0.3-3.3,0.6c-0.3,0.1-0.6,0.2-0.9,0.3C199.2,599.2,199.1,599.2,199.1,599.2z"/>
</g>
<g id="freepik--device-2--inject-18">
	<path class="st6" d="M395.7,635.4c3.9-5.9,10.4-9.6,17.5-9.9c11.9-0.4,17.9,9.9,17.9,9.9H395.7z"/>
	<path class="st7" d="M418.5,635.1c-0.1,0-0.1-0.7-0.4-1.8c-0.6-2.9-2.3-5.4-4.7-7c-0.5-0.3-1-0.6-1.5-1c0.6,0.1,1.2,0.3,1.7,0.7
		c2.6,1.5,4.4,4.2,4.9,7.2C418.7,633.8,418.7,634.5,418.5,635.1z"/>
	<path class="st6" d="M623,635.4L623,635.4c0-2.6-2.1-4.6-4.6-4.6H516.8c-2.5,0-4.6,2.1-4.6,4.6l0,0H623z"/>
	<path class="st6" d="M570.4,596.1H393.1c-3.3,0-5.9-2.6-5.9-5.9V477.5c0-3.3,2.6-5.9,5.9-5.9h177.3c1.2,0,2.1,0.9,2.1,2.1V594
		C572.5,595.1,571.6,596.1,570.4,596.1z"/>
	<rect x="457.2" y="581.7" class="st6" width="34.7" height="53.7"/>
	<path class="st7" d="M570.4,596.1h-5c-1.2,0-2.1-0.9-2.1-2.1V473.7c0-1.2,0.9-2.1,2.1-2.1h5c1.2,0,2.1,0.9,2.1,2.1V594
		C572.5,595.1,571.6,596.1,570.4,596.1z"/>
	<path class="st7" d="M457.1,572c0.1,0,0.3,14.2,0.3,31.7s0,31.7-0.2,31.7s-0.3-14.2-0.3-31.7S457,572,457.1,572z"/>
	<path class="st7" d="M492.3,571.2c0.1,0,0.2,14.2,0.1,31.8s-0.3,31.8-0.4,31.8s-0.2-14.2-0.1-31.8S492.2,571.2,492.3,571.2z"/>
	<path class="st7" d="M551.3,585.2c0-0.1,0-0.1,0-0.2c0-0.2,0-0.4,0-0.6c0-0.6,0-1.4,0-2.4c0-2.1,0-5.1-0.1-8.8l0.2,0.2l-39.3,0.1
		l0.3-0.3l0,0v6.1c0,2,0,4,0,5.9L512,585l28,0.1l8.3,0.1h2.2h0.5L551.3,585.2c-0.3-0.1-0.5-0.1-0.8-0.1h-2.2l-8.2,0.1l-28.2,0.1
		h-0.3v-12.1l0,0l0.3-0.3l39.3,0.1h0.2v0.2c0,3.8-0.1,6.8-0.1,8.9c0,1,0,1.8,0,2.3C551.3,584.7,551.3,585,551.3,585.2z"/>
	<path class="st7" d="M487.6,565.3c0,0.1-6.4,0.3-14.4,0.3s-14.4-0.1-14.4-0.3s6.4-0.3,14.4-0.3S487.6,565.2,487.6,565.3z"/>
</g>
<g id="freepik--device-1--inject-18">
	<path class="st6" d="M356.3,635.4H216.9l18-97.9c0.6-3.5,3.7-6,7.2-6h125.3c4,0,7.3,3.3,7.3,7.3c0,0.5,0,0.9-0.1,1.4L356.3,635.4z"
		/>
	<path class="st6" d="M216.9,635.4H164l0.2-0.2c4.7-3.5,10.4-5.5,16.3-5.7l37.8-1.1L216.9,635.4z"/>
	<path class="st7" d="M250.4,531.7c0,0-0.4-0.1-1.1-0.1c-1.1,0-2.1,0.3-3.1,0.8c-1.5,0.8-2.8,1.9-3.7,3.4c-1.1,1.9-1.9,4.1-2.3,6.3
		c-0.4,2.5-0.9,5.2-1.4,8.2s-1,6.1-1.7,9.3c-1.2,6.6-2.6,13.8-4.2,21.4c-3.1,15.1-6.1,28.8-8,38.7c-1,5-1.7,9-2.2,11.8
		c-0.2,1.4-0.4,2.4-0.6,3.2l-0.2,0.8c0,0.1,0,0.2-0.1,0.3c0-0.1,0-0.2,0-0.3c0-0.2,0-0.5,0.1-0.8c0.1-0.8,0.3-1.9,0.5-3.2
		c0.4-2.8,1.1-6.8,2-11.8c1.8-10,4.7-23.6,7.8-38.8c1.6-7.5,3-14.8,4.3-21.3c0.6-3.3,1.2-6.4,1.7-9.3s0.9-5.7,1.4-8.2
		c0.4-2.3,1.2-4.4,2.4-6.4c1-1.5,2.3-2.6,3.9-3.4c1-0.5,2.1-0.7,3.2-0.7C249.6,531.5,250,531.5,250.4,531.7z"/>
	<path class="st5" d="M309.3,581.3c0,3.7-3,6.7-6.7,6.7s-6.7-3-6.7-6.7c0-3.7,3-6.7,6.7-6.7c0,0,0,0,0,0
		C306.2,574.5,309.3,577.5,309.3,581.3z"/>
</g>
<g id="freepik--Desk--inject-18">
	<path class="st7" d="M718.3,635.4c0,0.1-153.7,0.3-343.3,0.3s-343.3-0.1-343.3-0.3s153.7-0.3,343.3-0.3S718.3,635.2,718.3,635.4z"
		/>
</g>
<g id="freepik--Plant--inject-18">
	<path class="st11" d="M345.7,610c-7.2-4.2-11-13.8-11.3-21.8c-0.3-7.9,3-16.2,9.5-20.7c6.8-4.8,16.6-4.7,23.6-0.2
		c7.1,4.8,11.2,12.8,10.8,21.3c-0.5,8.5-4.7,16.3-11.6,21.3"/>
	<path class="st2" d="M357.2,610.7c-0.1-0.6-0.2-1.2-0.2-1.8c0-1.3-0.1-3-0.1-4.9c-0.1-4.2-0.3-9.9-0.5-16.3s-0.6-12.1-0.9-16.3
		c-0.1-2-0.2-3.6-0.3-4.9c-0.1-0.6-0.1-1.2,0-1.8c0.2,0.6,0.3,1.2,0.3,1.8c0.1,1.2,0.3,2.8,0.5,4.9c0.4,4.2,0.8,9.9,1.1,16.3
		s0.4,12.1,0.4,16.3c0,2.1,0,3.8-0.1,4.9C357.3,609.5,357.3,610.1,357.2,610.7z"/>
	<path class="st7" d="M336.5,586.4c0,0.2-1.2,0.3-2.6,0.1s-2.5-0.4-2.5-0.5c0-0.2,1.2-0.2,2.6-0.1S336.5,586.2,336.5,586.4z"/>
	<path class="st7" d="M336.9,579.3c-0.1,0.2-1.1-0.1-2.2-0.6c-1.1-0.5-2-1-1.9-1.2c0.1-0.2,1.1,0.1,2.2,0.6
		C336.1,578.6,337,579.2,336.9,579.3z"/>
	<path class="st7" d="M340.6,574.1c-0.1,0.2-1.2-0.4-2.4-1.3c-1.2-1-1.9-2-1.7-2.1s1,0.6,2.2,1.5S340.7,573.9,340.6,574.1z"/>
	<path class="st7" d="M344.3,569.1c-0.2,0.1-0.7-0.8-1.2-1.9c-0.5-1.1-0.7-2.1-0.6-2.1s0.7,0.8,1.2,1.9
		C344.2,568,344.4,569,344.3,569.1z"/>
	<path class="st7" d="M350,565.5c-0.2,0.1-0.7-0.8-1.1-2s-0.4-2.3-0.2-2.3c0.2,0,0.5,0.9,0.9,2.1S350.2,565.5,350,565.5z"/>
	<path class="st7" d="M359.6,561.6c0.2,0.1,0.1,0.8-0.2,1.7s-0.7,1.5-0.9,1.5s-0.1-0.8,0.2-1.7S359.5,561.5,359.6,561.6z"/>
	<path class="st7" d="M366.8,564.6c0.1,0.1-0.3,0.8-1,1.4s-1.4,1-1.5,0.9c-0.1-0.1,0.3-0.8,1-1.4S366.7,564.5,366.8,564.6z"/>
	<path class="st7" d="M373.1,568.7c0.1,0.2-0.5,0.7-1.3,1.3c-0.8,0.5-1.5,0.8-1.6,0.7c-0.1-0.2,0.5-0.7,1.2-1.3
		C372.2,568.9,373,568.5,373.1,568.7z"/>
	<path class="st7" d="M377.5,574.7c0.1,0.2-0.8,0.7-2,1.2s-2.1,0.8-2.2,0.6c-0.1-0.2,0.8-0.7,2-1.2
		C376.5,574.8,377.5,574.6,377.5,574.7z"/>
	<path class="st7" d="M379.3,581.3c0,0.2-0.9,0.5-2,0.6c-1.1,0.1-2.1,0.1-2.1-0.1s0.9-0.5,2-0.6
		C378.3,581.1,379.3,581.2,379.3,581.3z"/>
	<path class="st7" d="M380.2,589.5c-0.1,0.2-1-0.1-2.1-0.6c-1.1-0.5-1.9-1-1.9-1.2s1,0.1,2.1,0.6
		C379.5,588.8,380.3,589.3,380.2,589.5z"/>
	<path class="st7" d="M379.4,596.4c-0.1,0.2-1.3-0.1-2.5-1s-2-1.8-1.9-1.9s1,0.6,2.3,1.4C378.5,595.7,379.5,596.3,379.4,596.4z"/>
	<path class="st7" d="M375.8,602.8c-0.1,0.1-1.1-0.4-2-1.4s-1.4-2-1.3-2.1c0.1-0.1,0.9,0.7,1.8,1.6S375.9,602.6,375.8,602.8z"/>
	<path class="st7" d="M341.3,603.5c0.1,0.2-0.9,0.9-2.3,1.5s-2.5,1.1-2.6,1s0.9-0.9,2.3-1.5S341.2,603.4,341.3,603.5z"/>
	<path class="st7" d="M338.2,597.8c0.1,0.2-0.7,0.7-1.8,1.2s-2,0.7-2.1,0.6c-0.1-0.2,0.7-0.7,1.8-1.2
		C337.2,597.9,338.1,597.6,338.2,597.8z"/>
	<path class="st7" d="M335.9,592.7c0,0.2-1,0.5-2.2,0.6s-2.3,0.2-2.3,0s1-0.5,2.2-0.6S335.8,592.5,335.9,592.7z"/>
	<path class="st7" d="M343.4,589.9c0,0.2-0.9,0.6-2.2,0.8c-1.3,0.1-2.4-0.1-2.3-0.3c0-0.2,1-0.3,2.3-0.4S343.4,589.7,343.4,589.9z"
		/>
	<path class="st7" d="M349.7,583.6c0.1,0.2-0.7,0.6-1.8,0.7c-1.1,0.1-1.9-0.1-1.9-0.3s0.8-0.3,1.8-0.4
		C348.9,583.5,349.7,583.4,349.7,583.6z"/>
	<path class="st7" d="M351,578.6c-0.1,0.2-0.9,0-1.9-0.3c-1-0.3-1.7-0.8-1.6-0.9c0.1-0.2,0.9,0,1.9,0.3
		C350.3,578,351,578.4,351,578.6z"/>
	<path class="st7" d="M353.3,573.5c-0.1,0.1-0.7-0.3-1.1-1s-0.5-1.4-0.3-1.5c0.2-0.1,0.5,0.5,0.9,1.1
		C353.1,572.8,353.4,573.4,353.3,573.5z"/>
	<path class="st7" d="M350.5,594.3c0,0.2-0.7,0.5-1.6,0.7c-0.4,0.1-0.9,0.2-1.4,0.2l-0.1-0.4c0.3,0,0.4,0,0.4,0s-0.1,0.2-0.3,0.3
		l-0.1-0.4c0.4-0.2,0.9-0.4,1.3-0.5C349.6,594.2,350.4,594.1,350.5,594.3z"/>
	<path class="st7" d="M351.8,603.2c0.1,0.2-0.9,0.7-2.1,1.2c-1.2,0.5-2.2,0.7-2.3,0.5c-0.1-0.2,0.9-0.7,2.1-1.2
		C350.7,603.3,351.7,603.1,351.8,603.2z"/>
	<path class="st7" d="M344.6,599.3c0.1,0.2-0.6,0.5-1.4,0.8c-0.8,0.3-1.5,0.4-1.6,0.2s0.6-0.5,1.4-0.8
		C343.9,599.2,344.6,599.1,344.6,599.3z"/>
	<path class="st7" d="M345.2,581.1c0,0.2-1.1,0.1-2.4-0.4s-2.1-1-2.1-1.2s1.1,0.1,2.3,0.6S345.2,580.9,345.2,581.1z"/>
	<path class="st7" d="M362.4,579.2c0.1,0.2-0.5,0.7-1.4,1.3s-1.6,0.9-1.7,0.7c-0.1-0.2,0.5-0.7,1.3-1.3S362.3,579,362.4,579.2z"/>
	<path class="st7" d="M363.4,588.1c0,0.2-0.6,0.5-1.4,0.6c-0.8,0.2-1.5,0.2-1.5,0c0-0.2,0.6-0.5,1.4-0.6
		C362.6,587.9,363.3,587.9,363.4,588.1z"/>
	<path class="st7" d="M364.5,598.2c-0.1,0.2-1-0.1-2-0.6c-1-0.5-1.8-1-1.8-1.2s1,0.1,2,0.6C363.7,597.5,364.5,598,364.5,598.2z"/>
	<path class="st7" d="M362.1,608c-0.1,0.1-0.7-0.4-1.3-1.1c-0.6-0.7-1-1.4-0.8-1.5s0.7,0.4,1.3,1.1
		C361.9,607.2,362.3,607.9,362.1,608z"/>
	<path class="st7" d="M361.7,572.6c0.1,0.1-0.3,0.6-1,1s-1.3,0.3-1.4,0.2c-0.1-0.2,0.4-0.5,1-0.8S361.6,572.4,361.7,572.6z"/>
	<path class="st7" d="M370.1,581.6c0.1,0.2-0.7,0.6-1.8,0.8c-1.1,0.2-1.9,0-1.9-0.2c0-0.2,0.8-0.3,1.8-0.4S370.1,581.4,370.1,581.6z
		"/>
	<path class="st7" d="M368.5,573.5c0.1,0.2-0.7,0.7-1.8,1.1c-1.1,0.4-2.1,0.3-2.1,0.2s0.8-0.5,1.9-0.8
		C367.5,573.6,368.4,573.3,368.5,573.5z"/>
	<path class="st7" d="M372,594.2c0,0.2-1.3,0.3-2.9,0s-2.8-0.9-2.7-1s1.3,0.1,2.9,0.4C370.7,593.8,372,594,372,594.2z"/>
	<path class="st7" d="M368.8,605.9c-0.1,0.1-1.1-0.4-2.1-1.4c-1-1-1.5-2-1.4-2.1s0.9,0.6,1.9,1.6S369,605.8,368.8,605.9z"/>
	<path class="st2" d="M355,563.9c-2.2,1.3-4.1,2.9-5.9,4.7c-4.1,4.5-6.7,10.2-7.3,16.2c-0.3,3.3-0.2,6.7,0.4,9.9
		c0.5,2.7,1.1,5.4,1.9,8c0.6,2.3,1.2,4,1.6,5.3c0.2,0.7,0.4,1.3,0.6,2c-0.3-0.6-0.6-1.2-0.8-1.9c-0.5-1.2-1.1-3-1.8-5.2
		c-0.8-2.6-1.5-5.3-2-8c-0.6-3.3-0.8-6.7-0.5-10.1c0.7-6.2,3.4-12,7.7-16.5c1.3-1.3,2.8-2.5,4.4-3.4c0.4-0.3,0.9-0.5,1.4-0.7
		C354.7,564.1,354.8,564,355,563.9z"/>
	<path class="st2" d="M364.2,610.4c1.1-2.4,2.1-4.8,3-7.2c2-6,2.6-12.3,1.8-18.6c-0.5-3.4-1.4-6.8-2.9-9.9c-1.2-2.5-2.9-4.8-4.9-6.8
		c-1.4-1.2-3-2.3-4.8-3c-1.2-0.5-2-0.6-2-0.7c0.2,0,0.4,0,0.5,0c0.5,0.1,1,0.2,1.5,0.4c1.8,0.7,3.5,1.7,5,2.9c2.1,2,3.9,4.3,5.1,6.9
		c1.5,3.2,2.5,6.6,3,10.1c0.9,6.3,0.2,12.8-2,18.8c-0.4,1.2-0.9,2.1-1.2,3c-0.4,0.9-0.8,1.6-1.1,2.2
		C365,609.2,364.6,609.8,364.2,610.4z"/>
	<polygon class="st7" points="338.2,608.8 375.2,608.8 375.4,616.2 338.2,616.2 	"/>
	<polygon class="st7" points="341.3,612.5 343.4,635.2 370.5,635.2 372.7,612.8 	"/>
	<path class="st6" d="M375.4,616.3c0,0.2-8.3,0.3-18.6,0.3s-18.6-0.1-18.6-0.3s8.3-0.3,18.6-0.3S375.4,616.1,375.4,616.3z"/>
	<path class="st6" d="M371.7,623.2c-0.2,0.5-0.5,1-0.8,1.4c-0.8,1.2-1.8,2.4-2.9,3.4l-0.2,0.2l-0.2-0.2c-2.2-2.3-4.7-4.5-7.3-6.4
		h0.4l-3.2,2.8l-3.8,3.3l-0.2,0.2l-0.2-0.2c-2.3-1.9-4.4-3.7-6.2-5.2h0.4c-1.3,1.6-2.4,2.9-3.2,3.9c-0.4,0.5-0.8,1-1.3,1.4
		c0.3-0.5,0.6-1.1,1-1.5l3-4l0.1-0.2l0.2,0.2l6.3,5.1h-0.4l3.8-3.3l3.2-2.8l0.2-0.2l0.2,0.2c2.6,1.9,5,4.1,7.2,6.6h-0.3
		C369.1,626.4,370.4,624.8,371.7,623.2z"/>
</g>
<g id="freepik--Screens--inject-18">
	<path class="st7" d="M489.6,466.3c0-0.1,0-0.2,0-0.3c0-0.2,0-0.5,0-0.8c0-0.8,0-1.8,0-3.1c0-2.7,0-6.6-0.1-11.4
		c0-9.6,0-22.9-0.1-37.5c0-6.9,0-13.5,0-19.6l0.2,0.2l-24.1-0.1l-6.9-0.1h-1.8c-0.2,0-0.4,0-0.6,0c0.2,0,0.4,0,0.6,0h1.8l6.9-0.1
		l24.1-0.1h0.2v0.2c0,6,0,12.6,0,19.6c0,14.6-0.1,27.9-0.1,37.5c0,4.8-0.1,8.6-0.1,11.4c0,1.3,0,2.3,0,3.1c0,0.3,0,0.6,0,0.8
		C489.7,466.2,489.7,466.3,489.6,466.3z"/>
	<path class="st7" d="M304.6,406.8c0.1,0,0.3,26.9,0.3,60s-0.1,60-0.3,60s-0.3-26.8-0.3-60S304.5,406.8,304.6,406.8z"/>
	<path class="st7" d="M308,526.7c0,1.9-1.5,3.4-3.4,3.4c-1.9,0-3.4-1.5-3.4-3.4c0-1.9,1.5-3.4,3.4-3.4c0,0,0,0,0,0
		C306.5,523.3,308,524.8,308,526.7C308,526.7,308,526.7,308,526.7z"/>
	<path class="st7" d="M493,466.3c0,1.9-1.5,3.4-3.4,3.4s-3.4-1.5-3.4-3.4c0-1.9,1.5-3.4,3.4-3.4l0,0
		C491.5,462.9,493,464.4,493,466.3z"/>
	<rect x="262.4" y="286.4" class="st7" width="208.3" height="121.4"/>
	<path class="st4" d="M278.7,401.7c-0.1,0-0.2-24.8-0.2-55.4s0.1-55.4,0.2-55.4s0.2,24.8,0.2,55.4S278.8,401.7,278.7,401.7z"/>
	<path class="st4" d="M278.7,401.8c-0.1,0-0.1,0-0.1-0.2l0,0c0-0.3-0.1-1.3-0.1-4.3c0-2.8,0-6.8-0.1-11.9c0-10.5-0.1-24.4-0.1-39.2
		s0-28.7,0.1-39.2c0-5.1,0-9.1,0.1-11.9c0-3,0-4,0.1-4.3l0,0c0-0.2,0.1-0.2,0.1-0.2s0.1,0,0.1,0.2l0,0c0,0.3,0.1,1.3,0.1,4.3
		c0,2.8,0,6.8,0.1,11.9c0,10.5,0.1,24.4,0.1,39.2s0,28.7-0.1,39.2c0,5.1,0,9.1-0.1,11.9c0,3,0,4-0.1,4.3l0,0
		C278.8,401.8,278.8,401.8,278.7,401.8z M278.7,303c0,10.2-0.1,25.9-0.1,43.2s0,33,0.1,43.2c0-10.2,0.1-25.9,0.1-43.2
		S278.7,313.2,278.7,303z"/>
	<path class="st4" d="M274.4,295.5c-2.3,0.3-4.6,0.3-6.9,0C269.8,295.2,272.1,295.2,274.4,295.5z"/>
	<path class="st4" d="M271,295.8c-3.6,0-3.6-0.2-3.6-0.3c0-0.1,0-0.3,3.6-0.3s3.6,0.2,3.6,0.3C274.6,295.6,274.5,295.8,271,295.8z
		 M268.3,295.5c0.6,0,1.5,0.1,2.7,0.1s2.1,0,2.7-0.1c-0.6,0-1.5-0.1-2.7-0.1S268.8,295.5,268.3,295.5L268.3,295.5z"/>
	<path class="st4" d="M274.4,302.8c-2.3,0.3-4.6,0.3-6.9,0C269.8,302.5,272.1,302.5,274.4,302.8z"/>
	<path class="st4" d="M271,303.1c-3.6,0-3.6-0.2-3.6-0.3c0-0.1,0-0.3,3.6-0.3s3.6,0.2,3.6,0.3C274.6,302.9,274.5,303.1,271,303.1z
		 M268.3,302.8c0.6,0,1.5,0.1,2.7,0.1s2.1,0,2.7-0.1c-0.6,0-1.5-0.1-2.7-0.1S268.8,302.8,268.3,302.8L268.3,302.8z"/>
	<path class="st4" d="M274.4,310.1c-2.3,0.3-4.6,0.3-6.9,0C269.8,309.8,272.1,309.8,274.4,310.1z"/>
	<path class="st4" d="M271,310.4c-3.6,0-3.6-0.2-3.6-0.3c0-0.1,0-0.3,3.6-0.3s3.6,0.2,3.6,0.3C274.6,310.2,274.5,310.4,271,310.4z
		 M268.3,310.1c0.6,0,1.5,0.1,2.7,0.1s2.1,0,2.7-0.1c-0.6,0-1.5-0.1-2.7-0.1S268.8,310.1,268.3,310.1L268.3,310.1z"/>
	<path class="st4" d="M274.4,317.4c-2.3,0.3-4.6,0.3-6.9,0C269.8,317.1,272.1,317.1,274.4,317.4z"/>
	<path class="st4" d="M271,317.7c-3.6,0-3.6-0.2-3.6-0.3c0-0.1,0-0.3,3.6-0.3s3.6,0.2,3.6,0.3C274.6,317.5,274.5,317.7,271,317.7z
		 M268.3,317.4c0.6,0,1.5,0.1,2.7,0.1s2.1,0,2.7-0.1c-0.6,0-1.5-0.1-2.7-0.1S268.9,317.4,268.3,317.4L268.3,317.4z"/>
	<path class="st4" d="M274.4,324.7c-2.3,0.3-4.6,0.3-6.9,0C269.8,324.5,272.1,324.5,274.4,324.7z"/>
	<path class="st4" d="M271,325c-3.6,0-3.6-0.2-3.6-0.3c0-0.1,0-0.3,3.6-0.3s3.6,0.2,3.6,0.3S274.5,325,271,325z M268.3,324.7
		c0.6,0,1.5,0.1,2.7,0.1s2.1,0,2.7-0.1c-0.6,0-1.5-0.1-2.7-0.1S268.8,324.7,268.3,324.7L268.3,324.7z"/>
	<path class="st4" d="M274.4,332c-2.3,0.3-4.6,0.3-6.9,0C269.8,331.8,272.1,331.8,274.4,332z"/>
	<path class="st4" d="M271,332.4c-3.6,0-3.6-0.2-3.6-0.3s0-0.3,3.6-0.3s3.6,0.2,3.6,0.3C274.6,332.1,274.5,332.4,271,332.4z
		 M268.3,332c0.6,0,1.5,0.1,2.7,0.1s2.1,0,2.7-0.1c-0.6,0-1.5-0.1-2.7-0.1S268.8,332,268.3,332L268.3,332z"/>
	<path class="st4" d="M274.4,339.3c-2.3,0.3-4.6,0.3-6.9,0C269.8,339.1,272.1,339.1,274.4,339.3z"/>
	<path class="st4" d="M271,339.7c-3.6,0-3.6-0.2-3.6-0.3c0-0.1,0-0.3,3.6-0.3s3.6,0.2,3.6,0.3C274.6,339.4,274.5,339.7,271,339.7z
		 M268.3,339.3c0.6,0,1.5,0.1,2.7,0.1s2.1,0,2.7-0.1c-0.6,0-1.5-0.1-2.7-0.1S268.8,339.3,268.3,339.3L268.3,339.3z"/>
	<path class="st4" d="M274.4,346.6c-2.3,0.3-4.6,0.3-6.9,0C269.8,346.4,272.1,346.4,274.4,346.6z"/>
	<path class="st4" d="M271,347c-3.6,0-3.6-0.2-3.6-0.3c0-0.1,0-0.3,3.6-0.3s3.6,0.2,3.6,0.3S274.5,347,271,347z M268.3,346.6
		c0.6,0,1.5,0.1,2.7,0.1s2.1,0,2.7-0.1c-0.6,0-1.5-0.1-2.7-0.1S268.8,346.6,268.3,346.6L268.3,346.6z"/>
	<path class="st4" d="M274.4,353.9c-2.3,0.3-4.6,0.3-6.9,0C269.8,353.6,272.1,353.6,274.4,353.9z"/>
	<path class="st4" d="M271,354.3c-3.6,0-3.6-0.2-3.6-0.3c0-0.1,0-0.3,3.6-0.3s3.6,0.2,3.6,0.3C274.6,354.1,274.5,354.3,271,354.3z
		 M268.3,353.9c0.6,0,1.5,0.1,2.7,0.1s2.1,0,2.7-0.1c-0.6,0-1.5-0.1-2.7-0.1S268.9,353.9,268.3,353.9L268.3,353.9z"/>
	<path class="st4" d="M274.4,361.3c-2.3,0.3-4.6,0.3-6.9,0C269.8,361,272.1,361,274.4,361.3z"/>
	<path class="st4" d="M271,361.6c-3.6,0-3.6-0.2-3.6-0.3c0-0.1,0-0.3,3.6-0.3s3.6,0.2,3.6,0.3S274.5,361.6,271,361.6z M268.3,361.3
		c0.6,0,1.5,0.1,2.7,0.1s2.1,0,2.7-0.1c-0.6,0-1.5-0.1-2.7-0.1S268.9,361.2,268.3,361.3L268.3,361.3z"/>
	<path class="st4" d="M274.4,368.6c-2.3,0.3-4.6,0.3-6.9,0C269.8,368.3,272.1,368.3,274.4,368.6z"/>
	<path class="st4" d="M271,368.9c-3.6,0-3.6-0.2-3.6-0.3s0-0.3,3.6-0.3s3.6,0.2,3.6,0.3C274.6,368.7,274.5,368.9,271,368.9z
		 M268.3,368.6c0.6,0.1,1.5,0.1,2.7,0.1s2.1,0,2.7-0.1c-0.6,0-1.5-0.1-2.7-0.1S268.8,368.5,268.3,368.6L268.3,368.6z"/>
	<path class="st4" d="M274.4,375.9c-2.3,0.3-4.6,0.3-6.9,0C269.8,375.6,272.1,375.6,274.4,375.9z"/>
	<path class="st4" d="M271,376.2c-3.6,0-3.6-0.2-3.6-0.3c0-0.1,0-0.3,3.6-0.3s3.6,0.2,3.6,0.3C274.6,376,274.5,376.2,271,376.2z
		 M268.3,375.9c0.6,0,1.5,0.1,2.7,0.1s2.1,0,2.7-0.1c-0.6,0-1.5-0.1-2.7-0.1S268.9,375.8,268.3,375.9L268.3,375.9z"/>
	<path class="st4" d="M274.4,383.2c-2.3,0.3-4.6,0.3-6.9,0C269.8,382.9,272.1,382.9,274.4,383.2z"/>
	<path class="st4" d="M271,383.5c-3.6,0-3.6-0.2-3.6-0.3c0-0.1,0-0.3,3.6-0.3s3.6,0.2,3.6,0.3S274.5,383.5,271,383.5z M268.3,383.2
		c0.6,0,1.5,0.1,2.7,0.1s2.1,0,2.7-0.1c-0.6,0-1.5-0.1-2.7-0.1S268.8,383.1,268.3,383.2L268.3,383.2z"/>
	<path class="st4" d="M274.4,390.5c-2.3,0.3-4.6,0.3-6.9,0C269.8,390.2,272.1,390.2,274.4,390.5z"/>
	<path class="st4" d="M271,390.8c-3.6,0-3.6-0.2-3.6-0.3s0-0.3,3.6-0.3s3.6,0.2,3.6,0.3C274.6,390.6,274.5,390.8,271,390.8z
		 M268.3,390.5c0.6,0,1.5,0.1,2.7,0.1s2.1,0,2.7-0.1c-0.6,0-1.5-0.1-2.7-0.1S268.8,390.4,268.3,390.5L268.3,390.5z"/>
	<path class="st4" d="M274.4,397.8c-2.3,0.3-4.6,0.3-6.9,0C269.8,397.5,272.1,397.5,274.4,397.8z"/>
	<path class="st4" d="M271,398.1c-3.6,0-3.6-0.2-3.6-0.3c0-0.1,0-0.3,3.6-0.3s3.6,0.2,3.6,0.3C274.6,397.9,274.5,398.1,271,398.1z
		 M268.3,397.8c0.6,0,1.5,0.1,2.7,0.1s2.1,0,2.7-0.1c-0.6,0-1.5-0.1-2.7-0.1S268.8,397.7,268.3,397.8L268.3,397.8z"/>
	<path class="st11" d="M302.1,295.1c0,0.1-4,0.2-9,0.2s-9-0.1-9-0.2c0-0.1,4-0.2,9-0.2S302.1,294.9,302.1,295.1z"/>
	<path class="st11" d="M293.1,295.4c-2.4,0-4.6,0-6.3,0c-2.7-0.1-2.7-0.1-2.7-0.3c0-0.2,0-0.2,2.7-0.3c1.7,0,3.9-0.1,6.3-0.1
		s4.6,0,6.3,0.1c2.7,0.1,2.7,0.1,2.7,0.3c0,0.2,0,0.2-2.7,0.3C297.8,295.4,295.5,295.4,293.1,295.4z M286.1,295.1c1.5,0,4,0.1,7,0.1
		s5.4,0,7-0.1c-1.6,0-4-0.1-7-0.1S287.7,295,286.1,295.1L286.1,295.1z"/>
	<path class="st11" d="M302.1,397.8c0,0.1-4,0.2-9,0.2s-9-0.1-9-0.2c0-0.1,4-0.2,9-0.2S302.1,397.7,302.1,397.8z"/>
	<path class="st11" d="M293.1,398.1c-2.4,0-4.6,0-6.3-0.1c-2.7-0.1-2.7-0.1-2.7-0.3s0-0.2,2.7-0.3c1.7,0,3.9,0,6.3,0s4.6,0,6.3,0
		c2.7,0.1,2.7,0.1,2.7,0.3s0,0.2-2.7,0.3C297.8,398.1,295.5,398.1,293.1,398.1z M286.1,397.8c1.5,0,4,0.1,7,0.1s5.4,0,7-0.1
		c-1.6,0-4-0.1-7-0.1S287.7,397.7,286.1,397.8L286.1,397.8z"/>
	<path class="st11" d="M327,310.1c0,0.1-7.5,0.2-16.8,0.2s-16.8-0.1-16.8-0.2c0-0.1,7.5-0.2,16.8-0.2S327,310,327,310.1z"/>
	<path class="st11" d="M310.3,310.4c-4.5,0-8.7,0-11.9-0.1c-5-0.1-5-0.1-5-0.3c0-0.2,0-0.2,5-0.3c3.2,0,7.4-0.1,11.9-0.1
		s8.7,0,11.8,0.1c5,0.1,5,0.1,5,0.3s0,0.2-5,0.3C318.9,310.4,314.7,310.4,310.3,310.4z M297.2,310.1c2.9,0,7.4,0.1,13.1,0.1
		s10.1,0,13-0.1c-2.9,0-7.4-0.1-13-0.1S300.1,310.1,297.2,310.1z"/>
	<path class="st4" d="M365.8,310.1c0,0.1-7.5,0.2-16.8,0.2s-16.8-0.1-16.8-0.2c0-0.1,7.5-0.2,16.8-0.2S365.8,310,365.8,310.1z"/>
	<path class="st4" d="M349,310.4c-4.5,0-8.7,0-11.9-0.1c-5-0.1-5-0.1-5-0.3c0-0.2,0-0.2,5-0.3c3.2,0,7.4-0.1,11.9-0.1
		s8.7,0,11.8,0.1c5,0.1,5,0.1,5,0.3s0,0.2-5,0.3C357.7,310.4,353.5,310.4,349,310.4z M335.9,310.1c2.9,0,7.4,0.1,13.1,0.1
		s10.1,0,13-0.1c-2.9,0-7.4-0.1-13-0.1S338.9,310.1,335.9,310.1z"/>
	<path class="st4" d="M350.9,317.4c0,0.1-11,0.2-24.7,0.2s-24.7-0.1-24.7-0.2c0-0.1,11-0.2,24.7-0.2S350.9,317.3,350.9,317.4z"/>
	<path class="st4" d="M326.3,317.7c-6.6,0-12.8,0-17.5,0c-7.4-0.1-7.4-0.1-7.4-0.3c0-0.2,0-0.2,7.4-0.3c4.7,0,10.9-0.1,17.5-0.1
		s12.8,0,17.5,0.1c7.4,0.1,7.4,0.1,7.4,0.3c0,0.2,0,0.2-7.4,0.3C339,317.7,332.9,317.7,326.3,317.7z M307,317.4
		c4.3,0,10.9,0.1,19.2,0.1s15,0,19.2-0.1c-4.3,0-10.9-0.1-19.2-0.1S311.3,317.4,307,317.4z"/>
	<path class="st4" d="M350.9,324.7c0,0.1-11,0.2-24.7,0.2s-24.7-0.1-24.7-0.2c0-0.1,11-0.2,24.7-0.2S350.9,324.6,350.9,324.7z"/>
	<path class="st4" d="M326.3,325c-6.6,0-12.8,0-17.5-0.1c-7.4-0.1-7.4-0.1-7.4-0.3c0-0.2,0-0.2,7.4-0.3c4.7,0,10.9-0.1,17.5-0.1
		s12.8,0,17.5,0.1c7.4,0.1,7.4,0.1,7.4,0.3c0,0.2,0,0.2-7.4,0.3C339,325,332.9,325,326.3,325z M307,324.7c4.3,0,10.9,0.1,19.2,0.1
		s14.9,0,19.2-0.1c-4.3-0.1-10.9-0.1-19.2-0.1S311.3,324.7,307,324.7z"/>
	<path class="st4" d="M384.9,346.6c0,0.1-11.1,0.2-24.7,0.2s-24.7-0.1-24.7-0.2c0-0.1,11-0.2,24.7-0.2S384.9,346.5,384.9,346.6z"/>
	<path class="st4" d="M360.2,347c-6.6,0-12.8,0-17.5-0.1c-7.4-0.1-7.4-0.1-7.4-0.3c0-0.2,0-0.2,7.4-0.3c4.7,0,10.9-0.1,17.5-0.1
		s12.8,0,17.5,0.1c7.4,0.1,7.4,0.1,7.4,0.3c0,0.2,0,0.2-7.4,0.3C373,346.9,366.8,347,360.2,347z M341,346.6c4.3,0,10.9,0.1,19.2,0.1
		s14.9,0,19.2-0.1c-4.3,0-10.9-0.1-19.2-0.1S345.3,346.6,341,346.6z"/>
	<path class="st4" d="M370.3,332c0,0.1-11,0.2-24.7,0.2s-24.7-0.1-24.7-0.2c0-0.1,11-0.2,24.7-0.2S370.3,331.9,370.3,332z"/>
	<path class="st4" d="M345.6,332.4c-6.6,0-12.8,0-17.5-0.1c-7.4-0.1-7.4-0.1-7.4-0.3c0-0.2,0-0.2,7.4-0.3c4.7,0,10.9-0.1,17.5-0.1
		s12.8,0,17.5,0.1c7.4,0.1,7.4,0.1,7.4,0.3c0,0.2,0,0.2-7.4,0.3C358.4,332.3,352.2,332.4,345.6,332.4z M326.3,332
		c4.3,0,10.9,0.1,19.2,0.1s14.9,0,19.2-0.1c-4.3,0-10.9-0.1-19.2-0.1S330.6,332,326.3,332L326.3,332z"/>
	<path class="st4" d="M430.6,332c0,0.1-11,0.2-24.7,0.2s-24.7-0.1-24.7-0.2c0-0.1,11.1-0.2,24.7-0.2S430.6,331.9,430.6,332z"/>
	<path class="st4" d="M405.9,332.4c-6.6,0-12.8,0-17.5-0.1c-7.4-0.1-7.4-0.1-7.4-0.3c0-0.2,0-0.2,7.4-0.3c4.7,0,10.9-0.1,17.5-0.1
		s12.8,0,17.5,0.1c7.4,0.1,7.4,0.1,7.4,0.3c0,0.2,0,0.2-7.4,0.3C418.7,332.3,412.5,332.4,405.9,332.4z M386.7,332
		c4.3,0,10.9,0.1,19.2,0.1s14.9,0,19.2-0.1c-4.3,0-10.9-0.1-19.2-0.1S391,332,386.7,332z"/>
	<path class="st4" d="M409.6,317.4c0,0.1-11.1,0.2-24.7,0.2s-24.7-0.1-24.7-0.2c0-0.1,11-0.2,24.7-0.2S409.6,317.3,409.6,317.4z"/>
	<path class="st4" d="M384.9,317.7c-6.6,0-12.8,0-17.5,0c-7.4-0.1-7.4-0.1-7.4-0.3c0-0.2,0-0.2,7.4-0.3c4.7,0,10.9-0.1,17.5-0.1
		s12.8,0,17.5,0.1c7.4,0.1,7.4,0.1,7.4,0.3c0,0.2,0,0.2-7.4,0.3C397.7,317.7,391.5,317.7,384.9,317.7z M365.7,317.4
		c4.3,0,10.9,0.1,19.2,0.1s15,0,19.2-0.1c-4.3,0-10.9-0.1-19.2-0.1S370,317.4,365.7,317.4z"/>
	<path class="st4" d="M443.7,346.6c0,0.1-11,0.2-24.7,0.2s-24.7-0.1-24.7-0.2c0-0.1,11-0.2,24.7-0.2S443.7,346.5,443.7,346.6z"/>
	<path class="st4" d="M419,347c-6.6,0-12.8,0-17.5-0.1c-7.4-0.1-7.4-0.1-7.4-0.3c0-0.2,0-0.2,7.4-0.3c4.7,0,10.9-0.1,17.5-0.1
		s12.8,0,17.5,0.1c7.4,0.1,7.4,0.1,7.4,0.3c0,0.2,0,0.2-7.4,0.3C431.8,346.9,425.6,347,419,347z M399.8,346.6
		c4.3,0,10.9,0.1,19.2,0.1s14.9,0,19.2-0.1c-4.3,0-10.9-0.1-19.2-0.1S404.1,346.6,399.8,346.6L399.8,346.6z"/>
	<path class="st6" d="M436.9,324.7c0,0.1-17.2,0.2-38.3,0.2s-38.3-0.1-38.3-0.2c0-0.1,17.2-0.2,38.3-0.2S436.9,324.6,436.9,324.7z"
		/>
	<path class="st6" d="M398.6,325c-10.2,0-19.9,0-27.1-0.1c-8.4,0-10.6-0.1-11.1-0.1l0,0c-0.2,0-0.2-0.1-0.2-0.1s0-0.1,0.1-0.1l0,0
		c0.6-0.1,2.8-0.1,11.2-0.1c7.2,0,16.9-0.1,27.1-0.1s19.9,0,27.1,0.1c8.4,0,10.6,0.1,11.2,0.1l0,0c0.2,0,0.2,0.1,0.2,0.1
		c0,0,0,0.1-0.2,0.1l0,0c-0.6,0.1-2.8,0.1-11.2,0.1C418.4,325,408.8,325,398.6,325z M368.7,324.7c7.1,0,17.9,0.1,29.9,0.1
		s22.8,0,29.9-0.1c-7.1-0.1-17.9-0.1-29.9-0.1S375.7,324.7,368.7,324.7L368.7,324.7z"/>
	<path class="st4" d="M302.1,302.8c0,0.1-4,0.2-9,0.2s-9-0.1-9-0.2c0-0.1,4-0.2,9-0.2S302.1,302.7,302.1,302.8z"/>
	<path class="st4" d="M293.1,303.1c-2.4,0-4.6,0-6.3-0.1c-2.7-0.1-2.7-0.1-2.7-0.3c0-0.1,0-0.2,2.7-0.3c1.7,0,3.9-0.1,6.3-0.1
		s4.6,0,6.3,0.1c2.7,0.1,2.7,0.1,2.7,0.3c0,0.2,0,0.2-2.7,0.3C297.8,303.1,295.5,303.1,293.1,303.1z M286.1,302.8c1.5,0,4,0.1,7,0.1
		s5.4,0,7-0.1c-1.6,0-4-0.1-7-0.1S287.7,302.8,286.1,302.8L286.1,302.8z"/>
	<path class="st4" d="M302.1,390.5c0,0.1-4,0.2-9,0.2s-9-0.1-9-0.2c0-0.1,4-0.2,9-0.2S302.1,390.4,302.1,390.5z"/>
	<path class="st4" d="M293.1,390.8c-2.4,0-4.6,0-6.3-0.1c-2.7-0.1-2.7-0.1-2.7-0.3s0-0.2,2.7-0.3c1.7,0,3.9-0.1,6.3-0.1
		s4.6,0,6.3,0.1c2.7,0.1,2.7,0.1,2.7,0.3s0,0.2-2.7,0.3C297.8,390.8,295.5,390.8,293.1,390.8z M286.1,390.5c1.6,0,4,0.1,7,0.1
		s5.4,0,7-0.1c-1.6,0-4-0.1-7-0.1S287.7,390.4,286.1,390.5L286.1,390.5z"/>
	<path class="st4" d="M310.9,332c0,0.1-4,0.2-9,0.2s-9-0.1-9-0.2c0-0.1,4-0.2,9-0.2S310.9,331.9,310.9,332z"/>
	<path class="st4" d="M302,332.4c-2.4,0-4.6,0-6.3-0.1c-2.7-0.1-2.7-0.1-2.7-0.3s0-0.2,2.7-0.3c1.7,0,4-0.1,6.3-0.1s4.6,0,6.3,0.1
		c2.8,0.1,2.8,0.1,2.8,0.3c0,0.2,0,0.2-2.8,0.3C306.6,332.3,304.4,332.4,302,332.4z M295,332c1.6,0,4,0.1,7,0.1s5.4,0,7-0.1
		c-1.6,0-4-0.1-7-0.1S296.6,332,295,332z"/>
	<path class="st11" d="M454.5,332c0,0.1-4,0.2-9,0.2s-9-0.1-9-0.2c0-0.1,4-0.2,9-0.2S454.5,331.9,454.5,332z"/>
	<path class="st11" d="M445.5,332.4c-2.4,0-4.6,0-6.3-0.1c-2.8-0.1-2.8-0.1-2.8-0.3s0-0.2,2.8-0.3c1.7,0,3.9-0.1,6.3-0.1
		s4.6,0,6.3,0.1c2.7,0.1,2.7,0.1,2.7,0.3c0,0.2,0,0.2-2.7,0.3C450.1,332.3,447.9,332.4,445.5,332.4z M438.5,332c1.6,0,4,0.1,7,0.1
		s5.4,0,7-0.1c-1.6,0-4-0.1-7-0.1S440.1,332,438.5,332L438.5,332z"/>
	<path class="st11" d="M327,361.2c0,0.1-7.5,0.2-16.8,0.2s-16.8-0.1-16.8-0.2c0-0.1,7.5-0.2,16.8-0.2S327,361.1,327,361.2z"/>
	<path class="st11" d="M310.3,361.5c-4.5,0-8.7,0-11.9-0.1c-5-0.1-5-0.1-5-0.3c0-0.2,0-0.2,5-0.3c3.2,0,7.4-0.1,11.9-0.1
		s8.7,0,11.8,0.1c5,0.1,5,0.1,5,0.3c0,0.2,0,0.2-5,0.3C318.9,361.5,314.7,361.5,310.3,361.5z M297.2,361.2c2.9,0,7.4,0.1,13.1,0.1
		s10.1,0,13.1-0.1c-2.9-0.1-7.4-0.1-13.1-0.1S300.1,361.2,297.2,361.2L297.2,361.2z"/>
	<path class="st4" d="M365.8,361.2c0,0.1-7.5,0.2-16.8,0.2s-16.8-0.1-16.8-0.2c0-0.1,7.5-0.2,16.8-0.2S365.8,361.1,365.8,361.2z"/>
	<path class="st4" d="M349,361.5c-4.5,0-8.7,0-11.9-0.1c-5-0.1-5-0.1-5-0.3c0-0.2,0-0.2,5-0.3c3.2,0,7.4-0.1,11.9-0.1
		s8.7,0,11.8,0.1c5,0.1,5,0.1,5,0.3c0,0.2,0,0.2-5,0.3C357.7,361.5,353.5,361.5,349,361.5z M335.9,361.2c2.9,0,7.4,0.1,13.1,0.1
		s10.1,0,13.1-0.1c-2.9-0.1-7.4-0.1-13.1-0.1S338.9,361.2,335.9,361.2L335.9,361.2z"/>
	<path class="st4" d="M350.9,368.5c0,0.1-11,0.2-24.7,0.2s-24.7-0.1-24.7-0.2c0-0.1,11-0.2,24.7-0.2S350.9,368.4,350.9,368.5z"/>
	<path class="st4" d="M326.3,368.8c-6.6,0-12.8,0-17.5-0.1c-7.4-0.1-7.4-0.1-7.4-0.3c0-0.2,0-0.2,7.4-0.3c4.7,0,10.9-0.1,17.5-0.1
		s12.8,0,17.5,0.1c7.4,0.1,7.4,0.1,7.4,0.3c0,0.2,0,0.2-7.4,0.3C339,368.8,332.9,368.8,326.3,368.8z M307,368.5
		c4.3,0,10.9,0.1,19.2,0.1s14.9,0,19.2-0.1c-4.3,0-10.9-0.1-19.2-0.1S311.3,368.5,307,368.5z"/>
	<path class="st4" d="M350.9,375.8c0,0.1-11,0.2-24.7,0.2s-24.7-0.1-24.7-0.2c0-0.1,11-0.2,24.7-0.2S350.9,375.7,350.9,375.8z"/>
	<path class="st4" d="M326.3,376.1c-6.6,0-12.8,0-17.5-0.1c-7.4-0.1-7.4-0.1-7.4-0.3c0-0.2,0-0.2,7.4-0.3c4.7,0,10.9-0.1,17.5-0.1
		s12.8,0,17.5,0.1c7.4,0.1,7.4,0.1,7.4,0.3c0,0.2,0,0.2-7.4,0.3C339,376.1,332.9,376.1,326.3,376.1z M307,375.8
		c4.3,0,10.9,0.1,19.2,0.1s15,0,19.2-0.1c-4.3,0-10.9-0.1-19.2-0.1S311.3,375.8,307,375.8z"/>
	<path class="st4" d="M370.3,383.1c0,0.1-11,0.2-24.7,0.2s-24.7-0.1-24.7-0.2c0-0.1,11-0.2,24.7-0.2S370.3,383,370.3,383.1z"/>
	<path class="st4" d="M345.6,383.5c-6.6,0-12.8,0-17.5-0.1c-7.4-0.1-7.4-0.1-7.4-0.3c0-0.2,0-0.2,7.4-0.3c4.7,0,10.9-0.1,17.5-0.1
		s12.8,0,17.5,0.1c7.4,0.1,7.4,0.1,7.4,0.3c0,0.2,0,0.2-7.4,0.3C358.4,383.4,352.2,383.5,345.6,383.5z M326.3,383.1
		c4.3,0,10.9,0.1,19.3,0.1s14.9,0,19.2-0.1c-4.3,0-10.9-0.1-19.2-0.1S330.6,383.1,326.3,383.1L326.3,383.1z"/>
	<path class="st4" d="M430.6,383.1c0,0.1-11,0.2-24.7,0.2s-24.7-0.1-24.7-0.2c0-0.1,11.1-0.2,24.7-0.2S430.6,383,430.6,383.1z"/>
	<path class="st4" d="M405.9,383.5c-6.6,0-12.8,0-17.5-0.1c-7.4-0.1-7.4-0.1-7.4-0.3c0-0.2,0-0.2,7.4-0.3c4.7,0,10.9-0.1,17.5-0.1
		s12.8,0,17.5,0.1c7.4,0.1,7.4,0.1,7.4,0.3c0,0.2,0,0.2-7.4,0.3C418.7,383.4,412.5,383.5,405.9,383.5z M386.7,383.1
		c4.3,0,10.9,0.1,19.2,0.1s15,0,19.2-0.1c-4.3,0-10.9-0.1-19.2-0.1S391,383.1,386.7,383.1L386.7,383.1z"/>
	<path class="st4" d="M409.6,368.5c0,0.1-11.1,0.2-24.7,0.2s-24.7-0.1-24.7-0.2c0-0.1,11-0.2,24.7-0.2S409.6,368.4,409.6,368.5z"/>
	<path class="st4" d="M384.9,368.8c-6.6,0-12.8,0-17.5-0.1c-7.4-0.1-7.4-0.1-7.4-0.3c0-0.2,0-0.2,7.4-0.3c4.7,0,10.9-0.1,17.5-0.1
		s12.8,0,17.5,0.1c7.4,0.1,7.4,0.1,7.4,0.3c0,0.2,0,0.2-7.4,0.3C397.7,368.8,391.5,368.8,384.9,368.8z M365.7,368.5
		c4.3,0,10.9,0.1,19.2,0.1s14.9,0,19.2-0.1c-4.3,0-10.9-0.1-19.2-0.1S370,368.5,365.7,368.5L365.7,368.5z"/>
	<path class="st6" d="M436.9,375.8c0,0.1-17.2,0.2-38.3,0.2s-38.3-0.1-38.3-0.2c0-0.1,17.2-0.2,38.3-0.2S436.9,375.7,436.9,375.8z"
		/>
	<path class="st6" d="M398.6,376.1c-10.3,0-19.9,0-27.1-0.1c-8.4,0-10.6-0.1-11.2-0.1l0,0l0,0c-0.2,0-0.2-0.1-0.2-0.1s0-0.1,0.1-0.1
		l0,0c0.6-0.1,2.8-0.1,11.2-0.2c7.3,0,16.9-0.1,27.1-0.1s19.9,0,27.1,0.1c8.4,0,10.6,0.1,11.2,0.2l0,0c0.2,0,0.2,0.1,0.2,0.1
		c0,0.1,0,0.1-0.2,0.1l0,0l0,0c-0.6,0.1-2.8,0.1-11.2,0.1C418.4,376.1,408.8,376.1,398.6,376.1z M368.6,375.8
		c7.1,0,17.9,0.1,29.9,0.1s22.9,0,29.9-0.1c-7.1,0-17.9-0.1-29.9-0.1S375.7,375.8,368.6,375.8L368.6,375.8z"/>
	<path class="st4" d="M310.9,383.1c0,0.1-4,0.2-9,0.2s-9-0.1-9-0.2c0-0.1,4-0.2,9-0.2S310.9,383,310.9,383.1z"/>
	<path class="st4" d="M302,383.5c-2.4,0-4.6,0-6.3-0.1c-2.7-0.1-2.7-0.1-2.7-0.3s0-0.2,2.7-0.3c1.7,0,3.9-0.1,6.3-0.1s4.6,0,6.3,0.1
		c2.8,0.1,2.8,0.1,2.8,0.3s0,0.2-2.8,0.3C306.6,383.4,304.4,383.5,302,383.5z M295,383.1c1.6,0,4,0.1,7,0.1s5.4,0,7-0.1
		c-1.6,0-4-0.1-7-0.1S296.6,383.1,295,383.1L295,383.1z"/>
	<path class="st11" d="M454.5,383.1c0,0.1-4,0.2-9,0.2s-9-0.1-9-0.2c0-0.1,4-0.2,9-0.2S454.5,383,454.5,383.1z"/>
	<path class="st11" d="M445.5,383.5c-2.4,0-4.6,0-6.3-0.1c-2.8-0.1-2.8-0.1-2.8-0.3s0-0.2,2.8-0.3c1.7,0,3.9-0.1,6.3-0.1
		s4.6,0,6.3,0.1c2.7,0.1,2.7,0.1,2.7,0.3s0,0.2-2.7,0.3C450.1,383.4,447.9,383.5,445.5,383.5z M438.5,383.1c1.6,0,4,0.1,7,0.1
		s5.4,0,7-0.1c-1.6,0-4-0.1-7-0.1S440.1,383.1,438.5,383.1L438.5,383.1z"/>
	<rect x="504.2" y="253" class="st0" width="67.1" height="47.8"/>
	<path class="st2" d="M571.8,260.1c0,0.2-15.1,0.3-33.8,0.3s-33.8-0.1-33.8-0.3s15.2-0.3,33.8-0.3S571.8,259.9,571.8,260.1z"/>
	<path class="st2" d="M509.7,256.6c0.1,0.5-0.3,1-0.8,1c-0.5,0.1-1-0.3-1-0.8c-0.1-0.5,0.3-1,0.8-1c0,0,0.1,0,0.1,0
		C509.2,255.8,509.6,256.2,509.7,256.6z"/>
	<path class="st2" d="M513,256.6c0.1,0.5-0.3,1-0.8,1c-0.5,0.1-1-0.3-1-0.8c-0.1-0.5,0.3-1,0.8-1c0,0,0.1,0,0.1,0
		C512.6,255.8,513,256.2,513,256.6z"/>
	<path class="st2" d="M516.3,256.6c0,0.5-0.4,0.8-0.9,0.8c-0.4,0.1-0.8-0.2-0.9-0.7s0.2-0.8,0.7-0.9c0.1,0,0.2,0,0.3,0
		C515.8,255.8,516.2,256.2,516.3,256.6z"/>
	<path class="st2" d="M529,279.2c0,2.9-2.1,4.6-5.5,4.6h-3.6v4.3h-1.4v-13.5h5C526.9,274.6,529,276.3,529,279.2z M527.6,279.2
		c0-2.2-1.4-3.4-4.1-3.4h-3.6v6.7h3.6C526.2,282.5,527.6,281.3,527.6,279.2z"/>
	<path class="st2" d="M543.3,274.6v13.5h-1.4v-6.2h-8.4v6.2h-1.4v-13.5h1.4v6h8.4v-6H543.3z"/>
	<path class="st2" d="M558.3,279.2c0,2.9-2.1,4.6-5.5,4.6h-3.6v4.3h-1.4v-13.5h5C556.2,274.6,558.3,276.3,558.3,279.2z M556.9,279.2
		c0-2.2-1.4-3.4-4.1-3.4h-3.6v6.7h3.6C555.5,282.5,556.9,281.3,556.9,279.2z"/>
	<rect x="208.6" y="241.1" class="st0" width="41.2" height="29.3"/>
	<path class="st2" d="M222.5,254.8v5.8h-1.4v-2.4h-2.6v2.4h-1.3v-5.8h1.3v2.3h2.6v-2.3H222.5z"/>
	<path class="st2" d="M225.1,255.9h-1.9v-1.1h5.1v1.1h-1.9v4.7h-1.4V255.9z"/>
	<path class="st2" d="M236.4,254.8h1.4v4.7h2.9v1.1h-4.3V254.8z"/>
	<path class="st2" d="M234.3,260.6v-3.5l-1.7,2.9H232l-1.7-2.8v3.4H229v-5.8h1.1l2.2,3.6l2.1-3.6h1.1v5.8H234.3z"/>
	<path class="st2" d="M250.1,245.5c0,0.1-9.3,0.1-20.7,0.1s-20.8-0.1-20.8-0.1c0-0.1,9.3-0.1,20.8-0.1S250.1,245.4,250.1,245.5z"/>
	<path class="st2" d="M212,243.3c0,0.3-0.2,0.6-0.5,0.6c-0.3,0-0.6-0.2-0.6-0.5c0-0.3,0.2-0.6,0.5-0.6c0,0,0,0,0.1,0
		C211.7,242.8,212,243.1,212,243.3z"/>
	<path class="st2" d="M214,243.3c0,0.3-0.2,0.6-0.5,0.6c-0.3,0-0.6-0.2-0.6-0.5c0-0.3,0.2-0.6,0.5-0.6c0,0,0,0,0.1,0
		C213.7,242.8,214,243.1,214,243.3z"/>
	<path class="st2" d="M216,243.3c0,0.3-0.2,0.6-0.5,0.6c-0.3,0-0.6-0.2-0.6-0.5c0-0.3,0.2-0.6,0.5-0.6c0,0,0,0,0.1,0
		C215.7,242.8,216,243.1,216,243.3z"/>
	<path class="st11" d="M120.4,303c-0.1-5,3.9-9.1,8.9-9.2c0.2,0,0.3,0,0.5,0c2.4-0.1,4.7,0.8,6.4,2.5l-0.8,0.8
		c-1.5-1.4-3.5-2.2-5.6-2.1c-4.4,0-8,3.6-8,8s3.6,8,8,8c2.1,0.1,4.1-0.7,5.6-2.2l0.8,0.9c-1.7,1.7-4,2.6-6.4,2.5
		c-5,0.2-9.2-3.7-9.4-8.7C120.4,303.4,120.4,303.2,120.4,303z"/>
	<path class="st11" d="M138.7,309.7l0.6-1c1.6,1.5,3.8,2.3,6,2.3c3.6,0,5.2-1.6,5.2-3.6c0-5.4-11.3-2.2-11.3-8.9
		c0-2.6,2-4.8,6.4-4.8c1.9,0,3.9,0.6,5.5,1.6l-0.5,1.1c-1.5-1-3.2-1.5-5-1.5c-3.5,0-5.1,1.6-5.1,3.6c0,5.4,11.3,2.2,11.3,8.8
		c0,2.6-2,4.8-6.5,4.8C142.9,312.3,140.5,311.4,138.7,309.7z"/>
	<path class="st11" d="M154.5,309.7l0.6-1c1.6,1.5,3.8,2.3,6,2.3c3.6,0,5.2-1.6,5.2-3.6c0-5.4-11.3-2.2-11.3-8.9
		c0-2.6,2-4.8,6.4-4.8c1.9,0,3.9,0.6,5.5,1.6l-0.5,1.1c-1.5-1-3.2-1.5-5-1.5c-3.5,0-5.1,1.6-5.1,3.6c0,5.4,11.3,2.2,11.3,8.8
		c0,2.6-2.1,4.8-6.5,4.8C158.7,312.3,156.3,311.4,154.5,309.7z"/>
	<path class="st11" d="M183.1,326.6c0,0,0-0.3,0-1c0-0.7,0-1.6,0-2.8c0-2.4,0-6-0.1-10.5c0-9.1-0.1-22.1-0.1-38l0.3,0.3l-80.8,0.1
		l0,0l0.3-0.3c0,18.5,0,36.2,0,52.2l-0.3-0.3l58.1,0.1l16.7,0.1h4.4h1.1h0.4h-0.4h-1.1h-4.4l-16.6,0.1l-58.3,0.1H102v-0.3
		c0-16,0-33.6,0-52.2v-0.3h0.3l80.8,0.1h0.3v0.3c-0.1,16-0.1,29-0.1,38.1c0,4.5-0.1,8-0.1,10.4c0,1.2,0,2.1,0,2.7
		S183.1,326.6,183.1,326.6z"/>
	<path class="st11" d="M183.1,282.2c0,0.2-18.1,0.3-40.4,0.3s-40.4-0.1-40.4-0.3s18.1-0.3,40.4-0.3S183.1,282,183.1,282.2z"/>
	<path class="st11" d="M108.3,278.4c0,0.5-0.5,0.9-1,0.9c0,0,0,0,0,0c-0.5-0.1-0.8-0.5-0.7-1c0.1-0.5,0.5-0.8,1-0.7
		C108,277.6,108.3,277.9,108.3,278.4z"/>
	<path class="st11" d="M111.9,278.4c0,0.5-0.5,0.9-1,0.9c-0.5,0.1-0.9-0.3-1-0.8c-0.1-0.5,0.3-0.9,0.8-1c0.1,0,0.1,0,0.2,0
		C111.4,277.4,111.9,277.8,111.9,278.4z"/>
	<path class="st11" d="M115.5,278.4c0.1,0.5-0.3,1-0.9,1.1c-0.5,0.1-1-0.3-1.1-0.9s0.3-1,0.9-1.1c0,0,0.1,0,0.1,0
		C115,277.4,115.4,277.8,115.5,278.4C115.5,278.3,115.5,278.3,115.5,278.4z"/>
</g>
</svg>
