<?xml version="1.0" encoding="utf-8"?>
<!-- Generator: Adobe Illustrator 25.0.0, SVG Export Plug-In . SVG Version: 6.00 Build 0)  -->
<svg version="1.1" id="Layer_1" xmlns="http://www.w3.org/2000/svg" xmlns:xlink="http://www.w3.org/1999/xlink" x="0px" y="0px"
	 viewBox="0 0 376.1 376.1" style="enable-background:new 0 0 376.1 376.1;" xml:space="preserve">
<style type="text/css">
	.st0{fill:none;}
	.st1{fill:#E0E0E0;}
	.st2{fill:#F5F5F5;}
	.st3{fill:#EBEBEB;}
	.st4{fill:#FAFAFA;}
	.st5{fill:#263238;}
	.st6{fill:#FFFFFF;}
	.st7{fill:#FF6262;}
	.st8{opacity:0.3;}
	.st9{fill:#455A64;}
	.st10{opacity:0.2;}
	.st11{opacity:0.8;fill:#006EDB;enable-background:new    ;}
	.st12{fill-rule:evenodd;clip-rule:evenodd;fill:#FF6262;}
	.st13{opacity:0.5;fill-rule:evenodd;clip-rule:evenodd;fill:#FFFFFF;enable-background:new    ;}
	.st14{opacity:0.8;fill:#FFFFFF;enable-background:new    ;}
	.st15{opacity:0.6;}
	.st16{fill:#5538A4;}
	.st17{fill:#006EDB;}
	.st18{opacity:0.6;fill:#006EDB;enable-background:new    ;}
</style>
<g id="Artificial_intelligence-pana" transform="translate(-33.73 -31.17)">
	<g id="freepik--background-complete--inject-16" transform="translate(57.251 126.583)">
		<path id="Path_534" class="st0" d="M261.3,35.5c0.8-1.1,1.8-2.2,3-3l-0.7-3.9l6-2.6l2.3,3.2c1.4-0.2,2.8-0.2,4.2-0.1l2.2-3.2
			l6,2.4l-0.6,3.9c1.1,0.8,2.2,1.8,3,3l3.9-0.7l2.6,6l-3.2,2.3c0.2,1.4,0.2,2.8,0.1,4.2l3.2,2.2l-2.4,6l-3.9-0.6
			c-0.8,1.1-1.8,2.2-3,3l0.7,3.9l-6,2.6l-2.3-3.2c-1.4,0.2-2.8,0.2-4.2,0.1l-2.2,3.2l-6-2.4l0.6-3.9c-1.1-0.8-2.2-1.8-3-3l-3.9,0.7
			l-2.6-6l3.2-2.3c-0.2-1.4-0.2-2.8-0.1-4.2l-3.2-2.2l2.4-6L261.3,35.5L261.3,35.5z M267.8,42.2c-1.4,3.6,0.3,7.6,3.9,9.1
			s7.6-0.3,9.1-3.9c1.4-3.6-0.3-7.6-3.9-9.1c-1.7-0.7-3.6-0.7-5.3,0.1C269.8,39.1,268.5,40.5,267.8,42.2L267.8,42.2z"/>
		<path id="Path_535" class="st1" d="M267.8,42.2c0-0.1,0.1-0.3,0.1-0.4c0.2-0.4,0.4-0.8,0.6-1.1c0.9-1.3,2.3-2.3,3.8-2.7
			c1.1-0.3,2.2-0.4,3.3-0.2c1.3,0.2,2.4,0.8,3.4,1.7c3,2.6,3.2,7.2,0.6,10.2c-1.4,1.6-3.5,2.5-5.6,2.4c-1.3-0.1-2.5-0.4-3.6-1.1
			c-0.9-0.6-1.7-1.4-2.3-2.4c-0.8-1.4-1.1-3-0.9-4.6c0.1-0.4,0.2-0.8,0.3-1.2C267.6,42.5,267.7,42.3,267.8,42.2
			c-0.2,0.6-0.3,1.1-0.4,1.7c-0.2,1.5,0.2,3.1,1,4.4c1.2,2,3.3,3.2,5.6,3.3c1.3,0,2.7-0.3,3.8-1c3.2-2,4.1-6.2,2.1-9.3
			c-0.3-0.5-0.7-1-1.2-1.4c-0.9-0.8-2-1.4-3.2-1.6c-1-0.2-2.1-0.2-3.1,0.1c-1.5,0.4-2.8,1.3-3.8,2.5C268.3,41.2,268,41.7,267.8,42.2
			z"/>
		<path id="Path_536" class="st1" d="M261.3,35.5H261l-0.7-0.1l-2.9-0.4l0.1,0l-2.4,6l0-0.1c1,0.7,2.1,1.4,3.3,2.2l0.1,0v0.1
			c-0.2,1.4-0.1,2.8,0.1,4.2v0.1l-0.1,0.1l-3.2,2.3l0.1-0.2c0.8,1.9,1.7,3.9,2.6,6l-0.2-0.1l3.9-0.7h0.1l0.1,0.1
			c0.9,1.1,1.9,2.1,3,2.9l0.1,0.1V58c-0.2,1.2-0.4,2.5-0.6,3.9l-0.1-0.2l6,2.4l-0.2,0.1c0.7-1,1.4-2.1,2.2-3.2l0.1-0.1h0.1
			c1.4,0.2,2.8,0.1,4.2-0.1h0.1l0.1,0.1L279,64l-0.3-0.1l6-2.6l-0.1,0.2c-0.2-1.2-0.5-2.5-0.7-3.9v-0.1l0.1-0.1
			c1.1-0.9,2.1-1.9,2.9-3l0,0l0.2-0.1h0.2l0.2,0l0.5,0.1l1,0.1L291,55l-0.2,0.1c0.8-2,1.6-4.1,2.4-6l0.1,0.3l-3.2-2.2l-0.1-0.1v-0.1
			c0.2-1.4,0.1-2.8-0.1-4.2v-0.1l0.1-0.1l3.2-2.3l-0.1,0.3l-2.6-6l0.2,0.1l-3.9,0.7h-0.1l-0.1-0.1c-0.9-1.1-1.9-2.1-3-2.9l-0.1-0.1
			v-0.1c0.2-1.3,0.4-2.6,0.6-3.9l0.1,0.2l-6-2.4l0.2-0.1c-0.8,1.1-1.5,2.2-2.2,3.2l-0.1,0.1H276c-1.4-0.2-2.8-0.2-4.2,0h-0.1
			l-0.1-0.1c-0.9-1.2-1.6-2.2-2.3-3.2l0.2,0l-6,2.6l0.1-0.1l0.7,3.9v0l0,0c-0.9,0.7-1.6,1.4-2.3,2.2l-0.5,0.6
			C261.4,35.4,261.3,35.4,261.3,35.5l0.1-0.2c0.1-0.1,0.3-0.4,0.5-0.6c0.7-0.8,1.4-1.6,2.3-2.3v0.1c-0.2-1.1-0.4-2.3-0.8-3.9v-0.1
			h0.1l6-2.6l0.1,0l0.1,0.1l2.3,3.2l-0.1-0.1c1.4-0.2,2.9-0.3,4.3-0.1l-0.2,0.1l2.2-3.3l0.1-0.1l0.1,0.1l6,2.4l0.1,0.1v0.1
			c-0.2,1.3-0.4,2.6-0.6,3.9l-0.1-0.2c1.2,0.9,2.2,1.9,3.1,3l-0.2-0.1l3.9-0.7h0.2l0.1,0.2l2.6,6l0.1,0.2l-0.1,0.1l-3.2,2.3l0.1-0.2
			c0.2,1.4,0.2,2.9,0.1,4.3l-0.1-0.2l3.2,2.2l0.1,0.1l-0.1,0.2c-0.8,2-1.6,4-2.4,6l-0.1,0.2H291l-1.9-0.3l-1-0.2l-0.5-0.1h-0.5
			c0.1,0-0.2,0.1,0.2-0.1l0,0c-0.9,1.2-1.9,2.2-3,3.1l0.1-0.2c0.2,1.3,0.5,2.6,0.7,3.9v0.2l-0.2,0.1l-6,2.6l-0.2,0.1l-0.1-0.1
			l-2.3-3.2l0.2,0.1c-1.4,0.2-2.9,0.2-4.3,0.1l0.2-0.1l-2.2,3.2l-0.1,0.1l-0.2-0.1l-6-2.4l-0.1-0.1V62c0.2-1.4,0.4-2.7,0.6-3.9
			l0.1,0.2c-1.2-0.9-2.2-1.9-3.1-3l0.2,0.1l-3.9,0.7h-0.1l-0.1-0.1l-2.6-6l-0.1-0.1l0.1-0.1l3.2-2.3l-0.1,0.1
			c-0.2-1.4-0.2-2.9,0-4.3l0.1,0.1l-3.2-2.2l-0.1-0.1V41l2.4-6v-0.1h0.1l2.9,0.5l0.7,0.1L261.3,35.5z"/>
		<path id="Path_537" class="st1" d="M267.8,42.2c0.1-0.3,0.2-0.5,0.4-0.8c1.9-3.3,6.1-4.5,9.4-2.6c3.3,1.9,4.5,6.1,2.6,9.4
			c-1.9,3.3-6.1,4.5-9.4,2.6c-0.3-0.2-0.7-0.4-1-0.7c-1.7-1.4-2.7-3.6-2.6-5.9c0-0.4,0.1-0.8,0.1-1.1c0-0.2,0.1-0.4,0.1-0.6l0.1-0.3
			v-0.2l0,0c0,0.1,0.1,0.2,0.1,0.2l0.3-0.1c-0.1,0.3-0.2,0.6-0.3,0.9c-0.4,1.4-0.3,2.9,0.3,4.3c1.4,3.5,5.5,5.2,9,3.8
			c1.6-0.6,2.9-1.9,3.6-3.4c1.7-3.5,0.3-7.6-3.2-9.3c-2.5-1.2-5.5-0.9-7.6,1c-0.6,0.5-1.2,1.2-1.6,2c-0.1,0.2-0.2,0.4-0.3,0.6
			S267.7,42.2,267.8,42.2c-0.1-0.1,0-0.1,0-0.2c0.1-0.2,0.1-0.4,0.2-0.6c0.4-0.8,0.9-1.5,1.6-2c2.5-2.2,6.1-2.4,8.9-0.5
			c1.9,1.3,3,3.4,3.1,5.6c0.1,1.2-0.2,2.5-0.7,3.6c-1.8,3.7-6.2,5.2-9.8,3.4c-1.6-0.8-2.9-2.2-3.6-3.8c-0.6-1.4-0.7-3-0.3-4.5
			c0.1-0.3,0.2-0.7,0.4-1l0.1-0.2l0.2,0.1c0.2,0.1,0.2,0.3,0.2,0.2v0.3l-0.1,0.3c0,0.2-0.1,0.4-0.1,0.5c-0.1,0.4-0.1,0.7-0.1,1.1
			c0,0.7,0.1,1.4,0.2,2.1c1,3.5,4.6,5.6,8.1,4.6c3.5-1,5.6-4.6,4.6-8.1c-0.4-1.4-1.2-2.7-2.4-3.6c-1.4-1-3.1-1.5-4.8-1.3
			c-1.3,0.2-2.5,0.7-3.5,1.5c-0.6,0.5-1.2,1.1-1.6,1.8C267.9,41.9,267.8,42.2,267.8,42.2z"/>
		<path id="Path_538" class="st1" d="M261.3,35.5l-3.9-0.6h0.1c-0.6,1.6-1.4,3.6-2.5,6.2v-0.1l3.3,2.3l-0.1,0.1l-0.1-0.1h0.2
			c-0.2,1.4-0.1,2.8,0.1,4.3h-0.2l0.1-0.1l0.2,0.1l-3.3,2.4v-0.1l2.7,6.2l-0.1-0.1l4-0.7v0.3l-0.2-0.1l0.2-0.2c0.9,1.1,1.9,2.1,3,3
			l-0.2,0.2l-0.1-0.2h0.3c-0.2,1.2-0.4,2.6-0.6,4l-0.1-0.2l6.3,2.5l-0.2,0.1l2.3-3.4l0.2,0.2l-0.2,0.1l0-0.3
			c1.4,0.2,2.8,0.1,4.2-0.1l0,0.3l-0.2-0.1l0.2-0.3l2.4,3.3l-0.2-0.1l6.3-2.7l-0.1,0.2c-0.2-1.2-0.5-2.6-0.8-4h0.4l-0.1,0.2
			l-0.3-0.2c1.1-0.9,2.1-1.9,3-3.1l0.2,0.3l-0.2,0.1l0-0.4l4,0.6l-0.2,0.1c0.8-2,1.6-4.1,2.5-6.3l0.1,0.2l-3.4-2.3l0.3-0.2l0.1,0.2
			l-0.4,0.1c0.2-1.4,0.1-2.8-0.1-4.2l0.4,0.1l-0.1,0.2l-0.3-0.2l3.3-2.4l-0.1,0.2c-0.9-1.9-1.7-4.1-2.7-6.2l0.2,0.1l-4,0.8l0-0.4
			l0.2,0.1l-0.2,0.3c-0.9-1.1-1.9-2.1-3-2.9L284,32l0.1,0.2l-0.4,0.1c0.2-1.3,0.4-2.6,0.6-4l0.1,0.2l-6.3-2.5l0.3-0.1
			c-0.7,1-1.5,2.2-2.3,3.3l-0.3-0.3l0.1-0.1l0.1,0.4c-1.4-0.2-2.8-0.1-4.2,0.1l0.1-0.4L272,29l-0.3,0.3l-2.4-3.3l0.3,0.1l-6.1,2.7
			l0.1-0.2c0.2,1.2,0.5,2.6,0.8,3.9H264v-0.1l0.4,0.2c-1,0.8-1.8,1.6-2.6,2.6l-0.2,0.2h-0.1c0.1,0-0.2-0.2-0.3-0.1h0l0.4-0.5
			c0.3-0.3,0.5-0.6,0.8-0.9c0.6-0.6,1.2-1.1,1.8-1.6l-0.1,0.2c-0.2-1.3-0.5-2.6-0.7-3.9l0.4,0.1l-0.1,0.1l-0.3-0.3l6-2.5v0.4h-0.1
			l0.2-0.3c0.8,1.1,1.6,2.2,2.4,3.3l-0.2-0.1c1.5-0.2,3-0.2,4.4,0l-0.2,0.1l2.3-3.3l0.2,0.3l-0.2,0.1v-0.4l6,2.4l-0.3,0.3l-0.1-0.2
			l0.4-0.1c-0.2,1.3-0.4,2.7-0.6,4l-0.1-0.2c1.2,0.9,2.3,1.9,3.2,3.1l-0.2-0.1l4-0.7l-0.1,0.4l-0.2-0.1l0.3-0.3l2.6,6h-0.4l0.1-0.2
			l0.3,0.2l-3.3,2.4l0.1-0.2c0.2,1.5,0.2,3,0.1,4.5l-0.1-0.2l3.3,2.3l-0.3,0.2l-0.1-0.2h0.4c-0.8,2.1-1.6,4.1-2.4,6l-0.3-0.2
			l0.2-0.1l0.1,0.4l-4-0.6l0.2-0.1c-0.9,1.2-1.9,2.3-3.1,3.2l0.1-0.2l0.7,4l-0.3-0.1l0.1-0.2l0.2,0.3l-6,2.6v-0.3l0.2,0.1l-0.2,0.3
			l-2.4-3.3l0.2,0.1c-1.5,0.2-3,0.3-4.5,0.1l0.2-0.1l-2.3,3.2l-0.2-0.2l0.2-0.1v0.3l-6-2.4l0.2-0.2l0.1,0.2l-0.3,0.1
			c0.2-1.5,0.4-2.7,0.6-4l0.1,0.1c-1.2-0.9-2.3-1.9-3.2-3.1l0.1,0.1l-4,0.7l0-0.2l0.2,0.1l-0.2,0.2l-2.6-6h0.2l0,0.2l-0.2-0.1
			l3.2-2.4l0,0.1c-0.2-1.5-0.2-2.9-0.1-4.4v0.1l-3.3-2.3l0.1-0.1l0,0.1H255l2.4-6l0.1,0.1h-0.1v-0.1L261.3,35.5c-0.4,0-0.7,0-1-0.1
			l-2.9-0.4h-0.1l0.1-0.1l0.1,0l0.1-0.1l-0.1,0.1c-0.6,1.5-1.3,3.4-2.3,6l-0.1,0.2L255,41v-0.1l-0.1-0.2l0.2,0.1l3.3,2.2h0.1V43
			c-0.2,1.4-0.1,2.9,0.1,4.3v0.1h-0.1l-3.2,2.4L255,50l0.1-0.3l0.1-0.2l0.1-0.3l0.1,0.3c0.8,1.8,1.6,3.7,2.6,6l0.2,0.3l-0.3-0.2
			l-0.2-0.1l-0.3-0.2l0.4-0.1l4-0.8h0.1l0.1,0.1c0.9,1.2,1.9,2.2,3.1,3l0.1,0.1v0.1l-0.6,4l-0.1,0.4l-0.2-0.4l-0.1-0.2l-0.2-0.4
			l0.4,0.2l6,2.4l0.4,0.2l-0.4,0.1l-0.2,0.1l-0.4,0.1l0.3-0.4l2.3-3.3l0.1-0.1h0.1c1.5,0.2,2.9,0.1,4.4-0.1h0.1l0.1,0.1l2.4,3.3
			l0.3,0.4l-0.5-0.1l-0.2-0.1l-0.5-0.1l0.5-0.2l6-2.6l0.5-0.2l-0.2,0.5l-0.1,0.2l-0.2,0.5l-0.1-0.5l-0.7-4v-0.1l0.1-0.1
			c1.2-0.9,2.2-2,3.1-3.1l0.1-0.1h0.1l4,0.6l0.6,0.1l-0.5,0.3l-0.2,0.1l-0.5,0.3l0.2-0.5c0.8-2,1.6-4,2.4-6l0.2-0.5l0.2,0.6l0.1,0.2
			l0.2,0.6l-0.5-0.3l-3.3-2.3l-0.1-0.1v-0.1c0.2-1.5,0.2-2.9-0.1-4.4v-0.1l0.1-0.1l3.3-2.4l0.5-0.3l-0.2,0.6c0,0.1,0,0.2-0.1,0.2
			l-0.2,0.6l-0.2-0.6c-0.9-2-1.7-4-2.6-6l-0.2-0.6l0.5,0.3l0.2,0.1l0.5,0.3l-0.6,0.1l-4,0.7h-0.1l-0.1-0.1c-0.9-1.2-1.9-2.2-3.1-3
			l-0.1-0.1v-0.1c0.2-1.3,0.4-2.6,0.6-4l0.1-0.6l0.3,0.5l0.1,0.2l0.3,0.5l-0.6-0.2l-6-2.4l-0.6-0.2l0.6-0.2l0.2-0.1l0.6-0.2
			l-0.4,0.5l-2.3,3.3l-0.1,0.1H276c-1.4-0.2-2.9-0.2-4.3,0h-0.1l-0.1-0.1c-0.8-1.1-1.6-2.2-2.4-3.3l-0.4-0.5l0.6,0.2h0.1l0.6,0.2
			l-0.6,0.2l-6,2.6l-0.6,0.2l0.3-0.6l0.1-0.1l0.3-0.6l0.1,0.6c0.2,1.3,0.5,2.6,0.7,3.9v0.1l-0.1,0.1c-0.6,0.5-1.2,1-1.8,1.6
			c-0.3,0.3-0.5,0.6-0.8,0.9l-0.4,0.5v0L261.3,35.5c0,0-0.3-0.2-0.2-0.2l0,0c0,0,0-0.1,0-0.1c0-0.1,0.1-0.2,0.1-0.2l0.2-0.2
			c0.7-1,1.6-1.9,2.6-2.7l0.6-0.5l-0.3,0.8v0.1l-0.3,0.8l-0.2-0.8c-0.3-1.3-0.5-2.7-0.8-3.9v-0.2l0.2-0.1l6.1-2.7l0.2-0.1l0.1,0.1
			l2.4,3.2l0.5,0.6l-0.7-0.3l-0.1-0.1l-0.7-0.3l0.8-0.1c1.4-0.2,2.9-0.2,4.3-0.1l0.8,0.1l-0.7,0.3L276,29l-0.7,0.3l0.4-0.7l2.3-3.3
			l0.1-0.1l0.2,0.1l6.3,2.5l0.2,0.1V28c-0.2,1.4-0.4,2.8-0.6,4l-0.1,0.8l-0.3-0.7l-0.1-0.2l-0.3-0.7l0.6,0.5c1.2,0.9,2.2,1.9,3.1,3
			l0.5,0.6l-0.7-0.3l-0.2-0.1l-0.7-0.3l0.8-0.1l4-0.8h0.2l0.1,0.2l2.7,6.3l0.1,0.2l-0.1,0.1l-3.3,2.4l-0.6,0.4l0.3-0.7l0.1-0.2
			l0.3-0.7l0.1,0.7c0.2,1.4,0.2,2.9,0.1,4.3l-0.1,0.7l-0.3-0.7l-0.1-0.2l-0.3-0.7l0.6,0.4l3.4,2.3l0.1,0.1l-0.1,0.1l-2.5,6.3
			l-0.1,0.1H291l-4-0.6l-0.7-0.1l0.6-0.3l0.2-0.1l0.6-0.3l-0.4,0.6c-0.9,1.2-1.9,2.2-3,3.1l-0.5,0.4l0.2-0.6l0.1-0.2l0.2-0.6
			l0.1,0.7c0.3,1.4,0.5,2.8,0.7,4v0.1l-0.1,0.1l-6.3,2.7l-0.1,0.1l-0.1-0.1l-2.4-3.3l-0.4-0.5l0.6,0.2l0.2,0.1l0.6,0.2l-0.6,0.1
			c-1.4,0.2-2.9,0.2-4.3,0.1l-0.6-0.1l0.5-0.2l0.2-0.1l0.6-0.2l-0.3,0.5c-0.8,1.2-1.6,2.3-2.3,3.4l-0.1,0.1l-0.1-0.1l-6.3-2.5
			l-0.1,0v-0.1c0.2-1.4,0.4-2.8,0.6-4l0.1-0.5l0.2,0.5l0.1,0.2l0.2,0.5l-0.4-0.3c-1.2-0.9-2.2-1.9-3.1-3l-0.3-0.4l0.5,0.2l0.2,0.1
			L262,55l-0.5,0.1l-4,0.7h-0.1l0-0.1c-0.9-2.2-1.8-4.3-2.6-6.2l0-0.1l0.1-0.1l3.3-2.4l0.3-0.2l-0.1,0.4l-0.1,0.1l-0.1,0.4l-0.1-0.4
			c-0.2-1.4-0.2-2.9,0-4.3l0-0.3l0.1,0.3l0.1,0.1l0.1,0.3l-0.3-0.2l-3.3-2.3l-0.1,0v-0.1l2.5-6.1l0,0l2.9,0.5l0.7,0.1L261.3,35.5z"
			/>
		<path id="Path_539" class="st1" d="M59.3,62.8c0.3-0.5,0.6-1,1-1.5l-0.6-1.6l2.3-1.5l1.2,1.2c0.6-0.2,1.1-0.3,1.7-0.3l0.7-1.5
			l2.7,0.6v1.7c0.5,0.3,1,0.6,1.5,1l1.6-0.6l1.5,2.3l-1.2,1.2c0.2,0.6,0.3,1.2,0.3,1.8l1.5,0.7L73,68.9h-1.7c-0.3,0.5-0.6,1-1,1.5
			l0.6,1.6l-2.3,1.5l-1.2-1.2c-0.6,0.2-1.1,0.3-1.7,0.3L65,74.2l-2.7-0.6v-1.7c-0.5-0.3-1-0.6-1.5-1l-1.6,0.6l-1.5-2.3l1.2-1.2
			c-0.2-0.6-0.3-1.2-0.3-1.8L57,65.5l0.6-2.7L59.3,62.8L59.3,62.8z M62.5,65.1c-0.3,1.6,0.7,3.2,2.3,3.5s3.2-0.7,3.5-2.3
			c0.3-1.6-0.7-3.2-2.3-3.5c0,0,0,0,0,0C64.4,62.5,62.8,63.5,62.5,65.1z"/>
		<path id="Path_540" class="st1" d="M62.5,65.1c0-0.2,0.1-0.5,0.2-0.7c0.3-0.6,0.8-1.1,1.4-1.4c0.4-0.2,0.9-0.3,1.4-0.3
			c0.5,0,1.1,0.2,1.5,0.5c0.2,0.2,0.5,0.3,0.7,0.6c0.2,0.2,0.4,0.5,0.5,0.8c0.3,0.6,0.3,1.2,0.2,1.9c-0.1,0.6-0.5,1.2-1,1.6
			c-0.2,0.2-0.5,0.4-0.8,0.5c-0.3,0.1-0.6,0.2-0.9,0.2c-0.5,0.1-1.1,0-1.6-0.2c-0.4-0.2-0.8-0.5-1.1-0.9c-0.4-0.5-0.7-1.2-0.7-1.8
			C62.3,65.6,62.4,65.3,62.5,65.1l0,0.7c0,0.7,0.3,1.3,0.7,1.8c0.3,0.3,0.7,0.6,1.1,0.8c0.5,0.2,1,0.3,1.5,0.2
			c0.3,0,0.5-0.1,0.8-0.2c0.3-0.1,0.5-0.3,0.7-0.5c0.9-0.8,1.2-2.2,0.7-3.3c-0.1-0.3-0.3-0.5-0.5-0.7c-0.2-0.2-0.4-0.4-0.6-0.5
			c-0.4-0.3-0.9-0.4-1.5-0.4c-1.1,0-2.2,0.6-2.7,1.6C62.5,64.9,62.5,65.1,62.5,65.1z"/>
		<path id="Path_541" class="st1" d="M59.3,62.8h-1.7c-0.1,0.7-0.3,1.6-0.6,2.7l0,0l1.5,0.7l0,0c0,0.6,0.2,1.2,0.3,1.7l0,0l-1.1,1.3
			v-0.1c0.5,0.7,1,1.5,1.5,2.3h-0.1l1.6-0.6l0,0c0.4,0.4,0.9,0.7,1.5,1l0,0v1.7l-0.1-0.1l2.7,0.6l-0.1,0l0.7-1.5v0h0.1
			c0.6,0,1.2-0.1,1.7-0.3h0.1l1.2,1.2h-0.1l2.3-1.5V72l-0.6-1.6v-0.1l0,0c0.4-0.4,0.7-0.9,1-1.5l0,0v-0.1h1.7l-0.1,0.1
			c0.2-0.9,0.4-1.8,0.6-2.7l0.1,0.1l-1.5-0.7h-0.1v-0.1c0-0.6-0.1-1.2-0.3-1.7v-0.1l0,0c0.4-0.4,0.8-0.8,1.2-1.2v0.1
			c-0.5-0.8-1-1.6-1.5-2.3h0.1L69.7,61h0c-0.4-0.4-0.9-0.7-1.5-1h0v-1.7l0.1,0.1l-2.7-0.6l0.1,0l-0.7,1.5l0,0
			c-0.6,0-1.2,0.1-1.7,0.3l0,0c-0.4-0.4-0.8-0.8-1.2-1.2h0.1l-2.3,1.5v-0.2l0.6,1.6l0,0c-0.3,0.3-0.6,0.7-0.8,1.1l-0.2,0.3
			L59.3,62.8c0.1-0.1,0.1-0.1,0.1-0.2l0.2-0.3c0.2-0.4,0.5-0.8,0.8-1.1l0,0c-0.2-0.4-0.4-0.9-0.6-1.6l0,0c0.6-0.4,1.4-0.9,2.3-1.5
			l0,0l1.2,1.2h-0.1c0.6-0.2,1.2-0.3,1.8-0.3h-0.1c0.2-0.5,0.5-1,0.7-1.5v0h0.1l2.7,0.6h0.1v1.7c0.5,0.3,1,0.6,1.5,1h-0.1l1.6-0.6
			h0.1v0.1c0.5,0.8,1,1.5,1.5,2.3l0,0.1h-0.1l-1.2,1.2v-0.1c0.2,0.6,0.3,1.2,0.3,1.8l0-0.1l1.5,0.7h0.1v0.1
			c-0.2,0.9-0.4,1.8-0.6,2.7v0.1h-1.7l0.1,0l0,0c-0.3,0.5-0.6,1-1,1.5v-0.1c0.2,0.5,0.4,1.1,0.6,1.6v0.1h-0.1l-2.2,1.6l-0.1,0l0-0.1
			l-1.2-1.2h0.1c-0.6,0.2-1.2,0.3-1.8,0.3l0.1,0L65,74.1v0.1H65l-2.7-0.6h-0.1v-1.7c-0.5-0.3-1-0.6-1.5-1h0.1l-1.6,0.6h-0.1
			l-1.5-2.3v0l0,0l1.2-1.2V68c-0.2-0.6-0.3-1.2-0.3-1.8v0L57,65.6l0,0c0.2-1.1,0.4-2,0.6-2.7h1.7L59.3,62.8z"/>
		<path id="Path_542" class="st1" d="M305.7,42.6c0.4-0.5,0.8-0.9,1.3-1.3l-0.3-1.6l2.5-1.1l1,1.3c0.6-0.1,1.2-0.1,1.8,0l0.9-1.4
			l2.6,1l-0.3,1.6c0.5,0.4,0.9,0.8,1.3,1.3l1.6-0.3l1.1,2.5l-1.3,1c0.1,0.6,0.1,1.2,0,1.8l1.4,0.9l-1,2.6l-1.6-0.3
			c-0.4,0.5-0.8,0.9-1.3,1.3l0.3,1.6l-2.5,1l-1-1.3c-0.6,0.1-1.2,0.1-1.8,0l-0.9,1.4l-2.6-1l0.3-1.6c-0.5-0.4-0.9-0.8-1.3-1.3
			l-1.6,0.3l-1.1-2.5l1.3-1c-0.1-0.6-0.1-1.2,0-1.8l-1.4-0.9l1-2.6L305.7,42.6L305.7,42.6z M308.4,45.5c-0.6,1.5,0.1,3.2,1.7,3.8
			s3.2-0.1,3.8-1.7s-0.1-3.2-1.7-3.8c-0.7-0.3-1.5-0.3-2.3,0C309.3,44.2,308.7,44.7,308.4,45.5L308.4,45.5z"/>
		<path id="Path_543" class="st1" d="M308.4,45.5c0.1-0.2,0.2-0.5,0.3-0.7c0.4-0.6,0.9-1,1.6-1.2c1.3-0.4,2.7,0.2,3.4,1.3
			c0.2,0.3,0.3,0.6,0.4,0.9c0.2,0.6,0.1,1.3-0.1,1.9c-0.2,0.6-0.7,1.1-1.2,1.4c-0.5,0.3-1.1,0.5-1.7,0.5c-1.7-0.1-3-1.4-2.9-3.1
			c0-0.1,0-0.2,0-0.3C308.2,45.9,308.3,45.7,308.4,45.5c-0.1,0.3-0.1,0.5-0.2,0.7c-0.1,0.7,0.1,1.3,0.4,1.9c0.2,0.4,0.6,0.7,0.9,0.9
			c0.4,0.3,0.9,0.4,1.5,0.4c1.2,0,2.3-0.7,2.8-1.8c0.4-1.1,0.1-2.4-0.8-3.2c-1.2-1.1-3-1-4.1,0.2c-0.1,0.1-0.1,0.1-0.2,0.2
			C308.6,45.1,308.5,45.3,308.4,45.5z"/>
		<path id="Path_544" class="st1" d="M305.7,42.6h-0.1l-0.3,0l-1.2-0.2l0,0c-0.2,0.7-0.6,1.5-1,2.6v-0.1l1.4,0.9l0,0
			c-0.1,0.6-0.1,1.2,0,1.8l0,0l-1.3,1v-0.1l1.1,2.5h-0.1l1.6-0.3h0c0.4,0.5,0.8,0.9,1.3,1.2l0,0v0c-0.1,0.5-0.2,1.1-0.3,1.6l0-0.1
			l2.6,1h-0.1l0.9-1.4h0.1c0.6,0.1,1.2,0.1,1.8,0h0.1l1,1.3h-0.1l2.5-1.1l-0.1,0.1c-0.1-0.5-0.2-1.1-0.3-1.6v-0.1h0
			c0.5-0.4,0.9-0.8,1.2-1.3h0.2l1.6,0.3l-0.1,0.1l1-2.6v0.1l-1.4-0.9h0c0.1-0.6,0.1-1.2,0-1.8v0h0l1.3-1v0.1l-1.1-2.5l0.1,0
			l-1.6,0.3h0c-0.4-0.5-0.8-0.9-1.3-1.2l0,0c0.1-0.6,0.2-1.1,0.3-1.6v0.1l-2.6-1h0.1l-0.9,1.4l0,0c-0.6-0.1-1.2-0.1-1.8,0l0,0
			l-1-1.3h0.1l-2.5,1.1v0c0.1,0.7,0.2,1.2,0.3,1.6l0,0c-0.4,0.3-0.7,0.6-1,0.9l-0.2,0.2l-0.1,0.1l0.1-0.1l0.2-0.3
			c0.3-0.3,0.6-0.7,1-0.9l0,0c-0.1-0.4-0.2-1-0.3-1.6l0,0l2.5-1.1l0,0l1,1.3h-0.1c0.6-0.1,1.2-0.1,1.8,0h-0.1
			c0.3-0.4,0.6-0.9,0.9-1.4v0h0.1l2.6,1h0.1v0.1l-0.2,1.6v-0.1c0.5,0.3,0.9,0.7,1.3,1.1h-0.1l1.6-0.3h0.1v0.1l1.1,2.5v0.1h-0.1
			l-1.3,1v-0.1c0.1,0.6,0.1,1.2,0,1.8v-0.1l1.4,0.9h0.1v0.1l-1,2.6v0.1h-0.1l-1.6-0.3h0.1c-0.4,0.5-0.8,0.9-1.3,1.3V52l0.3,1.6h-0.1
			l-2.5,1.2H313l0-0.1l-1-1.4h0.1c-0.6,0.1-1.2,0.1-1.8,0h0.1l-0.9,1.4v0.1h-0.1l-2.6-1h-0.1v-0.1c0.1-0.6,0.2-1.1,0.3-1.6v0.1
			c-0.5-0.4-0.9-0.8-1.3-1.3h0.1l-1.6,0.3H304v0l-1.1-2.5v0l0,0l1.4-1v0.1c-0.1-0.6-0.1-1.2,0-1.8v0l-1.4-0.9l0,0
			c0.4-1,0.8-1.9,1-2.6l0,0l1.2,0.2l0.3,0.1H305.7z"/>
		<path id="Path_545" class="st2" d="M293.3,6.9c0.6-0.8,1.3-1.5,2.1-2.1l-0.5-2.7l4.2-1.8l1.6,2.2c1-0.1,2-0.1,3,0l1.5-2.3l4.3,1.7
			l-0.4,2.7c0.8,0.6,1.5,1.3,2.1,2.1l2.7-0.5l1.8,4.2l-2.2,1.6c0.1,1,0.1,2,0,3l2.3,1.6l-1.7,4.3l-2.7-0.4c-0.6,0.8-1.3,1.5-2.1,2.1
			l0.5,2.7l-4.2,1.8L304,25c-1,0.1-2,0.1-3,0l-1.6,2.3l-4.3-1.7l0.4-2.7c-0.8-0.6-1.5-1.3-2.1-2.1l-2.7,0.5l-1.8-4.2l2.3-1.6
			c-0.1-1-0.1-2,0-3l-2.3-1.6l1.7-4.3L293.3,6.9L293.3,6.9z M297.9,11.7c-1,2.5,0.2,5.4,2.8,6.4c2.5,1,5.4-0.2,6.4-2.8
			s-0.2-5.4-2.8-6.4c-1.2-0.5-2.6-0.5-3.8,0.1C299.4,9.5,298.4,10.5,297.9,11.7z"/>
		<path id="Path_546" class="st2" d="M297.9,11.7c0.1-0.4,0.3-0.8,0.5-1.1c1.6-2.3,4.7-2.8,7-1.2c0.2,0.1,0.3,0.2,0.4,0.4
			c0.4,0.3,0.7,0.7,0.9,1.1c0.3,0.4,0.5,0.9,0.6,1.4c0.6,2.1-0.3,4.4-2.2,5.6c-0.4,0.3-0.9,0.5-1.4,0.6c-0.5,0.1-1,0.2-1.4,0.2
			c-1.7-0.1-3.3-1-4.2-2.5c-0.6-1-0.8-2.1-0.6-3.3C297.6,12.4,297.7,12,297.9,11.7c-0.1,0.4-0.2,0.8-0.2,1.2
			c-0.3,2.7,1.6,5.1,4.2,5.4c0.2,0,0.3,0,0.5,0c0.5,0,0.9,0,1.4-0.2c0.5-0.1,0.9-0.3,1.3-0.6c0.9-0.5,1.5-1.3,1.9-2.3
			c0.4-1,0.4-2,0.2-3c-0.1-0.5-0.3-0.9-0.6-1.3c-0.7-1.1-1.8-1.9-3.2-2.2c-0.7-0.1-1.5-0.1-2.2,0.1c-1.1,0.3-2,0.9-2.7,1.8
			C298.1,11.3,298,11.7,297.9,11.7z"/>
		<path id="Path_547" class="st2" d="M293.3,6.9h-0.2l-0.5-0.1l-2.1-0.3h0.1c-0.4,1.1-1,2.6-1.7,4.3v-0.1l2.3,1.6h0v0.1
			c-0.1,1-0.1,2,0.1,3v0.1h0l-2.2,1.6V17c0.6,1.3,1.2,2.7,1.8,4.2l-0.1-0.1l2.7-0.5h0.1l0,0.1c0.6,0.8,1.3,1.5,2.1,2.1h0.1v0.1
			c-0.1,0.9-0.3,1.8-0.4,2.7l-0.1-0.1l4.3,1.7l-0.2,0.1c0.5-0.7,1-1.5,1.6-2.3v-0.1h0.1c1,0.1,2,0.1,3,0h0.1l0,0.1l1.6,2.3l-0.2-0.1
			l4.2-1.8l-0.1,0.2c-0.2-0.9-0.3-1.8-0.5-2.7v-0.1l0.1-0.1c0.8-0.6,1.5-1.3,2.1-2.1l0,0l0.1-0.1h0.1l2.8,0.4l-0.2,0.1
			c0.6-1.4,1.1-2.9,1.7-4.3l0.1,0.2l-2.3-1.6l-0.1-0.1V15c0.1-1,0.1-2,0-3V12h0.1l2.3-1.6l0,0.2c-0.6-1.4-1.2-2.9-1.8-4.2l0.1,0.1
			l-2.7,0.5h-0.1l0-0.1c-0.6-0.8-1.3-1.5-2.1-2.1l-0.1-0.1V4.6c0.1-0.9,0.3-1.9,0.4-2.7l0.1,0.1l-4.3-1.7h0.1l-1.6,2.3v0.1h-0.1
			c-1-0.1-2-0.1-3,0h-0.1v0l-1.6-2.3h0.1L295,2.1V2c0.2,1.1,0.4,2,0.5,2.7l0,0c-0.6,0.5-1.1,1-1.6,1.5l-0.4,0.4
			C293.4,6.8,293.4,6.9,293.3,6.9l0.1-0.2l0.3-0.4c0.5-0.6,1-1.1,1.6-1.6l0,0c-0.1-0.8-0.3-1.6-0.5-2.7V1.9l0,0l4.2-1.8h0.1l0,0.1
			l1.6,2.2h-0.1c1-0.2,2-0.2,3-0.1l-0.1,0l1.6-2.3l0-0.1h0.1l4.3,1.7h0.1v0.1c-0.1,0.9-0.3,1.8-0.4,2.7l-0.1-0.1
			c0.8,0.6,1.6,1.3,2.2,2.1l-0.1-0.1l2.7-0.5h0.1l0,0.1c0.6,1.4,1.2,2.8,1.8,4.2v0.1l-0.1,0.1l-2.3,1.6l0.1-0.1c0.2,1,0.2,2,0.1,3
			l-0.1-0.1l2.3,1.6l0.1,0.1v0.1c-0.6,1.4-1.2,2.8-1.7,4.3l0,0.1h-0.1l-2.8-0.4l0.1-0.1l0,0c-0.6,0.8-1.3,1.5-2.1,2.2l0.1-0.1
			c0.2,0.9,0.4,1.9,0.5,2.7v0.1H310l-4.2,1.8h-0.1l-0.1-0.1l-1.6-2.3l0.1,0.1c-1,0.1-2,0.1-3,0l0.1-0.1l-1.6,2.3l-0.1,0.1h-0.1
			l-4.3-1.7l-0.1,0v-0.1c0.2-1,0.3-1.9,0.4-2.7l0.1,0.1c-0.8-0.6-1.5-1.3-2.2-2.1l0.1,0l-2.7,0.5h-0.1v-0.1l-1.8-4.2v-0.1h0.1
			l2.3-1.6v0.1c-0.1-1-0.1-2,0-3v0.1l-2.3-1.6h-0.1v-0.1c0.7-1.7,1.3-3.2,1.7-4.3l0,0l2,0.3l0.5,0.1L293.3,6.9z"/>
		<path id="Path_548" class="st1" d="M110,211.5v-17.2c0-11-0.1-26.9-0.1-46.3l0.2,0.2L0.3,148.2l0,0l0.2-0.2v63.5l-0.2-0.2l79,0.1
			l22.7,0.1h0.1l-22.6,0.1l-79.1,0.1H0v-64h0.2l109.8,0.1h0.2v0.2c0,19.5-0.1,35.4-0.1,46.4c0,5.5,0,9.8,0,12.7v3.3
			C110.1,210.7,110,211.1,110,211.5z"/>
		<path id="Path_549" class="st1" d="M110,155.7c0,0.1-24.6,0.2-54.9,0.2s-54.9-0.1-54.9-0.2s24.6-0.2,54.9-0.2S110,155.6,110,155.7
			z"/>
		<rect id="Rectangle_35" x="9.7" y="166.2" class="st2" width="33.9" height="33.9"/>
		<path id="Path_550" class="st1" d="M102,171.8c-0.2,0-0.3,0-0.5,0l-1.4,0l-5.3,0.1L77.5,172L60.1,172l-5.3-0.1l-1.4,0
			c-0.2,0-0.3,0-0.5,0c0.2,0,0.3-0.1,0.5-0.1h1.4l5.3-0.1l17.4-0.1l17.4,0.1l5.3,0.1h1.4C101.7,171.8,101.8,171.8,102,171.8z"/>
		<path id="Path_551" class="st1" d="M103.1,179.4c-0.2,0-0.3,0-0.5,0l-1.5,0l-5.4,0.1L78,179.5l-17.8-0.1l-5.4-0.1l-1.5,0
			c-0.2,0-0.3,0-0.5,0c0.2,0,0.3-0.1,0.5,0l1.5,0l5.4-0.1l17.8-0.1l17.7,0.1l5.4,0.1l1.5,0C102.8,179.3,102.9,179.3,103.1,179.4z"/>
		<path id="Path_552" class="st1" d="M103.1,186.9c-0.2,0-0.3,0.1-0.5,0.1l-1.5,0l-5.4,0.1L78,187.2l-17.8-0.1l-5.4-0.1l-1.5,0
			c-0.2,0-0.3,0-0.5-0.1c0.2,0,0.3,0,0.5,0h1.5l5.4-0.1l17.8-0.1l17.7,0.1l5.4,0.1h1.5C102.8,186.9,102.9,186.9,103.1,186.9z"/>
		<path id="Path_553" class="st1" d="M103.1,194.5c-0.2,0-0.3,0-0.5,0h-1.5l-5.4,0.1L78,194.7l-17.8-0.1l-5.4-0.1h-1.5
			c-0.2,0-0.3,0-0.5,0c0.2,0,0.3-0.1,0.5,0l1.5,0l5.4-0.1l17.8-0.1l17.7,0.1l5.4,0.1l1.5,0C102.8,194.5,102.9,194.5,103.1,194.5z"/>
		<path id="Path_554" class="st3" d="M283.5,262.1c-0.7-2.6,1.1-5.2,3-7.1s4.2-3.6,5.3-6.1c1.6-4.1-0.5-9.3,2.3-12.7
			c1.6-2,4.6-2.6,6-4.8c0.7-1.2,1.1-2.5,1.3-3.8c1.6-6.7,4.9-12.9,9.7-17.9c0.3,6-1.1,12-3.9,17.3c-1.1,2.1-2.5,4.2-2.9,6.6
			c-0.6,3.9,1.5,7.8,0.5,11.6c-1.1,4.3-6,7.2-6.3,11.7c-0.2,3.8,3.1,7.1,2.8,10.9c-0.2,1.6-0.8,3.1-1.7,4.5c-3,4.8-7.3,8.2-13.8,8
			l-8,0.2L283.5,262.1z"/>
		<path id="Path_555" class="st1" d="M276.3,280.6c-0.7,0.1-1.5,0.1-2.2-0.1c-0.9-0.1-1.7-0.4-2.6-0.7c-1.1-0.4-2.2-1-3.2-1.7
			c-0.6-0.5-1-1.1-1.3-1.7c-0.2-0.8-0.4-1.6-0.4-2.4c0-0.9-0.1-1.7-0.2-2.6c-0.2-0.9-0.5-1.8-1-2.6c-0.9-1.6-2.5-3.2-3-5.5
			c-0.4-2.3-0.3-4.7,0.3-7c0.4-2.4,0.8-5-0.1-7.5s-2.6-4.8-3.5-7.6s-0.4-5.9-0.6-8.9c0-1.5-0.4-3-1-4.4c-0.6-1.4-1.5-2.8-2.2-4.2
			c-1.4-3-1.6-6.4-2-9.7c-0.2-1.7-0.4-3.4-0.5-5.1c-0.1-1.7-0.4-3.4-0.9-5.1c-0.5-1.7-1.2-3.3-1.9-4.9c-0.4-0.8-0.7-1.7-0.9-2.6
			c-0.1-0.9-0.2-1.8-0.2-2.7c-0.1-1.8,0-3.7,0.2-5.5c0.2-1.8,0.6-3.7,0.8-5.5c0-0.1,0-0.2,0-0.3l0-0.4l0.3,0.2
			c1.7,0.9,3.1,2.1,4.3,3.6c1.1,1.5,2,3.1,2.6,4.9c1.1,3.4,1.9,6.9,2.4,10.4c0.5,3.4,1.6,6.6,3.3,9.6c0.9,1.4,1.9,2.7,2.8,4.1
			c1,1.4,1.6,2.9,1.9,4.6c0.4,3.4-1.4,6.3-1.1,9.3c0.2,1.5,0.7,2.9,1.4,4.1c0.7,1.3,1.6,2.5,2.4,3.7c0.8,1.2,1.5,2.4,2.1,3.7
			c0.5,1.3,0.9,2.6,0.9,4c0.2,2.7-0.2,5.2,0,7.6c0.2,2.3,0.9,4.5,1.9,6.6c0.9,2,2,3.7,2.9,5.5c0.4,0.8,0.8,1.7,1.2,2.6
			c0.3,0.8,0.5,1.7,0.7,2.5c0.2,1.5,0.2,3,0,4.5c-0.2,2.1-1,4.1-2.3,5.8c-0.2,0.2-0.4,0.5-0.6,0.7c-0.2,0.2-0.3,0.3-0.5,0.4
			L276.3,280.6c0.6-0.4,1.1-0.9,1.6-1.5c1.2-1.7,2-3.7,2.2-5.7c0.2-1.5,0.2-3-0.1-4.5c-0.1-0.8-0.4-1.7-0.7-2.5
			c-0.4-0.9-0.8-1.7-1.2-2.5c-0.9-1.7-2-3.5-2.9-5.5c-1.1-2.1-1.8-4.3-2-6.7c-0.2-2.5,0.2-5,0-7.6c-0.1-1.3-0.4-2.6-0.9-3.9
			c-0.6-1.3-1.3-2.5-2.1-3.6c-0.8-1.2-1.7-2.4-2.4-3.7c-0.8-1.3-1.3-2.8-1.5-4.3c-0.4-3.2,1.5-6.1,1-9.3c-0.3-1.6-1-3-1.9-4.3
			c-0.9-1.4-1.9-2.7-2.8-4.1c-1.7-3-2.8-6.4-3.3-9.8c-0.5-3.5-1.3-7-2.4-10.4c-0.6-1.7-1.5-3.3-2.5-4.7c-1.1-1.5-2.5-2.7-4.1-3.5
			l0.4-0.2v0.3c-0.2,1.9-0.6,3.7-0.8,5.5c-0.2,1.8-0.3,3.6-0.2,5.4c0,0.9,0.1,1.8,0.2,2.7c0.2,0.9,0.5,1.7,0.9,2.5
			c0.7,1.6,1.4,3.3,1.9,5c0.5,1.7,0.8,3.4,0.9,5.2l0.5,5.1c0.4,3.3,0.6,6.7,1.9,9.6c0.7,1.4,1.6,2.8,2.2,4.2c0.6,1.4,1,3,1,4.6
			c0.2,3.1-0.3,6.1,0.6,8.8s2.5,5,3.4,7.6c0.7,2.5,0.7,5.1,0.1,7.7c-0.4,2.4-0.8,4.7-0.3,6.8s1.9,3.7,2.9,5.4c0.5,0.8,0.8,1.7,1,2.7
			c0.1,0.9,0.2,1.7,0.2,2.6c0,0.8,0.1,1.6,0.3,2.3c0.3,0.7,0.7,1.2,1.2,1.7c0.9,0.8,2,1.4,3.1,1.8c0.8,0.3,1.7,0.6,2.6,0.7
			c0.5,0.1,1.1,0.2,1.6,0.2L276.3,280.6z"/>
		<path id="Path_556" class="st1" d="M251.7,186.7c0,0.1,0.1,0.2,0.1,0.2c0.1,0.2,0.1,0.4,0.2,0.7c0.2,0.6,0.3,1.6,0.6,2.8
			s1,2.5,1.6,4.2s1.3,3.5,1.9,5.7s1.1,4.5,1.7,7c0.5,2.7,1.3,5.3,2.5,7.8c0.6,1.3,1.4,2.6,1.9,4c0.6,1.5,0.9,3,1.1,4.6
			c0.4,3.2,0.9,6.5,1.7,9.6l4.4,18.4c1.4,5.6,2.6,10.7,3.7,15s1.9,7.7,2.4,10.1l0.6,2.8c0.1,0.3,0.1,0.5,0.2,0.7c0,0.1,0,0.2,0,0.2
			c0-0.1-0.1-0.2-0.1-0.2l-0.2-0.7c-0.2-0.7-0.4-1.6-0.7-2.7c-0.6-2.4-1.5-5.9-2.6-10.1s-2.4-9.4-3.8-15s-2.9-11.9-4.4-18.4
			c-0.7-3.2-1.3-6.4-1.7-9.7c-0.2-1.5-0.5-3-1.1-4.5c-0.6-1.4-1.3-2.7-1.9-4c-1.2-2.5-2-5.2-2.5-7.9c-0.5-2.5-1-4.9-1.6-7
			s-1.2-4-1.8-5.7c-0.6-1.4-1.1-2.8-1.6-4.2c-0.3-1.2-0.4-2.1-0.5-2.8c0-0.2-0.1-0.5-0.1-0.7C251.7,186.8,251.7,186.7,251.7,186.7
			L251.7,186.7z"/>
		<path id="Path_557" class="st1" d="M274.9,280.6c-5.2-3.1-6.6-12.5-4.4-18.1s6-10.8,6.6-16.8c0.5-4.6-1-9.4,0.1-13.9
			c1.5-6.1,7.5-10.8,7.4-17.1c0-3.5-2-6.8-1.8-10.4c0.2-4.3,3.6-7.7,5.6-11.5c3.2-5.8,3.5-12.7,4.5-19.2s3.6-13.5,9.4-16.7
			c0.9,5.5,2.3,9.4,1.7,16.9c-0.2,2.7-3.3,7.8-3.8,13.7c-0.3,3.5-0.5,7.1-0.7,10.6s-0.5,6.9-1.7,10.2c-1,2.5-2.5,4.7-3.2,7.2
			c-1.3,4.8,0.4,10-0.7,14.8c-0.9,4.1-3.8,7.6-4.4,11.8c-0.9,5.8,2.9,12,0.9,17.5c-1,2.8-3.3,5-3.9,7.8c-0.5,2.2,0,4.6-0.4,6.8
			C285.4,277.9,278.5,280.9,274.9,280.6"/>
		<path id="Path_558" class="st4" d="M301,162.4c0,0.1,0,0.2,0,0.3c0,0.3-0.1,0.6-0.1,0.9c-0.1,0.8-0.3,2-0.5,3.5s-1.1,3.2-1.7,5.3
			s-1.4,4.5-1.9,7.1s-1.1,5.6-1.7,8.8c-0.4,3.4-1.3,6.8-2.7,9.9c-0.7,1.7-1.6,3.3-2.2,5.1c-0.6,1.8-1,3.7-1.1,5.6
			c-0.3,4.1-0.9,8.1-1.6,12.1l-4.7,23.2c-1.5,7.1-2.8,13.5-4,18.8s-2.1,9.6-2.7,12.6l-0.8,3.5c-0.1,0.4-0.2,0.7-0.2,0.9
			c0,0.2-0.1,0.4-0.1,0.5c0-0.2,0-0.4,0-0.5l0.2-0.9c0.2-0.9,0.4-2,0.7-3.5c0.6-3,1.5-7.4,2.6-12.7s2.4-11.8,3.9-18.8
			s3-14.9,4.6-23.1c0.7-4,1.3-8,1.6-12.1c0.1-1.9,0.5-3.9,1.2-5.7c0.6-1.8,1.5-3.5,2.2-5.1c1.4-3.1,2.3-6.4,2.7-9.8
			c0.6-3.2,1.1-6.1,1.7-8.8s1.3-5.1,2-7.1s1.5-3.8,1.8-5.3s0.5-2.7,0.6-3.5c0.1-0.4,0.1-0.7,0.2-0.9
			C300.9,162.7,300.9,162.6,301,162.4L301,162.4z"/>
	</g>
	<g id="freepik--Floor--inject-16" transform="translate(36.447 406.732)">
		<path id="Path_559" class="st5" d="M367.6,0.2c0,0.1-82.3,0.2-183.8,0.2S0,0.4,0,0.2S82.3,0,183.8,0S367.6,0.1,367.6,0.2z"/>
	</g>
	<g id="freepik--Character--inject-16" transform="translate(107.307 93.775)">
		<path id="Path_560" class="st6" d="M127.8,283.5c0.2-0.1,0.4-0.1,0.5,0.1c0.1,0.2,0.1,0.4-0.1,0.5c-0.1,0.1-0.2,0.1-0.3,0
			c-0.2-0.1-0.3-0.3-0.2-0.5C127.7,283.6,127.7,283.5,127.8,283.5"/>
		<path id="Path_561" class="st7" d="M203.5,28.7l13.2,6c0,0-20.7,29.5-24.9,34.2s-46,10.7-46,10.7l-2-17.4l35.6-6L203.5,28.7z"/>
		<path id="Path_562" class="st6" d="M190,70.3c-0.1,0-0.2-1.1-0.6-2.7c-0.3-0.9-0.6-1.9-1-2.8c-0.5-1.1-1.1-2.1-1.8-3.1
			c-0.7-1-1.5-1.9-2.4-2.7c-0.7-0.7-1.5-1.3-2.3-1.8c-1.4-0.9-2.4-1.3-2.3-1.4s0.3,0.1,0.7,0.2c0.6,0.3,1.2,0.6,1.8,0.9
			c0.9,0.5,1.7,1.1,2.4,1.8c0.9,0.8,1.7,1.7,2.5,2.7c0.7,1,1.3,2.1,1.8,3.2c0.4,0.9,0.7,1.9,1,2.9c0.2,0.7,0.3,1.3,0.3,2
			C190,69.8,190,70,190,70.3z"/>
		<path id="Path_563" class="st6" d="M187.2,63.6c-0.4,0.2-0.9,0.3-1.3,0.4c-0.9,0.3-2.1,0.6-3.7,1.1c-3.1,0.9-7.4,1.9-12.3,2.9
			s-9.2,1.8-12.4,2.3c-1.6,0.2-2.9,0.4-3.8,0.5c-0.5,0.1-0.9,0.1-1.4,0.1c0.4-0.1,0.9-0.2,1.4-0.3l3.8-0.7c3.2-0.6,7.5-1.4,12.4-2.4
			s9.1-2,12.3-2.8l3.7-0.9C186.3,63.8,186.8,63.7,187.2,63.6z"/>
		<path id="Path_564" class="st6" d="M207,30.7c0.1,0.1-5.3,6.3-12,13.9s-12.2,13.7-12.3,13.6s5.3-6.3,12-13.9S206.8,30.6,207,30.7z
			"/>
		<path id="Path_565" class="st6" d="M190.1,51.6c0.2-0.1,0.4,0,0.5,0.2c0,0,0,0.1,0,0.1c0,0.2-0.1,0.4-0.3,0.4
			c-0.2,0-0.4-0.1-0.4-0.3C189.9,51.8,190,51.7,190.1,51.6"/>
		<path id="Path_566" class="st6" d="M168.4,65.7c0.2-0.1,0.4,0,0.5,0.1c0,0,0,0.1,0,0.1c0,0.2-0.1,0.4-0.3,0.4
			c-0.2,0-0.4-0.1-0.4-0.3C168.3,65.9,168.3,65.8,168.4,65.7"/>
		<path id="Path_567" class="st6" d="M178.9,63.3c0.2-0.1,0.4,0,0.5,0.1c0.1,0.2,0,0.4-0.1,0.5c-0.1,0.1-0.2,0.1-0.3,0
			c-0.2-0.1-0.3-0.3-0.2-0.5C178.8,63.4,178.8,63.4,178.9,63.3"/>
		<path id="Path_568" class="st6" d="M196,45c0.2-0.1,0.4,0,0.5,0.1c0,0,0,0.1,0,0.1c0,0.2-0.1,0.4-0.3,0.4c-0.2,0-0.4-0.1-0.4-0.3
			C195.8,45.2,195.9,45.1,196,45"/>
		<path id="Path_569" class="st6" d="M202.2,38c0.2-0.1,0.4-0.1,0.5,0.1c0.1,0.2,0.1,0.4-0.1,0.5c-0.1,0.1-0.2,0.1-0.4,0
			c-0.2-0.1-0.3-0.3-0.2-0.5C202.1,38,202.2,38,202.2,38"/>
		<g id="Group_15" transform="translate(153.034 57.507)" class="st8">
			<path id="Path_570" class="st6" d="M24.3,0.3c0.1,0.6-5.3,2-12,3.1S0.1,4.8,0,4.2s5.3-2,12-3.1S24.2-0.3,24.3,0.3z"/>
		</g>
		<path id="Path_571" class="st6" d="M159.4,67.3c0.2-0.1,0.4-0.1,0.5,0.1c0.1,0.2,0.1,0.4-0.1,0.5c-0.1,0.1-0.2,0.1-0.4,0
			c-0.2-0.1-0.3-0.3-0.2-0.5C159.3,67.4,159.4,67.3,159.4,67.3"/>
		<path id="Path_572" class="st5" d="M140.1,59.6c3.7-1.2,7.8,0,10.2,3c2.4,3,3.1,7,2,10.7c-1,3.6-5.9,8.6-9.2,9.9"/>
		<path id="Path_573" class="st7" d="M220.3,30.7c1.1-1.5,2.1-3.1,2.9-4.7c0.8-1.7,1.1-3.6,0.8-5.4c-0.3-1.9-1.6-3.4-3.3-4.2
			c-1.8-0.7-3.8,0-4.8,1.6l3.5-6.9c0.4-0.9,0.9-1.9,0.3-2.7c-0.6-0.7-1.7-0.8-2.4-0.2c-0.7,0.5-1.3,1.3-1.6,2.1l-5.2,9.7l-4.6-7.2
			c-0.5-0.7-1.1-1.6-2-1.4c-0.7,0.2-1.2,0.8-1.1,1.5c0,0.7,0.2,1.4,0.6,2c1.3,2.8,3.8,9.3,3.8,9.3L220.3,30.7z"/>
		<path id="Path_574" class="st9" d="M143.2,82.8c-0.1-0.1,1.2-1,2.7-3c0.9-1.1,1.6-2.4,2-3.8c0.5-1.7,0.7-3.5,0.5-5.2
			c-0.2-3.2-1.3-6.3-3.1-9.1c-0.5-0.8-1.1-1.6-1.9-2.1c-0.3-0.2-0.6-0.3-1-0.4c0.1,0,0.2,0,0.3,0c0.3,0,0.5,0.1,0.8,0.3
			c0.9,0.5,1.6,1.3,2.1,2.1c1.9,2.7,3,5.9,3.2,9.2c0.2,1.8,0,3.7-0.5,5.4c-0.5,1.4-1.2,2.7-2.1,3.9c-0.6,0.8-1.3,1.5-2.1,2.1
			C143.8,82.4,143.5,82.6,143.2,82.8z"/>
		<path id="Path_575" class="st5" d="M203.5,28.7c3.6,2.3,7.3,4.3,11.2,6.1c1.5,0.7,3.5,1.4,4.8,0.4c1-0.8,1.4-2.1,1.1-3.3
			c-0.3-1.2-1-2.3-1.8-3.2c-2.5-2.8-5.8-4.9-9.5-5.9c-1.3-0.4-2.7-0.5-4-0.3c-1.4,0.2-2.5,1.2-2.9,2.5
			C201.9,26.3,202.3,27.9,203.5,28.7"/>
		<path id="Path_576" class="st9" d="M220.2,33.6c-0.1,0-0.6-1-1.7-2.5c-3.1-3.9-7.7-6.2-12.7-6.2c-1.9,0-3,0.2-3,0.1
			c0.3-0.1,0.5-0.2,0.8-0.2c0.7-0.1,1.5-0.2,2.2-0.2c5.1-0.1,9.9,2.2,12.9,6.4c0.4,0.6,0.8,1.2,1.2,1.9
			C220,33.1,220.1,33.3,220.2,33.6z"/>
		<path id="Path_577" class="st5" d="M134.9,123.6c0.1,0.3-1.5,1.4-4.6,2.7c-1.8,0.7-3.6,1.3-5.5,1.8c-4.6,1.1-9.3,1.5-14.1,1
			c-1.9-0.2-3.8-0.5-5.7-1c-3.2-0.8-5-1.7-4.9-2s2.1,0.1,5.2,0.5c1.6,0.2,3.4,0.4,5.5,0.5c2.3,0.1,4.5,0.1,6.8-0.1
			c2.2-0.2,4.5-0.5,6.7-0.9c2-0.4,3.9-0.9,5.4-1.3C132.9,123.9,134.8,123.2,134.9,123.6z"/>
		<path id="Path_578" class="st5" d="M133.8,128.3c0.1,0.3-1.5,1.2-4.3,2.1c-7.3,2.3-15,2.9-22.6,1.6c-2.9-0.5-4.6-1.1-4.5-1.4
			c0.1-0.7,7.1,0.3,15.8-0.3C126.8,129.6,133.6,127.7,133.8,128.3z"/>
		<path id="Path_579" class="st7" d="M102.5,1.3c0,0-28.5,5.3-28.1,30.7s24.5,21.2,31.5,20.3c3.2-0.4,9.5-1.3,15.5-2.2
			c12.7-1.8,22.1-8,22.8-20.8c0.1-1.5,0-3-0.2-4.5C142.3,11.5,129.7-4.7,102.5,1.3z"/>
		<path id="Path_580" class="st5" d="M133.2,26.9l-36.3,7.7c-3.8,0.8-7.5-1.6-8.4-5.4l0,0c-0.8-3.8,1.6-7.5,5.4-8.4l36.3-7.7
			c3.8-0.8,7.5,1.6,8.4,5.4l0,0C139.5,22.3,137.1,26,133.2,26.9C133.3,26.9,133.2,26.9,133.2,26.9L133.2,26.9z"/>
		<circle id="Ellipse_20" class="st6" cx="101.8" cy="26.9" r="2.3"/>
		<circle id="Ellipse_21" class="st6" cx="127.2" cy="21.5" r="2.3"/>
		<path id="Path_581" class="st6" d="M113.6,14.8c-0.5-0.8-0.9-1.7-1.2-2.6c-0.9-2.1-2.1-4-3.5-5.8c-1.4-1.8-3.2-3.2-5.3-4
			c-0.9-0.3-1.8-0.5-2.7-0.7c0.3,0,0.5,0,0.8,0c0.7,0.1,1.4,0.2,2.1,0.4c2.2,0.8,4.1,2.2,5.6,4c1.5,1.8,2.6,3.8,3.4,5.9
			c0.3,0.9,0.6,1.5,0.7,2C113.5,14.3,113.6,14.5,113.6,14.8z"/>
		<path id="Path_582" class="st6" d="M114.5,51.2c-0.1-0.1,0.8-0.9,1.7-2.3c1.3-2,2.2-4.2,2.5-6.5c0.3-2.3,0.3-4.7-0.1-7
			c-0.2-1-0.3-1.9-0.4-2.9c0.1,0.2,0.2,0.5,0.2,0.8c0.1,0.5,0.3,1.2,0.5,2.1c0.4,2.4,0.5,4.8,0.2,7.1c-0.3,2.4-1.3,4.7-2.7,6.6
			c-0.4,0.6-0.9,1.1-1.4,1.6C115,50.8,114.8,51,114.5,51.2z"/>
		<g id="Group_16" transform="translate(88.104 36.686)" class="st8">
			<path id="Path_583" d="M52.9,3.4C49.5,1.4,45.7,0.2,41.8,0C37.9-0.1,34,0.2,30.2,0.8C21.2,2.2,12.1,4.3,4.9,9.7
				c-2.1,1.4-3.8,3.4-4.9,5.7c0,0,3.8,1.6,11.5,1.1c7.6-0.5,23.4-3.3,23.4-3.3s8.1-1.4,12.6-4.8S52.9,3.4,52.9,3.4z"/>
		</g>
		<path id="Path_584" class="st6" d="M140.9,17.8c0.2,0.4,0.3,0.9,0.3,1.3c0.2,1.3,0.1,2.6-0.3,3.8c-0.7,2-2.1,3.6-3.9,4.7
			c-2.4,1.3-5,2.2-7.7,2.6l-20.6,4.5l-5.9,1.3c-2,0.4-4.1,1-6.2,1.2c-2.2,0.4-4.5,0-6.5-1.1c-2-1.3-3.4-3.2-4-5.5
			c-0.6-2.3-0.3-4.7,0.8-6.7c1.1-2,2.8-3.6,4.9-4.5c1-0.4,2-0.7,3.1-0.9l3.1-0.7l5.9-1.4l11-2.6c3.4-0.7,6.6-1.7,9.5-2.3
			c1.4-0.3,2.8-0.5,4.2-0.6c1.3-0.1,2.6-0.1,3.8,0.1c2,0.3,4,1.1,5.6,2.4c1,0.8,1.8,1.8,2.4,3c0.1,0.3,0.3,0.6,0.4,0.9
			C140.8,17.6,140.9,17.7,140.9,17.8c-0.2-0.4-0.3-0.8-0.5-1.2c-0.6-1.1-1.4-2.1-2.4-2.9c-1.6-1.2-3.5-2-5.5-2.2
			c-1.2-0.2-2.5-0.2-3.8-0.1c-1.4,0.1-2.8,0.3-4.2,0.6c-2.9,0.6-6,1.6-9.5,2.3L104,16.9L98,18.3L95,19c-1,0.2-2,0.5-3,0.9
			c-2,0.9-3.6,2.4-4.6,4.3c-1.1,2-1.3,4.2-0.8,6.4c0.6,2.1,1.9,4,3.8,5.2c1.9,1.1,4.1,1.4,6.2,1.1c2.1-0.3,4.2-0.8,6.2-1.2l6-1.3
			l20.6-4.4c2.7-0.4,5.2-1.2,7.6-2.5c1.8-1,3.1-2.6,3.8-4.5c0.4-1.2,0.6-2.5,0.4-3.8C141,18.2,140.9,17.8,140.9,17.8z"/>
		<path id="Path_585" class="st6" d="M74.8,36.3c0.4-0.5,0.9-0.9,1.4-1.2c2.4-1.8,5.1-3.1,8-3.9c0.6-0.2,1.2-0.3,1.8-0.4
			c0,0.1-2.7,0.9-5.8,2.4S74.9,36.4,74.8,36.3z"/>
		<path id="Path_586" class="st6" d="M104.4,4.9c0.2-0.1,0.4-0.1,0.5,0.1s0.1,0.4-0.1,0.5c-0.1,0.1-0.2,0.1-0.4,0
			c-0.2-0.1-0.2-0.3-0.1-0.5C104.3,4.9,104.4,4.9,104.4,4.9"/>
		<path id="Path_587" class="st6" d="M108.9,11.5c0.2-0.1,0.4-0.1,0.5,0.1s0.1,0.4-0.1,0.5c-0.1,0.1-0.2,0.1-0.4,0
			C108.8,12,108.7,11.8,108.9,11.5C108.9,11.5,108.9,11.5,108.9,11.5"/>
		<path id="Path_588" class="st6" d="M81.6,29.9c0.2-0.1,0.4,0,0.5,0.1c0.1,0.2,0,0.4-0.1,0.5c-0.1,0.1-0.2,0.1-0.3,0
			c-0.2-0.1-0.3-0.3-0.2-0.5C81.5,30,81.5,30,81.6,29.9"/>
		<path id="Path_589" class="st6" d="M76,33c0.2-0.1,0.4-0.1,0.5,0.1c0.1,0.2,0.1,0.4-0.1,0.5c-0.1,0.1-0.2,0.1-0.3,0
			c-0.2-0.1-0.3-0.3-0.2-0.5C75.9,33.1,75.9,33,76,33"/>
		<g id="Group_17" transform="translate(77.091 1.59)" class="st8">
			<path id="Path_590" class="st6" d="M33.1,0.1c0.1,0.3-2.5,1.1-6.5,2.4C21.4,4,16.4,6.3,11.8,9.4c-2.4,1.7-4.5,3.8-6.3,6.2
				c-1.4,1.9-2.6,4.1-3.4,6.3c-1.4,3.9-1.2,6.6-1.6,6.6c-0.1,0-0.3-0.6-0.4-1.9c-0.1-1.7,0.1-3.5,0.6-5.2c0.7-2.5,1.8-4.9,3.3-7.1
				c1.8-2.6,4.1-4.9,6.7-6.8c2.6-1.8,5.4-3.3,8.3-4.5c2.4-0.9,4.8-1.6,7.3-2.2C30.4,0,33.1-0.2,33.1,0.1z"/>
		</g>
		<g id="Group_18" transform="translate(78.42 37.077)" class="st8">
			<path id="Path_591" class="st6" d="M4.3,5.6c-0.4,0.5-2-0.2-3.2-1.9S-0.2,0.2,0.3,0s1.5,1,2.6,2.4S4.7,5.1,4.3,5.6z"/>
		</g>
		<path id="Path_592" class="st7" d="M141.7,56.5c1.7,0.5,1.6,25.5,1.3,38.2c-0.2,6.8-0.7,14-4.2,19.8c-4.1,6.6-11.1,10.8-18.9,11.2
			c-9.1,0.6-18.2-3.8-24.4-10.5s-10-15.4-12-24.4s-2.4-18.1-2.8-27.3C80.8,63.6,110.4,47.7,141.7,56.5z"/>
		<g id="Group_19" transform="translate(82.141 67.11)" class="st10">
			<path id="Path_593" d="M0,8.5c-0.2,8.2,1.1,16.3,3.8,24.1c2.7,7.6,7.4,14.2,13.6,19.3c1.9,1.4,3.9,2.7,6,3.8
				c1.8,0.9,3.7,1.6,5.6,2.1c3.2,0.9,5.1-3.1,5.7-6.3c0.5-3.4-0.4-6.8-2.6-9.4c-2.1-2.6-4.7-4.8-7.6-6.5C21.8,33.9,19,32,16.3,30
				c-4.4-3.8-7.9-8.5-10.2-13.7C3.8,11,1.9,5.6,0.3,0"/>
		</g>
		<path id="Path_594" class="st6" d="M103.3,109.8c0.2-0.1,0.4,0,0.5,0.2c0,0,0,0.1,0,0.1c0,0.2-0.2,0.4-0.4,0.4c0,0-0.1,0-0.1,0
			c-0.2-0.1-0.2-0.3-0.2-0.5C103.2,109.8,103.2,109.8,103.3,109.8"/>
		<path id="Path_595" class="st6" d="M114.4,109.3c0.2-0.1,0.4-0.1,0.5,0.1c0.1,0.2,0.1,0.4-0.1,0.5c-0.1,0.1-0.2,0.1-0.3,0
			c-0.2-0.1-0.3-0.3-0.2-0.5C114.3,109.4,114.3,109.4,114.4,109.3"/>
		<path id="Path_596" class="st6" d="M126.4,97.9c0.2-0.1,0.4,0,0.5,0.1c0,0,0,0.1,0,0.1c0,0.2-0.1,0.4-0.3,0.4
			c-0.2,0-0.4-0.1-0.4-0.3C126.3,98.1,126.3,98,126.4,97.9"/>
		<path id="Path_597" class="st6" d="M120.9,69.6c0.2-0.1,0.4,0,0.5,0.2c0,0,0,0.1,0,0.1c0,0.2-0.2,0.4-0.4,0.4c0,0-0.1,0-0.1,0
			c-0.2-0.1-0.3-0.3-0.2-0.5C120.8,69.7,120.8,69.7,120.9,69.6"/>
		<path id="Path_598" class="st6" d="M132.2,74.3c0.2-0.1,0.4,0,0.5,0.1c0,0,0,0.1,0,0.1c0,0.2-0.1,0.4-0.3,0.4
			c-0.2,0-0.4-0.1-0.4-0.3C132,74.5,132.1,74.4,132.2,74.3"/>
		<path id="Path_599" class="st6" d="M90.7,106.5c0.2-0.1,0.4,0,0.5,0.1c0.1,0.2,0,0.4-0.1,0.5c-0.1,0.1-0.2,0.1-0.3,0
			c-0.2-0.1-0.3-0.3-0.2-0.5C90.6,106.6,90.7,106.5,90.7,106.5"/>
		<path id="Path_600" class="st6" d="M88.9,97.1c0.2-0.1,0.4,0,0.5,0.1c0.1,0.2,0,0.4-0.1,0.5c-0.1,0.1-0.2,0.1-0.3,0
			c-0.2-0.1-0.3-0.3-0.2-0.5C88.8,97.2,88.8,97.1,88.9,97.1"/>
		<path id="Path_601" class="st6" d="M88.1,88.6c0.2-0.1,0.4,0,0.5,0.2c0,0,0,0.1,0,0.1c0,0.2-0.2,0.4-0.4,0.4c0,0-0.1,0-0.1,0
			c-0.2-0.1-0.3-0.3-0.2-0.5C88,88.6,88,88.6,88.1,88.6"/>
		<path id="Path_602" class="st6" d="M87.3,79.6c0.2-0.1,0.4,0,0.5,0.1c0.1,0.2,0,0.4-0.1,0.5c-0.1,0.1-0.2,0.1-0.3,0
			c-0.2-0.1-0.3-0.3-0.2-0.5C87.2,79.7,87.2,79.6,87.3,79.6"/>
		<path id="Path_603" class="st6" d="M138.9,72.1c0.2-0.1,0.4-0.1,0.5,0.1c0.1,0.2,0.1,0.4-0.1,0.5c-0.1,0.1-0.2,0.1-0.4,0
			c-0.2-0.1-0.3-0.3-0.2-0.5C138.9,72.1,138.9,72.1,138.9,72.1"/>
		<path id="Path_604" class="st6" d="M128.3,108.5c0.2-0.1,0.4,0,0.5,0.1c0,0,0,0.1,0,0.1c0,0.2-0.1,0.4-0.3,0.4
			c-0.2,0-0.4-0.1-0.4-0.3C128.1,108.7,128.2,108.5,128.3,108.5"/>
		<path id="Path_605" class="st6" d="M129.5,117.4c0.2-0.1,0.4-0.1,0.5,0.1c0.1,0.2,0.1,0.4-0.1,0.5c-0.1,0.1-0.2,0.1-0.4,0
			c-0.2-0.1-0.2-0.3-0.1-0.5C129.4,117.4,129.5,117.4,129.5,117.4"/>
		<g id="Group_20" transform="translate(83.687 63.094)" class="st8">
			<path id="Path_606" class="st6" d="M51.2,0.1c0.1,0.3-2.6,1.5-7.2,2.7c-2.7,0.7-5.4,1.3-8.1,1.7c-6.7,1-13.6,1.3-20.3,0.7
				C12.8,5,10,4.6,7.3,4C2.7,3.1-0.1,2.1,0,1.8c0.1-0.7,11.5,1.9,25.7,1.4S51-0.6,51.2,0.1z"/>
		</g>
		<path id="Path_607" class="st6" d="M102.2,121c-0.2-0.1-0.3-0.2-0.5-0.4c-0.3-0.2-0.7-0.6-1.3-1.2c-1.5-1.5-2.8-3.2-3.6-5.2
			c-0.6-1.3-1.1-2.7-1.4-4.1c-0.4-1.5-0.9-3.1-1.3-4.8c-0.9-3.4-1.8-7.2-2.6-11.2c-1.3-6.8-2.3-13.7-2.9-20.6
			c-0.2-2.6-0.3-4.8-0.4-6.3v-1.7c0-0.2,0-0.4,0-0.6c0,0.2,0.1,0.4,0.1,0.6c0,0.4,0.1,1,0.1,1.7c0.1,1.5,0.3,3.6,0.5,6.3
			c0.5,5.3,1.4,12.6,3,20.5c0.8,4,1.7,7.8,2.6,11.1c0.4,1.7,0.9,3.3,1.3,4.8c0.4,1.4,0.8,2.8,1.4,4.1c0.8,1.9,2,3.7,3.4,5.2
			c0.5,0.5,0.9,0.9,1.2,1.2C102,120.6,102.1,120.8,102.2,121z"/>
		<path id="Path_608" class="st6" d="M122.3,93.5c0.1,0,1,6.8,2.1,15.3s1.7,15.4,1.6,15.4s-1.1-6.9-2.1-15.3S122.2,93.5,122.3,93.5z
			"/>
		<path id="Path_609" class="st6" d="M109.3,54.7c0.2,0.2,0.4,0.4,0.6,0.6c0.4,0.4,0.9,1,1.6,1.8c1.3,1.5,3.1,3.7,5,6l0.7,0.9
			l0.1,0.1c0,0,0.1,0.1,0.1,0.1c0,0.1,0,0.1,0.1,0.2v0.1c0,0.2,0.1,0.4,0.1,0.6c0.1,0.7,0.1,1.4,0.1,2.1c0.1,1.3,0.1,2.5,0.1,3.5
			s0,1.8,0,2.4c0,0.3,0,0.6-0.1,0.9c-0.2-1.1-0.2-2.2-0.3-3.2c-0.1-1-0.1-2.2-0.2-3.5c0-0.7-0.1-1.4-0.2-2.1c0-0.2,0-0.3-0.1-0.5
			v-0.2c-0.1-0.1-0.1-0.1-0.1-0.2l-0.7-0.9c-1.9-2.4-3.7-4.5-4.9-6.1c-0.6-0.8-1.1-1.4-1.4-1.9C109.6,55.2,109.5,55,109.3,54.7z"/>
		<path id="Path_610" class="st6" d="M123.1,106.5c-0.3,0.1-0.7,0.2-1.1,0.2c-0.7,0.1-1.7,0.3-3,0.4c-2.5,0.3-6,0.7-9.9,0.9
			s-7.4,0.2-9.9,0.2c-1.3,0-2.3-0.1-3-0.1c-0.4,0-0.7,0-1.1-0.1c0.4-0.1,0.7-0.1,1.1-0.1h3c2.5,0,6-0.1,9.9-0.3s7.3-0.5,9.9-0.7
			l3-0.3C122.4,106.5,122.7,106.5,123.1,106.5z"/>
		<path id="Path_611" class="st6" d="M143.2,73.1c-0.2,0.2-0.4,0.3-0.6,0.4c-0.6,0.3-1.1,0.7-1.7,1c-2,1-4,1.7-6.1,2.3
			c-2.1,0.6-4.2,1.1-6.4,1.4c-0.9,0.2-1.8,0.3-2.7,0.3c0.9-0.2,1.7-0.4,2.6-0.6c1.6-0.3,3.9-0.9,6.3-1.5c2.1-0.6,4.1-1.3,6.1-2.2
			C141.5,73.8,142.3,73.5,143.2,73.1z"/>
		<circle id="Ellipse_22" class="st5" cx="119.4" cy="83.6" r="10.1"/>
		<circle id="Ellipse_23" class="st6" cx="119.4" cy="83.6" r="7.4"/>
		<path id="Path_612" class="st7" d="M123.4,85.2c-0.1-0.4-0.1-0.8-0.2-1.2c-0.1-0.8-0.2-1.8-0.3-3.2L123,81l-3.9-1.9h0.2l-3.7,2.4
			c-0.1,0.2,0.1-0.2,0.1-0.2l0,0v1.1c0,0.4,0,0.8,0.1,1.1c0,0.7,0.1,1.4,0.1,2.1l-0.1-0.2l3.9,2h-0.2c1.1-0.7,2-1.3,2.7-1.7
			C122.6,85.6,122.9,85.4,123.4,85.2c-0.3,0.3-0.6,0.5-1,0.7c-0.6,0.4-1.5,1.1-2.7,1.8l-0.1,0.1h-0.1l-3.9-1.9l-0.1-0.1v-0.1
			c0-0.7-0.1-1.4-0.1-2.1c0-0.4,0-0.7-0.1-1.1v-1.2l0,0c0,0,0.2-0.4,0.1-0.2l3.7-2.4l0.1-0.1l0.1,0.1l3.9,2l0.1,0v0.1
			c0.1,1.4,0.1,2.5,0.1,3.2C123.4,84.4,123.4,84.8,123.4,85.2z"/>
		<g id="Group_21" transform="translate(80.773 53.724)" class="st10">
			<path id="Path_613" d="M0,9.9c0,0,29.6-16.2,61-7.1C61,2.8,47.5,15.5,0,9.9z"/>
		</g>
		<path id="Path_614" class="st6" d="M128.5,262.6c0.2-0.1,0.4-0.1,0.5,0.1c0.1,0.2,0.1,0.4-0.1,0.5c-0.1,0.1-0.2,0.1-0.4,0
			c-0.2-0.1-0.3-0.3-0.2-0.5C128.4,262.7,128.4,262.6,128.5,262.6"/>
		<path id="Path_615" class="st7" d="M115.6,151.8c0.5,21.1,2.7,42.1,8.1,62.5c0.9,3.5,2,7.1,4.5,9.7s6.9,3.8,9.8,1.6
			c2.5-1.8,3.1-5.3,3.4-8.3c2.7-22.6,4.2-45.2,4.5-68c0,0,0.7-17.4-11.6-17.4S115.3,138.9,115.6,151.8z"/>
		<g id="Group_22" transform="translate(116.312 132.535)" class="st10">
			<path id="Path_616" d="M7.9,1.4c1.5-1.9,4.6-1.7,6.5-0.2s2.7,4,3,6.4c0.9,7.6-2.8,14.8-4.2,22.3c-1.3,7.2-0.3,14.6-0.6,21.9
				s-2,14.8-7.7,19.3c0,0-5.5-28.2-4.8-38.9C0.7,24.3,7.9,1.4,7.9,1.4z"/>
		</g>
		<path id="Path_617" class="st6" d="M125.8,162.3c0.1,0.2,0.1,0.4,0.1,0.7l0.2,1.9c0.2,1.7,0.4,4,0.7,6.9
			c0.6,5.9,1.5,13.9,2.6,22.8s2.3,16.9,3.2,22.8c0.4,2.9,0.8,5.2,1.1,6.9c0.1,0.8,0.2,1.4,0.3,1.9c0,0.2,0.1,0.4,0.1,0.7
			c-0.1-0.2-0.1-0.4-0.2-0.6c-0.1-0.5-0.2-1.1-0.4-1.9c-0.3-1.6-0.7-4-1.2-6.9c-1-5.8-2.2-13.8-3.4-22.8s-2-17-2.5-22.9
			c-0.3-2.9-0.5-5.3-0.6-7c-0.1-0.8-0.1-1.4-0.1-1.9C125.8,162.7,125.8,162.5,125.8,162.3z"/>
		<path id="Path_618" class="st5" d="M107.8,167c5.7,2.8,13.9,0.5,17.8-5.3c4-5.8,5.2-12.9,6.3-19.8c0.4-2.3,0.7-5-0.8-6.8
			c-1.7-2.1-4.8-2.2-7.5-2.1l-25.6,0.9c0,0-9.3,2.7-9.3,8.3S100,163.2,107.8,167z"/>
		<path id="Path_619" class="st7" d="M129.8,228.8c-2.8,0.1-5.1,2.3-6.1,4.9c-0.9,2.6-1.4,5.4-1.3,8.1c-0.6,16.8-1.2,33.6-0.2,50.3
			c0.2,3.6,0.6,7.5,2.8,10.4s7,4.1,9.5,1.4c1.4-1.5,1.7-3.7,1.9-5.8l6.5-60c0.2-2.3,0.5-4.7-0.7-6.7c-1.2-1.8-3.2-3-5.5-3.2
			c-2.2-0.1-4.4,0-6.5,0.6"/>
		<path id="Path_620" class="st6" d="M126.4,307.7c0-0.1,0-0.1,0-0.2l-0.1-0.6c-0.1-0.5-0.2-1.3-0.2-2.3c-0.2-2-0.4-4.9-0.6-8.4
			c-0.3-7.1-0.3-17,0.1-27.9s0.6-20.7,0.9-27.8c0-2.8,0.5-5.6,1.4-8.3c0.3-0.7,0.7-1.4,1.1-2l0.4-0.5c0.1-0.1,0.1-0.2,0.1-0.2
			c0,0.1-0.1,0.1-0.1,0.2l-0.3,0.5c-0.4,0.7-0.7,1.3-1,2c-0.9,2.7-1.3,5.5-1.3,8.3c-0.2,7.2-0.4,17-0.7,27.9s-0.4,20.7-0.2,27.8
			c0.1,3.6,0.3,6.4,0.4,8.4c0.1,1,0.1,1.7,0.2,2.3v0.6C126.4,307.5,126.4,307.6,126.4,307.7z"/>
		<path id="Path_621" class="st5" d="M123.6,309c-0.3-1.7-0.4-3.4-0.2-5.2c0.2-1.7,1-3.3,2.3-4.5c2.3-1.5,5.1-1.7,7.6-0.8
			c1.8,1.1,3.1,2.9,3.3,5.1l1.3,6.3"/>
		<path id="Path_622" class="st7" d="M123.1,308.7l14.9,0.2c0,0,11,2.5,10.7,3.4s-26-0.2-26-0.2L123.1,308.7z"/>
		<path id="Path_623" class="st9" d="M119.4,133.8c0.2,0.4,0.4,0.9,0.5,1.3c0.2,0.5,0.3,1.1,0.5,1.6c0.2,0.7,0.4,1.4,0.5,2.2
			c0.2,0.9,0.3,1.8,0.4,2.7c0.1,1,0.2,2,0.2,3.1c0.1,2.4-0.1,4.7-0.4,7.1c-0.4,2.3-0.9,4.7-1.7,6.9c-0.4,1-0.8,2-1.2,2.9
			c-0.2,0.4-0.4,0.9-0.6,1.3l-0.6,1.1c-0.4,0.6-0.8,1.3-1.2,1.9c-0.3,0.5-0.6,0.9-1,1.4c-0.3,0.4-0.6,0.7-0.9,1.1
			c0.2-0.4,0.5-0.8,0.8-1.2c0.3-0.5,0.7-0.9,0.9-1.4c0.3-0.6,0.8-1.2,1.1-1.9c0.2-0.4,0.4-0.7,0.6-1.1s0.4-0.9,0.6-1.3
			c0.4-0.9,0.8-1.8,1.2-2.8c0.8-2.2,1.3-4.5,1.7-6.8c0.3-2.3,0.5-4.7,0.4-7c-0.1-1.1-0.1-2.1-0.2-3.1s-0.2-1.8-0.4-2.6
			s-0.3-1.5-0.4-2.2s-0.3-1.2-0.4-1.6C119.6,134.7,119.5,134.3,119.4,133.8z"/>
		<path id="Path_624" class="st6" d="M131.1,184c0.2-0.1,0.4,0,0.5,0.2c0,0,0,0.1,0,0.1c0,0.2-0.1,0.4-0.3,0.4
			c-0.2,0-0.4-0.1-0.4-0.3C130.9,184.2,130.9,184.1,131.1,184"/>
		<path id="Path_625" class="st6" d="M133.2,202.4c0.2-0.1,0.4-0.1,0.5,0.1c0.1,0.2,0.1,0.4-0.1,0.5c-0.1,0.1-0.2,0.1-0.3,0
			c-0.2-0.1-0.3-0.3-0.2-0.5C133.1,202.5,133.2,202.5,133.2,202.4"/>
		<path id="Path_626" class="st6" d="M128.8,165.2c0.2-0.1,0.4-0.1,0.5,0.1c0.1,0.2,0.1,0.4-0.1,0.5c-0.1,0.1-0.2,0.1-0.4,0
			c-0.2-0.1-0.3-0.3-0.2-0.5C128.8,165.2,128.8,165.2,128.8,165.2"/>
		<path id="Path_627" class="st6" d="M128.8,245c0.2-0.1,0.4,0,0.5,0.1c0.1,0.2,0,0.4-0.1,0.5c-0.1,0.1-0.2,0.1-0.3,0
			c-0.2-0.1-0.3-0.3-0.2-0.5C128.8,245.1,128.8,245,128.8,245"/>
		<path id="Path_628" class="st9" d="M136.9,303.8c-0.6,0.3-1.3,0.6-1.9,0.7c-1.6,0.4-3.2,0.7-4.9,0.8c-1.7,0.1-3.3,0-5-0.2
			c-0.7-0.1-1.4-0.2-2-0.5c2.3,0.2,4.6,0.3,6.9,0.2C132.3,304.7,134.6,304.3,136.9,303.8z"/>
		<g id="Group_23" transform="translate(121.587 230.821)" class="st10">
			<path id="Path_629" d="M0,48.5c3.9-2.9,6.5-7.4,7.9-12.1s1.8-9.6,2.2-14.5s0.8-9.8,2.2-14.5c0.4-1,0.6-2.1,0.5-3.1
				C12.4,2.7,10.7,1.7,9.1,1c-1.9-0.9-4.4-1.6-6-0.3C1.8,1.7,1.5,3.5,1.4,5C-0.1,19.7,0,34.4,0.1,49.1"/>
		</g>
		<circle id="Ellipse_24" class="st5" cx="134.4" cy="226.2" r="10.6"/>
		<path id="Path_630" class="st9" d="M144.4,224.7c-0.1,0.2-0.3,0.5-0.6,0.7c-0.6,0.5-1.2,1-1.9,1.4c-2.3,1.2-4.8,1.8-7.4,1.7
			c-2.6-0.2-5.1-0.7-7.5-1.5c-0.9-0.3-1.7-0.6-2.2-0.8c-0.3-0.1-0.5-0.2-0.8-0.3c1,0.2,2,0.5,3,0.8c2.4,0.7,4.9,1.2,7.4,1.4
			c2.5,0.1,5-0.4,7.3-1.5C142.7,225.9,143.5,225.3,144.4,224.7L144.4,224.7z"/>
		<path id="Path_631" class="st7" d="M24.4,55.3c0,0-2.1-8.5-3.2-8.9S6.7,47.9,6.7,47.9s-4.3-6-5-6.8s-2.1,1.2-1.6,2.1
			s3.6,9.7,5.6,10c2.3,0.1,4.6,0.1,7-0.1l1.6,5.6L24.4,55.3z"/>
		<path id="Path_632" class="st7" d="M82.1,88.3c-8.4,3.1-13.8,4.6-22.2,7.8c-4.7,1.7-10.6,3.7-15,4.8c-2.9,0.8-6.3,1-9.2-0.2
			c-2.4-1.1-4.2-3.2-5.8-5.3c-7.5-9.9-11.6-22.4-14.6-34.5l10.1-1.9l18.3,25.6L77,73.1l5.5,13.5c0.4,0.4,0.4,1,0,1.4
			C82.3,88.1,82.2,88.2,82.1,88.3L82.1,88.3z"/>
		<path id="Path_633" class="st5" d="M82.4,66.9c-6.2,1.9-9.7,8.5-7.8,14.8c0.7,2.2,2,4.2,3.8,5.7c1.4,1.1,3.3,2,4.9,0.3
			c0.5-0.6,0.9-1.2,1.1-1.9C86.2,79.4,85.5,72.7,82.4,66.9L82.4,66.9z"/>
		<path id="Path_634" class="st9" d="M77.3,70.1c0,0,0-0.1,0.1-0.2c0.1-0.2,0.3-0.3,0.5-0.5c0.1-0.1,0.3-0.2,0.5-0.2
			c0.2,0,0.4,0,0.6,0.1c0.2,0.1,0.4,0.2,0.6,0.4l0.4,0.6c1.6,2.1,2.7,4.6,3.2,7.1c0.5,2.6,0.5,5.3-0.2,7.8c-0.2,0.8-0.7,1.5-1.2,2.1
			c-0.2,0.2-0.5,0.4-0.8,0.4c0.2-0.2,0.5-0.4,0.6-0.6c0.5-0.6,0.9-1.3,1.1-2c0.6-2.5,0.6-5.1,0.1-7.7c-0.5-2.5-1.5-4.9-3-7.1
			c-0.3-0.4-0.5-0.9-0.9-1c-0.3-0.2-0.6-0.2-0.9,0C77.5,69.9,77.3,70.2,77.3,70.1z"/>
		<path id="Path_635" class="st6" d="M43.7,84.5c0.1,0.2,0.1,0.5,0.1,0.7c0.1,0.7,0.1,1.4,0.1,2.1c0,1-0.2,2-0.5,3
			c-0.9,3.4-3.1,6.4-6,8.4c-0.6,0.4-1.2,0.7-1.8,1.1c-0.2,0.1-0.5,0.2-0.7,0.3c0-0.1,0.9-0.6,2.3-1.6c1.8-1.3,3.3-3,4.4-4.9
			c0.6-1.1,1.1-2.2,1.4-3.4c0.3-1,0.5-1.9,0.5-2.9C43.8,85.6,43.6,84.5,43.7,84.5z"/>
		<path id="Path_636" class="st6" d="M75.4,76.3c0,0.1-7,2.9-15.8,6.2s-15.9,5.9-15.9,5.7s7-2.9,15.8-6.2S75.4,76.1,75.4,76.3z"/>
		<path id="Path_637" class="st6" d="M18.6,60.6c0.1,0.1,0.1,0.3,0.2,0.4l0.4,1.2c0.4,1,0.9,2.5,1.6,4.3c1.4,3.6,3.4,8.5,6.1,13.8
			c1.3,2.6,2.7,5.1,3.9,7.3s2.5,4.2,3.6,5.8c0.5,0.8,1,1.5,1.5,2.2s0.8,1.2,1.1,1.6l0.7,1c0.2,0.2,0.2,0.4,0.2,0.4
			c-0.1-0.1-0.2-0.2-0.3-0.3l-0.8-1c-0.3-0.4-0.8-0.9-1.2-1.6s-1-1.3-1.5-2.1c-1.1-1.6-2.3-3.5-3.7-5.7s-2.6-4.7-4-7.3
			c-2.3-4.5-4.2-9.1-6-13.9c-0.7-1.8-1.1-3.3-1.5-4.3c-0.1-0.5-0.3-0.9-0.4-1.2C18.6,61,18.6,60.8,18.6,60.6L18.6,60.6z"/>
		<path id="Path_638" class="st6" d="M50.3,87.6c0.2-0.1,0.2-0.3,0.1-0.5c0,0-0.1-0.1-0.1-0.1c-0.2-0.1-0.4,0-0.5,0.1s0,0.4,0.1,0.5
			C50,87.7,50.2,87.7,50.3,87.6"/>
		<path id="Path_639" class="st6" d="M36.2,91.8c0.2-0.1,0.2-0.3,0.1-0.5s-0.3-0.2-0.5-0.1c-0.1,0.1-0.2,0.2-0.2,0.3
			c0,0.2,0.2,0.4,0.4,0.4C36.1,91.8,36.1,91.8,36.2,91.8"/>
		<path id="Path_640" class="st6" d="M29.8,81.8c0.2-0.1,0.2-0.3,0.1-0.5c-0.1-0.2-0.3-0.2-0.5-0.1c-0.1,0.1-0.2,0.2-0.2,0.3
			c0,0.2,0.2,0.4,0.4,0.4C29.7,81.8,29.7,81.8,29.8,81.8"/>
		<path id="Path_641" class="st6" d="M58.5,84.7c0.2-0.1,0.2-0.3,0.1-0.5s-0.3-0.2-0.5-0.1c-0.1,0.1-0.2,0.2-0.2,0.3
			c0,0.2,0.2,0.4,0.4,0.4C58.4,84.8,58.5,84.8,58.5,84.7"/>
		<path id="Path_642" class="st6" d="M67.9,81.5c0.2-0.1,0.4,0,0.5,0.2c0,0,0,0.1,0,0.1c0,0.2-0.2,0.4-0.4,0.4c0,0-0.1,0-0.1,0
			c-0.2-0.1-0.3-0.3-0.2-0.5C67.8,81.6,67.8,81.6,67.9,81.5"/>
		<path id="Path_643" class="st5" d="M15.1,60.9c3.5-0.2,6.9-0.7,10.3-1.5c1.4-0.3,2.9-0.8,3.3-2.1c0.3-1-0.1-2-0.9-2.7
			c-0.8-0.6-1.7-1-2.7-1.2c-3-0.6-6.2-0.4-9.1,0.7c-1,0.3-2,0.9-2.8,1.7c-0.8,0.8-1,2-0.7,3.1C12.9,60.1,13.9,60.9,15.1,60.9"/>
		<path id="Path_644" class="st9" d="M28.3,56c0,0.1-0.9-0.4-2.4-0.8c-3.9-1-8-0.3-11.2,2c-1.2,0.9-1.9,1.6-1.9,1.5
			c0.1-0.2,0.2-0.4,0.4-0.5c0.4-0.5,0.9-0.9,1.3-1.3c3.3-2.6,7.6-3.3,11.5-2.1c0.6,0.2,1.2,0.4,1.7,0.7C27.9,55.8,28.1,55.9,28.3,56
			L28.3,56z"/>
		<path id="Path_645" class="st7" d="M98.3,227.9c-2.7,0.3-4.9,2.6-5.8,5.2s-0.9,5.4-0.8,8.2c0.4,16.8,0.8,33.6,2.7,50.3
			c0.4,3.6,1,7.4,3.4,10.2s7.2,3.7,9.6,0.9c1.3-1.6,1.5-3.8,1.6-5.9c1-20.1,2-40.2,3-60.2c0.1-2.3,0.2-4.7-1.1-6.6
			c-1.3-1.7-3.4-2.8-5.6-2.8c-2.2,0-4.4,0.3-6.5,0.9"/>
		<path id="Path_646" class="st7" d="M84.1,152c0.5,21.1,2.7,42.1,8,62.5c0.9,3.5,2,7.1,4.5,9.7s6.9,3.8,9.8,1.6
			c2.5-1.8,3.1-5.3,3.4-8.3c2.7-22.6,4.2-45.3,4.5-68c0,0,0.7-17.4-11.6-17.4S83.7,139.1,84.1,152z"/>
		<g id="Group_24" transform="translate(85.368 137.923)" class="st8">
			<path id="Path_647" class="st6" d="M8.9,79.6c-0.3,0-1.3-4.4-2.6-11.6S3.3,50.8,2,39.6C1.4,34,0.9,28.7,0.5,23.8s-0.7-9.3-0.2-13
				c0.3-3,1.2-5.9,2.8-8.4l0.9-1.1C4.1,1,4.4,0.7,4.6,0.5C5,0.1,5.3,0,5.3,0S5.3,0.3,5,0.8C4.9,1,4.7,1.3,4.5,1.6S4.1,2.4,3.8,2.8
				C2.6,5.4,2,8.1,1.8,11c-0.1,4.2,0.1,8.5,0.7,12.7c0.5,4.8,1.1,10.1,1.7,15.7C5.6,50.5,7,60.5,7.9,67.8S9.2,79.6,8.9,79.6z"/>
		</g>
		<path id="Path_648" class="st6" d="M101,226.8c0-0.1-0.1-0.2-0.1-0.2l-0.2-0.7l-0.6-2.7c-0.5-2.4-1.3-5.8-2-10.1
			c-1.6-8.6-3.2-20.6-4.3-33.9c-0.6-6.6-1.1-13-1.5-18.7c-0.2-2.9-0.4-5.6-0.6-8.2c-0.2-2.4-0.3-4.8-0.2-7.2c0.1-2,0.5-3.9,1.1-5.8
			c0.5-1.4,1.2-2.7,2.2-3.9c0.6-0.7,1.3-1.4,2-1.9c0.3-0.2,0.6-0.4,0.9-0.5c-1,0.7-2,1.6-2.7,2.6c-0.9,1.2-1.6,2.5-2.1,3.9
			c-0.6,1.9-1,3.8-1,5.7c-0.1,2.4,0,4.8,0.2,7.1c0.2,2.6,0.4,5.3,0.6,8.2c0.4,5.8,0.9,12.1,1.5,18.7c1.1,13.3,2.7,25.2,4.2,33.8
			c0.7,4.3,1.4,7.8,1.9,10.2c0.2,1.2,0.4,2.1,0.6,2.8c0.1,0.3,0.1,0.5,0.1,0.7C101,226.6,101,226.7,101,226.8z"/>
		<path id="Path_649" class="st6" d="M98.6,301.6c-0.1-0.2-0.1-0.5-0.1-0.7c-0.1-0.5-0.2-1.2-0.3-2.1c-0.2-1.8-0.5-4.4-0.8-7.6
			c-0.6-6.5-1.4-15.4-1.9-25.3s-0.8-18.8-0.9-25.3c0-3.2,0-5.9,0-7.7v-2.1c0-0.2,0-0.5,0-0.7c0,0.2,0.1,0.5,0.1,0.7
			c0,0.5,0,1.2,0.1,2.1c0,1.9,0.1,4.5,0.2,7.7c0.2,6.5,0.4,15.4,1,25.3s1.2,18.8,1.8,25.2c0.3,3.2,0.5,5.8,0.7,7.7
			c0.1,0.9,0.1,1.6,0.2,2.1C98.6,301.1,98.6,301.4,98.6,301.6z"/>
		<circle id="Ellipse_25" class="st5" cx="101.3" cy="226.4" r="10.6"/>
		<path id="Path_650" class="st5" d="M95.1,311c0-1.7,0-6.5,0.5-8.2c0.4-1.7,1.5-3.1,2.9-4.1c1.2-0.6,2.6-0.8,3.9-0.7
			c1.3,0,2.6,0.4,3.8,1.1c1.7,1.3,2.6,3.4,2.5,5.5l0.4,6.4"/>
		<path id="Path_651" class="st7" d="M95.4,309l14.9-0.1c0,0,11,2.3,10.8,3.1s-26,0.3-26,0.3L95.4,309z"/>
		<path id="Path_652" class="st6" d="M95.8,169.6c0.2-0.1,0.4,0,0.5,0.2c0,0,0,0.1,0,0.1c0,0.2-0.1,0.4-0.3,0.4
			c-0.2,0-0.4-0.1-0.4-0.3C95.6,169.8,95.6,169.7,95.8,169.6"/>
		<path id="Path_653" class="st6" d="M94.7,153.7c0.2-0.1,0.4-0.1,0.5,0.1c0.1,0.2,0.1,0.4-0.1,0.5c-0.1,0.1-0.2,0.1-0.4,0
			c-0.2-0.1-0.2-0.3-0.1-0.5C94.6,153.7,94.7,153.7,94.7,153.7"/>
		<path id="Path_654" class="st6" d="M97.1,189.1c0.2-0.1,0.4,0,0.5,0.2c0,0,0,0.1,0,0.1c0,0.2-0.2,0.4-0.4,0.4c0,0-0.1,0-0.1,0
			c-0.2-0.1-0.3-0.3-0.2-0.5C97,189.2,97,189.2,97.1,189.1"/>
		<path id="Path_655" class="st6" d="M99.8,211.1c0.2-0.1,0.4,0,0.5,0.2c0,0,0,0.1,0,0.1c0,0.2-0.2,0.4-0.4,0.4c0,0-0.1,0-0.1,0
			c-0.2-0.1-0.3-0.3-0.2-0.5C99.7,211.2,99.7,211.1,99.8,211.1"/>
		<path id="Path_656" class="st6" d="M96.7,244.6c0.2-0.1,0.4-0.1,0.5,0.1c0.1,0.2,0.1,0.4-0.1,0.5c-0.1,0.1-0.2,0.1-0.3,0
			c-0.2-0.1-0.3-0.3-0.2-0.5C96.7,244.7,96.7,244.6,96.7,244.6"/>
		<path id="Path_657" class="st6" d="M98.4,261.9c0.2-0.1,0.4-0.1,0.5,0.1c0.1,0.2,0.1,0.4-0.1,0.5c-0.1,0.1-0.2,0.1-0.4,0
			c-0.2-0.1-0.3-0.3-0.2-0.5C98.3,262,98.4,261.9,98.4,261.9"/>
		<path id="Path_658" class="st6" d="M98.6,281.3c0.2-0.1,0.4-0.1,0.5,0.1c0.1,0.2,0.1,0.4-0.1,0.5c-0.1,0.1-0.2,0.1-0.3,0
			c-0.2-0.1-0.3-0.3-0.2-0.5C98.6,281.4,98.6,281.3,98.6,281.3"/>
		<path id="Path_659" class="st9" d="M111.7,224.3c-0.2,0.2-0.4,0.4-0.6,0.6c-0.6,0.5-1.3,1-1.9,1.4c-4.7,2.8-10.5,3-15.3,0.4
			c-0.7-0.4-1.4-0.8-2-1.3c-0.2-0.2-0.5-0.4-0.6-0.6c0.1-0.1,1,0.8,2.8,1.6c4.7,2.4,10.3,2.2,15-0.4
			C110.7,225.1,111.6,224.3,111.7,224.3z"/>
		<path id="Path_660" class="st9" d="M108.6,304.4c-0.6,0.3-1.2,0.6-1.9,0.7c-1.6,0.4-3.2,0.7-4.8,0.8c-1.6,0.1-3.2,0-4.8-0.3
			c-0.7-0.1-1.3-0.3-1.9-0.5c2.2,0.3,4.5,0.4,6.7,0.4C104.2,305.3,106.5,304.9,108.6,304.4z"/>
		<path id="Path_661" class="st6" d="M119.7,23.4c0.2,0.6,0.2,1.3,0,1.9c-0.2,0.7-0.5,1.3-1,1.8c-1.7,1.8-4.5,1.9-6.3,0.2
			c-0.1-0.1-0.2-0.2-0.3-0.3c-0.5-0.5-0.8-1.1-0.9-1.7c0.3,0.5,0.7,1,1.1,1.5c0.5,0.5,1,0.8,1.6,1c0.8,0.3,1.6,0.3,2.4,0.1
			c0.8-0.2,1.5-0.6,2.1-1.1c0.5-0.5,0.8-1,1-1.7C119.5,24.6,119.6,24,119.7,23.4z"/>
	</g>
	<g id="freepik--Plant--inject-16" transform="translate(103.094 357.654)">
		<path id="Path_662" class="st9" d="M10.8,0c2.6,0.4,4.8,1.9,6.3,4c1.4,2.1,2.4,4.6,2.7,7.1c0.8,4.9-0.5,10.4-2.3,15
			c-5-2.3-7.6-8.1-8.8-11.2C6.8,10.2,6.4,0.4,10.8,0"/>
		<path id="Path_663" class="st9" d="M24.8,33c-1.5-2.5-1.6-5.6-0.2-8.2c1.4-2.5,3.8-4.3,6.6-5.1c1.3-0.5,2.6-0.4,3.8,0.3
			c1,0.8,1.5,2,1.3,3.3c-0.2,1.2-0.8,2.4-1.6,3.3C32.1,30,29,32.8,24.8,33"/>
		<path id="Path_664" class="st5" d="M23.5,48.5c-0.1-0.3-0.2-0.7-0.2-1c-0.1-0.7-0.2-1.6-0.2-2.8c-0.2-3.1,0-6.3,0.6-9.3
			c0.6-3.1,2.1-6,4.2-8.3c0.7-0.7,1.4-1.3,2.2-1.8c0.3-0.2,0.6-0.4,0.9-0.5c-1,0.8-2,1.6-2.8,2.5c-2,2.3-3.4,5.1-4,8.2
			c-0.6,3-0.8,6.1-0.7,9.2C23.6,45.9,23.6,47.2,23.5,48.5z"/>
		<path id="Path_665" class="st5" d="M11.9,7.4c0.3,0.5,0.5,1,0.6,1.6c0.4,1,0.9,2.5,1.5,4.4c1.2,3.8,2.8,9,4.5,14.7
			s3,11.1,3.9,14.9c0.5,1.9,0.8,3.5,1,4.6c0.1,0.6,0.3,1.1,0.3,1.7c-0.2-0.5-0.4-1.1-0.5-1.6L22,43.2c-1-3.8-2.4-9.1-4-14.8
			s-3.2-11-4.3-14.8c-0.5-1.8-1-3.3-1.3-4.5C12.2,8.5,12,8,11.9,7.4z"/>
		<path id="Path_666" class="st9" d="M18.2,37.6c-2.5-5.6-7.6-9.6-13.6-10.8c-1.5-0.3-3.4-0.2-4.2,1s-0.1,3,0.8,4.3
			c4,5.2,10.7,7.6,17,5.9"/>
		<path id="Path_667" class="st5" d="M6.2,31.2c0.3,0,0.7,0,1,0.1c0.4,0.1,0.8,0.1,1.1,0.2c0.5,0.1,1,0.3,1.5,0.4
			c1.3,0.5,2.5,1,3.7,1.7c1.4,0.9,2.7,1.9,3.9,3c1.2,1.2,2.2,2.4,3.1,3.8c0.7,1.1,1.3,2.3,1.8,3.6c0.2,0.5,0.4,1,0.5,1.5
			c0.1,0.4,0.2,0.8,0.3,1.1c0.1,0.3,0.1,0.7,0.1,1c-0.1,0-0.4-1.4-1.3-3.5c-0.5-1.2-1.2-2.4-1.9-3.5c-0.9-1.3-1.9-2.6-3.1-3.7
			c-1.2-1.1-2.4-2.1-3.8-3c-1.1-0.7-2.3-1.3-3.5-1.8C7.6,31.5,6.2,31.3,6.2,31.2z"/>
	</g>
	<g id="freepik--Cube--inject-16" transform="translate(310.6 43.221)">
		<path id="Path_668" class="st7" d="M59.4,20.6c-3-10.3-14.2-19.9-24.9-19.9C25.5-1.9,13.4,3,8.6,8.4c-6.3,7-10.4,16.7-7.8,25.8
			c2.8,9.2,9.7,16.5,18.7,19.9c10,3.8,22.1,2.3,30.5-4.5S62.4,31,59.4,20.6z"/>
		<path id="Path_669" class="st11" d="M59.4,20.6c-3-10.3-14.2-19.9-24.9-19.9C25.5-1.9,13.4,3,8.6,8.4c-6.3,7-10.4,16.7-7.8,25.8
			c2.8,9.2,9.7,16.5,18.7,19.9c10,3.8,22.1,2.3,30.5-4.5S62.4,31,59.4,20.6z"/>
		<path id="Path_670" class="st6" d="M44,36c0-0.1,0-0.2,0-0.3v-0.9c0-0.8,0-1.8,0-3.2c0-2.8-0.1-6.7-0.1-11.6l0.1,0.1l-13.8-7.9
			h0.2l-13.8,8c-0.1,0.2,0.1-0.2,0.1-0.2l0,0v16l-0.1-0.2l13.7,8h-0.2l10.1-5.7l2.8-1.6l0.7-0.4L44,36c0,0.1-0.1,0.2-0.2,0.2
			l-0.7,0.4l-2.7,1.6l-10.1,5.9l-0.1,0.1l-0.1-0.1l-13.8-7.9l-0.1-0.1v-16l0,0c0,0,0.2-0.4,0.1-0.2L30.2,12l0.1-0.1l0.1,0.1l13.7,8
			l0.1,0.1v0.1c0,4.9-0.1,8.9-0.1,11.7c0,1.3,0,2.4,0,3.2v0.8C44.1,36,44,36,44,36z"/>
		<path id="Path_671" class="st6" d="M44,20.1c-0.3,0.3-0.7,0.5-1,0.7L40,22.5c-2.5,1.5-5.9,3.4-9.7,5.7H30l-0.1-0.1l-0.2-0.1
			l-0.4-0.2l-0.7-0.4l-1.4-0.9l-2.6-1.5l-4.3-2.6l-2.9-1.7c-0.4-0.2-0.7-0.4-1-0.7c0.4,0.1,0.8,0.3,1.1,0.6l3,1.6l4.4,2.5l2.6,1.5
			l1.4,0.8l0.7,0.4l0.4,0.2l0.2,0.1l0.1,0.1h-0.2c3.8-2.1,7.2-4.1,9.8-5.5l3-1.6C43.2,20.4,43.6,20.3,44,20.1z"/>
		<path id="Path_672" class="st6" d="M30.2,43.8c-0.2-2.6-0.3-5.3-0.2-7.9c-0.1-2.6,0-5.3,0.2-7.9c0.2,2.6,0.3,5.3,0.2,7.9
			C30.5,38.5,30.5,41.1,30.2,43.8z"/>
	</g>
	<g id="freepik--Gears--inject-16" transform="translate(107.053 200.941)">
		<path id="Path_673" class="st12" d="M38.3,10.7c0.6-1.1,1.3-2.1,2.1-3l-1.2-3.2L44,1.4l2.4,2.4c1.2-0.4,2.4-0.6,3.6-0.7L51.5,0
			L57,1.2v3.4c1.1,0.6,2.1,1.3,3,2.1l3.2-1.2l3.1,4.8l-2.4,2.4c0.4,1.2,0.6,2.4,0.7,3.6l3.1,1.4l-1.2,5.5H63c-0.6,1.1-1.3,2.1-2.1,3
			l1.2,3.2l-4.8,3.1l-2.4-2.4c-1.2,0.4-2.4,0.6-3.6,0.7L49.8,34l-5.5-1.2v-3.5c-1.1-0.6-2.1-1.3-3-2.1l-3.2,1.2L35,23.7l2.4-2.4
			c-0.4-1.2-0.6-2.4-0.7-3.6l-3.1-1.4l1.2-5.5L38.3,10.7L38.3,10.7z M44.8,15.5c0-2.3,1.9-4.1,4.1-4.1c2.3,0,4.1,1.9,4.1,4.1
			s-1.9,4.1-4.1,4.1C46.6,19.6,44.8,17.8,44.8,15.5L44.8,15.5z"/>
		<path id="Path_674" class="st13" d="M38.3,10.7c0.6-1.1,1.3-2.1,2.1-3l-1.2-3.2L44,1.4l2.4,2.4c1.2-0.4,2.4-0.6,3.6-0.7L51.5,0
			L57,1.2v3.4c1.1,0.6,2.1,1.3,3,2.1l3.2-1.2l3.1,4.8l-2.4,2.4c0.4,1.2,0.6,2.4,0.7,3.6l3.1,1.4l-1.2,5.5H63c-0.6,1.1-1.3,2.1-2.1,3
			l1.2,3.2l-4.8,3.1l-2.4-2.4c-1.2,0.4-2.4,0.6-3.6,0.7L49.8,34l-5.5-1.2v-3.5c-1.1-0.6-2.1-1.3-3-2.1l-3.2,1.2L35,23.7l2.4-2.4
			c-0.4-1.2-0.6-2.4-0.7-3.6l-3.1-1.4l1.2-5.5L38.3,10.7L38.3,10.7z M44.8,15.5c0-2.3,1.9-4.1,4.1-4.1c2.3,0,4.1,1.9,4.1,4.1
			s-1.9,4.1-4.1,4.1C46.6,19.6,44.8,17.8,44.8,15.5L44.8,15.5z"/>
		<path id="Path_675" class="st0" d="M3.4,16.2c0.4-0.8,0.9-1.5,1.5-2.2l-0.9-2.3l3.4-2.2l1.7,1.7c0.8-0.3,1.7-0.4,2.6-0.5l1-2.2
			l4,0.9v2.5c0.8,0.4,1.5,0.9,2.2,1.5l2.3-0.9l2.2,3.4l-1.7,1.8c0.3,0.8,0.4,1.7,0.5,2.6l2.2,1l-0.9,4h-2.5
			c-0.4,0.8-0.8,1.6-1.4,2.3l0.9,2.3l-3.4,2.2l-1.8-1.7c-0.8,0.3-1.7,0.4-2.6,0.5l-1,2.2l-4-0.9v-2.5c-0.8-0.4-1.5-0.9-2.2-1.5
			l-2.3,0.9l-2.2-3.4L2.9,24c-0.3-0.8-0.4-1.7-0.5-2.6l-2.2-1l0.9-4L3.4,16.2L3.4,16.2z M8.2,19.7c0-2,1.7-3.7,3.7-3.7
			c2,0,3.7,1.7,3.7,3.7c0,2-1.7,3.7-3.7,3.7C9.8,23.4,8.2,21.7,8.2,19.7L8.2,19.7z"/>
		<path id="Path_676" class="st5" d="M8.2,19.7v-0.3c0-0.3,0.1-0.5,0.2-0.8c0.4-0.9,1.1-1.7,2.1-2.1c2.3-1.1,5-0.1,6.1,2.1
			c1.1,2.3,0.1,5-2.1,6.1c-1.9,0.9-4.1,0.4-5.5-1.2c-0.7-0.8-1-1.8-1-2.8c0-0.3,0-0.5,0.1-0.8C8.1,19.8,8.2,19.7,8.2,19.7
			c0,0.4,0,0.7,0,1.1c0.1,1,0.5,1.9,1.1,2.6c1.5,1.7,4.2,1.9,5.9,0.4c1.7-1.5,1.9-4.2,0.4-5.9c-1.2-1.4-3.2-1.8-4.9-1
			c-0.9,0.4-1.6,1.1-2.1,1.9C8.3,19.3,8.2,19.7,8.2,19.7z"/>
		<path id="Path_677" class="st5" d="M3.4,16.2c-0.2,0-0.4,0-0.6,0L1,16.3L1,16.2c-0.2,1-0.5,2.4-0.8,4l-0.1-0.1l2.3,1h0.1v0.1
			c0,0.9,0.2,1.8,0.5,2.6v0.1L2.9,24l-1.7,1.8v-0.2c0.7,1.1,1.4,2.2,2.2,3.5l-0.2-0.1l2.3-0.9h0.1l0.1,0.1c0.7,0.6,1.4,1.1,2.2,1.5
			L8,29.7v2.6l-0.2-0.2l4,0.9L11.6,33l1-2.2l0.1-0.1h0.1c0.9,0,1.8-0.2,2.6-0.5l0.1,0l0.1,0.1c0.6,0.5,1.2,1.1,1.8,1.7h-0.3l3.4-2.2
			L20.5,30l-0.9-2.3l0-0.1l0.1-0.1c0.6-0.6,1.1-1.4,1.5-2.1l0,0l0.2-0.1h2.6l-0.2,0.2c0.3-1.3,0.6-2.7,0.9-4l0.1,0.2l-2.2-1
			l-0.1-0.1v-0.1c0-0.9-0.2-1.8-0.5-2.6l0-0.1l0.1-0.1l1.7-1.7v0.3c-0.8-1.2-1.5-2.3-2.2-3.4l0.2,0.1l-2.3,0.9h-0.1l-0.1-0.1
			c-0.6-0.6-1.4-1.1-2.1-1.5L16.8,12V9.4L17,9.6l-4-0.9l0.2-0.1l-1,2.2l0,0.1H12c-0.9,0-1.7,0.2-2.6,0.5H9.3l-0.1-0.1L7.5,9.7h0.2
			l-3.4,2.2v-0.1l0.9,2.3v0l0,0c-0.5,0.5-0.9,1-1.2,1.6c-0.1,0.2-0.2,0.4-0.4,0.6l0.1-0.2c0-0.1,0.1-0.2,0.2-0.4
			C4.2,15.1,4.6,14.5,5,14v0.1c-0.2-0.6-0.5-1.4-0.9-2.3v-0.1l0.1,0l3.4-2.3l0.1-0.1l0.1,0.1l1.8,1.7H9.5c0.9-0.3,1.8-0.5,2.7-0.5
			L12,10.7l1-2.3l0.1-0.1h0.1l4,0.9h0.1v0.1c0,0.8,0,1.6,0,2.5l-0.1-0.2c0.8,0.4,1.6,0.9,2.2,1.5h-0.2l2.3-0.9l0.2-0.1l0.1,0.1
			c0.7,1.1,1.5,2.3,2.2,3.4l0.1,0.1l-0.1,0.1l-1.7,1.8l0.1-0.2c0.3,0.9,0.4,1.8,0.5,2.7l-0.1-0.2l2.2,1l0.2,0.1v0.2
			c-0.3,1.3-0.6,2.6-0.9,4v0.2h-2.6l0.2-0.1l0,0c-0.4,0.8-0.9,1.6-1.5,2.2v-0.2l0.9,2.3l0.1,0.2l-0.1,0.1l-3.4,2.2l-0.1,0.1
			l-0.1-0.1l-1.7-1.7l0.2,0.1c-0.9,0.3-1.8,0.4-2.7,0.5l0.2-0.1c-0.4,0.8-0.7,1.5-1,2.2l-0.1,0.2h-0.2l-4-0.9H8v-2.6l0.1,0.2
			c-0.8-0.4-1.6-0.9-2.2-1.5H6l-2.3,0.9H3.6l-0.1-0.1l-2.2-3.4l-0.1-0.1l0.1-0.1L3,23.9V24c-0.3-0.9-0.4-1.8-0.5-2.7l0.1,0.1
			l-2.2-1.1H0.3v-0.1c0.4-1.6,0.7-3,0.9-4v-0.1h2.1L3.4,16.2z"/>
		<path id="Path_678" class="st5" d="M8.2,19.7c0-0.2,0.1-0.4,0.1-0.5c0.2-0.5,0.4-1,0.8-1.4c1.6-1.9,4.4-2.1,6.2-0.5
			c1.9,1.6,2.1,4.4,0.5,6.2c-0.8,0.9-1.8,1.4-3,1.5c-0.9,0.1-1.8-0.1-2.6-0.6c-0.8-0.5-1.5-1.2-1.9-2C8.2,22.1,8,21.6,8,21.1
			c0-0.2,0-0.5,0-0.7v-0.7l0,0c0,0.1,0.1,0.2,0.2,0.2l0.2-0.1c-0.1,0.2-0.1,0.4-0.1,0.5c-0.2,1.8,0.9,3.5,2.5,4.2
			c2.2,0.9,4.7-0.1,5.6-2.3c0.3-0.8,0.4-1.7,0.2-2.5c-0.5-2.3-2.8-3.8-5.1-3.3c-0.9,0.2-1.8,0.7-2.4,1.4C8.7,18.3,8.4,19,8.2,19.7
			c0-0.2,0.1-0.4,0.1-0.6c0.1-0.5,0.4-1,0.7-1.4c0.5-0.7,1.3-1.2,2.1-1.5c1.1-0.4,2.3-0.3,3.4,0.2c2.3,1.1,3.4,3.9,2.3,6.2
			c-1.1,2.3-3.9,3.4-6.2,2.3c-1.8-0.8-2.9-2.7-2.7-4.6c0-0.2,0.1-0.4,0.1-0.7l0.1-0.2h0.2c0.1,0,0.2,0.1,0.2,0.2v0.7
			c0,0.2,0,0.4,0,0.7c0.3,2.2,2.3,3.8,4.5,3.6c2.2-0.3,3.8-2.3,3.6-4.5c-0.2-1.3-1-2.5-2.2-3.2c-1-0.5-2.1-0.6-3.1-0.3
			c-0.8,0.2-1.5,0.7-2,1.3C8.8,18.4,8.4,19,8.2,19.7L8.2,19.7z"/>
		<path id="Path_679" class="st5" d="M3.4,16.2H1c-0.2,1-0.5,2.4-0.9,4.1l0-0.1l2.3,1.1l-0.1,0.1v-0.1l0.2-0.1
			c0.1,0.9,0.2,1.8,0.5,2.6H2.7v-0.1l0.2,0.1l-1.8,1.9v-0.1c0.7,1.1,1.5,2.3,2.3,3.6l-0.2-0.1l2.4-0.9v0.3H5.5l0.1-0.2
			c0.7,0.6,1.4,1.1,2.2,1.5L7.6,30l-0.1-0.1l0.3-0.1v2.6l-0.1-0.2l4.2,0.9l-0.2,0.1c0.3-0.7,0.7-1.5,1.1-2.3l0.2,0.2L13,31.2
			l-0.1-0.3c0.9,0,1.8-0.2,2.6-0.5v0.3h-0.1l0.2-0.3l1.8,1.8h-0.2l3.6-2.3l-0.1,0.2c-0.3-0.7-0.6-1.6-0.9-2.4h0.4v0.1l-0.3-0.2
			c0.6-0.7,1.1-1.4,1.5-2.2l0.3,0.3l-0.1,0.1l-0.1-0.4h2.6l-0.2,0.2l0.9-4.2l0.1,0.2l-2.3-1.1l0.3-0.3l0.1,0.1l-0.4,0.1
			c0-0.9-0.2-1.8-0.5-2.6h0.4V18l-0.3-0.2l1.8-1.8v0.3l-2.3-3.6l0.3,0.1l-2.4,0.9v-0.4h0.1l-0.2,0.4c-0.7-0.6-1.4-1.1-2.2-1.5
			l0.3-0.3l0.1,0.1L16.9,12c0-0.8,0-1.7,0-2.6L17,9.6l-4.2-0.9l0.2-0.1l-1.1,2.3l-0.3-0.3l0.1-0.1L12,11c-0.9,0-1.8,0.2-2.6,0.5V11
			h0.1l-0.2,0.4L7.4,9.7h0.3L4.2,12l0.1-0.3l0.9,2.4H4.7l0.4,0.2c-0.5,0.6-0.9,1.2-1.3,1.9l-0.1,0.2h0C3.8,16.3,3.4,16.1,3.4,16.2
			L3.4,16.2l0.1-0.4c0.1-0.2,0.3-0.4,0.4-0.7c0.3-0.4,0.6-0.8,1-1.2v0.2c-0.3-0.8-0.6-1.6-0.9-2.3h0.4V12l-0.3-0.3l3.4-2.2l0.1,0.4
			H7.6l0.2-0.4c0.6,0.6,1.2,1.2,1.8,1.7l-0.2-0.1c0.9-0.3,1.8-0.5,2.8-0.5l-0.2,0.1L13,8.5l0.3,0.3l-0.1,0.1l-0.1-0.4l4,0.9
			l-0.2,0.3l-0.1-0.1l0.4-0.1V12l-0.1-0.2c0.8,0.4,1.6,1,2.3,1.6l-0.2,0l2.4-0.9v0.4l-0.1,0l0.2-0.3l2.2,3.4l-0.4,0.1v-0.1l0.4,0.2
			l-1.8,1.8l0.1-0.2c0.3,0.9,0.5,1.8,0.5,2.8l-0.1-0.2l2.3,1.1l-0.3,0.3l-0.1-0.1l0.4-0.1c-0.3,1.4-0.6,2.7-0.9,4l-0.3-0.2l0.1-0.1
			l0.1,0.4h-2.5l0.2-0.1c-0.4,0.8-1,1.6-1.6,2.3l0-0.2c0.3,0.9,0.6,1.6,0.9,2.4h-0.3l0-0.1l0.3,0.2l-3.4,2.2l-0.1-0.3h0.2l-0.1,0.3
			l-1.8-1.8l0.2,0c-0.9,0.3-1.8,0.5-2.8,0.5l0.1-0.1L12,33.2L11.8,33l0.1-0.1v0.3l-4-0.9l0.2-0.2l0.1,0.1l-0.3,0.1v-2.5L8,29.9
			c-0.8-0.4-1.6-1-2.3-1.6h0.1l-2.4,0.9v-0.2h0.1l-0.1,0.2l-2.2-3.5l0.2-0.1v0.1l-0.2-0.1l1.7-1.8V24c-0.3-0.9-0.5-1.8-0.5-2.7
			l0.1,0.1l-2.3-1.1l0.1-0.1v0.1H0.1c0.4-1.7,0.6-3,0.9-4l0.1,0.1l0,0v-0.1h2.5c-0.2,0-0.4,0.1-0.6,0.1l-1.9,0.1H0.9l0.1-0.1l0,0
			l0.1-0.1v0.1c-0.2,1-0.5,2.3-0.8,4v0.2l-0.1-0.2v-0.1L0.2,20l0.2,0.1l2.3,1h0.1v0.1c0,0.9,0.2,1.8,0.5,2.7V24l-1.7,1.8L1.3,26
			v-0.8l0.2,0.3L3.7,29l0.2,0.3l-0.4-0.1l-0.1,0L3.1,29l0.4-0.1L5.8,28h0.1l0.1,0.1c0.7,0.6,1.4,1.1,2.3,1.5l0.1,0v0.1
			c0,0.8,0,1.6,0,2.5v0.4L8,32.4L8,32.3L7.7,32L8.1,32l4,0.9l0.5,0.1l-0.4,0.2L12,33.3l-0.4,0.2l0.2-0.4c0.3-0.7,0.7-1.5,1.1-2.3
			l0-0.1H13c0.9,0,1.8-0.2,2.7-0.5h0.1l0.1,0.1l1.8,1.8l0.4,0.4l-0.5-0.1h-0.2l-0.5,0l0.4-0.3l3.4-2.2l0.4-0.3L21,30L21,30.1
			l-0.2,0.5l-0.2-0.5l-0.9-2.4v-0.1l0.1-0.1c0.6-0.7,1.1-1.4,1.5-2.3l0.1-0.1h3.2l-0.4,0.4l-0.1,0.1L23.7,26l0.1-0.6
			c0.3-1.3,0.6-2.6,0.9-4l0.1-0.6l0.3,0.5l0.1,0.1l0.3,0.5l-0.5-0.2l-2.3-1.1l-0.1-0.1v-0.1c0-0.9-0.2-1.8-0.5-2.7v-0.1l0.1-0.1
			l1.8-1.8l0.4-0.4L24.2,16v0.1l-0.1,0.6l-0.3-0.5l-2.2-3.4l-0.3-0.5l0.6,0.2l0.1,0l0.6,0.2L21.9,13l-2.4,0.9l-0.1,0l-0.1-0.1
			c-0.7-0.6-1.4-1.1-2.2-1.5L17,12.2V8.9l0.4,0.5l0.1,0.1l0.4,0.5l-0.6-0.1l-4-0.9l-0.6-0.1l0.6-0.3l0.1-0.1l0.6-0.3l-0.3,0.6
			c-0.3,0.8-0.7,1.5-1.1,2.3l-0.1,0.1h-0.1c-0.9,0-1.8,0.2-2.6,0.5H9.6l-0.1-0.1L7.7,9.9L7.2,9.4l0.6,0.1H8l0.6,0.1L8.1,9.9
			l-3.4,2.2l-0.5,0.3l0.2-0.6v-0.1l0.2-0.6l0.2,0.6c0.3,0.8,0.6,1.6,0.9,2.3v0.1l-0.1,0.1c-0.3,0.4-0.6,0.7-0.9,1.2
			c-0.1,0.2-0.3,0.4-0.4,0.6L4,16.5v0l0,0c-0.1,0.1-0.4-0.1-0.3-0.1l0,0v-0.1c0-0.1,0-0.1,0.1-0.2l0.1-0.2c0.4-0.7,0.8-1.4,1.4-2
			l0.5-0.6l-0.2,0.8l0,0l-0.1,0.8l-0.3-0.7l-0.9-2.4l-0.1-0.2l0.1-0.1l3.5-2.3L8,9.2l0.1,0.1c0.6,0.6,1.3,1.2,1.8,1.8l0.6,0.6
			l-0.8-0.2H9.6l-0.8-0.2L9.6,11c0.9-0.3,1.8-0.5,2.7-0.5h0.8l-0.7,0.4L12.4,11l-0.7,0.4l0.3-0.7c0.4-0.8,0.7-1.6,1.1-2.3l0.1-0.2
			h0.2l4.2,0.9h0.2v3.5L17.3,12l-0.1-0.1l-0.4-0.7l0.7,0.3c0.8,0.4,1.6,0.9,2.3,1.6l0.6,0.5l-0.8-0.1h-0.1l-0.8-0.1l0.7-0.3l2.4-0.9
			l0.2-0.1l0.1,0.1l2.3,3.6l0.1,0.1l-0.1,0.1L22.6,18l-0.5,0.5l0.2-0.7v-0.1l0.2-0.7l0.2,0.7c0.3,0.9,0.5,1.8,0.5,2.7v0.7l-0.4-0.6
			l-0.1-0.1l-0.4-0.6l0.7,0.3l2.3,1.1l0.1,0.1v0.2c-0.3,1.5-0.6,2.9-0.9,4.2v0.2h-3.4l0.6-0.4l0.1-0.1l0.6-0.4L22,25.6
			c-0.4,0.8-0.9,1.6-1.6,2.3L20,28.3l0.1-0.7v-0.1l0.1-0.7l0.2,0.6l0.9,2.4l0.1,0.1l-0.1,0.1l-3.6,2.3l-0.1,0.1l-0.1-0.1l-1.8-1.8
			l-0.8-0.5l0.6,0.1h0.1l0.6,0.1l-0.6,0.2c-0.9,0.3-1.8,0.5-2.7,0.5h-0.6l0.5-0.3l0.1-0.1l0.5-0.3L13.2,31l-1.1,2.3L12,33.4h-0.1
			l-4.2-0.9H7.6v-3.2l0.3,0.4L8,29.8l0.3,0.4L7.8,30c-0.8-0.4-1.6-0.9-2.2-1.6l-0.4-0.3l0.5,0.1h0.1l0.5,0.1l-0.5,0.2l-2.4,0.9H3.3
			l-0.1-0.1l-2.3-3.6v-0.1L1,25.5l1.8-1.8L3,23.5l-0.1,0.4v0.1l-0.1,0.4l-0.1-0.4c-0.3-0.9-0.4-1.8-0.5-2.7v-0.3l0.2,0.3v0.1
			l0.2,0.3l-0.3-0.1l-2.3-1.1H0v-0.1l0.9-4.1h2.3L3.4,16.2z"/>
	</g>
	<g id="freepik--Screens--inject-16" transform="translate(33.73 31.17)">
		<path id="Path_680" class="st7" d="M125.3,84.6v7.7H0V8.4h8.4"/>
		<path id="Path_681" class="st14" d="M125.3,84.6v7.7H0V8.4h8.4"/>
		<rect id="Rectangle_36" x="8.7" y="0.3" class="st6" width="125.3" height="83.9"/>
		<path id="Path_682" class="st7" d="M134.1,84.2V61.4c0-14.6-0.1-35.5-0.1-61.1l0.2,0.2L8.8,0.6l0,0l0.2-0.2v83.9L8.9,84l90.3,0.1
			l25.8,0.1h0.1l-25.7,0L8.9,84.3H8.7V0h0.2l125.3,0.1h0.2v0.2c0,25.6-0.1,46.6-0.1,61.2c0,7.3,0,12.9,0,16.8v4.4
			C134.3,83.2,134.2,83.7,134.1,84.2z"/>
		<path id="Path_683" class="st7" d="M8.7,7.8c0-0.1,28-0.2,62.6-0.2S134,7.7,134,7.8S105.9,8,71.3,8S8.7,7.9,8.7,7.8z"/>
		<path id="Path_684" class="st7" d="M13.7,4c0,0.6-0.5,1-1,1c-0.6,0-1-0.5-1-1c0-0.6,0.5-1,1-1c0.3,0,0.5,0.1,0.7,0.3
			C13.6,3.5,13.7,3.8,13.7,4z"/>
		<path id="Path_685" class="st7" d="M17.1,4c0,0.6-0.5,1-1,1c-0.6,0-1-0.5-1-1c0-0.6,0.5-1,1-1c0.3,0,0.5,0.1,0.7,0.3
			C17,3.5,17.1,3.8,17.1,4z"/>
		<path id="Path_686" class="st7" d="M20.5,4c0,0.6-0.5,1-1,1c-0.6,0-1-0.5-1-1c0-0.6,0.5-1,1-1c0.3,0,0.5,0.1,0.7,0.3
			C20.4,3.5,20.5,3.8,20.5,4z"/>
		<g id="Group_25" transform="translate(11.67 3.036)" class="st15">
			<path id="Path_687" class="st16" d="M2,1c0,0.6-0.5,1-1,1C0.5,2,0,1.5,0,1c0-0.6,0.5-1,1-1c0.3,0,0.5,0.1,0.7,0.3
				C1.9,0.5,2,0.7,2,1z"/>
			<path id="Path_688" class="st16" d="M5.5,1c0,0.6-0.5,1-1,1c-0.6,0-1-0.5-1-1c0-0.6,0.5-1,1-1C4.7,0,5,0.1,5.2,0.3
				C5.4,0.5,5.5,0.7,5.5,1z"/>
			<path id="Path_689" class="st16" d="M8.9,1c0,0.6-0.5,1-1,1c-0.6,0-1-0.5-1-1c0-0.6,0.5-1,1-1c0.3,0,0.5,0.1,0.7,0.3
				C8.7,0.5,8.9,0.7,8.9,1z"/>
		</g>
		<g id="Group_26" transform="translate(19.519 16.569)" class="st8">
			<rect id="Rectangle_37" x="0" y="0" class="st17" width="33.4" height="33.4"/>
		</g>
		<path id="Path_690" class="st17" d="M116.9,26c0,0.1-13,0.2-29.1,0.2S58.6,26.1,58.6,26s13-0.2,29.1-0.2S116.9,25.9,116.9,26z"/>
		<path id="Path_691" class="st17" d="M116.9,32.2c0,0.1-13,0.2-29.1,0.2s-29.1-0.1-29.1-0.2s13-0.2,29.1-0.2S116.9,32.1,116.9,32.2
			z"/>
		<path id="Path_692" class="st17" d="M116.9,38.4c0,0.1-13,0.2-29.1,0.2s-29.1-0.1-29.1-0.2s13-0.2,29.1-0.2S116.9,38.3,116.9,38.4
			z"/>
		<path id="Path_693" class="st17" d="M93,44.7c-0.4,0.1-0.9,0.1-1.3,0.1L88,44.8c-3.1,0-7.4,0.1-12.2,0.1s-9,0-12.2-0.1L60,44.7
			c-0.5,0-0.9,0-1.4-0.1c0.4-0.1,0.9-0.1,1.4-0.1l3.7-0.1c3.1,0,7.4-0.1,12.2-0.1s9.1,0,12.2,0.1l3.7,0.1
			C92.2,44.5,92.6,44.6,93,44.7z"/>
		<rect id="Rectangle_39" x="21.6" y="61.3" class="st18" width="15.7" height="15.7"/>
		<rect id="Rectangle_41" x="50.1" y="61.3" class="st18" width="15.7" height="15.7"/>
		<rect id="Rectangle_43" x="78.6" y="61.3" class="st18" width="15.7" height="15.7"/>
		<rect id="Rectangle_45" x="107.1" y="61.3" class="st18" width="15.7" height="15.7"/>
		<rect id="Rectangle_46" x="234" y="171.7" class="st6" width="141.8" height="57.6"/>
		<path id="Path_694" class="st17" d="M375.9,229.3v-4c0-2.6,0-6.5,0-11.5c0-9.9-0.1-24.3-0.1-42.1l0.2,0.2l-141.8,0.1l0,0l0.2-0.2
			v57.6l-0.2-0.2l101.7,0.1l29.5,0.1h0.1l-29.5,0.1l-101.8,0.1h-0.2v-57.9h0.2l141.8,0.1h0.2v0.2c0,17.8-0.1,32.3-0.1,42.3v14.4
			C376,228.7,376,229,375.9,229.3z"/>
		<path id="Path_695" class="st17" d="M234.2,179.5c0-0.1,31.7-0.2,70.8-0.2s70.8,0.1,70.8,0.2s-31.7,0.2-70.8,0.2
			S234.2,179.6,234.2,179.5z"/>
		<path id="Path_696" class="st7" d="M240.1,176c0,0.6-0.5,1-1,1s-1-0.5-1-1c0-0.6,0.5-1,1-1S240.1,175.4,240.1,176L240.1,176z"/>
		<path id="Path_697" class="st7" d="M243.6,176c0,0.6-0.5,1-1,1s-1-0.5-1-1c0-0.6,0.5-1,1-1c0.3,0,0.5,0.1,0.7,0.3
			C243.5,175.4,243.6,175.7,243.6,176z"/>
		<path id="Path_698" class="st7" d="M247.1,176c0,0.6-0.5,1-1,1c-0.6,0-1-0.5-1-1s0.5-1,1-1c0.3,0,0.5,0.1,0.7,0.3
			C247,175.4,247.1,175.7,247.1,176z"/>
		<g id="Group_27" transform="translate(238.049 174.946)" class="st15">
			<path id="Path_699" class="st16" d="M2.1,1c0,0.6-0.5,1-1,1S0,1.6,0,1c0-0.6,0.5-1,1-1S2.1,0.5,2.1,1L2.1,1z"/>
			<path id="Path_700" class="st16" d="M5.6,1c0,0.6-0.5,1-1,1s-1-0.5-1-1c0-0.6,0.5-1,1-1c0.3,0,0.5,0.1,0.7,0.3
				C5.5,0.5,5.6,0.8,5.6,1z"/>
			<path id="Path_701" class="st16" d="M9.1,1c0,0.6-0.5,1-1,1C7.4,2,7,1.6,7,1s0.5-1,1-1c0.3,0,0.5,0.1,0.7,0.3
				C9,0.5,9.1,0.8,9.1,1z"/>
		</g>
		<rect id="Rectangle_48" x="246.1" y="188.8" class="st18" width="34.3" height="34.3"/>
		<path id="Path_702" class="st17" d="M366.1,198c0,0.1-17.6,0.2-39.4,0.2s-39.4-0.1-39.4-0.2s17.6-0.2,39.4-0.2
			S366.1,197.9,366.1,198z"/>
		<path id="Path_703" class="st17" d="M366.1,205c0,0.1-17.6,0.2-39.4,0.2s-39.4-0.1-39.4-0.2s17.6-0.2,39.4-0.2
			S366.1,204.9,366.1,205z"/>
		<path id="Path_704" class="st17" d="M338,212c-0.2,0-0.3,0-0.5,0H336l-5.4,0.1l-17.9,0.1l-17.9-0.1l-5.4-0.1h-1.5
			c-0.2,0-0.3,0-0.5,0c0.2,0,0.3-0.1,0.5,0l1.5,0l5.4-0.1l17.9-0.1l17.9,0.1l5.4,0.1l1.5,0C337.7,211.9,337.8,211.9,338,212z"/>
	</g>
</g>
</svg>
