<svg xmlns="http://www.w3.org/2000/svg" width="453.77" height="439.839" viewBox="0 0 453.77 439.839">
  <g id="Programming-pana" transform="translate(-19.09 -32.76)">
    <g id="freepik--background-complete--inject-49">
      <rect id="Rectangle_2" data-name="Rectangle 2" width="125.22" height="83.84" transform="translate(68.73 116.42)" fill="#fff"/>
      <path id="Path_1" data-name="Path 1" d="M194,200.26V177.45c0-14.57-.05-35.51-.09-61l.18.18H68.88l.23-.22v83.84l-.21-.21,90.21.1,25.78.06h.08l-25.72.05-90.35.1h-.2V116.08H194.32v.18c0,25.57-.07,46.55-.1,61.14v21.21A5.632,5.632,0,0,1,194,200.26Z" fill="#e0e0e0"/>
      <path id="Path_2" data-name="Path 2" d="M68.73,123.9c0-.12,28-.23,62.56-.23s62.56.11,62.56.23-28,.22-62.56.22S68.73,124,68.73,123.9Z" fill="#e0e0e0"/>
      <g id="Group_1" data-name="Group 1" opacity="0.3">
        <path id="Path_3" data-name="Path 3" d="M73.67,120.12a1,1,0,1,1-1-1A1,1,0,0,1,73.67,120.12Z" fill="#e0e0e0"/>
      </g>
      <g id="Group_2" data-name="Group 2" opacity="0.3">
        <circle id="Ellipse_1" data-name="Ellipse 1" cx="1" cy="1" r="1" transform="translate(75.11 119.12)" fill="#e0e0e0"/>
      </g>
      <g id="Group_3" data-name="Group 3" opacity="0.3">
        <path id="Path_4" data-name="Path 4" d="M80.5,120.12a1,1,0,1,1-1-1A1,1,0,0,1,80.5,120.12Z" fill="#e0e0e0"/>
      </g>
      <rect id="Rectangle_3" data-name="Rectangle 3" width="33.4" height="33.4" transform="translate(79.5 132.64)" fill="#e0e0e0"/>
      <path id="Path_5" data-name="Path 5" d="M176.78,142.08c0,.13-13,.23-29.09.23s-29.1-.1-29.1-.23,13-.22,29.1-.22S176.78,142,176.78,142.08Z" fill="#e0e0e0"/>
      <path id="Path_6" data-name="Path 6" d="M176.78,148.29c0,.12-13,.22-29.09.22s-29.1-.1-29.1-.22,13-.22,29.1-.22S176.78,148.17,176.78,148.29Z" fill="#e0e0e0"/>
      <path id="Path_7" data-name="Path 7" d="M176.78,154.5c0,.12-13,.22-29.09.22s-29.1-.1-29.1-.22,13-.23,29.1-.23S176.78,154.37,176.78,154.5Z" fill="#e0e0e0"/>
      <path id="Path_8" data-name="Path 8" d="M153,160.7a6.93,6.93,0,0,1-1.35.09l-3.69.07c-3.11,0-7.41.07-12.15.07s-9,0-12.16-.07l-3.69-.07a6.929,6.929,0,0,1-1.35-.09,7.639,7.639,0,0,1,1.35-.08l3.69-.07c3.11-.05,7.41-.07,12.16-.07s9,0,12.15.07l3.69.07A7.639,7.639,0,0,1,153,160.7Z" fill="#e0e0e0"/>
      <rect id="Rectangle_4" data-name="Rectangle 4" width="15.7" height="15.7" transform="translate(81.59 177.3)" fill="#e0e0e0"/>
      <rect id="Rectangle_5" data-name="Rectangle 5" width="15.7" height="15.7" transform="translate(110.06 177.3)" fill="#e0e0e0"/>
      <rect id="Rectangle_6" data-name="Rectangle 6" width="15.7" height="15.7" transform="translate(138.52 177.3)" fill="#e0e0e0"/>
      <rect id="Rectangle_7" data-name="Rectangle 7" width="15.7" height="15.7" transform="translate(166.99 177.3)" fill="#e0e0e0"/>
      <path id="Path_9" data-name="Path 9" d="M428.09,143.67a15,15,0,0,1-2.66,2.79l.69,3.51-5.41,2.4-2.14-2.87a14.569,14.569,0,0,1-3.85.1l-2,3-5.53-2.13.52-3.54a14.089,14.089,0,0,1-2.79-2.66l-3.51.69-2.4-5.41,2.87-2.13a14.23,14.23,0,0,1-.1-3.86l-3-2L401,126l3.54.51a14.37,14.37,0,0,1,2.66-2.79l-.7-3.51,5.41-2.4L414,120.7a14.64,14.64,0,0,1,3.86-.1l2-3,5.52,2.13-.52,3.54a14.439,14.439,0,0,1,2.8,2.66l3.51-.69,2.4,5.41-2.87,2.13a14.231,14.231,0,0,1,.09,3.86l3,2-2.12,5.52-3.54-.51Zm-6-6a8.5,8.5,0,1,1,.02-.04Z" fill="none"/>
      <path id="Path_10" data-name="Path 10" d="M422.11,137.63a4.769,4.769,0,0,1-.68,1.42,6.417,6.417,0,0,1-9.51,1.21,6,6,0,0,1-1.23-1.41,6.139,6.139,0,0,1-.79-1.79,6.52,6.52,0,0,1,.2-4.06,6.6,6.6,0,0,1,2.57-3.14,6.2,6.2,0,0,1,1.79-.79,6.279,6.279,0,0,1,1.86-.23A6.46,6.46,0,0,1,421.7,132a6.31,6.31,0,0,1,.86,4.17,4.6,4.6,0,0,1-.45,1.5,7.71,7.71,0,0,0,.31-1.52,6.37,6.37,0,0,0-.94-4,6.17,6.17,0,0,0-5.17-2.91,5.94,5.94,0,0,0-1.76.22,6.18,6.18,0,0,0-4.31,7.57,5.85,5.85,0,0,0,.75,1.69,5.789,5.789,0,0,0,1.15,1.35,6.23,6.23,0,0,0,5.78,1.31,6.34,6.34,0,0,0,3.39-2.35,12.148,12.148,0,0,0,.8-1.4Z" fill="#e0e0e0"/>
      <path id="Path_11" data-name="Path 11" d="M428.09,143.67h.22l.67.08,2.65.36h-.06c.54-1.41,1.24-3.28,2.1-5.53v.11l-3-2h-.06v-.06a14.622,14.622,0,0,0-.11-3.83v-.07h.06l2.86-2.15v.16l-2.41-5.4.15.08-3.5.7h-.09l-.06-.08a14.21,14.21,0,0,0-2.77-2.62l-.08-.06v-.09c.16-1.1.33-2.31.51-3.54l.1.17-5.52-2.12.2-.06-2,3-.06.09h-.1a14.86,14.86,0,0,0-3.81.1h-.11l-.06-.09-2.14-2.86h.22l-5.41,2.41.1-.2c.22,1.1.46,2.3.69,3.5v.11l-.09.07a14.422,14.422,0,0,0-2.63,2.76h0l-.17.07h-.44l-.45-.07-.89-.13-1.76-.25.2-.12L399,131.6l-.07-.21,3,2,.09.06v.11a14.271,14.271,0,0,0,.09,3.81v.11l-.09.06-2.87,2.13.06-.21q1.21,2.78,2.39,5.42l-.19-.1,3.51-.69h.1l.06.08a14.269,14.269,0,0,0,2.76,2.63l.08.06v.1c-.18,1.21-.36,2.38-.53,3.53l-.09-.16,5.52,2.14-.17.05,2-3v-.07h.08a14.2,14.2,0,0,0,3.82-.09h.08v.06l2.13,2.88h-.13l5.42-2.37v.09c-.27-1.41-.49-2.56-.67-3.52h0a14.68,14.68,0,0,0,2.09-2l.46-.55.15-.18-.13.2c-.09.13-.23.32-.44.57a13.69,13.69,0,0,1-2,2.07v-.06c.19,1,.43,2.1.71,3.5V150h-.06l-5.4,2.43h-.07l-.06-.07-2.14-2.86.11.05a14.679,14.679,0,0,1-3.89.11l.13-.06-2,3-.06.09h-.1l-5.53-2.12h-.11v-.12q.26-1.72.51-3.54l.07.15a14.671,14.671,0,0,1-2.83-2.69l.16.06-3.51.7h-.13l-.06-.12-2.4-5.4-.06-.13.11-.08,2.87-2.14-.07.16a14.939,14.939,0,0,1-.1-3.9l.08.17-3-2-.12-.08v-.14l2.13-5.52.05-.13h.14l1.77.25.88.13.45.07h.44c-.35.15-.09,0-.17.08h0A14.771,14.771,0,0,1,407,123.6l-.06.18c-.24-1.21-.48-2.41-.69-3.51v-.15l.13-.06,5.41-2.39.13-.06.09.11c.73,1,1.46,2,2.13,2.87l-.17-.06a14.759,14.759,0,0,1,3.91-.1l-.17.08,2-3,.07-.11h.13l5.52,2.14h.12v.12c-.18,1.24-.36,2.45-.52,3.54l-.06-.15a14.489,14.489,0,0,1,2.81,2.7l-.14-.06,3.51-.68h.11l.05.11c.84,1.9,1.63,3.71,2.39,5.41v.1l-.09.06-2.87,2.13.05-.12a14.6,14.6,0,0,1,.08,3.89l-.05-.1,3,2h.06v.06l-2.16,5.51v.05h0l-2.62-.41-.68-.12Z" fill="#e0e0e0"/>
      <path id="Path_12" data-name="Path 12" d="M459.56,126.83a11.882,11.882,0,0,1-2.21,2.32l.57,2.91-4.48,2-1.78-2.38a11.79,11.79,0,0,1-3.2.08l-1.65,2.47-4.58-1.77.43-2.93a11.88,11.88,0,0,1-2.32-2.21l-2.91.57-2-4.48,2.38-1.78a11.789,11.789,0,0,1-.08-3.2l-2.47-1.65,1.77-4.58,2.93.43a11.879,11.879,0,0,1,2.21-2.32l-.57-2.91,4.48-2,1.78,2.38a11.789,11.789,0,0,1,3.2-.08l1.65-2.47L457.3,107l-.43,2.93a12.18,12.18,0,0,1,2.32,2.21l2.91-.57,2,4.49-2.38,1.77a11.788,11.788,0,0,1,.08,3.2l2.47,1.65-1.77,4.58-2.93-.43Zm-5-5a2.785,2.785,0,1,0,.04,0Z" fill="#e0e0e0" fill-rule="evenodd"/>
      <path id="Path_13" data-name="Path 13" d="M440.22,99.48a19,19,0,0,1-3.46,3.64l.9,4.56-7,3.12-2.78-3.73a19.141,19.141,0,0,1-5,.13l-2.59,3.86-7.18-2.77.67-4.6a19,19,0,0,1-3.64-3.46l-4.56.9-3.12-7,3.73-2.78a19.141,19.141,0,0,1-.13-5l-3.86-2.59,2.77-7.18,4.6.67A18.94,18.94,0,0,1,413,73.56l-.9-4.57,7-3.12,2.78,3.73a19.14,19.14,0,0,1,5-.13l2.59-3.86,7.18,2.77L436,73a18.939,18.939,0,0,1,3.63,3.46l4.57-.9,3.12,7-3.73,2.78a19.143,19.143,0,0,1,.13,5L447.59,93l-2.77,7.18-4.6-.67Zm-7.78-7.85a8.25,8.25,0,1,0-4.352,4.582,8.26,8.26,0,0,0,4.352-4.582Z" fill="#e0e0e0" fill-rule="evenodd"/>
      <path id="Path_14" data-name="Path 14" d="M369.62,61.36a4.048,4.048,0,0,1,.53-.59l1.52-1.53c1.29-1.28,3.09-3,5.1-4.94h.05v.25c-2-1.87-3.84-3.59-5.14-4.84l-1.53-1.49a4.052,4.052,0,0,1-.53-.59,3.161,3.161,0,0,1,.62.49l1.61,1.41c1.34,1.2,3.19,2.89,5.21,4.77l.14.12-.14.13-.05.05c-2,1.91-3.83,3.63-5.17,4.86l-1.6,1.45A3.16,3.16,0,0,1,369.62,61.36Z" fill="#e0e0e0"/>
      <path id="Path_15" data-name="Path 15" d="M354,47.59a3.641,3.641,0,0,1-.53.6L352,49.71c-1.29,1.28-3.09,3-5.1,4.94l-.05.05v-.26c2,1.88,3.84,3.59,5.14,4.84l1.53,1.5a4.41,4.41,0,0,1,.53.58,2.819,2.819,0,0,1-.62-.48c-.44-.38-1-.86-1.61-1.41-1.34-1.21-3.18-2.89-5.21-4.77l-.13-.13.13-.13h.05c2-1.92,3.83-3.64,5.17-4.87l1.6-1.44a3,3,0,0,1,.57-.54Z" fill="#e0e0e0"/>
      <path id="Path_16" data-name="Path 16" d="M358,64.6c-.09,0,1.55-4.64,3.66-10.28s3.9-10.2,4-10.16S364.12,48.8,362,54.44,358.11,64.64,358,64.6Z" fill="#e0e0e0"/>
      <path id="Path_17" data-name="Path 17" d="M387.36,74.46V63.08c0-7.22,0-17.54-.08-30l.15.15H336.67l.18-.18V74.42l-.16-.16,36.66.08h10.46l-10.36.05-36.76.08h-.16V32.76h51.09v.15c0,12.48-.06,22.84-.08,30.08V73.54A2.537,2.537,0,0,1,387.36,74.46Z" fill="#e0e0e0"/>
      <path id="Path_18" data-name="Path 18" d="M387.76,39.23c0,.1-11.46.18-25.59.18s-25.6-.08-25.6-.18,11.46-.18,25.6-.18S387.76,39.13,387.76,39.23Z" fill="#e0e0e0"/>
      <path id="Path_19" data-name="Path 19" d="M340.74,36.21a.69.69,0,1,1-.69-.69A.69.69,0,0,1,340.74,36.21Z" fill="#e0e0e0"/>
      <circle id="Ellipse_2" data-name="Ellipse 2" cx="0.68" cy="0.68" r="0.68" transform="translate(341.86 35.53)" fill="#e0e0e0"/>
      <path id="Path_20" data-name="Path 20" d="M345.72,36.21a.69.69,0,1,1-.69-.69A.69.69,0,0,1,345.72,36.21Z" fill="#e0e0e0"/>
      <rect id="Rectangle_8" data-name="Rectangle 8" width="117.38" height="47.68" transform="translate(171.84 53.04)" fill="#fff"/>
      <path id="Path_21" data-name="Path 21" d="M289.22,100.72V87.91c0-8.23,0-20.13-.07-34.87l.13.13-117.37.06h0L172,53v47.68l-.18-.18,84.16.09,24.41.05H256.06l-84.28.08h-.18V52.68H289.3V53c0,14.77-.05,26.7-.07,34.95V99.86C289.23,100.42,289.22,100.72,289.22,100.72Z" fill="#e0e0e0"/>
      <path id="Path_22" data-name="Path 22" d="M172,59.47c0-.1,26.24-.18,58.6-.18s58.6.08,58.6.18-26.23.19-58.6.19S172,59.58,172,59.47Z" fill="#e0e0e0"/>
      <g id="Group_4" data-name="Group 4" opacity="0.3">
        <path id="Path_23" data-name="Path 23" d="M176.87,56.6a.85.85,0,1,1-.85-.85.85.85,0,0,1,.85.85Z" fill="#ebebeb"/>
      </g>
      <g id="Group_5" data-name="Group 5" opacity="0.3">
        <path id="Path_24" data-name="Path 24" d="M179.79,56.6a.85.85,0,1,1-.85-.85.85.85,0,0,1,.85.85Z" fill="#ebebeb"/>
      </g>
      <g id="Group_6" data-name="Group 6" opacity="0.3">
        <circle id="Ellipse_3" data-name="Ellipse 3" cx="0.85" cy="0.85" r="0.85" transform="translate(180.96 55.75)" fill="#ebebeb"/>
      </g>
      <rect id="Rectangle_9" data-name="Rectangle 9" width="28.35" height="28.35" transform="translate(181.81 67.22)" fill="#e0e0e0"/>
      <path id="Path_25" data-name="Path 25" d="M281.1,74.82c0,.1-14.59.19-32.58.19s-32.59-.09-32.59-.19,14.59-.19,32.59-.19S281.1,74.72,281.1,74.82Z" fill="#e0e0e0"/>
      <path id="Path_26" data-name="Path 26" d="M281.1,80.6c0,.1-14.59.18-32.58.18s-32.59-.08-32.59-.18,14.59-.19,32.59-.19S281.1,80.49,281.1,80.6Z" fill="#e0e0e0"/>
      <path id="Path_27" data-name="Path 27" d="M257.88,86.37a1.3,1.3,0,0,1-.42,0h-1.23l-4.49.06-14.83.06-14.84-.06-4.49-.06h-1.23a1.3,1.3,0,0,1-.42,0,2.369,2.369,0,0,1,.42,0h1.23l4.49-.06h29.67l4.49.06h1.23A2.37,2.37,0,0,1,257.88,86.37Z" fill="#e0e0e0"/>
    </g>
    <g id="freepik--Floor--inject-49">
      <path id="Path_28" data-name="Path 28" d="M472.86,445.09c0,.14-99.78.26-222.85.26s-222.87-.12-222.87-.26,99.76-.26,222.87-.26S472.86,444.94,472.86,445.09Z" fill="#263238"/>
    </g>
    <g id="freepik--Character--inject-49">
      <path id="Path_218" data-name="Path 218" d="M147.88,272,174,360.13a9.23,9.23,0,0,0,8.84,6.61l106,.29a9.81,9.81,0,0,0,9.82-10.32h0a9.81,9.81,0,0,0-9.79-9.28H248.34L215.88,257H159.06a11.66,11.66,0,0,0-11.18,15Z" fill="#455a64"/>
      <path id="Path_219" data-name="Path 219" d="M237.56,354.67c0,.21-10.81.37-24.14.37s-24.13-.16-24.13-.37,10.8-.37,24.13-.37S237.56,354.46,237.56,354.67Z" fill="#263238"/>
      <path id="Path_220" data-name="Path 220" d="M155.68,259.78c.19-.06,7.41,21.05,16.12,47.16s15.6,47.33,15.41,47.39-7.41-21-16.12-47.16S155.48,259.85,155.68,259.78Z" fill="#263238"/>
      <path id="Path_221" data-name="Path 221" d="M233.15,445.09l-6.46-.15v-78.2h6.46Z" fill="#455a64"/>
      <path id="Path_222" data-name="Path 222" d="M199.86,444.73h60.13l-27.24-9.47h-6.46Z" fill="#455a64"/>
      <path id="Path_223" data-name="Path 223" d="M184.65,236.76l9.95,49.71-1.78,37.25L259.7,312.6,257.08,280,257,253l16.4,31.78,12.76-24.67-23.37-42.35h0a39.47,39.47,0,0,0-15.29-9.9,31.37,31.37,0,0,0-9.59-1.84h0a38.35,38.35,0,0,1-23.15,0c-.94.12-2.24.25-3.89.44h-.3a29.57,29.57,0,0,0-25.81,27.8Z" fill="#ff6262"/>
      <path id="Path_224" data-name="Path 224" d="M210.89,206.47s-27.48.21-30.88,29.23l-.46,21.3,23.66-.2Z" fill="#ff6262"/>
      <path id="Path_225" data-name="Path 225" d="M276.54,243.8c0,.21-21.62.38-48.29.38S180,244,180,243.8s21.61-.37,48.29-.37S276.54,243.6,276.54,243.8Z" fill="#fafafa"/>
      <path id="Path_226" data-name="Path 226" d="M276.54,248.41c0,.2-21.62.37-48.29.37s-48.29-.17-48.29-.37,21.61-.38,48.29-.38S276.54,248.2,276.54,248.41Z" fill="#fafafa"/>
      <path id="Path_227" data-name="Path 227" d="M275,240c0,.21-21.27.38-47.51.38S180,240.2,180,240s21.27-.37,47.52-.37S275,239.79,275,240Z" fill="#fafafa"/>
      <path id="Path_228" data-name="Path 228" d="M256.67,284.77c-.21,0-.12-11.77.2-26.27s.75-26.26.95-26.26.12,11.77-.2,26.27S256.87,284.77,256.67,284.77Z" fill="#263238"/>
      <path id="Path_229" data-name="Path 229" d="M247.27,265.69s13,.93,15.34,4.37,5.91,13.23,4.56,13.3a3.68,3.68,0,0,1-2.34-.73l-3.56-6.32s.57,6.1-1.56,6.22S247,284.77,247,284.77Z" fill="#ffbe9d"/>
      <path id="Path_230" data-name="Path 230" d="M179.56,251.32l-.05,33.51a12.73,12.73,0,0,0,15.42,11.75l52.41-10.8-.11-21.49L202,273l-.6-22.75Z" fill="#ff6262"/>
      <path id="Path_231" data-name="Path 231" d="M209.46,293.89a4.509,4.509,0,0,1,.69-.19l2-.46,7.7-1.63L247.16,286l-.27.32V264.25l.44.37-9.22,1.77-36,6.85-.39.08V273c.34-10,.63-18.28.83-24.16.12-2.86.21-5.13.28-6.75,0-.73.07-1.32.1-1.77a2.7,2.7,0,0,1,.07-.61,4.809,4.809,0,0,1,0,.61v1.78c0,1.62-.06,3.89-.1,6.75-.14,5.89-.33,14.19-.56,24.16l-.38-.31,36-7,9.22-1.76.44-.09v22.8l-.27.05L220,292l-7.74,1.45-2.05.36A3.472,3.472,0,0,1,209.46,293.89Z" fill="#263238"/>
      <path id="Path_232" data-name="Path 232" d="M239.52,206.47a2.508,2.508,0,0,1,.21.49,10.152,10.152,0,0,1,.41,1.48,12.09,12.09,0,0,1-.25,5.64,14.82,14.82,0,0,1-4.54,7,14.14,14.14,0,0,1-9.54,3.61,13,13,0,0,1-9.43-3.83,13.25,13.25,0,0,1-3.51-7.59,11.86,11.86,0,0,1,.66-5.61,7.741,7.741,0,0,1,.67-1.38c.18-.3.28-.45.31-.44s-.32.67-.71,1.92a12.65,12.65,0,0,0-.41,5.44,13,13,0,0,0,3.48,7.18,12.42,12.42,0,0,0,8.94,3.56,13.62,13.62,0,0,0,9.08-3.37,14.63,14.63,0,0,0,4.5-6.66,12.67,12.67,0,0,0,.46-5.44C239.68,207.19,239.44,206.49,239.52,206.47Z" fill="#263238"/>
      <path id="Path_233" data-name="Path 233" d="M242.05,287.56a15.751,15.751,0,0,1,0-3.31c.08-2,.18-4.84.2-7.94s0-5.91-.11-7.95a16.25,16.25,0,0,1,0-3.31,13.2,13.2,0,0,1,.5,3.28c.19,2,.34,4.86.32,8s-.2,5.94-.41,8a13.551,13.551,0,0,1-.5,3.23Z" fill="#fafafa"/>
      <path id="Path_234" data-name="Path 234" d="M239.34,288.11a16.38,16.38,0,0,1-.09-3.29c0-2.31.05-5,.08-7.89V269a15.45,15.45,0,0,1,.12-3.28,13.329,13.329,0,0,1,.41,3.26c.13,2,.24,4.83.22,7.92s-.14,5.89-.3,7.92A13.578,13.578,0,0,1,239.34,288.11Z" fill="#fafafa"/>
      <path id="Path_235" data-name="Path 235" d="M291.83,421.25l9.9,27.28,14.06,19.31a3,3,0,0,1-.83,4.27h0a3,3,0,0,1-2.71.23c-5.67-2.35-26.47-11.11-27.09-13.14-.71-2.36-14.14-31.7-14.14-31.7Z" fill="#ff6262"/>
      <g id="Group_7" data-name="Group 7" opacity="0.6">
        <path id="Path_236" data-name="Path 236" d="M315,472.11l-30.51-14.74.45,1.15a4.54,4.54,0,0,0,2,2.32c2.5,1.35,9.5,4.92,25.23,11.53a3,3,0,0,0,2.79-.26Z" fill="#fff"/>
      </g>
      <g id="Group_8" data-name="Group 8" opacity="0.6">
        <path id="Path_237" data-name="Path 237" d="M286.61,446.49a1.79,1.79,0,0,1,1.31,2,1.73,1.73,0,0,1-2,1.32,1.89,1.89,0,0,1-1.38-2.14,1.8,1.8,0,0,1,2.21-1.14" fill="#fff"/>
      </g>
      <path id="Path_238" data-name="Path 238" d="M304.18,462.7a8.909,8.909,0,0,1,1.56-3c1.27-1.42,2.91-1.63,2.88-1.81s-.43-.15-1.1,0a4.76,4.76,0,0,0-3.43,3.74C304,462.29,304.11,462.7,304.18,462.7Z" fill="#263238"/>
      <path id="Path_239" data-name="Path 239" d="M307.52,465.57c.17.07.7-1.15,1.94-2.1a22.3,22.3,0,0,1,2.51-1.36c0-.17-1.5-.24-2.9.86S307.35,465.55,307.52,465.57Z" fill="#263238"/>
      <path id="Path_240" data-name="Path 240" d="M298.79,459.45c.18.08,1-1.79,2.78-3.43s3.71-2.32,3.65-2.5-2.17.24-4.08,2S298.63,459.43,298.79,459.45Z" fill="#263238"/>
      <path id="Path_241" data-name="Path 241" d="M295.09,451.41c.13.14,1.38-1.07,3.3-1.9s3.64-1,3.63-1.15a5.865,5.865,0,0,0-3.89.57A6.1,6.1,0,0,0,295.09,451.41Z" fill="#263238"/>
      <path id="Path_242" data-name="Path 242" d="M292,443.48c.14.12,1.29-1.36,3.38-2.07s3.9-.31,3.94-.49-.41-.3-1.17-.42a6.5,6.5,0,0,0-5.5,1.92C292.11,443,291.91,443.43,292,443.48Z" fill="#263238"/>
      <path id="Path_243" data-name="Path 243" d="M294.73,439.92a2.66,2.66,0,0,0-.37-1,7.61,7.61,0,0,0-1.85-2.36,3.36,3.36,0,0,0-1.94-1,1.2,1.2,0,0,0-1.16.74,1.93,1.93,0,0,0,0,1.38A4.2,4.2,0,0,0,294.3,440a4.86,4.86,0,0,0,3.54-4.11,1.7,1.7,0,0,0-.43-1.34,1.19,1.19,0,0,0-1.37-.14,4.16,4.16,0,0,0-1.42,1.62,8.691,8.691,0,0,0-1,2.82,2.46,2.46,0,0,0,0,1.1,13.229,13.229,0,0,1,1.46-3.68,3.919,3.919,0,0,1,1.27-1.38.62.62,0,0,1,.75.07,1.16,1.16,0,0,1,.24.89,4.36,4.36,0,0,1-3.11,3.53,3.63,3.63,0,0,1-4.14-1.88,1.39,1.39,0,0,1-.08-1,.65.65,0,0,1,.64-.41,3.05,3.05,0,0,1,1.65.8A11.13,11.13,0,0,1,294.73,439.92Z" fill="#263238"/>
      <path id="Path_244" data-name="Path 244" d="M333.64,414.11l-.85,22.17s22.24,8.32,22.48,12.43l-43-.12L312.15,414Z" fill="#ff6262"/>
      <g id="Group_9" data-name="Group 9" opacity="0.6">
        <path id="Path_245" data-name="Path 245" d="M319.48,434.38a1.76,1.76,0,0,0-1.22,2,1.69,1.69,0,0,0,2,1.23,1.86,1.86,0,0,0,1.28-2.13,1.77,1.77,0,0,0-2.2-1.05" fill="#fff"/>
      </g>
      <g id="Group_10" data-name="Group 10" opacity="0.6">
        <path id="Path_246" data-name="Path 246" d="M312.23,448.59v-3.45l41.36,1.38s1.91.84,1.69,2.19Z" fill="#fff"/>
      </g>
      <path id="Path_247" data-name="Path 247" d="M333.48,436.06c0,.21-1.05.31-2.09,1s-1.59,1.56-1.78,1.47.12-1.3,1.39-2.09S333.53,435.87,333.48,436.06Z" fill="#263238"/>
      <path id="Path_248" data-name="Path 248" d="M338,437.94c.05.21-.86.56-1.58,1.45s-.92,1.83-1.13,1.82-.34-1.2.57-2.29S338,437.74,338,437.94Z" fill="#263238"/>
      <path id="Path_249" data-name="Path 249" d="M340.54,443.35c-.19,0-.48-1,.07-2.15s1.52-1.61,1.61-1.43-.52.79-1,1.74S340.75,443.33,340.54,443.35Z" fill="#263238"/>
      <path id="Path_250" data-name="Path 250" d="M333.12,431c-.09.19-1.05-.1-2.24,0s-2.12.45-2.23.27.79-.93,2.19-1S333.22,430.83,333.12,431Z" fill="#263238"/>
      <g id="Group_11" data-name="Group 11" opacity="0.3">
        <path id="Path_251" data-name="Path 251" d="M333.47,418.5l-.15,3.95-21.15-.25-.02-3.56Z"/>
      </g>
      <path id="Path_252" data-name="Path 252" d="M333.21,426.52a4.19,4.19,0,0,1-2.16,0,10.171,10.171,0,0,1-2.25-.7,10,10,0,0,1-1.24-.66,3,3,0,0,1-.65-.51.92.92,0,0,1-.09-1.12,1.16,1.16,0,0,1,.92-.48,2.712,2.712,0,0,1,.81.12,8.43,8.43,0,0,1,1.34.46,7.559,7.559,0,0,1,2,1.31c1,.93,1.34,1.71,1.27,1.76s-.58-.59-1.6-1.36a8.372,8.372,0,0,0-1.92-1.09,7.368,7.368,0,0,0-1.23-.38c-.46-.13-.85-.13-1,.07s-.05.11,0,.24a2.231,2.231,0,0,0,.48.38,10.994,10.994,0,0,0,1.14.65,12.112,12.112,0,0,0,2.08.8,13.74,13.74,0,0,1,2.1.51Z" fill="#263238"/>
      <path id="Path_253" data-name="Path 253" d="M332.93,426.82a3.59,3.59,0,0,1-.56-2.09,7.2,7.2,0,0,1,.3-2.36,8,8,0,0,1,.55-1.3A1.8,1.8,0,0,1,334.6,420a1,1,0,0,1,.9.6,3.12,3.12,0,0,1,.22.8,4.7,4.7,0,0,1,0,1.45,5,5,0,0,1-.93,2.22c-.84,1.11-1.72,1.36-1.74,1.29a8.777,8.777,0,0,0,1.31-1.58,4.821,4.821,0,0,0,.69-2,4.4,4.4,0,0,0,0-1.25c-.06-.45-.23-.82-.4-.78a1.542,1.542,0,0,0-.76.71,7.537,7.537,0,0,0-.54,1.16,7.739,7.739,0,0,0-.42,2.15C332.83,426,333.05,426.78,332.93,426.82Z" fill="#263238"/>
      <path id="Path_254" data-name="Path 254" d="M312.19,307.84c-25.43,2.63-59.14,6.09-59.14,6.09l4.6,41.39s49.52-13.09,49.17-12,2.3,88.06,2.3,88.06h29.82l.56-98.53a24.77,24.77,0,0,0-27.31-25.01Z" fill="#5538a4"/>
      <path id="Path_255" data-name="Path 255" d="M192.21,324.54v12.83c0,8.74,9.95,18,18.68,18h6.76c5.32,0,13.66-3.88,18-7l2.58-1.89,31.06,96.21s35.53-6.37,35.53-7.49-24.06-78.8-35.17-114.85c-4.54-14.72-20.31-23.28-34.88-18.29-.49.17-1,.36-1.49.56C217.32,309,192.21,324.54,192.21,324.54Z" fill="#5538a4"/>
      <path id="Path_256" data-name="Path 256" d="M304.78,435.19a1.791,1.791,0,0,1-.15-.34c-.11-.27-.24-.61-.4-1-.34-.91-.83-2.25-1.41-4-1.19-3.47-2.82-8.54-4.8-14.81-4-12.53-9.28-29.9-15.06-49.1-2.88-9.61-5.61-18.76-8.11-27.1-1.24-4.16-2.41-8.12-3.51-11.83q-.84-2.78-1.6-5.35a47.081,47.081,0,0,0-1.62-4.87,20,20,0,0,0-5-7.11,42.9,42.9,0,0,0-5.26-4.09c-1.52-1-2.73-1.77-3.56-2.27l-.93-.59a1.249,1.249,0,0,1-.31-.22,1.28,1.28,0,0,1,.34.16l1,.52c.85.46,2.09,1.17,3.64,2.16a39.78,39.78,0,0,1,5.38,4,20.14,20.14,0,0,1,5.22,7.2,47.09,47.09,0,0,1,1.68,4.91c.53,1.71,1.07,3.5,1.64,5.35l3.58,11.8c2.51,8.33,5.27,17.48,8.17,27.08,5.78,19.17,11,36.53,14.84,49.17l4.58,14.87,1.28,4c.13.43.23.77.32,1.05S304.8,435.19,304.78,435.19Z" fill="#455a64"/>
      <path id="Path_257" data-name="Path 257" d="M312.28,330.88c.18.12-1.51,2.66-2.92,6.11s-2.05,6.43-2.27,6.39.1-3.14,1.58-6.68S312.13,330.76,312.28,330.88Z" fill="#455a64"/>
      <path id="Path_258" data-name="Path 258" d="M318,334.88c.08.2-2.48,1.33-5.15,3.44s-4.39,4.32-4.57,4.19,1.32-2.6,4.11-4.77S317.93,334.7,318,334.88Z" fill="#455a64"/>
      <path id="Path_259" data-name="Path 259" d="M269.58,442.68c-.19.06-8.58-25.68-18.74-57.5s-18.22-57.67-18-57.73,8.58,25.68,18.74,57.51S269.78,442.62,269.58,442.68Z" fill="#455a64"/>
      <path id="Path_260" data-name="Path 260" d="M231.47,292.59l101.65.98,18.96-53.58-73.94.5-17.16,48.18-29.51.45Z" fill="#455a64"/>
      <path id="Path_261" data-name="Path 261" d="M308.54,271.4a4.12,4.12,0,1,1,4.65-3.5A4.12,4.12,0,0,1,308.54,271.4Z" fill="#fff"/>
      <path id="Path_262" data-name="Path 262" d="M223.17,147.57c1-3.57,3.65-5.32,7.14-6.51a11.48,11.48,0,0,1,10.5,1.7c2,1.5,3.5,3.67,5.84,4.48,3.84,1.33,8.34-1.54,12,.18a5.24,5.24,0,0,1-2.48,10c2.5.92,3.28,4.49,1.82,6.72s-4.47,3.07-7.1,2.58a14.72,14.72,0,0,1-6.89-3.86c-2-1.78-3.76-3.8-5.88-5.42a11.41,11.41,0,0,0-7.36-2.7c-3.61.19-6.7,2.91-8.31,6.15s-2,6.92-2.18,10.53-.26,7.27-1.33,10.72a1.412,1.412,0,0,1-.72,1c-.59.18-1.09-.44-1.38-1a53,53,0,0,1-6.05-19.71c-.41-4-.31-7.78,1.89-11.15s7.75-5.84,10.47-3.71" fill="#263238"/>
      <path id="Path_263" data-name="Path 263" d="M216.2,164.3l-1.85,40.46c-.31,6.88.64,17.06,11.54,17.06h0c9.46-.72,12.25-9.56,12.54-16,.13-3,.25-5.58.29-5.89,0,0,10.34-.5,11.55-10.66.58-4.91,1-15.13,1.2-24.37a19.07,19.07,0,0,0-17-19.43l-1-.1C222.8,144.88,216.41,153.64,216.2,164.3Z" fill="#ffbe9d"/>
      <path id="Path_264" data-name="Path 264" d="M238.75,199.8a23.76,23.76,0,0,1-12.86-5.18s2.35,7.65,12.6,7.82Z" fill="#eb996e"/>
      <path id="Path_265" data-name="Path 265" d="M247.78,171.42a1.46,1.46,0,0,1-1.56,1.32,1.39,1.39,0,0,1-1.35-1.47,1.46,1.46,0,0,1,1.55-1.32,1.39,1.39,0,0,1,1.36,1.47Z" fill="#263238"/>
      <path id="Path_266" data-name="Path 266" d="M248.75,169.68c-.2.17-1.21-.76-2.78-.92s-2.79.5-2.94.29.15-.42.69-.73a4.05,4.05,0,0,1,2.38-.47,3.82,3.82,0,0,1,2.18,1C248.72,169.25,248.85,169.61,248.75,169.68Z" fill="#263238"/>
      <path id="Path_267" data-name="Path 267" d="M232.39,170.32a1.46,1.46,0,0,1-1.56,1.32,1.41,1.41,0,0,1-1.36-1.47,1.48,1.48,0,0,1,1.56-1.32,1.4,1.4,0,0,1,1.36,1.47Z" fill="#263238"/>
      <path id="Path_268" data-name="Path 268" d="M233.35,168.34c-.2.17-1.21-.76-2.78-.93s-2.79.5-2.94.29.15-.41.69-.72a4,4,0,0,1,2.38-.47,3.89,3.89,0,0,1,2.18,1C233.32,167.9,233.45,168.26,233.35,168.34Z" fill="#263238"/>
      <path id="Path_269" data-name="Path 269" d="M237.79,180.54a10.23,10.23,0,0,1,2.59-.19c.41,0,.79,0,.89-.3a2.15,2.15,0,0,0-.14-1.22c-.28-1-.56-2.06-.86-3.16-1.18-4.5-2-8.19-1.81-8.24s1.29,3.57,2.47,8.07c.28,1.11.55,2.17.8,3.18a2.27,2.27,0,0,1,0,1.59,1,1,0,0,1-.71.52,2.741,2.741,0,0,1-.69,0,10.671,10.671,0,0,1-2.54-.25Z" fill="#263238"/>
      <path id="Path_270" data-name="Path 270" d="M233.08,181.13c.25,0,.08,1.71,1.4,3.07s3.15,1.36,3.14,1.6-.44.29-1.21.23a4.28,4.28,0,0,1-2.63-1.25,3.69,3.69,0,0,1-1.06-2.56C232.73,181.51,233,181.11,233.08,181.13Z" fill="#263238"/>
      <path id="Path_271" data-name="Path 271" d="M234.41,162.25c-.2.41-1.74,0-3.6.07s-3.39.37-3.6,0c-.08-.19.22-.56.86-.91a6.19,6.19,0,0,1,5.48,0C234.19,161.69,234.5,162.06,234.41,162.25Z" fill="#263238"/>
      <path id="Path_272" data-name="Path 272" d="M248.66,165.1c-.31.32-1.35-.16-2.64-.32s-2.42,0-2.63-.41c-.1-.19.11-.53.63-.82a3.73,3.73,0,0,1,2.21-.35,3.67,3.67,0,0,1,2,.94C248.69,164.55,248.8,164.94,248.66,165.1Z" fill="#263238"/>
      <path id="Path_273" data-name="Path 273" d="M216.23,171.92c-.17-.09-6.77-2.81-7.29,4.17s6.6,6.06,6.62,5.86S216.23,171.92,216.23,171.92Z" fill="#ffbe9d"/>
      <path id="Path_274" data-name="Path 274" d="M213.63,179.15a2.216,2.216,0,0,1-.34.16,1.27,1.27,0,0,1-.91-.05,3.05,3.05,0,0,1-1.2-2.81,4.05,4.05,0,0,1,.47-1.71,1.42,1.42,0,0,1,1-.87.63.63,0,0,1,.69.39c.08.2,0,.34.06.35s.16-.1.13-.4a.74.74,0,0,0-.25-.45.9.9,0,0,0-.66-.23,1.73,1.73,0,0,0-1.35,1,4.19,4.19,0,0,0-.56,1.91c-.06,1.41.56,2.78,1.55,3.15a1.3,1.3,0,0,0,1.12-.11C213.6,179.32,213.65,179.16,213.63,179.15Z" fill="#eb996e"/>
      <path id="Path_275" data-name="Path 275" d="M253.85,163a14.81,14.81,0,0,1-12.74-4.33c-2.25-2.36-3.84-5.58-6.84-6.87a8.34,8.34,0,0,0-6.41.19,16,16,0,0,0-5.26,3.9c1.41,5.38-.52,11-2.43,16.23a2.79,2.79,0,0,1-1,1.52c-.89.55-2.07-.08-2.71-.91a8.63,8.63,0,0,1-1.4-4.73,28.69,28.69,0,0,1,1.26-11.28,19.68,19.68,0,0,1,6.4-9.26A18.54,18.54,0,0,1,236.21,144a22.75,22.75,0,0,1,12.64,6.09,13.33,13.33,0,0,1,3.75,5.38" fill="#263238"/>
    </g>
    <g id="freepik--Plant--inject-49">
      <path id="Path_276" data-name="Path 276" d="M58.32,378.08A18.91,18.91,0,0,1,70,376.65c2.12.35,4.34,1,5.79,2.59s1.72,4.41.06,5.78a5.56,5.56,0,0,1-3.65.92c-3.1,0-6.54-.58-9,1.29-1.42,1.06-2.36,2.83-4,3.35a4,4,0,0,1-4.39-1.95,6.86,6.86,0,0,1-.49-5,7.68,7.68,0,0,1,4-5.55Z" fill="#ff6262"/>
      <path id="Path_277" data-name="Path 277" d="M50.15,362.31c2.18,3.11,6.42,2.08,8.38.18s2.8-4.65,3.55-7.28c1.73-6,3.47-12.3,2.19-18.41a10.23,10.23,0,0,0-2.36-5,5.34,5.34,0,0,0-5.06-1.69c-2.13.57-3.46,2.66-4.42,4.65a43.87,43.87,0,0,0-4.34,18.83c0,3,.35,6.22,2.06,8.72" fill="#ff6262"/>
      <path id="Path_278" data-name="Path 278" d="M44.16,366.78a11.34,11.34,0,0,0,1.77-10.43,20.13,20.13,0,0,0-6.18-9,33.15,33.15,0,0,0-11-6.53,11.86,11.86,0,0,0-5-.84,5.22,5.22,0,0,0-4.17,2.52c-1.16,2.22-.05,4.91,1.16,7.11A84.27,84.27,0,0,0,28,360.72c2.18,2.8,4.67,5.57,8,6.84s6.76,1.12,8.52-1.18" fill="#ff6262"/>
      <path id="Path_279" data-name="Path 279" d="M50,409.27a6.519,6.519,0,0,0,.2-1.41c.1-1,.23-2.32.38-3.86a55.862,55.862,0,0,1,.86-5.66,44.359,44.359,0,0,1,2.06-6.69,24.73,24.73,0,0,1,3.42-6A12.72,12.72,0,0,1,61.23,382a11.62,11.62,0,0,1,3.63-1.13,7,7,0,0,0,1.41-.21,7.138,7.138,0,0,0-1.43,0,10.812,10.812,0,0,0-3.79,1,12.58,12.58,0,0,0-4.55,3.61,24.24,24.24,0,0,0-3.5,6.16,40.82,40.82,0,0,0-2,6.8,47.891,47.891,0,0,0-.76,5.73c-.12,1.64-.16,3-.19,3.89a6.56,6.56,0,0,0-.05,1.42Z" fill="#263238"/>
      <path id="Path_280" data-name="Path 280" d="M50.27,406.3a3,3,0,0,0,0-.65v-1.88c0-1.63,0-4,.09-6.9.14-5.82.64-12.09,1.61-20.92.92-8.31,2.15-18,3.45-24.26.27-1.43.55-2.72.82-3.84s.47-2.1.67-2.89.33-1.35.44-1.83a2.62,2.62,0,0,0,.12-.64,2.371,2.371,0,0,0-.23.61c-.15.47-.33,1.07-.55,1.8s-.49,1.75-.77,2.87-.6,2.41-.91,3.83a215.52,215.52,0,0,0-3.62,22.51A227.615,227.615,0,0,0,50,396.87c0,2.91,0,5.28.1,6.91,0,.76.09,1.38.12,1.87a2.46,2.46,0,0,0,.05.65Z" fill="#263238"/>
      <path id="Path_281" data-name="Path 281" d="M50.31,390.76a12.76,12.76,0,0,0,0-2,52.54,52.54,0,0,0-.6-5.32,70.481,70.481,0,0,0-1.71-7.7,63.671,63.671,0,0,0-3.24-9.16,48.93,48.93,0,0,0-9.51-14.8A25.578,25.578,0,0,0,33,349.7a11.666,11.666,0,0,0-1-.8l-.87-.6a12.354,12.354,0,0,0-1.65-1.06,58.19,58.19,0,0,1,5.41,4.83,51.27,51.27,0,0,1,9.27,14.75,72.458,72.458,0,0,1,3.26,9.07c.85,2.85,1.41,5.46,1.84,7.66s.64,4,.78,5.27a11.71,11.71,0,0,0,.27,1.94Z" fill="#263238"/>
      <path id="Path_282" data-name="Path 282" d="M35.28,418.18l1.56,21.34H64.26l1.55-21.34Z" fill="#263238"/>
      <rect id="Rectangle_16" data-name="Rectangle 16" width="36.45" height="8.41" transform="translate(32.63 409.77)" fill="#263238"/>
      <path id="Path_283" data-name="Path 283" d="M32.63,438.71v2.33H68.48v-2.33Z" fill="#455a64"/>
      <path id="Path_284" data-name="Path 284" d="M36.02,445.14l-1.68-4.1H67.18l-1.96,4.1Z" fill="#455a64"/>
      <path id="Path_285" data-name="Path 285" d="M65.31,425.16a2.069,2.069,0,0,1-.13.19l-.41.55-1.6,2-.07.09-.07-.09-3.92-5.43h.22L55.47,428l-.12.17-.14-.16c-1.42-1.7-3-3.54-4.58-5.45h.26c-.07.1-.16.2-.25.31L46.55,428l-.14.17-.13-.18-3.86-5.47h.22L37.88,428l-.08.09-.07-.11c-.62-1.05-1.12-1.89-1.49-2.5l-.38-.67-.12-.23a.915.915,0,0,1,.16.21l.43.64,1.56,2.46h-.15l4.69-5.48.11-.14.11.15,3.9,5.44h-.26l4.09-5.14.25-.32.13-.16.13.16,4.57,5.46H55.2l3.91-5.44.11-.16.11.16,3.84,5.48H63l1.67-2,.44-.52C65.24,425.21,65.3,425.15,65.31,425.16Z" fill="#e0e0e0"/>
      <path id="Path_286" data-name="Path 286" d="M66.2,418c0,.1-6.87.17-15.35.17s-15.34-.07-15.34-.17,6.87-.17,15.34-.17S66.2,418,66.2,418Z" fill="#455a64"/>
      <path id="Path_287" data-name="Path 287" d="M67.58,441.27c0,.09-7.47.17-16.67.17s-16.68-.08-16.68-.17,7.47-.17,16.68-.17S67.58,441.18,67.58,441.27Z" fill="#263238"/>
    </g>
    <g id="freepik--Devices--inject-49">
      <path id="Path_288" data-name="Path 288" d="M391.71,195.56l-19.05,79.67h5.33l18.76-79.67Z" fill="#263238"/>
      <path id="Path_289" data-name="Path 289" d="M384.39,248c-.34,1.46,8.63,44.89,8.63,44.89H388.7l-6.77-34.42Z" fill="#263238"/>
      <rect id="Rectangle_17" data-name="Rectangle 17" width="89.23" height="94.59" transform="translate(358.6 350.33)" fill="#ff6262"/>
      <rect id="Rectangle_18" data-name="Rectangle 18" width="4.38" height="4.38" transform="translate(447.82 364.15)" fill="#263238"/>
      <rect id="Rectangle_19" data-name="Rectangle 19" width="4.38" height="4.38" transform="translate(447.82 378.06)" fill="#263238"/>
      <rect id="Rectangle_20" data-name="Rectangle 20" width="4.38" height="4.38" transform="translate(447.82 391.97)" fill="#263238"/>
      <rect id="Rectangle_21" data-name="Rectangle 21" width="4.38" height="4.38" transform="translate(447.82 405.88)" fill="#263238"/>
      <path id="Path_290" data-name="Path 290" d="M452.37,393.25a7,7,0,0,1,1.34-.29,21.329,21.329,0,0,1,3.76-.36,10.09,10.09,0,0,1,5.42,1.43,6.26,6.26,0,0,1,3,6,7.55,7.55,0,0,1-1.14,3.43,9,9,0,0,1-2.3,2.44,11.75,11.75,0,0,1-5.22,2.06,16.931,16.931,0,0,1-3.77.13,6,6,0,0,1-1.37-.19,8.53,8.53,0,0,1,1.37,0,19.938,19.938,0,0,0,3.71-.29,11.71,11.71,0,0,0,5-2.08,7.69,7.69,0,0,0,3.21-5.53,5.8,5.8,0,0,0-2.75-5.56,9.93,9.93,0,0,0-5.17-1.46,26,26,0,0,0-3.72.19,6.7,6.7,0,0,1-1.37.08Z" fill="#263238"/>
      <path id="Path_291" data-name="Path 291" d="M451.28,379.42a1.842,1.842,0,0,1,.41-.25,9.06,9.06,0,0,1,1.3-.52,10.229,10.229,0,0,1,5.13-.29,4.679,4.679,0,0,1,1.63.65,2.83,2.83,0,0,1,1.15,1.56,4.75,4.75,0,0,1-2.85,5.35,2.91,2.91,0,0,1-2.41-.13,2.47,2.47,0,0,1-1.39-2.1,2.52,2.52,0,0,1,1.42-2.17,3.84,3.84,0,0,1,2.55-.27,5.42,5.42,0,0,1,2.23,1.06,6,6,0,0,1,2.22,4,5.58,5.58,0,0,1-1.14,4,8.079,8.079,0,0,1-2.74,2.31,13,13,0,0,1-5,1.3c-.6.05-1.07.07-1.39.07a1.56,1.56,0,0,1-.49,0s.67-.09,1.86-.24a13.871,13.871,0,0,0,4.82-1.42,7.85,7.85,0,0,0,2.57-2.25,5.21,5.21,0,0,0,1-3.65,5.53,5.53,0,0,0-2.06-3.63,4.79,4.79,0,0,0-2-.95,3.41,3.41,0,0,0-2.21.22,1.817,1.817,0,0,0-.03,3.36,2.37,2.37,0,0,0,2,.11,3.9,3.9,0,0,0,1.65-1.2,4.06,4.06,0,0,0,1-3.56,3,3,0,0,0-2.45-2,10.56,10.56,0,0,0-5,.12C451.89,379.15,451.3,379.47,451.28,379.42Z" fill="#263238"/>
      <path id="Path_292" data-name="Path 292" d="M451.32,365.85a2.37,2.37,0,0,1,1-.18A7,7,0,0,1,455,366a7.56,7.56,0,0,1,3.33,2.25,7.35,7.35,0,0,1,1.73,4.6,7.45,7.45,0,0,1-1.44,4.7A7.54,7.54,0,0,1,455.4,380a7,7,0,0,1-2.65.54,2.31,2.31,0,0,1-1-.12,9.881,9.881,0,0,0,3.48-.75,7.49,7.49,0,0,0,2.95-2.4,7.29,7.29,0,0,0-.26-8.7,7.63,7.63,0,0,0-3.09-2.21,9.851,9.851,0,0,0-3.51-.51Z" fill="#263238"/>
      <path id="Path_293" data-name="Path 293" d="M385.09,300.07a8.61,8.61,0,0,1,.75,1.77,33.753,33.753,0,0,1,1.19,5.37c.37,2.36.68,5.27,1,8.64s.59,7.23,1.13,11.46c.14,1.05.31,2.13.53,3.22a14.18,14.18,0,0,0,1,3.22,11.75,11.75,0,0,0,2.19,2.7,17.1,17.1,0,0,0,10.09,4.68,14.2,14.2,0,0,0,7.88-1.36,9.55,9.55,0,0,0,5.09-6.4,7.35,7.35,0,0,0-.3-4.25,7.51,7.51,0,0,0-2.77-3.35,8.32,8.32,0,0,0-4.22-1.4,6.67,6.67,0,0,0-4.27,1.25,4.68,4.68,0,0,0-1.45,1.71,3.49,3.49,0,0,0-.28,2.18,5.27,5.27,0,0,0,2.77,3.52,12.749,12.749,0,0,0,4.56,1.26,42.107,42.107,0,0,0,4.74.33,75.4,75.4,0,0,0,9.32-.52c6.08-.68,12-1.66,17.63-1.72s11.14.72,15.71,3a18.5,18.5,0,0,1,5.84,4.37,13.389,13.389,0,0,1,3,6A16.16,16.16,0,0,1,464.47,357a18.93,18.93,0,0,1-5.93,6.33,22.34,22.34,0,0,1-4.9,2.5,15.146,15.146,0,0,1-1.84.55l.46-.17c.31-.09.76-.26,1.34-.48a23.089,23.089,0,0,0,4.83-2.57,18.94,18.94,0,0,0,5.79-6.3,16,16,0,0,0,1.63-11,13.23,13.23,0,0,0-3-5.82,18.1,18.1,0,0,0-5.73-4.24,33.985,33.985,0,0,0-15.51-2.87c-5.6.13-11.48,1.05-17.59,1.74a72.307,72.307,0,0,1-9.38.54,43.168,43.168,0,0,1-4.8-.33,13.19,13.19,0,0,1-4.74-1.32,5.81,5.81,0,0,1-3-3.88,4.05,4.05,0,0,1,.32-2.5,5.21,5.21,0,0,1,1.61-1.9,7.2,7.2,0,0,1,4.6-1.36,8.91,8.91,0,0,1,4.49,1.5,8,8,0,0,1,2.95,3.58,7.88,7.88,0,0,1,.32,4.55,10,10,0,0,1-5.36,6.71,14.58,14.58,0,0,1-8.15,1.39,17.665,17.665,0,0,1-10.33-4.83,12,12,0,0,1-2.26-2.82,14.481,14.481,0,0,1-1-3.33q-.32-1.65-.51-3.24c-.52-4.25-.77-8.1-1.06-11.48s-.57-6.28-.9-8.64a36.237,36.237,0,0,0-1.09-5.37,12.94,12.94,0,0,0-.47-1.35,4.559,4.559,0,0,1-.17-.52Z" fill="#263238"/>
      <path id="Path_294" data-name="Path 294" d="M442.75,441v-6.31c0-4.11,0-10.11-.06-17.72,0-15.23-.07-36.93-.12-62.89l.23.23H362.15l.26-.26v86.92l-.22-.22,58.44.11,16.39.06h4.38L437,441l-16.33.06-58.59.11h-.23V353.82H443V354c-.05,26-.09,47.77-.12,63,0,7.6,0,13.58-.06,17.67v5.83A1.827,1.827,0,0,1,442.75,441Z" fill="#263238"/>
      <path id="Path_295" data-name="Path 295" d="M420,364.73a.41.41,0,0,1-.41.42.42.42,0,1,1,0-.83.41.41,0,0,1,.41.41Z" fill="#263238"/>
      <path id="Path_296" data-name="Path 296" d="M422.31,364.73a.41.41,0,0,1-.41.42.42.42,0,1,1,0-.83.41.41,0,0,1,.41.41Z" fill="#263238"/>
      <path id="Path_297" data-name="Path 297" d="M424.59,364.73a.41.41,0,0,1-.41.42.42.42,0,1,1,0-.83A.41.41,0,0,1,424.59,364.73Z" fill="#263238"/>
      <path id="Path_298" data-name="Path 298" d="M426.87,364.73a.42.42,0,1,1-.42-.41A.42.42,0,0,1,426.87,364.73Z" fill="#263238"/>
      <path id="Path_299" data-name="Path 299" d="M429.15,364.73a.389.389,0,1,1-.42-.41A.42.42,0,0,1,429.15,364.73Z" fill="#263238"/>
      <path id="Path_300" data-name="Path 300" d="M431.43,364.73a.388.388,0,1,1-.42-.41.42.42,0,0,1,.42.41Z" fill="#263238"/>
      <path id="Path_301" data-name="Path 301" d="M433.71,364.73a.388.388,0,1,1-.42-.41.42.42,0,0,1,.42.41Z" fill="#263238"/>
      <circle id="Ellipse_6" data-name="Ellipse 6" cx="0.41" cy="0.41" r="0.41" transform="translate(431.83 365.86)" fill="#263238"/>
      <circle id="Ellipse_7" data-name="Ellipse 7" cx="0.41" cy="0.41" r="0.41" transform="translate(429.5 365.86)" fill="#263238"/>
      <path id="Path_302" data-name="Path 302" d="M428,366.27a.415.415,0,0,1-.83,0,.42.42,0,0,1,.42-.42.41.41,0,0,1,.41.42Z" fill="#263238"/>
      <circle id="Ellipse_8" data-name="Ellipse 8" cx="0.41" cy="0.41" r="0.41" transform="translate(424.84 365.86)" fill="#263238"/>
      <circle id="Ellipse_9" data-name="Ellipse 9" cx="0.41" cy="0.41" r="0.41" transform="translate(422.5 365.86)" fill="#263238"/>
      <path id="Path_303" data-name="Path 303" d="M421,366.27a.417.417,0,1,1-.42-.42.42.42,0,0,1,.42.42Z" fill="#263238"/>
      <path id="Path_304" data-name="Path 304" d="M420,368a.415.415,0,0,1-.83,0,.42.42,0,0,1,.42-.42.41.41,0,0,1,.41.42Z" fill="#263238"/>
      <path id="Path_305" data-name="Path 305" d="M422.31,368a.415.415,0,0,1-.83,0,.42.42,0,0,1,.42-.42.41.41,0,0,1,.41.42Z" fill="#263238"/>
      <path id="Path_306" data-name="Path 306" d="M424.59,368a.415.415,0,0,1-.83,0,.42.42,0,0,1,.42-.42.41.41,0,0,1,.41.42Z" fill="#263238"/>
      <path id="Path_307" data-name="Path 307" d="M426.87,368a.42.42,0,1,1-.187-.417.42.42,0,0,1,.187.417Z" fill="#263238"/>
      <path id="Path_308" data-name="Path 308" d="M429.15,368a.417.417,0,1,1-.42-.42.42.42,0,0,1,.42.42Z" fill="#263238"/>
      <path id="Path_309" data-name="Path 309" d="M431.43,368a.417.417,0,1,1-.42-.42A.42.42,0,0,1,431.43,368Z" fill="#263238"/>
      <path id="Path_310" data-name="Path 310" d="M433.71,368a.417.417,0,1,1-.42-.42.42.42,0,0,1,.42.42Z" fill="#263238"/>
      <path id="Path_311" data-name="Path 311" d="M432.66,369.53a.42.42,0,0,1-.42.42.417.417,0,1,1,.42-.42Z" fill="#263238"/>
      <path id="Path_312" data-name="Path 312" d="M430.32,369.53a.41.41,0,0,1-.41.42.42.42,0,0,1-.42-.42.415.415,0,0,1,.83,0Z" fill="#263238"/>
      <path id="Path_313" data-name="Path 313" d="M428,369.53a.41.41,0,0,1-.41.42.42.42,0,0,1-.42-.42.415.415,0,0,1,.83,0Z" fill="#263238"/>
      <path id="Path_314" data-name="Path 314" d="M425.66,369.53a.41.41,0,0,1-.41.42.42.42,0,0,1-.42-.42.415.415,0,0,1,.83,0Z" fill="#263238"/>
      <path id="Path_315" data-name="Path 315" d="M423.33,369.53a.42.42,0,1,1-.415-.355.42.42,0,0,1,.415.355Z" fill="#263238"/>
      <path id="Path_316" data-name="Path 316" d="M421,369.53a.42.42,0,0,1-.42.42.417.417,0,1,1,.42-.42Z" fill="#263238"/>
      <path id="Path_317" data-name="Path 317" d="M420,371.26a.41.41,0,0,1-.41.42.42.42,0,0,1-.42-.42.415.415,0,0,1,.83,0Z" fill="#263238"/>
      <path id="Path_318" data-name="Path 318" d="M422.31,371.26a.41.41,0,0,1-.41.42.42.42,0,0,1-.42-.42.415.415,0,0,1,.83,0Z" fill="#263238"/>
      <path id="Path_319" data-name="Path 319" d="M424.59,371.26a.41.41,0,0,1-.41.42.42.42,0,0,1-.42-.42.415.415,0,0,1,.83,0Z" fill="#263238"/>
      <path id="Path_320" data-name="Path 320" d="M426.87,371.26a.42.42,0,1,1-.415-.355.42.42,0,0,1,.415.355Z" fill="#263238"/>
      <path id="Path_321" data-name="Path 321" d="M429.15,371.26a.42.42,0,0,1-.42.42.417.417,0,1,1,.42-.42Z" fill="#263238"/>
      <path id="Path_322" data-name="Path 322" d="M431.43,371.26a.42.42,0,0,1-.42.42.417.417,0,1,1,.42-.42Z" fill="#263238"/>
      <path id="Path_323" data-name="Path 323" d="M433.71,371.26a.42.42,0,0,1-.42.42.417.417,0,1,1,.42-.42Z" fill="#263238"/>
      <circle id="Ellipse_10" data-name="Ellipse 10" cx="0.41" cy="0.41" r="0.41" transform="translate(431.83 372.39)" fill="#263238"/>
      <circle id="Ellipse_11" data-name="Ellipse 11" cx="0.41" cy="0.41" r="0.41" transform="translate(429.5 372.39)" fill="#263238"/>
      <path id="Path_324" data-name="Path 324" d="M428,372.8a.41.41,0,0,1-.41.41.42.42,0,1,1,0-.83.41.41,0,0,1,.41.42Z" fill="#263238"/>
      <circle id="Ellipse_12" data-name="Ellipse 12" cx="0.41" cy="0.41" r="0.41" transform="translate(424.84 372.39)" fill="#263238"/>
      <circle id="Ellipse_13" data-name="Ellipse 13" cx="0.41" cy="0.41" r="0.41" transform="translate(422.5 372.39)" fill="#263238"/>
      <path id="Path_325" data-name="Path 325" d="M421,372.8a.389.389,0,1,1-.42-.42.42.42,0,0,1,.42.42Z" fill="#263238"/>
      <path id="Path_326" data-name="Path 326" d="M388.5,271.29a5.229,5.229,0,0,1,1.62.29,9.09,9.09,0,0,1,3.94,2.57,17.15,17.15,0,0,1,3.49,6.6,65.435,65.435,0,0,1,2.19,9.67,122,122,0,0,1,.64,25.75,15.11,15.11,0,0,1-2.24,7.14,9.19,9.19,0,0,1-2.82,2.73,6.32,6.32,0,0,1-3.9.93,6.06,6.06,0,0,1-3.71-1.73,4.53,4.53,0,0,1-1.09-1.81,3.84,3.84,0,0,1,0-2.15,4.61,4.61,0,0,1,2.79-3.15,3.29,3.29,0,0,1,2.21,0,3.94,3.94,0,0,1,1.76,1.33,5.46,5.46,0,0,1,1,4.14,11.26,11.26,0,0,1-1.45,3.94,15.23,15.23,0,0,1-20.5,5.94,17.4,17.4,0,0,1-5.4-4.65A22.779,22.779,0,0,1,363.7,323a38.5,38.5,0,0,1-2.19-11.8c-.19-3.67,0-7-.35-9.88a16.888,16.888,0,0,0-.93-3.9,11.13,11.13,0,0,0-1.67-2.92,8.41,8.41,0,0,0-3.72-2.75,12,12,0,0,0-1.59-.38,5.31,5.31,0,0,1,1.63.29,8.18,8.18,0,0,1,3.83,2.71,11.08,11.08,0,0,1,1.75,3,16.882,16.882,0,0,1,1,4c.39,2.91.21,6.24.43,9.89a38.459,38.459,0,0,0,2.23,11.67,22.459,22.459,0,0,0,3.23,5.74,17,17,0,0,0,5.27,4.51,14.75,14.75,0,0,0,19.82-5.78,10.741,10.741,0,0,0,1.38-3.75,4.92,4.92,0,0,0-.87-3.76,3.56,3.56,0,0,0-1.53-1.16,2.76,2.76,0,0,0-1.86,0,4.1,4.1,0,0,0-2.46,2.79,3.59,3.59,0,0,0,1,3.47,5.53,5.53,0,0,0,3.39,1.58,5.8,5.8,0,0,0,3.59-.85,8.65,8.65,0,0,0,2.67-2.58,14.65,14.65,0,0,0,2.17-6.91,123.821,123.821,0,0,0-.52-25.65,67,67,0,0,0-2.11-9.63,17.1,17.1,0,0,0-3.36-6.55,9.12,9.12,0,0,0-3.82-2.61A12.168,12.168,0,0,0,388.5,271.29Z" fill="#e0e0e0"/>
      <rect id="Rectangle_22" data-name="Rectangle 22" width="33.22" height="6.33" transform="translate(347.43 285.76)" fill="#e0e0e0"/>
      <rect id="Rectangle_23" data-name="Rectangle 23" width="43.33" height="93.27" transform="translate(97.52 351.2)" fill="#263238"/>
      <path id="Path_327" data-name="Path 327" d="M137.13,434.65v-6.03c0-3.9,0-9.55-.07-16.66,0-14.22-.07-34.24-.12-57.53l.25.24H100.94l.26-.26c0,31.16,0,59.46-.07,80.22l-.19-.19,26.47.1,7.24.05h-7.12l-26.59.1h-.18v-.19c0-20.76,0-49.06-.08-80.22v-.26h36.77v.25c0,23.36-.09,43.44-.12,57.7,0,7.08,0,12.72-.07,16.6v5.54A1.438,1.438,0,0,1,137.13,434.65Z" fill="#455a64"/>
      <path id="Path_328" data-name="Path 328" d="M134.89,361.22v-1c0-.65,0-1.56-.06-2.7l.11.11c-5.61.09-17.63.15-31.52.15h0l.26-.26h0v3.67l-.25-.26c8.81,0,16.65.06,22.32.11l6.71.07h1.83a3.3,3.3,0,0,1,.66,0,4.081,4.081,0,0,1-.59,0h-1.78l-6.64.07c-5.66.06-13.59.11-22.51.11h-.26v-3.93h0l.27-.26h0c13.89,0,25.91.06,31.52.15H135v.11c0,1.17,0,2.09-.06,2.77A8.529,8.529,0,0,1,134.89,361.22Z" fill="#455a64"/>
      <path id="Path_329" data-name="Path 329" d="M106.54,363.86c0,.14-.65.26-1.45.26s-1.46-.12-1.46-.26.65-.26,1.46-.26S106.54,363.71,106.54,363.86Z" fill="#455a64"/>
      <path id="Path_330" data-name="Path 330" d="M134.05,368.67c0,.14-6.71.26-15,.26s-15-.12-15-.26,6.7-.26,15-.26S134.05,368.53,134.05,368.67Z" fill="#455a64"/>
      <path id="Path_331" data-name="Path 331" d="M134.18,374.48c0,.15-6.6.26-14.73.26s-14.73-.11-14.73-.26,6.59-.26,14.73-.26S134.18,374.34,134.18,374.48Z" fill="#455a64"/>
      <circle id="Ellipse_14" data-name="Ellipse 14" cx="2.38" cy="2.38" r="2.38" transform="translate(116.68 385.69)" fill="#ff6262"/>
      <path id="Path_332" data-name="Path 332" d="M112.34,388a10.139,10.139,0,0,1-3.19.26A10.049,10.049,0,0,1,106,388a9.72,9.72,0,0,1,3.18-.26A9.81,9.81,0,0,1,112.34,388Z" fill="#455a64"/>
      <path id="Path_333" data-name="Path 333" d="M131.7,387.34a8.91,8.91,0,0,1-3,.26,8.879,8.879,0,0,1-3-.26,9.179,9.179,0,0,1,3-.26A9.22,9.22,0,0,1,131.7,387.34Z" fill="#455a64"/>
      <path id="Path_334" data-name="Path 334" d="M99,398a9.25,9.25,0,0,1-1.62-.3,14.191,14.191,0,0,1-4.29-2,18.38,18.38,0,0,1-5.17-5.39,31.161,31.161,0,0,1-3.77-9.16A37.4,37.4,0,0,1,83,369.22a24.5,24.5,0,0,1,4.55-12.94,20.42,20.42,0,0,1,5.43-5.16,18.9,18.9,0,0,1,3.49-1.73,19.392,19.392,0,0,1,3.86-.92c2.64-.37,5.34-.32,8-.48a19.92,19.92,0,0,0,7.91-1.82,8.88,8.88,0,0,0,4.92-6,8.43,8.43,0,0,0-8.42-10.3,6,6,0,0,0-3.34,1.24,3.62,3.62,0,0,0-1.4,3,4.85,4.85,0,0,0,4.46,4.31,7.35,7.35,0,0,0,5.72-2.57A13.76,13.76,0,0,0,121,330.4a47,47,0,0,0,1.15-5.61,92.478,92.478,0,0,0,.53-17.31c-.1-2-.18-3.61-.24-4.71a9.811,9.811,0,0,0-.06-1.23,2.21,2.21,0,0,1,0-.42,2.289,2.289,0,0,1,.06.42c0,.3.06.7.11,1.22.08,1.08.21,2.66.33,4.71a88.2,88.2,0,0,1-.37,17.37,46.56,46.56,0,0,1-1.13,5.67,14.19,14.19,0,0,1-2.83,5.61,7.76,7.76,0,0,1-6.07,2.73,5.3,5.3,0,0,1-4.91-4.74,4.13,4.13,0,0,1,1.57-3.42,6.38,6.38,0,0,1,3.61-1.35A9,9,0,0,1,119.84,344a10.3,10.3,0,0,1-3.35,2.61,20.411,20.411,0,0,1-8.12,1.88c-2.73.16-5.42.11-8,.46a19.436,19.436,0,0,0-3.76.89,17.838,17.838,0,0,0-3.39,1.68,20.12,20.12,0,0,0-5.32,5,24.16,24.16,0,0,0-4.5,12.68,37.41,37.41,0,0,0,1.12,11.83,31.49,31.49,0,0,0,3.66,9.09,18.34,18.34,0,0,0,5,5.38,14.78,14.78,0,0,0,4.21,2.06c.51.15.91.24,1.18.3A1.819,1.819,0,0,1,99,398Z" fill="#263238"/>
      <rect id="Rectangle_24" data-name="Rectangle 24" width="102.6" height="70.46" transform="translate(84.25 206.51)" fill="#263238"/>
      <rect id="Rectangle_25" data-name="Rectangle 25" width="13.97" height="26.58" transform="translate(127.62 267.36)" fill="#263238"/>
    </g>
    <g id="freepik--Desk--inject-49">
      <path id="Path_335" data-name="Path 335" d="M94.46,292.92v9.56H147.4V444.94h4.87V302.48l221.09,1.09V444.94h4.78V303.31l34.12.27V292.09Z" fill="#263238"/>
      <path id="Path_336" data-name="Path 336" d="M128.34,300.62l20.87,15.03-1.81,1.74-21.05-15.85Z" fill="#263238"/>
      <path id="Path_337" data-name="Path 337" d="M397.81,302.02l-24.22,17.25,1.82,1.74,24.39-18.07Z" fill="#263238"/>
      <rect id="Rectangle_26" data-name="Rectangle 26" width="54.72" height="4.03" transform="translate(171.44 289.39)" fill="#263238"/>
    </g>
    <path id="Icon_awesome-check" data-name="Icon awesome-check" d="M11.458,29.239.494,18.276a1.687,1.687,0,0,1,0-2.385L2.879,13.5a1.687,1.687,0,0,1,2.385,0L12.65,20.89,28.47,5.071a1.687,1.687,0,0,1,2.385,0l2.385,2.385a1.687,1.687,0,0,1,0,2.385l-19.4,19.4A1.687,1.687,0,0,1,11.458,29.239Z" transform="translate(88.265 128.689)" fill="#5538a4"/>
    <path id="Icon_awesome-check-2" data-name="Icon awesome-check" d="M8,21.789.345,14.137a1.177,1.177,0,0,1,0-1.665l1.665-1.665a1.177,1.177,0,0,1,1.665,0l5.154,5.154,11.04-11.04a1.177,1.177,0,0,1,1.665,0L23.2,6.587a1.177,1.177,0,0,1,0,1.665L9.661,21.789A1.177,1.177,0,0,1,8,21.789Z" transform="translate(192.457 64.126)" fill="#5538a4"/>
  </g>
</svg>
