<?xml version="1.0" encoding="utf-8"?>
<!-- Generator: Adobe Illustrator 25.0.0, SVG Export Plug-In . SVG Version: 6.00 Build 0)  -->
<svg version="1.1" id="Layer_1" xmlns="http://www.w3.org/2000/svg" xmlns:xlink="http://www.w3.org/1999/xlink" x="0px" y="0px"
	 viewBox="0 0 453.8 439.8" style="enable-background:new 0 0 453.8 439.8;" xml:space="preserve">
<style type="text/css">
	.st0{fill:#FFFFFF;}
	.st1{fill:#E0E0E0;}
	.st2{opacity:0.3;}
	.st3{fill:none;}
	.st4{fill-rule:evenodd;clip-rule:evenodd;fill:#E0E0E0;}
	.st5{fill:#EBEBEB;}
	.st6{fill:#263238;}
	.st7{fill:#455A64;}
	.st8{fill:#006EDB;}
	.st9{fill:#FAFAFA;}
	.st10{fill:#FFBE9D;}
	.st11{fill:#545487;}
	.st12{opacity:0.6;}
	.st13{fill:#00204F;}
	.st14{fill:#EB996E;}
	.st15{fill:#FF6262;}
</style>
<g id="Programming-pana" transform="translate(-19.09 -32.76)">
	<g id="freepik--background-complete--inject-49">
		<rect id="Rectangle_2" x="68.7" y="116.4" class="st0" width="125.2" height="83.8"/>
		<path id="Path_1" class="st1" d="M194,200.3v-22.8c0-14.6-0.1-35.5-0.1-61l0.2,0.2H68.9l0.2-0.2v83.8l-0.2-0.2l90.2,0.1l25.8,0.1
			h0.1l-25.7,0.1l-90.3,0.1h-0.2v-84.3h125.6v0.2c0,25.6-0.1,46.5-0.1,61.1v21.2C194.2,199.2,194.2,199.7,194,200.3z"/>
		<path id="Path_2" class="st1" d="M68.7,123.9c0-0.1,28-0.2,62.6-0.2s62.6,0.1,62.6,0.2s-28,0.2-62.6,0.2S68.7,124,68.7,123.9z"/>
		<g id="Group_1" class="st2">
			<path id="Path_3" class="st1" d="M73.7,120.1c0,0.6-0.4,1-1,1s-1-0.4-1-1s0.4-1,1-1S73.7,119.6,73.7,120.1z"/>
		</g>
		<g id="Group_2" class="st2">
			<circle id="Ellipse_1" class="st1" cx="76.1" cy="120.1" r="1"/>
		</g>
		<g id="Group_3" class="st2">
			<path id="Path_4" class="st1" d="M80.5,120.1c0,0.6-0.4,1-1,1s-1-0.4-1-1s0.4-1,1-1S80.5,119.6,80.5,120.1z"/>
		</g>
		<rect id="Rectangle_3" x="79.5" y="132.6" class="st1" width="33.4" height="33.4"/>
		<path id="Path_5" class="st1" d="M176.8,142.1c0,0.1-13,0.2-29.1,0.2s-29.1-0.1-29.1-0.2s13-0.2,29.1-0.2S176.8,142,176.8,142.1z"
			/>
		<path id="Path_6" class="st1" d="M176.8,148.3c0,0.1-13,0.2-29.1,0.2s-29.1-0.1-29.1-0.2s13-0.2,29.1-0.2S176.8,148.2,176.8,148.3
			z"/>
		<path id="Path_7" class="st1" d="M176.8,154.5c0,0.1-13,0.2-29.1,0.2s-29.1-0.1-29.1-0.2s13-0.2,29.1-0.2S176.8,154.4,176.8,154.5
			z"/>
		<path id="Path_8" class="st1" d="M153,160.7c-0.4,0.1-0.9,0.1-1.4,0.1l-3.7,0.1c-3.1,0-7.4,0.1-12.1,0.1s-9,0-12.2-0.1l-3.7-0.1
			c-0.5,0-0.9,0-1.3-0.1c0.4-0.1,0.9-0.1,1.3-0.1l3.7-0.1c3.1-0.1,7.4-0.1,12.2-0.1s9,0,12.1,0.1l3.7,0.1
			C152.1,160.6,152.6,160.6,153,160.7z"/>
		<rect id="Rectangle_4" x="81.6" y="177.3" class="st1" width="15.7" height="15.7"/>
		<rect id="Rectangle_5" x="110.1" y="177.3" class="st1" width="15.7" height="15.7"/>
		<rect id="Rectangle_6" x="138.5" y="177.3" class="st1" width="15.7" height="15.7"/>
		<rect id="Rectangle_7" x="167" y="177.3" class="st1" width="15.7" height="15.7"/>
		<path id="Path_9" class="st3" d="M428.1,143.7c-0.8,1-1.7,2-2.7,2.8l0.7,3.5l-5.4,2.4l-2.1-2.9c-1.3,0.2-2.6,0.2-3.9,0.1l-2,3
			l-5.5-2.1l0.5-3.5c-1-0.8-2-1.6-2.8-2.7l-3.5,0.7l-2.4-5.4l2.9-2.1c-0.2-1.3-0.2-2.6-0.1-3.9l-3-2l2.2-5.6l3.5,0.5
			c0.8-1,1.7-2,2.7-2.8l-0.7-3.5l5.4-2.4l2.1,2.9c1.3-0.2,2.6-0.2,3.9-0.1l2-3l5.5,2.1l-0.5,3.5c1,0.8,2,1.7,2.8,2.7l3.5-0.7
			l2.4,5.4l-2.9,2.1c0.2,1.3,0.2,2.6,0.1,3.9l3,2l-2.1,5.5L428.1,143.7L428.1,143.7z M422.1,137.7c-2.1,4.2-7.2,5.9-11.4,3.8
			s-5.9-7.2-3.8-11.4s7.2-5.9,11.4-3.8C422.5,128.4,424.2,133.4,422.1,137.7L422.1,137.7z"/>
		<path id="Path_10" class="st1" d="M422.1,137.6c-0.1,0.5-0.4,1-0.7,1.4c-2,2.9-6,3.7-8.9,1.7c-0.2-0.1-0.4-0.3-0.6-0.5
			c-0.5-0.4-0.9-0.9-1.2-1.4c-0.4-0.6-0.6-1.2-0.8-1.8c-0.4-1.3-0.3-2.8,0.2-4.1c0.5-1.3,1.4-2.4,2.6-3.1c0.6-0.4,1.2-0.6,1.8-0.8
			c0.6-0.2,1.2-0.2,1.9-0.2c2.2,0.1,4.2,1.3,5.4,3.2c0.8,1.2,1.1,2.7,0.9,4.2C422.5,136.7,422.3,137.2,422.1,137.6
			c0.2-0.5,0.3-1,0.3-1.5c0.1-1.4-0.2-2.8-0.9-4c-1.1-1.8-3.1-2.9-5.2-2.9c-0.6,0-1.2,0.1-1.8,0.2c-3.3,0.9-5.2,4.3-4.3,7.6
			c0.2,0.6,0.4,1.2,0.8,1.7c0.3,0.5,0.7,1,1.1,1.4c1.6,1.4,3.8,1.9,5.8,1.3c1.4-0.4,2.6-1.2,3.4-2.4
			C421.6,138.6,421.9,138.1,422.1,137.6L422.1,137.6z"/>
		<path id="Path_11" class="st1" d="M428.1,143.7h0.2l0.7,0.1l2.6,0.4h-0.1c0.5-1.4,1.2-3.3,2.1-5.5v0.1l-3-2h-0.1v-0.1
			c0.1-1.3,0.1-2.6-0.1-3.8v-0.1h0.1l2.9-2.1v0.2l-2.4-5.4l0.1,0.1l-3.5,0.7h-0.1l-0.1-0.1c-0.8-1-1.7-1.9-2.8-2.6l-0.1-0.1v-0.1
			c0.2-1.1,0.3-2.3,0.5-3.5l0.1,0.2l-5.5-2.1l0.2-0.1l-2,3l-0.1,0.1h-0.1c-1.3-0.1-2.5-0.1-3.8,0.1h-0.1l-0.1-0.1l-2.1-2.9h0.2
			l-5.4,2.4l0.1-0.2c0.2,1.1,0.5,2.3,0.7,3.5v0.1l-0.1,0.1c-1,0.8-1.9,1.7-2.6,2.8l0,0l-0.2,0.1h-0.4l-0.5-0.1l-0.9-0.1l-1.8-0.2
			l0.2-0.1l-2,5.5l-0.1-0.2l3,2l0.1,0.1v0.1c-0.1,1.3-0.1,2.5,0.1,3.8v0.1l-0.1,0.1l-2.9,2.1l0.1-0.2c0.8,1.9,1.6,3.7,2.4,5.4
			l-0.2-0.1l3.5-0.7h0.1l0.1,0.1c0.8,1,1.7,1.9,2.8,2.6l0.1,0.1v0.1c-0.2,1.2-0.4,2.4-0.5,3.5l-0.1-0.2l5.5,2.1l-0.2,0.1l2-3v-0.1
			h0.1c1.3,0.1,2.6,0.1,3.8-0.1h0.1v0.1l2.1,2.9h-0.1l5.4-2.4v0.1c-0.3-1.4-0.5-2.6-0.7-3.5l0,0c0.8-0.6,1.5-1.3,2.1-2l0.5-0.6
			L428.1,143.7l-0.1,0.3c-0.1,0.1-0.2,0.3-0.4,0.6c-0.6,0.8-1.3,1.5-2,2.1v-0.1c0.2,1,0.4,2.1,0.7,3.5V150h-0.1l-5.4,2.4h-0.1
			l-0.1-0.1l-2.1-2.9l0.1,0.1c-1.3,0.2-2.6,0.2-3.9,0.1l0.1-0.1l-2,3l-0.1,0.1h-0.1l-5.5-2.1H407v-0.1c0.2-1.1,0.3-2.3,0.5-3.5
			l0.1,0.1c-1.1-0.8-2-1.7-2.8-2.7l0.2,0.1l-3.5,0.7h-0.1l-0.1-0.1l-2.4-5.4l-0.1-0.1l0.1-0.1l2.9-2.1l-0.1,0.2
			c-0.2-1.3-0.2-2.6-0.1-3.9l0.1,0.2l-3-2l-0.1-0.1v-0.1l2.1-5.5l0-0.1h0.1l1.8,0.2l0.9,0.1l0.5,0.1h0.4c-0.4,0.2-0.1,0-0.2,0.1l0,0
			c0.8-1,1.7-2,2.8-2.8l-0.1,0.2c-0.2-1.2-0.5-2.4-0.7-3.5v-0.2l0.1-0.1l5.4-2.4l0.1-0.1l0.1,0.1c0.7,1,1.5,2,2.1,2.9l-0.2-0.1
			c1.3-0.2,2.6-0.2,3.9-0.1l-0.2,0.1l2-3l0.1-0.1h0.1l5.5,2.1h0.1v0.1c-0.2,1.2-0.4,2.4-0.5,3.5l-0.1-0.2c1.1,0.8,2,1.7,2.8,2.7
			l-0.1-0.1l3.5-0.7h0.1l0,0.1c0.8,1.9,1.6,3.7,2.4,5.4v0.1l-0.1,0.1l-2.9,2.1l0-0.1c0.2,1.3,0.2,2.6,0.1,3.9l0-0.1l3,2h0.1v0.1
			l-2.2,5.5v0.1l0,0l-2.6-0.4l-0.7-0.1L428.1,143.7z"/>
		<path id="Path_12" class="st4" d="M459.6,126.8c-0.6,0.9-1.4,1.6-2.2,2.3l0.6,2.9l-4.5,2l-1.8-2.4c-1.1,0.2-2.1,0.2-3.2,0.1
			l-1.6,2.5l-4.6-1.8l0.4-2.9c-0.9-0.6-1.7-1.4-2.3-2.2l-2.9,0.6l-2-4.5l2.4-1.8c-0.2-1.1-0.2-2.1-0.1-3.2l-2.5-1.7l1.8-4.6l2.9,0.4
			c0.6-0.9,1.4-1.7,2.2-2.3l-0.6-2.9l4.5-2l1.8,2.4c1.1-0.2,2.1-0.2,3.2-0.1l1.6-2.5l4.6,1.8l-0.4,2.9c0.9,0.6,1.6,1.4,2.3,2.2
			l2.9-0.6l2,4.5l-2.4,1.8c0.2,1.1,0.2,2.1,0.1,3.2l2.5,1.7l-1.8,4.6L459.6,126.8L459.6,126.8z M454.6,121.8c-1.5,0-2.8,1.3-2.8,2.8
			s1.3,2.8,2.8,2.8s2.8-1.3,2.8-2.8C457.4,123.1,456.1,121.8,454.6,121.8L454.6,121.8z"/>
		<path id="Path_13" class="st4" d="M440.2,99.5c-1,1.4-2.2,2.6-3.5,3.6l0.9,4.6l-7,3.1l-2.8-3.7c-1.7,0.3-3.3,0.3-5,0.1l-2.6,3.9
			l-7.2-2.8l0.7-4.6c-1.4-1-2.6-2.2-3.6-3.5l-4.6,0.9l-3.1-7l3.7-2.8c-0.3-1.7-0.3-3.3-0.1-5l-3.9-2.6l2.8-7.2l4.6,0.7
			c1-1.4,2.1-2.6,3.4-3.7l-0.9-4.6l7-3.1l2.8,3.7c1.7-0.3,3.3-0.3,5-0.1l2.6-3.9l7.2,2.8L436,73c1.4,1,2.6,2.2,3.6,3.5l4.6-0.9
			l3.1,7l-3.7,2.8c0.3,1.7,0.3,3.3,0.1,5l3.9,2.7l-2.8,7.2L440.2,99.5L440.2,99.5z M432.4,91.6c1.6-4.3-0.5-9-4.7-10.7
			c-4.3-1.6-9,0.5-10.7,4.7s0.5,9,4.7,10.7c2,0.8,4.3,0.7,6.3-0.2C430.1,95.3,431.7,93.7,432.4,91.6z"/>
		<path id="Path_14" class="st1" d="M369.6,61.4c0.2-0.2,0.3-0.4,0.5-0.6l1.5-1.5c1.3-1.3,3.1-3,5.1-4.9h0v0.2
			c-2-1.9-3.8-3.6-5.1-4.8l-1.5-1.5c-0.2-0.2-0.4-0.4-0.5-0.6c0.2,0.1,0.4,0.3,0.6,0.5l1.6,1.4c1.3,1.2,3.2,2.9,5.2,4.8l0.1,0.1
			l-0.1,0.1l0,0c-2,1.9-3.8,3.6-5.2,4.9l-1.6,1.5C370.1,61.1,369.8,61.2,369.6,61.4z"/>
		<path id="Path_15" class="st1" d="M354,47.6c-0.2,0.2-0.3,0.4-0.5,0.6l-1.5,1.5c-1.3,1.3-3.1,3-5.1,4.9l0,0v-0.3
			c2,1.9,3.8,3.6,5.1,4.8l1.5,1.5c0.2,0.2,0.4,0.4,0.5,0.6c-0.2-0.1-0.4-0.3-0.6-0.5c-0.4-0.4-1-0.9-1.6-1.4
			c-1.3-1.2-3.2-2.9-5.2-4.8l-0.1-0.1l0.1-0.1h0c2-1.9,3.8-3.6,5.2-4.9l1.6-1.4C353.6,47.9,353.8,47.7,354,47.6L354,47.6z"/>
		<path id="Path_16" class="st1" d="M358,64.6c-0.1,0,1.5-4.6,3.7-10.3s3.9-10.2,4-10.2s-1.5,4.6-3.7,10.3S358.1,64.6,358,64.6z"/>
		<path id="Path_17" class="st1" d="M387.4,74.5V63.1c0-7.2,0-17.5-0.1-30l0.1,0.2h-50.8l0.2-0.2v41.4l-0.2-0.2l36.7,0.1h10.5
			l-10.4,0.1l-36.8,0.1h-0.2V32.8h51.1v0.2c0,12.5-0.1,22.8-0.1,30.1v10.6C387.5,73.9,387.5,74.2,387.4,74.5z"/>
		<path id="Path_18" class="st1" d="M387.8,39.2c0,0.1-11.5,0.2-25.6,0.2s-25.6-0.1-25.6-0.2S348,39,362.2,39S387.8,39.1,387.8,39.2
			z"/>
		<path id="Path_19" class="st1" d="M340.7,36.2c0,0.4-0.3,0.7-0.7,0.7s-0.7-0.3-0.7-0.7s0.3-0.7,0.7-0.7S340.7,35.8,340.7,36.2
			L340.7,36.2z"/>
		<circle id="Ellipse_2" class="st1" cx="342.5" cy="36.2" r="0.7"/>
		<path id="Path_20" class="st1" d="M345.7,36.2c0,0.4-0.3,0.7-0.7,0.7s-0.7-0.3-0.7-0.7s0.3-0.7,0.7-0.7S345.7,35.8,345.7,36.2
			L345.7,36.2z"/>
		<rect id="Rectangle_8" x="171.8" y="53" class="st0" width="117.4" height="47.7"/>
		<path id="Path_21" class="st1" d="M289.2,100.7V87.9c0-8.2,0-20.1-0.1-34.9l0.1,0.1l-117.4,0.1l0,0L172,53v47.7l-0.2-0.2l84.2,0.1
			l24.4,0.1h-24.3l-84.3,0.1h-0.2v-48h117.7V53c0,14.8,0,26.7-0.1,34.9v11.9C289.2,100.4,289.2,100.7,289.2,100.7z"/>
		<path id="Path_22" class="st1" d="M172,59.5c0-0.1,26.2-0.2,58.6-0.2s58.6,0.1,58.6,0.2s-26.2,0.2-58.6,0.2S172,59.6,172,59.5z"/>
		<g id="Group_4" class="st2">
			<path id="Path_23" class="st5" d="M176.9,56.6c0,0.5-0.4,0.9-0.9,0.9c-0.5,0-0.8-0.4-0.8-0.8s0.4-0.8,0.8-0.9
				S176.9,56.1,176.9,56.6L176.9,56.6z"/>
		</g>
		<g id="Group_5" class="st2">
			<path id="Path_24" class="st5" d="M179.8,56.6c0,0.5-0.4,0.9-0.9,0.9c-0.5,0-0.8-0.4-0.8-0.8s0.4-0.8,0.8-0.9
				S179.8,56.1,179.8,56.6L179.8,56.6z"/>
		</g>
		<g id="Group_6" class="st2">
			<circle id="Ellipse_3" class="st5" cx="181.8" cy="56.6" r="0.9"/>
		</g>
		<rect id="Rectangle_9" x="181.8" y="67.2" class="st1" width="28.4" height="28.4"/>
		<path id="Path_25" class="st1" d="M281.1,74.8c0,0.1-14.6,0.2-32.6,0.2s-32.6-0.1-32.6-0.2s14.6-0.2,32.6-0.2
			S281.1,74.7,281.1,74.8z"/>
		<path id="Path_26" class="st1" d="M281.1,80.6c0,0.1-14.6,0.2-32.6,0.2s-32.6-0.1-32.6-0.2s14.6-0.2,32.6-0.2
			S281.1,80.5,281.1,80.6z"/>
		<path id="Path_27" class="st1" d="M257.9,86.4c-0.1,0-0.3,0-0.4,0h-1.2l-4.5,0.1l-14.8,0.1l-14.8-0.1l-4.5-0.1h-1.2
			c-0.1,0-0.3,0-0.4,0c0.1,0,0.3,0,0.4,0h1.2l4.5-0.1h29.7l4.5,0.1h1.2C257.6,86.4,257.7,86.4,257.9,86.4z"/>
	</g>
	<g id="freepik--Floor--inject-49">
		<path id="Path_28" class="st6" d="M472.9,445.1c0,0.1-99.8,0.3-222.9,0.3s-222.9-0.1-222.9-0.3s99.8-0.3,222.9-0.3
			S472.9,444.9,472.9,445.1z"/>
	</g>
	<g id="freepik--Character--inject-49">
		<path id="Path_218" class="st7" d="M147.9,272l26.1,88.1c1.2,3.9,4.8,6.6,8.8,6.6l106,0.3c5.4,0,9.8-4.4,9.8-9.8
			c0-0.2,0-0.4,0-0.5l0,0c-0.3-5.2-4.6-9.3-9.8-9.3h-40.5L215.9,257h-56.8c-6.4,0-11.7,5.2-11.7,11.7
			C147.4,269.8,147.6,270.9,147.9,272z"/>
		<path id="Path_219" class="st6" d="M237.6,354.7c0,0.2-10.8,0.4-24.1,0.4s-24.1-0.2-24.1-0.4s10.8-0.4,24.1-0.4
			S237.6,354.5,237.6,354.7z"/>
		<path id="Path_220" class="st6" d="M155.7,259.8c0.2-0.1,7.4,21,16.1,47.2s15.6,47.3,15.4,47.4s-7.4-21-16.1-47.2
			S155.5,259.9,155.7,259.8z"/>
		<path id="Path_221" class="st7" d="M233.1,445.1l-6.5-0.1v-78.2h6.5V445.1z"/>
		<path id="Path_222" class="st7" d="M199.9,444.7H260l-27.2-9.5h-6.5L199.9,444.7z"/>
		<path id="Path_223" class="st8" d="M184.6,236.8l9.9,49.7l-1.8,37.2l66.9-11.1l-2.6-32.6l-0.1-27l16.4,31.8l12.8-24.7l-23.4-42.4
			l0,0c-4.3-4.4-9.5-7.8-15.3-9.9c-3.1-1.1-6.3-1.7-9.6-1.8l0,0c-7.5,2.4-15.6,2.4-23.1,0c-0.9,0.1-2.2,0.2-3.9,0.4h-0.3
			c-14.2,1.8-25.1,13.5-25.8,27.8L184.6,236.8z"/>
		<path id="Path_224" class="st8" d="M210.9,206.5c0,0-27.5,0.2-30.9,29.2l-0.5,21.3l23.7-0.2L210.9,206.5z"/>
		<path id="Path_225" class="st9" d="M276.5,243.8c0,0.2-21.6,0.4-48.3,0.4S180,244,180,243.8s21.6-0.4,48.3-0.4
			S276.5,243.6,276.5,243.8z"/>
		<path id="Path_226" class="st9" d="M276.5,248.4c0,0.2-21.6,0.4-48.3,0.4s-48.3-0.2-48.3-0.4s21.6-0.4,48.3-0.4
			S276.5,248.2,276.5,248.4z"/>
		<path id="Path_227" class="st9" d="M275,240c0,0.2-21.3,0.4-47.5,0.4S180,240.2,180,240s21.3-0.4,47.5-0.4S275,239.8,275,240z"/>
		<path id="Path_228" class="st6" d="M256.7,284.8c-0.2,0-0.1-11.8,0.2-26.3s0.8-26.3,1-26.3s0.1,11.8-0.2,26.3
			S256.9,284.8,256.7,284.8z"/>
		<path id="Path_229" class="st10" d="M247.3,265.7c0,0,13,0.9,15.3,4.4s5.9,13.2,4.6,13.3c-0.8,0-1.7-0.2-2.3-0.7l-3.6-6.3
			c0,0,0.6,6.1-1.6,6.2s-12.7,2.2-12.7,2.2L247.3,265.7z"/>
		<path id="Path_230" class="st8" d="M179.6,251.3l-0.1,33.5c0.4,7,6.4,12.4,13.4,12c0.7,0,1.4-0.1,2-0.3l52.4-10.8l-0.1-21.5
			L202,273l-0.6-22.8L179.6,251.3z"/>
		<path id="Path_231" class="st6" d="M209.5,293.9c0.2-0.1,0.5-0.1,0.7-0.2l2-0.5l7.7-1.6l27.3-5.6l-0.3,0.3v-22.1l0.4,0.4l-9.2,1.8
			l-36,6.9l-0.4,0.1V273c0.3-10,0.6-18.3,0.8-24.2c0.1-2.9,0.2-5.1,0.3-6.8c0-0.7,0.1-1.3,0.1-1.8c0-0.2,0-0.4,0.1-0.6
			c0,0.2,0,0.4,0,0.6v1.8c0,1.6-0.1,3.9-0.1,6.8c-0.1,5.9-0.3,14.2-0.6,24.2l-0.4-0.3l36-7l9.2-1.8l0.4-0.1v22.8l-0.3,0L220,292
			l-7.7,1.5l-2.1,0.4C210,293.9,209.7,293.9,209.5,293.9z"/>
		<path id="Path_232" class="st6" d="M239.5,206.5c0.1,0.2,0.2,0.3,0.2,0.5c0.2,0.5,0.3,1,0.4,1.5c0.4,1.9,0.3,3.8-0.2,5.6
			c-0.8,2.7-2.4,5.1-4.5,7c-2.6,2.3-6,3.6-9.5,3.6c-3.5,0.1-6.9-1.3-9.4-3.8c-2-2.1-3.2-4.7-3.5-7.6c-0.2-1.9,0-3.8,0.7-5.6
			c0.2-0.5,0.4-0.9,0.7-1.4c0.2-0.3,0.3-0.4,0.3-0.4s-0.3,0.7-0.7,1.9c-0.5,1.8-0.7,3.6-0.4,5.4c0.4,2.7,1.6,5.2,3.5,7.2
			c2.4,2.3,5.6,3.6,8.9,3.6c3.3,0,6.6-1.2,9.1-3.4c2.1-1.8,3.7-4.1,4.5-6.7c0.5-1.8,0.7-3.6,0.5-5.4
			C239.7,207.2,239.4,206.5,239.5,206.5z"/>
		<path id="Path_233" class="st9" d="M242.1,287.6c-0.1-1.1-0.1-2.2,0-3.3c0.1-2,0.2-4.8,0.2-7.9s0-5.9-0.1-8
			c-0.1-1.1-0.1-2.2,0-3.3c0.3,1.1,0.5,2.2,0.5,3.3c0.2,2,0.3,4.9,0.3,8s-0.2,5.9-0.4,8C242.5,285.4,242.3,286.5,242.1,287.6z"/>
		<path id="Path_234" class="st9" d="M239.3,288.1c-0.1-1.1-0.2-2.2-0.1-3.3c0-2.3,0.1-5,0.1-7.9V269c-0.1-1.1,0-2.2,0.1-3.3
			c0.3,1.1,0.4,2.2,0.4,3.3c0.1,2,0.2,4.8,0.2,7.9s-0.1,5.9-0.3,7.9C239.8,285.9,239.6,287,239.3,288.1z"/>
		<path id="Path_235" class="st11" d="M291.8,421.2l9.9,27.3l14.1,19.3c1,1.3,0.6,3.2-0.7,4.2c0,0-0.1,0.1-0.1,0.1l0,0
			c-0.8,0.5-1.8,0.6-2.7,0.2c-5.7-2.4-26.5-11.1-27.1-13.1c-0.7-2.4-14.1-31.7-14.1-31.7L291.8,421.2z"/>
		<g id="Group_7" class="st12">
			<path id="Path_236" class="st0" d="M315,472.1l-30.5-14.7l0.5,1.1c0.4,1,1.1,1.8,2,2.3c2.5,1.4,9.5,4.9,25.2,11.5
				C313.1,472.7,314.1,472.7,315,472.1L315,472.1z"/>
		</g>
		<g id="Group_8" class="st12">
			<path id="Path_237" class="st0" d="M286.6,446.5c0.9,0.2,1.4,1.1,1.3,2c-0.2,0.9-1.1,1.5-2,1.3c-0.9-0.2-1.5-1.2-1.4-2.1
				c0.3-0.9,1.3-1.4,2.2-1.1"/>
		</g>
		<path id="Path_238" class="st6" d="M304.2,462.7c0.3-1.1,0.9-2.1,1.6-3c1.3-1.4,2.9-1.6,2.9-1.8s-0.4-0.1-1.1,0
			c-1.8,0.5-3.1,1.9-3.4,3.7C304,462.3,304.1,462.7,304.2,462.7z"/>
		<path id="Path_239" class="st6" d="M307.5,465.6c0.2,0.1,0.7-1.1,1.9-2.1c0.8-0.5,1.6-1,2.5-1.4c0-0.2-1.5-0.2-2.9,0.9
			S307.4,465.5,307.5,465.6z"/>
		<path id="Path_240" class="st6" d="M298.8,459.5c0.2,0.1,1-1.8,2.8-3.4s3.7-2.3,3.6-2.5s-2.2,0.2-4.1,2S298.6,459.4,298.8,459.5z"
			/>
		<path id="Path_241" class="st6" d="M295.1,451.4c0.1,0.1,1.4-1.1,3.3-1.9s3.6-1,3.6-1.1c-1.3-0.3-2.7-0.1-3.9,0.6
			C296.9,449.4,295.8,450.3,295.1,451.4z"/>
		<path id="Path_242" class="st6" d="M292,443.5c0.1,0.1,1.3-1.4,3.4-2.1s3.9-0.3,3.9-0.5s-0.4-0.3-1.2-0.4c-2-0.3-4.1,0.4-5.5,1.9
			C292.1,443,291.9,443.4,292,443.5z"/>
		<path id="Path_243" class="st6" d="M294.7,439.9c-0.1-0.4-0.2-0.7-0.4-1c-0.5-0.9-1.1-1.7-1.9-2.4c-0.5-0.5-1.2-0.9-1.9-1
			c-0.5,0-1,0.3-1.2,0.7c-0.2,0.4-0.2,0.9,0,1.4c0.8,1.9,2.9,2.8,4.9,2.3c1.9-0.5,3.3-2.1,3.5-4.1c0.1-0.5-0.1-1-0.4-1.3
			c-0.4-0.3-0.9-0.4-1.4-0.1c-0.6,0.4-1.1,1-1.4,1.6c-0.5,0.9-0.8,1.8-1,2.8c-0.1,0.4-0.1,0.7,0,1.1c0.3-1.3,0.8-2.5,1.5-3.7
			c0.3-0.6,0.7-1,1.3-1.4c0.2-0.1,0.5-0.1,0.8,0.1c0.2,0.3,0.3,0.6,0.2,0.9c-0.3,1.7-1.5,3.1-3.1,3.5c-1.7,0.4-3.4-0.4-4.1-1.9
			c-0.2-0.3-0.2-0.7-0.1-1c0.1-0.3,0.4-0.4,0.6-0.4c0.6,0.1,1.2,0.4,1.6,0.8C293.3,437.7,294.1,438.8,294.7,439.9z"/>
		<path id="Path_244" class="st11" d="M333.6,414.1l-0.9,22.2c0,0,22.2,8.3,22.5,12.4l-43-0.1l-0.1-34.6L333.6,414.1z"/>
		<g id="Group_9" class="st12">
			<path id="Path_245" class="st0" d="M319.5,434.4c-0.9,0.3-1.4,1.1-1.2,2c0.2,0.9,1.1,1.4,2,1.2c0.9-0.3,1.5-1.2,1.3-2.1
				c-0.3-0.9-1.3-1.3-2.2-1"/>
		</g>
		<g id="Group_10" class="st12">
			<path id="Path_246" class="st0" d="M312.2,448.6v-3.5l41.4,1.4c0,0,1.9,0.8,1.7,2.2L312.2,448.6z"/>
		</g>
		<path id="Path_247" class="st6" d="M333.5,436.1c0,0.2-1,0.3-2.1,1s-1.6,1.6-1.8,1.5s0.1-1.3,1.4-2.1S333.5,435.9,333.5,436.1z"/>
		<path id="Path_248" class="st6" d="M338,437.9c0,0.2-0.9,0.6-1.6,1.5s-0.9,1.8-1.1,1.8s-0.3-1.2,0.6-2.3S338,437.7,338,437.9z"/>
		<path id="Path_249" class="st6" d="M340.5,443.4c-0.2,0-0.5-1,0.1-2.1s1.5-1.6,1.6-1.4s-0.5,0.8-1,1.7S340.8,443.3,340.5,443.4z"
			/>
		<path id="Path_250" class="st6" d="M333.1,431c-0.1,0.2-1-0.1-2.2,0s-2.1,0.5-2.2,0.3s0.8-0.9,2.2-1S333.2,430.8,333.1,431z"/>
		<g id="Group_11" class="st2">
			<path id="Path_251" d="M333.5,418.5l-0.1,4l-21.1-0.2l0-3.6L333.5,418.5z"/>
		</g>
		<path id="Path_252" class="st6" d="M333.2,426.5c-0.7,0.2-1.5,0.2-2.2,0c-0.8-0.1-1.5-0.4-2.2-0.7c-0.4-0.2-0.8-0.4-1.2-0.7
			c-0.2-0.1-0.5-0.3-0.6-0.5c-0.3-0.3-0.3-0.8-0.1-1.1c0.2-0.3,0.6-0.5,0.9-0.5c0.3,0,0.5,0,0.8,0.1c0.5,0.1,0.9,0.3,1.3,0.5
			c0.7,0.3,1.4,0.8,2,1.3c1,0.9,1.3,1.7,1.3,1.8s-0.6-0.6-1.6-1.4c-0.6-0.4-1.2-0.8-1.9-1.1c-0.4-0.2-0.8-0.3-1.2-0.4
			c-0.5-0.1-0.9-0.1-1,0.1s0,0.1,0,0.2c0.1,0.1,0.3,0.3,0.5,0.4c0.4,0.2,0.7,0.5,1.1,0.6c0.7,0.3,1.4,0.6,2.1,0.8
			C331.8,426.1,332.5,426.3,333.2,426.5L333.2,426.5z"/>
		<path id="Path_253" class="st6" d="M332.9,426.8c-0.4-0.6-0.6-1.4-0.6-2.1c0-0.8,0.1-1.6,0.3-2.4c0.1-0.4,0.3-0.9,0.5-1.3
			c0.2-0.6,0.8-1,1.4-1.1c0.4,0,0.7,0.2,0.9,0.6c0.1,0.3,0.2,0.5,0.2,0.8c0.1,0.5,0.1,1,0,1.5c-0.1,0.8-0.4,1.6-0.9,2.2
			c-0.8,1.1-1.7,1.4-1.7,1.3c0.5-0.5,0.9-1,1.3-1.6c0.4-0.6,0.6-1.3,0.7-2c0.1-0.4,0.1-0.8,0-1.2c-0.1-0.5-0.2-0.8-0.4-0.8
			c-0.3,0.1-0.6,0.4-0.8,0.7c-0.2,0.4-0.4,0.8-0.5,1.2c-0.2,0.7-0.4,1.4-0.4,2.1C332.8,426,333,426.8,332.9,426.8z"/>
		<path id="Path_254" class="st13" d="M312.2,307.8c-25.4,2.6-59.1,6.1-59.1,6.1l4.6,41.4c0,0,49.5-13.1,49.2-12s2.3,88.1,2.3,88.1
			h29.8l0.6-98.5c0.2-13.7-10.7-24.9-24.4-25.1C314.1,307.7,313.2,307.7,312.2,307.8z"/>
		<path id="Path_255" class="st13" d="M192.2,324.5v12.8c0,8.7,9.9,18,18.7,18h6.8c5.3,0,13.7-3.9,18-7l2.6-1.9l31.1,96.2
			c0,0,35.5-6.4,35.5-7.5s-24.1-78.8-35.2-114.9c-4.5-14.7-20.3-23.3-34.9-18.3c-0.5,0.2-1,0.4-1.5,0.6
			C217.3,309,192.2,324.5,192.2,324.5z"/>
		<path id="Path_256" class="st7" d="M304.8,435.2c-0.1-0.1-0.1-0.2-0.1-0.3c-0.1-0.3-0.2-0.6-0.4-1c-0.3-0.9-0.8-2.2-1.4-4
			c-1.2-3.5-2.8-8.5-4.8-14.8c-4-12.5-9.3-29.9-15.1-49.1c-2.9-9.6-5.6-18.8-8.1-27.1c-1.2-4.2-2.4-8.1-3.5-11.8
			c-0.6-1.9-1.1-3.6-1.6-5.4c-0.5-1.7-1-3.3-1.6-4.9c-1.1-2.7-2.8-5.1-5-7.1c-1.6-1.5-3.4-2.9-5.3-4.1c-1.5-1-2.7-1.8-3.6-2.3
			l-0.9-0.6c-0.1-0.1-0.2-0.1-0.3-0.2c0.1,0,0.2,0.1,0.3,0.2l1,0.5c0.9,0.5,2.1,1.2,3.6,2.2c1.9,1.2,3.7,2.5,5.4,4
			c2.3,2,4,4.4,5.2,7.2c0.6,1.6,1.2,3.2,1.7,4.9c0.5,1.7,1.1,3.5,1.6,5.4l3.6,11.8c2.5,8.3,5.3,17.5,8.2,27.1
			c5.8,19.2,11,36.5,14.8,49.2l4.6,14.9l1.3,4c0.1,0.4,0.2,0.8,0.3,1S304.8,435.2,304.8,435.2z"/>
		<path id="Path_257" class="st7" d="M312.3,330.9c0.2,0.1-1.5,2.7-2.9,6.1s-2,6.4-2.3,6.4s0.1-3.1,1.6-6.7S312.1,330.8,312.3,330.9
			z"/>
		<path id="Path_258" class="st7" d="M318,334.9c0.1,0.2-2.5,1.3-5.1,3.4s-4.4,4.3-4.6,4.2s1.3-2.6,4.1-4.8S317.9,334.7,318,334.9z"
			/>
		<path id="Path_259" class="st7" d="M269.6,442.7c-0.2,0.1-8.6-25.7-18.7-57.5s-18.2-57.7-18-57.7s8.6,25.7,18.7,57.5
			S269.8,442.6,269.6,442.7z"/>
		<path id="Path_260" class="st7" d="M231.5,292.6l101.6,1l19-53.6l-73.9,0.5L261,288.7l-29.5,0.5L231.5,292.6z"/>
		<path id="Path_261" class="st0" d="M308.5,271.4c-2.3-0.3-3.8-2.4-3.5-4.7c0.3-2.3,2.4-3.8,4.7-3.5c2.3,0.3,3.8,2.4,3.5,4.7
			c0,0,0,0,0,0C312.9,270.1,310.8,271.7,308.5,271.4z"/>
		<path id="Path_262" class="st6" d="M223.2,147.6c1-3.6,3.6-5.3,7.1-6.5c3.6-1.2,7.5-0.6,10.5,1.7c2,1.5,3.5,3.7,5.8,4.5
			c3.8,1.3,8.3-1.5,12,0.2c2.6,1.2,3.8,4.3,2.6,6.9c-0.9,2-2.9,3.2-5.1,3.1c2.5,0.9,3.3,4.5,1.8,6.7s-4.5,3.1-7.1,2.6
			c-2.6-0.6-5-2-6.9-3.9c-2-1.8-3.8-3.8-5.9-5.4c-2.1-1.7-4.7-2.7-7.4-2.7c-3.6,0.2-6.7,2.9-8.3,6.1s-2,6.9-2.2,10.5
			s-0.3,7.3-1.3,10.7c-0.1,0.4-0.3,0.8-0.7,1c-0.6,0.2-1.1-0.4-1.4-1c-3.3-6.1-5.3-12.8-6.1-19.7c-0.4-4-0.3-7.8,1.9-11.1
			S220.4,145.4,223.2,147.6"/>
		<path id="Path_263" class="st10" d="M216.2,164.3l-1.9,40.5c-0.3,6.9,0.6,17.1,11.5,17.1l0,0c9.5-0.7,12.2-9.6,12.5-16
			c0.1-3,0.2-5.6,0.3-5.9c0,0,10.3-0.5,11.6-10.7c0.6-4.9,1-15.1,1.2-24.4c0.2-9.9-7.1-18.4-17-19.4l-1-0.1
			C222.8,144.9,216.4,153.6,216.2,164.3z"/>
		<path id="Path_264" class="st14" d="M238.8,199.8c-4.7-0.4-9.2-2.2-12.9-5.2c0,0,2.4,7.6,12.6,7.8L238.8,199.8z"/>
		<path id="Path_265" class="st6" d="M247.8,171.4c-0.1,0.8-0.8,1.4-1.6,1.3c-0.8,0-1.4-0.7-1.4-1.4c0,0,0,0,0,0
			c0.1-0.8,0.8-1.4,1.6-1.3C247.2,170,247.8,170.6,247.8,171.4C247.8,171.4,247.8,171.4,247.8,171.4z"/>
		<path id="Path_266" class="st6" d="M248.8,169.7c-0.2,0.2-1.2-0.8-2.8-0.9s-2.8,0.5-2.9,0.3s0.1-0.4,0.7-0.7
			c0.7-0.4,1.6-0.6,2.4-0.5c0.8,0.1,1.6,0.4,2.2,1C248.7,169.2,248.9,169.6,248.8,169.7z"/>
		<path id="Path_267" class="st6" d="M232.4,170.3c-0.1,0.8-0.8,1.4-1.6,1.3c-0.8,0-1.4-0.7-1.4-1.5c0,0,0,0,0,0
			c0.1-0.8,0.8-1.4,1.6-1.3C231.8,168.9,232.4,169.5,232.4,170.3C232.4,170.3,232.4,170.3,232.4,170.3z"/>
		<path id="Path_268" class="st6" d="M233.4,168.3c-0.2,0.2-1.2-0.8-2.8-0.9s-2.8,0.5-2.9,0.3s0.1-0.4,0.7-0.7
			c0.7-0.4,1.6-0.6,2.4-0.5c0.8,0.1,1.6,0.4,2.2,1C233.3,167.9,233.4,168.3,233.4,168.3z"/>
		<path id="Path_269" class="st6" d="M237.8,180.5c0.9-0.2,1.7-0.2,2.6-0.2c0.4,0,0.8,0,0.9-0.3c0.1-0.4,0-0.8-0.1-1.2
			c-0.3-1-0.6-2.1-0.9-3.2c-1.2-4.5-2-8.2-1.8-8.2s1.3,3.6,2.5,8.1c0.3,1.1,0.6,2.2,0.8,3.2c0.2,0.5,0.2,1.1,0,1.6
			c-0.1,0.3-0.4,0.5-0.7,0.5c-0.2,0-0.5,0-0.7,0C239.5,180.8,238.6,180.7,237.8,180.5L237.8,180.5z"/>
		<path id="Path_270" class="st6" d="M233.1,181.1c0.2,0,0.1,1.7,1.4,3.1s3.1,1.4,3.1,1.6s-0.4,0.3-1.2,0.2c-1-0.1-1.9-0.5-2.6-1.2
			c-0.7-0.7-1.1-1.6-1.1-2.6C232.7,181.5,233,181.1,233.1,181.1z"/>
		<path id="Path_271" class="st6" d="M234.4,162.2c-0.2,0.4-1.7,0-3.6,0.1s-3.4,0.4-3.6,0c-0.1-0.2,0.2-0.6,0.9-0.9
			c1.7-0.9,3.8-0.9,5.5,0C234.2,161.7,234.5,162.1,234.4,162.2z"/>
		<path id="Path_272" class="st6" d="M248.7,165.1c-0.3,0.3-1.4-0.2-2.6-0.3s-2.4,0-2.6-0.4c-0.1-0.2,0.1-0.5,0.6-0.8
			c0.7-0.3,1.5-0.5,2.2-0.4c0.7,0.1,1.4,0.4,2,0.9C248.7,164.6,248.8,164.9,248.7,165.1z"/>
		<path id="Path_273" class="st10" d="M216.2,171.9c-0.2-0.1-6.8-2.8-7.3,4.2s6.6,6.1,6.6,5.9S216.2,171.9,216.2,171.9z"/>
		<path id="Path_274" class="st14" d="M213.6,179.1c-0.1,0.1-0.2,0.1-0.3,0.2c-0.3,0.1-0.6,0.1-0.9-0.1c-0.9-0.7-1.3-1.7-1.2-2.8
			c0-0.6,0.2-1.2,0.5-1.7c0.2-0.4,0.5-0.8,1-0.9c0.3,0,0.6,0.1,0.7,0.4c0.1,0.2,0,0.3,0.1,0.4s0.2-0.1,0.1-0.4
			c0-0.2-0.1-0.3-0.2-0.4c-0.2-0.2-0.4-0.2-0.7-0.2c-0.6,0.1-1.1,0.5-1.4,1c-0.3,0.6-0.5,1.2-0.6,1.9c-0.1,1.4,0.6,2.8,1.6,3.1
			c0.4,0.1,0.8,0.1,1.1-0.1C213.6,179.3,213.6,179.2,213.6,179.1z"/>
		<path id="Path_275" class="st6" d="M253.9,163c-4.7,0.7-9.4-0.9-12.7-4.3c-2.2-2.4-3.8-5.6-6.8-6.9c-2.1-0.8-4.4-0.7-6.4,0.2
			c-2,0.9-3.8,2.3-5.3,3.9c1.4,5.4-0.5,11-2.4,16.2c-0.2,0.6-0.5,1.1-1,1.5c-0.9,0.6-2.1-0.1-2.7-0.9c-0.9-1.4-1.4-3.1-1.4-4.7
			c-0.3-3.8,0.1-7.6,1.3-11.3c1.2-3.6,3.4-6.9,6.4-9.3c3.9-2.9,8.7-4.1,13.5-3.5c4.7,0.6,9.2,2.8,12.6,6.1c1.7,1.5,3,3.3,3.8,5.4"/>
	</g>
	<g id="freepik--Plant--inject-49">
		<path id="Path_276" class="st15" d="M58.3,378.1c3.6-1.7,7.7-2.2,11.7-1.4c2.1,0.4,4.3,1,5.8,2.6s1.7,4.4,0.1,5.8
			c-1.1,0.7-2.4,1-3.7,0.9c-3.1,0-6.5-0.6-9,1.3c-1.4,1.1-2.4,2.8-4,3.4c-1.7,0.4-3.5-0.4-4.4-2c-0.8-1.5-1-3.3-0.5-5
			C54.7,381.3,56.2,379.2,58.3,378.1L58.3,378.1z"/>
		<path id="Path_277" class="st15" d="M50.2,362.3c2.2,3.1,6.4,2.1,8.4,0.2s2.8-4.6,3.5-7.3c1.7-6,3.5-12.3,2.2-18.4
			c-0.3-1.9-1.1-3.6-2.4-5c-1.3-1.4-3.2-2.1-5.1-1.7c-2.1,0.6-3.5,2.7-4.4,4.6c-2.8,5.9-4.3,12.3-4.3,18.8
			C48.1,356.6,48.4,359.8,50.2,362.3"/>
		<path id="Path_278" class="st15" d="M44.2,366.8c2.3-3,2.9-6.9,1.8-10.4c-1.2-3.5-3.3-6.6-6.2-9c-3.2-2.9-6.9-5.1-11-6.5
			c-1.6-0.6-3.3-0.9-5-0.8c-1.7,0.1-3.3,1-4.2,2.5c-1.2,2.2,0,4.9,1.2,7.1c2.1,3.9,4.6,7.6,7.3,11.1c2.2,2.8,4.7,5.6,8,6.8
			s6.8,1.1,8.5-1.2"/>
		<path id="Path_279" class="st6" d="M50,409.3c0.1-0.5,0.2-0.9,0.2-1.4c0.1-1,0.2-2.3,0.4-3.9c0.2-1.9,0.5-3.8,0.9-5.7
			c0.5-2.3,1.2-4.5,2.1-6.7c0.9-2.2,2-4.2,3.4-6c1.1-1.5,2.6-2.8,4.3-3.6c1.1-0.6,2.4-1,3.6-1.1c0.5,0,0.9-0.1,1.4-0.2
			c-0.5,0-1,0-1.4,0c-1.3,0.1-2.6,0.4-3.8,1c-1.8,0.8-3.3,2.1-4.5,3.6c-1.5,1.9-2.6,3.9-3.5,6.2c-0.9,2.2-1.5,4.5-2,6.8
			c-0.4,1.9-0.6,3.8-0.8,5.7c-0.1,1.6-0.2,3-0.2,3.9C50,408.3,50,408.8,50,409.3L50,409.3z"/>
		<path id="Path_280" class="st6" d="M50.3,406.3c0-0.2,0-0.4,0-0.6v-1.9c0-1.6,0-4,0.1-6.9c0.1-5.8,0.6-12.1,1.6-20.9
			c0.9-8.3,2.2-18,3.5-24.3c0.3-1.4,0.5-2.7,0.8-3.8s0.5-2.1,0.7-2.9s0.3-1.4,0.4-1.8c0.1-0.2,0.1-0.4,0.1-0.6
			c-0.1,0.2-0.2,0.4-0.2,0.6c-0.2,0.5-0.3,1.1-0.5,1.8s-0.5,1.8-0.8,2.9s-0.6,2.4-0.9,3.8c-1.6,7.4-2.8,14.9-3.6,22.5
			c-0.8,7.6-1.3,15.2-1.4,22.8c0,2.9,0,5.3,0.1,6.9c0,0.8,0.1,1.4,0.1,1.9C50.2,405.9,50.2,406.1,50.3,406.3z"/>
		<path id="Path_281" class="st6" d="M50.3,390.8c0.1-0.7,0.1-1.3,0-2c-0.1-1.8-0.3-3.6-0.6-5.3c-0.4-2.6-1-5.2-1.7-7.7
			c-0.8-3.1-1.9-6.2-3.2-9.2c-2.2-5.5-5.5-10.5-9.5-14.8c-0.7-0.7-1.5-1.4-2.2-2.1c-0.3-0.3-0.7-0.6-1-0.8l-0.9-0.6
			c-0.5-0.4-1.1-0.8-1.6-1.1c1.9,1.5,3.7,3.1,5.4,4.8c3.9,4.4,7,9.3,9.3,14.8c1.3,2.9,2.4,6,3.3,9.1c0.8,2.9,1.4,5.5,1.8,7.7
			s0.6,4,0.8,5.3C50.1,389.5,50.2,390.1,50.3,390.8z"/>
		<path id="Path_282" class="st6" d="M35.3,418.2l1.6,21.3h27.4l1.6-21.3H35.3z"/>
		<rect id="Rectangle_16" x="32.6" y="409.8" class="st6" width="36.5" height="8.4"/>
		<path id="Path_283" class="st7" d="M32.6,438.7v2.3h35.9v-2.3H32.6z"/>
		<path id="Path_284" class="st7" d="M36,445.1l-1.7-4.1h32.8l-2,4.1H36z"/>
		<path id="Path_285" class="st1" d="M65.3,425.2c0,0.1-0.1,0.1-0.1,0.2l-0.4,0.5l-1.6,2l-0.1,0.1l-0.1-0.1l-3.9-5.4h0.2l-3.9,5.5
			l-0.1,0.2l-0.1-0.2c-1.4-1.7-3-3.5-4.6-5.5h0.3c-0.1,0.1-0.2,0.2-0.2,0.3l-4.1,5.1l-0.1,0.2l-0.1-0.2l-3.9-5.5h0.2l-4.8,5.5
			l-0.1,0.1l-0.1-0.1c-0.6-1-1.1-1.9-1.5-2.5l-0.4-0.7l-0.1-0.2c0.1,0.1,0.1,0.1,0.2,0.2l0.4,0.6l1.6,2.5h-0.2l4.7-5.5l0.1-0.1
			l0.1,0.1l3.9,5.4h-0.3l4.1-5.1l0.2-0.3l0.1-0.2l0.1,0.2l4.6,5.5h-0.3l3.9-5.4l0.1-0.2l0.1,0.2l3.8,5.5H63l1.7-2l0.4-0.5
			C65.2,425.2,65.3,425.1,65.3,425.2z"/>
		<path id="Path_286" class="st7" d="M66.2,418c0,0.1-6.9,0.2-15.3,0.2s-15.3-0.1-15.3-0.2s6.9-0.2,15.3-0.2S66.2,418,66.2,418z"/>
		<path id="Path_287" class="st6" d="M67.6,441.3c0,0.1-7.5,0.2-16.7,0.2s-16.7-0.1-16.7-0.2s7.5-0.2,16.7-0.2
			S67.6,441.2,67.6,441.3z"/>
	</g>
	<g id="freepik--Devices--inject-49">
		<path id="Path_288" class="st6" d="M391.7,195.6l-19,79.7h5.3l18.8-79.7L391.7,195.6z"/>
		<path id="Path_289" class="st6" d="M384.4,248c-0.3,1.5,8.6,44.9,8.6,44.9h-4.3l-6.8-34.4L384.4,248z"/>
		<rect id="Rectangle_17" x="358.6" y="350.3" class="st6" width="89.2" height="94.6"/>
		<rect id="Rectangle_18" x="447.8" y="364.1" class="st6" width="4.4" height="4.4"/>
		<rect id="Rectangle_19" x="447.8" y="378.1" class="st6" width="4.4" height="4.4"/>
		<rect id="Rectangle_20" x="447.8" y="392" class="st6" width="4.4" height="4.4"/>
		<rect id="Rectangle_21" x="447.8" y="405.9" class="st6" width="4.4" height="4.4"/>
		<path id="Path_290" class="st6" d="M452.4,393.2c0.4-0.1,0.9-0.2,1.3-0.3c1.2-0.2,2.5-0.4,3.8-0.4c1.9,0,3.8,0.5,5.4,1.4
			c2.1,1.3,3.2,3.6,3,6c-0.1,1.2-0.5,2.4-1.1,3.4c-0.6,1-1.4,1.8-2.3,2.4c-1.5,1.1-3.3,1.8-5.2,2.1c-1.2,0.2-2.5,0.2-3.8,0.1
			c-0.5,0-0.9-0.1-1.4-0.2c0.5,0,0.9,0,1.4,0c1.2,0,2.5-0.1,3.7-0.3c1.8-0.3,3.5-1,5-2.1c1.8-1.3,3-3.3,3.2-5.5
			c0.2-2.2-0.8-4.4-2.8-5.6c-1.6-1-3.3-1.5-5.2-1.5c-1.2,0-2.5,0-3.7,0.2C453.3,393.2,452.8,393.3,452.4,393.2z"/>
		<path id="Path_291" class="st6" d="M451.3,379.4c0.1-0.1,0.3-0.2,0.4-0.2c0.4-0.2,0.9-0.4,1.3-0.5c1.7-0.5,3.4-0.6,5.1-0.3
			c0.6,0.1,1.1,0.3,1.6,0.6c0.6,0.4,1,0.9,1.1,1.6c0.5,2.2-0.7,4.5-2.9,5.4c-0.8,0.3-1.7,0.3-2.4-0.1c-0.8-0.4-1.3-1.2-1.4-2.1
			c0-0.9,0.6-1.8,1.4-2.2c0.8-0.4,1.7-0.5,2.5-0.3c0.8,0.2,1.6,0.5,2.2,1.1c1.2,1,2,2.4,2.2,4c0.1,1.4-0.3,2.9-1.1,4
			c-0.7,1-1.7,1.8-2.7,2.3c-1.6,0.8-3.3,1.2-5,1.3c-0.6,0-1.1,0.1-1.4,0.1c-0.2,0-0.3,0-0.5,0c0,0,0.7-0.1,1.9-0.2
			c1.7-0.2,3.3-0.7,4.8-1.4c1-0.6,1.9-1.3,2.6-2.2c0.8-1,1.1-2.4,1-3.6c-0.2-1.4-0.9-2.7-2.1-3.6c-0.6-0.5-1.3-0.8-2-1
			c-0.7-0.2-1.5-0.1-2.2,0.2c-0.9,0.4-1.4,1.4-1,2.4c0.2,0.4,0.5,0.8,1,1c0.6,0.3,1.3,0.4,2,0.1c0.6-0.2,1.2-0.7,1.6-1.2
			c0.9-1,1.3-2.3,1-3.6c-0.4-1.1-1.3-1.9-2.5-2c-1.7-0.4-3.4-0.3-5,0.1C451.9,379.1,451.3,379.5,451.3,379.4z"/>
		<path id="Path_292" class="st6" d="M451.3,365.9c0.3-0.1,0.7-0.2,1-0.2c0.9-0.1,1.8,0,2.7,0.3c1.3,0.4,2.4,1.2,3.3,2.2
			c1.1,1.3,1.7,2.9,1.7,4.6c0.1,1.7-0.4,3.3-1.4,4.7c-0.8,1.1-1.9,1.9-3.2,2.4c-0.8,0.4-1.7,0.5-2.6,0.5c-0.3,0-0.7,0-1-0.1
			c1.2,0,2.4-0.3,3.5-0.8c1.2-0.5,2.2-1.4,3-2.4c1.8-2.6,1.7-6.2-0.3-8.7c-0.8-1-1.9-1.7-3.1-2.2C453.7,366,452.5,365.8,451.3,365.9
			z"/>
		<path id="Path_293" class="st6" d="M385.1,300.1c0.3,0.6,0.6,1.2,0.8,1.8c0.5,1.8,0.9,3.6,1.2,5.4c0.4,2.4,0.7,5.3,1,8.6
			s0.6,7.2,1.1,11.5c0.1,1,0.3,2.1,0.5,3.2c0.2,1.1,0.5,2.2,1,3.2c0.6,1,1.3,1.9,2.2,2.7c2.7,2.6,6.3,4.3,10.1,4.7
			c2.7,0.3,5.4-0.2,7.9-1.4c2.6-1.3,4.4-3.6,5.1-6.4c0.3-1.4,0.2-2.9-0.3-4.2c-0.6-1.4-1.5-2.5-2.8-3.4c-1.3-0.8-2.7-1.3-4.2-1.4
			c-1.5-0.1-3,0.4-4.3,1.2c-0.6,0.4-1.1,1-1.5,1.7c-0.3,0.7-0.4,1.4-0.3,2.2c0.4,1.5,1.4,2.8,2.8,3.5c1.4,0.7,3,1.1,4.6,1.3
			c1.6,0.2,3.2,0.3,4.7,0.3c3.1,0,6.2-0.2,9.3-0.5c6.1-0.7,12-1.7,17.6-1.7s11.1,0.7,15.7,3c2.2,1.1,4.2,2.5,5.8,4.4
			c1.5,1.7,2.5,3.8,3,6c0.8,3.8,0.2,7.8-1.8,11.2c-1.5,2.5-3.5,4.7-5.9,6.3c-1.5,1-3.2,1.9-4.9,2.5c-0.6,0.2-1.2,0.4-1.8,0.5
			l0.5-0.2c0.3-0.1,0.8-0.3,1.3-0.5c1.7-0.7,3.3-1.5,4.8-2.6c2.4-1.6,4.4-3.8,5.8-6.3c1.8-3.4,2.4-7.3,1.6-11
			c-0.5-2.2-1.5-4.2-3-5.8c-1.6-1.8-3.6-3.2-5.7-4.2c-4.9-2.2-10.2-3.1-15.5-2.9c-5.6,0.1-11.5,1-17.6,1.7c-3.1,0.4-6.2,0.6-9.4,0.5
			c-1.6,0-3.2-0.1-4.8-0.3c-1.6-0.1-3.3-0.6-4.7-1.3c-1.5-0.8-2.6-2.2-3-3.9c-0.2-0.8,0-1.7,0.3-2.5c0.4-0.8,0.9-1.4,1.6-1.9
			c1.3-1,3-1.4,4.6-1.4c1.6,0.1,3.2,0.6,4.5,1.5c1.3,0.9,2.3,2.1,3,3.6c0.6,1.5,0.7,3,0.3,4.5c-0.7,2.9-2.7,5.4-5.4,6.7
			c-2.5,1.2-5.4,1.7-8.1,1.4c-3.9-0.4-7.5-2.1-10.3-4.8c-0.9-0.8-1.7-1.8-2.3-2.8c-0.5-1.1-0.8-2.2-1-3.3c-0.2-1.1-0.4-2.2-0.5-3.2
			c-0.5-4.2-0.8-8.1-1.1-11.5s-0.6-6.3-0.9-8.6c-0.2-1.8-0.6-3.6-1.1-5.4c-0.1-0.5-0.3-0.9-0.5-1.4
			C385.2,300.4,385.1,300.2,385.1,300.1L385.1,300.1z"/>
		<path id="Path_294" class="st7" d="M442.8,441v-6.3c0-4.1,0-10.1-0.1-17.7c0-15.2-0.1-36.9-0.1-62.9l0.2,0.2h-80.7l0.3-0.3V441
			l-0.2-0.2l58.4,0.1l16.4,0.1h4.4L437,441l-16.3,0.1l-58.6,0.1h-0.2v-87.3H443v0.2c0,26-0.1,47.8-0.1,63c0,7.6,0,13.6-0.1,17.7v5.8
			C442.8,440.7,442.8,440.8,442.8,441z"/>
		<path id="Path_295" class="st6" d="M420,364.7c0,0.2-0.2,0.4-0.4,0.4c0,0,0,0,0,0c-0.2,0-0.4-0.1-0.5-0.4s0.1-0.4,0.4-0.5
			c0,0,0.1,0,0.1,0C419.8,364.3,420,364.5,420,364.7L420,364.7L420,364.7z"/>
		<path id="Path_296" class="st6" d="M422.3,364.7c0,0.2-0.2,0.4-0.4,0.4c0,0,0,0,0,0c-0.2,0-0.4-0.1-0.5-0.4s0.1-0.4,0.4-0.5
			c0,0,0.1,0,0.1,0C422.1,364.3,422.3,364.5,422.3,364.7L422.3,364.7L422.3,364.7z"/>
		<path id="Path_297" class="st6" d="M424.6,364.7c0,0.2-0.2,0.4-0.4,0.4c0,0,0,0,0,0c-0.2,0-0.4-0.1-0.5-0.4s0.1-0.4,0.4-0.5
			c0,0,0.1,0,0.1,0C424.4,364.3,424.6,364.5,424.6,364.7z"/>
		<path id="Path_298" class="st6" d="M426.9,364.7c0,0.2-0.2,0.4-0.4,0.4s-0.4-0.2-0.4-0.4s0.2-0.4,0.4-0.4c0,0,0,0,0,0
			C426.7,364.3,426.9,364.5,426.9,364.7z"/>
		<path id="Path_299" class="st6" d="M429.1,364.7c0,0.2-0.2,0.4-0.4,0.4c-0.2,0-0.4-0.2-0.4-0.4c0-0.2,0.2-0.3,0.4-0.4
			C429,364.3,429.1,364.5,429.1,364.7z"/>
		<path id="Path_300" class="st6" d="M431.4,364.7c0,0.2-0.2,0.4-0.4,0.4c-0.2,0-0.4-0.2-0.4-0.4c0-0.2,0.2-0.3,0.4-0.4
			C431.2,364.3,431.4,364.5,431.4,364.7z"/>
		<path id="Path_301" class="st6" d="M433.7,364.7c0,0.2-0.2,0.4-0.4,0.4c-0.2,0-0.4-0.2-0.4-0.4c0-0.2,0.2-0.3,0.4-0.4
			C433.5,364.3,433.7,364.5,433.7,364.7z"/>
		<circle id="Ellipse_6" class="st6" cx="432.2" cy="366.3" r="0.4"/>
		<circle id="Ellipse_7" class="st6" cx="429.9" cy="366.3" r="0.4"/>
		<path id="Path_302" class="st6" d="M428,366.3c0,0.2-0.2,0.4-0.4,0.4c-0.2,0-0.4-0.2-0.4-0.4c0-0.2,0.2-0.4,0.4-0.4h0
			C427.8,365.8,428,366,428,366.3C428,366.3,428,366.3,428,366.3L428,366.3z"/>
		<circle id="Ellipse_8" class="st6" cx="425.2" cy="366.3" r="0.4"/>
		<circle id="Ellipse_9" class="st6" cx="422.9" cy="366.3" r="0.4"/>
		<path id="Path_303" class="st6" d="M421,366.3c0,0.2-0.2,0.4-0.4,0.4s-0.4-0.2-0.4-0.4c0-0.2,0.2-0.4,0.4-0.4
			C420.8,365.8,421,366,421,366.3L421,366.3z"/>
		<path id="Path_304" class="st6" d="M420,368c0,0.2-0.2,0.4-0.4,0.4c-0.2,0-0.4-0.2-0.4-0.4c0-0.2,0.2-0.4,0.4-0.4h0
			C419.8,367.6,420,367.8,420,368C420,368,420,368,420,368L420,368z"/>
		<path id="Path_305" class="st6" d="M422.3,368c0,0.2-0.2,0.4-0.4,0.4c-0.2,0-0.4-0.2-0.4-0.4c0-0.2,0.2-0.4,0.4-0.4h0
			C422.1,367.6,422.3,367.8,422.3,368C422.3,368,422.3,368,422.3,368L422.3,368z"/>
		<path id="Path_306" class="st6" d="M424.6,368c0,0.2-0.2,0.4-0.4,0.4c-0.2,0-0.4-0.2-0.4-0.4c0-0.2,0.2-0.4,0.4-0.4h0
			C424.4,367.6,424.6,367.8,424.6,368C424.6,368,424.6,368,424.6,368L424.6,368z"/>
		<path id="Path_307" class="st6" d="M426.9,368c0,0.2-0.3,0.4-0.5,0.4c-0.2,0-0.4-0.3-0.4-0.5c0-0.2,0.3-0.4,0.5-0.4
			c0.1,0,0.1,0,0.2,0.1C426.8,367.7,426.9,367.8,426.9,368z"/>
		<path id="Path_308" class="st6" d="M429.1,368c0,0.2-0.2,0.4-0.4,0.4s-0.4-0.2-0.4-0.4c0-0.2,0.2-0.4,0.4-0.4
			C429,367.6,429.1,367.8,429.1,368L429.1,368z"/>
		<path id="Path_309" class="st6" d="M431.4,368c0,0.2-0.2,0.4-0.4,0.4s-0.4-0.2-0.4-0.4c0-0.2,0.2-0.4,0.4-0.4
			C431.2,367.6,431.4,367.8,431.4,368L431.4,368z"/>
		<path id="Path_310" class="st6" d="M433.7,368c0,0.2-0.2,0.4-0.4,0.4s-0.4-0.2-0.4-0.4c0-0.2,0.2-0.4,0.4-0.4
			C433.5,367.6,433.7,367.8,433.7,368L433.7,368z"/>
		<path id="Path_311" class="st6" d="M432.7,369.5c0,0.2-0.2,0.4-0.4,0.4h0c-0.2,0-0.4-0.2-0.4-0.4s0.2-0.4,0.4-0.4
			C432.5,369.1,432.7,369.3,432.7,369.5z"/>
		<path id="Path_312" class="st6" d="M430.3,369.5c0,0.2-0.2,0.4-0.4,0.4c0,0,0,0,0,0c-0.2,0-0.4-0.2-0.4-0.4v0
			c0-0.2,0.2-0.4,0.4-0.4C430.1,369.1,430.3,369.3,430.3,369.5L430.3,369.5z"/>
		<path id="Path_313" class="st6" d="M428,369.5c0,0.2-0.2,0.4-0.4,0.4c0,0,0,0,0,0c-0.2,0-0.4-0.2-0.4-0.4v0c0-0.2,0.2-0.4,0.4-0.4
			C427.8,369.1,428,369.3,428,369.5L428,369.5z"/>
		<path id="Path_314" class="st6" d="M425.7,369.5c0,0.2-0.2,0.4-0.4,0.4c0,0,0,0,0,0c-0.2,0-0.4-0.2-0.4-0.4v0
			c0-0.2,0.2-0.4,0.4-0.4C425.5,369.1,425.7,369.3,425.7,369.5L425.7,369.5z"/>
		<path id="Path_315" class="st6" d="M423.3,369.5c0,0.2-0.1,0.4-0.3,0.5c-0.2,0-0.4-0.1-0.5-0.3c0-0.2,0.1-0.4,0.3-0.5
			c0,0,0,0,0.1,0C423.1,369.2,423.3,369.3,423.3,369.5z"/>
		<path id="Path_316" class="st6" d="M421,369.5c0,0.2-0.2,0.4-0.4,0.4h0c-0.2,0-0.4-0.2-0.4-0.4s0.2-0.4,0.4-0.4
			C420.8,369.1,421,369.3,421,369.5z"/>
		<path id="Path_317" class="st6" d="M420,371.3c0,0.2-0.2,0.4-0.4,0.4c0,0,0,0,0,0c-0.2,0-0.4-0.2-0.4-0.4v0c0-0.2,0.2-0.4,0.4-0.4
			C419.8,370.8,420,371,420,371.3L420,371.3z"/>
		<path id="Path_318" class="st6" d="M422.3,371.3c0,0.2-0.2,0.4-0.4,0.4c0,0,0,0,0,0c-0.2,0-0.4-0.2-0.4-0.4v0
			c0-0.2,0.2-0.4,0.4-0.4C422.1,370.8,422.3,371,422.3,371.3L422.3,371.3z"/>
		<path id="Path_319" class="st6" d="M424.6,371.3c0,0.2-0.2,0.4-0.4,0.4c0,0,0,0,0,0c-0.2,0-0.4-0.2-0.4-0.4v0
			c0-0.2,0.2-0.4,0.4-0.4C424.4,370.8,424.6,371,424.6,371.3L424.6,371.3z"/>
		<path id="Path_320" class="st6" d="M426.9,371.3c0,0.2-0.1,0.4-0.3,0.5c-0.2,0-0.4-0.1-0.5-0.3c0-0.2,0.1-0.4,0.3-0.5
			c0,0,0,0,0.1,0C426.7,370.9,426.8,371.1,426.9,371.3z"/>
		<path id="Path_321" class="st6" d="M429.1,371.3c0,0.2-0.2,0.4-0.4,0.4h0c-0.2,0-0.4-0.2-0.4-0.4s0.2-0.4,0.4-0.4
			C429,370.8,429.1,371,429.1,371.3z"/>
		<path id="Path_322" class="st6" d="M431.4,371.3c0,0.2-0.2,0.4-0.4,0.4h0c-0.2,0-0.4-0.2-0.4-0.4s0.2-0.4,0.4-0.4
			C431.2,370.8,431.4,371,431.4,371.3z"/>
		<path id="Path_323" class="st6" d="M433.7,371.3c0,0.2-0.2,0.4-0.4,0.4h0c-0.2,0-0.4-0.2-0.4-0.4s0.2-0.4,0.4-0.4
			C433.5,370.8,433.7,371,433.7,371.3z"/>
		<circle id="Ellipse_10" class="st6" cx="432.2" cy="372.8" r="0.4"/>
		<circle id="Ellipse_11" class="st6" cx="429.9" cy="372.8" r="0.4"/>
		<path id="Path_324" class="st6" d="M428,372.8c0,0.2-0.2,0.4-0.4,0.4l0,0c-0.2,0-0.4-0.1-0.5-0.4s0.1-0.4,0.4-0.5c0,0,0.1,0,0.1,0
			C427.8,372.4,428,372.6,428,372.8C428,372.8,428,372.8,428,372.8L428,372.8z"/>
		<circle id="Ellipse_12" class="st6" cx="425.2" cy="372.8" r="0.4"/>
		<circle id="Ellipse_13" class="st6" cx="422.9" cy="372.8" r="0.4"/>
		<path id="Path_325" class="st6" d="M421,372.8c0,0.2-0.2,0.4-0.4,0.4s-0.4-0.2-0.4-0.4c0-0.2,0.2-0.3,0.4-0.4
			C420.8,372.4,421,372.6,421,372.8L421,372.8z"/>
		<path id="Path_326" class="st1" d="M388.5,271.3c0.6,0,1.1,0.1,1.6,0.3c1.5,0.5,2.9,1.4,3.9,2.6c1.6,1.9,2.8,4.2,3.5,6.6
			c1,3.2,1.7,6.4,2.2,9.7c1.1,8.5,1.3,17.2,0.6,25.8c-0.1,2.5-0.9,5-2.2,7.1c-0.7,1.1-1.7,2-2.8,2.7c-1.2,0.7-2.5,1.1-3.9,0.9
			c-1.4-0.1-2.7-0.7-3.7-1.7c-0.5-0.5-0.9-1.1-1.1-1.8c-0.2-0.7-0.2-1.4,0-2.1c0.4-1.4,1.4-2.6,2.8-3.1c0.7-0.3,1.5-0.3,2.2,0
			c0.7,0.3,1.3,0.7,1.8,1.3c0.9,1.2,1.2,2.7,1,4.1c-0.2,1.4-0.7,2.7-1.5,3.9c-4.1,7.2-13.2,9.9-20.5,5.9c-2.1-1.2-3.9-2.7-5.4-4.6
			c-1.4-1.8-2.5-3.7-3.3-5.8c-1.3-3.8-2.1-7.8-2.2-11.8c-0.2-3.7,0-7-0.4-9.9c-0.2-1.3-0.5-2.6-0.9-3.9c-0.4-1.1-1-2-1.7-2.9
			c-1-1.2-2.2-2.2-3.7-2.8c-0.5-0.2-1.1-0.3-1.6-0.4c0.6,0,1.1,0.1,1.6,0.3c1.5,0.5,2.8,1.5,3.8,2.7c0.7,0.9,1.3,1.9,1.8,3
			c0.5,1.3,0.8,2.6,1,4c0.4,2.9,0.2,6.2,0.4,9.9c0.1,4,0.9,7.9,2.2,11.7c0.8,2.1,1.9,4,3.2,5.7c1.4,1.8,3.2,3.4,5.3,4.5
			c7.1,3.8,15.9,1.2,19.8-5.8c0.7-1.2,1.2-2.4,1.4-3.8c0.2-1.3-0.1-2.7-0.9-3.8c-0.4-0.5-0.9-0.9-1.5-1.2c-0.6-0.2-1.3-0.2-1.9,0
			c-1.2,0.5-2.1,1.5-2.5,2.8c-0.3,1.3,0.1,2.6,1,3.5c0.9,0.9,2.1,1.5,3.4,1.6c1.3,0.1,2.5-0.2,3.6-0.9c1.1-0.7,2-1.5,2.7-2.6
			c1.3-2.1,2-4.5,2.2-6.9c0.7-8.5,0.5-17.1-0.5-25.6c-0.5-3.3-1.2-6.5-2.1-9.6c-0.6-2.4-1.8-4.6-3.4-6.5c-1-1.2-2.3-2.1-3.8-2.6
			C389.6,271.6,389,271.4,388.5,271.3z"/>
		<rect id="Rectangle_22" x="347.4" y="285.8" class="st1" width="33.2" height="6.3"/>
		<rect id="Rectangle_23" x="97.5" y="351.2" class="st6" width="43.3" height="93.3"/>
		<path id="Path_327" class="st7" d="M137.1,434.6v-6c0-3.9,0-9.5-0.1-16.7c0-14.2-0.1-34.2-0.1-57.5l0.2,0.2h-36.2l0.3-0.3
			c0,31.2,0,59.5-0.1,80.2l-0.2-0.2l26.5,0.1l7.2,0h-7.1l-26.6,0.1h-0.2v-0.2c0-20.8,0-49.1-0.1-80.2V354h36.8v0.2
			c0,23.4-0.1,43.4-0.1,57.7c0,7.1,0,12.7-0.1,16.6v5.5C137.3,434.3,137.2,434.5,137.1,434.6z"/>
		<path id="Path_328" class="st7" d="M134.9,361.2v-1c0-0.6,0-1.6-0.1-2.7l0.1,0.1c-5.6,0.1-17.6,0.1-31.5,0.1l0,0l0.3-0.3l0,0v3.7
			l-0.2-0.3c8.8,0,16.7,0.1,22.3,0.1l6.7,0.1h1.8c0.2,0,0.4,0,0.7,0c-0.2,0-0.4,0-0.6,0h-1.8l-6.6,0.1c-5.7,0.1-13.6,0.1-22.5,0.1
			h-0.3v-3.9l0,0l0.3-0.3l0,0c13.9,0,25.9,0.1,31.5,0.1h0v0.1c0,1.2,0,2.1-0.1,2.8C134.9,360.5,134.9,360.9,134.9,361.2z"/>
		<path id="Path_329" class="st7" d="M106.5,363.9c0,0.1-0.7,0.3-1.4,0.3s-1.5-0.1-1.5-0.3s0.7-0.3,1.5-0.3S106.5,363.7,106.5,363.9
			z"/>
		<path id="Path_330" class="st7" d="M134.1,368.7c0,0.1-6.7,0.3-15,0.3s-15-0.1-15-0.3s6.7-0.3,15-0.3S134.1,368.5,134.1,368.7z"/>
		<path id="Path_331" class="st7" d="M134.2,374.5c0,0.1-6.6,0.3-14.7,0.3s-14.7-0.1-14.7-0.3s6.6-0.3,14.7-0.3
			S134.2,374.3,134.2,374.5z"/>
		<circle id="Ellipse_14" class="st15" cx="119.1" cy="388.1" r="2.4"/>
		<path id="Path_332" class="st7" d="M112.3,388c-1,0.3-2.1,0.3-3.2,0.3c-1.1,0.1-2.1,0-3.1-0.3c1-0.3,2.1-0.3,3.2-0.3
			C110.2,387.7,111.3,387.7,112.3,388z"/>
		<path id="Path_333" class="st7" d="M131.7,387.3c-1,0.3-2,0.3-3,0.3c-1,0.1-2,0-3-0.3c1-0.3,2-0.3,3-0.3
			C129.7,387,130.7,387.1,131.7,387.3z"/>
		<path id="Path_334" class="st6" d="M99,398c-0.5-0.1-1.1-0.2-1.6-0.3c-1.5-0.4-3-1.1-4.3-2c-2.1-1.4-3.8-3.3-5.2-5.4
			c-1.7-2.8-3-5.9-3.8-9.2c-1-3.9-1.4-7.9-1.2-11.9c0.3-4.7,1.8-9.1,4.6-12.9c1.5-2,3.3-3.8,5.4-5.2c1.1-0.7,2.3-1.3,3.5-1.7
			c1.3-0.4,2.5-0.7,3.9-0.9c2.6-0.4,5.3-0.3,8-0.5c2.7-0.1,5.4-0.7,7.9-1.8c2.5-1.1,4.3-3.4,4.9-6c1-4.5-1.8-9.1-6.3-10.1
			c-0.7-0.2-1.4-0.2-2.1-0.2c-1.2,0.1-2.4,0.5-3.3,1.2c-0.9,0.7-1.4,1.8-1.4,3c0.3,2.3,2.1,4.1,4.5,4.3c2.2,0,4.3-0.9,5.7-2.6
			c1.3-1.6,2.3-3.4,2.8-5.4c0.5-1.8,0.9-3.7,1.2-5.6c0.7-5.7,0.9-11.5,0.5-17.3c-0.1-2-0.2-3.6-0.2-4.7c0-0.4,0-0.8-0.1-1.2
			c0-0.1,0-0.3,0-0.4c0,0.1,0.1,0.3,0.1,0.4c0,0.3,0.1,0.7,0.1,1.2c0.1,1.1,0.2,2.7,0.3,4.7c0.4,5.8,0.3,11.6-0.4,17.4
			c-0.3,1.9-0.6,3.8-1.1,5.7c-0.5,2.1-1.5,4-2.8,5.6c-1.5,1.8-3.7,2.8-6.1,2.7c-2.6-0.2-4.6-2.2-4.9-4.7c-0.1-1.3,0.5-2.6,1.6-3.4
			c1-0.8,2.3-1.3,3.6-1.4c5-0.1,9,3.9,9.1,8.9c0,2.1-0.7,4.1-2,5.8c-0.9,1.1-2.1,2-3.3,2.6c-2.5,1.2-5.3,1.8-8.1,1.9
			c-2.7,0.2-5.4,0.1-8,0.5c-1.3,0.2-2.5,0.5-3.8,0.9c-1.2,0.4-2.3,1-3.4,1.7c-2.1,1.3-3.9,3-5.3,5c-2.7,3.7-4.2,8.1-4.5,12.7
			c-0.3,4,0.1,8,1.1,11.8c0.7,3.2,2,6.3,3.7,9.1c1.3,2.1,3,3.9,5,5.4c1.3,0.9,2.7,1.6,4.2,2.1c0.5,0.1,0.9,0.2,1.2,0.3
			C98.7,397.9,98.9,397.9,99,398z"/>
		<rect id="Rectangle_24" x="84.2" y="206.5" class="st6" width="102.6" height="70.5"/>
		<rect id="Rectangle_25" x="127.6" y="267.4" class="st6" width="14" height="26.6"/>
	</g>
	<g id="freepik--Desk--inject-49">
		<path id="Path_335" class="st6" d="M94.5,292.9v9.6h52.9v142.5h4.9V302.5l221.1,1.1v141.4h4.8V303.3l34.1,0.3v-11.5L94.5,292.9z"
			/>
		<path id="Path_336" class="st6" d="M128.3,300.6l20.9,15l-1.8,1.7l-21.1-15.9L128.3,300.6z"/>
		<path id="Path_337" class="st6" d="M397.8,302l-24.2,17.2l1.8,1.7l24.4-18.1L397.8,302z"/>
		<rect id="Rectangle_26" x="171.4" y="289.4" class="st6" width="54.7" height="4"/>
	</g>
	<path id="Icon_awesome-check" class="st13" d="M99.7,157.9l-11-11c-0.7-0.7-0.7-1.7,0-2.4l2.4-2.4c0.7-0.7,1.7-0.7,2.4,0l7.4,7.4
		l15.8-15.8c0.7-0.7,1.7-0.7,2.4,0l2.4,2.4c0.7,0.7,0.7,1.7,0,2.4l-19.4,19.4C101.4,158.6,100.4,158.6,99.7,157.9z"/>
	<path id="Icon_awesome-check-2" class="st13" d="M200.5,85.9l-7.7-7.7c-0.5-0.5-0.5-1.2,0-1.7c0,0,0,0,0,0l1.7-1.7
		c0.5-0.5,1.2-0.5,1.7,0c0,0,0,0,0,0l5.2,5.2l11-11c0.5-0.5,1.2-0.5,1.7,0c0,0,0,0,0,0l1.7,1.7c0.5,0.5,0.5,1.2,0,1.7c0,0,0,0,0,0
		l-13.5,13.5C201.7,86.4,200.9,86.4,200.5,85.9z"/>
</g>
</svg>
