<svg xmlns="http://www.w3.org/2000/svg" width="412.17" height="400.39" viewBox="0 0 412.17 400.39">
  <g id="My_answer-pana" data-name="My answer-pana" transform="translate(-48.606 -63.443)">
    <g id="freepik--background-complete--inject-137" transform="translate(51.294 108.765)">
      <path id="Path_338" data-name="Path 338" d="M550.842,514.773a24.49,24.49,0,0,1,6.509-16.176C559.319,506.719,550.842,514.773,550.842,514.773Z" transform="translate(-193.153 -231.676)" fill="#ebebeb"/>
      <path id="Path_339" data-name="Path 339" d="M564.021,514.03a24.5,24.5,0,0,1,17.424-.48C574.792,518.59,564.021,514.03,564.021,514.03Z" transform="translate(-196.875 -235.513)" fill="#ebebeb"/>
      <path id="Path_340" data-name="Path 340" d="M565.381,502.1a19.305,19.305,0,0,1,2.371-13.546C570.6,494.5,565.381,502.1,565.381,502.1Z" transform="translate(-197.16 -228.838)" fill="#ebebeb"/>
      <path id="Path_341" data-name="Path 341" d="M514.585,480.99c13.815,3.686,21.226,15.7,21.226,15.7C524,496.686,514.585,480.99,514.585,480.99Z" transform="translate(-182.912 -226.703)" fill="#ebebeb"/>
      <path id="Path_342" data-name="Path 342" d="M545.32,476.387c-.72-14.89,13.824-31.747,13.824-31.747-2.2,18.49-13.843,31.747-13.843,31.747" transform="translate(-191.586 -216.436)" fill="#ebebeb"/>
      <path id="Path_343" data-name="Path 343" d="M543.033,429.775a39.937,39.937,0,0,1-5.232,21.331C535.747,441.526,543.033,429.775,543.033,429.775Z" transform="translate(-189.366 -212.237)" fill="#ebebeb"/>
      <path id="Path_344" data-name="Path 344" d="M530.793,467.222c-10.887-1.171-16.81-12-16.81-12C527.154,458.909,530.793,467.222,530.793,467.222Z" transform="translate(-182.742 -219.425)" fill="#ebebeb"/>
      <path id="Path_345" data-name="Path 345" d="M504.684,533.948a24.47,24.47,0,0,1,17.117-3.293C516.051,536.664,504.684,533.948,504.684,533.948Z" transform="translate(-180.115 -240.627)" fill="#ebebeb"/>
      <path id="Path_346" data-name="Path 346" d="M541.126,542.2a16.031,16.031,0,0,1-7.315,8.246C534.271,545.425,541.126,542.2,541.126,542.2Z" transform="translate(-188.342 -243.992)" fill="#ebebeb"/>
      <path id="Path_347" data-name="Path 347" d="M536.928,539.776a19.325,19.325,0,0,1-13.018,2.314C528.144,537.732,536.928,539.776,536.928,539.776Z" transform="translate(-185.546 -243.172)" fill="#ebebeb"/>
      <path id="Path_348" data-name="Path 348" d="M545.19,534.682a.614.614,0,0,1,0-.23V527.4c0-1.536,0-3.293-.106-5.232-.1-3.84-.365-8.467-.768-13.574s-1.056-10.695-1.92-16.541c-1.718-11.693-4.07-22.147-5.962-29.655-.96-3.754-1.757-6.787-2.342-8.87-.269-1.018-.49-1.824-.653-2.41-.058-.259-.115-.461-.154-.634a.968.968,0,0,1,0-.221.7.7,0,0,1,.086.211c.058.163.125.365.2.614l.739,2.381c.643,2.074,1.5,5.088,2.5,8.842a273.7,273.7,0,0,1,5.962,29.674c.854,5.856,1.459,11.463,1.92,16.57s.615,9.734.662,13.6c.058,1.92,0,3.7,0,5.242s0,2.88-.058,3.946-.067,1.92-.086,2.5v.653A.691.691,0,0,1,545.19,534.682Z" transform="translate(-188.192 -218.023)" fill="#e0e0e0"/>
      <path id="Path_349" data-name="Path 349" d="M521.956,523.976c.077-.115,4.483,2.774,9.83,6.442s9.6,6.72,9.552,6.845-4.474-2.774-9.83-6.442S521.88,524.091,521.956,523.976Z" transform="translate(-184.994 -238.844)" fill="#e0e0e0"/>
      <path id="Path_350" data-name="Path 350" d="M548.969,519.321a4.342,4.342,0,0,1,.682-.739l1.92-1.92c1.757-1.661,4.032-3.782,6.538-6.144l6.547-6.134,1.987-1.862c.47-.432.739-.662.768-.634a4.2,4.2,0,0,1-.634.768c-.432.48-1.075,1.152-1.92,1.978-1.613,1.642-3.888,3.84-6.451,6.25s-4.915,4.512-6.643,6.029c-.864.758-1.565,1.363-2.064,1.776a3.419,3.419,0,0,1-.73.634Z" transform="translate(-192.624 -232.605)" fill="#e0e0e0"/>
      <path id="Path_351" data-name="Path 351" d="M502.477,514.143s11.251-.211,16.013,8.64A20.266,20.266,0,0,1,502.477,514.143Z" transform="translate(-179.492 -236.067)" fill="#ebebeb"/>
      <path id="Path_352" data-name="Path 352" d="M523.893,507.855s9.158,6.528,7.68,16.483A20.266,20.266,0,0,1,523.893,507.855Z" transform="translate(-185.539 -234.291)" fill="#ebebeb"/>
      <path id="Path_353" data-name="Path 353" d="M585.209,485.405s-3.619,12.6-15.1,14.861a23.578,23.578,0,0,1,15.1-14.861Z" transform="translate(-198.595 -227.95)" fill="#ebebeb"/>
      <path id="Path_354" data-name="Path 354" d="M516.926,420.1s14.4,9.36,12.768,24.6A30.893,30.893,0,0,1,516.926,420.1Z" transform="translate(-183.573 -209.505)" fill="#ebebeb"/>
      <path id="Path_355" data-name="Path 355" d="M575.616,536.232a6.076,6.076,0,0,1-.96.749c-.624.442-1.507,1.114-2.573,1.968a64.524,64.524,0,0,0-7.776,7.3,65.289,65.289,0,0,0-6.432,8.515c-.73,1.161-1.3,2.1-1.68,2.774a5.962,5.962,0,0,1-.643,1.008,5.63,5.63,0,0,1,.48-1.1c.326-.691.854-1.67,1.555-2.88a55.207,55.207,0,0,1,6.355-8.64,55.875,55.875,0,0,1,7.93-7.248c1.1-.816,2.026-1.45,2.678-1.853A5.648,5.648,0,0,1,575.616,536.232Z" transform="translate(-194.483 -242.307)" fill="#e0e0e0"/>
      <path id="Path_356" data-name="Path 356" d="M565.962,542.526a24.461,24.461,0,0,1,3.293-17.117C570.8,536.084,565.962,542.526,565.962,542.526Z" transform="translate(-197.319 -239.249)" fill="#ebebeb"/>
      <path id="Path_357" data-name="Path 357" d="M579.567,541.006a17.809,17.809,0,0,1,12.528-1.92C585.145,542.743,579.567,541.006,579.567,541.006Z" transform="translate(-201.266 -243)" fill="#ebebeb"/>
      <path id="Path_358" data-name="Path 358" d="M520.646,569.533l5.386,35.4h31.287l7.267-34.877Z" transform="translate(-184.624 -251.712)" fill="#ebebeb"/>
      <path id="Path_359" data-name="Path 359" d="M561.681,601.076c0,.106-8.016.192-17.9.192s-17.914-.086-17.914-.192,8.016-.182,17.914-.182S561.681,600.98,561.681,601.076Z" transform="translate(-186.097 -260.57)" fill="#fafafa"/>
      <path id="Path_360" data-name="Path 360" d="M561.751,598.654c0,.106-8.064.182-18.019.182s-18.029-.077-18.029-.182,8.064-.182,18.029-.182S561.751,598.558,561.751,598.654Z" transform="translate(-186.052 -259.886)" fill="#fafafa"/>
      <path id="Path_361" data-name="Path 361" d="M561.667,595.911c0,.106-8.074.182-18.029.182s-18.029-.077-18.029-.182,8.074-.182,18.029-.182S561.667,595.815,561.667,595.911Z" transform="translate(-186.026 -259.112)" fill="#fafafa"/>
      <path id="Path_362" data-name="Path 362" d="M532.543,612.518a29.135,29.135,0,0,1-.96-4.454,27.161,27.161,0,0,1-.6-4.522,29.131,29.131,0,0,1,.96,4.454,28.452,28.452,0,0,1,.6,4.522Z" transform="translate(-187.545 -261.319)" fill="#fafafa"/>
      <path id="Path_363" data-name="Path 363" d="M535.891,612.1q-.489-4.338-.6-8.707a20.826,20.826,0,0,1,.576,4.33A21.385,21.385,0,0,1,535.891,612.1Z" transform="translate(-188.762 -261.277)" fill="#fafafa"/>
      <path id="Path_364" data-name="Path 364" d="M541.1,611.993a22,22,0,0,1-.816-4.464,22.546,22.546,0,0,1-.24-4.522,37.366,37.366,0,0,1,.6,4.483A38.72,38.72,0,0,1,541.1,611.993Z" transform="translate(-190.097 -261.167)" fill="#fafafa"/>
      <path id="Path_365" data-name="Path 365" d="M545.135,612.209a21.759,21.759,0,0,1-.442-4.531,22.79,22.79,0,0,1,.144-4.55,39.388,39.388,0,0,1,.23,4.541,42.054,42.054,0,0,1,.067,4.541Z" transform="translate(-191.401 -261.201)" fill="#fafafa"/>
      <path id="Path_366" data-name="Path 366" d="M551.879,612.14a25.227,25.227,0,0,1-.336-4.3,26.5,26.5,0,0,1,0-4.31,25.22,25.22,0,0,1,.336,4.3A26.55,26.55,0,0,1,551.879,612.14Z" transform="translate(-193.326 -261.315)" fill="#fafafa"/>
      <path id="Path_367" data-name="Path 367" d="M556.883,612.285a26.125,26.125,0,0,1-.154-4.445,27.618,27.618,0,0,1,.221-4.445,26.119,26.119,0,0,1,.154,4.445A29.006,29.006,0,0,1,556.883,612.285Z" transform="translate(-194.806 -261.277)" fill="#fafafa"/>
      <path id="Path_368" data-name="Path 368" d="M561.555,611.482a28.185,28.185,0,0,1,.259-4.646,30.425,30.425,0,0,1,.634-4.618,29.043,29.043,0,0,1-.269,4.656,29.763,29.763,0,0,1-.624,4.608Z" transform="translate(-196.176 -260.944)" fill="#fafafa"/>
      <path id="Path_369" data-name="Path 369" d="M567.486,611.418a15.862,15.862,0,0,1,.528-3.955,15.235,15.235,0,0,1,1.162-3.84,37.572,37.572,0,0,1-.806,3.888,36.047,36.047,0,0,1-.883,3.907Z" transform="translate(-197.854 -261.341)" fill="#fafafa"/>
      <path id="Path_370" data-name="Path 370" d="M515.642,559.766v6.624a2.6,2.6,0,0,0,2.6,2.611h45.312a2.611,2.611,0,0,0,2.611-2.611v-6.624Z" transform="translate(-183.21 -248.954)" fill="#ebebeb"/>
      <path id="Path_371" data-name="Path 371" d="M521.114,572.637l.374,2.112,41.808,2.976,1.066-5.088Z" transform="translate(-184.756 -252.589)" fill="#e0e0e0"/>
      <path id="Path_372" data-name="Path 372" d="M546.565,151.585a12.95,12.95,0,0,0,7.68-11.971c0-7.152-5.386-12.97-12.086-13.008S530,132.366,529.967,139.5a12.912,12.912,0,0,0,7.738,12.086C519.023,154.4,519.867,174.7,519.867,174.7l44.16.211S565.084,154.388,546.565,151.585Z" transform="translate(-184.402 -126.606)" fill="#5a30af"/>
      <path id="Path_373" data-name="Path 373" d="M101.053,306.743l-12.586-3.926s-3.293,10.56-14.333,7.334a10.666,10.666,0,0,1-7.834-9.6,11.808,11.808,0,0,1,4.08-9.907c3.226-2.88,8.9-4.589,16.915-.451l8.851-28.378-12.48-3.84-5.184,16.618s-18.855-.96-24.855,18.3c-5.76,18.4,9.427,27.84,16.483,30.029C75.556,324.58,94.362,329.015,101.053,306.743Z" transform="translate(-52.352 -163.711)" fill="#5a30af"/>
      <rect id="Rectangle_27" data-name="Rectangle 27" width="13.229" height="12.355" transform="matrix(-0.955, -0.298, 0.298, -0.955, 45.666, 92.29)" fill="#f5f5f5"/>
      <path id="Path_374" data-name="Path 374" d="M161.3,302.557l6.288-1.661s-1.392-5.28,4.08-6.816a5.242,5.242,0,0,1,5.76,1.92,5.76,5.76,0,0,1,.9,5.213c-.6,2.035-2.525,4.253-6.96,4.627l3.744,14.179,6.221-1.642-2.2-8.3a12.567,12.567,0,0,0,5.6-14.17c-2.429-9.206-11.242-9.168-14.775-8.227C167.305,288.416,158.252,291.5,161.3,302.557Z" transform="translate(-82.949 -171.986)" fill="#ebebeb"/>
      <rect id="Rectangle_28" data-name="Rectangle 28" width="6.528" height="6.096" transform="translate(92.944 150.981) rotate(-14.78)" fill="#ebebeb"/>
      <path id="Path_375" data-name="Path 375" d="M77.544,139.941l6.25-.73s-.614-5.242,4.8-5.971a5.088,5.088,0,0,1,5.27,2.659,5.635,5.635,0,0,1,.144,5.107c-.854,1.92-3,3.725-7.286,3.475l1.642,14.074,6.173-.72-.96-8.246a12.134,12.134,0,0,0,7.286-12.787c-1.066-9.13-9.494-10.291-13.008-9.888C85.224,127.231,76.181,128.949,77.544,139.941Z" transform="translate(-59.428 -126.674)" fill="#f5f5f5"/>
      <rect id="Rectangle_29" data-name="Rectangle 29" width="6.307" height="5.894" transform="translate(29.325 34.777) rotate(-6.65)" fill="#f5f5f5"/>
    </g>
    <g id="freepik--post-2--inject-137" transform="translate(127.327 299.684)">
      <rect id="Rectangle_30" data-name="Rectangle 30" width="237.458" height="97.604" transform="translate(0.173 10.001)" fill="#fafafa"/>
      <path id="Path_376" data-name="Path 376" d="M395.945,504.073v-6.806c0-4.445,0-10.992-.048-19.421,0-16.858,0-41.232-.1-71.377l.182.173-237.439.077h0l.25-.25v97.6l-.24-.24,170.315.106,49.364.067h.106l-49.306.067-170.478.115h-.24V406.094h.269l237.439.067h.058v.182c0,30.192-.067,54.605-.1,71.482v24.413C395.983,503.372,395.945,504.073,395.945,504.073Z" transform="translate(-158.314 -396.468)" fill="#263238"/>
      <circle id="Ellipse_15" data-name="Ellipse 15" cx="16.858" cy="16.858" r="16.858" transform="translate(13.843 20.369)" fill="#ebebeb"/>
      <path id="Path_377" data-name="Path 377" d="M311.053,441.41c0,.144-16.848.25-37.632.25s-37.642-.105-37.642-.25,16.848-.25,37.642-.25S311.053,441.3,311.053,441.41Z" transform="translate(-180.195 -406.372)" fill="#263238"/>
      <path id="Path_378" data-name="Path 378" d="M292.117,455.98c0,.144-12.864.25-28.733.25s-28.743-.106-28.743-.25,12.864-.25,28.743-.25S292.117,455.846,292.117,455.98Z" transform="translate(-179.873 -410.488)" fill="#e0e0e0"/>
      <path id="Path_379" data-name="Path 379" d="M380.005,486.11c0,.144-39.85.25-88.993.25s-89-.106-89-.25,39.84-.25,89-.25S380.005,485.975,380.005,486.11Z" transform="translate(-170.656 -418.998)" fill="#263238"/>
      <path id="Path_380" data-name="Path 380" d="M380.005,502.86c0,.144-39.85.25-88.993.25s-89-.106-89-.25,39.84-.25,89-.25S380.005,502.726,380.005,502.86Z" transform="translate(-170.656 -423.729)" fill="#263238"/>
      <path id="Path_381" data-name="Path 381" d="M187.626,414.066c-.653-7.315,3.053-13.8,10.378-14.247h.682a13.123,13.123,0,0,1,13.133,12.019c.538,6.346,1.046,13.354,1.018,16.762-.067,7.046-7.114,8.17-7.114,8.17l.154,2.256a8.707,8.707,0,0,1-8.947,9.274h0a8.707,8.707,0,0,1-8.448-8.419Z" transform="translate(-166.573 -394.695)" fill="#ffbe9d"/>
      <path id="Path_382" data-name="Path 382" d="M209.267,450.289a16.32,16.32,0,0,1-9.2-2.573s2.189,5.059,9.226,4.4Z" transform="translate(-170.108 -408.224)" fill="#eb996e"/>
      <path id="Path_383" data-name="Path 383" d="M217.52,423.568a1.018,1.018,0,0,1-.96,1.018.96.96,0,0,1-1.037-.9,1.018,1.018,0,0,1,.96-1.027.96.96,0,0,1,1.037.912Z" transform="translate(-174.473 -401.145)" fill="#263238"/>
      <path id="Path_384" data-name="Path 384" d="M217.841,420.453c-.125.134-.883-.422-1.968-.422s-1.872.557-2,.422.077-.3.422-.547a2.755,2.755,0,0,1,1.594-.5,2.65,2.65,0,0,1,1.565.5C217.841,420.165,217.908,420.4,217.841,420.453Z" transform="translate(-173.997 -400.228)" fill="#263238"/>
      <path id="Path_385" data-name="Path 385" d="M203.374,423.946a1.018,1.018,0,0,1-.96,1.027.96.96,0,0,1-1.046-.912,1.018,1.018,0,0,1,.96-1.018.96.96,0,0,1,1.046.9Z" transform="translate(-170.475 -401.254)" fill="#263238"/>
      <path id="Path_386" data-name="Path 386" d="M202.816,420.168c-.106.144-.96-.336-2.006-.211s-1.8.749-1.92.634,0-.3.346-.586a2.822,2.822,0,0,1,1.536-.672,2.717,2.717,0,0,1,1.613.326C202.729,419.88,202.873,420.1,202.816,420.168Z" transform="translate(-169.763 -400.203)" fill="#263238"/>
      <path id="Path_387" data-name="Path 387" d="M209.75,429.34a7.5,7.5,0,0,1,1.757-.326c.278,0,.538-.086.586-.269a1.4,1.4,0,0,0-.182-.826c-.269-.662-.538-1.363-.826-2.1a36.22,36.22,0,0,1-1.862-5.5,36,36,0,0,1,2.294,5.347c.278.73.547,1.44.8,2.112a1.584,1.584,0,0,1,.144,1.085.72.72,0,0,1-.451.4,1.845,1.845,0,0,1-.47.067,7.114,7.114,0,0,1-1.786.01Z" transform="translate(-172.693 -400.485)" fill="#263238"/>
      <path id="Path_388" data-name="Path 388" d="M205.438,433.949c.173,0,.182,1.171,1.19,2s2.256.7,2.266.864-.278.23-.806.24a2.88,2.88,0,0,1-1.92-.653,2.592,2.592,0,0,1-.96-1.67C205.227,434.237,205.352,433.949,205.438,433.949Z" transform="translate(-171.56 -404.336)" fill="#263238"/>
      <path id="Path_389" data-name="Path 389" d="M202.24,415.274c-.077.307-1.171.259-2.419.528s-2.246.691-2.438.451.067-.413.461-.739a4.148,4.148,0,0,1,1.766-.8,4.215,4.215,0,0,1,1.92.058C202.019,414.929,202.278,415.13,202.24,415.274Z" transform="translate(-169.331 -398.88)" fill="#263238"/>
      <path id="Path_390" data-name="Path 390" d="M217.237,416.593c-.192.24-.96,0-1.834,0s-1.661.173-1.834-.086,0-.365.374-.6a2.535,2.535,0,0,1,1.488-.4,2.592,2.592,0,0,1,1.469.49C217.218,416.219,217.324,416.468,217.237,416.593Z" transform="translate(-173.902 -399.123)" fill="#263238"/>
      <path id="Path_391" data-name="Path 391" d="M193.724,422.684c-.086,0,.317.749,1.219,1.046a1.661,1.661,0,0,0,1.594-.1,11.754,11.754,0,0,1-1.488-.23,9.339,9.339,0,0,1-1.325-.72Z" transform="translate(-168.313 -401.154)" fill="#eb996e"/>
      <path id="Path_392" data-name="Path 392" d="M193.728,425.748c0,.086.566-.086,1.21-.24s1.19-.25,1.19-.346-.586-.154-1.267,0S193.689,425.661,193.728,425.748Z" transform="translate(-168.316 -401.827)" fill="#eb996e"/>
      <path id="Path_393" data-name="Path 393" d="M216.741,431.966c0,.077.211.106.422.058s.365-.154.346-.23-.2-.1-.413-.048S216.741,431.9,216.741,431.966Z" transform="translate(-174.817 -403.706)" fill="#eb996e"/>
      <path id="Path_394" data-name="Path 394" d="M216.741,432.852c0,.077.077.154.211.182s.24,0,.259-.1-.077-.163-.211-.182S216.741,432.766,216.741,432.852Z" transform="translate(-174.817 -403.997)" fill="#eb996e"/>
      <path id="Path_395" data-name="Path 395" d="M203.183,434.449a1.215,1.215,0,0,0,.326-.25,3.235,3.235,0,0,1,.682-.566,1.229,1.229,0,0,1,.806-.144c.211,0,.326.134.365.1s0-.2-.288-.326a1.2,1.2,0,0,0-1.046.067,2.093,2.093,0,0,0-.71.73C203.192,434.267,203.144,434.42,203.183,434.449Z" transform="translate(-170.984 -404.115)" fill="#eb996e"/>
      <path id="Path_396" data-name="Path 396" d="M193.9,446.6a1.112,1.112,0,0,1-.134-.173.758.758,0,0,1-.058-.528c.058-.23.23-.48.355-.845a1.018,1.018,0,0,0,0-.634,2.515,2.515,0,0,0-.336-.528.269.269,0,0,1,0-.346,4.625,4.625,0,0,1,.374-.355.826.826,0,0,0,.269-.518.96.96,0,0,0-.067-.48,1.545,1.545,0,0,0-.384-.538c-.115-.106-.182-.144-.2-.134a5.641,5.641,0,0,1,.355.749.643.643,0,0,1-.182.691,2.824,2.824,0,0,0-.432.384.624.624,0,0,0,0,.739,3.149,3.149,0,0,1,.307.451.739.739,0,0,1,0,.432,6.723,6.723,0,0,0-.278.883.749.749,0,0,0,.192.662C193.809,446.629,193.9,446.619,193.9,446.6Z" transform="translate(-168.205 -406.474)" fill="#eb996e"/>
      <path id="Path_397" data-name="Path 397" d="M191.414,446.171s-.067,0-.1-.115.067-.144.173-.413a1.267,1.267,0,0,0-.192-.8.566.566,0,0,1,.125-.672,3.157,3.157,0,0,0,.6-.758.787.787,0,0,0-.134-.845.72.72,0,0,0-.5-.259h-.2a.643.643,0,0,1,.509.365.528.528,0,0,1,0,.557,4.376,4.376,0,0,1-.566.672.96.96,0,0,0-.25.5.874.874,0,0,0,.1.518c.144.269.269.461.25.614a2.044,2.044,0,0,1-.086.259.307.307,0,0,0,0,.278C191.308,446.267,191.443,446.19,191.414,446.171Z" transform="translate(-167.51 -406.697)" fill="#eb996e"/>
      <path id="Path_398" data-name="Path 398" d="M186.643,426.855c-.125-.048-4.8-1.411-4.675,3.4s4.973,3.658,4.973,3.514S186.643,426.855,186.643,426.855Z" transform="translate(-164.995 -402.271)" fill="#ffbe9d"/>
      <path id="Path_399" data-name="Path 399" d="M185.887,432.607a1.362,1.362,0,0,1-.221.125.788.788,0,0,1-.624,0,2.045,2.045,0,0,1-1.027-1.824,2.726,2.726,0,0,1,.192-1.21.96.96,0,0,1,.6-.672.432.432,0,0,1,.509.211c.067.134,0,.23.067.24s.1-.086.048-.278a.5.5,0,0,0-.192-.3.653.653,0,0,0-.47-.106,1.19,1.19,0,0,0-.854.778,2.938,2.938,0,0,0-.24,1.354,2.179,2.179,0,0,0,1.3,2.035.96.96,0,0,0,.768-.154C185.887,432.722,185.906,432.616,185.887,432.607Z" transform="translate(-165.477 -402.878)" fill="#263238"/>
      <path id="Path_400" data-name="Path 400" d="M210.863,401.6a2.438,2.438,0,0,0-1.853-1.92,2.189,2.189,0,0,0-3.437-2.544,2.246,2.246,0,0,0-3.072-2,1.92,1.92,0,0,0-3.562-1.027,3.274,3.274,0,0,0-5.107-.394,4.186,4.186,0,0,0-5.069,2.256,3.965,3.965,0,0,0-3.485,2.746,2.88,2.88,0,0,0-2.141,4.55,2.15,2.15,0,0,0-.432,3.4,2.122,2.122,0,0,0,.067,3.84c-.71.1-.96,1.037-.778,1.718a20.958,20.958,0,0,0,1.018,1.92c.23.538.3,1.133.5,1.69a3.84,3.84,0,0,0,2.275,2.266l-.115.01c-.125.614.739,1.037,1.315.8a3.178,3.178,0,0,0,1.248-1.382,6.862,6.862,0,0,0,.96-1.92,1.661,1.661,0,0,0-.662-1.92,2.525,2.525,0,0,0,1.517-1.987,7.277,7.277,0,0,0-.163-2.611l-.691-3.84a4.8,4.8,0,0,0,4.147-2.746,2.765,2.765,0,0,0,4-.96,3.581,3.581,0,0,0,4.368,2.2c-.182.96,1.6,1.92,2.592,2.179a3.562,3.562,0,0,0,2.208-.432s1.69.96,2.611.614,2.15-1.43,1.507-2.39a4.4,4.4,0,0,0,.23-2.112Z" transform="translate(-164.869 -392.678)" fill="#263238"/>
      <path id="Path_401" data-name="Path 401" d="M182.819,411.077a1.183,1.183,0,0,0,.48.624.94.94,0,0,0,1.459-.576l.058-.288.221.192a1.258,1.258,0,0,0,2.074-1.075v-.288l.269.115a1.258,1.258,0,0,0,1.565-.538,3.5,3.5,0,0,0,.24-.7,1.02,1.02,0,0,1-.067.8,1.4,1.4,0,0,1-.643.682,1.517,1.517,0,0,1-1.219.067l.221-.173a1.584,1.584,0,0,1-.96,1.651,1.613,1.613,0,0,1-1.69-.278l.278-.1a1.257,1.257,0,0,1-.96.96,1.133,1.133,0,0,1-.96-.25C182.732,411.49,182.8,411.077,182.819,411.077Z" transform="translate(-165.231 -397.159)" fill="#fafafa"/>
      <path id="Path_402" data-name="Path 402" d="M181.834,416.732a1.306,1.306,0,0,0,.518.2,1.162,1.162,0,0,0,1.21-.518l.1-.173.134.144a1.286,1.286,0,0,0,1.229.346,1.258,1.258,0,0,0,.893-1.133v-.317l.269.173a.672.672,0,0,0,.221.106.883.883,0,0,0,.96-.336.96.96,0,0,0,0-.96l-.182-.3h.336a1.546,1.546,0,0,0,1.114-.278,1.508,1.508,0,0,0,.538-.73,3.456,3.456,0,0,0,.115-.845,1.142,1.142,0,0,1,.077.893,1.68,1.68,0,0,1-.566.9,1.757,1.757,0,0,1-1.315.374l.154-.24a1.21,1.21,0,0,1-1.382,1.8,1.373,1.373,0,0,1-.317-.144l.278-.144a1.584,1.584,0,0,1-1.181,1.44,1.546,1.546,0,0,1-1.517-.48h.23a1.219,1.219,0,0,1-.787.557,1.334,1.334,0,0,1-.71,0C181.92,416.953,181.815,416.742,181.834,416.732Z" transform="translate(-164.957 -398.168)" fill="#fafafa"/>
      <path id="Path_403" data-name="Path 403" d="M204.634,395.582a1.774,1.774,0,0,0-.547-.307.96.96,0,0,0-.7,0,1.066,1.066,0,0,0-.586.7l-.058.278-.154-.25a1.747,1.747,0,0,0-1.478-.826,1.709,1.709,0,0,0-1.594,1.21l-.086.317-.2-.259a2.15,2.15,0,0,0-1.67-.8,2.074,2.074,0,0,0-1.709.96,2.121,2.121,0,0,0-.3.787v.192l-.182-.048a2.013,2.013,0,0,0-1.949,3.331l.182.2-.259.048a2.285,2.285,0,0,0-1.843,2.237,3.312,3.312,0,0,0,.259,1.171.844.844,0,0,1-.192-.269,2.161,2.161,0,0,1-.25-.883,2.3,2.3,0,0,1,.365-1.411,2.457,2.457,0,0,1,1.584-1.085l-.077.24a2.333,2.333,0,0,1,2.246-3.84l-.221.144a2.3,2.3,0,0,1,.355-.96,2.371,2.371,0,0,1,2.006-1.123,2.458,2.458,0,0,1,1.92.96l-.288.058a1.92,1.92,0,0,1,3.59-.413h-.211a1.229,1.229,0,0,1,.739-.806,1.153,1.153,0,0,1,.806,0,.96.96,0,0,1,.413.278C204.614,395.524,204.643,395.582,204.634,395.582Z" transform="translate(-167.635 -393.3)" fill="#fafafa"/>
    </g>
    <g id="freepik--Plant--inject-137" transform="translate(75.888 314.159)">
      <path id="Path_404" data-name="Path 404" d="M138.879,554.563c-2.112-.106-2.736-3.082-1.92-5.04s2.342-3.706,2.362-5.827c0-1.834-1.142-3.494-1.258-5.328-.2-3.3,2.986-5.99,3.13-9.3.106-2.573-1.69-5.03-1.248-7.574.461-2.726,3.3-4.512,3.955-7.21.7-2.88-1.286-5.885-.528-8.736s4.1-4.915,3.629-7.814c-.163-.96-.739-1.8-.96-2.736-.6-2.16.586-4.406,2.006-6.134s3.187-3.264,4.07-5.328c1.354-3.168.413-7.018,2.016-10.07,1.334-2.534,4.3-4.243,4.675-7.095,1.507,2.563,0,5.818.374,8.775.23,1.92,1.219,3.658,1.834,5.491a14.3,14.3,0,0,1-1.123,11.453c-1.286,2.266-3.283,4.406-3.178,7.018.125,3.158,3.283,5.453,3.84,8.563.8,4.445-3.946,8.448-3.283,12.922.163,1.162.691,2.246.8,3.408.336,3.955-4.157,6.72-4.8,10.656-.5,2.88,1.162,5.856.48,8.688-.538,2.189-2.419,4.157-1.92,6.355a15.012,15.012,0,0,0,1.21,2.659,5.069,5.069,0,0,1-.8,5.242,4.387,4.387,0,0,1-5.1,1.046" transform="translate(-100.746 -427.967)" fill="#ff6262"/>
      <g id="Group_12" data-name="Group 12" transform="translate(35.741 38.4)" opacity="0.5">
        <path id="Path_405" data-name="Path 405" d="M152.845,552.355a15.012,15.012,0,0,1-1.21-2.659c-.461-2.2,1.421-4.166,1.92-6.355.682-2.832-.96-5.808-.48-8.688.682-3.907,5.174-6.72,4.8-10.656-.106-1.162-.634-2.247-.8-3.408-.662-4.474,4.08-8.477,3.283-12.922-.557-3.11-3.715-5.4-3.84-8.563-.106-2.611,1.92-4.752,3.178-7.018a14.3,14.3,0,0,0,1.123-11.453c-.6-1.834-1.6-3.571-1.834-5.491-.336-2.957,1.133-6.211-.374-8.775-.374,2.88-3.341,4.56-4.675,7.094-1.6,3.053-.662,6.9-2.016,10.07-.883,2.064-2.64,3.6-4.07,5.328s-2.6,3.974-2.006,6.134a22.119,22.119,0,0,1,.96,2.736c.47,2.88-2.88,4.982-3.629,7.814s1.229,5.875.528,8.736c-.653,2.7-3.494,4.483-3.955,7.21-.442,2.544,1.354,5,1.248,7.574-.144,3.312-3.331,6-3.13,9.3.115,1.834,1.277,3.494,1.258,5.328,0,2.122-1.574,3.84-2.362,5.827s-.163,4.934,1.92,5.04l8.122,4.08a4.387,4.387,0,0,0,5.1-1.046,5.069,5.069,0,0,0,.941-5.242Z" transform="translate(-136.437 -466.367)" fill="#fff"/>
      </g>
      <path id="Path_406" data-name="Path 406" d="M150.661,551.136a5.827,5.827,0,0,1-.816-3.13c.221-1.21,2.256-2.266,2.765-4.32.662-2.659-.528-7.363,0-10.042.691-3.648,4.454-6.048,4.3-9.667,0-1.066.106-3.907,0-4.954-.4-4.08,3.178-6.816,2.659-10.867-.365-2.822-3.293-6.144-3.3-9.043,0-2.39,1.718-4.493,2.88-6.662a14.938,14.938,0,0,0,1.248-10.57,25.6,25.6,0,0,1-1.344-4.944c-.192-2.7,1.133-5.76,0-8.054-.394,2.65-2.88,4.416-4.1,6.835-1.421,2.88-.758,6.4-1.987,9.408-.8,1.92-2.294,3.485-3.533,5.165s-2.285,3.84-1.862,5.76a21.762,21.762,0,0,1,.739,2.448c.307,2.64-2.525,4.8-3.245,7.43s.826,5.328.163,8.016c-.624,2.515-3.091,5.943-3.562,8.477-.442,2.371,1.709,3.917,1.536,6.288-.211,3.053-3.274,6.72-3.216,9.782,0,1.68,1.44,2.218,1.373,3.907-.086,1.92-1.718,5.818-2.429,7.68a5.242,5.242,0,0,0,.509,5.222l9.072,4.5C152.524,557.846,152.389,553.881,150.661,551.136Z" transform="translate(-101.267 -428.677)" fill="#ff6262"/>
      <path id="Path_407" data-name="Path 407" d="M158.92,488.041a.962.962,0,0,1,0,.2v.6c0,.518,0,1.286-.086,2.266a11.261,11.261,0,0,1-.826,3.5,18.045,18.045,0,0,1-2.726,3.9,7.239,7.239,0,0,0-1.3,2.362,8.083,8.083,0,0,0-.326,2.88c.1,2.045.73,4.186,1.027,6.509a10.185,10.185,0,0,1-.115,3.61,7.422,7.422,0,0,1-.71,1.747,17.542,17.542,0,0,0-.96,1.594,5.952,5.952,0,0,0-.058,3.686c.134.634.278,1.286.355,1.92a8.026,8.026,0,0,1,0,2.035,15.793,15.793,0,0,1-1.258,3.84,32.184,32.184,0,0,0-1.4,3.562,9.139,9.139,0,0,0-.307,3.629,16.769,16.769,0,0,1,.125,3.6,11.058,11.058,0,0,1-1.142,3.235,12.748,12.748,0,0,0-1.152,2.947c-.384,2.006.192,3.926.144,5.7a15.138,15.138,0,0,1-1.037,4.646,17.117,17.117,0,0,0-.893,3.446,5.146,5.146,0,0,0,.23,2.218c.182.47.326.71.307.72a4,4,0,0,1-.374-.7,4.8,4.8,0,0,1-.3-2.246,15.362,15.362,0,0,1,.835-3.495,15.7,15.7,0,0,0,.96-4.589c0-.864-.125-1.776-.221-2.736a10.013,10.013,0,0,1,0-3.024c.384-2.1,1.92-3.907,2.246-6.173a15.706,15.706,0,0,0-.144-3.523,9.6,9.6,0,0,1,.326-3.754c.691-2.467,2.2-4.723,2.63-7.335a7.37,7.37,0,0,0,0-1.92,19.376,19.376,0,0,0-.346-1.92,6.221,6.221,0,0,1,.2-3.926,17.453,17.453,0,0,1,.96-1.632,6.664,6.664,0,0,0,.682-1.651,9.686,9.686,0,0,0,.115-3.485c-.278-2.285-.9-4.435-.96-6.538a8.429,8.429,0,0,1,.365-3,7.68,7.68,0,0,1,1.363-2.438,18.623,18.623,0,0,0,2.746-3.84,11.405,11.405,0,0,0,.864-3.427c.106-.96.134-1.747.163-2.256v-.6A.815.815,0,0,1,158.92,488.041Z" transform="translate(-103.43 -434.088)" fill="#263238"/>
      <path id="Path_408" data-name="Path 408" d="M118.737,540.484c-2.947.432-4.627-3.523-4.07-6.461s2.227-5.76,1.68-8.707c-.48-2.544-2.554-4.531-3.206-7.037-1.181-4.522,2.5-9.13,1.786-13.747-.566-3.6-3.715-6.509-3.84-10.147-.1-3.907,3.35-7.171,3.523-11.078.173-4.157-3.408-7.8-3.13-11.962s4.33-7.93,2.88-11.818c-.48-1.286-1.507-2.285-2.131-3.514-1.421-2.88-.4-6.278,1.1-9.062s3.514-5.386,4.176-8.487c1.008-4.8-1.354-9.84,0-14.506,1.152-3.84,4.8-7.066,4.531-11.107,2.794,3.13,1.642,8.054,2.88,12.048.835,2.6,2.688,4.733,4.042,7.114a20.208,20.208,0,0,1,1.584,16.167c-1.171,3.5-3.341,7.008-2.486,10.56,1.037,4.339,6.038,6.653,7.68,10.81,2.323,5.942-3.149,12.787-1.018,18.807.547,1.555,1.584,2.88,2.035,4.493,1.555,5.4-3.9,10.493-3.773,16.1.1,4.118,3.206,7.786,3.034,11.9-.134,3.178-2.218,6.413-.96,9.341a21.826,21.826,0,0,0,2.4,3.35,7.181,7.181,0,0,1,.346,7.488,6.221,6.221,0,0,1-6.778,2.88" transform="translate(-93.535 -412.851)" fill="#ff6262"/>
      <g id="Group_13" data-name="Group 13" transform="translate(17.606 0.038)" opacity="0.5">
        <path id="Path_409" data-name="Path 409" d="M137.537,533.6a21.828,21.828,0,0,1-2.4-3.35c-1.248-2.928.835-6.163.96-9.341.173-4.118-2.938-7.786-3.034-11.9-.125-5.606,5.328-10.7,3.773-16.1-.451-1.574-1.488-2.938-2.035-4.493-2.131-6.019,3.341-12.864,1.018-18.807-1.632-4.157-6.634-6.47-7.68-10.81-.854-3.59,1.315-7.094,2.486-10.56a20.208,20.208,0,0,0-1.584-16.167c-1.354-2.381-3.206-4.512-4.042-7.114-1.286-3.994-.134-8.918-2.88-12.048.269,4.042-3.379,7.229-4.531,11.107-1.392,4.666.96,9.744,0,14.506-.662,3.1-2.669,5.7-4.176,8.486s-2.525,6.23-1.1,9.062c.624,1.229,1.651,2.227,2.131,3.514,1.45,3.888-2.611,7.68-2.88,11.818s3.3,7.8,3.13,11.962c-.173,3.907-3.619,7.171-3.523,11.079.1,3.638,3.245,6.547,3.84,10.147.71,4.618-2.966,9.226-1.786,13.747.653,2.506,2.726,4.493,3.206,7.037.547,2.938-1.133,5.76-1.68,8.707s1.027,6.874,4.013,6.422l12.384,3.427a6.221,6.221,0,0,0,6.778-2.88,7.181,7.181,0,0,0-.384-7.45Z" transform="translate(-111.164 -412.904)" fill="#fff"/>
      </g>
      <path id="Path_410" data-name="Path 410" d="M133.791,532.655a8.16,8.16,0,0,1-1.987-4.109c0-1.728,2.506-3.763,2.65-6.72.182-3.84-2.746-10.061-2.784-13.911,0-5.242,4.522-9.6,3.322-14.573-.355-1.459-.96-5.443-1.363-6.874-1.67-5.53,2.534-10.31.71-15.773-1.286-3.84-6.25-7.6-7.056-11.626-.653-3.312,1.152-6.72,2.131-10.022a21.12,21.12,0,0,0-1.114-15.063c-1.075-2.16-2.563-4.08-3.216-6.48-.96-3.677,0-8.333-2.256-11.136.173,3.773-2.88,6.9-3.84,10.56-1.171,4.426.7,9.082-.173,13.575-.576,2.928-2.227,5.453-3.485,8.122s-2.122,5.942-.96,8.525c.48,1.123,1.315,2.016,1.69,3.2,1.142,3.571-2.2,7.306-2.467,11.184s2.611,7.162,2.419,11.059c-.173,3.658-2.65,9.072-2.611,12.73,0,3.4,3.437,4.944,3.84,8.295.538,4.282-2.688,10.243-1.776,14.4.509,2.314,2.6,2.678,2.966,5.04.413,2.717-.787,8.525-1.267,11.3a7.43,7.43,0,0,0,2.227,7.123l13.8,3.754C138.246,541.449,136.921,536.044,133.791,532.655Z" transform="translate(-94.189 -413.845)" fill="#ff6262"/>
      <path id="Path_411" data-name="Path 411" d="M126.065,443.837a33.669,33.669,0,0,1,.71,4.262,15.984,15.984,0,0,1-.182,5.069,13.1,13.1,0,0,1-1.085,2.986c-.5,1.008-1.094,2.035-1.642,3.139a10.214,10.214,0,0,0-1.152,3.658,11.28,11.28,0,0,0,.336,4.128c.7,2.823,2.16,5.616,3.206,8.746a14.006,14.006,0,0,1,.816,5.011,9.676,9.676,0,0,1-.5,2.592,21.344,21.344,0,0,0-.893,2.477c-.422,1.718.23,3.495.96,5.165.355.854.739,1.709,1.027,2.611a11.214,11.214,0,0,1,.48,2.823,23.041,23.041,0,0,1-.682,5.606,42.825,42.825,0,0,0-.96,5.338,13.027,13.027,0,0,0,.566,5.136,23.606,23.606,0,0,1,1.162,4.934,15.282,15.282,0,0,1-.7,4.8,18.738,18.738,0,0,0-.778,4.416,14.4,14.4,0,0,0,.739,4.1,35.919,35.919,0,0,1,1.037,3.773,13.661,13.661,0,0,1,.134,3.562c-.077,1.114-.211,2.17-.336,3.149a22.551,22.551,0,0,0-.269,5.021,6.989,6.989,0,0,0,.96,3c.384.614.653.893.634.912a6.478,6.478,0,0,1-.7-.874,6.884,6.884,0,0,1-1.018-3.024,22.522,22.522,0,0,1,.211-5.069c.115-.96.24-2.026.307-3.139a13.6,13.6,0,0,0-.192-3.495,38.5,38.5,0,0,0-1.056-3.744,14.323,14.323,0,0,1-.768-4.186,18.366,18.366,0,0,1,.768-4.483,14.957,14.957,0,0,0,.672-4.685,23.473,23.473,0,0,0-1.133-4.877,13.162,13.162,0,0,1-.586-5.261,42.6,42.6,0,0,1,.96-5.386,22.55,22.55,0,0,0,.672-5.51,10.4,10.4,0,0,0-.461-2.726c-.288-.883-.653-1.728-.96-2.582a15.984,15.984,0,0,1-.96-2.621,6.115,6.115,0,0,1,0-2.765,22.726,22.726,0,0,1,.9-2.515,9.351,9.351,0,0,0,.49-2.5,13.7,13.7,0,0,0-.8-4.886c-1.018-3.1-2.477-5.9-3.178-8.774a11.885,11.885,0,0,1-.317-4.243,10.483,10.483,0,0,1,1.2-3.734c.557-1.114,1.171-2.131,1.661-3.13a12.163,12.163,0,0,0,1.094-2.88,16.119,16.119,0,0,0,.25-5.011c-.125-1.373-.307-2.438-.413-3.168-.058-.346-.1-.614-.125-.816A.916.916,0,0,0,126.065,443.837Z" transform="translate(-96.745 -421.603)" fill="#263238"/>
      <path id="Path_412" data-name="Path 412" d="M109.954,563.1c-1.69.826-3.456-1.219-3.686-3.082s.211-3.888-.682-5.539c-.778-1.43-2.4-2.218-3.283-3.59-1.574-2.477-.259-5.943-1.584-8.573-1.027-2.045-3.475-3.178-4.243-5.338-.816-2.314.624-4.935,0-7.306-.7-2.525-3.552-4.013-4.186-6.557s1.056-5.587-.566-7.68a25.327,25.327,0,0,0-1.92-1.69c-1.392-1.421-1.459-3.677-1.094-5.635s1.066-3.907.864-5.885c-.317-3.043-2.717-5.635-2.784-8.688-.058-2.554,1.507-5.155.566-7.526,2.275,1.334,2.544,4.5,4.08,6.643.96,1.392,2.525,2.314,3.84,3.475a12.682,12.682,0,0,1,4.07,9.37c0,2.323-.643,4.848.566,6.826,1.459,2.4,4.9,2.813,6.72,4.982,2.544,3.11.6,8.266,3.034,11.453.634.826,1.507,1.44,2.083,2.3,1.92,2.88-.307,7.027.854,10.359.854,2.448,3.427,4.042,4.118,6.538.538,1.92-.086,4.272,1.229,5.76a13.95,13.95,0,0,0,2.083,1.546,4.493,4.493,0,0,1,1.651,4.406,3.907,3.907,0,0,1-3.514,3.014" transform="translate(-86.673 -433.514)" fill="#ff6262"/>
      <g id="Group_14" data-name="Group 14" transform="translate(0 52.56)" opacity="0.5">
        <path id="Path_413" data-name="Path 413" d="M119.874,555.356a13.944,13.944,0,0,1-2.083-1.546c-1.315-1.507-.691-3.84-1.229-5.76-.691-2.5-3.264-4.09-4.118-6.538-1.162-3.331,1.114-7.44-.854-10.358-.576-.864-1.45-1.479-2.083-2.3-2.438-3.187-.49-8.342-3.034-11.453-1.776-2.17-5.213-2.582-6.72-4.982-1.21-1.978-.586-4.5-.566-6.826a12.682,12.682,0,0,0-4.07-9.37,28.67,28.67,0,0,1-3.84-3.475c-1.536-2.141-1.8-5.309-4.08-6.643.96,2.371-.624,4.973-.566,7.526.067,3.053,2.467,5.645,2.784,8.688.2,1.978-.5,3.926-.864,5.885s-.3,4.214,1.094,5.635a25.341,25.341,0,0,1,2.026,1.709c1.622,2.045-.077,5.107.566,7.68s3.485,4.032,4.186,6.557c.653,2.371-.787,4.992,0,7.306.768,2.16,3.216,3.293,4.243,5.338,1.325,2.63,0,6.1,1.584,8.573.883,1.373,2.506,2.16,3.283,3.59.893,1.651.442,3.677.682,5.539s2,3.907,3.686,3.082l8.064-.346a3.907,3.907,0,0,0,3.514-3.014A4.493,4.493,0,0,0,119.874,555.356Z" transform="translate(-86.627 -486.101)" fill="#fff"/>
      </g>
      <path id="Path_414" data-name="Path 414" d="M117.292,555.61a5.137,5.137,0,0,1-1.978-2.054c-.355-1.027.768-2.736.278-4.55-.634-2.342-3.59-5.482-4.349-7.786-1.046-3.12.854-6.614-.835-9.36-.49-.806-1.6-3.072-2.141-3.84-2.074-2.986-.47-6.662-2.621-9.6-1.507-2.045-5.213-3.35-6.47-5.6-1.037-1.862-.6-4.234-.662-6.413a13.286,13.286,0,0,0-3.571-8.8,22.16,22.16,0,0,1-3.178-3.255c-1.315-2.006-1.622-4.982-3.5-6.23.835,2.227-.355,4.685-.23,7.075.154,2.88,2.17,5.3,2.515,8.16a22.358,22.358,0,0,1-.509,5.53c-.23,1.834-.134,3.965,1.066,5.309a21.18,21.18,0,0,1,1.632,1.584c1.373,1.92.1,4.8.691,7.171s2.947,3.782,3.581,6.144.173,5.952.9,8.131c.682,2.026,3.014,2.294,3.907,4.214,1.152,2.467.374,6.653,1.728,8.976.749,1.286,2.074,1.094,2.746,2.438.778,1.555,1.181,5.261,1.43,7.008a4.685,4.685,0,0,0,2.65,3.84l8.986-.422C121.64,560.026,119.8,557.04,117.292,555.61Z" transform="translate(-87.021 -434.111)" fill="#ff6262"/>
      <path id="Path_415" data-name="Path 415" d="M94.2,504.39a1.164,1.164,0,0,1,.1.154c.077.115.163.269.269.451a17.713,17.713,0,0,1,.9,1.8,9.9,9.9,0,0,1,.883,3.082,16.321,16.321,0,0,1-.432,4.2,6.461,6.461,0,0,0,0,2.39,6.98,6.98,0,0,0,.96,2.39c.96,1.546,2.371,2.928,3.61,4.608a8.784,8.784,0,0,1,1.469,2.88,6.038,6.038,0,0,1,.2,1.67,15.912,15.912,0,0,0-.058,1.642,5.28,5.28,0,0,0,1.546,2.88c.374.442.768.883,1.123,1.373a7.173,7.173,0,0,1,.845,1.613,14.487,14.487,0,0,1,.672,3.5,28.8,28.8,0,0,0,.451,3.37,8.284,8.284,0,0,0,1.325,2.947,14.784,14.784,0,0,1,1.651,2.746,9.83,9.83,0,0,1,.509,3.015,11.194,11.194,0,0,0,.384,2.774c.557,1.709,1.834,2.957,2.573,4.358a13.631,13.631,0,0,1,1.19,4.07,14.1,14.1,0,0,0,.8,3.053,4.377,4.377,0,0,0,1.123,1.613c.355.3.566.422.547.432a3.436,3.436,0,0,1-.6-.375,4.33,4.33,0,0,1-1.21-1.613,14.745,14.745,0,0,1-.864-3.072,13.632,13.632,0,0,0-1.162-4c-.72-1.354-2.016-2.582-2.63-4.4s-.192-3.84-.96-5.76a14.811,14.811,0,0,0-1.622-2.669,8.5,8.5,0,0,1-1.382-3.053c-.528-2.227-.326-4.627-1.123-6.835a6.788,6.788,0,0,0-.8-1.526c-.336-.47-.72-.9-1.094-1.344a5.6,5.6,0,0,1-1.632-3.082,16.105,16.105,0,0,1,.058-1.69,5.759,5.759,0,0,0-.144-1.517,8.525,8.525,0,0,0-1.411-2.755c-1.2-1.651-2.611-3.053-3.59-4.637a7.45,7.45,0,0,1-1.018-2.5,6.72,6.72,0,0,1,0-2.486,16.053,16.053,0,0,0,.49-4.147,10.263,10.263,0,0,0-.806-3.043c-.336-.8-.643-1.4-.845-1.814l-.23-.47A1.419,1.419,0,0,1,94.2,504.39Z" transform="translate(-88.766 -438.706)" fill="#263238"/>
      <path id="Path_416" data-name="Path 416" d="M101.146,583.541l3.494,7.1h42.576l4.81-7.1Z" transform="translate(-90.728 -461.063)" fill="#455a64"/>
      <path id="Path_417" data-name="Path 417" d="M107.434,590.029l6.374,22,28.685.019,5.77-21.984Z" transform="translate(-92.504 -462.896)" fill="#455a64"/>
      <path id="Path_418" data-name="Path 418" d="M148.391,593.289c0,.106-9.5.182-21.226.182s-21.216-.077-21.216-.182,9.5-.182,21.216-.182S148.391,593.193,148.391,593.289Z" transform="translate(-92.085 -463.765)" fill="#263238"/>
    </g>
    <g id="freepik--post-1--inject-137" transform="translate(125.599 63.443)">
      <rect id="Rectangle_31" data-name="Rectangle 31" width="234.367" height="124.907" transform="translate(0.23 0.365)" fill="#fafafa"/>
      <path id="Path_419" data-name="Path 419" d="M390.513,188.715c0-1.507-.077-48.077-.192-124.907l.192.192-234.357.058h0l.25-.25V188.715l-.24-.23,168.52.115,48.461.058h.077l-48.4.067-168.683.115h-.23V63.443h.269l234.357.058h.192v.192C390.6,140.638,390.513,187.208,390.513,188.715Z" transform="translate(-155.906 -63.443)" fill="#263238"/>
      <path id="Path_420" data-name="Path 420" d="M306.756,92.284c0,.144-16.637.25-37.152.25s-37.143-.106-37.143-.25,16.627-.25,37.143-.25S306.756,92.15,306.756,92.284Z" transform="translate(-177.529 -71.519)" fill="#263238"/>
      <path id="Path_421" data-name="Path 421" d="M292.368,103.9c0,.134-12.7.25-28.368.25s-28.368-.115-28.368-.25,12.7-.25,28.368-.25S292.368,103.753,292.368,103.9Z" transform="translate(-178.425 -74.799)" fill="#e0e0e0"/>
      <path id="Path_422" data-name="Path 422" d="M350.041,179.5c0-.96-.845-1.565-2.112-1.565a3.341,3.341,0,0,0-2.88,1.45L342.678,178a6.24,6.24,0,0,1,5.549-2.63c2.947,0,4.982,1.315,4.982,3.629,0,3.139-3.293,3.494-3.293,5.568H346.95C346.978,181.817,350.041,181.213,350.041,179.5Zm-3.446,8.2a1.92,1.92,0,1,1,1.882,1.538A1.92,1.92,0,0,1,346.594,187.7Z" transform="translate(-208.66 -95.052)" fill="#263238"/>
      <path id="Path_423" data-name="Path 423" d="M203.345,148.274c0,.96.845,1.574,2.112,1.574a3.341,3.341,0,0,0,2.88-1.459l2.371,1.392a6.259,6.259,0,0,1-5.549,2.63c-2.947,0-4.982-1.315-4.982-3.629,0-3.139,3.293-3.494,3.293-5.568h2.957C206.4,145.96,203.345,146.565,203.345,148.274Zm3.446-8.2a1.92,1.92,0,1,1-1.882-1.538,1.92,1.92,0,0,1,1.882,1.538Z" transform="translate(-168.411 -84.654)" fill="#263238"/>
      <path id="Path_424" data-name="Path 424" d="M381.345,150.9c0,.134-35.866.25-80.1.25s-80.113-.115-80.113-.25,35.856-.25,80.113-.25S381.345,150.754,381.345,150.9Z" transform="translate(-174.329 -88.075)" fill="#263238"/>
      <path id="Path_425" data-name="Path 425" d="M375.257,167.421c0,.144-39.36.25-87.831.25s-87.85-.106-87.85-.25,39.36-.25,87.85-.25S375.257,167.286,375.257,167.421Z" transform="translate(-168.241 -92.742)" fill="#263238"/>
      <path id="Path_426" data-name="Path 426" d="M296.1,187.864c0,.134-21.831.25-48.74.25s-48.74-.115-48.74-.25,21.811-.25,48.74-.25S296.1,187.73,296.1,187.864Z" transform="translate(-167.972 -98.516)" fill="#263238"/>
      <path id="Path_427" data-name="Path 427" d="M208.718,216.943v1.037H204.59v-.826l2.131-2.016c.49-.461.576-.749.576-1.018,0-.432-.3-.691-.883-.691a1.344,1.344,0,0,0-1.142.557l-.96-.6a2.554,2.554,0,0,1,2.189-1.027c1.238,0,2.054.624,2.054,1.632a2.2,2.2,0,0,1-.96,1.747l-1.267,1.2Z" transform="translate(-169.578 -105.506)" fill="#ff6262"/>
      <path id="Path_428" data-name="Path 428" d="M220.627,216.835h-2.573l-.49,1.181h-1.306l2.458-5.53h1.267l2.467,5.53h-1.334Zm-.4-.96-.883-2.122-.874,2.122Z" transform="translate(-172.953 -105.541)" fill="#ff6262"/>
      <path id="Path_429" data-name="Path 429" d="M229.923,216.066v2.429h-1.229v-2.237c0-.691-.317-1.008-.864-1.008a1.01,1.01,0,0,0-1.018,1.142v2.1h-1.229v-4.243h1.171v.5a1.92,1.92,0,0,1,1.411-.566,1.67,1.67,0,0,1,1.757,1.882Z" transform="translate(-175.587 -106.02)" fill="#ff6262"/>
      <path id="Path_430" data-name="Path 430" d="M232.622,218.1l.413-.883a2.88,2.88,0,0,0,1.469.413c.566,0,.787-.154.787-.394,0-.691-2.573,0-2.573-1.68,0-.806.73-1.373,1.968-1.373a3.417,3.417,0,0,1,1.632.374l-.4.874a2.439,2.439,0,0,0-1.229-.317c-.547,0-.787.173-.787.394,0,.73,2.563,0,2.563,1.7,0,.787-.73,1.354-2.006,1.354A3.657,3.657,0,0,1,232.622,218.1Z" transform="translate(-177.575 -106.021)" fill="#ff6262"/>
      <path id="Path_431" data-name="Path 431" d="M245.53,214.279l-1.536,4.243H242.8l-.96-2.64-.96,2.64h-1.19l-1.546-4.243h1.162l.96,2.88,1.046-2.88h1.037l1.018,2.88,1.027-2.88Z" transform="translate(-179.135 -106.048)" fill="#ff6262"/>
      <path id="Path_432" data-name="Path 432" d="M253.091,216.719h-3.216a1.142,1.142,0,0,0,1.219.854,1.421,1.421,0,0,0,1.066-.413l.653.71a2.477,2.477,0,0,1-4.176-1.5,2.17,2.17,0,0,1,2.266-2.189,2.112,2.112,0,0,1,2.218,2.208C253.119,216.479,253.1,216.613,253.091,216.719Zm-3.226-.72h2.093a1.066,1.066,0,0,0-2.093,0Z" transform="translate(-182.098 -106.02)" fill="#ff6262"/>
      <path id="Path_433" data-name="Path 433" d="M258.661,214.184v1.142h-.278a1.046,1.046,0,0,0-1.123,1.181v2.006h-1.238V214.27H257.2v.557a1.709,1.709,0,0,1,1.459-.643Z" transform="translate(-184.184 -106.019)" fill="#ff6262"/>
      <circle id="Ellipse_16" data-name="Ellipse 16" cx="15.322" cy="15.322" r="15.322" transform="translate(9.364 24.219) rotate(-45)" fill="#263238"/>
      <path id="Path_434" data-name="Path 434" d="M202.459,92.627A5.462,5.462,0,1,1,197,87.164,5.462,5.462,0,0,1,202.459,92.627Z" transform="translate(-165.969 -70.144)" fill="#fafafa"/>
      <path id="Path_435" data-name="Path 435" d="M187.6,110.75s2.746-5.443,8.314-5.443,8.64,5.174,8.64,5.174a12.413,12.413,0,0,1-8.64,3.149C190.375,113.582,187.6,110.75,187.6,110.75Z" transform="translate(-164.858 -75.268)" fill="#fafafa"/>
    </g>
    <g id="freepik--Floor--inject-137" transform="translate(48.606 462.739)">
      <path id="Path_436" data-name="Path 436" d="M460.776,620.168c0,.144-92.276.25-206.075.25s-206.094-.106-206.094-.25,92.257-.25,206.094-.25S460.776,620.033,460.776,620.168Z" transform="translate(-48.606 -619.918)" fill="#263238"/>
    </g>
    <g id="freepik--Character--inject-137" transform="translate(175.404 118.062)">
      <path id="Path_437" data-name="Path 437" d="M383.189,267.518s-4.032,21.456-3.485,22.819,6.663,7.277,8.851,6.72a6.452,6.452,0,0,0,1.584-1.277l8.419-2.88-4.186-36.384-6.72,13.834Z" transform="translate(-268.91 -172.596)" fill="#455a64"/>
      <path id="Path_438" data-name="Path 438" d="M393.29,301.2c-.086,0,.374-1.411.586-3.744a46.339,46.339,0,0,0-.144-9.13,53.976,53.976,0,0,0-1.718-8.976c-.634-2.256-1.277-3.571-1.2-3.61a3.969,3.969,0,0,1,.509.893,21.788,21.788,0,0,1,1.027,2.611,45.254,45.254,0,0,1,1.92,9.024,39.14,39.14,0,0,1,0,9.226,16.544,16.544,0,0,1-.566,2.746A4.3,4.3,0,0,1,393.29,301.2Z" transform="translate(-272.06 -178.027)" fill="#263238"/>
      <path id="Path_439" data-name="Path 439" d="M433.213,173.389a32.738,32.738,0,0,0,4.07-6.115,11.021,11.021,0,0,0,.96-7.171c-.336-1.392-1.046-2.7-1.258-4.118-.278-1.92.394-4.08-.451-5.875-1.325-2.8-5.251-2.966-7.766-4.8-1.92-1.411-3.053-3.84-5.184-5.03a9.324,9.324,0,0,0-6.182-.374c-2.054.442-4.128,1.114-6.23.96a41.045,41.045,0,0,1-4.435-.845,6.01,6.01,0,0,0-4.368.614c-1.238.845-1.824,2.736-.874,3.907-2.506-.96-5.434,1.162-5.894,3.773s1.075,5.3,3.254,6.845a15.994,15.994,0,0,0,7.555,2.448c7.517.854,15.495-.509,21.571-4.963" transform="translate(-273.391 -139.562)" fill="#ff6262"/>
      <path id="Path_440" data-name="Path 440" d="M434.95,165.931l-1.92,37.44a11.126,11.126,0,0,1-12.307,10.483h0c-5.952-.614-10.56-1.517-10.243-7.469.144-2.813.422-9.437.413-9.725,0,0-9.533-1.421-9.754-10.9-.106-4.579.461-14.035,1.056-22.57a17.607,17.607,0,0,1,17.52-16.32h.96C430.573,147.413,435.709,156.082,434.95,165.931Z" transform="translate(-274.975 -141.628)" fill="#ffd5bd"/>
      <path id="Path_441" data-name="Path 441" d="M414.75,214.7a22.2,22.2,0,0,0,12.384-3.581s-2.88,6.835-12.375,6.038Z" transform="translate(-278.823 -159.774)" fill="#ffb294"/>
      <path id="Path_442" data-name="Path 442" d="M405.733,180.533a1.354,1.354,0,0,0,1.325,1.354,1.277,1.277,0,0,0,1.382-1.229,1.363,1.363,0,0,0-1.315-1.354,1.286,1.286,0,0,0-1.392,1.229Z" transform="translate(-276.276 -150.786)" fill="#263238"/>
      <path id="Path_443" data-name="Path 443" d="M405.565,175.555c.173.173,1.2-.586,2.659-.6s2.544.72,2.7.538-.1-.394-.566-.73a3.725,3.725,0,0,0-2.16-.653,3.619,3.619,0,0,0-2.112.691C405.632,175.161,405.488,175.478,405.565,175.555Z" transform="translate(-276.223 -149.321)" fill="#263238"/>
      <path id="Path_444" data-name="Path 444" d="M425,181.537a1.373,1.373,0,0,0,1.334,1.354,1.286,1.286,0,0,0,1.382-1.229,1.354,1.354,0,0,0-1.325-1.354A1.286,1.286,0,0,0,425,181.536Z" transform="translate(-281.718 -151.069)" fill="#263238"/>
      <path id="Path_445" data-name="Path 445" d="M425.613,175.822c.173.173,1.19-.586,2.65-.6s2.544.72,2.707.538-.1-.394-.576-.73a3.725,3.725,0,0,0-2.16-.653,3.648,3.648,0,0,0-2.112.691C425.68,175.429,425.488,175.746,425.613,175.822Z" transform="translate(-281.881 -149.397)" fill="#263238"/>
      <path id="Path_446" data-name="Path 446" d="M416.913,186.689a10.253,10.253,0,0,0-2.381-.413c-.374,0-.73-.106-.787-.355a1.853,1.853,0,0,1,.23-1.1c.346-.9.7-1.853,1.075-2.88,1.5-4.042,2.573-7.363,2.41-7.421s-1.507,3.168-3,7.21c-.355.96-.7,1.92-1.027,2.88a2.122,2.122,0,0,0-.173,1.459.96.96,0,0,0,.614.547,2.7,2.7,0,0,0,.634.077A9.043,9.043,0,0,0,416.913,186.689Z" transform="translate(-278.384 -149.435)" fill="#263238"/>
      <path id="Path_447" data-name="Path 447" d="M422.575,192.859c-.24,0-.23,1.565-1.574,2.7s-3.043.96-3.053,1.19.384.3,1.094.317a3.974,3.974,0,0,0,2.554-.9,3.418,3.418,0,0,0,1.21-2.266C422.863,193.243,422.681,192.849,422.575,192.859Z" transform="translate(-279.726 -154.616)" fill="#263238"/>
      <path id="Path_448" data-name="Path 448" d="M425.01,167.989c.154.394,1.613.192,3.331.394s3.11.653,3.331.3c.106-.173-.144-.538-.71-.96a5.472,5.472,0,0,0-2.477-.845,5.549,5.549,0,0,0-2.592.317C425.259,167.49,424.952,167.8,425.01,167.989Z" transform="translate(-281.719 -147.266)" fill="#ff6262"/>
      <path id="Path_449" data-name="Path 449" d="M406.253,169.666c.259.326,1.267,0,2.477,0s2.237.211,2.477-.134c.1-.173-.067-.5-.518-.806a3.581,3.581,0,0,0-3.994.144C406.272,169.157,406.137,169.5,406.253,169.666Z" transform="translate(-276.412 -147.647)" fill="#ff6262"/>
      <path id="Path_450" data-name="Path 450" d="M447.179,183.1c.163-.067,6.518-1.92,6.384,4.522s-6.653,4.973-6.662,4.8S447.179,183.1,447.179,183.1Z" transform="translate(-287.904 -151.774)" fill="#ffd5bd"/>
      <path id="Path_451" data-name="Path 451" d="M449.748,190.83a1.893,1.893,0,0,0,.3.173,1.133,1.133,0,0,0,.854.048,2.794,2.794,0,0,0,1.354-2.477,3.706,3.706,0,0,0-.288-1.622,1.306,1.306,0,0,0-.835-.893.576.576,0,0,0-.672.3c-.1.173-.058.307-.086.317s-.144-.115-.086-.384a.768.768,0,0,1,.269-.384.874.874,0,0,1,.634-.154,1.6,1.6,0,0,1,1.162,1.037,3.839,3.839,0,0,1,.355,1.814,2.937,2.937,0,0,1-1.718,2.765,1.258,1.258,0,0,1-1.037-.2C449.758,190.993,449.729,190.839,449.748,190.83Z" transform="translate(-288.707 -152.606)" fill="#ffb294"/>
      <path id="Path_452" data-name="Path 452" d="M402.375,153.785c.643,2.534,6.038,4.5,10.358,4.061,3.974-.4,5.76-2.515,8.582-4.118,1.766-1.018,1.766-1.018,4.282-.8,2.045.182,3.264,2.467,4.531,4.08-1.8,4.8-.5,10.2.806,15.187a2.572,2.572,0,0,0,.768,1.488,2.066,2.066,0,0,0,2.592-.586,7.987,7.987,0,0,0,1.718-4.234,26.545,26.545,0,0,0-.173-10.512,18.24,18.24,0,0,0-5.1-9.13,17.453,17.453,0,0,0-12.163-4.493,21.274,21.274,0,0,0-12.259,4.445,12.393,12.393,0,0,0-3.946,4.608" transform="translate(-275.327 -141.02)" fill="#ff6262"/>
      <path id="Path_453" data-name="Path 453" d="M411.316,178.95c-.058,0,.067-.547,0-1.507a6.221,6.221,0,0,0-1.622-3.667,6.077,6.077,0,0,0-5.434-1.92,5.935,5.935,0,0,0-2.083,10.973,6.067,6.067,0,0,0,5.76.278,6.163,6.163,0,0,0,2.88-2.794c.432-.874.509-1.421.566-1.411a1.16,1.16,0,0,1-.048.4A4.369,4.369,0,0,1,411,180.39a6.105,6.105,0,0,1-2.88,3.043,6.418,6.418,0,1,1,1.862-9.946,6.211,6.211,0,0,1,1.546,3.84,4.979,4.979,0,0,1-.086,1.142C411.373,178.826,411.335,178.95,411.316,178.95Z" transform="translate(-274.313 -148.531)" fill="#263238"/>
      <path id="Path_454" data-name="Path 454" d="M432.885,179.356c-.058,0,.067-.547,0-1.507a6.173,6.173,0,0,0-1.622-3.658,6.077,6.077,0,0,0-5.434-1.92,5.865,5.865,0,0,0-3.1,1.517,5.952,5.952,0,0,0,1.018,9.456,6.086,6.086,0,0,0,5.76.278,6.183,6.183,0,0,0,2.88-2.794c.432-.874.509-1.421.566-1.411a1.278,1.278,0,0,1,0,.4,4.8,4.8,0,0,1-.346,1.085,6.106,6.106,0,0,1-2.88,3.043,6.418,6.418,0,1,1,1.862-9.946,6.211,6.211,0,0,1,1.546,3.888,4.982,4.982,0,0,1-.086,1.142C432.943,179.231,432.9,179.365,432.885,179.356Z" transform="translate(-280.417 -148.649)" fill="#263238"/>
      <path id="Path_455" data-name="Path 455" d="M419.157,178.952c-.086.115-.816-.413-1.8-.307s-1.594.758-1.709.662,0-.269.3-.547a2.237,2.237,0,0,1,1.354-.624,2.208,2.208,0,0,1,1.459.346C419.08,178.732,419.2,178.952,419.157,178.952Z" transform="translate(-279.063 -150.453)" fill="#263238"/>
      <path id="Path_456" data-name="Path 456" d="M446.519,181.667a20.334,20.334,0,0,1-4.531-.672,21.411,21.411,0,0,1-4.426-1.181,20.334,20.334,0,0,1,4.531.672A21.176,21.176,0,0,1,446.519,181.667Z" transform="translate(-285.266 -150.931)" fill="#263238"/>
      <path id="Path_457" data-name="Path 457" d="M399.85,148.213a1.919,1.919,0,0,0,0,.614,3,3,0,0,0,.691,1.536,4.31,4.31,0,0,0,2.093,1.363,12.067,12.067,0,0,0,3.043.422,54.378,54.378,0,0,0,5.558,0l1.68-.134.451-.058h-.461l-1.68.086c-1.411.067-3.379.1-5.549,0a12.163,12.163,0,0,1-3-.4,4.233,4.233,0,0,1-2.045-1.3,3.043,3.043,0,0,1-.72-1.478A5.722,5.722,0,0,1,399.85,148.213Z" transform="translate(-274.607 -142.005)" fill="#fff"/>
      <path id="Path_458" data-name="Path 458" d="M397.53,149.845a5.979,5.979,0,0,0,.211,1.824,7.546,7.546,0,0,0,6.317,5.606,5.76,5.76,0,0,0,1.834,0h-.49a8.74,8.74,0,0,1-1.334-.106,7.68,7.68,0,0,1-6.221-5.53,7.474,7.474,0,0,1-.259-1.306C397.549,150,397.539,149.845,397.53,149.845Z" transform="translate(-273.958 -142.466)" fill="#fff"/>
      <path id="Path_459" data-name="Path 459" d="M439.349,564.513,450.216,582s-14.131,16.925-12.48,20.352L472.412,582.5,456.6,554.548Z" transform="translate(-285.278 -256.777)" fill="#ff6262"/>
      <path id="Path_460" data-name="Path 460" d="M468.472,582.146a1.642,1.642,0,0,1,1.92,1.056,1.574,1.574,0,0,1-1.037,1.92,1.728,1.728,0,0,1-2.006-1.133,1.622,1.622,0,0,1,1.286-1.853" transform="translate(-293.674 -264.56)" fill="#e0e0e0"/>
      <path id="Path_461" data-name="Path 461" d="M472.4,592.423l-1.7-2.755-32.64,20.064s-1.162,1.555-.365,2.544Z" transform="translate(-285.224 -266.696)" fill="#fff"/>
      <path id="Path_462" data-name="Path 462" d="M454.254,592.678c.1.173.96-.24,2.141-.173s1.987.528,2.112.374-.7-.96-2.083-1.046S454.13,592.543,454.254,592.678Z" transform="translate(-289.978 -267.306)" fill="#263238"/>
      <path id="Path_463" data-name="Path 463" d="M450.39,597.894c.048.182.96.057,1.92.442s1.584,1.046,1.747.96-.278-1.123-1.517-1.584S450.294,597.711,450.39,597.894Z" transform="translate(-288.888 -268.912)" fill="#263238"/>
      <path id="Path_464" data-name="Path 464" d="M449.816,604.849c.173-.058-.077-1.037-1.037-1.718s-1.968-.586-1.92-.4.778.394,1.565.96S449.644,604.926,449.816,604.849Z" transform="translate(-287.892 -270.347)" fill="#263238"/>
      <path id="Path_465" data-name="Path 465" d="M451.41,586.28c.154.106.8-.566,1.8-1.056s1.92-.6,1.92-.8-1.056-.394-2.227.192S451.247,586.193,451.41,586.28Z" transform="translate(-289.169 -265.161)" fill="#263238"/>
      <path id="Path_466" data-name="Path 466" d="M468.472,582.146a1.642,1.642,0,0,1,1.92,1.056,1.574,1.574,0,0,1-1.037,1.92,1.728,1.728,0,0,1-2.006-1.133,1.622,1.622,0,0,1,1.286-1.853" transform="translate(-293.674 -264.56)" fill="#e0e0e0"/>
      <path id="Path_467" data-name="Path 467" d="M472.4,592.423l-1.7-2.755-32.64,20.064s-1.162,1.555-.365,2.544Z" transform="translate(-285.224 -266.696)" fill="#fff"/>
      <path id="Path_468" data-name="Path 468" d="M454.254,592.678c.1.173.96-.24,2.141-.173s1.987.528,2.112.374-.7-.96-2.083-1.046S454.13,592.543,454.254,592.678Z" transform="translate(-289.978 -267.306)" fill="#263238"/>
      <path id="Path_469" data-name="Path 469" d="M450.39,597.894c.048.182.96.057,1.92.442s1.584,1.046,1.747.96-.278-1.123-1.517-1.584S450.294,597.711,450.39,597.894Z" transform="translate(-288.888 -268.912)" fill="#263238"/>
      <path id="Path_470" data-name="Path 470" d="M449.816,604.849c.173-.058-.077-1.037-1.037-1.718s-1.968-.586-1.92-.4.778.394,1.565.96S449.644,604.926,449.816,604.849Z" transform="translate(-287.892 -270.347)" fill="#263238"/>
      <path id="Path_471" data-name="Path 471" d="M451.41,586.28c.154.106.8-.566,1.8-1.056s1.92-.6,1.92-.8-1.056-.394-2.227.192S451.247,586.193,451.41,586.28Z" transform="translate(-289.169 -265.161)" fill="#263238"/>
      <path id="Path_472" data-name="Path 472" d="M430,575.984l1.171,20.563s-20.506,8.1-20.659,11.923l39.946-.845-.509-32.112Z" transform="translate(-277.625 -262.698)" fill="#ff6262"/>
      <path id="Path_473" data-name="Path 473" d="M455.721,602.057a1.632,1.632,0,0,1,1.171,1.834,1.565,1.565,0,0,1-1.814,1.171,1.718,1.718,0,0,1-1.229-1.92,1.632,1.632,0,0,1,2.026-1.008" transform="translate(-289.861 -270.196)" fill="#e0e0e0"/>
      <path id="Path_474" data-name="Path 474" d="M450.447,618.993l-.173-3.235-38.237,2.016s-1.766.816-1.536,2.064Z" transform="translate(-277.617 -274.066)" fill="#fff"/>
      <path id="Path_475" data-name="Path 475" d="M438.391,604.484c0,.2.96.269,1.92.874s1.507,1.421,1.68,1.334-.134-1.2-1.325-1.92S438.343,604.311,438.391,604.484Z" transform="translate(-285.5 -270.827)" fill="#263238"/>
      <path id="Path_476" data-name="Path 476" d="M432.6,607.07c0,.192.816.509,1.5,1.315s.883,1.68,1.085,1.67.288-1.123-.576-2.112S432.608,606.887,432.6,607.07Z" transform="translate(-283.864 -271.589)" fill="#263238"/>
      <path id="Path_477" data-name="Path 477" d="M428.826,612.852c.173,0,.422-.96-.1-2.006s-1.45-1.459-1.526-1.3.5.72.912,1.6S428.605,612.8,428.826,612.852Z" transform="translate(-282.339 -272.302)" fill="#263238"/>
      <path id="Path_478" data-name="Path 478" d="M438.749,597.751c.077.182.96-.106,2.074-.058s1.92.384,2.074.211-.749-.845-2.045-.893S438.644,597.559,438.749,597.751Z" transform="translate(-285.599 -268.77)" fill="#263238"/>
      <path id="Path_479" data-name="Path 479" d="M455.721,602.057a1.632,1.632,0,0,1,1.171,1.834,1.565,1.565,0,0,1-1.814,1.171,1.718,1.718,0,0,1-1.229-1.92,1.632,1.632,0,0,1,2.026-1.008" transform="translate(-289.861 -270.196)" fill="#e0e0e0"/>
      <path id="Path_480" data-name="Path 480" d="M450.447,618.993l-.173-3.235-38.237,2.016s-1.766.816-1.536,2.064Z" transform="translate(-277.617 -274.066)" fill="#fff"/>
      <path id="Path_481" data-name="Path 481" d="M438.391,604.484c0,.2.96.269,1.92.874s1.507,1.421,1.68,1.334-.134-1.2-1.325-1.92S438.343,604.311,438.391,604.484Z" transform="translate(-285.5 -270.827)" fill="#263238"/>
      <path id="Path_482" data-name="Path 482" d="M432.6,607.07c0,.192.816.509,1.5,1.315s.883,1.68,1.085,1.67.288-1.123-.576-2.112S432.608,606.887,432.6,607.07Z" transform="translate(-283.864 -271.589)" fill="#263238"/>
      <path id="Path_483" data-name="Path 483" d="M428.826,612.852c.173,0,.422-.96-.1-2.006s-1.45-1.459-1.526-1.3.5.72.912,1.6S428.605,612.8,428.826,612.852Z" transform="translate(-282.339 -272.302)" fill="#263238"/>
      <path id="Path_484" data-name="Path 484" d="M438.749,597.751c.077.182.96-.106,2.074-.058s1.92.384,2.074.211-.749-.845-2.045-.893S438.644,597.559,438.749,597.751Z" transform="translate(-285.599 -268.77)" fill="#263238"/>
      <path id="Path_485" data-name="Path 485" d="M444.147,388.735s2.477,11.29,1.382,12.941a52.814,52.814,0,0,0-3.034,6.883l1.661,50.928,4.944,74.881H425.312l-10.2-66.039a53.814,53.814,0,0,1-4.954-11.29c-1.382-5.222-9.5-57.264-9.5-57.264V379.711Z" transform="translate(-274.84 -207.393)" fill="#a492d0"/>
      <path id="Path_486" data-name="Path 486" d="M385.638,381.611s4.963,68.237,6.614,74.295,35.52,68,35.52,68l20.362-10.032-27.063-65.4v-63.1Z" transform="translate(-270.6 -207.93)" fill="#a492d0"/>
      <path id="Path_487" data-name="Path 487" d="M396.981,389.8a2.828,2.828,0,0,0,0,.384c0,.278.1.653.154,1.133.154,1.018.374,2.467.662,4.33.586,3.782,1.44,9.206,2.486,15.907s2.352,14.717,3.763,23.587c.72,4.445,1.44,9.1,2.266,13.93a84.215,84.215,0,0,0,3.706,14.707c1.8,4.886,4.349,9.341,5.213,14.16,1.027,4.8,1.738,9.437,2.438,13.872,1.344,8.89,2.429,16.915,3.35,23.645s1.661,12.192,2.227,15.955c.288,1.92.509,3.341.691,4.32.1.48.163.845.211,1.123a1.758,1.758,0,0,0,.086.374,1.683,1.683,0,0,0,0-.384,8.73,8.73,0,0,0-.163-1.123c-.134-1.018-.336-2.477-.6-4.339-.49-3.84-1.2-9.245-2.074-15.965s-1.92-14.775-3.245-23.674c-.691-4.445-1.392-9.11-2.419-13.91-.874-4.9-3.446-9.389-5.222-14.227a84.965,84.965,0,0,1-3.667-14.621c-.835-4.8-1.565-9.475-2.294-13.911-1.459-8.87-2.765-16.858-3.84-23.578s-2.016-12.106-2.65-15.878l-.739-4.32c-.086-.47-.154-.845-.211-1.123A2,2,0,0,0,396.981,389.8Z" transform="translate(-273.802 -210.242)" fill="#455a64"/>
      <path id="Path_488" data-name="Path 488" d="M464.455,539.176a10.565,10.565,0,0,0,0,1.584c0,1.008.1,2.477.2,4.281.2,3.619.566,8.64.96,14.131s.787,10.5,1.018,14.112c.115,1.747.211,3.187.278,4.282a10.934,10.934,0,0,0,.163,1.565,8.319,8.319,0,0,0,0-1.574c0-1.008-.048-2.477-.125-4.291-.144-3.619-.451-8.64-.864-14.131s-.835-10.426-1.123-14.112c-.154-1.747-.278-3.187-.365-4.282a8.953,8.953,0,0,0-.144-1.565Z" transform="translate(-292.854 -252.435)" fill="#455a64"/>
      <path id="Path_489" data-name="Path 489" d="M404.033,226.6l-2.822,1.92s-11.184,24.97-13.1,33.111-9.907,93.121-9.907,93.121l6.634.528V341.955Z" transform="translate(-268.499 -164.146)" fill="#5538a4"/>
      <path id="Path_490" data-name="Path 490" d="M405.19,226.631s-9.082,19.152-11.28,29.808c-1.7,8.218-10.935,84-10.935,84l26.64-1.286L425.542,245.6l3.427-24.432s-15.715,9.6-19.325,9.014A5.4,5.4,0,0,1,405.19,226.631Z" transform="translate(-269.848 -162.612)" fill="#ff6262"/>
      <path id="Path_491" data-name="Path 491" d="M454.374,232.868l-16.963-13.286-.643-4.032-20.861,12.624-10.08,122.564h43.354l-4.982-50.17,9.2-53.876Z" transform="translate(-276.302 -161.025)" fill="#5538a4"/>
      <path id="Path_492" data-name="Path 492" d="M419.955,229.56a5.944,5.944,0,0,0,.307,1.171l1.008,3.13q.163.509.346,1.037a2.16,2.16,0,0,0,.6,1.133,1.21,1.21,0,0,0,1.411-.23c.346-.278.691-.557,1.056-.835l4.675-3.734c3.3-2.659,6.25-5.126,8.333-6.97,1.046-.96,1.872-1.68,2.438-2.218a5.673,5.673,0,0,0,.845-.874,5.393,5.393,0,0,0-.96.73l-2.534,2.093c-2.141,1.776-5.117,4.2-8.419,6.854l-4.656,3.763c-.7.5-1.421,1.4-1.92,1.085-.24-.154-.346-.566-.48-.96l-.374-1.027-1.152-3.082a5.239,5.239,0,0,0-.528-1.066Z" transform="translate(-280.293 -162.612)" fill="#263238"/>
      <path id="Path_493" data-name="Path 493" d="M392.84,257.426a.894.894,0,0,1-.058.269l-.192.778c-.173.672-.49,1.651-.8,2.947s-.662,2.88-1.018,4.723-.787,3.955-1.142,6.3c-1.594,9.37-3.3,22.378-4.915,36.778s-2.928,27.456-3.84,36.912c-.48,4.694-.864,8.515-1.133,11.194-.144,1.286-.25,2.3-.326,3.034-.048.326-.077.586-.106.8a.961.961,0,0,1-.048.269,1.027,1.027,0,0,1,0-.278l.048-.787c.058-.739.134-1.757.24-3.053.23-2.688.566-6.509.96-11.213.864-9.456,2.093-22.522,3.725-36.931s3.389-27.418,5.069-36.778c.384-2.342.854-4.445,1.219-6.3s.806-3.418,1.1-4.714.682-2.266.883-2.938c.1-.307.182-.557.24-.749A1.684,1.684,0,0,1,392.84,257.426Z" transform="translate(-268.798 -172.853)" fill="#263238"/>
      <rect id="Rectangle_32" data-name="Rectangle 32" width="255.661" height="105.083" transform="matrix(0.997, -0.077, 0.077, 0.997, 0.237, 102.919)" fill="#fafafa"/>
      <path id="Path_494" data-name="Path 494" d="M488.551,360.247c-.106-1.363-3.168-40.061-8.275-104.756l.192.163L225.585,275.43h0l.23-.269c2.88,36.7,5.568,72.125,8.093,104.775l-.259-.221L416.492,365.69l72.077-5.443s-.4.048-1.219.115l-3.638.288L469.6,361.773l-52.925,4.157L233.669,380.186h-.24v-.23c-2.525-32.64-5.27-68.074-8.112-104.775v-.25h.25L480.458,255.3h.173v.173C485.517,320.176,488.445,358.884,488.551,360.247Z" transform="translate(-225.317 -172.252)" fill="#263238"/>
      <circle id="Ellipse_17" data-name="Ellipse 17" cx="15.034" cy="15.034" r="15.034" transform="translate(20.133 146.772) rotate(-89.51)" fill="#ebebeb"/>
      <path id="Path_495" data-name="Path 495" d="M391.974,304.209c0,.134-18.067,1.651-40.378,3.37s-40.416,3.014-40.426,2.88,18.067-1.642,40.387-3.37S391.964,304.075,391.974,304.209Z" transform="translate(-249.566 -186.064)" fill="#ff6262"/>
      <path id="Path_496" data-name="Path 496" d="M372.856,321.975c0,.134-13.786,1.315-30.826,2.63s-30.864,2.275-30.874,2.131,13.8-1.315,30.835-2.63S372.847,321.831,372.856,321.975Z" transform="translate(-249.562 -191.081)" fill="#e0e0e0"/>
      <path id="Path_497" data-name="Path 497" d="M469.7,343.09c0,.134-42.759,3.552-95.511,7.632s-95.55,7.267-95.559,7.133,42.749-3.552,95.521-7.632S469.693,342.946,469.7,343.09Z" transform="translate(-240.376 -197.048)" fill="#263238"/>
      <path id="Path_498" data-name="Path 498" d="M471.094,361.072c0,.134-42.759,3.552-95.511,7.632s-95.55,7.267-95.559,7.133,42.749-3.552,95.521-7.632S471.084,360.928,471.094,361.072Z" transform="translate(-240.769 -202.127)" fill="#263238"/>
      <path id="Path_499" data-name="Path 499" d="M440.983,245.9a13.219,13.219,0,0,1,19.478-10.022c4.051,2.16,7.815,6.019,10.176,12.115,6.106,15.8,18.394,40.244,16.07,45.466s-14.563,9.6-14.563,9.6l-11.386-19.392-3.773.586-17.338-29.587S440.379,251.091,440.983,245.9Z" transform="translate(-285.856 -166.306)" fill="#5538a4"/>
      <path id="Path_500" data-name="Path 500" d="M475.057,293.831a2.688,2.688,0,0,0-1.632-.278,5.136,5.136,0,0,0-4.9,5.51,2.756,2.756,0,0,0,.461,1.594c.086,0-.134-.624-.115-1.6a5.462,5.462,0,0,1,1.306-3.446,5.356,5.356,0,0,1,3.274-1.7C474.442,293.773,475.057,293.917,475.057,293.831Z" transform="translate(-294.009 -183.049)" fill="#263238"/>
      <path id="Path_501" data-name="Path 501" d="M443.113,246.747c.1,0,.307-1.526,1.267-3.84a16.962,16.962,0,0,1,2.189-3.715,12.661,12.661,0,0,1,3.965-3.4,11.52,11.52,0,0,1,5.069-1.2,12.863,12.863,0,0,1,4.253.566,12.481,12.481,0,0,1,3.533,1.824.985.985,0,0,0-.182-.211,4.128,4.128,0,0,0-.6-.547,8.813,8.813,0,0,0-2.63-1.392,12.6,12.6,0,0,0-4.378-.7,11.789,11.789,0,0,0-5.29,1.219,12.768,12.768,0,0,0-4.1,3.562,15.79,15.79,0,0,0-2.141,3.84,16.03,16.03,0,0,0-.826,2.88A3.689,3.689,0,0,0,443.113,246.747Z" transform="translate(-286.833 -166.273)" fill="#263238"/>
      <path id="Path_502" data-name="Path 502" d="M454,303.116l-36.586.25-1.7,11.693s28.464,6.72,48.183,5.021Z" transform="translate(-279.095 -185.758)" fill="#ffd5bd"/>
      <path id="Path_503" data-name="Path 503" d="M397.041,286.419s6.979.614,8.006.816,5.222,3.494,5.222,3.494l1.978,9.418-3.187,10.2a21.992,21.992,0,0,1-6.269-2.035c-2.88-1.536-7.181-8.1-7.181-8.1s-2.765.106-2.976-.307-.96-2.352,0-2.88c0,0-.72-2.669.307-3.379l1.334-.211s-1.229-3.379,1.133-3.379C395.409,290.009,394.276,286.831,397.041,286.419Z" transform="translate(-272.441 -181.042)" fill="#ffd5bd"/>
      <path id="Path_504" data-name="Path 504" d="M396.916,290.908c0,.144,1.92,0,4.31.192s4.262.547,4.291.4a11.338,11.338,0,0,0-4.262-.893,11.175,11.175,0,0,0-4.339.3Z" transform="translate(-273.786 -182.201)" fill="#ffb294"/>
      <path id="Path_505" data-name="Path 505" d="M394.4,296c0,.077.422.058,1.094.086l2.611.154a14.4,14.4,0,0,0,3.734-.086,14.5,14.5,0,0,0-3.706-.413,21.967,21.967,0,0,0-2.65,0C394.794,295.8,394.391,295.943,394.4,296Z" transform="translate(-273.075 -183.664)" fill="#ffb294"/>
      <path id="Path_506" data-name="Path 506" d="M399.305,300.038a6.3,6.3,0,0,0-6.269.662c.067.134,1.363-.509,3.1-.682S399.267,300.182,399.305,300.038Z" transform="translate(-272.69 -184.735)" fill="#ffb294"/>
      <path id="Path_507" data-name="Path 507" d="M351.242,269.005a13.334,13.334,0,0,0-2.371-2.717,2.544,2.544,0,0,0-2.573-.067l-.547.442s-2.678-1.334-4.022-.442c0,0-2.544-1.334-3.84,0,0,0-1.92-1.373-2.88-.278a4.627,4.627,0,0,0-.509,4.022c.365.96.96,4.406,1.594,4.483,0,0,1.584.24,1.834-.614s.355-1.267.355-1.267.48,3.072,1.21,3.254,2.131.154,2.237-1.181c0,0,.634,1.037,1.315.768s1.517-.72,1.478-1.546,0-1.661,0-1.661.317,1.219.96.96,1.21-.154,1.594-1.162,1.325-3,1.325-3Z" transform="translate(-256.086 -175.139)" fill="#ffd5bd"/>
      <path id="Path_508" data-name="Path 508" d="M348.426,272.561s-.106-.336-.221-.874a4.7,4.7,0,0,1,0-2.112,4.877,4.877,0,0,1,.912-1.92c.336-.442.6-.662.586-.691s-.336.144-.73.566a4.358,4.358,0,0,0-1.027,1.92,4.281,4.281,0,0,0,.077,2.218A2.017,2.017,0,0,0,348.426,272.561Z" transform="translate(-259.923 -175.546)" fill="#ffb294"/>
      <path id="Path_509" data-name="Path 509" d="M344.153,266.511a4.339,4.339,0,0,0-.394,1.19,11.847,11.847,0,0,0-.307,3,12.2,12.2,0,0,0,.461,2.986,4.638,4.638,0,0,0,.461,1.162,21.931,21.931,0,0,1-.653-4.157A21.592,21.592,0,0,1,344.153,266.511Z" transform="translate(-258.683 -175.419)" fill="#ffb294"/>
      <path id="Path_510" data-name="Path 510" d="M339.133,266.578a9.773,9.773,0,0,0-.173,3.226,10.138,10.138,0,0,0,.643,3.158c.077,0-.25-1.421-.374-3.178S339.21,266.587,339.133,266.578Z" transform="translate(-257.398 -175.438)" fill="#ffb294"/>
      <path id="Path_511" data-name="Path 511" d="M257.462,295.915a24.78,24.78,0,0,1-3.264-4.483,8.285,8.285,0,0,1-.96-5.366c.2-1.056.691-2.064.787-3.139.144-1.488-.432-3.062.134-4.435.893-2.16,3.84-2.41,5.654-3.84,1.421-1.133,2.15-3.014,3.7-3.955a6.72,6.72,0,0,1,4.627-.48,17.454,17.454,0,0,0,4.7.547,33,33,0,0,0,3.3-.787,4.493,4.493,0,0,1,3.283.326,2.15,2.15,0,0,1,.806,2.88c1.843-.787,4.109.7,4.55,2.659a5.453,5.453,0,0,1-2.2,5.261,12.02,12.02,0,0,1-5.568,2.083c-5.606.883-11.635.115-16.32-3.043" transform="translate(-233.174 -176.349)" fill="#ff6262"/>
      <path id="Path_512" data-name="Path 512" d="M284.513,304.241c-.086-3.456-.845-10.56-1.6-16.963A13.306,13.306,0,0,0,269.191,275.6H268.5c-7.411.71-10.944,7.4-10.032,14.794l2.477,25.191c.71,7.68,5.5,8.333,9.926,8.064a7.372,7.372,0,0,0,6.95-8.4c-.211-2.122-.221-2.256-.23-2.477C277.591,312.757,284.686,311.384,284.513,304.241Z" transform="translate(-234.64 -177.985)" fill="#ffd5bd"/>
      <path id="Path_513" data-name="Path 513" d="M281.484,326.345a16.666,16.666,0,0,1-9.408-2.3s2.39,5.059,9.494,4.147Z" transform="translate(-238.524 -191.669)" fill="#ffb294"/>
      <path id="Path_514" data-name="Path 514" d="M288.182,299.621a1.018,1.018,0,0,1-.96,1.066.96.96,0,0,1-1.085-.883,1.027,1.027,0,0,1,.96-1.066.96.96,0,0,1,1.085.883Z" transform="translate(-242.495 -184.519)" fill="#263238"/>
      <path id="Path_515" data-name="Path 515" d="M289.04,296.45c-.125.144-.96-.4-2.016-.355s-1.92.624-2.006.49.058-.3.4-.566a2.755,2.755,0,0,1,1.594-.557,2.6,2.6,0,0,1,1.613.451C288.973,296.153,289.1,296.393,289.04,296.45Z" transform="translate(-242.172 -183.595)" fill="#263238"/>
      <path id="Path_516" data-name="Path 516" d="M273.706,300.584a1.027,1.027,0,0,1-.96,1.066.96.96,0,0,1-1.085-.883,1.018,1.018,0,0,1,.96-1.066.96.96,0,0,1,1.085.883Z" transform="translate(-238.406 -184.791)" fill="#263238"/>
      <path id="Path_517" data-name="Path 517" d="M274.021,297.3c-.125.134-.912-.4-2.016-.365s-1.92.624-2,.5.058-.307.394-.576a2.784,2.784,0,0,1,1.6-.557,2.726,2.726,0,0,1,1.6.451C273.953,297.006,274.078,297.236,274.021,297.3Z" transform="translate(-237.934 -183.834)" fill="#263238"/>
      <path id="Path_518" data-name="Path 518" d="M281.256,305.239a6.665,6.665,0,0,1,1.766-.394c.278,0,.538-.106.586-.3a1.45,1.45,0,0,0-.221-.816l-.912-2.1a36.759,36.759,0,0,1-2.064-5.51,37.355,37.355,0,0,1,2.506,5.328l.874,2.112a1.6,1.6,0,0,1,.182,1.094.7.7,0,0,1-.442.432,2.471,2.471,0,0,1-.47.086A7.682,7.682,0,0,1,281.256,305.239Z" transform="translate(-240.878 -183.782)" fill="#263238"/>
      <path id="Path_519" data-name="Path 519" d="M277.068,310.046c.182,0,.23,1.181,1.277,1.987s2.314.624,2.333.8-.278.24-.816.269a2.938,2.938,0,0,1-1.92-.6,2.534,2.534,0,0,1-.96-1.661C276.866,310.344,276.991,310.046,277.068,310.046Z" transform="translate(-239.896 -187.716)" fill="#263238"/>
      <path id="Path_520" data-name="Path 520" d="M273.8,291.369c-.1.3-1.2.2-2.477.4s-2.314.6-2.5.336.1-.413.5-.72a4.368,4.368,0,0,1,3.782-.566C273.591,291.014,273.841,291.244,273.8,291.369Z" transform="translate(-237.591 -182.229)" fill="#ff6262"/>
      <path id="Path_521" data-name="Path 521" d="M288.4,292.008c-.182.259-.96,0-1.853,0s-1.67.23-1.862,0,0-.384.355-.624a2.621,2.621,0,0,1,1.5-.47,2.544,2.544,0,0,1,1.5.451C288.376,291.634,288.491,291.883,288.4,292.008Z" transform="translate(-242.065 -182.312)" fill="#ff6262"/>
      <path id="Path_522" data-name="Path 522" d="M257.792,303.464c-.125-.048-4.963-1.267-4.627,3.61s5.165,3.533,5.165,3.389S257.792,303.464,257.792,303.464Z" transform="translate(-233.178 -185.809)" fill="#ffd5bd"/>
      <path id="Path_523" data-name="Path 523" d="M257.2,309.356a1.27,1.27,0,0,1-.221.144.835.835,0,0,1-.634.058,2.083,2.083,0,0,1-1.094-1.814,2.736,2.736,0,0,1,.154-1.238.96.96,0,0,1,.586-.691.432.432,0,0,1,.518.192c.077.134.048.23.077.24s.106-.086.048-.288a.576.576,0,0,0-.211-.288.663.663,0,0,0-.48-.1,1.21,1.21,0,0,0-.835.816,2.957,2.957,0,0,0-.2,1.382,2.227,2.227,0,0,0,1.382,2.016.893.893,0,0,0,.768-.182C257.2,309.48,257.219,309.365,257.2,309.356Z" transform="translate(-233.671 -186.449)" fill="#ffb294"/>
      <path id="Path_524" data-name="Path 524" d="M282.451,280.121c-.394,1.92-4.368,3.581-7.622,3.389-3-.173-4.435-1.709-6.586-2.88-1.354-.71-1.354-.71-3.235-.461-1.526.2-2.362,1.92-3.245,3.216,1.517,3.581.739,7.68-.058,11.462a2.035,2.035,0,0,1-.528,1.152,1.565,1.565,0,0,1-1.92-.355,6.01,6.01,0,0,1-1.45-3.139,20.16,20.16,0,0,1-.25-7.92,13.728,13.728,0,0,1,3.5-7.037,12.97,12.97,0,0,1,8.947-3.773,15.84,15.84,0,0,1,9.35,2.957,9.235,9.235,0,0,1,3.13,3.341" transform="translate(-234.345 -177.471)" fill="#ff6262"/>
      <path id="Path_525" data-name="Path 525" d="M282.753,299.256a5.009,5.009,0,0,1,0-1.142,4.665,4.665,0,0,1,1.075-2.813,4.551,4.551,0,0,1,4.013-1.584,4.4,4.4,0,0,1,2.381,1.046,4.485,4.485,0,0,1-.422,7.142,4.5,4.5,0,0,1-4.291.394,4.627,4.627,0,0,1-2.237-2.006c-.355-.643-.432-1.056-.48-1.037a1.452,1.452,0,0,0,0,.3,3.592,3.592,0,0,0,.3.806,4.647,4.647,0,0,0,2.256,2.2,4.8,4.8,0,0,0,6.413-2.506,4.877,4.877,0,0,0,.25-3.014,4.811,4.811,0,0,0-8.438-1.91,4.666,4.666,0,0,0-1.018,2.986,3.459,3.459,0,0,0,.106.854,1.258,1.258,0,0,0,.1.288Z" transform="translate(-241.483 -182.993)" fill="#263238"/>
      <path id="Path_526" data-name="Path 526" d="M266.6,300.25a5.683,5.683,0,0,1-.048-1.142,4.618,4.618,0,0,1,1.085-2.8,4.522,4.522,0,0,1,4-1.584,4.387,4.387,0,0,1,2.381,1.037,4.493,4.493,0,0,1-.422,7.152,4.55,4.55,0,0,1-4.291.394,4.637,4.637,0,0,1-2.237-2.016c-.346-.634-.432-1.046-.47-1.037s0,.106,0,.3a3.668,3.668,0,0,0,.288.816,4.675,4.675,0,0,0,2.266,2.189,4.826,4.826,0,1,0-1.776-7.421,4.637,4.637,0,0,0-1.018,2.976,3.919,3.919,0,0,0,.106.854C266.555,300.154,266.584,300.25,266.6,300.25Z" transform="translate(-236.91 -183.277)" fill="#263238"/>
      <path id="Path_527" data-name="Path 527" d="M279.512,299.425c.067.086.6-.336,1.344-.288s1.219.518,1.3.442,0-.2-.23-.4a1.738,1.738,0,0,0-2.131-.115C279.589,299.271,279.474,299.425,279.512,299.425Z" transform="translate(-240.622 -184.525)" fill="#263238"/>
      <path id="Path_528" data-name="Path 528" d="M257.52,302.344a15.5,15.5,0,0,0,3.37-.653,15.271,15.271,0,0,0,3.274-1.037,15.493,15.493,0,0,0-3.37.653A15.273,15.273,0,0,0,257.52,302.344Z" transform="translate(-234.413 -185.063)" fill="#263238"/>
      <path id="Path_529" data-name="Path 529" d="M289.917,275.608a1.267,1.267,0,0,1,0,.461,2.343,2.343,0,0,1-.461,1.181,3.178,3.178,0,0,1-1.526,1.094,8.563,8.563,0,0,1-2.256.413,40.505,40.505,0,0,1-4.176.154,9.141,9.141,0,0,1-1.258-.048h1.344a36.374,36.374,0,0,0,4.166-.182,8.83,8.83,0,0,0,2.237-.4,3.187,3.187,0,0,0,1.488-1.037,2.275,2.275,0,0,0,.48-1.133A2.4,2.4,0,0,0,289.917,275.608Z" transform="translate(-240.697 -177.989)" fill="#fff"/>
      <path id="Path_530" data-name="Path 530" d="M293.315,276.786a4.387,4.387,0,0,1-.1,1.373,5.635,5.635,0,0,1-4.531,4.426,4.436,4.436,0,0,1-1.373.067,2.675,2.675,0,0,1,.365,0,6.188,6.188,0,0,0,.96-.125,5.76,5.76,0,0,0,4.464-4.358,5.484,5.484,0,0,0,.144-.96A2.355,2.355,0,0,0,293.315,276.786Z" transform="translate(-242.828 -178.321)" fill="#fff"/>
    </g>
  </g>
</svg>
