<?xml version="1.0" encoding="utf-8"?>
<!-- Generator: Adobe Illustrator 25.0.0, SVG Export Plug-In . SVG Version: 6.00 Build 0)  -->
<svg version="1.1" id="Layer_1" xmlns="http://www.w3.org/2000/svg" xmlns:xlink="http://www.w3.org/1999/xlink" x="0px" y="0px"
	 viewBox="0 0 412.2 400.4" style="enable-background:new 0 0 412.2 400.4;" xml:space="preserve">
<style type="text/css">
	.st0{fill:#EBEBEB;}
	.st1{fill:#E0E0E0;}
	.st2{fill:#FAFAFA;}
	.st3{fill:#5A30AF;}
	.st4{fill:#F5F5F5;}
	.st5{fill:#263238;}
	.st6{fill:#FFBE9D;}
	.st7{fill:#EB996E;}
	.st8{fill:#FF6262;}
	.st9{opacity:0.5;}
	.st10{fill:#FFFFFF;}
	.st11{fill:#455A64;}
	.st12{fill:#4A342E;}
	.st13{fill:#D59C6E;}
	.st14{fill:#C68254;}
	.st15{fill:#A492D0;}
	.st16{fill:#5538A4;}
</style>
<g id="My_answer-pana" transform="translate(-48.606 -63.443)">
	<g id="freepik--background-complete--inject-137" transform="translate(51.294 108.765)">
		<path id="Path_338" class="st0" d="M357.7,283.1c0.1-6,2.4-11.8,6.5-16.2C366.2,275,357.7,283.1,357.7,283.1z"/>
		<path id="Path_339" class="st0" d="M367.1,278.5c5.6-2.3,11.8-2.5,17.4-0.5C377.9,283.1,367.1,278.5,367.1,278.5z"/>
		<path id="Path_340" class="st0" d="M368.2,273.3c-0.9-4.7-0.1-9.5,2.4-13.5C373.4,265.7,368.2,273.3,368.2,273.3z"/>
		<path id="Path_341" class="st0" d="M331.7,254.3c13.8,3.7,21.2,15.7,21.2,15.7C341.1,270,331.7,254.3,331.7,254.3z"/>
		<path id="Path_342" class="st0" d="M353.7,260c-0.7-14.9,13.8-31.7,13.8-31.7C365.4,246.7,353.7,260,353.7,260"/>
		<path id="Path_343" class="st0" d="M353.7,217.5c0.3,7.5-1.5,14.8-5.2,21.3C346.4,229.3,353.7,217.5,353.7,217.5z"/>
		<path id="Path_344" class="st0" d="M348.1,247.8c-10.9-1.2-16.8-12-16.8-12C344.4,239.5,348.1,247.8,348.1,247.8z"/>
		<path id="Path_345" class="st0" d="M324.6,293.3c5.1-3.2,11.2-4.3,17.1-3.3C335.9,296,324.6,293.3,324.6,293.3z"/>
		<path id="Path_346" class="st0" d="M352.8,298.2c-1.4,3.5-4,6.4-7.3,8.2C345.9,301.4,352.8,298.2,352.8,298.2z"/>
		<path id="Path_347" class="st0" d="M351.4,296.6c-3.9,2.3-8.5,3.1-13,2.3C342.6,294.6,351.4,296.6,351.4,296.6z"/>
		<path id="Path_348" class="st1" d="M357,316.7c0-0.1,0-0.2,0-0.2v-7.1c0-1.5,0-3.3-0.1-5.2c-0.1-3.8-0.4-8.5-0.8-13.6
			s-1.1-10.7-1.9-16.5c-1.7-11.7-4.1-22.1-6-29.7c-1-3.8-1.8-6.8-2.3-8.9c-0.3-1-0.5-1.8-0.7-2.4c-0.1-0.3-0.1-0.5-0.2-0.6
			c0-0.1,0-0.1,0-0.2c0,0.1,0.1,0.1,0.1,0.2c0.1,0.2,0.1,0.4,0.2,0.6l0.7,2.4c0.6,2.1,1.5,5.1,2.5,8.8c2.5,9.8,4.5,19.7,6,29.7
			c0.9,5.9,1.5,11.5,1.9,16.6c0.5,5.1,0.6,9.7,0.7,13.6c0.1,1.9,0,3.7,0,5.2s0,2.9-0.1,3.9s-0.1,1.9-0.1,2.5v0.7
			C357,316.5,357,316.6,357,316.7z"/>
		<path id="Path_349" class="st1" d="M337,285.1c0.1-0.1,4.5,2.8,9.8,6.4s9.6,6.7,9.6,6.8s-4.5-2.8-9.8-6.4S336.9,285.2,337,285.1z"
			/>
		<path id="Path_350" class="st1" d="M356.3,286.7c0.2-0.3,0.4-0.5,0.7-0.7l1.9-1.9c1.8-1.7,4-3.8,6.5-6.1l6.5-6.1l2-1.9
			c0.5-0.4,0.7-0.7,0.8-0.6c-0.2,0.3-0.4,0.5-0.6,0.8c-0.4,0.5-1.1,1.2-1.9,2c-1.6,1.6-3.9,3.8-6.5,6.2c-2.6,2.4-4.9,4.5-6.6,6
			c-0.9,0.8-1.6,1.4-2.1,1.8C356.9,286.3,356.6,286.5,356.3,286.7L356.3,286.7z"/>
		<path id="Path_351" class="st0" d="M323,278.1c0,0,11.3-0.2,16,8.6C332.6,286.5,326.7,283.3,323,278.1z"/>
		<path id="Path_352" class="st0" d="M338.4,273.6c0,0,9.2,6.5,7.7,16.5C341,286.1,338.2,280,338.4,273.6z"/>
		<path id="Path_353" class="st0" d="M386.6,257.5c0,0-3.6,12.6-15.1,14.9C373.9,265.3,379.5,259.7,386.6,257.5z"/>
		<path id="Path_354" class="st0" d="M333.4,210.6c0,0,14.4,9.4,12.8,24.6C338.2,229.5,333.5,220.4,333.4,210.6z"/>
		<path id="Path_355" class="st1" d="M381.1,293.9c-0.3,0.3-0.6,0.5-1,0.7c-0.6,0.4-1.5,1.1-2.6,2c-2.8,2.2-5.4,4.7-7.8,7.3
			c-2.4,2.7-4.5,5.5-6.4,8.5c-0.7,1.2-1.3,2.1-1.7,2.8c-0.2,0.4-0.4,0.7-0.6,1c0.1-0.4,0.3-0.8,0.5-1.1c0.3-0.7,0.9-1.7,1.6-2.9
			c1.8-3.1,4-6,6.4-8.6c2.4-2.7,5.1-5.1,7.9-7.2c1.1-0.8,2-1.5,2.7-1.9C380.4,294.3,380.8,294.1,381.1,293.9z"/>
		<path id="Path_356" class="st0" d="M368.6,303.3c-1-5.9,0.1-12,3.3-17.1C373.5,296.8,368.6,303.3,368.6,303.3z"/>
		<path id="Path_357" class="st0" d="M378.3,298c3.8-2.2,8.3-2.8,12.5-1.9C383.9,299.7,378.3,298,378.3,298z"/>
		<path id="Path_358" class="st0" d="M336,317.8l5.4,35.4h31.3l7.3-34.9L336,317.8z"/>
		<path id="Path_359" class="st2" d="M375.6,340.5c0,0.1-8,0.2-17.9,0.2s-17.9-0.1-17.9-0.2s8-0.2,17.9-0.2S375.6,340.4,375.6,340.5
			z"/>
		<path id="Path_360" class="st2" d="M375.7,338.8c0,0.1-8.1,0.2-18,0.2s-18-0.1-18-0.2s8.1-0.2,18-0.2S375.7,338.7,375.7,338.8z"/>
		<path id="Path_361" class="st2" d="M375.6,336.8c0,0.1-8.1,0.2-18,0.2s-18-0.1-18-0.2s8.1-0.2,18-0.2S375.6,336.7,375.6,336.8z"/>
		<path id="Path_362" class="st2" d="M345,351.2c-0.4-1.5-0.8-2.9-1-4.5c-0.3-1.5-0.5-3-0.6-4.5c0.4,1.5,0.8,2.9,1,4.5
			C344.7,348.2,344.9,349.7,345,351.2z"/>
		<path id="Path_363" class="st2" d="M347.1,350.8c-0.3-2.9-0.5-5.8-0.6-8.7c0.3,1.4,0.5,2.9,0.6,4.3
			C347.3,347.9,347.3,349.4,347.1,350.8z"/>
		<path id="Path_364" class="st2" d="M351,350.8c-0.4-1.5-0.7-3-0.8-4.5c-0.2-1.5-0.3-3-0.2-4.5c0.3,1.5,0.5,3,0.6,4.5
			C350.8,347.8,350.9,349.3,351,350.8z"/>
		<path id="Path_365" class="st2" d="M353.7,351c-0.3-1.5-0.5-3-0.4-4.5c-0.1-1.5-0.1-3,0.1-4.5c0.2,1.5,0.2,3,0.2,4.5
			C353.8,348,353.8,349.5,353.7,351L353.7,351z"/>
		<path id="Path_366" class="st2" d="M358.6,350.8c-0.2-1.4-0.3-2.9-0.3-4.3c-0.1-1.4-0.1-2.9,0-4.3c0.2,1.4,0.3,2.9,0.3,4.3
			C358.7,347.9,358.7,349.4,358.6,350.8z"/>
		<path id="Path_367" class="st2" d="M362.1,351c-0.2-1.5-0.2-3-0.2-4.4c0-1.5,0-3,0.2-4.4c0.2,1.5,0.2,3,0.2,4.4
			C362.3,348,362.3,349.5,362.1,351z"/>
		<path id="Path_368" class="st2" d="M365.4,350.5c0-1.6,0-3.1,0.3-4.6c0.1-1.6,0.3-3.1,0.6-4.6c0,1.6-0.1,3.1-0.3,4.7
			C365.9,347.5,365.7,349,365.4,350.5L365.4,350.5z"/>
		<path id="Path_369" class="st2" d="M369.6,350.1c0-1.3,0.2-2.7,0.5-4c0.2-1.3,0.6-2.6,1.2-3.8c-0.2,1.3-0.5,2.6-0.8,3.9
			C370.3,347.5,370,348.8,369.6,350.1L369.6,350.1z"/>
		<path id="Path_370" class="st0" d="M332.4,310.8v6.6c0,1.4,1.2,2.6,2.6,2.6c0,0,0,0,0,0h45.3c1.4,0,2.6-1.2,2.6-2.6v0v-6.6H332.4z
			"/>
		<path id="Path_371" class="st1" d="M336.4,320l0.4,2.1l41.8,3l1.1-5.1H336.4z"/>
		<path id="Path_372" class="st3" d="M362.2,25c4.7-2.1,7.7-6.8,7.7-12c0-7.2-5.4-13-12.1-13s-12.2,5.8-12.2,12.9
			c-0.1,5.2,3,10,7.7,12.1c-18.7,2.8-17.8,23.1-17.8,23.1l44.2,0.2C379.6,48.3,380.7,27.8,362.2,25z"/>
		<path id="Path_373" class="st3" d="M48.7,143l-12.6-3.9c0,0-3.3,10.6-14.3,7.3c-4.4-1.2-7.5-5.1-7.8-9.6c-0.3-3.8,1.2-7.4,4.1-9.9
			c3.2-2.9,8.9-4.6,16.9-0.5l8.9-28.4l-12.5-3.8l-5.2,16.6c0,0-18.9-1-24.9,18.3c-5.8,18.4,9.4,27.8,16.5,30
			C23.2,160.9,42,165.3,48.7,143z"/>
		
			<rect id="Rectangle_27" x="35" y="77.8" transform="matrix(0.2979 -0.9546 0.9546 0.2979 -51.6666 98.593)" class="st4" width="12.4" height="13.2"/>
		<path id="Path_374" class="st0" d="M78.4,130.6l6.3-1.7c0,0-1.4-5.3,4.1-6.8c2.1-0.7,4.4,0.1,5.8,1.9c1.1,1.5,1.5,3.4,0.9,5.2
			c-0.6,2-2.5,4.3-7,4.6l3.7,14.2l6.2-1.6l-2.2-8.3c4.8-2.9,7.1-8.7,5.6-14.2c-2.4-9.2-11.2-9.2-14.8-8.2
			C84.4,116.4,75.3,119.5,78.4,130.6z"/>
		
			<rect id="Rectangle_28" x="93.6" y="150" transform="matrix(0.9669 -0.2551 0.2551 0.9669 -35.8505 29.7798)" class="st0" width="6.5" height="6.1"/>
		<path id="Path_375" class="st4" d="M18.1,13.3l6.2-0.7c0,0-0.6-5.2,4.8-6c2.1-0.3,4.3,0.7,5.3,2.7c0.9,1.6,0.9,3.5,0.1,5.1
			c-0.9,1.9-3,3.7-7.3,3.5l1.6,14.1l6.2-0.7l-1-8.2c5-2.1,8-7.4,7.3-12.8c-1.1-9.1-9.5-10.3-13-9.9C25.8,0.6,16.8,2.3,18.1,13.3z"/>
		
			<rect id="Rectangle_29" x="29.6" y="34.4" transform="matrix(0.9933 -0.1158 0.1158 0.9933 -4.1033 4.0494)" class="st4" width="6.3" height="5.9"/>
	</g>
	<g id="freepik--post-2--inject-137" transform="translate(127.327 299.684)">
		<rect id="Rectangle_30" x="0.2" y="10" class="st2" width="237.5" height="97.6"/>
		<path id="Path_376" class="st5" d="M237.6,107.6v-6.8c0-4.4,0-11,0-19.4c0-16.9,0-41.2-0.1-71.4l0.2,0.2L0.2,10.3l0,0L0.5,10v97.6
			l-0.2-0.2l170.3,0.1l49.4,0.1h0.1l-49.3,0.1L0.2,107.7H0V9.6h0.3l237.4,0.1h0.1v0.2c0,30.2-0.1,54.6-0.1,71.5v24.4
			C237.7,106.9,237.6,107.6,237.6,107.6z"/>
		<circle id="Ellipse_15" class="st0" cx="30.7" cy="37.2" r="16.9"/>
		<path id="Path_377" class="st5" d="M130.9,35c0,0.1-16.8,0.2-37.6,0.2S55.6,35.2,55.6,35s16.8-0.2,37.6-0.2S130.9,34.9,130.9,35z"
			/>
		<path id="Path_378" class="st1" d="M112.2,45.5c0,0.1-12.9,0.2-28.7,0.2s-28.7-0.1-28.7-0.2s12.9-0.2,28.7-0.2
			S112.2,45.4,112.2,45.5z"/>
		<path id="Path_379" class="st5" d="M209.3,67.1c0,0.1-39.9,0.2-89,0.2s-89-0.1-89-0.2s39.8-0.2,89-0.2S209.3,67,209.3,67.1z"/>
		<path id="Path_380" class="st5" d="M209.3,79.1c0,0.1-39.9,0.2-89,0.2s-89-0.1-89-0.2s39.8-0.2,89-0.2S209.3,79,209.3,79.1z"/>
		<path id="Path_381" class="st6" d="M21.1,19.4c-0.7-7.3,3.1-13.8,10.4-14.2h0.7c6.8,0,12.6,5.2,13.1,12c0.5,6.3,1,13.4,1,16.8
			c-0.1,7-7.1,8.2-7.1,8.2l0.2,2.3c0.3,4.8-3.3,8.9-8.1,9.3c-0.3,0-0.6,0-0.8,0l0,0c-4.6-0.1-8.3-3.8-8.4-8.4L21.1,19.4z"/>
		<path id="Path_382" class="st7" d="M39.2,42.1c-3.3,0.1-6.5-0.8-9.2-2.6c0,0,2.2,5.1,9.2,4.4L39.2,42.1z"/>
		<path id="Path_383" class="st5" d="M43,22.4c0,0.5-0.4,1-1,1c-0.5,0-1-0.3-1-0.9c0,0,0,0,0,0c0-0.5,0.4-1,1-1
			C42.5,21.5,43,21.9,43,22.4C43,22.4,43,22.4,43,22.4L43,22.4z"/>
		<path id="Path_384" class="st5" d="M43.8,20.2c-0.1,0.1-0.9-0.4-2-0.4s-1.9,0.6-2,0.4s0.1-0.3,0.4-0.5c0.5-0.3,1-0.5,1.6-0.5
			c0.6,0,1.1,0.2,1.6,0.5C43.8,19.9,43.9,20.2,43.8,20.2z"/>
		<path id="Path_385" class="st5" d="M32.9,22.7c0,0.5-0.4,1-1,1c-0.5,0-1-0.3-1-0.9c0,0,0,0,0,0c0-0.5,0.4-1,1-1
			C32.4,21.7,32.8,22.1,32.9,22.7C32.9,22.7,32.9,22.7,32.9,22.7L32.9,22.7z"/>
		<path id="Path_386" class="st5" d="M33.1,20c-0.1,0.1-1-0.3-2-0.2s-1.8,0.7-1.9,0.6s0-0.3,0.3-0.6c0.4-0.4,1-0.6,1.5-0.7
			c0.6-0.1,1.1,0.1,1.6,0.3C33,19.7,33.1,19.9,33.1,20z"/>
		<path id="Path_387" class="st5" d="M37.1,28.9c0.6-0.2,1.2-0.3,1.8-0.3c0.3,0,0.5-0.1,0.6-0.3c0-0.3,0-0.6-0.2-0.8
			c-0.3-0.7-0.5-1.4-0.8-2.1c-0.8-1.8-1.4-3.6-1.9-5.5c0.9,1.7,1.7,3.5,2.3,5.3c0.3,0.7,0.5,1.4,0.8,2.1c0.2,0.3,0.2,0.7,0.1,1.1
			c-0.1,0.2-0.2,0.3-0.5,0.4c-0.2,0-0.3,0.1-0.5,0.1C38.3,28.9,37.7,28.9,37.1,28.9L37.1,28.9z"/>
		<path id="Path_388" class="st5" d="M33.9,29.6c0.2,0,0.2,1.2,1.2,2s2.3,0.7,2.3,0.9s-0.3,0.2-0.8,0.2c-0.7,0-1.4-0.2-1.9-0.7
			c-0.5-0.4-0.9-1-1-1.7C33.7,29.9,33.8,29.6,33.9,29.6z"/>
		<path id="Path_389" class="st5" d="M32.9,16.4c-0.1,0.3-1.2,0.3-2.4,0.5s-2.2,0.7-2.4,0.5s0.1-0.4,0.5-0.7
			c0.5-0.4,1.1-0.7,1.8-0.8c0.6-0.1,1.3-0.1,1.9,0.1C32.7,16,32.9,16.2,32.9,16.4z"/>
		<path id="Path_390" class="st5" d="M43.3,17.5c-0.2,0.2-1,0-1.8,0s-1.7,0.2-1.8-0.1s0-0.4,0.4-0.6c0.4-0.3,1-0.4,1.5-0.4
			c0.5,0,1,0.2,1.5,0.5C43.3,17.1,43.4,17.3,43.3,17.5z"/>
		<path id="Path_391" class="st7" d="M25.4,21.5c-0.1,0,0.3,0.7,1.2,1c0.5,0.2,1.1,0.2,1.6-0.1c-0.5,0-1-0.1-1.5-0.2
			C26.3,22,25.8,21.8,25.4,21.5L25.4,21.5z"/>
		<path id="Path_392" class="st7" d="M25.4,23.9c0,0.1,0.6-0.1,1.2-0.2s1.2-0.2,1.2-0.3s-0.6-0.2-1.3,0S25.4,23.8,25.4,23.9z"/>
		<path id="Path_393" class="st7" d="M41.9,28.3c0,0.1,0.2,0.1,0.4,0.1s0.4-0.2,0.3-0.2s-0.2-0.1-0.4,0S41.9,28.2,41.9,28.3z"/>
		<path id="Path_394" class="st7" d="M41.9,28.9c0,0.1,0.1,0.2,0.2,0.2s0.2,0,0.3-0.1s-0.1-0.2-0.2-0.2S41.9,28.8,41.9,28.9z"/>
		<path id="Path_395" class="st7" d="M32.2,30.3c0.1-0.1,0.2-0.1,0.3-0.2c0.2-0.2,0.4-0.4,0.7-0.6c0.2-0.1,0.5-0.2,0.8-0.1
			c0.2,0,0.3,0.1,0.4,0.1s0-0.2-0.3-0.3c-0.3-0.1-0.7-0.1-1,0.1c-0.3,0.2-0.5,0.4-0.7,0.7C32.2,30.2,32.2,30.3,32.2,30.3z"/>
		<path id="Path_396" class="st7" d="M25.7,40.1c-0.1-0.1-0.1-0.1-0.1-0.2c-0.1-0.2-0.1-0.4-0.1-0.5c0.1-0.2,0.2-0.5,0.4-0.8
			c0.1-0.2,0.1-0.4,0-0.6c-0.1-0.2-0.2-0.4-0.3-0.5c-0.1-0.1-0.1-0.2,0-0.3c0.1-0.1,0.2-0.2,0.4-0.4c0.1-0.1,0.2-0.3,0.3-0.5
			c0-0.2,0-0.3-0.1-0.5c-0.1-0.2-0.2-0.4-0.4-0.5c-0.1-0.1-0.2-0.1-0.2-0.1c0.1,0.2,0.3,0.5,0.4,0.7c0.1,0.2,0,0.5-0.2,0.7
			c-0.2,0.1-0.3,0.2-0.4,0.4c-0.2,0.2-0.2,0.5,0,0.7c0.1,0.1,0.2,0.3,0.3,0.5c0,0.1,0,0.3,0,0.4c-0.1,0.3-0.2,0.6-0.3,0.9
			c0,0.2,0,0.5,0.2,0.7C25.6,40.2,25.7,40.1,25.7,40.1z"/>
		<path id="Path_397" class="st7" d="M23.9,39.5c0,0-0.1,0-0.1-0.1s0.1-0.1,0.2-0.4c0-0.3,0-0.6-0.2-0.8c-0.1-0.2-0.1-0.5,0.1-0.7
			c0.2-0.2,0.4-0.5,0.6-0.8c0.1-0.3,0.1-0.6-0.1-0.8c-0.1-0.2-0.3-0.2-0.5-0.3h-0.2c0.2,0,0.4,0.2,0.5,0.4c0.1,0.2,0.1,0.4,0,0.6
			c-0.2,0.2-0.4,0.5-0.6,0.7c-0.1,0.1-0.2,0.3-0.2,0.5c0,0.2,0,0.4,0.1,0.5c0.1,0.3,0.3,0.5,0.2,0.6c0,0.1-0.1,0.2-0.1,0.3
			c0,0.1,0,0.2,0,0.3C23.8,39.6,23.9,39.5,23.9,39.5z"/>
		<path id="Path_398" class="st6" d="M21.6,24.6c-0.1,0-4.8-1.4-4.7,3.4s5,3.7,5,3.5S21.6,24.6,21.6,24.6z"/>
		<path id="Path_399" class="st5" d="M20.4,29.7c-0.1,0-0.1,0.1-0.2,0.1c-0.2,0.1-0.4,0.1-0.6,0c-0.7-0.4-1-1.1-1-1.8
			c0-0.4,0-0.8,0.2-1.2c0.1-0.3,0.3-0.6,0.6-0.7c0.2-0.1,0.4,0,0.5,0.2c0.1,0.1,0,0.2,0.1,0.2s0.1-0.1,0-0.3c0-0.1-0.1-0.2-0.2-0.3
			c-0.1-0.1-0.3-0.1-0.5-0.1c-0.4,0.1-0.7,0.4-0.9,0.8c-0.2,0.4-0.3,0.9-0.2,1.4c0,0.9,0.5,1.7,1.3,2c0.3,0.1,0.5,0,0.8-0.2
			C20.4,29.8,20.4,29.7,20.4,29.7z"/>
		<path id="Path_400" class="st5" d="M46,8.9c-0.2-1-0.9-1.7-1.9-1.9c0.5-1.1,0-2.4-1.1-2.9c-0.8-0.3-1.7-0.2-2.3,0.3
			c0-1.2-1.1-2.2-2.3-2.2c-0.3,0-0.5,0.1-0.7,0.2c0-1.1-0.8-1.9-1.9-2c-0.7,0-1.3,0.3-1.7,0.9c-1-1.5-3.1-1.9-4.5-0.9
			C29.3,0.7,29.1,0.9,29,1c-2-0.6-4.2,0.3-5.1,2.3c-1.6,0.1-3,1.2-3.5,2.7c-1.6,0.1-2.8,1.5-2.7,3.1c0,0.5,0.2,1,0.5,1.5
			c-1,0.6-1.4,1.9-0.8,2.9c0.1,0.2,0.2,0.3,0.4,0.5c-1.1,0.5-1.5,1.8-1,2.8c0.2,0.4,0.6,0.8,1,1c-0.7,0.1-1,1-0.8,1.7
			c0.3,0.7,0.6,1.3,1,1.9c0.2,0.5,0.3,1.1,0.5,1.7c0.4,1.1,1.2,1.9,2.3,2.3l-0.1,0c-0.1,0.6,0.7,1,1.3,0.8c0.5-0.3,1-0.8,1.2-1.4
			c0.4-0.6,0.7-1.2,1-1.9c0.2-0.7,0-1.5-0.7-1.9c0.8-0.3,1.4-1.1,1.5-2c0.1-0.9,0-1.8-0.2-2.6l-0.7-3.8c1.8-0.1,3.4-1.1,4.1-2.7
			c1.3,0.9,3,0.5,3.8-0.7C32.4,9,32.4,9,32.5,8.9c0.7,1.8,2.6,2.7,4.4,2.2c-0.2,1,1.6,1.9,2.6,2.2c0.8,0.1,1.5-0.1,2.2-0.4
			c0,0,1.7,1,2.6,0.6s2.1-1.4,1.5-2.4C46,10.4,46.1,9.6,46,8.9L46,8.9z"/>
		<path id="Path_401" class="st2" d="M17.6,13.9c0.1,0.3,0.3,0.5,0.5,0.6c0.4,0.3,1,0.2,1.3-0.2c0.1-0.1,0.1-0.2,0.1-0.3l0.1-0.3
			l0.2,0.2c0.5,0.5,1.3,0.4,1.8-0.1c0.2-0.3,0.3-0.6,0.3-0.9v-0.3l0.3,0.1c0.6,0.2,1.3,0,1.6-0.5c0.1-0.2,0.2-0.5,0.2-0.7
			c0.1,0.3,0.1,0.6-0.1,0.8c-0.1,0.3-0.4,0.5-0.6,0.7c-0.4,0.2-0.8,0.2-1.2,0.1l0.2-0.2c0.1,0.7-0.3,1.4-1,1.7
			c-0.6,0.2-1.2,0.1-1.7-0.3l0.3-0.1c-0.1,0.5-0.5,0.9-1,1c-0.3,0.1-0.7,0-1-0.2C17.5,14.3,17.6,13.9,17.6,13.9z"/>
		<path id="Path_402" class="st2" d="M16.9,18.6c0.2,0.1,0.3,0.2,0.5,0.2c0.5,0.1,1-0.1,1.2-0.5l0.1-0.2l0.1,0.1
			c0.3,0.3,0.8,0.5,1.2,0.3c0.5-0.2,0.9-0.6,0.9-1.1v-0.3l0.3,0.2c0.1,0,0.1,0.1,0.2,0.1c0.4,0.1,0.7,0,1-0.3c0.2-0.3,0.2-0.7,0-1
			l-0.2-0.3h0.3c0.4,0.1,0.8,0,1.1-0.3c0.2-0.2,0.4-0.4,0.5-0.7c0.1-0.3,0.1-0.6,0.1-0.8c0.1,0.3,0.2,0.6,0.1,0.9
			c-0.1,0.4-0.3,0.7-0.6,0.9c-0.4,0.3-0.8,0.4-1.3,0.4l0.2-0.2c0.4,0.6,0.2,1.3-0.4,1.7c-0.3,0.2-0.7,0.2-1,0.1
			c-0.1,0-0.2-0.1-0.3-0.1l0.3-0.1c0,0.7-0.5,1.3-1.2,1.4c-0.6,0.1-1.1-0.1-1.5-0.5h0.2c-0.2,0.3-0.5,0.5-0.8,0.6
			c-0.2,0.1-0.5,0.1-0.7,0C17,18.8,16.9,18.6,16.9,18.6z"/>
		<path id="Path_403" class="st2" d="M37,2.3C36.8,2.1,36.7,2,36.5,2c-0.2-0.1-0.5-0.1-0.7,0c-0.3,0.1-0.5,0.4-0.6,0.7L35.1,3
			L35,2.7c-0.3-0.5-0.9-0.8-1.5-0.8c-0.7,0-1.4,0.5-1.6,1.2l-0.1,0.3l-0.2-0.3c-0.4-0.5-1-0.8-1.7-0.8c-0.7,0-1.3,0.4-1.7,1
			c-0.2,0.2-0.3,0.5-0.3,0.8v0.2l-0.2,0c-1.1-0.3-2.2,0.4-2.4,1.5c-0.2,0.7,0,1.4,0.5,1.9L26,7.8l-0.3,0C24.6,8,23.9,9,23.9,10.1
			c0,0.4,0.1,0.8,0.3,1.2C24,11.1,24,11.1,23.9,11c-0.1-0.3-0.2-0.6-0.2-0.9c0-0.5,0.1-1,0.4-1.4c0.4-0.6,0.9-1,1.6-1.1l-0.1,0.2
			c-0.9-1-0.8-2.4,0.2-3.3C26.3,4,27.1,3.8,27.8,4l-0.2,0.1c0-0.3,0.2-0.7,0.4-1c0.4-0.7,1.2-1.1,2-1.1c0.8,0,1.5,0.4,1.9,1
			l-0.3,0.1c0.2-1,1.3-1.7,2.3-1.4c0.6,0.1,1,0.5,1.3,1H35c0.1-0.4,0.4-0.7,0.7-0.8c0.3-0.1,0.5-0.1,0.8,0c0.2,0.1,0.3,0.2,0.4,0.3
			C37,2.2,37,2.3,37,2.3z"/>
	</g>
	<g id="freepik--Plant--inject-137" transform="translate(75.888 314.159)">
		<path id="Path_404" class="st8" d="M38.1,126.6c-2.1-0.1-2.7-3.1-1.9-5s2.3-3.7,2.4-5.8c0-1.8-1.1-3.5-1.3-5.3
			c-0.2-3.3,3-6,3.1-9.3c0.1-2.6-1.7-5-1.2-7.6c0.5-2.7,3.3-4.5,4-7.2c0.7-2.9-1.3-5.9-0.5-8.7s4.1-4.9,3.6-7.8
			c-0.2-1-0.7-1.8-1-2.7c-0.6-2.2,0.6-4.4,2-6.1s3.2-3.3,4.1-5.3c1.4-3.2,0.4-7,2-10.1c1.3-2.5,4.3-4.2,4.7-7.1
			c1.5,2.6,0,5.8,0.4,8.8c0.2,1.9,1.2,3.7,1.8,5.5c1.2,3.8,0.8,8-1.1,11.5c-1.3,2.3-3.3,4.4-3.2,7c0.1,3.2,3.3,5.5,3.8,8.6
			c0.8,4.4-3.9,8.4-3.3,12.9c0.2,1.2,0.7,2.2,0.8,3.4c0.3,4-4.2,6.7-4.8,10.7c-0.5,2.9,1.2,5.9,0.5,8.7c-0.5,2.2-2.4,4.2-1.9,6.4
			c0.3,0.9,0.7,1.8,1.2,2.7c0.7,1.8,0.4,3.8-0.8,5.2c-1.3,1.4-3.4,1.9-5.1,1"/>
		<g id="Group_12" transform="translate(35.741 38.4)" class="st9">
			<path id="Path_405" class="st10" d="M16.4,86c-0.5-0.8-0.9-1.7-1.2-2.7c-0.5-2.2,1.4-4.2,1.9-6.4c0.7-2.8-1-5.8-0.5-8.7
				c0.7-3.9,5.2-6.7,4.8-10.7c-0.1-1.2-0.6-2.2-0.8-3.4c-0.7-4.5,4.1-8.5,3.3-12.9c-0.6-3.1-3.7-5.4-3.8-8.6c-0.1-2.6,1.9-4.8,3.2-7
				c2-3.5,2.4-7.6,1.1-11.5c-0.6-1.8-1.6-3.6-1.8-5.5c-0.3-3,1.1-6.2-0.4-8.8c-0.4,2.9-3.3,4.6-4.7,7.1c-1.6,3.1-0.7,6.9-2,10.1
				c-0.9,2.1-2.6,3.6-4.1,5.3s-2.6,4-2,6.1c0.4,0.9,0.7,1.8,1,2.7c0.5,2.9-2.9,5-3.6,7.8s1.2,5.9,0.5,8.7c-0.7,2.7-3.5,4.5-4,7.2
				c-0.4,2.5,1.4,5,1.2,7.6c-0.1,3.3-3.3,6-3.1,9.3c0.1,1.8,1.3,3.5,1.3,5.3c0,2.1-1.6,3.8-2.4,5.8s-0.2,4.9,1.9,5l8.1,4.1
				c1.7,0.8,3.8,0.4,5.1-1C16.7,89.8,17.1,87.8,16.4,86L16.4,86z"/>
		</g>
		<path id="Path_406" class="st8" d="M49.4,122.5c-0.6-0.9-0.8-2-0.8-3.1c0.2-1.2,2.3-2.3,2.8-4.3c0.7-2.7-0.5-7.4,0-10
			c0.7-3.6,4.5-6,4.3-9.7c0-1.1,0.1-3.9,0-5c-0.4-4.1,3.2-6.8,2.7-10.9c-0.4-2.8-3.3-6.1-3.3-9c0-2.4,1.7-4.5,2.9-6.7
			c1.7-3.3,2.1-7,1.2-10.6c-0.6-1.6-1.1-3.3-1.3-4.9c-0.2-2.7,1.1-5.8,0-8.1c-0.4,2.6-2.9,4.4-4.1,6.8c-1.4,2.9-0.8,6.4-2,9.4
			c-0.8,1.9-2.3,3.5-3.5,5.2s-2.3,3.8-1.9,5.8c0.3,0.8,0.5,1.6,0.7,2.4c0.3,2.6-2.5,4.8-3.2,7.4s0.8,5.3,0.2,8
			c-0.6,2.5-3.1,5.9-3.6,8.5c-0.4,2.4,1.7,3.9,1.5,6.3c-0.2,3.1-3.3,6.7-3.2,9.8c0,1.7,1.4,2.2,1.4,3.9c-0.1,1.9-1.7,5.8-2.4,7.7
			c-0.8,1.7-0.6,3.7,0.5,5.2l9.1,4.5C51.3,129.2,51.1,125.2,49.4,122.5z"/>
		<path id="Path_407" class="st5" d="M55.5,54c0,0.1,0,0.1,0,0.2v0.6c0,0.5,0,1.3-0.1,2.3c-0.1,1.2-0.4,2.4-0.8,3.5
			c-0.7,1.4-1.6,2.7-2.7,3.9c-0.6,0.7-1,1.5-1.3,2.4c-0.3,0.9-0.4,1.9-0.3,2.9c0.1,2,0.7,4.2,1,6.5c0.2,1.2,0.1,2.4-0.1,3.6
			c-0.2,0.6-0.4,1.2-0.7,1.7c-0.3,0.5-0.7,1-1,1.6c-0.4,1.2-0.4,2.5-0.1,3.7c0.1,0.6,0.3,1.3,0.4,1.9c0.1,0.7,0.1,1.4,0,2
			c-0.3,1.3-0.7,2.6-1.3,3.8c-0.5,1.2-1,2.3-1.4,3.6c-0.3,1.2-0.4,2.4-0.3,3.6c0.2,1.2,0.2,2.4,0.1,3.6c-0.2,1.1-0.6,2.2-1.1,3.2
			c-0.5,0.9-0.9,1.9-1.2,2.9c-0.4,2,0.2,3.9,0.1,5.7c-0.1,1.6-0.4,3.2-1,4.6c-0.4,1.1-0.7,2.3-0.9,3.4c-0.1,0.7,0,1.5,0.2,2.2
			c0.2,0.5,0.3,0.7,0.3,0.7c-0.1-0.2-0.3-0.5-0.4-0.7c-0.3-0.7-0.4-1.5-0.3-2.2c0.1-1.2,0.4-2.4,0.8-3.5c0.5-1.5,0.9-3,1-4.6
			c0-0.9-0.1-1.8-0.2-2.7c-0.2-1-0.2-2,0-3c0.4-2.1,1.9-3.9,2.2-6.2c0.1-1.2,0-2.4-0.1-3.5c-0.1-1.3,0-2.5,0.3-3.8
			c0.7-2.5,2.2-4.7,2.6-7.3c0.1-0.6,0.1-1.3,0-1.9c-0.1-0.6-0.2-1.3-0.3-1.9c-0.4-1.3-0.3-2.7,0.2-3.9c0.3-0.6,0.6-1.1,1-1.6
			c0.3-0.5,0.5-1.1,0.7-1.7c0.2-1.1,0.3-2.3,0.1-3.5c-0.3-2.3-0.9-4.4-1-6.5c-0.1-1,0.1-2,0.4-3c0.3-0.9,0.8-1.7,1.4-2.4
			c1.1-1.2,2-2.4,2.7-3.8c0.5-1.1,0.8-2.2,0.9-3.4c0.1-1,0.1-1.7,0.2-2.3v-0.6C55.5,54,55.5,54,55.5,54z"/>
		<path id="Path_408" class="st8" d="M25.2,127.6c-2.9,0.4-4.6-3.5-4.1-6.5s2.2-5.8,1.7-8.7c-0.5-2.5-2.6-4.5-3.2-7
			c-1.2-4.5,2.5-9.1,1.8-13.7c-0.6-3.6-3.7-6.5-3.8-10.1c-0.1-3.9,3.3-7.2,3.5-11.1c0.2-4.2-3.4-7.8-3.1-12s4.3-7.9,2.9-11.8
			c-0.5-1.3-1.5-2.3-2.1-3.5c-1.4-2.9-0.4-6.3,1.1-9.1s3.5-5.4,4.2-8.5c1-4.8-1.4-9.8,0-14.5C25.1,7.3,28.8,4,28.5,0
			c2.8,3.1,1.6,8.1,2.9,12c0.8,2.6,2.7,4.7,4,7.1c2.8,4.9,3.3,10.8,1.6,16.2c-1.2,3.5-3.3,7-2.5,10.6c1,4.3,6,6.7,7.7,10.8
			c2.3,5.9-3.1,12.8-1,18.8c0.5,1.6,1.6,2.9,2,4.5c1.6,5.4-3.9,10.5-3.8,16.1c0.1,4.1,3.2,7.8,3,11.9c-0.1,3.2-2.2,6.4-1,9.3
			c0.7,1.2,1.5,2.3,2.4,3.3c1.5,2.2,1.6,5.1,0.3,7.5c-1.4,2.3-4.1,3.5-6.8,2.9"/>
		<g id="Group_13" transform="translate(17.606 0.038)" class="st9">
			<path id="Path_409" class="st10" d="M26.4,120.7c-0.9-1-1.7-2.2-2.4-3.3c-1.2-2.9,0.8-6.2,1-9.3c0.2-4.1-2.9-7.8-3-11.9
				c-0.1-5.6,5.3-10.7,3.8-16.1c-0.5-1.6-1.5-2.9-2-4.5c-2.1-6,3.3-12.9,1-18.8C23,52.5,18,50.2,17,45.9c-0.9-3.6,1.3-7.1,2.5-10.6
				c1.8-5.4,1.2-11.2-1.6-16.2c-1.4-2.4-3.2-4.5-4-7.1c-1.3-4-0.1-8.9-2.9-12c0.3,4-3.4,7.2-4.5,11.1c-1.4,4.7,1,9.7,0,14.5
				c-0.7,3.1-2.7,5.7-4.2,8.5s-2.5,6.2-1.1,9.1c0.6,1.2,1.7,2.2,2.1,3.5c1.4,3.9-2.6,7.7-2.9,11.8s3.3,7.8,3.1,12
				C3.4,74.4-0.1,77.6,0,81.5c0.1,3.6,3.2,6.5,3.8,10.1c0.7,4.6-3,9.2-1.8,13.7c0.7,2.5,2.7,4.5,3.2,7c0.5,2.9-1.1,5.8-1.7,8.7
				s1,6.9,4,6.4L20,131c2.6,0.6,5.4-0.5,6.8-2.9C28,125.8,27.9,122.9,26.4,120.7L26.4,120.7z"/>
		</g>
		<path id="Path_410" class="st8" d="M39.6,118.8c-1-1.2-1.7-2.6-2-4.1c0-1.7,2.5-3.8,2.6-6.7c0.2-3.8-2.7-10.1-2.8-13.9
			c0-5.2,4.5-9.6,3.3-14.6c-0.4-1.5-1-5.4-1.4-6.9c-1.7-5.5,2.5-10.3,0.7-15.8c-1.3-3.8-6.2-7.6-7.1-11.6c-0.7-3.3,1.2-6.7,2.1-10
			c1.5-5,1.1-10.4-1.1-15.1c-1.1-2.2-2.6-4.1-3.2-6.5c-1-3.7,0-8.3-2.3-11.1c0.2,3.8-2.9,6.9-3.8,10.6c-1.2,4.4,0.7,9.1-0.2,13.6
			c-0.6,2.9-2.2,5.5-3.5,8.1s-2.1,5.9-1,8.5c0.5,1.1,1.3,2,1.7,3.2c1.1,3.6-2.2,7.3-2.5,11.2s2.6,7.2,2.4,11.1
			c-0.2,3.7-2.7,9.1-2.6,12.7c0,3.4,3.4,4.9,3.8,8.3c0.5,4.3-2.7,10.2-1.8,14.4c0.5,2.3,2.6,2.7,3,5c0.4,2.7-0.8,8.5-1.3,11.3
			c-0.6,2.6,0.3,5.3,2.2,7.1l13.8,3.8C44.1,127.6,42.7,122.2,39.6,118.8z"/>
		<path id="Path_411" class="st5" d="M29.3,22.2c0.3,1.4,0.6,2.8,0.7,4.3c0.2,1.7,0.1,3.4-0.2,5.1c-0.2,1-0.6,2-1.1,3
			c-0.5,1-1.1,2-1.6,3.1c-0.6,1.1-1,2.4-1.2,3.7c-0.1,1.4,0,2.8,0.3,4.1c0.7,2.8,2.2,5.6,3.2,8.7c0.6,1.6,0.9,3.3,0.8,5
			c0,0.9-0.2,1.8-0.5,2.6c-0.3,0.8-0.6,1.6-0.9,2.5c-0.4,1.7,0.2,3.5,1,5.2c0.4,0.9,0.7,1.7,1,2.6c0.3,0.9,0.4,1.9,0.5,2.8
			c0,1.9-0.2,3.8-0.7,5.6c-0.4,1.8-0.8,3.5-1,5.3c-0.2,1.7,0,3.5,0.6,5.1c0.6,1.6,1,3.3,1.2,4.9c0,1.6-0.2,3.2-0.7,4.8
			c-0.4,1.4-0.7,2.9-0.8,4.4c0,1.4,0.3,2.8,0.7,4.1c0.4,1.2,0.8,2.5,1,3.8c0.2,1.2,0.2,2.4,0.1,3.6c-0.1,1.1-0.2,2.2-0.3,3.1
			c-0.3,1.7-0.4,3.3-0.3,5c0.1,1.1,0.4,2.1,1,3c0.4,0.6,0.7,0.9,0.6,0.9c-0.3-0.3-0.5-0.6-0.7-0.9c-0.6-0.9-0.9-2-1-3
			c-0.1-1.7-0.1-3.4,0.2-5.1c0.1-1,0.2-2,0.3-3.1c0.1-1.2,0-2.3-0.2-3.5c-0.3-1.3-0.6-2.5-1.1-3.7c-0.5-1.3-0.7-2.8-0.8-4.2
			c0.1-1.5,0.3-3,0.8-4.5c0.5-1.5,0.7-3.1,0.7-4.7c-0.2-1.7-0.6-3.3-1.1-4.9c-0.5-1.7-0.7-3.5-0.6-5.3c0.2-1.8,0.5-3.6,1-5.4
			c0.5-1.8,0.7-3.7,0.7-5.5c0-0.9-0.2-1.8-0.5-2.7c-0.3-0.9-0.7-1.7-1-2.6c-0.4-0.8-0.7-1.7-1-2.6c-0.2-0.9-0.2-1.9,0-2.8
			c0.3-0.9,0.6-1.7,0.9-2.5c0.3-0.8,0.4-1.6,0.5-2.5c0-1.7-0.2-3.3-0.8-4.9c-1-3.1-2.5-5.9-3.2-8.8c-0.4-1.4-0.5-2.8-0.3-4.2
			c0.2-1.3,0.6-2.6,1.2-3.7c0.6-1.1,1.2-2.1,1.7-3.1c0.5-0.9,0.9-1.9,1.1-2.9c0.3-1.6,0.4-3.3,0.2-5c-0.1-1.4-0.3-2.4-0.4-3.2
			c-0.1-0.3-0.1-0.6-0.1-0.8C29.4,22.4,29.4,22.3,29.3,22.2z"/>
		<path id="Path_412" class="st8" d="M23.3,129.6c-1.7,0.8-3.5-1.2-3.7-3.1s0.2-3.9-0.7-5.5c-0.8-1.4-2.4-2.2-3.3-3.6
			c-1.6-2.5-0.3-5.9-1.6-8.6c-1-2-3.5-3.2-4.2-5.3c-0.8-2.3,0.6-4.9,0-7.3c-0.7-2.5-3.6-4-4.2-6.6s1.1-5.6-0.6-7.7
			c-0.6-0.6-1.3-1.2-1.9-1.7c-1.4-1.4-1.5-3.7-1.1-5.6s1.1-3.9,0.9-5.9c-0.3-3-2.7-5.6-2.8-8.7c-0.1-2.6,1.5-5.2,0.6-7.5
			C3,53.8,3.2,57,4.8,59.1c1,1.4,2.5,2.3,3.8,3.5c2.6,2.4,4.1,5.8,4.1,9.4c0,2.3-0.6,4.8,0.6,6.8c1.5,2.4,4.9,2.8,6.7,5
			c2.5,3.1,0.6,8.3,3,11.5c0.6,0.8,1.5,1.4,2.1,2.3c1.9,2.9-0.3,7,0.9,10.4c0.9,2.4,3.4,4,4.1,6.5c0.5,1.9-0.1,4.3,1.2,5.8
			c0.6,0.6,1.3,1.1,2.1,1.5c1.3,1,2,2.7,1.7,4.4c-0.4,1.7-1.8,2.9-3.5,3"/>
		<g id="Group_14" transform="translate(0 52.56)" class="st9">
			<path id="Path_413" class="st10" d="M33.2,69.3c-0.7-0.4-1.4-1-2.1-1.5c-1.3-1.5-0.7-3.8-1.2-5.8c-0.7-2.5-3.3-4.1-4.1-6.5
				c-1.2-3.3,1.1-7.4-0.9-10.4c-0.6-0.9-1.4-1.5-2.1-2.3c-2.4-3.2-0.5-8.3-3-11.5c-1.8-2.2-5.2-2.6-6.7-5c-1.2-2-0.6-4.5-0.6-6.8
				c0-3.6-1.5-7-4.1-9.4c-1.4-1-2.7-2.2-3.8-3.5C3.1,4.5,2.9,1.3,0.6,0c1,2.4-0.6,5-0.6,7.5c0.1,3.1,2.5,5.6,2.8,8.7
				c0.2,2-0.5,3.9-0.9,5.9S1.6,26.3,3,27.7c0.7,0.5,1.4,1.1,2,1.7c1.6,2-0.1,5.1,0.6,7.7s3.5,4,4.2,6.6c0.7,2.4-0.8,5,0,7.3
				c0.8,2.2,3.2,3.3,4.2,5.3c1.3,2.6,0,6.1,1.6,8.6c0.9,1.4,2.5,2.2,3.3,3.6c0.9,1.7,0.4,3.7,0.7,5.5s2,3.9,3.7,3.1l8.1-0.3
				c1.7-0.1,3.1-1.3,3.5-3C35.2,72.1,34.6,70.3,33.2,69.3z"/>
		</g>
		<path id="Path_414" class="st8" d="M30.3,121.5c-0.8-0.5-1.5-1.2-2-2.1c-0.4-1,0.8-2.7,0.3-4.5c-0.6-2.3-3.6-5.5-4.3-7.8
			c-1-3.1,0.9-6.6-0.8-9.4c-0.5-0.8-1.6-3.1-2.1-3.8c-2.1-3-0.5-6.7-2.6-9.6c-1.5-2-5.2-3.3-6.5-5.6c-1-1.9-0.6-4.2-0.7-6.4
			c-0.1-3.3-1.3-6.4-3.6-8.8c-1.2-1-2.2-2.1-3.2-3.3c-1.3-2-1.6-5-3.5-6.2c0.8,2.2-0.4,4.7-0.2,7.1c0.2,2.9,2.2,5.3,2.5,8.2
			C3.6,71.1,3.4,73,3,74.8c-0.2,1.8-0.1,4,1.1,5.3c0.6,0.5,1.1,1,1.6,1.6c1.4,1.9,0.1,4.8,0.7,7.2S9.4,92.6,10,95s0.2,6,0.9,8.1
			c0.7,2,3,2.3,3.9,4.2c1.2,2.5,0.4,6.7,1.7,9c0.7,1.3,2.1,1.1,2.7,2.4c0.8,1.6,1.2,5.3,1.4,7c0.1,1.7,1.1,3.1,2.7,3.8l9-0.4
			C34.6,125.9,32.8,122.9,30.3,121.5z"/>
		<path id="Path_415" class="st5" d="M5.4,65.7c0,0,0.1,0.1,0.1,0.2c0.1,0.1,0.2,0.3,0.3,0.5c0.3,0.6,0.6,1.2,0.9,1.8
			c0.5,1,0.8,2,0.9,3.1c0,1.4-0.1,2.8-0.4,4.2C7,76.2,7,77,7.2,77.8c0.2,0.8,0.5,1.7,1,2.4c1,1.5,2.4,2.9,3.6,4.6
			c0.7,0.9,1.2,1.8,1.5,2.9c0.1,0.5,0.2,1.1,0.2,1.7c0,0.5-0.1,1.1-0.1,1.6c0.2,1.1,0.7,2.1,1.5,2.9c0.4,0.4,0.8,0.9,1.1,1.4
			c0.3,0.5,0.6,1,0.8,1.6c0.4,1.1,0.6,2.3,0.7,3.5c0.1,1.1,0.2,2.3,0.5,3.4c0.2,1.1,0.7,2.1,1.3,2.9c0.6,0.9,1.2,1.8,1.7,2.7
			c0.3,1,0.5,2,0.5,3c0,0.9,0.1,1.9,0.4,2.8c0.6,1.7,1.8,3,2.6,4.4c0.6,1.3,1,2.7,1.2,4.1c0.2,1,0.4,2.1,0.8,3.1
			c0.2,0.6,0.6,1.2,1.1,1.6c0.4,0.3,0.6,0.4,0.5,0.4c-0.2-0.1-0.4-0.2-0.6-0.4c-0.5-0.4-0.9-1-1.2-1.6c-0.4-1-0.7-2-0.9-3.1
			c-0.2-1.4-0.6-2.7-1.2-4c-0.7-1.4-2-2.6-2.6-4.4s-0.2-3.8-1-5.8c-0.4-0.9-1-1.8-1.6-2.7c-0.7-0.9-1.1-2-1.4-3.1
			c-0.5-2.2-0.3-4.6-1.1-6.8c-0.2-0.5-0.5-1.1-0.8-1.5c-0.3-0.5-0.7-0.9-1.1-1.3c-0.9-0.8-1.4-1.9-1.6-3.1c0-0.6,0-1.1,0.1-1.7
			c0-0.5,0-1-0.1-1.5c-0.3-1-0.8-1.9-1.4-2.8c-1.2-1.7-2.6-3.1-3.6-4.6c-0.5-0.8-0.8-1.6-1-2.5c-0.2-0.8-0.2-1.7,0-2.5
			c0.3-1.4,0.5-2.7,0.5-4.1c-0.1-1-0.4-2.1-0.8-3c-0.3-0.8-0.6-1.4-0.8-1.8l-0.2-0.5C5.5,65.8,5.4,65.8,5.4,65.7z"/>
		<path id="Path_416" class="st11" d="M10.4,122.5l3.5,7.1h42.6l4.8-7.1H10.4z"/>
		<path id="Path_417" class="st11" d="M14.9,127.1l6.4,22l28.7,0l5.8-22L14.9,127.1z"/>
		<path id="Path_418" class="st5" d="M56.3,129.5c0,0.1-9.5,0.2-21.2,0.2s-21.2-0.1-21.2-0.2s9.5-0.2,21.2-0.2
			S56.3,129.4,56.3,129.5z"/>
	</g>
	<g id="freepik--post-1--inject-137" transform="translate(125.599 63.443)">
		<rect id="Rectangle_31" x="0.2" y="0.4" class="st2" width="234.4" height="124.9"/>
		<path id="Path_419" class="st5" d="M234.6,125.3c0-1.5-0.1-48.1-0.2-124.9l0.2,0.2L0.3,0.6l0,0l0.3-0.2v124.9L0.3,125l168.5,0.1
			l48.5,0.1h0.1l-48.4,0.1L0.2,125.4H0V0h0.3l234.4,0.1h0.2v0.2C234.7,77.2,234.6,123.8,234.6,125.3z"/>
		<path id="Path_420" class="st5" d="M129.2,20.8c0,0.1-16.6,0.2-37.2,0.2s-37.1-0.1-37.1-0.2s16.6-0.2,37.1-0.2
			S129.2,20.6,129.2,20.8z"/>
		<path id="Path_421" class="st1" d="M113.9,29.1c0,0.1-12.7,0.2-28.4,0.2s-28.4-0.1-28.4-0.2s12.7-0.2,28.4-0.2
			S113.9,29,113.9,29.1z"/>
		<path id="Path_422" class="st5" d="M141.4,84.4c0-1-0.8-1.6-2.1-1.6c-1.1,0-2.2,0.5-2.9,1.4l-2.4-1.4c1.3-1.8,3.4-2.8,5.5-2.6
			c2.9,0,5,1.3,5,3.6c0,3.1-3.3,3.5-3.3,5.6h-3C138.3,86.8,141.4,86.2,141.4,84.4z M137.9,92.6c-0.2-1,0.5-2.1,1.5-2.3
			c1-0.2,2.1,0.5,2.3,1.5c0.2,1-0.5,2.1-1.5,2.3c-0.1,0-0.3,0-0.4,0C138.9,94.2,138.1,93.5,137.9,92.6L137.9,92.6z"/>
		<path id="Path_423" class="st5" d="M34.9,63.6c0,1,0.8,1.6,2.1,1.6c1.1,0,2.2-0.5,2.9-1.5l2.4,1.4c-1.3,1.8-3.4,2.8-5.5,2.6
			c-2.9,0-5-1.3-5-3.6c0-3.1,3.3-3.5,3.3-5.6h3C38,61.3,34.9,61.9,34.9,63.6z M38.4,55.4c0.2,1-0.5,2.1-1.5,2.3
			c-1,0.2-2.1-0.5-2.3-1.5c-0.2-1,0.5-2.1,1.5-2.3c0.1,0,0.3,0,0.4,0C37.4,53.9,38.2,54.5,38.4,55.4z"/>
		<path id="Path_424" class="st5" d="M207,62.8c0,0.1-35.9,0.2-80.1,0.2S46.8,63,46.8,62.8s35.9-0.2,80.1-0.2S207,62.7,207,62.8z"/>
		<path id="Path_425" class="st5" d="M207,74.7c0,0.1-39.4,0.2-87.8,0.2s-87.9-0.1-87.9-0.2s39.4-0.2,87.9-0.2S207,74.5,207,74.7z"
			/>
		<path id="Path_426" class="st5" d="M128.1,89.3c0,0.1-21.8,0.2-48.7,0.2s-48.7-0.1-48.7-0.2s21.8-0.2,48.7-0.2
			S128.1,89.2,128.1,89.3z"/>
		<path id="Path_427" class="st8" d="M39.1,111.4v1H35v-0.8l2.1-2c0.5-0.5,0.6-0.7,0.6-1c0-0.4-0.3-0.7-0.9-0.7
			c-0.4,0-0.9,0.2-1.1,0.6l-1-0.6c0.5-0.7,1.3-1.1,2.2-1c1.2,0,2.1,0.6,2.1,1.6c0,0.7-0.4,1.4-1,1.7l-1.3,1.2L39.1,111.4z"/>
		<path id="Path_428" class="st8" d="M47.7,111.3h-2.6l-0.5,1.2h-1.3l2.5-5.5H47l2.5,5.5h-1.3L47.7,111.3z M47.3,110.3l-0.9-2.1
			l-0.9,2.1H47.3z"/>
		<path id="Path_429" class="st8" d="M54.3,110v2.4h-1.2v-2.2c0-0.7-0.3-1-0.9-1c-0.6,0-1,0.4-1,1c0,0,0,0.1,0,0.1v2.1H50v-4.2h1.2
			v0.5c0.4-0.4,0.9-0.6,1.4-0.6c0.9-0.1,1.7,0.6,1.8,1.6C54.4,109.8,54.3,109.9,54.3,110L54.3,110z"/>
		<path id="Path_430" class="st8" d="M55,112.1l0.4-0.9c0.4,0.3,1,0.4,1.5,0.4c0.6,0,0.8-0.2,0.8-0.4c0-0.7-2.6,0-2.6-1.7
			c0-0.8,0.7-1.4,2-1.4c0.6,0,1.1,0.1,1.6,0.4l-0.4,0.9c-0.4-0.2-0.8-0.3-1.2-0.3c-0.5,0-0.8,0.2-0.8,0.4c0,0.7,2.6,0,2.6,1.7
			c0,0.8-0.7,1.4-2,1.4C56.2,112.6,55.6,112.4,55,112.1z"/>
		<path id="Path_431" class="st8" d="M66.4,108.2l-1.5,4.2h-1.2l-1-2.6l-1,2.6h-1.2l-1.5-4.2h1.2l1,2.9l1-2.9h1l1,2.9l1-2.9H66.4z"
			/>
		<path id="Path_432" class="st8" d="M71,110.7h-3.2c0.1,0.5,0.7,0.9,1.2,0.9c0.4,0,0.8-0.1,1.1-0.4l0.7,0.7c-1,0.9-2.6,0.9-3.5-0.1
			c-0.4-0.4-0.6-0.9-0.7-1.4c0-1.2,1-2.2,2.1-2.2c0,0,0.1,0,0.1,0c1.2-0.1,2.2,0.8,2.2,2c0,0.1,0,0.1,0,0.2
			C71,110.5,71,110.6,71,110.7z M67.8,110h2.1c-0.1-0.6-0.7-1-1.2-0.8C68.2,109.2,67.8,109.6,67.8,110z"/>
		<path id="Path_433" class="st8" d="M74.5,108.2v1.1h-0.3c-0.6,0-1.1,0.4-1.1,1c0,0.1,0,0.2,0,0.2v2h-1.2v-4.2H73v0.6
			C73.4,108.4,73.9,108.1,74.5,108.2L74.5,108.2z"/>
		<circle id="Ellipse_16" class="st5" cx="31" cy="24.2" r="15.3"/>
		<path id="Path_434" class="st2" d="M36.5,22.5c0,3-2.4,5.5-5.5,5.5c-3,0-5.5-2.4-5.5-5.5S28,17,31,17c0,0,0,0,0,0
			C34,17,36.5,19.5,36.5,22.5z"/>
		<path id="Path_435" class="st2" d="M22.7,35.5c0,0,2.7-5.4,8.3-5.4s8.6,5.2,8.6,5.2c-2.4,2.1-5.5,3.2-8.6,3.1
			C25.5,38.3,22.7,35.5,22.7,35.5z"/>
	</g>
	<g id="freepik--Floor--inject-137" transform="translate(48.606 462.739)">
		<path id="Path_436" class="st5" d="M412.2,0.2c0,0.1-92.3,0.2-206.1,0.2S0,0.4,0,0.2S92.3,0,206.1,0S412.2,0.1,412.2,0.2z"/>
	</g>
	<g id="freepik--Character--inject-137" transform="translate(175.404 118.062)">
		<path id="Path_437" class="st11" d="M114.3,94.9c0,0-4,21.5-3.5,22.8s6.7,7.3,8.9,6.7c0.6-0.3,1.1-0.8,1.6-1.3l8.4-2.9l-4.2-36.4
			l-6.7,13.8L114.3,94.9z"/>
		<path id="Path_438" class="st5" d="M121.2,123.2c-0.1,0,0.4-1.4,0.6-3.7c0.3-3,0.2-6.1-0.1-9.1c-0.3-3-0.9-6-1.7-9
			c-0.6-2.3-1.3-3.6-1.2-3.6c0.2,0.3,0.4,0.6,0.5,0.9c0.4,0.8,0.7,1.7,1,2.6c0.9,2.9,1.6,6,1.9,9c0.4,3.1,0.4,6.2,0,9.2
			c-0.1,0.9-0.3,1.8-0.6,2.7C121.5,122.5,121.4,122.9,121.2,123.2z"/>
		<path id="Path_439" class="st12" d="M159.8,33.8c1.6-1.9,2.9-3.9,4.1-6.1c1.1-2.2,1.5-4.7,1-7.2c-0.3-1.4-1-2.7-1.3-4.1
			c-0.3-1.9,0.4-4.1-0.5-5.9c-1.3-2.8-5.3-3-7.8-4.8c-1.9-1.4-3.1-3.8-5.2-5c-2-0.8-4.1-1-6.2-0.4c-2.1,0.4-4.1,1.1-6.2,1
			c-1.5-0.2-3-0.5-4.4-0.8c-1.5-0.4-3-0.1-4.4,0.6c-1.2,0.8-1.8,2.7-0.9,3.9c-2.5-1-5.4,1.2-5.9,3.8s1.1,5.3,3.3,6.8
			c2.3,1.4,4.9,2.3,7.6,2.4c7.5,0.9,15.5-0.5,21.6-5"/>
		<path id="Path_440" class="st13" d="M160,24.3l-1.9,37.4c-0.3,6.1-5.6,10.9-11.7,10.5c-0.2,0-0.4,0-0.6,0l0,0
			c-6-0.6-10.6-1.5-10.2-7.5c0.1-2.8,0.4-9.4,0.4-9.7c0,0-9.5-1.4-9.8-10.9c-0.1-4.6,0.5-14,1.1-22.6c0.7-9.2,8.3-16.3,17.5-16.3h1
			C155.6,5.8,160.7,14.5,160,24.3z"/>
		<path id="Path_441" class="st13" d="M135.9,54.9c4.4,0.1,8.7-1.2,12.4-3.6c0,0-2.9,6.8-12.4,6L135.9,54.9z"/>
		<path id="Path_442" class="st5" d="M129.5,29.7c0,0.7,0.6,1.3,1.3,1.4c0.7,0.1,1.3-0.5,1.4-1.2c0,0,0,0,0-0.1
			c0-0.7-0.6-1.3-1.3-1.4C130.1,28.5,129.5,29,129.5,29.7C129.5,29.7,129.5,29.7,129.5,29.7z"/>
		<path id="Path_443" class="st5" d="M129.3,26.2c0.2,0.2,1.2-0.6,2.7-0.6s2.5,0.7,2.7,0.5s-0.1-0.4-0.6-0.7
			c-0.6-0.4-1.4-0.7-2.2-0.7c-0.8,0-1.5,0.2-2.1,0.7C129.4,25.8,129.3,26.2,129.3,26.2z"/>
		<path id="Path_444" class="st5" d="M143.3,30.5c0,0.7,0.6,1.3,1.3,1.4c0.7,0.1,1.3-0.5,1.4-1.2c0,0,0,0,0,0c0-0.7-0.6-1.3-1.3-1.4
			C144,29.2,143.3,29.7,143.3,30.5C143.3,30.4,143.3,30.4,143.3,30.5L143.3,30.5z"/>
		<path id="Path_445" class="st5" d="M143.7,26.4c0.2,0.2,1.2-0.6,2.6-0.6s2.5,0.7,2.7,0.5s-0.1-0.4-0.6-0.7
			c-0.6-0.4-1.4-0.7-2.2-0.7c-0.8,0-1.5,0.2-2.1,0.7C143.8,26,143.6,26.3,143.7,26.4z"/>
		<path id="Path_446" class="st5" d="M138.5,37.3c-0.8-0.2-1.6-0.4-2.4-0.4c-0.4,0-0.7-0.1-0.8-0.4c0-0.4,0-0.8,0.2-1.1
			c0.3-0.9,0.7-1.9,1.1-2.9c1.5-4,2.6-7.4,2.4-7.4s-1.5,3.2-3,7.2c-0.4,1-0.7,1.9-1,2.9c-0.2,0.5-0.3,1-0.2,1.5
			c0.1,0.3,0.3,0.5,0.6,0.5c0.2,0.1,0.4,0.1,0.6,0.1C136.9,37.4,137.7,37.4,138.5,37.3z"/>
		<path id="Path_447" class="st5" d="M142.8,38.2c-0.2,0-0.2,1.6-1.6,2.7s-3,1-3.1,1.2s0.4,0.3,1.1,0.3c0.9,0,1.8-0.3,2.6-0.9
			c0.7-0.6,1.1-1.4,1.2-2.3C143.1,38.6,143,38.2,142.8,38.2z"/>
		<path id="Path_448" class="st12" d="M143.3,20.7c0.2,0.4,1.6,0.2,3.3,0.4s3.1,0.7,3.3,0.3c0.1-0.2-0.1-0.5-0.7-1
			c-0.7-0.5-1.6-0.8-2.5-0.8c-0.9-0.1-1.8,0-2.6,0.3C143.5,20.2,143.2,20.5,143.3,20.7z"/>
		<path id="Path_449" class="st12" d="M129.8,22c0.3,0.3,1.3,0,2.5,0s2.2,0.2,2.5-0.1c0.1-0.2-0.1-0.5-0.5-0.8
			c-1.2-0.8-2.8-0.7-4,0.1C129.9,21.5,129.7,21.9,129.8,22z"/>
		<path id="Path_450" class="st13" d="M159.3,31.3c0.2-0.1,6.5-1.9,6.4,4.5s-6.7,5-6.7,4.8S159.3,31.3,159.3,31.3z"/>
		<path id="Path_451" class="st14" d="M161,38.2c0.1,0.1,0.2,0.1,0.3,0.2c0.3,0.1,0.6,0.1,0.9,0c0.9-0.5,1.4-1.5,1.4-2.5
			c0-0.6-0.1-1.1-0.3-1.6c-0.1-0.4-0.4-0.8-0.8-0.9c-0.3-0.1-0.5,0.1-0.7,0.3c-0.1,0.2-0.1,0.3-0.1,0.3s-0.1-0.1-0.1-0.4
			c0-0.2,0.1-0.3,0.3-0.4c0.2-0.1,0.4-0.2,0.6-0.2c0.5,0.1,1,0.5,1.2,1c0.3,0.6,0.4,1.2,0.4,1.8c0,1.2-0.6,2.3-1.7,2.8
			c-0.4,0.1-0.7,0-1-0.2C161.1,38.4,161,38.2,161,38.2z"/>
		<path id="Path_452" class="st12" d="M127,12.8c0.6,2.5,6,4.5,10.4,4.1c4-0.4,5.8-2.5,8.6-4.1c1.8-1,1.8-1,4.3-0.8
			c2,0.2,3.3,2.5,4.5,4.1c-1.8,4.8-0.5,10.2,0.8,15.2c0.1,0.6,0.4,1.1,0.8,1.5c0.9,0.5,2,0.2,2.6-0.6c1-1.2,1.6-2.7,1.7-4.2
			c0.6-3.5,0.6-7.1-0.2-10.5c-0.8-3.5-2.5-6.6-5.1-9.1c-3.3-3-7.7-4.6-12.2-4.5c-4.5,0.2-8.7,1.7-12.3,4.4
			C129.3,9.3,128,10.9,127,12.8"/>
		<path id="Path_453" class="st5" d="M137,30.4c-0.1,0,0.1-0.5,0-1.5c-0.1-1.4-0.7-2.7-1.6-3.7c-1.4-1.5-3.4-2.2-5.4-1.9
			c-3.2,0.5-5.4,3.6-4.9,6.8c0.3,1.7,1.3,3.3,2.8,4.2c1.8,1.1,3.9,1.2,5.8,0.3c1.2-0.6,2.3-1.6,2.9-2.8
			C136.9,30.9,137,30.4,137,30.4c0.1,0.1,0.1,0.2,0,0.4c-0.1,0.4-0.2,0.7-0.3,1.1c-0.6,1.3-1.6,2.4-2.9,3c-3.1,1.6-7,0.4-8.7-2.7
			c-1.6-3.1-0.4-7,2.7-8.7c2.6-1.4,5.8-0.8,7.8,1.5c0.9,1.1,1.5,2.4,1.5,3.8c0,0.4,0,0.8-0.1,1.1C137.1,30.3,137,30.4,137,30.4z"/>
		<path id="Path_454" class="st5" d="M152.5,30.7c-0.1,0,0.1-0.5,0-1.5c-0.1-1.4-0.7-2.7-1.6-3.7c-1.4-1.5-3.4-2.2-5.4-1.9
			c-1.2,0.2-2.2,0.7-3.1,1.5c-2.4,2.2-2.5,6-0.3,8.4c0.4,0.4,0.8,0.8,1.3,1c1.8,1.1,3.9,1.2,5.8,0.3c1.2-0.6,2.3-1.6,2.9-2.8
			C152.4,31.2,152.5,30.7,152.5,30.7c0.1,0.1,0.1,0.2,0.1,0.4c-0.1,0.4-0.2,0.7-0.3,1.1c-0.6,1.3-1.6,2.4-2.9,3
			c-3.1,1.6-7,0.4-8.7-2.7c-1.6-3.1-0.4-7,2.7-8.7c2.6-1.4,5.8-0.8,7.8,1.5c0.9,1.1,1.5,2.5,1.5,3.9c0,0.4,0,0.8-0.1,1.1
			C152.5,30.6,152.5,30.7,152.5,30.7z"/>
		<path id="Path_455" class="st5" d="M140.1,28.5c-0.1,0.1-0.8-0.4-1.8-0.3s-1.6,0.8-1.7,0.7s0-0.3,0.3-0.5c0.4-0.4,0.8-0.6,1.4-0.6
			c0.5-0.1,1,0.1,1.5,0.3C140,28.3,140.1,28.5,140.1,28.5z"/>
		<path id="Path_456" class="st5" d="M161.3,30.7c-1.5-0.1-3.1-0.3-4.5-0.7c-1.5-0.2-3-0.6-4.4-1.2c1.5,0.1,3.1,0.3,4.5,0.7
			C158.3,29.8,159.8,30.2,161.3,30.7z"/>
		<path id="Path_457" class="st10" d="M125.2,6.2c0,0.2,0,0.4,0,0.6c0.1,0.6,0.3,1.1,0.7,1.5c0.5,0.7,1.3,1.1,2.1,1.4
			c1,0.3,2,0.4,3,0.4c1.9,0.1,3.7,0.1,5.6,0l1.7-0.1l0.5-0.1h-0.5l-1.7,0.1c-1.4,0.1-3.4,0.1-5.5,0c-1,0-2-0.1-3-0.4
			c-0.8-0.2-1.5-0.7-2-1.3c-0.4-0.4-0.6-0.9-0.7-1.5C125.3,6.6,125.3,6.4,125.2,6.2z"/>
		<path id="Path_458" class="st10" d="M123.6,7.4c0,0.6,0,1.2,0.2,1.8c0.8,3,3.3,5.2,6.3,5.6c0.6,0.1,1.2,0.1,1.8,0h-0.5
			c-0.4,0-0.9,0-1.3-0.1c-3-0.5-5.4-2.6-6.2-5.5c-0.1-0.4-0.2-0.9-0.3-1.3C123.6,7.5,123.6,7.4,123.6,7.4z"/>
		<path id="Path_459" class="st8" d="M154.1,307.7l10.9,17.5c0,0-14.1,16.9-12.5,20.4l34.7-19.9l-15.8-28L154.1,307.7z"/>
		<path id="Path_460" class="st1" d="M174.8,317.6c0.8-0.2,1.6,0.3,1.9,1.1c0.2,0.8-0.2,1.7-1,1.9c-0.9,0.2-1.7-0.3-2-1.1
			c-0.1-0.9,0.4-1.7,1.3-1.9"/>
		<path id="Path_461" class="st10" d="M187.2,325.7l-1.7-2.8L152.8,343c0,0-1.2,1.6-0.4,2.5L187.2,325.7z"/>
		<path id="Path_462" class="st5" d="M164.3,325.4c0.1,0.2,1-0.2,2.1-0.2s2,0.5,2.1,0.4s-0.7-1-2.1-1S164.2,325.2,164.3,325.4z"/>
		<path id="Path_463" class="st5" d="M161.5,329c0,0.2,1,0.1,1.9,0.4s1.6,1,1.7,1s-0.3-1.1-1.5-1.6S161.4,328.8,161.5,329z"/>
		<path id="Path_464" class="st5" d="M161.9,334.5c0.2-0.1-0.1-1-1-1.7s-2-0.6-1.9-0.4s0.8,0.4,1.6,1S161.8,334.6,161.9,334.5z"/>
		<path id="Path_465" class="st5" d="M162.2,321.1c0.2,0.1,0.8-0.6,1.8-1.1s1.9-0.6,1.9-0.8s-1.1-0.4-2.2,0.2S162.1,321,162.2,321.1
			z"/>
		<path id="Path_466" class="st1" d="M174.8,317.6c0.8-0.2,1.6,0.3,1.9,1.1c0.2,0.8-0.2,1.7-1,1.9c-0.9,0.2-1.7-0.3-2-1.1
			c-0.1-0.9,0.4-1.7,1.3-1.9"/>
		<path id="Path_467" class="st10" d="M187.2,325.7l-1.7-2.8L152.8,343c0,0-1.2,1.6-0.4,2.5L187.2,325.7z"/>
		<path id="Path_468" class="st5" d="M164.3,325.4c0.1,0.2,1-0.2,2.1-0.2s2,0.5,2.1,0.4s-0.7-1-2.1-1S164.2,325.2,164.3,325.4z"/>
		<path id="Path_469" class="st5" d="M161.5,329c0,0.2,1,0.1,1.9,0.4s1.6,1,1.7,1s-0.3-1.1-1.5-1.6S161.4,328.8,161.5,329z"/>
		<path id="Path_470" class="st5" d="M161.9,334.5c0.2-0.1-0.1-1-1-1.7s-2-0.6-1.9-0.4s0.8,0.4,1.6,1S161.8,334.6,161.9,334.5z"/>
		<path id="Path_471" class="st5" d="M162.2,321.1c0.2,0.1,0.8-0.6,1.8-1.1s1.9-0.6,1.9-0.8s-1.1-0.4-2.2,0.2S162.1,321,162.2,321.1
			z"/>
		<path id="Path_472" class="st8" d="M152.4,313.3l1.2,20.6c0,0-20.5,8.1-20.7,11.9l39.9-0.8l-0.5-32.1L152.4,313.3z"/>
		<path id="Path_473" class="st1" d="M165.9,331.9c0.8,0.2,1.3,1,1.2,1.8c-0.2,0.8-1,1.3-1.8,1.2c-0.8-0.2-1.4-1.1-1.2-1.9
			c0.3-0.8,1.2-1.3,2-1"/>
		<path id="Path_474" class="st10" d="M172.8,344.9l-0.2-3.2l-38.2,2c0,0-1.8,0.8-1.5,2.1L172.8,344.9z"/>
		<path id="Path_475" class="st5" d="M152.9,333.7c0,0.2,1,0.3,1.9,0.9s1.5,1.4,1.7,1.3s-0.1-1.2-1.3-1.9S152.8,333.5,152.9,333.7z"
			/>
		<path id="Path_476" class="st5" d="M148.7,335.5c0,0.2,0.8,0.5,1.5,1.3s0.9,1.7,1.1,1.7s0.3-1.1-0.6-2.1S148.7,335.3,148.7,335.5z
			"/>
		<path id="Path_477" class="st5" d="M146.5,340.5c0.2,0,0.4-1-0.1-2s-1.5-1.5-1.5-1.3s0.5,0.7,0.9,1.6S146.3,340.5,146.5,340.5z"/>
		<path id="Path_478" class="st5" d="M153.1,329c0.1,0.2,1-0.1,2.1-0.1s1.9,0.4,2.1,0.2s-0.7-0.8-2-0.9S153,328.8,153.1,329z"/>
		<path id="Path_479" class="st1" d="M165.9,331.9c0.8,0.2,1.3,1,1.2,1.8c-0.2,0.8-1,1.3-1.8,1.2c-0.8-0.2-1.4-1.1-1.2-1.9
			c0.3-0.8,1.2-1.3,2-1"/>
		<path id="Path_480" class="st10" d="M172.8,344.9l-0.2-3.2l-38.2,2c0,0-1.8,0.8-1.5,2.1L172.8,344.9z"/>
		<path id="Path_481" class="st5" d="M152.9,333.7c0,0.2,1,0.3,1.9,0.9s1.5,1.4,1.7,1.3s-0.1-1.2-1.3-1.9S152.8,333.5,152.9,333.7z"
			/>
		<path id="Path_482" class="st5" d="M148.7,335.5c0,0.2,0.8,0.5,1.5,1.3s0.9,1.7,1.1,1.7s0.3-1.1-0.6-2.1S148.7,335.3,148.7,335.5z
			"/>
		<path id="Path_483" class="st5" d="M146.5,340.5c0.2,0,0.4-1-0.1-2s-1.5-1.5-1.5-1.3s0.5,0.7,0.9,1.6S146.3,340.5,146.5,340.5z"/>
		<path id="Path_484" class="st5" d="M153.1,329c0.1,0.2,1-0.1,2.1-0.1s1.9,0.4,2.1,0.2s-0.7-0.8-2-0.9S153,328.8,153.1,329z"/>
		<path id="Path_485" class="st15" d="M169.3,181.3c0,0,2.5,11.3,1.4,12.9c-1.2,2.2-2.2,4.5-3,6.9l1.7,50.9l4.9,74.9h-23.8l-10.2-66
			c-2.1-3.6-3.7-7.3-5-11.3c-1.4-5.2-9.5-57.3-9.5-57.3v-20.1L169.3,181.3z"/>
		<path id="Path_486" class="st15" d="M115,173.7c0,0,5,68.2,6.6,74.3s35.5,68,35.5,68l20.4-10l-27.1-65.4v-63.1L115,173.7z"/>
		<path id="Path_487" class="st11" d="M123.2,179.6c0,0.1,0,0.3,0,0.4c0,0.3,0.1,0.7,0.2,1.1c0.2,1,0.4,2.5,0.7,4.3
			c0.6,3.8,1.4,9.2,2.5,15.9s2.4,14.7,3.8,23.6c0.7,4.4,1.4,9.1,2.3,13.9c0.8,5,2,9.9,3.7,14.7c1.8,4.9,4.3,9.3,5.2,14.2
			c1,4.8,1.7,9.4,2.4,13.9c1.3,8.9,2.4,16.9,3.4,23.6c0.9,6.7,1.7,12.2,2.2,16c0.3,1.9,0.5,3.3,0.7,4.3c0.1,0.5,0.2,0.8,0.2,1.1
			c0,0.1,0,0.3,0.1,0.4c0-0.1,0-0.3,0-0.4c0-0.4-0.1-0.8-0.2-1.1c-0.1-1-0.3-2.5-0.6-4.3c-0.5-3.8-1.2-9.2-2.1-16
			s-1.9-14.8-3.2-23.7c-0.7-4.4-1.4-9.1-2.4-13.9c-0.9-4.9-3.4-9.4-5.2-14.2c-1.7-4.8-2.9-9.6-3.7-14.6c-0.8-4.8-1.6-9.5-2.3-13.9
			c-1.5-8.9-2.8-16.9-3.8-23.6s-2-12.1-2.6-15.9l-0.7-4.3c-0.1-0.5-0.2-0.8-0.2-1.1C123.3,179.8,123.2,179.7,123.2,179.6z"/>
		<path id="Path_488" class="st11" d="M171.6,286.7c0,0.5,0,1.1,0,1.6c0,1,0.1,2.5,0.2,4.3c0.2,3.6,0.6,8.6,1,14.1s0.8,10.5,1,14.1
			c0.1,1.7,0.2,3.2,0.3,4.3c0,0.5,0.1,1,0.2,1.6c0-0.5,0-1.1,0-1.6c0-1,0-2.5-0.1-4.3c-0.1-3.6-0.5-8.6-0.9-14.1s-0.8-10.4-1.1-14.1
			c-0.2-1.7-0.3-3.2-0.4-4.3C171.7,287.8,171.7,287.3,171.6,286.7L171.6,286.7z"/>
		<path id="Path_489" class="st16" d="M135.5,62.5l-2.8,1.9c0,0-11.2,25-13.1,33.1c-1.9,8.1-9.9,93.1-9.9,93.1l6.6,0.5v-13.3
			L135.5,62.5z"/>
		<path id="Path_490" class="st8" d="M135.3,64c0,0-9.1,19.2-11.3,29.8c-1.7,8.2-10.9,84-10.9,84l26.6-1.3L155.7,83l3.4-24.4
			c0,0-15.7,9.6-19.3,9C137.8,67.3,136,66,135.3,64z"/>
		<path id="Path_491" class="st16" d="M178.1,71.8l-17-13.3l-0.6-4l-20.9,12.6l-10.1,122.6h43.4l-5-50.2l9.2-53.9L178.1,71.8z"/>
		<path id="Path_492" class="st5" d="M139.7,66.9c0.1,0.4,0.2,0.8,0.3,1.2l1,3.1c0.1,0.3,0.2,0.7,0.3,1c0.1,0.4,0.3,0.8,0.6,1.1
			c0.5,0.2,1,0.1,1.4-0.2c0.3-0.3,0.7-0.6,1.1-0.8l4.7-3.7c3.3-2.7,6.2-5.1,8.3-7c1-1,1.9-1.7,2.4-2.2c0.3-0.3,0.6-0.6,0.8-0.9
			c-0.3,0.2-0.7,0.5-1,0.7l-2.5,2.1c-2.1,1.8-5.1,4.2-8.4,6.9l-4.7,3.8c-0.7,0.5-1.4,1.4-1.9,1.1c-0.2-0.2-0.3-0.6-0.5-1l-0.4-1
			l-1.2-3.1C140.1,67.6,139.9,67.3,139.7,66.9L139.7,66.9z"/>
		<path id="Path_493" class="st5" d="M124,84.6c0,0.1,0,0.2-0.1,0.3l-0.2,0.8c-0.2,0.7-0.5,1.7-0.8,2.9s-0.7,2.9-1,4.7
			s-0.8,4-1.1,6.3c-1.6,9.4-3.3,22.4-4.9,36.8s-2.9,27.5-3.8,36.9c-0.5,4.7-0.9,8.5-1.1,11.2c-0.1,1.3-0.2,2.3-0.3,3
			c0,0.3-0.1,0.6-0.1,0.8c0,0.1,0,0.2,0,0.3c0-0.1,0-0.2,0-0.3l0-0.8c0.1-0.7,0.1-1.8,0.2-3.1c0.2-2.7,0.6-6.5,1-11.2
			c0.9-9.5,2.1-22.5,3.7-36.9s3.4-27.4,5.1-36.8c0.4-2.3,0.9-4.4,1.2-6.3s0.8-3.4,1.1-4.7s0.7-2.3,0.9-2.9c0.1-0.3,0.2-0.6,0.2-0.7
			C124,84.7,124,84.7,124,84.6z"/>
		
			<rect id="Rectangle_32" x="3.9" y="92.9" transform="matrix(0.997 -7.700239e-02 7.700239e-02 0.997 -10.8096 10.5754)" class="st2" width="255.7" height="105.1"/>
		<path id="Path_494" class="st5" d="M263.2,188c-0.1-1.4-3.2-40.1-8.3-104.8l0.2,0.2L0.3,103.2l0,0l0.2-0.3
			c2.9,36.7,5.6,72.1,8.1,104.8l-0.3-0.2l182.8-14L263.2,188c0,0-0.4,0-1.2,0.1l-3.6,0.3l-14.1,1.1l-52.9,4.2l-183,14.3H8.1v-0.2
			C5.6,175.1,2.8,139.6,0,102.9v-0.2h0.2L255.1,83h0.2v0.2C260.2,147.9,263.1,186.6,263.2,188z"/>
		<circle id="Ellipse_17" class="st0" cx="35.3" cy="131.9" r="15"/>
		<path id="Path_495" class="st8" d="M142.4,118.1c0,0.1-18.1,1.7-40.4,3.4s-40.4,3-40.4,2.9s18.1-1.6,40.4-3.4
			S142.4,118,142.4,118.1z"/>
		<path id="Path_496" class="st1" d="M123.3,130.9c0,0.1-13.8,1.3-30.8,2.6s-30.9,2.3-30.9,2.1s13.8-1.3,30.8-2.6
			S123.3,130.8,123.3,130.9z"/>
		<path id="Path_497" class="st5" d="M229.3,146c0,0.1-42.8,3.6-95.5,7.6s-95.5,7.3-95.6,7.1s42.7-3.6,95.5-7.6
			S229.3,145.9,229.3,146z"/>
		<path id="Path_498" class="st5" d="M230.3,158.9c0,0.1-42.8,3.6-95.5,7.6s-95.5,7.3-95.6,7.1s42.7-3.6,95.5-7.6
			S230.3,158.8,230.3,158.9z"/>
		<path id="Path_499" class="st16" d="M155.1,79.6c0.9-7.2,7.4-12.4,14.7-11.6c1.7,0.2,3.3,0.7,4.8,1.5c4.1,2.2,7.8,6,10.2,12.1
			c6.1,15.8,18.4,40.2,16.1,45.5s-14.6,9.6-14.6,9.6l-11.4-19.4l-3.8,0.6l-17.3-29.6C153.8,88.4,154.5,84.8,155.1,79.6z"/>
		<path id="Path_500" class="st5" d="M181,110.8c-0.5-0.3-1.1-0.4-1.6-0.3c-2.8,0.1-5,2.5-4.9,5.4c0,0.1,0,0.1,0,0.2
			c0,0.6,0.1,1.1,0.5,1.6c0.1,0-0.1-0.6-0.1-1.6c0-1.3,0.5-2.5,1.3-3.4c0.9-0.9,2-1.5,3.3-1.7C180.4,110.7,181,110.9,181,110.8z"/>
		<path id="Path_501" class="st5" d="M156.3,80.5c0.1,0,0.3-1.5,1.3-3.8c0.6-1.3,1.3-2.6,2.2-3.7c1.1-1.4,2.4-2.6,4-3.4
			c1.6-0.8,3.3-1.2,5.1-1.2c1.4-0.1,2.9,0.1,4.3,0.6c1.3,0.4,2.5,1,3.5,1.8c-0.1-0.1-0.1-0.1-0.2-0.2c-0.2-0.2-0.4-0.4-0.6-0.5
			c-0.8-0.6-1.7-1.1-2.6-1.4c-1.4-0.5-2.9-0.7-4.4-0.7c-1.8,0-3.6,0.4-5.3,1.2c-1.6,0.9-3,2.1-4.1,3.6c-0.9,1.2-1.6,2.5-2.1,3.8
			c-0.4,0.9-0.6,1.9-0.8,2.9C156.3,79.7,156.3,80.1,156.3,80.5z"/>
		<path id="Path_502" class="st13" d="M174.9,117.4l-36.6,0.2l-1.7,11.7c0,0,28.5,6.7,48.2,5L174.9,117.4z"/>
		<path id="Path_503" class="st13" d="M124.6,105.4c0,0,7,0.6,8,0.8s5.2,3.5,5.2,3.5l2,9.4l-3.2,10.2c-2.2-0.4-4.3-1-6.3-2
			c-2.9-1.5-7.2-8.1-7.2-8.1s-2.8,0.1-3-0.3s-1-2.4,0-2.9c0,0-0.7-2.7,0.3-3.4l1.3-0.2c0,0-1.2-3.4,1.1-3.4
			C123,109,121.8,105.8,124.6,105.4z"/>
		<path id="Path_504" class="st14" d="M123.1,108.7c0,0.1,1.9,0,4.3,0.2s4.3,0.5,4.3,0.4c-1.3-0.6-2.8-0.9-4.3-0.9
			C126,108.2,124.5,108.3,123.1,108.7L123.1,108.7z"/>
		<path id="Path_505" class="st14" d="M121.3,112.3c0,0.1,0.4,0.1,1.1,0.1l2.6,0.2c1.2,0.1,2.5,0.1,3.7-0.1
			c-1.2-0.3-2.5-0.4-3.7-0.4c-0.9-0.1-1.8-0.1-2.6,0C121.7,112.1,121.3,112.3,121.3,112.3z"/>
		<path id="Path_506" class="st14" d="M126.6,115.3c-2.1-0.9-4.4-0.7-6.3,0.7c0.1,0.1,1.4-0.5,3.1-0.7S126.6,115.4,126.6,115.3z"/>
		<path id="Path_507" class="st13" d="M95.2,93.9c-0.7-1-1.5-1.9-2.4-2.7c-0.8-0.5-1.8-0.5-2.6-0.1l-0.5,0.4c0,0-2.7-1.3-4-0.4
			c0,0-2.5-1.3-3.8,0c0,0-1.9-1.4-2.9-0.3c-0.8,1.2-1,2.7-0.5,4c0.4,1,1,4.4,1.6,4.5c0,0,1.6,0.2,1.8-0.6s0.4-1.3,0.4-1.3
			s0.5,3.1,1.2,3.3s2.1,0.2,2.2-1.2c0,0,0.6,1,1.3,0.8s1.5-0.7,1.5-1.5s0-1.7,0-1.7s0.3,1.2,1,1s1.2-0.2,1.6-1.2s1.3-3,1.3-3
			L95.2,93.9z"/>
		<path id="Path_508" class="st14" d="M88.5,97c0,0-0.1-0.3-0.2-0.9c-0.2-0.7-0.2-1.4,0-2.1c0.2-0.7,0.5-1.4,0.9-1.9
			c0.3-0.4,0.6-0.7,0.6-0.7S89.4,91.6,89,92c-0.5,0.5-0.9,1.2-1,1.9c-0.2,0.7-0.1,1.5,0.1,2.2C88.2,96.4,88.3,96.8,88.5,97z"/>
		<path id="Path_509" class="st14" d="M85.5,91.1c-0.2,0.4-0.3,0.8-0.4,1.2c-0.2,1-0.3,2-0.3,3c0,1,0.2,2,0.5,3
			c0.1,0.4,0.3,0.8,0.5,1.2c-0.4-1.4-0.6-2.8-0.7-4.2C85,93.9,85.2,92.5,85.5,91.1z"/>
		<path id="Path_510" class="st14" d="M81.7,91.1c-0.2,1.1-0.3,2.1-0.2,3.2c0,1.1,0.3,2.1,0.6,3.2c0.1,0-0.2-1.4-0.4-3.2
			S81.8,91.1,81.7,91.1z"/>
		<path id="Path_511" class="st12" d="M24.3,119.6c-1.3-1.4-2.3-2.9-3.3-4.5c-0.9-1.6-1.3-3.5-1-5.4c0.2-1.1,0.7-2.1,0.8-3.1
			c0.1-1.5-0.4-3.1,0.1-4.4c0.9-2.2,3.8-2.4,5.7-3.8c1.4-1.1,2.1-3,3.7-4c1.4-0.7,3.1-0.9,4.6-0.5c1.5,0.4,3.1,0.6,4.7,0.5
			c1.1-0.2,2.2-0.5,3.3-0.8c1.1-0.3,2.3-0.2,3.3,0.3c1,0.6,1.4,1.9,0.8,2.9c1.8-0.8,4.1,0.7,4.5,2.7c0.3,2-0.5,4.1-2.2,5.3
			c-1.7,1.1-3.6,1.9-5.6,2.1c-5.6,0.9-11.6,0.1-16.3-3"/>
		<path id="Path_512" class="st13" d="M49.9,126.3c-0.1-3.5-0.8-10.6-1.6-17c-0.8-6.9-6.8-11.9-13.7-11.7h-0.7
			c-7.4,0.7-10.9,7.4-10,14.8l2.5,25.2c0.7,7.7,5.5,8.3,9.9,8.1c4.1-0.2,7.2-3.6,7-7.7c0-0.2,0-0.5-0.1-0.7
			c-0.2-2.1-0.2-2.3-0.2-2.5C43,134.8,50,133.4,49.9,126.3z"/>
		<path id="Path_513" class="st13" d="M43,134.7c-3.3,0.2-6.6-0.6-9.4-2.3c0,0,2.4,5.1,9.5,4.1L43,134.7z"/>
		<path id="Path_514" class="st5" d="M45.7,115.1c0,0.6-0.4,1-1,1.1c-0.5,0.1-1-0.3-1.1-0.8c0,0,0,0,0-0.1c0-0.6,0.4-1,1-1.1
			C45.1,114.1,45.6,114.5,45.7,115.1C45.7,115.1,45.7,115.1,45.7,115.1z"/>
		<path id="Path_515" class="st5" d="M46.9,112.9c-0.1,0.1-1-0.4-2-0.4s-1.9,0.6-2,0.5s0.1-0.3,0.4-0.6c0.5-0.3,1-0.5,1.6-0.6
			c0.6,0,1.1,0.1,1.6,0.5C46.8,112.6,46.9,112.8,46.9,112.9z"/>
		<path id="Path_516" class="st5" d="M35.3,115.8c0,0.6-0.4,1-1,1.1c-0.5,0.1-1-0.3-1.1-0.8c0,0,0,0,0-0.1c0-0.6,0.4-1,1-1.1
			C34.7,114.8,35.2,115.2,35.3,115.8C35.3,115.8,35.3,115.8,35.3,115.8z"/>
		<path id="Path_517" class="st5" d="M36.1,113.5c-0.1,0.1-0.9-0.4-2-0.4s-1.9,0.6-2,0.5s0.1-0.3,0.4-0.6c0.5-0.3,1-0.5,1.6-0.6
			c0.6,0,1.1,0.1,1.6,0.5C36,113.2,36.1,113.4,36.1,113.5z"/>
		<path id="Path_518" class="st5" d="M40.4,121.5c0.6-0.2,1.2-0.3,1.8-0.4c0.3,0,0.5-0.1,0.6-0.3c0-0.3-0.1-0.6-0.2-0.8l-0.9-2.1
			c-0.8-1.8-1.5-3.6-2.1-5.5c1,1.7,1.8,3.5,2.5,5.3l0.9,2.1c0.2,0.3,0.3,0.7,0.2,1.1c-0.1,0.2-0.2,0.4-0.4,0.4
			c-0.2,0-0.3,0.1-0.5,0.1C41.6,121.5,41,121.5,40.4,121.5z"/>
		<path id="Path_519" class="st5" d="M36.6,122.3c0.2,0,0.2,1.2,1.3,2s2.3,0.6,2.3,0.8s-0.3,0.2-0.8,0.3c-0.7,0-1.4-0.2-1.9-0.6
			c-0.5-0.4-0.9-1-1-1.7C36.4,122.6,36.5,122.3,36.6,122.3z"/>
		<path id="Path_520" class="st12" d="M36.2,109.1c-0.1,0.3-1.2,0.2-2.5,0.4s-2.3,0.6-2.5,0.3s0.1-0.4,0.5-0.7
			c1.1-0.8,2.5-1,3.8-0.6C36,108.8,36.2,109,36.2,109.1z"/>
		<path id="Path_521" class="st12" d="M46.3,109.7c-0.2,0.3-1,0-1.9,0s-1.7,0.2-1.9,0s0-0.4,0.4-0.6c0.4-0.3,1-0.5,1.5-0.5
			c0.5,0,1.1,0.1,1.5,0.5C46.3,109.3,46.4,109.6,46.3,109.7z"/>
		<path id="Path_522" class="st13" d="M24.6,117.7c-0.1,0-5-1.3-4.6,3.6s5.2,3.5,5.2,3.4S24.6,117.7,24.6,117.7z"/>
		<path id="Path_523" class="st14" d="M23.5,122.9c-0.1,0.1-0.1,0.1-0.2,0.1c-0.2,0.1-0.4,0.1-0.6,0.1c-0.7-0.4-1.1-1.1-1.1-1.8
			c0-0.4,0-0.8,0.2-1.2c0.1-0.3,0.3-0.6,0.6-0.7c0.2-0.1,0.4,0,0.5,0.2c0.1,0.1,0,0.2,0.1,0.2s0.1-0.1,0-0.3c0-0.1-0.1-0.2-0.2-0.3
			c-0.1-0.1-0.3-0.1-0.5-0.1c-0.4,0.1-0.7,0.4-0.8,0.8c-0.2,0.4-0.2,0.9-0.2,1.4c0,0.9,0.6,1.7,1.4,2c0.3,0.1,0.6,0,0.8-0.2
			C23.5,123,23.5,122.9,23.5,122.9z"/>
		<path id="Path_524" class="st12" d="M48.1,102.7c-0.4,1.9-4.4,3.6-7.6,3.4c-3-0.2-4.4-1.7-6.6-2.9c-1.4-0.7-1.4-0.7-3.2-0.5
			c-1.5,0.2-2.4,1.9-3.2,3.2c1.5,3.6,0.7,7.7-0.1,11.5c0,0.4-0.2,0.8-0.5,1.2c-0.6,0.3-1.4,0.2-1.9-0.4c-0.8-0.9-1.3-2-1.5-3.1
			c-0.6-2.6-0.7-5.3-0.2-7.9c0.5-2.6,1.7-5.1,3.5-7c2.4-2.4,5.6-3.7,8.9-3.8c3.4,0,6.6,1,9.4,3C46.3,100.1,47.4,101.2,48.1,102.7"/>
		<path id="Path_525" class="st5" d="M41.3,116.3c0-0.4,0-0.8,0-1.1c0-1,0.4-2,1.1-2.8c1-1.2,2.5-1.8,4-1.6c0.9,0.1,1.7,0.5,2.4,1
			c1.9,1.6,2.1,4.4,0.5,6.3c-0.3,0.3-0.6,0.6-0.9,0.8c-1.3,0.9-2.9,1-4.3,0.4c-0.9-0.4-1.7-1.1-2.2-2
			C41.4,116.7,41.4,116.2,41.3,116.3c0,0.1,0,0.2,0,0.3c0.1,0.3,0.2,0.6,0.3,0.8c0.5,1,1.3,1.8,2.3,2.2c2.4,1.1,5.3,0,6.4-2.4
			c0,0,0-0.1,0.1-0.1c0.4-1,0.5-2,0.2-3c-0.6-2.6-3.2-4.2-5.8-3.6c-1,0.2-2,0.8-2.7,1.7c-0.7,0.8-1,1.9-1,3c0,0.3,0,0.6,0.1,0.9
			C41.2,116.1,41.2,116.2,41.3,116.3L41.3,116.3z"/>
		<path id="Path_526" class="st5" d="M29.7,117c-0.1-0.4-0.1-0.8,0-1.1c0-1,0.4-2,1.1-2.8c1-1.2,2.5-1.8,4-1.6
			c0.9,0.1,1.7,0.5,2.4,1c1.9,1.6,2.1,4.4,0.5,6.3c-0.3,0.3-0.6,0.6-0.9,0.8c-1.3,0.8-2.9,1-4.3,0.4c-0.9-0.4-1.7-1.1-2.2-2
			C29.8,117.4,29.7,117,29.7,117c0,0,0,0.1,0,0.3c0.1,0.3,0.2,0.6,0.3,0.8c0.5,1,1.3,1.7,2.3,2.2c2.4,1.1,5.3,0,6.4-2.4
			c1.1-2.4,0-5.3-2.4-6.4c-2-0.9-4.4-0.3-5.7,1.4c-0.7,0.8-1,1.9-1,3c0,0.3,0,0.6,0.1,0.9C29.6,116.9,29.7,117,29.7,117z"/>
		<path id="Path_527" class="st5" d="M38.9,114.9c0.1,0.1,0.6-0.3,1.3-0.3s1.2,0.5,1.3,0.4s0-0.2-0.2-0.4c-0.6-0.5-1.5-0.6-2.1-0.1
			C39,114.7,38.9,114.9,38.9,114.9z"/>
		<path id="Path_528" class="st5" d="M23.1,117.3c1.1-0.1,2.3-0.3,3.4-0.7c1.1-0.2,2.2-0.6,3.3-1c-1.1,0.1-2.3,0.3-3.4,0.7
			C25.3,116.5,24.2,116.8,23.1,117.3z"/>
		<path id="Path_529" class="st10" d="M49.2,97.6c0,0.2,0,0.3,0,0.5c0,0.4-0.2,0.8-0.5,1.2c-0.4,0.5-0.9,0.9-1.5,1.1
			c-0.7,0.2-1.5,0.4-2.3,0.4c-1.4,0.1-2.8,0.2-4.2,0.2c-0.4,0-0.8,0-1.3,0h1.3c1.4,0,2.8,0,4.2-0.2c0.8,0,1.5-0.2,2.2-0.4
			c0.6-0.2,1.1-0.6,1.5-1c0.3-0.3,0.4-0.7,0.5-1.1C49.3,98,49.3,97.8,49.2,97.6z"/>
		<path id="Path_530" class="st10" d="M50.5,98.5c0,0.5,0,0.9-0.1,1.4c-0.5,2.3-2.3,4-4.5,4.4c-0.5,0.1-0.9,0.1-1.4,0.1
			c0.1,0,0.2,0,0.4,0c0.3,0,0.6-0.1,1-0.1c2.2-0.5,4-2.2,4.5-4.4c0.1-0.3,0.1-0.6,0.1-1C50.5,98.7,50.5,98.6,50.5,98.5z"/>
	</g>
</g>
</svg>
