<?xml version="1.0" encoding="utf-8"?>
<!-- Generator: Adobe Illustrator 25.0.0, SVG Export Plug-In . SVG Version: 6.00 Build 0)  -->
<svg version="1.1" id="Layer_1" xmlns="http://www.w3.org/2000/svg" xmlns:xlink="http://www.w3.org/1999/xlink" x="0px" y="0px"
	 viewBox="0 0 500 500" style="enable-background:new 0 0 500 500;" xml:space="preserve">
<style type="text/css">
	.st0{fill:#F5F5F5;}
	.st1{fill:#E0E0E0;}
	.st2{fill:#EBEBEB;}
	.st3{fill:#FAFAFA;}
	.st4{fill:#455A64;}
	.st5{fill:#BF7D4C;}
	.st6{fill:#263238;}
	.st7{fill:#5538A4;}
	.st8{opacity:0.3;}
	.st9{fill:#FF6262;}
	.st10{fill:#EB996E;}
	.st11{fill:#FFFFFF;}
	.st12{opacity:0.4;}
	.st13{font-family:'SchadowBT-Roman';}
	.st14{font-size:16.6216px;}
</style>
<g id="freepik--background-complete--inject-13">
	<path class="st0" d="M380.6,408.9c-15.5-10.9-19.1-31-18.5-49.2c0.1-3-0.2-6.2,1.2-8.9s4.8-4.5,7.5-3.2c2.2,1.1,3.2,3.7,4.5,5.8
		c1.7,2.9,4.1,5.2,7.1,6.8c1.9,1,4.3,1.6,6.2,0.6c2.6-1.4,2.9-5,2.9-8.1c0-5.6,0-11.2-0.1-16.8c-0.2-3,0.1-6,0.9-8.9
		c0.9-2.9,3-5.5,5.9-6.3s6.4,0.9,7,3.8c0.1,1.2,0.1,2.5,0.1,3.7c0.1,1.2,0.7,2.6,1.9,3s2.4-0.5,3.3-1.4c3.1-3,5.2-7,7.2-10.9
		s3.9-7.9,6.7-11.2s6.7-5.9,11-6.2s8.9,2.4,10,6.6s-1.4,8.5-4.1,12c-4,5.1-8.7,9.6-14,13.3c-1,0.6-1.8,1.5-2.3,2.5
		c-0.6,2,1.2,4,3.2,4.7c2.2,0.7,4.7,0.5,7,0.8s4.9,1.3,5.8,3.5c1.2,3.1-1.3,6.3-3.9,8.4c-5.1,4.2-10.8,7.6-17,9.8
		c-2.2,0.8-4.5,1.5-6.3,3.1s-2.9,4.3-1.8,6.4s3.8,2.8,6.2,2.4s4.4-1.7,6.6-2.5c4.1-1.6,9.5-1.3,12.1,2.3c1.6,2.5,2,5.6,1,8.4
		c-1,2.8-2.6,5.3-4.6,7.4c-6.6,7.9-15.1,13.9-24.7,17.4C398.9,411.5,390,412.4,380.6,408.9"/>
	<path class="st1" d="M380.3,422.3c0.8-8.4,2.5-16.7,4.9-24.8c3-9.9,6.6-19.5,10.7-29l3.2-7.5c1-2.5,2.1-4.9,3.3-7.2
		c2.3-4.4,4.8-8.7,7.5-12.9c2.6-4,5.2-7.7,7.6-11.1s4.8-6.6,7.1-9.4c3.5-4.4,7.4-8.5,11.6-12.3c1.5-1.4,2.7-2.4,3.5-3l0.9-0.8
		c0.1-0.1,0.2-0.2,0.3-0.2c-0.1,0.1-0.2,0.2-0.3,0.3l-0.9,0.8c-0.8,0.7-2,1.7-3.4,3.1c-4.1,3.8-8,8-11.5,12.4
		c-2.2,2.8-4.6,5.9-7,9.4s-5,7.1-7.6,11.1c-2.7,4.1-5.2,8.4-7.4,12.9c-1.2,2.3-2.2,4.7-3.2,7.2l-3.2,7.5c-4.1,9.5-7.7,19.1-10.7,29
		c-2.4,8.1-4.1,16.3-5,24.7"/>
	<path class="st1" d="M402.6,353.8c-0.1-0.4-0.2-0.8-0.3-1.3c-0.2-0.8-0.3-2-0.6-3.5c-0.4-3-0.9-7.2-1.3-11.7s-1-8.7-1.5-11.7
		c-0.2-1.5-0.4-2.7-0.6-3.5c-0.1-0.4-0.2-0.9-0.2-1.3c0.2,0.4,0.3,0.8,0.4,1.3c0.2,0.8,0.5,2,0.8,3.5c0.6,3,1.1,7.1,1.6,11.7
		s0.9,8.6,1.2,11.8c0.1,1.4,0.3,2.6,0.4,3.6C402.6,352.9,402.6,353.4,402.6,353.8z"/>
	<path class="st1" d="M441.3,346.6c-0.5,0.1-1,0.2-1.5,0.2c-1,0.1-2.4,0.2-4.2,0.4c-3.5,0.4-8.4,1.1-13.8,2.1s-10.1,2.1-13.6,3.1
		c-1.7,0.4-3.1,0.8-4.1,1.1c-0.5,0.2-1,0.3-1.5,0.4c0.5-0.2,0.9-0.4,1.4-0.6c1-0.3,2.3-0.8,4-1.3c3.4-1,8.2-2.2,13.6-3.2
		c4.6-0.9,9.2-1.5,13.8-1.9c1.8-0.2,3.2-0.2,4.2-0.2C440.2,346.5,440.7,346.5,441.3,346.6z"/>
	<path class="st1" d="M385.7,396.8c0,0-0.1-0.1-0.3-0.5l-0.7-1.4c-0.6-1.2-1.3-3-2.3-5.2c-1.9-4.4-4.2-10.6-6.8-17.5
		s-4.9-13.1-6.6-17.6l-2.1-5.3c-0.2-0.6-0.4-1-0.6-1.4c-0.1-0.2-0.1-0.3-0.2-0.5c0.1,0.1,0.2,0.3,0.3,0.5l0.7,1.4
		c0.6,1.2,1.3,3,2.3,5.2c1.9,4.4,4.3,10.6,6.8,17.5s4.9,13.1,6.6,17.6l2.1,5.3c0.2,0.6,0.4,1.1,0.6,1.5
		C385.7,396.5,385.7,396.6,385.7,396.8z"/>
	<path class="st1" d="M437.1,380.2c-0.2,0.1-0.3,0.2-0.5,0.2l-1.5,0.5l-5.5,1.8c-4.6,1.5-11,3.7-18.1,6s-13.5,4.5-18.2,5.9
		c-2.4,0.7-4.2,1.3-5.6,1.6l-1.5,0.4c-0.2,0.1-0.4,0.1-0.5,0.1c0.2-0.1,0.3-0.2,0.5-0.2l1.5-0.5l5.5-1.8c4.6-1.5,11-3.7,18.1-6.1
		s13.5-4.5,18.2-5.9c2.4-0.7,4.2-1.3,5.6-1.6l1.5-0.4C436.8,380.3,437,380.3,437.1,380.2z"/>
	<path class="st1" d="M462.4,332.5c-0.2-0.2-0.3-0.4-0.4-0.6l-1-1.6c-0.8-1.4-2-3.3-3.4-5.6l0.3,0.1l-7.9,4.6c0,0.1,0.2-0.7,0.1-0.4
		l0,0l0,0v0.1l0.1,0.1l0.1,0.3l0.3,0.5l0.6,1.1l1.2,2.1l2.1,3.8l-0.3-0.1c2.4-1.3,4.4-2.4,5.8-3.2l1.7-0.9
		C461.9,332.6,462.1,332.5,462.4,332.5c-0.2,0.1-0.4,0.2-0.6,0.3l-1.6,1c-1.4,0.8-3.4,2-5.8,3.5l-0.2,0.1l-0.1-0.2
		c-0.7-1.2-1.4-2.4-2.2-3.8l-1.2-2l-0.6-1.1l-0.3-0.5l-0.1-0.3l-0.1-0.1v-0.1l0,0l0,0l0,0c-0.1,0.3,0.1-0.4,0.1-0.4l8-4.6l0.2-0.1
		l0.1,0.2c1.4,2.4,2.5,4.5,3.3,5.9c0.4,0.6,0.6,1.2,0.9,1.6C462.3,332.1,462.3,332.3,462.4,332.5z"/>
	
		<rect x="151.3" y="64.5" transform="matrix(1 -5.410494e-03 5.410494e-03 1 -0.477 0.8462)" class="st1" width="9.7" height="48.1"/>
	
		<rect x="67.5" y="64.7" transform="matrix(1 -5.410494e-03 5.410494e-03 1 -0.4207 0.434)" class="st2" width="25.1" height="26.6"/>
	
		<rect x="92.4" y="64.6" transform="matrix(1 -5.410494e-03 5.410494e-03 1 -0.4196 0.5688)" class="st0" width="25.1" height="26.6"/>
	<path class="st1" d="M67.4,72.1c16.6,0.1,33.3,0,50-0.2c0.1,0,0.2-0.2,0.2-0.3c0-0.1-0.1-0.2-0.2-0.2c-16.6-0.1-33.3,0-50,0.3
		c-0.1,0-0.2,0.1-0.2,0.2C67.2,72,67.3,72.1,67.4,72.1z"/>
	
		<rect x="51.8" y="90.9" transform="matrix(1 -5.410494e-03 5.410494e-03 1 -0.5491 0.4051)" class="st2" width="45.5" height="21.7"/>
	
		<rect x="97.1" y="90.6" transform="matrix(1 -5.410494e-03 5.410494e-03 1 -0.5471 0.6501)" class="st0" width="45.5" height="21.7"/>
	<path class="st1" d="M51.8,97c30.2,0.3,60.6,0,90.8-0.4c0.1,0,0.2-0.2,0.2-0.3c0-0.1-0.1-0.2-0.2-0.2c-30.2-0.2-60.6-0.1-90.8,0.5
		c-0.1,0-0.2,0.1-0.2,0.2C51.6,96.9,51.7,97,51.8,97z"/>
	<rect x="34.8" y="112.7" class="st1" width="176.3" height="7.8"/>
	<rect x="63.7" y="116.4" class="st1" width="7.2" height="26.5"/>
	<rect x="170.5" y="116.4" class="st1" width="7.2" height="26.5"/>
	
		<rect x="160.8" y="46.6" transform="matrix(1 -5.410494e-03 5.410494e-03 1 -0.4286 0.8974)" class="st2" width="9.7" height="66.2"/>
	
		<rect x="170.5" y="58.9" transform="matrix(1 -5.410494e-03 5.410494e-03 1 -0.4613 0.9645)" class="st0" width="15" height="53.6"/>
	<path class="st1" d="M185.3,69.2c-2.5,0.3-5,0.4-7.5,0.3c-2.5,0.1-5,0-7.5-0.3c2.5-0.3,5-0.3,7.5-0.3
		C180.3,68.9,182.8,69,185.3,69.2z"/>
	<path class="st1" d="M185.3,67c-2.5,0.3-5,0.3-7.5,0.3c-2.5,0.1-5,0-7.5-0.3c2.5-0.3,5-0.4,7.5-0.3C180.3,66.6,182.8,66.7,185.3,67
		z"/>
	<path class="st1" d="M185.3,104.4c-2.5,0.3-5,0.4-7.5,0.3c-2.5,0.1-5,0-7.5-0.3c2.5-0.3,5-0.3,7.5-0.3
		C180.3,104.1,182.8,104.2,185.3,104.4z"/>
	<path class="st1" d="M185.3,102.2c-2.5,0.3-5,0.4-7.5,0.3c-2.5,0.1-5,0-7.5-0.3c2.5-0.3,5-0.3,7.5-0.3
		C180.3,101.8,182.8,101.9,185.3,102.2z"/>
	<path class="st1" d="M178,97.3c-0.1,0-0.3-5.4-0.3-12.1s0.1-12.1,0.3-12.1s0.3,5.4,0.3,12.1S178.2,97.3,178,97.3z"/>
	<rect x="185.5" y="72.1" class="st2" width="16.4" height="40.5"/>
	<path class="st3" d="M194.1,102c-1.9,0.1-3.6-1.4-3.7-3.4c0-0.1,0-0.2,0-0.3c-0.1-1.1,0.4-2.1,1.3-2.7l0.4,0.5
		c-0.7,0.5-1.1,1.3-1.1,2.2c0,1.7,1.4,3,3,3s3-1.4,3-3c0-0.9-0.4-1.7-1.1-2.2l0.4-0.5c0.9,0.6,1.4,1.7,1.3,2.7
		c0.1,1.9-1.4,3.6-3.4,3.7C194.3,102,194.2,102,194.1,102z"/>
	<path class="st3" d="M196.8,94.7l-0.6-0.3c0.6-0.7,0.9-1.7,0.9-2.6c0-1.5-0.5-2.1-1.4-2.1c-2.1,0-0.6,4.8-3.4,4.8
		c-1.1,0-2-0.9-2-2.7c0-0.9,0.2-1.7,0.7-2.5l0.6,0.3c-0.4,0.6-0.7,1.4-0.6,2.2c0,1.4,0.6,2,1.4,2c2.2,0,0.6-4.8,3.4-4.8
		c1.2,0,2,1,2,2.8C197.8,92.8,197.5,93.8,196.8,94.7z"/>
	<path class="st3" d="M196.8,88.1l-0.6-0.3c0.6-0.7,0.9-1.7,0.9-2.6c0-1.5-0.5-2.1-1.4-2.1c-2.1,0-0.6,4.8-3.4,4.8
		c-1.1,0-2-0.9-2-2.7c0-0.9,0.2-1.7,0.7-2.5l0.6,0.3c-0.4,0.6-0.7,1.4-0.6,2.2c0,1.4,0.6,2,1.4,2c2.2,0,0.6-4.8,3.4-4.8
		c1.2,0,2,1,2,2.8C197.8,86.2,197.5,87.2,196.8,88.1z"/>
	<circle class="st1" cx="165.3" cy="57.9" r="2.8"/>
	<rect x="164.4" y="65.5" class="st1" width="1.7" height="39.4"/>
	<path class="st1" d="M383.5,297.2c2.3-2.7,4.7-5.2,7.3-7.6c2.4-2.5,5-5,7.6-7.3c0.1,0.1-3.1,3.5-7.3,7.6S383.6,297.3,383.5,297.2z"
		/>
	<path class="st1" d="M398.4,297.2c-2.7-2.3-5.2-4.7-7.6-7.3c-2.5-2.4-5-5-7.3-7.6c0.1-0.1,3.5,3.1,7.6,7.3S398.5,297.1,398.4,297.2
		z"/>
	<path class="st1" d="M247.3,216.5c2.3-2.7,4.7-5.2,7.3-7.6c2.4-2.5,5-5,7.6-7.3c0.1,0.1-3.1,3.5-7.3,7.6S247.4,216.6,247.3,216.5z"
		/>
	<path class="st1" d="M262.2,216.5c-0.1,0.1-3.5-3.1-7.6-7.3c-2.5-2.4-5-5-7.3-7.6c2.7,2.3,5.2,4.7,7.6,7.3
		C259,213,262.3,216.4,262.2,216.5z"/>
	<path class="st1" d="M226.9,86.1c-0.5-3-0.8-6-1-9c-0.3-3-0.5-6-0.5-9c0.5,3,0.9,6,1.1,9C226.7,80.1,226.9,83.1,226.9,86.1z"/>
	<path class="st1" d="M235.1,76.3c-3,0.5-6,0.8-9,1c-3,0.3-6,0.5-9,0.5c3-0.5,6-0.9,9-1.1C229.1,76.5,232.1,76.3,235.1,76.3z"/>
	<path class="st1" d="M143.4,185c-0.1-0.1-0.1-0.2-0.2-0.3l-0.5-0.8l-1.8-3l-6.3-10.6l0.3,0.1l-14.8,8.6c0,0.1,0.2-0.7,0.1-0.4l0,0
		l0,0v0.1l0.1,0.1l0.1,0.2l0.3,0.5l0.6,1c0.4,0.7,0.8,1.3,1.1,2l2.2,3.8l4,7l-0.3-0.1l10.7-6.1l3.1-1.7l0.8-0.4L143.4,185
		c-0.4,0.2-0.7,0.4-1.1,0.6l-3,1.8l-10.8,6.3l-0.2,0.1l-0.1-0.2l-4.1-7l-2.2-3.8c-0.4-0.7-0.8-1.3-1.1-2l-0.6-1l-0.3-0.5l-0.1-0.2
		l-0.1-0.1v-0.1l0,0l0,0c-0.1,0.3,0.1-0.4,0.1-0.4l14.9-8.5l0.2-0.1l0.1,0.2l6.1,10.9l1.7,3C143,184.3,143.2,184.7,143.4,185z"/>
	<path class="st1" d="M470.9,281.3c0,0-0.1-0.3-0.5-0.9c-0.5-0.8-1.2-1.3-2-1.7c-1.2-0.5-2.6-0.3-3.6,0.4c-1.7,1.2-2.1,3.6-0.9,5.3
		c1.2,1.7,3.6,2.1,5.3,0.9c0.3-0.2,0.5-0.4,0.8-0.7c0.6-0.7,0.9-1.5,0.9-2.4C470.9,281.7,470.8,281.3,470.9,281.3
		c0.2,0.3,0.2,0.6,0.2,1c0,0.9-0.2,1.9-0.8,2.6c-0.9,1.1-2.3,1.8-3.7,1.6c-2.3-0.2-4.1-2.3-3.8-4.6c0.1-1.3,0.8-2.4,1.8-3.1
		c1.2-0.8,2.7-0.9,4-0.4c0.9,0.4,1.6,1,2,1.9C470.8,280.6,470.9,281,470.9,281.3z"/>
	<path class="st1" d="M284,43.3c0,0-0.1-0.3-0.5-0.9c-0.5-0.8-1.2-1.3-2-1.7c-1.2-0.5-2.6-0.3-3.6,0.4c-1.7,1.2-2.1,3.6-0.9,5.3
		s3.6,2.1,5.3,0.9c0.3-0.2,0.5-0.4,0.8-0.7c0.6-0.7,0.9-1.5,0.9-2.4C284,43.7,283.9,43.3,284,43.3c0.1,0.3,0.2,0.6,0.2,1
		c0,0.9-0.2,1.9-0.8,2.6c-0.9,1.1-2.3,1.8-3.7,1.7c-2.3-0.2-4.1-2.3-3.8-4.6c0.1-1.3,0.8-2.4,1.8-3.1c1.2-0.8,2.7-0.9,4-0.4
		c0.9,0.4,1.6,1,2,1.9C283.9,42.6,284,43,284,43.3z"/>
	<path class="st1" d="M98,157.8c0,0-0.1-0.3-0.5-0.9c-0.5-0.8-1.2-1.3-2-1.7c-1.2-0.5-2.6-0.3-3.6,0.4c-1.7,1.2-2.1,3.6-0.9,5.3
		c0.6,0.9,1.6,1.5,2.7,1.6c1.3,0.1,2.6-0.4,3.4-1.4c0.5-0.7,0.9-1.5,0.9-2.4C98,158.1,97.9,157.8,98,157.8c0.1,0.3,0.2,0.6,0.2,1
		c0,0.9-0.2,1.9-0.8,2.6c-0.9,1.1-2.3,1.7-3.7,1.6c-2.3-0.2-4.1-2.3-3.9-4.6c0.1-1.3,0.8-2.4,1.9-3.1c1.2-0.8,2.7-0.9,4-0.4
		c0.9,0.4,1.6,1.1,2,1.9C97.9,157.1,98,157.4,98,157.8z"/>
	<path class="st1" d="M453.7,141.8c-0.1,0-0.2-0.7-0.9-1.9c-1.6-2.8-4.7-4.5-8-4.3c-1.5,0.1-2.9,0.6-4.1,1.5c-0.7,0.4-1.3,1-1.8,1.6
		c-0.5,0.6-0.9,1.4-1.2,2.1c-1.3,3.4-0.3,7.2,2.5,9.5c0.6,0.5,1.4,1,2.1,1.3c0.7,0.3,1.5,0.5,2.3,0.6c1.5,0.1,3-0.1,4.3-0.7
		c1.2-0.5,2.2-1.4,3-2.4c1.2-1.5,1.8-3.3,1.9-5.2C453.8,142.5,453.6,141.8,453.7,141.8c0,0.2,0.1,0.3,0.1,0.5c0.1,0.5,0.2,1,0.2,1.6
		c0.1,3.4-1.8,6.5-4.9,8c-1.4,0.7-3,1-4.6,0.8c-0.8-0.1-1.7-0.3-2.5-0.6c-0.8-0.3-1.6-0.8-2.3-1.3c-3-2.4-4.1-6.5-2.6-10.1
		c0.3-0.8,0.8-1.6,1.3-2.3c0.5-0.7,1.2-1.2,1.9-1.7c2.5-1.7,5.6-2,8.4-0.8c1.8,0.8,3.3,2.2,4.2,3.9c0.2,0.5,0.4,1,0.6,1.5
		C453.6,141.4,453.7,141.6,453.7,141.8z"/>
	<path class="st1" d="M426.8,268.4c-0.2-0.3-0.4-0.6-0.5-0.9l-1.5-2.8c-1.3-2.4-3.1-5.8-5.2-9.8l-0.2-0.4h0.4l7.4,0.5l7.7,0.5h0.4
		l-0.2,0.4c-2.4,3.7-4.5,6.9-6,9.1l-1.7,2.5C427.2,267.8,427,268,426.8,268.4c0-0.1,0.2-0.4,0.6-1.1s1-1.6,1.6-2.7
		c1.4-2.3,3.4-5.4,5.7-9.1l0.2,0.4l-7.7-0.5l-7.4-0.5l0.2-0.4c2,3.9,3.6,7.3,4.8,9.7c0.6,1.2,1,2.1,1.4,2.9S426.8,268.4,426.8,268.4
		z"/>
	<path class="st1" d="M357,79.5c0,0-0.2-0.3-0.5-0.9l-1.5-2.7c-1.3-2.4-3.1-5.8-5.2-9.8l-0.2-0.4h0.4l7.4,0.5l7.7,0.5h0.4l-0.2,0.3
		c-2.4,3.7-4.5,6.9-6,9.1l-1.7,2.6C357.4,78.9,357.2,79.2,357,79.5c0,0,0.2-0.4,0.6-1l1.6-2.7c1.4-2.3,3.4-5.4,5.7-9l0.2,0.4
		l-7.7-0.5l-7.4-0.5l0.2-0.3c2,3.9,3.6,7.3,4.8,9.7c0.6,1.2,1,2.1,1.4,2.9C356.9,79.1,357,79.5,357,79.5z"/>
	<path class="st1" d="M236.1,302.6c0.2-0.3,0.4-0.6,0.6-0.9l1.7-2.6c1.5-2.2,3.6-5.5,6.2-9.2l0.2-0.3l0.2,0.3l4.8,7l3.7,5.5l0.3,0.4
		h-0.5c-5,0-9.4-0.1-12.4-0.1l-3.5-0.1C236.5,302.6,236.1,302.6,236.1,302.6c0,0,0.5,0,1.4-0.1l3.6-0.1c3.1,0,7.3-0.1,12.2-0.1
		l-0.2,0.4l-3.7-5.5c-1.7-2.5-3.3-4.9-4.7-7.1h0.4c-2.5,3.6-4.7,6.7-6.3,8.9l-1.9,2.6C236.4,302.2,236.1,302.6,236.1,302.6z"/>
</g>
<g id="freepik--Character--inject-13">
	<path class="st4" d="M329.7,297.4L329.7,297.4c34.6,0,62.6,28,62.6,62.6v72.6l0,0H267.1l0,0V360
		C267.1,325.4,295.1,297.4,329.7,297.4z"/>
	<path class="st5" d="M171.2,397.4l-6.3,4.5l-7,16.8c0,0,1.9,1.3,3.4-0.1s7.1-11.1,7.1-11.1v5.8c0,2.3,1.8,4.3,4.1,4.6l10.4,3.2
		l12.7-3.6l1.1-15.2L171.2,397.4z"/>
	<path class="st6" d="M284.4,285.6c-3.1-0.9-4.6-4.5-4.9-7.7s0.2-6.6-0.6-9.7c-0.6-2.2-2-4.3-2.1-6.6c-0.2-2.5,1-4.9,1.1-7.4
		c0.1-3.5-2-6.7-2-10.2c-0.1-4.8,0.8-12.7,5.6-12.5s12.5,8.7,11.9,13.4"/>
	<path class="st5" d="M329.7,245.9l-0.1,4.8l-1,71.8c-0.1,8.3-7.4,14.9-16.3,14.7l0,0c-9-0.2-16.3-7.2-16.4-15.6
		c0-8.8-0.2-18.1-0.2-18.1s-11.4-1.9-13.7-16.7c-1.2-7.4-0.8-19.5-0.2-29.4c0.5-8.6,8-15.2,16.6-14.7c0.2,0,0.4,0,0.7,0.1
		L329.7,245.9z"/>
	<path class="st6" d="M284.9,265.7c0,1,0.8,1.9,1.8,1.9c1,0.1,1.9-0.6,2-1.6c0,0,0-0.1,0-0.1c0-1-0.8-1.9-1.9-1.9c0,0,0,0,0,0
		C285.9,263.9,285,264.7,284.9,265.7C284.9,265.7,284.9,265.7,284.9,265.7z"/>
	<path class="st6" d="M284.5,263.6c0.2,0.2,1.7-0.8,3.7-0.8s3.5,1,3.8,0.8s-0.1-0.6-0.8-1c-0.9-0.6-1.9-0.9-3-0.9
		c-1.1,0-2.1,0.4-3,1C284.6,263,284.4,263.5,284.5,263.6z"/>
	<path class="st6" d="M305.5,265.7c0,1,0.8,1.9,1.8,1.9c1,0.1,1.9-0.7,2-1.7c0,0,0,0,0-0.1c0-1-0.8-1.9-1.8-1.9
		C306.4,263.9,305.6,264.6,305.5,265.7C305.5,265.6,305.5,265.7,305.5,265.7z"/>
	<path class="st6" d="M304.7,264c0.2,0.2,1.7-0.8,3.7-0.8s3.5,1,3.8,0.8s-0.1-0.6-0.8-1c-0.9-0.6-1.9-0.9-3-0.9c-1.1,0-2.1,0.4-3,1
		C304.8,263.4,304.5,263.9,304.7,264z"/>
	<path class="st6" d="M297.2,279.2c-1.1-0.3-2.2-0.5-3.3-0.6c-0.5,0-1-0.2-1.1-0.5c0-0.5,0.1-1.1,0.4-1.5l1.5-4
		c2.1-5.7,3.7-10.3,3.5-10.4s-2.1,4.4-4.3,10.1c-0.5,1.4-1,2.7-1.5,4c-0.3,0.6-0.4,1.3-0.3,2c0.2,0.4,0.5,0.7,0.9,0.8
		c0.3,0.1,0.6,0.1,0.9,0.1C295,279.3,296.1,279.3,297.2,279.2z"/>
	<path class="st5" d="M295.8,303.4c7,0.1,13.9-1.7,19.9-5.3c0,0-4.8,10.2-19.7,8.8L295.8,303.4z"/>
	<path class="st5" d="M298.1,284.1c0.8-1,2-1.5,3.3-1.4c0.9,0.1,1.8,0.5,2.3,1.2c0.6,0.7,0.6,1.7,0.2,2.4c-0.7,0.8-1.7,1-2.7,0.7
		c-1-0.3-1.9-0.9-2.6-1.6c-0.2-0.2-0.4-0.4-0.6-0.6C297.8,284.7,297.8,284.4,298.1,284.1"/>
	<path class="st6" d="M303.3,280.6c-0.3,0-0.3,2.2-2.2,3.8s-4.3,1.3-4.3,1.6c0,0.1,0.5,0.4,1.5,0.5c1.3,0,2.6-0.4,3.6-1.2
		c1-0.8,1.6-1.9,1.7-3.2C303.7,281.1,303.4,280.6,303.3,280.6z"/>
	<path class="st6" d="M304.1,255.9c0.2,0.6,2.2,0.3,4.7,0.6s4.4,0.9,4.7,0.4c0.1-0.2-0.2-0.8-1-1.3c-2.1-1.3-4.7-1.6-7.1-0.8
		C304.5,255.2,304,255.7,304.1,255.9z"/>
	<path class="st6" d="M285.3,257.6c0.4,0.5,1.8,0,3.5,0s3.1,0.3,3.5-0.2c0.1-0.2-0.1-0.7-0.7-1.1c-0.8-0.5-1.8-0.8-2.8-0.8
		c-1,0-2,0.3-2.8,0.9C285.3,256.9,285.1,257.4,285.3,257.6z"/>
	<path class="st6" d="M335.2,241.3c3.1-8.4,16-21,25.8-15.4c10.8,6.2,7,10.4,10.9,13.3c0.9,0.7,5.3-0.8,5.9,0.2
		c1.6,2.6,0.2,5.9-1.1,8.7c0.3,0,0.7-0.1,1-0.3c0.9-0.4,2,0.1,2.3,1c0.1,0.2,0.1,0.5,0.1,0.7c-0.2,3.3-1.4,6.5-3.4,9.2
		c0.7,0.2,1.4,0.2,2.1,0.1c0.7-0.1,1.4,0.4,1.5,1.1c0,0.2,0,0.4-0.1,0.6c-1.2,3.2-4,5.6-7.5,6.3c-4.1,0.9-8.5-0.6-11.9-3.2
		s-5.9-6-8.2-9.6c-1.3-2.1-2.6-4.2-4.6-5.6s-4.8-2-6.9-0.6"/>
	<path class="st7" d="M341.4,247.5c0,0,0-0.2,0-0.4c0-0.3-0.1-0.7-0.2-1c-0.4-1.1-1-2.1-1.6-3c-0.6-1-1.3-1.9-2.1-2.7
		c-0.6-0.6-1-1-1-1c0.5,0.1,0.9,0.4,1.3,0.8c0.9,0.8,1.6,1.7,2.3,2.7c0.7,1,1.2,2.1,1.5,3.2c0.1,0.4,0.2,0.7,0.1,1.1
		C341.5,247.4,341.4,247.5,341.4,247.5z"/>
	<path class="st6" d="M366.5,270.5c0,0-0.1,0.1-0.4,0.3c-0.4,0.2-0.7,0.4-1.1,0.6c-1.5,0.6-3.1,0.8-4.7,0.6
		c-2.4-0.3-4.6-1.4-6.2-3.2c-0.9-1.1-1.6-2.3-2-3.7c-0.4-1.4-0.7-2.9-0.7-4.4c-0.2-3-0.1-5.9-0.6-8.5c-0.2-1.2-0.6-2.4-1.2-3.4
		c-0.5-0.9-1.2-1.7-2.1-2.4c-1.2-1-2.7-1.5-4.3-1.4c-0.6,0.1-1.1,0.2-1.7,0.4c0.1-0.1,0.2-0.2,0.4-0.2c0.4-0.2,0.8-0.3,1.2-0.3
		c1.6-0.1,3.2,0.4,4.5,1.4c0.9,0.7,1.7,1.5,2.2,2.4c0.6,1.1,1.1,2.3,1.3,3.5c0.6,2.6,0.5,5.5,0.7,8.5c0.1,1.5,0.3,2.9,0.7,4.3
		c0.4,1.3,1,2.5,1.9,3.5c2.6,2.9,6.7,4,10.5,2.7C365.9,270.8,366.4,270.5,366.5,270.5z"/>
	<path class="st6" d="M376.4,230.1c0.1,0.2,0.2,0.4,0.3,0.6c0.2,0.6,0.3,1.2,0.4,1.8c0.1,1-0.1,1.9-0.5,2.8
		c-0.5,1.2-1.3,2.2-2.5,2.9c-1.4,0.8-3,1.1-4.5,0.7c-1.8-0.3-3.4-1.5-4.3-3.1c-0.9-1.8-1.5-3.6-1.7-5.6c-0.4-1.9-0.8-4.1-2.1-5.6
		c-0.6-0.8-1.5-1.3-2.5-1.6c-1-0.2-2-0.3-2.9-0.1c-1.9,0.4-3.6,1.2-5.2,2.2c-2.8,1.7-5.4,3.7-7.8,5.9c-1.6,1.5-3.1,3.1-4.5,4.8
		l-1.1,1.4c-0.1,0.2-0.3,0.3-0.4,0.5c0.1-0.2,0.2-0.4,0.3-0.5c0.2-0.4,0.6-0.8,1-1.5c1.3-1.8,2.8-3.5,4.4-5c2.4-2.3,5-4.3,7.8-6.1
		c1.6-1.1,3.5-1.9,5.4-2.3c1-0.2,2.1-0.2,3.2,0.1c1.1,0.3,2.1,0.9,2.9,1.8c1.4,1.8,1.8,3.9,2.2,5.9c0.2,1.9,0.8,3.7,1.6,5.4
		c0.8,1.5,2.3,2.6,3.9,2.9c1.5,0.3,3,0.1,4.3-0.6c1.1-0.6,1.9-1.6,2.4-2.7c0.4-0.9,0.6-1.8,0.5-2.7
		C376.9,231.7,376.7,230.9,376.4,230.1z"/>
	<path class="st6" d="M338.9,226.6c0.5,0.5,0.9,1,1.1,1.6c1.4,3.1,0.7,6.6-1.6,9.1c-0.4,0.5-1,0.9-1.6,1.2c0-0.1,0.6-0.5,1.3-1.4
		c2-2.4,2.6-5.7,1.5-8.7C339.2,227.3,338.8,226.6,338.9,226.6z"/>
	<path class="st6" d="M340.4,245.1c-2.3-5.8-7.4-10.1-13.5-11.4c-3.7-0.7-7.5-0.2-10.9,1.5c-1.2-0.8-2.4-1.8-3.4-2.9
		c-3.5-3.6-7.9-6.2-12.7-7.6c-4.8-1.4-10-1-14.6,1.1c-4.6,2.2-7.9,6.3-9,11.2c-1,5,0.9,10.1,4.8,13.3c4,3,10,3.1,13.9-0.1
		c-0.3,2.2,1.6,4.2,3.8,4.6c2.2,0.3,4.4-0.4,6.2-1.8c1.7-1.4,3.3-2.9,4.8-4.6c0.6-0.6,1.2-1.1,1.8-1.6c2.4,5.1,7,8.8,12.5,10
		c-1.7,1.9-1.6,4.8-0.9,7.2s1.9,4.8,1.8,7.4c0,2.1-1,4.1-1.4,6.2c-0.6,2.9-0.1,6,1.2,8.7c0.5,1,1.1,2.5,1.7,3.5c1,1.8,1,1.8,2.5,2.2
		c3.1,1,8.3-10.2,9.7-14.6c1.1-3.7,1.6-10.3,2.9-13.9C344,257.1,342.6,250.8,340.4,245.1z"/>
	<path class="st4" d="M342.4,259c-0.1,0.1-0.1,0.2-0.2,0.3c-0.2,0.3-0.5,0.5-0.8,0.7c-1.2,0.7-2.7,0.8-4,0.1
		c-0.4-0.2-0.8-0.5-1.1-0.9c-0.3-0.4-0.6-0.8-0.8-1.3c-0.4-1-0.8-1.9-1.4-2.8c-0.7-0.9-1.8-1.4-2.9-1.5c-1.2-0.1-2.5-0.2-3.8-0.2
		c-1.3,0-2.6-0.2-3.8-0.5c-1.2-0.3-2.3-0.8-3.3-1.3c-1.8-0.9-3.4-2.2-4.8-3.7c-0.9-1-1.7-2.2-2.3-3.4c-0.2-0.3-0.3-0.7-0.4-1
		c-0.1-0.1-0.1-0.2-0.1-0.4c0.8,1.6,1.9,3.2,3.1,4.5c1.3,1.5,2.9,2.7,4.7,3.6c1,0.5,2.1,0.9,3.2,1.2c1.2,0.3,2.5,0.5,3.7,0.5
		c1.3,0,2.6,0,3.8,0.2c1.3,0.1,2.4,0.8,3.2,1.8c0.6,0.9,1,2,1.4,3c0.2,0.4,0.4,0.8,0.7,1.2c0.3,0.3,0.6,0.6,1,0.8
		c1.2,0.6,2.6,0.6,3.8,0C341.7,259.7,342.1,259.4,342.4,259z"/>
	<path class="st4" d="M340.1,265c0,0-0.2,0.3-0.6,0.6c-0.6,0.5-1.4,0.8-2.1,1.1c-1.1,0.3-2.4,0.4-3.5,0.1c-1.4-0.3-2.7-1.1-3.8-2.2
		c-0.9-1.1-1.7-2.3-2.3-3.6c-0.5-1-1.2-2-2-2.7c-0.5-0.5-1.2-0.9-1.9-1.1c-0.3,0-0.6-0.1-0.8-0.2c0.3-0.1,0.6-0.1,0.9,0
		c0.8,0.1,1.5,0.5,2.1,1c0.9,0.8,1.6,1.7,2.2,2.8c0.6,1.3,1.3,2.4,2.2,3.5c0.9,1,2.1,1.7,3.5,2.1c1.1,0.3,2.2,0.3,3.3,0
		C338.3,266,339.2,265.6,340.1,265z"/>
	<path class="st4" d="M379.5,247.6c0,0.2-0.1,0.4-0.1,0.6c-0.2,0.5-0.5,1-0.9,1.4c-0.6,0.7-1.4,1.1-2.3,1.4
		c-1.1,0.4-2.4,0.4-3.5,0.1c-2.6-0.6-5.1-3-6.6-6.1s-2.5-6.8-4.8-10c-1.1-1.5-2.6-2.7-4.4-3.4c-1.6-0.6-3.4-0.9-5.2-0.8
		c-3,0.3-5.8,1.5-8,3.6c-1.5,1.4-2.8,3-3.8,4.7c-0.7,1.2-1,2-1.1,2c0-0.2,0.1-0.4,0.2-0.6c0.2-0.5,0.4-1,0.7-1.5
		c1-1.8,2.2-3.5,3.7-4.9c2.2-2.2,5.2-3.5,8.2-3.8c1.8-0.2,3.7,0.1,5.4,0.8c1.8,0.7,3.4,2,4.6,3.6c2.4,3.3,3.2,7.1,4.8,10.1
		s3.8,5.3,6.3,6c1.1,0.3,2.3,0.3,3.4-0.1C377.7,250.3,379,249.2,379.5,247.6L379.5,247.6z"/>
	<path class="st4" d="M379.1,254.6c0,0-0.1,0.2-0.4,0.4c-0.4,0.4-0.8,0.7-1.2,1.1c-0.7,0.5-1.4,0.9-2.2,1.2
		c-1.1,0.4-2.2,0.6-3.4,0.5c-3-0.5-5.6-2.1-7.4-4.6c-1-1.4-1.8-3-2.3-4.7c-0.6-1.7-1.1-3.5-1.7-5.3c-0.6-1.7-1.5-3.4-2.6-4.8
		c-1.1-1.3-2.5-2.2-4.1-2.7c-2.8-0.7-5.8-0.3-8.3,1.1c-1.7,0.9-3.3,2.1-4.8,3.4l-1.2,1.1c-0.1,0.1-0.3,0.3-0.4,0.4
		c0.1-0.2,0.2-0.3,0.4-0.4c0.2-0.3,0.6-0.7,1.1-1.2c1.4-1.4,3-2.6,4.7-3.6c2.6-1.5,5.7-1.9,8.6-1.2c1.7,0.5,3.3,1.4,4.4,2.8
		c1.2,1.5,2.1,3.1,2.7,4.9c0.6,1.8,1.1,3.6,1.7,5.3c0.5,1.6,1.3,3.2,2.2,4.6c1.6,2.4,4.2,4,7,4.5c1.1,0.1,2.2,0,3.2-0.4
		c0.8-0.3,1.5-0.7,2.2-1.1C378.6,255.1,379.1,254.6,379.1,254.6z"/>
	<path class="st7" d="M271.2,403.4l1.7,4.2l-3.3,38.5h85l-3.8-11.5l10.6,0.5c16.3,0.8,29.6-13.7,26.4-29.7c-0.1-0.5-0.2-1-0.3-1.4
		c-5.3-20.6-12.4-48.3-14.9-56.4c-4.1-13.5-13.3-19.9-13.3-19.9H359c-12.7-10.4-30-11.3-30-11.3l-6.4,4.3
		c-6.4,4.3-14.5,4.9-21.5,1.8c-2.5-1.2-4.5-3.4-5.2-6l0,0c-7.5,0.8-14.8,2.7-21.7,5.7c-7.9,3.7-14,10.5-16.8,18.8l-22.2,65
		l-37.8-5.1l-8.1,22.1l38.3,9.1c14.1,4.2,29.3-2,36.4-15L271.2,403.4 M341.9,408.7L341.9,408.7c0,0,3.6-13.9,5.8-21.4l5.4,21
		L341.9,408.7z"/>
	<path class="st6" d="M370.8,435.4h-0.4H369h-5l-18.7,0.1l-65.1,0.1H280v-0.2c0.3-7.9,0.7-16.3,1-24.9v-0.2h0.2l24.2-0.8l47.6-1.4
		l-0.2,0.3c-1.8-6.5-3.2-12.8-4.6-18.8s-2.6-11.8-3.9-17.2c-0.6-2.7-1.2-5.4-1.7-7.9c-0.6-2.5-1.1-5-1.4-7.5c-0.2-2.3-0.2-4.7,0-7
		c0.2-2.1,0.6-4.3,1.2-6.3c1-3.6,2.9-6.8,5.7-9.2c2.1-1.8,4.6-3,7.3-3.4c1.7-0.3,3.4-0.2,5,0.3c0.4,0.1,0.8,0.3,1.2,0.5
		c0.3,0.1,0.4,0.2,0.4,0.2s-0.5-0.2-1.6-0.5c-1.6-0.4-3.3-0.5-5-0.2c-2.7,0.4-5.2,1.6-7.2,3.4c-2.7,2.5-4.6,5.6-5.5,9.1
		c-0.6,2.1-1,4.2-1.1,6.3c-0.2,2.3-0.2,4.7,0,7c0.3,2.5,0.8,5,1.4,7.4c0.6,2.5,1.1,5.2,1.8,7.9c1.2,5.4,2.5,11.2,3.9,17.2
		s2.9,12.4,4.7,18.8l0.1,0.3h-0.3l-47.5,1.5l-24.2,0.8l0.2-0.2c-0.4,8.6-0.7,16.9-1.1,24.9l-0.2-0.3l65.1,0.1l18.7,0.1h5h1.3
		C370.5,435.3,370.6,435.3,370.8,435.4z"/>
	<path class="st6" d="M275.9,346.9c0,0.2,0.1,0.4,0,0.6c0,0.4,0,1,0,1.8c-0.1,2.2-0.5,4.4-1.1,6.5c-0.9,3.1-2.1,6.2-3.3,9.1
		c-1.6,3.6-2.8,7.4-3.7,11.3c-0.7,3.9-0.7,7.9-0.1,11.8c0.5,3.2,1.3,6.3,2.3,9.4c0.8,2.6,1.6,4.7,2.1,6.2l0.6,1.7
		c0.1,0.2,0.1,0.4,0.2,0.6c-0.1-0.2-0.2-0.4-0.3-0.6c-0.2-0.4-0.4-1-0.7-1.6c-0.6-1.4-1.4-3.5-2.3-6.2c-1.1-3.1-1.9-6.2-2.4-9.4
		c-0.7-3.9-0.7-8,0-11.9c0.9-3.9,2.1-7.7,3.7-11.3c1.4-3.4,2.6-6.4,3.4-9.1c0.7-2.1,1.1-4.2,1.3-6.4
		C275.9,347.7,275.9,346.9,275.9,346.9z"/>
	<path class="st6" d="M353.1,408.3c0.6-0.2,1.2-0.3,1.8-0.2c1.5,0,2.9,0.4,4.2,1c1.4,0.6,2.5,1.5,3.4,2.8c0.4,0.5,0.6,1.1,0.6,1.7
		c-0.1,0-0.3-0.6-1-1.5c-0.9-1.1-2-1.9-3.3-2.5c-1.3-0.6-2.6-0.9-4-1.1C354.2,408.4,353.7,408.4,353.1,408.3z"/>
	<path class="st6" d="M345.6,320.1c0.5,0.2,1.1,0.4,1.6,0.6c0.5,0.2,1.1,0.5,1.8,0.8l2.4,1.2c0.9,0.4,1.8,1,2.8,1.5s2,1.2,3.1,1.9
		c2.3,1.6,4.5,3.4,6.5,5.3c3.7,3.6,6.5,8,8.3,12.8c0.3,0.8,0.6,1.7,0.8,2.5c0.2,0.8,0.4,1.4,0.4,2c0.1,0.6,0.2,1.1,0.2,1.7
		c-0.2-0.5-0.3-1.1-0.4-1.6c-0.1-0.5-0.3-1.2-0.5-1.9s-0.5-1.6-0.8-2.5c-1.8-4.7-4.6-9-8.3-12.5c-2-1.9-4.2-3.7-6.5-5.3
		c-1.1-0.7-2.1-1.4-3.1-2s-1.9-1.1-2.8-1.6l-2.3-1.2l-1.8-0.9C346.6,320.7,346.1,320.4,345.6,320.1z"/>
	<g class="st8">
		<path d="M342.3,362c0,0-8.4,37.3-8.3,40.9c0,1.9,0.3,3.8,0.9,5.7l7,0.1l0.1-0.7l5.9-21.1L342.3,362z"/>
	</g>
	<path class="st9" d="M295.9,360.1c0,0.1-0.9,0.4-2.3,1.5c-2,1.5-3.5,3.6-4.3,5.9c-0.6,1.6-0.8,3.3-0.7,5c0.1,2,0.7,3.8,1.7,5.5
		c1.1,1.9,2.6,3.4,4.5,4.5c1,0.6,2,1,3.1,1.3c1.1,0.3,2.3,0.4,3.5,0.4c1.2,0,2.3-0.2,3.5-0.6c1.1-0.4,2.1-0.8,3.1-1.5
		c5-3.3,7-9.7,4.7-15.3c-1-2.3-2.6-4.3-4.6-5.7c-1.5-1-2.4-1.3-2.4-1.4c0.2,0.1,0.5,0.1,0.7,0.2c0.6,0.3,1.2,0.6,1.8,0.9
		c3.7,2.4,5.9,6.5,5.9,10.8c0,2-0.5,4-1.4,5.8c-1,2-2.5,3.7-4.4,4.9c-1,0.6-2.1,1.2-3.2,1.5c-1.2,0.4-2.4,0.5-3.6,0.6
		c-2.4,0.1-4.8-0.6-6.9-1.8c-1.9-1.1-3.5-2.8-4.7-4.7c-3.3-5.7-1.7-13,3.6-16.8c0.6-0.4,1.2-0.7,1.8-1
		C295.5,360.3,295.7,360.2,295.9,360.1z"/>
	<path class="st9" d="M301,357.8c0.3,3.1,0.3,6.1,0.3,9.2c0.1,3.1,0,6.1-0.3,9.2c-0.3-3.1-0.4-6.1-0.3-9.2
		C300.7,364,300.8,360.9,301,357.8z"/>
	<path class="st5" d="M268.8,410l-5.5-2.2c0,0-6.4-10.8-7.7-10.3s-1.5,3.8,1.1,8.8l-7.2-1.6c0,0-15,8-14.3,8.9s2.1,3.1,5.4,1.2
		s7.6-4.2,7.6-4.2l8.5,1.9l-10.6,2l-9.6,9.7c0,0,3.4,2.3,6.2-0.5l26.5,4.2h11.2l0.6-14.8L268.8,410z"/>
	<path class="st10" d="M242.5,423.7c0.1,0.1,0.6-0.7,1.4-1.8c0.5-0.6,1.1-1.2,1.8-1.6c0.9-0.5,1.8-0.8,2.8-0.9
		c4.3-0.8,7.8-1.6,7.8-1.8s-3.6,0.2-7.9,1c-1.1,0.1-2.1,0.5-3.1,1.1c-0.7,0.5-1.4,1.1-1.9,1.9C243,422.2,242.7,422.9,242.5,423.7z"
		/>
	<path class="st10" d="M246.7,424.5c0.1,0,0.1-0.5,0.9-0.8s1.9-0.4,3.2-0.6c2.5-0.4,4.6-0.5,4.6-0.7s-2.1-0.5-4.7-0.1
		c-1.1,0.1-2.2,0.4-3.3,0.9c-0.4,0.2-0.6,0.5-0.8,0.9C246.5,424.4,246.6,424.5,246.7,424.5z"/>
	<path class="st10" d="M268.1,409.7c-0.9-0.2-1.8-0.4-2.6-0.8c-1.6-0.5-3.9-1.1-6.4-1.8l-6.4-1.6c-0.9-0.2-1.8-0.5-2.6-0.8
		c0.9,0.1,1.8,0.2,2.7,0.5c1.7,0.3,4,0.8,6.5,1.5c2.2,0.5,4.3,1.2,6.4,1.9C266.4,408.8,267.3,409.2,268.1,409.7z"/>
</g>
<g id="freepik--Screens--inject-13">
	<path class="st6" d="M360.3,130.7c0-0.4-0.1-0.7-0.1-1.1c0-0.7,0-1.7-0.1-3c0-2.6-0.1-6.2-0.1-10.4l0.2,0.2h-14.5
		c0,0.1,0.5-0.5,0.3-0.3l0,0v3.9c0,1.3,0,2.5,0,3.7c0,2.4,0,4.7,0,6.8l-0.2-0.2l10.4,0.1l3,0.1C360,130.6,360.4,130.6,360.3,130.7
		c-0.3,0-0.6,0-0.9,0h-2.9l-10.6,0.1h-0.2v-0.2c0-2.1,0-4.4,0-6.8c0-1.2,0-2.5,0-3.7v-3.9l0,0c-0.2,0.2,0.3-0.3,0.3-0.3h14.5h0.2
		v0.2c0,4.3-0.1,7.9-0.1,10.6c0,1.2,0,2.2-0.1,2.9C360.4,130,360.4,130.4,360.3,130.7z"/>
	<path class="st6" d="M360.3,116.4c0.1,0.1-3,3.4-7,7.4c-2.3,2.5-4.8,4.8-7.4,7c2.2-2.6,4.5-5,7-7.4
		C355.3,121,357.7,118.6,360.3,116.4z"/>
	<path class="st6" d="M360.1,130.6c-2.5-2.2-5-4.5-7.2-6.9c-2.4-2.3-4.7-4.7-6.9-7.3c2.5,2.2,4.9,4.5,7.2,6.9
		C355.6,125.7,357.9,128.1,360.1,130.6z"/>
	<path class="st6" d="M445.9,214.9c0.2-0.3,0.5-0.6,0.8-0.9c0.6-0.6,1.4-1.4,2.2-2.2c1.9-1.9,4.6-4.4,7.5-7.3l0.1-0.1v0.4
		c-3-2.8-5.7-5.3-7.6-7.1l-2.2-2.2c-0.3-0.3-0.6-0.5-0.8-0.9c0.3,0.2,0.6,0.4,0.9,0.7l2.4,2.1c2,1.8,4.7,4.2,7.7,7l0.2,0.2l-0.2,0.2
		l-0.1,0.1c-3,2.8-5.7,5.3-7.6,7.1l-2.4,2.1C446.6,214.4,446.3,214.7,445.9,214.9z"/>
	<path class="st6" d="M422.9,194.6c-0.2,0.3-0.5,0.6-0.8,0.9l-2.2,2.2c-1.9,1.9-4.6,4.4-7.5,7.3l-0.1,0.1v-0.4
		c3,2.8,5.7,5.3,7.6,7.1l2.2,2.2c0.3,0.3,0.6,0.5,0.8,0.9c-0.3-0.2-0.6-0.4-0.9-0.7c-0.6-0.6-1.4-1.3-2.4-2.1c-2-1.8-4.7-4.2-7.7-7
		l-0.2-0.2l0.2-0.2l0.1-0.1c3-2.8,5.7-5.3,7.6-7.1l2.4-2.1C422.2,195.1,422.5,194.8,422.9,194.6z"/>
	<path class="st6" d="M428.8,219.7c-0.1,0,2.3-6.8,5.4-15.1s5.8-15,5.9-14.9s-2.3,6.8-5.4,15.1S428.9,219.7,428.8,219.7z"/>
	<path class="st6" d="M331.1,187.1c0.2-0.3,0.5-0.6,0.8-0.9c0.6-0.6,1.4-1.4,2.2-2.2c1.9-1.9,4.6-4.4,7.5-7.3l0.1-0.1v0.4
		c-3-2.8-5.7-5.3-7.6-7.1l-2.2-2.2c-0.3-0.3-0.6-0.5-0.8-0.9c0.3,0.2,0.6,0.4,0.9,0.7l2.4,2.1c2,1.8,4.7,4.2,7.7,7l0.2,0.2l-0.2,0.2
		l-0.1,0.1c-3,2.8-5.7,5.3-7.6,7.1l-2.4,2.1C331.8,186.7,331.5,186.9,331.1,187.1z"/>
	<path class="st6" d="M308.1,166.9c-0.2,0.3-0.5,0.6-0.8,0.9L305,170c-1.9,1.9-4.6,4.4-7.5,7.3l-0.1,0.1V177c3,2.8,5.7,5.3,7.6,7.1
		l2.2,2.2c0.3,0.3,0.6,0.5,0.8,0.9c-0.3-0.2-0.6-0.4-0.9-0.7c-0.6-0.6-1.4-1.3-2.4-2.1c-2-1.8-4.7-4.2-7.7-7l-0.2-0.2l0.2-0.2
		l0.1-0.1c3-2.8,5.7-5.3,7.6-7.1l2.4-2.1C307.4,167.4,307.7,167.1,308.1,166.9z"/>
	<path class="st6" d="M314,191.9c-0.1,0,2.3-6.8,5.4-15.1s5.8-15,5.9-14.9s-2.3,6.8-5.4,15.1S314.1,192,314,191.9z"/>
	<path class="st6" d="M472.1,234.2c0,0,0-0.4,0-1.1s0-1.8,0-3.3c0-2.9,0-7-0.1-12.3c0-10.6-0.1-25.8-0.1-44.1l0.2,0.2l-75,0.1l0,0
		l0.3-0.3c0,22,0,42.8,0,60.9l-0.2-0.2l54.1,0.1l15.4,0.1h4.1h1L472.1,234.2l-1.3-0.1h-4l-15.3,0.1l-54.3,0.1H397v-0.2
		c0-18.1,0-38.9,0-60.9V173h0.3h75h0.2v0.2c0,18.4-0.1,33.6-0.1,44.3c0,5.3,0,9.4-0.1,12.3c0,1.4,0,2.5,0,3.2
		S472.1,234.2,472.1,234.2z"/>
	<path class="st6" d="M472.7,182.3c0,0.1-16.9,0.3-37.8,0.3s-37.8-0.1-37.8-0.3s16.9-0.3,37.8-0.3S472.7,182.2,472.7,182.3z"/>
	<path class="st6" d="M403.2,177.9c0,0.6-0.4,1-1,1s-1-0.4-1-1s0.4-1,1-1S403.2,177.3,403.2,177.9z"/>
	<path class="st6" d="M406.9,177.9c0,0.6-0.4,1-1,1s-1-0.4-1-1s0.4-1,1-1S406.9,177.3,406.9,177.9z"/>
	<path class="st6" d="M410.6,177.9c0,0.6-0.4,1-1,1s-1-0.4-1-1s0.4-1,1-1S410.6,177.3,410.6,177.9z"/>
	<rect x="260.3" y="81.3" class="st4" width="59.2" height="42.2"/>
	<path class="st11" d="M320.1,87.6c0,0.1-13.4,0.3-29.9,0.3s-29.9-0.1-29.9-0.3s13.4-0.3,29.9-0.3S320.1,87.4,320.1,87.6z"/>
	<path class="st11" d="M265.2,84.5c0.1,0.4-0.2,0.9-0.7,0.9c-0.4,0.1-0.9-0.2-0.9-0.7c-0.1-0.4,0.2-0.9,0.7-0.9c0,0,0.1,0,0.1,0
		C264.8,83.8,265.1,84.1,265.2,84.5z"/>
	<path class="st11" d="M268.1,84.5c0.1,0.4-0.2,0.9-0.7,0.9c-0.4,0.1-0.9-0.2-0.9-0.7c-0.1-0.4,0.2-0.9,0.7-0.9c0,0,0.1,0,0.1,0
		C267.7,83.8,268.1,84.1,268.1,84.5z"/>
	<ellipse class="st11" cx="270.2" cy="84.5" rx="0.8" ry="0.7"/>
	<path class="st7" d="M235.2,183.8c0,0,0-0.3,0-0.8s0-1.3,0-2.3c0-2,0-4.9-0.1-8.7c0-7.4-0.1-18.1-0.1-30.8l0.2,0.2h-45.9
		c-0.1,0.1,0.5-0.5,0.3-0.2l0,0v11.4c0,3.8,0,7.4,0,11c0,7.1,0,13.9,0,20.1l-0.2-0.2l33.1,0.1l9.4,0.1h2.5h0.6L235.2,183.8l-0.8-0.1
		H232l-9.3,0.1l-33.3,0.1h-0.2v-0.2c0-6.2,0-13,0-20.1c0-3.6,0-7.2,0-11v-11.2l0,0l0.3-0.3h45.9h0.2v0.2c0,12.8-0.1,23.5-0.1,30.9
		c0,3.7,0,6.6-0.1,8.6c0,1,0,1.7,0,2.2S235.2,183.8,235.2,183.8z"/>
	<path class="st7" d="M235.1,147.5c0,0.1-10.2,0.3-22.9,0.3s-22.9-0.1-22.9-0.3s10.2-0.3,22.9-0.3S235.1,147.4,235.1,147.5z"/>
	<ellipse class="st7" cx="193.4" cy="144.4" rx="0.8" ry="0.7"/>
	<path class="st7" d="M197.1,144.4c0.1,0.4-0.3,0.8-0.7,0.9c-0.4,0.1-0.8-0.3-0.9-0.7c-0.1-0.4,0.3-0.8,0.7-0.9c0,0,0.1,0,0.1,0
		C196.7,143.7,197.1,144,197.1,144.4z"/>
	<path class="st7" d="M200.1,144.4c0.1,0.4-0.3,0.8-0.7,0.9c-0.4,0.1-0.8-0.3-0.9-0.7c-0.1-0.4,0.3-0.8,0.7-0.9c0,0,0.1,0,0.1,0
		C199.7,143.7,200,144,200.1,144.4z"/>
	<path class="st7" d="M352.9,194.4c0,0,0-0.3,0-0.8c0-0.5,0-1.3,0-2.2c0-2,0-4.9-0.1-8.6c0-7.4-0.1-18-0.1-31l0.2,0.2l-65.9,0.1l0,0
		l0.3-0.3c0,15.1,0,29.5,0,42.6l-0.2-0.2l47.4,0.1l13.6,0.1h3.6h0.9C352.8,194.3,352.9,194.3,352.9,194.4l-0.2-0.1h-0.9h-3.6
		l-13.5,0.1l-47.6,0.1h-0.2v-0.2c0-13.1,0-27.4,0-42.6v-0.1h0.3l65.9,0.1h0.2v0.2c0,13-0.1,23.7-0.1,31.1c0,3.7,0,6.5,0,8.5
		c0,1,0,1.7,0,2.2C353,194.1,352.9,194.4,352.9,194.4z"/>
	<path class="st7" d="M352.9,158.1c0,0.1-14.8,0.3-33,0.3s-33-0.1-33-0.3s14.8-0.3,33-0.3S352.9,158,352.9,158.1z"/>
	<path class="st7" d="M291.9,155c0.1,0.4-0.3,0.8-0.7,0.9s-0.8-0.3-0.9-0.7s0.3-0.8,0.7-0.9c0,0,0.1,0,0.1,0
		C291.5,154.3,291.9,154.6,291.9,155z"/>
	<path class="st7" d="M294.9,155c0.1,0.4-0.3,0.8-0.7,0.9s-0.8-0.3-0.9-0.7s0.3-0.8,0.7-0.9c0,0,0.1,0,0.1,0
		C294.5,154.3,294.8,154.6,294.9,155z"/>
	<path class="st7" d="M297.8,155c0.1,0.4-0.3,0.8-0.7,0.9c-0.4,0.1-0.8-0.3-0.9-0.7c-0.1-0.4,0.3-0.8,0.7-0.9c0,0,0.1,0,0.1,0
		C297.4,154.3,297.8,154.6,297.8,155z"/>
	<path class="st11" d="M369.3,151.6c0,0.1-18.7,0.3-41.7,0.3s-41.7-0.1-41.7-0.3s18.7-0.3,41.7-0.3S369.3,151.5,369.3,151.6z"/>
	<path class="st11" d="M292.7,147.3c0.1,0.6-0.4,1.2-1,1.2c-0.6,0.1-1.2-0.4-1.2-1c-0.1-0.6,0.4-1.2,1-1.2c0,0,0.1,0,0.1,0
		C292.1,146.3,292.6,146.7,292.7,147.3C292.7,147.3,292.7,147.3,292.7,147.3z"/>
	<path class="st11" d="M296.7,147.3c0.1,0.6-0.4,1.2-1,1.2c-0.6,0.1-1.2-0.4-1.2-1c-0.1-0.6,0.4-1.2,1-1.2c0,0,0.1,0,0.1,0
		C296.2,146.3,296.7,146.7,296.7,147.3C296.7,147.3,296.7,147.3,296.7,147.3z"/>
	<path class="st11" d="M300.8,147.3c0.1,0.6-0.4,1.2-1,1.2c-0.6,0.1-1.2-0.4-1.2-1c-0.1-0.6,0.4-1.2,1-1.2c0,0,0.1,0,0.1,0
		C300.2,146.3,300.7,146.7,300.8,147.3C300.8,147.3,300.8,147.3,300.8,147.3z"/>
	<path class="st6" d="M115.4,259c0-0.1,0-0.1,0-0.2v-0.5c0-0.5,0-1.2,0-2.1c0-1.9,0-4.6-0.1-8.1c0-6.9-0.1-16.8-0.1-28.6l0.2,0.2
		H75.9c-0.1,0.1,0.5-0.5,0.3-0.2l0,0v5.4c0,1.8,0,3.6,0,5.3v10.2c0,6.6,0,12.9,0,18.7l-0.2-0.2l28.6,0.1l8.1,0.1h2.1h0.6l0,0h-0.5
		h-2.1l-8,0.1l-28.7,0.1h-0.2V259c0-5.8,0-12,0-18.7v-20.9l0,0c-0.2,0.2,0.3-0.3,0.3-0.3h39.6h0.2v0.2c0,11.9-0.1,21.8-0.1,28.7
		c0,3.4,0,6.1-0.1,8c0,0.9,0,1.6,0,2.1c0,0.2,0,0.4,0,0.5C115.5,258.9,115.4,258.9,115.4,259z"/>
	<path class="st6" d="M115.4,219.8c0.1,0.1-8.7,9-19.5,19.9S76,259.3,75.9,259.2s8.6-9,19.5-19.9S115.3,219.7,115.4,219.8z"/>
	<path class="st6" d="M114.7,258.8c-0.1,0.1-8.8-8.5-19.5-19.3s-19.2-19.5-19.1-19.6s8.8,8.5,19.5,19.3S114.8,258.6,114.7,258.8z"/>
	<path class="st6" d="M197.8,230.1c0,0.1-15.7,0.3-35.1,0.3s-35.1-0.1-35.1-0.3s15.7-0.3,35.1-0.3S197.8,229.9,197.8,230.1z"/>
	<path class="st6" d="M197.8,236.4c0,0.1-15.7,0.3-35.1,0.3s-35.1-0.1-35.1-0.3s15.7-0.3,35.1-0.3S197.8,236.2,197.8,236.4z"/>
	<path class="st6" d="M197.8,242.7c0,0.1-15.7,0.3-35.1,0.3s-35.1-0.1-35.1-0.3s15.7-0.3,35.1-0.3S197.8,242.5,197.8,242.7z"/>
	<path class="st6" d="M197.8,249c0,0.1-15.7,0.3-35.1,0.3s-35.1-0.1-35.1-0.3s15.7-0.3,35.1-0.3S197.8,248.8,197.8,249z"/>
	<path class="st6" d="M159.4,223.7c0,0.1-7.2,0.3-16.1,0.3s-16.1-0.1-16.1-0.3s7.2-0.3,16.1-0.3S159.4,223.6,159.4,223.7z"/>
	<path class="st6" d="M63.4,207.5h11.8h32.9l114.3,0.2h0.2v0.3c0,19.5,0,40.6,0,62.6v0.3h-14.5l0.3-0.3v13.6l-0.4-0.4l-13-13
		l0.2,0.1l-131.7-0.1h-0.2v-0.2c0-19.6,0.1-35.4,0.1-46.3c0-5.4,0-9.6,0-12.4c0-1.4,0-2.5,0-3.2S63.3,207.5,63.4,207.5
		c-0.1,0-0.1,0.4-0.1,1.1s0,1.8,0,3.2c0,2.9,0,7.1,0,12.5c0,10.9,0.1,26.6,0.1,46.2l-0.2-0.2l131.7-0.1h0.1l0.1,0.1l13,13l-0.4,0.2
		v-13.3h14.6l-0.3,0.3c0-21.9,0-43.1,0-62.6l0.2,0.2l-114.1-0.4l-33-0.2h-8.8H64L63.4,207.5z"/>
</g>
<g id="freepik--Desk--inject-13">
	<rect x="381.8" y="410.8" class="st4" width="86.8" height="21.8"/>
	<rect x="403.2" y="418" class="st6" width="52.9" height="7.6"/>
	<path class="st6" d="M396.5,422.2c0,2.3-1.9,4.2-4.2,4.2c-2.3,0-4.2-1.9-4.2-4.2c0-2.3,1.9-4.2,4.2-4.2c0,0,0,0,0,0
		C394.7,417.9,396.5,419.8,396.5,422.2C396.5,422.2,396.5,422.2,396.5,422.2z"/>
	<rect x="390.9" y="399" class="st6" width="69.3" height="11.8"/>
	<rect x="390.9" y="377.2" class="st7" width="86.8" height="21.8"/>
	<path class="st3" d="M403.8,398.4c-0.1,0-0.3-4.7-0.3-10.6s0.1-10.6,0.3-10.6s0.3,4.8,0.3,10.6S404,398.4,403.8,398.4z"/>
	<path class="st3" d="M400,398.4c-0.1,0-0.3-4.7-0.3-10.6s0.1-10.6,0.3-10.6c0.3,3.5,0.4,7.1,0.3,10.6
		C400.4,391.3,400.3,394.8,400,398.4z"/>
	<path class="st3" d="M463.9,398.4c-0.3-3.5-0.4-7.1-0.3-10.6c-0.1-3.5,0-7.1,0.3-10.6c0.1,0,0.3,4.8,0.3,10.6
		S464,398.4,463.9,398.4z"/>
	<path class="st3" d="M460.1,398.4c-0.1,0-0.3-4.7-0.3-10.6s0.1-10.6,0.3-10.6s0.3,4.8,0.3,10.6S460.3,398.4,460.1,398.4z"/>
	<circle class="st2" cx="401.1" cy="404.9" r="2.1"/>
	<circle class="st2" cx="453.8" cy="404.9" r="2.1"/>
	<path class="st6" d="M43.7,294h145.8c6.6,0,12,5.4,12,12v91.7c0,6.6-5.4,12-12,12H43.7c-6.6,0-12-5.4-12-12V306
		C31.6,299.4,37,294,43.7,294z"/>
	<polygon class="st4" points="88.2,382.2 78.8,435.4 122.9,435.4 130.9,381.1 	"/>
	<path class="st4" d="M36.9,294h145.8c6.6,0,12,5.4,12,12v91.7c0,6.6-5.4,12-12,12H36.9c-6.6,0-12-5.4-12-12V306
		C24.9,299.4,30.3,294,36.9,294z"/>
	<polygon class="st6" points="126.7,409.7 130.9,381.1 132.1,409.7 	"/>
	<path class="st6" d="M88.4,379.2c0.1,0-0.9,7.1-2.4,15.8s-2.8,15.8-2.9,15.7s0.9-7.1,2.4-15.8S88.3,379.2,88.4,379.2z"/>
	<path class="st3" d="M115.4,347.9c0,3.1-2.5,5.6-5.6,5.6c-3.1,0-5.6-2.5-5.6-5.6c0-3.1,2.5-5.6,5.6-5.6
		C112.9,342.3,115.4,344.8,115.4,347.9C115.4,347.8,115.4,347.8,115.4,347.9z"/>
	<path class="st6" d="M109.8,353.4c-3.1,0-5.6-2.5-5.6-5.6c0-3.1,2.5-5.6,5.6-5.6s5.6,2.5,5.6,5.6l0,0
		C115.4,350.9,112.9,353.4,109.8,353.4z M109.8,342.3c-3.1,0-5.5,2.5-5.5,5.5s2.5,5.5,5.5,5.5s5.5-2.5,5.5-5.5
		C115.4,344.8,112.9,342.3,109.8,342.3z"/>
	<path class="st6" d="M67.4,328.4c0,0,2.6-3.7,1.7-7.8l0,0c0,0,0-1.3-2-3.9c-0.6-0.8-1.3-1.6-2.1-2.3c-0.7-0.6-1.5-1.2-2.3-1.6
		c-0.3-0.2-0.4-0.3-0.4-0.3l0,0c-2.9-1.7-6.4-2.2-9.7-1.5c-2.5,0.5-4.8,1.8-6.6,3.7c-0.6,0.6-1.1,1.3-1.5,2.1
		c-2.1,3.5-2.6,7.7-1.5,11.6c0.1,0.3,0.2,0.5,0.3,0.8v0.1c0,0.1,0.1,0.2,0.1,0.3l0.1,0.2c0.1,0.2,0.2,0.4,0.3,0.6
		c0.2,0.5,0.5,1,0.8,1.5c0.3,0.5,0.7,1.1,1.1,1.5l0,0c1.7,2,4.3,3,6.8,2.7c0.5,0.9,1.3,1.6,2.3,2c1.9,0.4,5.1-0.5,7.3-1.8
		s5.6-3.5,5.5-5.5C67.7,329.9,67.5,329.2,67.4,328.4L67.4,328.4z"/>
	<path class="st7" d="M50.5,311.1c-2.5,0.5-4.8,1.8-6.5,3.7c-0.6,0.6-1.1,1.3-1.5,2.1c-1.3,2.6-3.6,7.5-0.7,13.5s7.3,5.9,9.2,5.6
		s14.4-7.5,14.4-7.5s3.8-5.4,0.7-10.3C63.4,313.9,57.7,309.5,50.5,311.1z"/>
	<path class="st0" d="M49.5,334.2c0,0,1.3,3.3,3.3,3.7s5.1-0.5,7.3-1.8s5.6-3.5,5.5-5.5s-1-4.2-1.3-4.4c-3.1-0.8-6.5-0.3-9.2,1.5
		C52.5,329.1,50.6,331.5,49.5,334.2z"/>
	<g class="st12">
		<path class="st11" d="M56.3,315.2c1.7,3.2,0.5,7.2-2.7,8.9c-3.2,1.7-7.2,0.5-8.9-2.7c-1.7-3.2-0.5-7.2,2.7-8.9
			C50.5,310.8,54.5,312,56.3,315.2C56.3,315.2,56.3,315.2,56.3,315.2z"/>
	</g>
	<g class="st12">
		<path class="st11" d="M43.6,333.3c0.9-1.8,1-3.9,0.4-5.9c-0.6-1.9-1.9-3.5-3.7-4.5c-0.1,2.3,0.2,4.5,1,6.6
			C41.9,330.9,42.7,332.2,43.6,333.3z"/>
	</g>
	<g class="st12">
		<path class="st11" d="M67.1,320.6c-2-0.3-3.8-1.3-5.2-2.9c-1.2-1.5-1.9-3.3-1.8-5.3c1.9,1.1,3.6,2.5,4.9,4.2
			C67.1,319.3,67.1,320.6,67.1,320.6z"/>
	</g>
	<path class="st1" d="M49.6,334.2c0,0.3,0.1,0.5,0.2,0.8c0.1,0.2,0.4,0.4,0.7,0.3c0.3-0.1,0.5-0.4,0.6-0.6c1.4-2.6,3.5-4.8,6.1-6.2
		c1-0.6,2.2-1,3.4-1.1c1.1,0,2.1,0.3,3.2,0.3c0.3,0,0.6,0,0.8-0.1c0.2-0.1,0.2-0.4,0.2-0.7c0-0.3-0.2-0.5-0.4-0.6
		c-2.8-1.2-6.4-0.3-9,1.2C52.8,329.1,50.8,331.4,49.6,334.2"/>
	<rect x="162.3" y="425.8" class="st4" width="96.6" height="6.8"/>
	<path class="st4" d="M139.2,423.2h4.8c4.3,0,7.8,3.5,7.8,7.8l0,0v1.7l0,0h-20.3l0,0V431C131.5,426.7,134.9,423.2,139.2,423.2z"/>
	<path class="st6" d="M151.4,430.5c-3.3,0.3-6.5,0.3-9.8,0.3c-3.3,0.1-6.5,0-9.8-0.3c3.3-0.3,6.5-0.4,9.8-0.3
		C144.9,430.1,148.2,430.2,151.4,430.5z"/>
	<path class="st6" d="M141.8,423.1c0.2,1.2,0.3,2.4,0.2,3.6c0,1.2-0.1,2.4-0.4,3.6c-0.2-1.2-0.3-2.4-0.2-3.6
		C141.4,425.5,141.5,424.3,141.8,423.1z"/>
	<rect x="17.7" y="432.6" class="st6" width="464.6" height="13.5"/>
	<text transform="matrix(6.123234e-17 1 -1 6.123234e-17 427.775 380.7801)" class="st11 st13 st14">AI</text>
</g>
</svg>
