<?xml version="1.0" encoding="utf-8"?>
<!-- Generator: Adobe Illustrator 25.0.0, SVG Export Plug-In . SVG Version: 6.00 Build 0)  -->
<svg version="1.1" id="Layer_1" xmlns="http://www.w3.org/2000/svg" xmlns:xlink="http://www.w3.org/1999/xlink" x="0px" y="0px"
	 viewBox="0 0 57.1 57.1" style="enable-background:new 0 0 57.1 57.1;" xml:space="preserve">
<style type="text/css">
	.st0{fill-rule:evenodd;clip-rule:evenodd;fill:#FFFFFF;}
	.st1{fill-rule:evenodd;clip-rule:evenodd;fill:#122867;}
	.st2{fill:#122867;}
</style>
<path class="st0" d="M44.6,21.9H13c-1.2,0-2.3-1-2.3-2.3V2.8c0-1.2,1-2.3,2.3-2.3h31.6c1.2,0,2.3,1,2.3,2.3v16.8
	C46.9,20.9,45.9,21.9,44.6,21.9z"/>
<path class="st0" d="M36.8,39.7H20.4c-1.2,0-2.3-1-2.3-2.3V20.6c0-1.2,1-2.3,2.3-2.3h16.4c1.2,0,2.3,1,2.3,2.3v16.8
	C39,38.7,38,39.7,36.8,39.7z"/>
<path class="st0" d="M28.6,47.5L28.6,47.5c-1.2,0-2.3-1-2.3-2.3v-3.3c0-1.2,1-2.3,2.3-2.3h0c1.2,0,2.3,1,2.3,2.3v3.3
	C30.8,46.5,29.8,47.5,28.6,47.5z"/>
<path class="st0" d="M54.1,33.7H3.3c-1.2,0-2.3-1-2.3-2.3v0c0-1.2,1-2.3,2.3-2.3h50.8c1.2,0,2.3,1,2.3,2.3v0
	C56.4,32.7,55.4,33.7,54.1,33.7z"/>
<circle class="st0" cx="28.6" cy="54.2" r="2.3"/>
<g id="Layer_2_1_">
	<g id="Layer_1-2">
		<path class="st1" d="M57.1,33.3v-3.8c0-0.5-0.4-0.9-0.9-1c0,0,0,0-0.1,0H43.8v-1c0-1.6-1.3-2.9-2.9-2.9H40v-1.9h4.8
			c1.6,0,2.8-1.3,2.8-2.9V2.9c0-1.6-1.3-2.9-2.9-2.9H12.4c-1.6,0-2.9,1.3-2.9,2.9V20c0,1.6,1.3,2.9,2.9,2.9h4.8v1.9h-1
			c-1.6,0-2.9,1.3-2.9,2.9v1H1c-0.5,0-0.9,0.4-0.9,1v3.8c0,0.6,0.4,1,1,1h1.7L0,56.1c0,0.3,0,0.5,0.2,0.7c0.2,0.2,0.4,0.3,0.7,0.3
			h1.9c0.4,0,0.8-0.3,0.9-0.7l6.5-22.2h3.1v2.9c0,0.5,0.4,1,0.9,1h2.9V40c0,0.5,0.4,0.9,1,1h7.6v5.7H19c-0.5,0-1,0.5-1,1v4
			c-1.5,0.5-2.3,2.2-1.7,3.7c0.5,1.5,2.2,2.3,3.7,1.7c1.5-0.5,2.3-2.2,1.7-3.7c-0.3-0.8-0.9-1.5-1.7-1.7v-3h7.6v3
			c-1.5,0.5-2.3,2.2-1.7,3.7c0.5,1.5,2.2,2.3,3.7,1.7c1.5-0.5,2.3-2.2,1.7-3.7c-0.3-0.8-0.9-1.5-1.7-1.7v-3h7.6v3
			c-1.5,0.5-2.3,2.2-1.7,3.6c0.5,1.5,2.2,2.3,3.6,1.7c1.5-0.5,2.3-2.2,1.7-3.6c-0.3-0.8-0.9-1.5-1.7-1.7v-4c0-0.5-0.4-1-1-1h-6.6
			v-5.7H39c0.5,0,1-0.4,1-0.9c0,0,0,0,0-0.1v-1.9h2.9c0.5,0,1-0.5,1-1v-2.8h3.1l6.5,22.2c0.1,0.4,0.5,0.7,0.9,0.7h1.9
			c0.3,0,0.5-0.1,0.7-0.3c0.2-0.2,0.3-0.5,0.2-0.7l-2.7-21.8h1.8C56.7,34.3,57.2,33.8,57.1,33.3L57.1,33.3z M2.1,55.2H2l2.7-21h3.6
			L2.1,55.2L2.1,55.2z M13.3,32.4H1.9v-1.9h11.4V32.4z M17.1,36.2h-1.9v-8.6c0-0.5,0.5-1,1-1h1L17.1,36.2L17.1,36.2z M19,55.2
			c-0.4,0-0.7-0.2-0.9-0.6c-0.1-0.3,0-0.7,0.2-1c0.4-0.4,1-0.5,1.4-0.1c0.4,0.4,0.5,1,0.1,1.4C19.7,55.1,19.3,55.3,19,55.2L19,55.2z
			 M38.1,53.3c0.4,0,0.7,0.2,0.9,0.6c0.1,0.3,0,0.7-0.2,1c-0.4,0.4-1,0.5-1.4,0.1c-0.4-0.4-0.5-1-0.1-1.4
			C37.4,53.3,37.8,53.2,38.1,53.3L38.1,53.3z M28.6,55.2c-0.4,0-0.7-0.2-0.9-0.6c-0.2-0.5,0-1,0.5-1.2c0.2-0.1,0.5-0.1,0.8,0
			c0.4,0.1,0.6,0.5,0.6,0.9C29.5,54.8,29.1,55.2,28.6,55.2L28.6,55.2z M29.5,46.6h-1.9v-5.7h1.9L29.5,46.6L29.5,46.6z M38.1,39H19
			V20c0-0.6,0.4-1,1-1h17.1c0.6,0,1,0.4,1,1L38.1,39L38.1,39z M22.9,17.1v-1.9c-0.1-3.2,2.3-5.8,5.5-6s5.8,2.3,6,5.5
			c0,0.2,0,0.3,0,0.5v1.9H22.9z M37.1,17.1h-1v-1.9c0.2-4.2-3.1-7.7-7.3-7.9s-7.7,3.1-7.9,7.3c0,0.2,0,0.4,0,0.6v1.9H20
			c-1.6,0-2.9,1.3-2.9,2.9l0,0v1h-4.8c-0.5,0-1-0.4-1-1V2.9c0-0.6,0.4-1,1-1h32.4c0.6,0,1,0.4,1,1V20c0,0.5-0.5,1-1,1H40v-1
			C40,18.4,38.7,17.1,37.1,17.1L37.1,17.1z M41.9,36.1H40v-9.5h1c0.5,0,1,0.4,1,1L41.9,36.1L41.9,36.1z M55.1,55.1H55l-6.1-20.9h3.6
			L55.1,55.1L55.1,55.1z M55.2,32.3H43.8v-1.9h11.4L55.2,32.3z"/>
		<path class="st1" d="M41.9,8.6h1.9V4.8c0-0.5-0.4-0.9-1-1H39v1.9h2.9V8.6z"/>
		<rect x="41.9" y="10.5" class="st2" width="1.9" height="1.9"/>
	</g>
</g>
</svg>
