<svg xmlns="http://www.w3.org/2000/svg" viewBox="0 0 31.1 31.1"><defs><style>.cls-1,.cls-2{fill:#fff;}.cls-1{fill-rule:evenodd;}</style></defs><g id="Layer_2" data-name="Layer 2"><g id="Layer_1-2" data-name="Layer 1"><path class="cls-1" d="M15.55,0A15.55,15.55,0,1,0,31.1,15.55,15.57,15.57,0,0,0,15.55,0Zm0,29.16A13.61,13.61,0,1,1,29.16,15.55,13.63,13.63,0,0,1,15.55,29.16Z"/><path class="cls-1" d="M15.55,3.89A11.66,11.66,0,1,0,27.21,15.55,11.67,11.67,0,0,0,15.55,3.89Zm0,21.38a9.72,9.72,0,1,1,9.72-9.72A9.73,9.73,0,0,1,15.55,25.27Z"/><path class="cls-1" d="M20.93,14.73,13.15,9.87a1,1,0,0,0-1,0,1,1,0,0,0-.5.85v9.72a1,1,0,0,0,.5.85,1,1,0,0,0,.48.12,1,1,0,0,0,.51-.15l7.78-4.85a1,1,0,0,0,.45-.83,1,1,0,0,0-.45-.82Zm-7.32,3.93V12.44l5,3.11Z"/><rect class="cls-2" x="0.97" y="14.58" width="3.89" height="1.94"/><rect class="cls-2" x="14.58" y="0.97" width="1.94" height="3.89"/><rect class="cls-2" x="26.24" y="14.58" width="3.89" height="1.94"/><rect class="cls-2" x="14.58" y="26.24" width="1.94" height="3.89"/></g></g></svg>