<svg xmlns="http://www.w3.org/2000/svg" viewBox="0 0 52.8 52.1"><defs><style>.cls-1{fill:#b4b22f;fill-rule:evenodd;}</style></defs><g id="Layer_2" data-name="Layer 2"><g id="Layer_1-2" data-name="Layer 1"><g id="Layer_1-3" data-name="Layer_1"><g id="_1243652013792" data-name=" 1243652013792"><path class="cls-1" d="M52.59,22.11,43.75,10.63a1,1,0,0,0-1.38-.25L36.67,14H29.23a.93.93,0,0,0-.29.05l-5.77,1.66-6-1.64-5.81-3.7a1.05,1.05,0,0,0-1.37.23L.23,22.72a1,1,0,0,0,.13,1.43l5.12,4.41,4.6,6.2a3.65,3.65,0,0,0,.08,5.08,3.71,3.71,0,0,0,2.22,1.06,3.43,3.43,0,0,0,0,.56A3.65,3.65,0,0,0,16,45.11h0s0,0,0,.08a3.67,3.67,0,0,0,3.66,3.66,3.45,3.45,0,0,0,.57-.05A3.6,3.6,0,0,0,21.32,51a3.66,3.66,0,0,0,5.17,0l.56-.56.24.19a3.6,3.6,0,0,0,2.54,1A3.65,3.65,0,0,0,33.49,48a3.65,3.65,0,0,0,3.71-3.71,3.65,3.65,0,0,0,2.65-1.07,3.71,3.71,0,0,0,1.07-2.65A3.65,3.65,0,0,0,44,34.89l3.36-7,5-4.35a1,1,0,0,0,.15-1.41ZM11,12.63l4.19,2.66L6.12,26.37,2.47,23.24Zm.6,23.5,1.26-1.26.12-.11a1.57,1.57,0,0,1,.86-.35H14a1.57,1.57,0,0,1,1.14.49,1.65,1.65,0,0,1-.07,2.26l-1.23,1.22a1.59,1.59,0,0,1-2.24-2.25Zm3.24,6.45a1.61,1.61,0,0,1,0-2.25l2.45-2.45a1.64,1.64,0,0,1,1.81-.31A1.59,1.59,0,0,1,20,39.21a1.68,1.68,0,0,1-.47,1l-2.41,2.41a1.61,1.61,0,0,1-2.25,0Zm3.7,3.73a1.58,1.58,0,0,1-.47-1.12,1.61,1.61,0,0,1,.47-1.13L21,41.62a1.6,1.6,0,0,1,1.92-.25A1.58,1.58,0,0,1,23.7,43a1.73,1.73,0,0,1-.47.93l-2.41,2.41a1.58,1.58,0,0,1-2.25,0Zm4.21,3.26a1.59,1.59,0,0,1,0-2.25L24,46.06l.12-.11h0a1.51,1.51,0,0,1,.7-.33h0l.13,0h.17a1.58,1.58,0,0,1,1.13.5l.1.12a1.63,1.63,0,0,1-.18,2.14L25,49.57a1.59,1.59,0,0,1-2.25,0ZM42.1,38a1.59,1.59,0,0,1-2.25,0L39.78,38l-6.66-6.73a1,1,0,0,0-1.46,0,1,1,0,0,0,0,1.47l6.73,6.8h0a1.59,1.59,0,0,1,0,2.25,1.57,1.57,0,0,1-1.12.46,1.56,1.56,0,0,1-1.12-.46l-4.51-4.55a1,1,0,1,0-1.47,1.45l4.43,4.48a.6.6,0,0,0,.08.08,1.59,1.59,0,0,1-2.25,2.25L30,43a1,1,0,1,0-1.47,1.45l2.39,2.42.07.08a1.58,1.58,0,1,1-2.24,2.24,2.15,2.15,0,0,0-.24-.18c-.07-.06-.08-.09,0-.17s.09-.16.12-.25.07-.19.1-.28a3.75,3.75,0,0,0,.13-1.6,3.64,3.64,0,0,0-1.54-2.52,3.72,3.72,0,0,0-1.54-.59,3.72,3.72,0,0,0-.89-3.33,3.61,3.61,0,0,0-2.61-1.15h-.11a3.66,3.66,0,0,0-1-2.59,3.61,3.61,0,0,0-2.6-1.14,3.79,3.79,0,0,0-.89.09,3.65,3.65,0,0,0-6-2.16l-4-5.4,9.57-11.66,3.06.83-4,7a3.66,3.66,0,0,0,1.38,5l.16.09h0a2.78,2.78,0,0,0,.44.19,3.65,3.65,0,0,0,4.38-1.66l2.59-4.57,4.62.33L42.1,35.76a1.59,1.59,0,0,1,0,2.25Zm.42-4.75L31,21.71l-.07-.06a1,1,0,0,0-.59-.24L24.65,21a1,1,0,0,0-1,.52l-2.91,5.14a1.57,1.57,0,0,1-1,.75,1.59,1.59,0,0,1-2-1.11,1.57,1.57,0,0,1,.15-1.2l3.89-6.86,1.57-.46h0l5.87-1.7h7.11l8.87,11.28-2.83,5.9Zm4.18-7.53L38.5,15.3l4.19-2.66,7.66,10L46.7,25.73Z"/><path class="cls-1" d="M32,12.07a1,1,0,0,0,.73-.3l7.07-7.08a1,1,0,1,0-1.46-1.46L31.26,10.3a1,1,0,0,0,0,1.47A1,1,0,0,0,32,12.07Z"/><path class="cls-1" d="M20.08,11.77a1,1,0,0,0,.73.3,1.06,1.06,0,0,0,.74-.3,1.05,1.05,0,0,0,0-1.47L14.47,3.23A1,1,0,0,0,13,4.69Z"/><path class="cls-1" d="M26.4,12.07a1,1,0,0,0,1-1V5.18a1,1,0,0,0-2.07,0V11A1,1,0,0,0,26.4,12.07Z"/><path class="cls-1" d="M25.45,1.43a1,1,0,0,0,1,.64,1.07,1.07,0,0,0,.94-.72A1.06,1.06,0,0,0,27,.21a1,1,0,0,0-1.58,1.22Z"/></g></g></g></g></svg>