<?xml version="1.0" encoding="utf-8"?>
<!-- Generator: Adobe Illustrator 25.0.0, SVG Export Plug-In . SVG Version: 6.00 Build 0)  -->
<svg version="1.1" id="Layer_1" xmlns="http://www.w3.org/2000/svg" xmlns:xlink="http://www.w3.org/1999/xlink" x="0px" y="0px"
	 viewBox="0 0 62 62" style="enable-background:new 0 0 62 62;" xml:space="preserve">
<style type="text/css">
	.st0{fill:#FFFFFF;stroke:#000000;stroke-miterlimit:10;}
	.st1{fill:#FFFFFF;stroke:#B51D30;stroke-width:2;stroke-miterlimit:10;}
	.st2{fill:none;stroke:#B51D30;stroke-width:2;stroke-miterlimit:10;}
</style>
<circle class="st0" cx="31.22" cy="30.83" r="31"/>
<polygon class="st1" points="31.06,10.24 39.81,30.83 31.22,51.54 22.42,30.98 "/>
<path class="st2" d="M36.22,6.83l7,16l4-10C47.22,12.83,45.22,9.83,36.22,6.83z"/>
<path class="st2" d="M25.75,6.61l-7,16l-4-10C14.75,12.61,16.75,9.61,25.75,6.61z"/>
<path class="st2" d="M36.7,55.02l7-16l4,10C47.7,49.02,45.7,52.02,36.7,55.02z"/>
<path class="st2" d="M26.17,54.91l-7-16l-4,10C15.17,48.91,17.17,51.91,26.17,54.91z"/>
<path class="st2" d="M46.83,30.98l5.39,12.85c0,0,8-13,0-26L46.83,30.98z"/>
<path class="st2" d="M15.78,30.98l-5.39,12.85c0,0-8-13,0-26L15.78,30.98z"/>
</svg>
