<?xml version="1.0" encoding="utf-8"?>
<!-- Generator: Adobe Illustrator 25.2.0, SVG Export Plug-In . SVG Version: 6.00 Build 0)  -->
<svg version="1.1" id="Layer_1" xmlns="http://www.w3.org/2000/svg" xmlns:xlink="http://www.w3.org/1999/xlink" x="0px" y="0px"
	 viewBox="0 0 24.8 23.1" style="enable-background:new 0 0 24.8 23.1;" xml:space="preserve">
<style type="text/css">
	.st0{fill:#9838F4;}
</style>
<g>
	<path class="st0" d="M11.8,20.8V2.2c0-0.3,0.3-0.6,0.6-0.6l0,0c0.3,0,0.6,0.3,0.6,0.6v18.6c0,0.3-0.3,0.6-0.6,0.6l0,0
		C12.1,21.4,11.8,21.1,11.8,20.8z"/>
	<path class="st0" d="M12,20.4l6.2-6.2c0.2-0.2,0.6-0.2,0.8,0l0,0c0.2,0.2,0.2,0.6,0,0.8l-6.2,6.2c-0.2,0.2-0.6,0.2-0.8,0l0,0
		C11.7,21,11.7,20.6,12,20.4z"/>
	<path class="st0" d="M12,21.2L5.8,15c-0.2-0.2-0.2-0.6,0-0.8l0,0C6,14,6.4,14,6.6,14.2l6.2,6.2c0.2,0.2,0.2,0.6,0,0.8l0,0
		C12.5,21.4,12.2,21.4,12,21.2z"/>
</g>
</svg>
