<?xml version="1.0" encoding="utf-8"?>
<!-- Generator: Adobe Illustrator 25.2.0, SVG Export Plug-In . SVG Version: 6.00 Build 0)  -->
<svg version="1.1" id="Layer_1" xmlns="http://www.w3.org/2000/svg" xmlns:xlink="http://www.w3.org/1999/xlink" x="0px" y="0px"
	 viewBox="0 0 24.8 23.1" style="enable-background:new 0 0 24.8 23.1;" xml:space="preserve">
<style type="text/css">
	.st0{fill:#757474;}
</style>
<g>
	<path class="st0" d="M3.1,11h18.6c0.3,0,0.6,0.3,0.6,0.6l0,0c0,0.3-0.3,0.6-0.6,0.6H3.1c-0.3,0-0.6-0.3-0.6-0.6l0,0
		C2.5,11.2,2.8,11,3.1,11z"/>
	<path class="st0" d="M3.5,11.1l6.2,6.2c0.2,0.2,0.2,0.6,0,0.8l0,0c-0.2,0.2-0.6,0.2-0.8,0l-6.2-6.2c-0.2-0.2-0.2-0.6,0-0.8l0,0
		C2.9,10.9,3.3,10.9,3.5,11.1z"/>
	<path class="st0" d="M2.7,11.1l6.2-6.2c0.2-0.2,0.6-0.2,0.8,0l0,0c0.2,0.2,0.2,0.6,0,0.8l-6.2,6.2c-0.2,0.2-0.6,0.2-0.8,0l0,0
		C2.5,11.7,2.5,11.4,2.7,11.1z"/>
</g>
</svg>
