<?xml version="1.0" encoding="utf-8"?>
<!-- Generator: Adobe Illustrator 25.2.0, SVG Export Plug-In . SVG Version: 6.00 Build 0)  -->
<svg version="1.1" id="Layer_1" xmlns="http://www.w3.org/2000/svg" xmlns:xlink="http://www.w3.org/1999/xlink" x="0px" y="0px"
	 viewBox="0 0 24.8 23.1" style="enable-background:new 0 0 24.8 23.1;" xml:space="preserve">
<style type="text/css">
	.st0{fill:#FFFFFF;}
</style>
<g>
	<path class="st0" d="M21.7,12.1H3.1c-0.3,0-0.6-0.3-0.6-0.6l0,0c0-0.3,0.3-0.6,0.6-0.6h18.6c0.3,0,0.6,0.3,0.6,0.6l0,0
		C22.3,11.8,22,12.1,21.7,12.1z"/>
	<path class="st0" d="M21.3,11.9l-6.2-6.2c-0.2-0.2-0.2-0.6,0-0.8l0,0c0.2-0.2,0.6-0.2,0.8,0l6.2,6.2c0.2,0.2,0.2,0.6,0,0.8l0,0
		C21.9,12.2,21.5,12.2,21.3,11.9z"/>
	<path class="st0" d="M22.1,11.9l-6.2,6.2c-0.2,0.2-0.6,0.2-0.8,0l0,0c-0.2-0.2-0.2-0.6,0-0.8l6.2-6.2c0.2-0.2,0.6-0.2,0.8,0l0,0
		C22.3,11.4,22.3,11.7,22.1,11.9z"/>
</g>
</svg>
