<svg id="Layer_1" data-name="Layer 1" xmlns="http://www.w3.org/2000/svg" viewBox="0 0 312.09 315.35"><defs><style>.cls-1{fill:#ebebeb;}.cls-2{fill:#455a64;}.cls-3,.cls-6{fill:#263238;}.cls-4{fill:#eb9481;}.cls-5{fill:#37474f;}.cls-16,.cls-6{opacity:0.2;}.cls-15,.cls-6{isolation:isolate;}.cls-7{fill:#d72916;}.cls-8{fill:#a6a6a6;}.cls-9{fill:#ad6359;}.cls-10{fill:#c7c7c7;}.cls-11{fill:#dbdbdb;}.cls-12{fill:#d3766a;}.cls-13{fill:#ff9cbd;}.cls-14{fill:#f7a9a0;}.cls-15{opacity:0.1;}</style></defs><title>About us</title><g id="freepik--character-4--inject-152"><path class="cls-1" d="M280.67,274.83v39.43H320.1V274.83Zm3,36.45V277.81h33.46v33.47Z" transform="translate(-13.65 -16.55)"/><rect class="cls-2" x="169.75" y="189.37" width="115.36" height="115.36"/><path class="cls-3" d="M205.63,321.28h64.18c.27-2.45-9.56-54.6-21.1-71.37-1.31-1.9-12.54-3.29-16.66,1.44C210.23,276.42,205.11,320.68,205.63,321.28Z" transform="translate(-13.65 -16.55)"/><path class="cls-4" d="M250.23,254.24c1.82,4.72,8.69,21.26,12.43,33.14,2.5,8,3.46,14.65,4,16.41,0,0-19-6.08-23.22-6.09-6.57,0-17.11,13.7-14.53,15.42,4.07,2.71,23.44,11.9,38.92,14.79,8.41,1.57,24.25-9.12,23-17.62-1.75-11.93-23.31-43.37-31.51-52.29C255.07,253.37,248,248.49,250.23,254.24Z" transform="translate(-13.65 -16.55)"/><path class="cls-3" d="M292,312.81c-.4,8.59-11.15,15.83-17.38,16.21-10.75.65-43-8.74-43-8.74l12.53-24.16s22,7.45,22.51,7.66h0c-.19-.64-5.6-21-8-27.69-.13-.37-.28-.75-.42-1.15-.7-1.87-1.65-4.33-2.71-7h0c-.58-1.48-1.2-3-1.81-4.54h0c-2.65-6.58-5.23-12.85-5.23-12.85,3.69.61,7.34,2.55,13.33,8.84S292.65,298.64,292,312.81Z" transform="translate(-13.65 -16.55)"/><path class="cls-5" d="M240,315.05c.9-1.71,1.81-3.41,2.7-5.12s1.78-3.34,2.68-5a57.15,57.15,0,0,0,2.65-5.24h0a44.15,44.15,0,0,0-3,4.75c-1,1.67-1.9,3.35-2.82,5.06s-1.8,3.37-2.65,5a42.26,42.26,0,0,0-2.42,5.36c0,.08.07.15.12.08A50.9,50.9,0,0,0,240,315.05Z" transform="translate(-13.65 -16.55)"/><path class="cls-5" d="M273.37,307.35l-6.7-3.56h0c-.19-.64-5.6-21-8-27.69-.13-.37-.28-.75-.42-1.15-.7-1.87-1.65-4.33-2.71-7Z" transform="translate(-13.65 -16.55)"/><path class="cls-5" d="M278.91,310.3a54.93,54.93,0,0,0-5.88-3.78,30,30,0,0,0-3.1-1.57c-1.1-.47-2.32-.87-3.44-1.38-.09,0-.15.1-.06.13,1,.48,2,1.14,3.05,1.69s2.1,1.13,3.16,1.68c2.09,1.07,4.14,2.21,6.22,3.31C278.91,310.41,279,310.33,278.91,310.3Z" transform="translate(-13.65 -16.55)"/><path class="cls-4" d="M274,305.09c-1.69,0-11.84-2.69-13.32-1.29-9,8.49-11.86,6.78-13.78,7.89-14.85,8.54-34.69,18.58-41.77,18.64-10.73.09-15-8.92-13.22-17.43,3.53-16.83,26.22-49.64,36.49-58.36,5.45-4.62,5,2.35,2.76,9.91-1.32,4.44-3.63,11-6,17.51-2.09,5.77-7.62,20.51-7.72,20.86h.11c.48-.09,13.18-6.07,25.95-9.36,4.5-1.16,13.87-2.81,17.23-1.31,2,.89,2,2.09,2,2.09a4.89,4.89,0,0,1,3.3,1.24,4.71,4.71,0,0,1,1.46,2.23,5,5,0,0,1,2.67,1.26,4.6,4.6,0,0,1,1.18,2.49C273.79,302.17,274,305.09,274,305.09Z" transform="translate(-13.65 -16.55)"/><path class="cls-3" d="M259,294a24.5,24.5,0,0,0-4,.45c-.09,0-.09.15,0,.14,1.3-.14,2.63-.17,3.94-.21s2.63-.07,3.94-.05h0A21,21,0,0,0,259,294Z" transform="translate(-13.65 -16.55)"/><path class="cls-3" d="M267.53,297.7a16.22,16.22,0,0,0-7.09-.63.09.09,0,0,0-.05.1l.05.05a27.65,27.65,0,0,1,7.09.53S267.56,297.71,267.53,297.7Z" transform="translate(-13.65 -16.55)"/><path class="cls-3" d="M271.4,301.46a16,16,0,0,0-6.72-1.26.07.07,0,1,0,0,.14,39.09,39.09,0,0,1,6.7,1.22S271.45,301.48,271.4,301.46Z" transform="translate(-13.65 -16.55)"/><path class="cls-3" d="M242.93,293.68a28.93,28.93,0,0,0-3.32.74c-1.17.29-2.33.6-3.46,1a64.87,64.87,0,0,0-6.68,2.65s-.08,0-.09,0a.06.06,0,0,0,0,.09h.05c2.22-.78,4.47-1.51,6.72-2.21l3.3-1.08c1.13-.37,2.31-.65,3.42-1.07C243,293.79,243,293.67,242.93,293.68Z" transform="translate(-13.65 -16.55)"/><path class="cls-3" d="M234,296.09a12.26,12.26,0,0,1,3.42-.8l13.36,22.56s-36.81,13.25-44.36,14a15.07,15.07,0,0,1-16.25-13.79c0-.29,0-.58,0-.88-.21-13.33,21.54-45.35,32.48-57.74,5-5.67,10.85-9.79,12.34-8.86,1.76,1.1-1.43,8.23-3.12,13.55-3.11,9.83-14.26,38.73-14.26,38.73S231.24,297,234,296.09Z" transform="translate(-13.65 -16.55)"/><path class="cls-5" d="M237.34,295.27c-2.08.12-11,3.24-15.44,5.13a75.58,75.58,0,0,0-12.55,6.78c-2.23,1.51-4.36,3.15-6.45,4.85a.07.07,0,1,0,.08.12h0a133,133,0,0,1,25-13.59c2.51-1,6.83-2.44,9.28-3.08C237.92,295.3,237.4,295.26,237.34,295.27Z" transform="translate(-13.65 -16.55)"/><path class="cls-5" d="M228.51,275.54c-.56.9-1.13,1.8-1.61,2.75l-.06.14c.71-2.17,1.39-4.34,2-6.53,0-.13-.18-.2-.23-.07-3.16,8-6.1,16.11-9,24.24-.79,2.28-1.49,4.57-2.21,6.87,0,.08.1.12.13,0,.87-2,1.75-3.92,2.54-5.93s1.54-4,2.28-6q2-5.29,3.76-10.65c.37-.62.75-1.25,1.11-1.88.51-.93.94-1.9,1.37-2.87C228.72,275.51,228.57,275.44,228.51,275.54Z" transform="translate(-13.65 -16.55)"/><path class="cls-5" d="M241.86,312.93c-1-1.66-1.94-3.33-2.92-5s-1.89-3.27-2.83-4.91a56.53,56.53,0,0,0-3.05-5H233a42.13,42.13,0,0,0,2.46,5c.91,1.7,1.85,3.39,2.8,5.07s1.89,3.28,2.86,4.9a43.58,43.58,0,0,0,3.28,4.9c0,.06.16,0,.13-.07A50.29,50.29,0,0,0,241.86,312.93Z" transform="translate(-13.65 -16.55)"/><path class="cls-5" d="M251.35,317.9c-1.11-2.19-2.83-4.33-4.11-6.41,0-.08-.16,0-.12.08,1.16,1.95,2.22,4.05,3.33,6-5,2.09-10.42,3.95-15.58,5.78s-10.61,3.65-16,5.21c-3,.87-6,1.81-9.07,2.61-.19,0-.14.2,0,.16A134.13,134.13,0,0,0,226,327.08c5.39-1.71,10.72-3.62,16-5.6C244.94,320.36,251.44,318.07,251.35,317.9Z" transform="translate(-13.65 -16.55)"/><path class="cls-4" d="M242.59,293.69a180.08,180.08,0,0,0-18.53,6.11l-.27.1c-3.16,1.24-5.11,2.16-5.58,2.24l-.1-.06h0a3.87,3.87,0,0,0-1-.54c-.89-.32-9.44-1.39-9.22-4s3.69-2.45,4.2-2.42c-.55-.12-5.19-1.21-3.68-3.52,1.07-1.65,5.66-1.41,6.13-1.39-.47-.15-4.74-1.54-3.27-3.91,1-1.69,6.18-1.47,6.77-1.37-.48-.18-4.28-.82-2.5-2.86,1.23-1.42,10.89,0,15.19,2.17C237.13,287.38,242.59,293.69,242.59,293.69Z" transform="translate(-13.65 -16.55)"/><path class="cls-3" d="M224.06,299.8l-.27.1a31,31,0,0,0-11.5-4.69c-.28,0-.3-.19,0-.18A21.33,21.33,0,0,1,224.06,299.8Z" transform="translate(-13.65 -16.55)"/><path class="cls-3" d="M214.77,290.34c6.08,1.2,8.83,2.55,14.07,5.87.07.05.15-.06.08-.11-4.88-3.65-7.91-5.46-14.1-5.92C214.54,290.16,214.49,290.28,214.77,290.34Z" transform="translate(-13.65 -16.55)"/><path class="cls-3" d="M218.25,285c5.84,1.56,8.92,2.9,13.62,6.71.11.09.25,0,.14-.15a21.85,21.85,0,0,0-13.7-6.72C217.93,284.8,217.88,284.91,218.25,285Z" transform="translate(-13.65 -16.55)"/><path class="cls-4" d="M247.49,261.59c-3.46,1.24-10.18-3.49-13.09-7.62-.19-.29-.09-3.52-.15-7.45a67.64,67.64,0,0,0-.44-7.46l15.58,2a38.85,38.85,0,0,0-.41,9.45,5.76,5.76,0,0,0,.22,1v.16C249.76,253.46,250.83,260.39,247.49,261.59Z" transform="translate(-13.65 -16.55)"/><path class="cls-3" d="M249.24,251.61a3.38,3.38,0,0,1,.08.34c-9.32-.4-12.87-4.5-15.17-8.43-.07-1.5-.17-3-.34-4.46l15.58,2a38.85,38.85,0,0,0-.41,9.45,4.82,4.82,0,0,0,.22,1Z" transform="translate(-13.65 -16.55)"/><path class="cls-4" d="M227.43,222.72c-.85,5.59,4.26,20.63,8.57,23.52,6.26,4.19,15.36,3.33,18.63-3.93,3.17-7-3.83-26.52-8.54-29C239.15,209.59,228.68,214.45,227.43,222.72Z" transform="translate(-13.65 -16.55)"/><path class="cls-3" d="M241.83,229.48s-.06.08,0,.12c.37,1,.62,2.22-.18,2.86v0C242.7,232,242.35,230.38,241.83,229.48Z" transform="translate(-13.65 -16.55)"/><path class="cls-3" d="M240.57,228.73c-1.67.42-.71,3.73.85,3.34S242,228.37,240.57,228.73Z" transform="translate(-13.65 -16.55)"/><path class="cls-3" d="M248.08,227.6s.1,0,.11.07c.27,1,.75,2.18,1.77,2.25V230C248.79,230.15,248.17,228.63,248.08,227.6Z" transform="translate(-13.65 -16.55)"/><path class="cls-3" d="M248.69,226.26c1.62-.6,2.71,2.67,1.21,3.23S247.34,226.77,248.69,226.26Z" transform="translate(-13.65 -16.55)"/><path class="cls-3" d="M238.82,227.59a11.68,11.68,0,0,0,1.16-.83c.43-.32.82-.53,1-1.06a.74.74,0,0,0-.36-.82,1.84,1.84,0,0,0-1.8.33,2.67,2.67,0,0,0-1.15,1.54.77.77,0,0,0,1.15.84Z" transform="translate(-13.65 -16.55)"/><path class="cls-3" d="M249.49,224.22c-.47,0-1,0-1.42,0a2.38,2.38,0,0,1-1.46-.23.74.74,0,0,1-.2-.87,1.81,1.81,0,0,1,1.63-.83,2.66,2.66,0,0,1,1.85.52.78.78,0,0,1,.18,1.09A.8.8,0,0,1,249.49,224.22Z" transform="translate(-13.65 -16.55)"/><path class="cls-3" d="M244.21,239c.32.17.66.43,1,.35a2.79,2.79,0,0,0,1-.58m.06,0a1.45,1.45,0,0,1-1.14.94,1.14,1.14,0,0,1-1.07-.68s.11,0,.15,0Z" transform="translate(-13.65 -16.55)"/><path class="cls-3" d="M244.4,235.62a3.71,3.71,0,0,0,2.78.88,4.7,4.7,0,0,0,1.28-.31l.23-.1.22-.1a.28.28,0,0,0,.14-.29h0v-.1h0v-.09c-.21-.79-.63-2-.63-2,.33.07,2,.3,1.85-.11a54.88,54.88,0,0,0-4.44-10.19c0-.11-.22,0-.18.08,1,3.28,2.62,6.35,3.71,9.63a6.78,6.78,0,0,0-1.8,0c-.1.06.86,2.26.93,2.63h0a5,5,0,0,1-3.94-.07C244.37,235.46,244.31,235.56,244.4,235.62Z" transform="translate(-13.65 -16.55)"/><path class="cls-6" d="M229.07,233.32c.88-.73,2-4.43,2.52-6s-1.06-8-1.58-9.94a10.59,10.59,0,0,0-2.57,5.35C227.06,225.1,227.79,229.23,229.07,233.32Z" transform="translate(-13.65 -16.55)"/><path class="cls-3" d="M243.8,219.27a5.15,5.15,0,0,1-4,3,5.25,5.25,0,0,1-4.76-1.89s-.09,0-.06.05a5.22,5.22,0,0,0,4.86,2.26,5.31,5.31,0,0,0,4.12-3.34C243.94,219.25,243.83,219.2,243.8,219.27Z" transform="translate(-13.65 -16.55)"/><path class="cls-3" d="M235.16,208.53a8.09,8.09,0,0,0-5.51,5.48,5.75,5.75,0,0,0,.5,3.78h.1a6.36,6.36,0,0,1,1.29-6.34,8.18,8.18,0,0,1,6.71-2.83,5.23,5.23,0,0,1,3.29,1.37c.09.09.28,0,.2-.13C240.45,208.25,237.74,207.72,235.16,208.53Z" transform="translate(-13.65 -16.55)"/><path class="cls-3" d="M253.61,210a6.53,6.53,0,0,0-3.67-2.63c-2.07-.58-4,.15-5.94.92v.08a9.07,9.07,0,0,1,5.1-.87,6.57,6.57,0,0,1,3.75,2.2,6.22,6.22,0,0,1-5.07,10.14c-.06,0-.08.11,0,.11a6.44,6.44,0,0,0,5.8-10Z" transform="translate(-13.65 -16.55)"/><path class="cls-3" d="M227.39,225.92s-4.18-4.37-2.74-8c.82-2,5.17-3,5.17-3a8,8,0,0,1,4-4.67c3.35-1.84,8.21-1,8.21-1s2.86-2.91,6.57-2c5.17,1.29,6.53,8.23,2.66,11.67-2.71,2.42-7.77.84-7.77.84-.4.18-3.89,3.9-8.13,1,0,0-1.93,3-4.71,2.08A3.88,3.88,0,0,1,227.39,225.92Z" transform="translate(-13.65 -16.55)"/><path class="cls-4" d="M232.59,234.83s-4.32-4.4-6.37-2.78,1.78,8.41,4.6,8.95a2.73,2.73,0,0,0,3.34-1.91l0-.14Z" transform="translate(-13.65 -16.55)"/><path class="cls-3" d="M227.36,234v.07c2,.45,3.26,2,4.25,3.68a1.52,1.52,0,0,0-2.14-.16,1.21,1.21,0,0,0-.16.16s0,.11.06.09a1.7,1.7,0,0,1,1.93.27,7.59,7.59,0,0,1,1.12,1.34c.12.15.4,0,.31-.17h0C232.35,236.79,230,233.78,227.36,234Z" transform="translate(-13.65 -16.55)"/><path class="cls-1" d="M249.19,251.28l-3.31,9.17-11.6-10.95-3,3.77s11.61,17.65,11.64,16.83l3.41-7.89,5.55,5.19-1-13.51Z" transform="translate(-13.65 -16.55)"/><path class="cls-3" d="M251.77,260.69c-.23-2.22-.4-4.47-.74-6.68a.08.08,0,0,0-.15,0c-.36,2.17.57,10.68.64,12.72h0c-.23-.22-5.13-4.55-5.18-4.48-.75,1.26-3.26,7-3.42,7.53-1.84-2.81-8.86-13-11-15.62a.07.07,0,0,0-.11,0,.06.06,0,0,0,0,.07c1.64,3,10.93,16.69,11.06,16.64a86.14,86.14,0,0,0,3.56-8.33c.84.95,5.81,5.85,5.82,5.52A72.73,72.73,0,0,0,251.77,260.69Z" transform="translate(-13.65 -16.55)"/></g><g id="freepik--character-3--inject-152"><rect class="cls-7" x="43.81" y="131.78" width="117.98" height="121.81"/><path class="cls-8" d="M28.69,184.7v62.64H91.33V184.7Zm4.73,57.91V189.43H86.6v53.18Z" transform="translate(-13.65 -16.55)"/><path class="cls-3" d="M135.28,182.59c3.1-.73,11.14,1.37,13.89,5.48s2.62,10.84,1.25,11.52-7.31.26-11.41-1.92S133.75,183,135.28,182.59Z" transform="translate(-13.65 -16.55)"/><path class="cls-3" d="M135.27,182.61c-.1,0-.12-.19,0-.2,2.73-.11,5.66.77,8.27,1.48a15.8,15.8,0,0,1,6,2.65,7.33,7.33,0,0,1,2.74,5.48,15,15,0,0,1-1.32,7.46c0,.06-.15,0-.13,0,1.19-4.56,2.2-10.12-2.36-13.14C144.58,183.73,139.67,183.5,135.27,182.61Z" transform="translate(-13.65 -16.55)"/><path class="cls-3" d="M150,198.41c2.73.31,9.89,5.39,11.15,10.55s-2.82,12.88-4.14,13.45-7.42-4.3-9.44-7.91c-1.35-2.42-.36-5.27.2-8.11C148.53,202.21,149.53,198.37,150,198.41Z" transform="translate(-13.65 -16.55)"/><path class="cls-3" d="M145.88,213.87c-.89-5.26,2-10.53,3.74-15.32,0-.05.1,0,.09,0-.92,4.59-3.61,8.74-3.62,13.52a8.72,8.72,0,0,0,3.4,7.31c2,1.48,4.61,2.13,7,2.93.16.05.06.28-.1.23C151.65,221.1,146.79,219.31,145.88,213.87Z" transform="translate(-13.65 -16.55)"/><path class="cls-3" d="M150.55,198.89a.11.11,0,0,1,0-.16.11.11,0,0,1,.13-.06c3.9,1.78,8.6,4.38,10.73,8.27,2.31,4.22.13,8.7-1.81,12.57h-.08c1.91-3.92,3.92-8.78,1.31-12.88C158.54,203.06,154.23,200.63,150.55,198.89Z" transform="translate(-13.65 -16.55)"/><path class="cls-3" d="M156.64,222.28a11.65,11.65,0,0,0-4.27,8.18c-.4,6.32-2.87,5.33-9.49,7.67-5.6,2-6.17,8.53-2.79,11.39,0,0-2.17-3.78,1.5-6.11,4.38-2.79,15.45,1,20.06-6.07C167.61,228.2,156.64,222.28,156.64,222.28Z" transform="translate(-13.65 -16.55)"/><path class="cls-3" d="M154.5,225.4c.06-.09-.09-.21-.17-.12a9.6,9.6,0,0,0-1.59,2.89c-.45,1.38-.33,2.81-.68,4.19-.89,3.54-5,3.84-8,4.35-4,.69-6.95,3.46-6.76,7.7m.09,0a7.16,7.16,0,0,1,3.63-6.47c2.24-1.23,4.93-1,7.3-1.81,1.62-.57,3.2-1.44,3.81-3.14a14.33,14.33,0,0,0,.46-2.92,9.87,9.87,0,0,1,1.91-4.67Z" transform="translate(-13.65 -16.55)"/><path class="cls-3" d="M157.77,222.93s-.08,0,0,.06c2.5,2,5.12,4,6.11,7.22,1.06,3.45-.4,7.16-2.95,9.57-2.86,2.69-6.3,1.89-9.83,1.57a14.37,14.37,0,0,0-7.51.83c-.07,0,0,.16.06.13,3.87-1.32,7.61-.51,11.56-.27a7.86,7.86,0,0,0,7.41-3.84C166.53,232.3,163.13,226.37,157.77,222.93Z" transform="translate(-13.65 -16.55)"/><path class="cls-7" d="M137.62,179.7a1.09,1.09,0,0,1,1.71,1.34C138.48,182.16,136.77,180.82,137.62,179.7Z" transform="translate(-13.65 -16.55)"/><path class="cls-7" d="M136.81,181.55a1.09,1.09,0,0,1,1.71,1.34C137.67,184,136,182.67,136.81,181.55Z" transform="translate(-13.65 -16.55)"/><path class="cls-7" d="M135.68,183.25a1.09,1.09,0,1,1,.17,1.4A1.09,1.09,0,0,1,135.68,183.25Z" transform="translate(-13.65 -16.55)"/><path class="cls-7" d="M134.37,184.74a1.09,1.09,0,0,1,1.71,1.34C135.23,187.2,133.52,185.86,134.37,184.74Z" transform="translate(-13.65 -16.55)"/><path class="cls-7" d="M132.79,186c.85-1.12,2.56.22,1.71,1.34a1.09,1.09,0,0,1-1.71-1.34Z" transform="translate(-13.65 -16.55)"/><path class="cls-7" d="M131.07,187a1.09,1.09,0,0,1,1.71,1.34C131.93,189.4,130.23,188.06,131.07,187Z" transform="translate(-13.65 -16.55)"/><path class="cls-9" d="M129.44,207.1c-4.69,5.78-29.8,24-51,23.64-7.2-.11-27.2-30.84-30.9-42.52-2.65-8.39,15.16-12.63,20.2-11.42,6.28,1.52,18.52,27.87,20.94,28,7.2.5,19.56-3.83,34.73-5.37C131.22,198.68,133.06,202.66,129.44,207.1Z" transform="translate(-13.65 -16.55)"/><path class="cls-9" d="M48.25,190.15c-1.34-2.92-7.63-19.15-8.14-23.32s-1.1-16.31,2.06-17,3.61,2.83,3.61,2.83.56-5.17,3.81-5.6,3.78,5.1,3.78,5.1,1-5.26,4.23-5.46,2.87,5.45,2.87,5.45.65-4.85,3.41-3.88c3.33,1.17,1.11,10,2,14.54.21,1,5.68,20.74,5.68,20.74Z" transform="translate(-13.65 -16.55)"/><path class="cls-3" d="M60.49,151.64c-1.61,6.47-1.2,9.59.86,15.83,0,.12-.13.21-.18.08-2.58-5.92-3.66-9.75-1-16C60.31,151.24,60.57,151.33,60.49,151.64Z" transform="translate(-13.65 -16.55)"/><path class="cls-3" d="M53.5,151.62c-1.08,6.87-.66,10.25,1,16.95,0,.09-.13.14-.16.05-2.2-6.43-3.19-10.28-1.2-17C53.24,151.31,53.55,151.3,53.5,151.62Z" transform="translate(-13.65 -16.55)"/><path class="cls-3" d="M45.88,153c-.57,6.74-.27,10.46,2.19,16.75a.13.13,0,0,1-.09.16.15.15,0,0,1-.14,0C44.71,163.69,44.3,159,45.67,153,45.77,152.56,45.92,152.54,45.88,153Z" transform="translate(-13.65 -16.55)"/><path class="cls-9" d="M76,186.57s.93-8.31.53-12-7-17.14-10-15.88c-3.84,1.63-1.55,10.12.12,14.13,0,0-8.89,3.77-8.56,10.22S76,186.57,76,186.57Z" transform="translate(-13.65 -16.55)"/><path class="cls-3" d="M65.65,159.44c-2.43,4,.1,9.13,1.43,13.14a.38.38,0,0,1-.22.5.35.35,0,0,1-.14,0c-3.62,1.83-8.2,5.46-8.8,9.7a.1.1,0,0,1-.13.06.09.09,0,0,1-.06-.06c0-4.64,4.23-8.57,8.32-10.32-1.42-4.09-3.73-9.34-.43-13.07C65.63,159.39,65.67,159.41,65.65,159.44Z" transform="translate(-13.65 -16.55)"/><path class="cls-1" d="M99.43,202.8l8.74,20.2s13.22-6.29,21.26-14.42-.9-10.86-8.68-9.68S99.43,202.8,99.43,202.8Z" transform="translate(-13.65 -16.55)"/><path class="cls-10" d="M129.43,208.62c-8,8.13-21.26,14.42-21.26,14.42l-2.66-6.15,26.63-15.44C133.12,203.07,132.58,205.43,129.43,208.62Z" transform="translate(-13.65 -16.55)"/><path class="cls-3" d="M111.47,220.2a154.49,154.49,0,0,1-7.55-17.37c0-.07.09-.12.12,0,.59,1.56,4.75,10.16,7.56,17.36C111.64,220.24,111.51,220.28,111.47,220.2Z" transform="translate(-13.65 -16.55)"/><path class="cls-1" d="M109.4,242.76l-3.59,27.38h57.31S155.54,218.79,143.3,203c-6.12-7.89-14.32-7.68-20.12-1.65-1.27,1.31-14.07,19.6-16.33,27.15C104.88,235.19,109.4,242.76,109.4,242.76Z" transform="translate(-13.65 -16.55)"/><path class="cls-3" d="M126.08,204.11l-3.62,9.71q-1.78,4.86-3.44,9.75c-1,3.28-2.25,6.56-1.76,9.9a25.27,25.27,0,0,0,3.25,9.54l.08.14v.14c-.5,4.35-1.09,8.7-1.62,13s-1.14,8.69-1.76,13q.56-6.56,1.19-13.09c.44-4.36.84-8.72,1.32-13.07l.06.27a26.09,26.09,0,0,1-3.49-9.89,14.35,14.35,0,0,1,.37-5.3c.44-1.7,1-3.35,1.53-5,1.11-3.29,2.42-6.49,3.73-9.69S124.62,207.25,126.08,204.11Z" transform="translate(-13.65 -16.55)"/><path class="cls-3" d="M118.08,216.76a.86.86,0,0,0,.63,1,.8.8,0,0,0,.9-.67v0a.85.85,0,0,0-.63-1,.77.77,0,0,0-.89.65A.07.07,0,0,0,118.08,216.76Z" transform="translate(-13.65 -16.55)"/><path class="cls-3" d="M114.61,226.21a.85.85,0,0,0,.63,1,.79.79,0,0,0,.89-.66v0a.85.85,0,0,0-.63-1,.79.79,0,0,0-.89.66Z" transform="translate(-13.65 -16.55)"/><path class="cls-3" d="M114.17,235.85a.85.85,0,0,0,.63,1,.8.8,0,0,0,.9-.67v0a.86.86,0,0,0-.63-1,.8.8,0,0,0-.9.67Z" transform="translate(-13.65 -16.55)"/><path class="cls-3" d="M116.85,243.84a.85.85,0,0,0,.63,1,.8.8,0,0,0,.9-.67v0a.86.86,0,0,0-.63-1,.8.8,0,0,0-.9.67Z" transform="translate(-13.65 -16.55)"/><path class="cls-3" d="M115.81,252.55a.86.86,0,0,0,.63,1,.79.79,0,0,0,.89-.66v0a.86.86,0,0,0-.63-1,.79.79,0,0,0-.89.66Z" transform="translate(-13.65 -16.55)"/><path class="cls-3" d="M114.86,261.15a.86.86,0,0,0,.63,1,.8.8,0,0,0,.9-.67v0a.85.85,0,0,0-.64-1,.76.76,0,0,0-.88.64A.13.13,0,0,0,114.86,261.15Z" transform="translate(-13.65 -16.55)"/><path class="cls-9" d="M126.34,300.13c2.89,2,7.75-6.68,9.4-8.53s2.37-1.79,2.27-.38l3.76-14.92c-2,1.51-6.08,4.76-8.28,6.9C130.54,286.06,123.45,298.17,126.34,300.13Z" transform="translate(-13.65 -16.55)"/><path class="cls-9" d="M148,205.22c12.24,9.87,27.67,27.23,30.82,38.45,2.42,8.66-9.76,38.75-13.39,45.77-1.58,3.06-22.54-6.25-23.46-9.82s13.69-29.48,13.83-32.23-9.41-20.91-15.92-33.19C131.93,199.32,137.54,196.83,148,205.22Z" transform="translate(-13.65 -16.55)"/><path class="cls-9" d="M128.4,308.7c1.93,2.1,5.84-.45,5.84-.45s-3.48,4.3-.76,6,6.43-2,6.43-2-3,4.12-.15,5.58,6.49-1.73,6.49-1.73-.2,1.58,2.27,1.72c3.54.2,8.59-5.54,10.52-9.16s6.31-18.31,7-20.57l-23.15-12.58s-.41.3-1.07.82L138,291.22c-.06.93-2.71,6.66-3.67,8.31C132.17,303.24,126.23,306.34,128.4,308.7Z" transform="translate(-13.65 -16.55)"/><path class="cls-3" d="M134.36,308c5.19-3.93,6.78-6.54,9-12.54,0-.12.23-.08.19.05-1.67,6.07-3.19,9.64-9.05,12.76C134.25,308.46,134.11,308.23,134.36,308Z" transform="translate(-13.65 -16.55)"/><path class="cls-3" d="M139.65,312.34c5-4.56,6.78-7.38,9.61-13.49,0-.09.19,0,.15.06-2.26,6.23-3.86,9.75-9.49,13.64C139.67,312.73,139.42,312.54,139.65,312.34Z" transform="translate(-13.65 -16.55)"/><path class="cls-3" d="M146.27,316c4.55-4.76,6.6-7.78,8.58-14.06a.12.12,0,1,1,.24.06c-1.4,6.6-3.93,10.38-8.66,14.12C146.1,316.36,146,316.28,146.27,316Z" transform="translate(-13.65 -16.55)"/><path class="cls-1" d="M145.65,232.23,163.32,219s-9.18-11.4-18.95-17.34S134,205.08,137,212.38,145.65,232.23,145.65,232.23Z" transform="translate(-13.65 -16.55)"/><path class="cls-3" d="M159.79,216.49a157.93,157.93,0,0,1-15.15,11.37c-.06,0-.13-.06-.07-.11,1.39-.94,8.79-7,15.15-11.38C159.79,216.32,159.86,216.43,159.79,216.49Z" transform="translate(-13.65 -16.55)"/><path class="cls-3" d="M142.54,224.75c-1.07-2.41-2.54-5.92-3.76-8.27h-.06c.48,1.37,1,2.74,1.59,4.09a2.39,2.39,0,0,0-.13-.21c-.44-.63-.9-1.25-1.39-1.85h0c.37.68.77,1.35,1.2,2,.27.41.56.8.85,1.19.31.71,1,2.47,1.33,3.18.52,1.19,3.06,7.89,3.17,7.81a19.15,19.15,0,0,0,1.78-1.33.1.1,0,0,0-.13-.16c-.32.27-1.12.8-1.25.9-.57-1.21-1-2.49-1.57-3.73S143.09,226,142.54,224.75Z" transform="translate(-13.65 -16.55)"/><path class="cls-9" d="M135.11,199.23c-.3,1-5.57,7.44-10.26,7-1.53-.16-1-8.54-1-8.54l-.11-.62-1.48-8.78,10.54-6,1.52-.78s.24,2.43.52,5.45v.43a1.67,1.67,0,0,0,.05.49c0,.46.09.92.13,1.38s.06.69.08,1.06a8.13,8.13,0,0,0,.07,1.1A58.16,58.16,0,0,1,135.11,199.23Z" transform="translate(-13.65 -16.55)"/><path class="cls-3" d="M134.79,186.93A17.88,17.88,0,0,1,123.69,197l-1.48-8.78,10.54-6,1.52-.78S134.51,183.91,134.79,186.93Z" transform="translate(-13.65 -16.55)"/><path class="cls-9" d="M111.22,172.81c-3.18,15.29,5.63,18.92,8.92,19.6,3,.61,13.27,2.34,18-12.55s-1.37-21.19-8.15-23S114.39,157.51,111.22,172.81Z" transform="translate(-13.65 -16.55)"/><path class="cls-3" d="M116.38,169.2a9.73,9.73,0,0,0,1.08,0,1.82,1.82,0,0,0,1.09-.25.56.56,0,0,0,.11-.67,1.4,1.4,0,0,0-1.29-.55,2,2,0,0,0-1.37.5.6.6,0,0,0,.06.83A.55.55,0,0,0,116.38,169.2Z" transform="translate(-13.65 -16.55)"/><path class="cls-3" d="M126.89,171.55c-.35-.11-.66-.26-1-.4a1.75,1.75,0,0,1-1-.6.55.55,0,0,1,.12-.67,1.38,1.38,0,0,1,1.39-.09,2,2,0,0,1,1.13.92.6.6,0,0,1-.28.8A.64.64,0,0,1,126.89,171.55Z" transform="translate(-13.65 -16.55)"/><path class="cls-3" d="M124.19,174.86s.07.06.06.1c-.24,1-.33,2.27.55,2.8v.06C123.66,177.43,123.8,175.8,124.19,174.86Z" transform="translate(-13.65 -16.55)"/><path class="cls-3" d="M125.33,174c1.7.19,1.18,3.59-.39,3.4S123.9,173.78,125.33,174Z" transform="translate(-13.65 -16.55)"/><path class="cls-3" d="M126,174.23c.26.23.5.62.86.71s.77-.21,1.09-.51c0,0,.06,0,0,0-.09.65-.44,1.28-1.15,1.27s-1-.65-1.08-1.33C125.73,174.29,125.86,174.13,126,174.23Z" transform="translate(-13.65 -16.55)"/><path class="cls-3" d="M117.76,173.39s-.09,0-.09.08c-.12,1-.44,2.25-1.44,2.46V176C117.42,176,117.82,174.41,117.76,173.39Z" transform="translate(-13.65 -16.55)"/><path class="cls-3" d="M117,172.15c-1.67-.37-2.3,3-.75,3.35S118.38,172.46,117,172.15Z" transform="translate(-13.65 -16.55)"/><path class="cls-3" d="M116.24,172.24c-.3.13-.63.41-.95.37s-.58-.46-.75-.85h-.06c-.14.65,0,1.36.55,1.6s1.06-.26,1.33-.88C116.41,172.39,116.36,172.19,116.24,172.24Z" transform="translate(-13.65 -16.55)"/><path class="cls-3" d="M121.8,182.86a1.61,1.61,0,0,1-1,.53,2.79,2.79,0,0,1-1.11-.39m0,.05a1.43,1.43,0,0,0,1.28.72,1.13,1.13,0,0,0,.94-.85c.06-.06,0-.09-.06-.06Z" transform="translate(-13.65 -16.55)"/><path class="cls-3" d="M118,178.35s-.48,1.53-.6,2.27c0,.07.16.13.41.19h0a3.56,3.56,0,0,0,3.63-.75c.06-.06,0-.15-.09-.12a5.33,5.33,0,0,1-3.36.39c0-.21.9-2.59.78-2.62a6.76,6.76,0,0,0-1.74.1c.9-3.22,2.3-6.27,3.15-9.49a.1.1,0,0,0-.19-.07,53.25,53.25,0,0,0-3.82,10.07C116.11,178.73,117.72,178.42,118,178.35Z" transform="translate(-13.65 -16.55)"/><path class="cls-3" d="M122.86,158.83a6.91,6.91,0,0,0-.19,4c1.32,3.61,5.57,3.1,6.86,4.6s.49,4,1.57,5.41c1.51,1.93,3.85,1.46,4,2.68s.59,5.1,2.07,5.73,10.86-24-9.1-25.08c0,0-2.62-1.37-7.06.35-4.89,1.91-7.66,9.4-7.66,9.4s.11-.1.85-.63c1-.76,1.48-1.5,2.24-2,1.19-.75,1.76-.37,3-1.1A13.16,13.16,0,0,0,122.86,158.83Z" transform="translate(-13.65 -16.55)"/><path class="cls-3" d="M123.27,157.76a13.06,13.06,0,0,0-.87,3,5.57,5.57,0,0,0,.14,3,4.15,4.15,0,0,0,2.11,2c.91.44,2,.64,2.93,1.14a3.18,3.18,0,0,1,1.23,1.13,4.2,4.2,0,0,1,.44,1.59,5.64,5.64,0,0,0,.84,2.85,3.48,3.48,0,0,0,2.56,1.38,7.31,7.31,0,0,1,3.07.45,7.29,7.29,0,0,0-3.08-.21,3.78,3.78,0,0,1-2.85-1.38,5.63,5.63,0,0,1-1-3,3.87,3.87,0,0,0-.4-1.41,2.74,2.74,0,0,0-1.07-.93c-.87-.47-1.92-.7-2.88-1.17a5.62,5.62,0,0,1-1.35-.91,3.31,3.31,0,0,1-.93-1.35,5.92,5.92,0,0,1,0-3.18A13.35,13.35,0,0,1,123.27,157.76Z" transform="translate(-13.65 -16.55)"/><path class="cls-3" d="M122.8,158.63a11.36,11.36,0,0,1-1.22,2.65,5.09,5.09,0,0,1-2.21,2,7.67,7.67,0,0,1-1.42.4,2.44,2.44,0,0,0-1.15.62,7.39,7.39,0,0,1-1,1.09,3,3,0,0,1-1.34.61,3.46,3.46,0,0,0,1.17-.79,7.94,7.94,0,0,0,.85-1.15,2.43,2.43,0,0,1,1.31-.82,8.07,8.07,0,0,0,1.35-.41,5.42,5.42,0,0,0,2.08-1.78A21.38,21.38,0,0,0,122.8,158.63Z" transform="translate(-13.65 -16.55)"/><path class="cls-9" d="M134.05,179.08s4.11-4.31,6.11-2.78-1.59,8.14-4.3,8.71a2.65,2.65,0,0,1-3.26-1.84l0-.1Z" transform="translate(-13.65 -16.55)"/><path class="cls-3" d="M139.08,178.17v.07a6.53,6.53,0,0,0-4,3.61,1.46,1.46,0,0,1,2-.22,1.29,1.29,0,0,1,.17.16c.05,0,0,.1-.06.08a1.6,1.6,0,0,0-1.85.3,7.88,7.88,0,0,0-1.07,1.3c-.11.15-.38,0-.29-.16h0C134.31,181,136.58,178,139.08,178.17Z" transform="translate(-13.65 -16.55)"/><path class="cls-1" d="M123.68,198.35l2.21,7.12,9.28-8,2.2,3s-9.5,13.18-9.51,12.55l-2.36-6.17-4.43,3.8,1.17-10.35Z" transform="translate(-13.65 -16.55)"/><path class="cls-3" d="M121.36,205.46c.25-1.7.45-3.42.78-5.11a.06.06,0,0,1,.12,0c.21,1.68-.79,8.19-.91,9.76h0c.19-.16,4.1-3.33,4.13-3.27.54,1,2.28,5.49,2.39,5.9,1.5-2.1,7.23-9.69,9-11.65,0-.05.14,0,.1.07-1.36,2.23-9,12.47-9.06,12.43a68.35,68.35,0,0,1-2.46-6.53c-.68.71-4.66,4.32-4.65,4.06A53.69,53.69,0,0,1,121.36,205.46Z" transform="translate(-13.65 -16.55)"/></g><g id="freepik--character-2--inject-152"><rect class="cls-11" x="169.75" y="51.82" width="129.39" height="129.39"/><path class="cls-3" d="M238.57,35.58v87.17h87.17V35.58ZM321,118H243.3V40.31H321Z" transform="translate(-13.65 -16.55)"/><path class="cls-3" d="M226.19,145.25l7,.49A21.59,21.59,0,0,0,236,133c-.08-1,2.05,4.9.73,13,7.39.51,17.45,1.21,26.23,1.74.33-3.43.79-6.59.79-6.59a39,39,0,0,0,1.13,6.71c1.2.08,2.38.14,3.51.2a132.23,132.23,0,0,1,1.32-14.59,46.85,46.85,0,0,0,3.67,14.86c5.59.28,9.26.36,9,.08-8-10.07-1.56-15.37-3.58-24-2.41-10.35-11.15-12.38-10.54-20,.49-6.24,1.78-17.53-6-20.32a15.21,15.21,0,0,0-16.26-4c-12.69,4.2-8.63,23.69-9.66,27.57-1.47,5.54-4.23,7.39-6.51,13.69s.43,10.79.56,15.18S224.79,145.17,226.19,145.25Z" transform="translate(-13.65 -16.55)"/><path class="cls-3" d="M282.75,147a22,22,0,0,1-2.46-5.59,11.58,11.58,0,0,1,.29-5.87,58.46,58.46,0,0,0,1.31-6.12,16.17,16.17,0,0,0-.32-6.46,14.4,14.4,0,0,0-3.11-5.7,37.42,37.42,0,0,0-4.61-4.29,22.83,22.83,0,0,1-4.25-4.31,11.32,11.32,0,0,1-2-5.69,10.53,10.53,0,0,0,1.34,6.09,21.13,21.13,0,0,0,4.07,4.82,47.38,47.38,0,0,1,4.27,4.35,13.75,13.75,0,0,1,2.69,5.15,16.22,16.22,0,0,1,.32,5.85c-.21,2-.67,4-1,6a21.18,21.18,0,0,0-.34,3.18,9,9,0,0,0,.56,3.2A17.85,17.85,0,0,0,282.75,147Z" transform="translate(-13.65 -16.55)"/><path class="cls-3" d="M238.59,87a31,31,0,0,0-2,7.38c-.43,2.51-.74,5-1,7.57l-.45,3.77a19.05,19.05,0,0,1-.73,3.59,20.51,20.51,0,0,1-3.7,6.3,29.67,29.67,0,0,0-2.19,3.24,17.46,17.46,0,0,0-1.56,3.67,26.67,26.67,0,0,0-.73,3.87,16.73,16.73,0,0,0,0,4c.17,1.31.48,2.56.73,3.78a20.75,20.75,0,0,1,.42,3.69,7.84,7.84,0,0,1-3.36,6.31,8,8,0,0,0,4.15-6.28A19.56,19.56,0,0,0,228,134c-.17-1.28-.43-2.52-.51-3.74a20.18,20.18,0,0,1,.91-7.24,17.44,17.44,0,0,1,1.46-3.31,27.59,27.59,0,0,1,2.11-3,37.16,37.16,0,0,0,2.23-3.19,16.14,16.14,0,0,0,1.65-3.64,20.44,20.44,0,0,0,.68-3.89c.13-1.28.21-2.55.29-3.82.17-2.54.3-5.07.54-7.59A36.86,36.86,0,0,1,238.59,87Z" transform="translate(-13.65 -16.55)"/><path class="cls-7" d="M299.64,194.21a.9.9,0,0,0-.08-.45,5,5,0,0,1,.09.56A.41.41,0,0,0,299.64,194.21Z" transform="translate(-13.65 -16.55)"/><path class="cls-7" d="M274.6,198.64l.26.14v-.07h0l-.27-.06Z" transform="translate(-13.65 -16.55)"/><path class="cls-12" d="M238.82,128.64c-15.72,17.68-34.75,54.15-30.48,61.12,4.75,7.76,27.42-17.42,26.64-18.56s6.71-22.78,12.07-38.73S242.71,124.27,238.82,128.64Z" transform="translate(-13.65 -16.55)"/><path class="cls-2" d="M238.82,128.64c-15.72,17.68-34.75,54.15-30.48,61.12,4.75,7.76,27.42-17.42,26.64-18.56s6.71-22.78,12.07-38.73S242.71,124.27,238.82,128.64Z" transform="translate(-13.65 -16.55)"/><path class="cls-1" d="M240.94,150.77c-1.54,4.65-2.94,9-4,12.5-2.43.11-9.54-.28-16.92-7.38,2.22-3.93,4.62-7.88,7.1-11.66A22.13,22.13,0,0,0,240.94,150.77Z" transform="translate(-13.65 -16.55)"/><path class="cls-2" d="M223.66,197.82l3.94-26.75s-6.32-11-2.65-19c1.85-4,14.56-23.64,21.4-28.61,6.42-4.66,15.22-.41,18.21,3.64,8.6,11.66,12.79,32.64,17.59,70.69Z" transform="translate(-13.65 -16.55)"/><path class="cls-3" d="M235.17,135.82c-1.3,1.78-2.56,3.59-3.8,5.42.34-.71.68-1.42,1-2.13,0-.05,0-.1-.07,0-.46.89-.89,1.79-1.3,2.7q-2.49,3.67-4.82,7.46a20.23,20.23,0,0,0-1.71,3.34,14.83,14.83,0,0,0-.83,3.54,17.13,17.13,0,0,0-.06,3.65,24.38,24.38,0,0,0,.53,3.71,23.13,23.13,0,0,0,1.3,4.06c.28.64.57,1.27.89,1.9s.87,1.72.87,1.76c-.12.64-.24,1.09-.32,1.63s-.17,1.1-.25,1.65c-.17,1.1-1.59,11.78-1.75,12.88-.32,2.18-.6,4.36-.87,6.55-.15,1.26-.24,2.52-.41,3.77,0,0,.07.07.08,0,.18-1.09.45-2.16.64-3.25s.4-2.18.61-3.27c.41-2.2,2-14,2.34-16.21.1-.61.19-1.22.29-1.84a12.26,12.26,0,0,0,.23-2A48.46,48.46,0,0,1,225,164.3a23.8,23.8,0,0,1-.77-3.64,19.79,19.79,0,0,1,0-3.61,16.4,16.4,0,0,1,.69-3.55,19.07,19.07,0,0,1,1.54-3.38c1.28-2.27,2.64-4.5,4-6.71q2.34-3.76,4.76-7.49C237.68,132.19,235.2,135.78,235.17,135.82Z" transform="translate(-13.65 -16.55)"/><path class="cls-12" d="M208.34,189.76c4,5.15,14.23,5.64,39.85,9.28,3.54.51,13.83-23.55,10.07-24.28-4.73-.93-23.3-3.49-24.68-3.5C221.93,171.12,205.61,186.27,208.34,189.76Z" transform="translate(-13.65 -16.55)"/><path class="cls-12" d="M253.13,173.86s10.83,1.07,16.35,3.39A38.42,38.42,0,0,1,284,188.61c4.16,5.27,10.56,20.9,6.38,23.53-3.78,2.38-9.52-13.93-9.52-13.93s8.59,15.66,3.51,17.69-10.67-17.28-10.67-17.28,8.47,16.29,2.9,17.55c-4.21,1-10.25-16.24-10.25-16.24s7.18,14,2.89,15.21c-4.74,1.29-11.31-14.23-11.31-14.23-11.4,1.13-17.3-3-21.14-6.43C235.81,193.65,253.13,173.86,253.13,173.86Z" transform="translate(-13.65 -16.55)"/><path class="cls-3" d="M278.18,192.61c1.08,1.8,2.18,3.62,3.09,5.51s1.76,3.82,2.49,5.79a35.59,35.59,0,0,1,2.12,7.93c-1.06-4.77-4.22-11.59-5.14-13.49s-1.72-3.82-2.63-5.71Z" transform="translate(-13.65 -16.55)"/><path class="cls-3" d="M271.29,195.78c1.27,2.36,2.63,4.66,3.8,7.07s2,4.8,3,7.28c.08.19,0,.17-.14,0-1.09-2.44-2.29-4.61-3.41-7s-2.15-4.89-3.36-7.27C271.21,195.76,271.27,195.74,271.29,195.78Z" transform="translate(-13.65 -16.55)"/><path class="cls-3" d="M264.88,197.43a59.43,59.43,0,0,1,5,11.27c.07.19-.09.15-.17,0-1.59-3.77-2.8-6.75-4.93-11.14C264.73,197.44,264.84,197.36,264.88,197.43Z" transform="translate(-13.65 -16.55)"/><path class="cls-2" d="M261.31,174.05l-21.09,24.82s-28.8-2-32.12-9.6,18.61-18.65,25.45-18S261.31,174.05,261.31,174.05Z" transform="translate(-13.65 -16.55)"/><path class="cls-3" d="M222.45,174.51c1.66-1.14,6.36-3.82,11.1-3.29m0,.08c-3.89.12-9.37,2.31-11.06,3.27,0,0-.08,0,0-.06Z" transform="translate(-13.65 -16.55)"/><path class="cls-3" d="M235.76,194.58c8.29-8.78,15.67-19.27,17.09-21,.06-.08-.08-.18-.14-.1-1.3,1.78-11,12.85-17.1,21C235.54,194.57,235.68,194.66,235.76,194.58Z" transform="translate(-13.65 -16.55)"/><rect class="cls-7" x="203.45" y="148.96" width="46.73" height="35.89" transform="translate(4.26 339.2) rotate(-78.46)"/><rect class="cls-1" x="229.02" y="135.68" width="5.16" height="17.01" transform="translate(30.14 325.51) rotate(-78.4)"/><polygon class="cls-1" points="223 126.06 220.95 125.63 221.42 123.31 216.44 122.28 215.96 124.61 213.91 124.19 214.78 119.95 223.9 121.82 223 126.06"/><path class="cls-12" d="M268.77,132.68C285.71,154.23,292.1,193,282.7,196c-8.59,2.76-43.92-6.08-54.45-9.66-3.09-1.05,6.46-25.08,9.77-24,4,1.35,25.84,6.53,26.27,6.54.91,0-4-23.82-6-34.63C255.35,119.21,262.41,124.58,268.77,132.68Z" transform="translate(-13.65 -16.55)"/><path class="cls-12" d="M209.77,153.32a3.86,3.86,0,0,0-.34,4.42,5.79,5.79,0,0,0-3.15,2.34c-1.22,2,1.45,4.85,1.45,4.85a7.07,7.07,0,0,0-2.93,3c-1,2.07,1.32,5.29,1.32,5.29a6.18,6.18,0,0,0-.92,4.25c.74,3.94,6.43,6.18,10,7.64s15.2,2.21,17.39,2.58l9.56-23.07s-14.31-11.13-18.8-12.25C219.62,151.43,211.78,151,209.77,153.32Z" transform="translate(-13.65 -16.55)"/><path class="cls-3" d="M209.74,157.44c4.26,0,8.27,1.32,12.35,2.38.09,0,0,.16,0,.14-4-1.1-8.26-1.38-12.34-2.32a.11.11,0,0,1-.11-.1.1.1,0,0,1,.1-.1Z" transform="translate(-13.65 -16.55)"/><path class="cls-3" d="M207.93,164.66a10.94,10.94,0,0,1,2.82.67c1,.31,2,.63,2.92,1,2,.68,3.87,1.41,5.78,2.19.08,0,0,.17,0,.14-1.94-.67-3.89-1.3-5.85-1.91l-2.95-.87a13.36,13.36,0,0,1-2.76-.92.15.15,0,1,1,0-.3Z" transform="translate(-13.65 -16.55)"/><path class="cls-3" d="M206.2,173.23a7.91,7.91,0,0,1,2.51.75c.87.33,1.76.65,2.64,1,1.76.63,3.53,1.27,5.31,1.84a.09.09,0,0,1,.05.1.12.12,0,0,1-.05.05c-1.81-.58-3.64-1.13-5.45-1.72l-2.66-.89a7.19,7.19,0,0,1-2.35-1,.07.07,0,0,1-.07-.06A.07.07,0,0,1,206.2,173.23Z" transform="translate(-13.65 -16.55)"/><path class="cls-2" d="M264,167.91c.27-.17-4.8-23.17-6.5-35.18s3.66-10.85,11.37-.59c8.27,11,23,40.76,17.89,62.8-1.65,7.14-52.78-2.86-52.78-2.86l6.89-29.39S263.55,168.16,264,167.91Z" transform="translate(-13.65 -16.55)"/><path class="cls-1" d="M284.81,165.73c-8.34,2.44-17.39,1.2-21.08.51-.53-2.89-1.82-9.15-3.14-15.91,8.76,1,14.7-.28,18-1.37A113.86,113.86,0,0,1,284.81,165.73Z" transform="translate(-13.65 -16.55)"/><path class="cls-3" d="M240.64,189.06c3.11-10.24,4.82-21.46,5.26-23.4a.07.07,0,1,0-.14,0c-.33,1.92-3.69,14.54-5.28,23.39C240.46,189.13,240.61,189.15,240.64,189.06Z" transform="translate(-13.65 -16.55)"/><path class="cls-3" d="M273.58,171.31c-1-.17-27.09-7.52-32.79-8.41-.09,0,0-.31.08-.29a240.87,240.87,0,0,1,33.06,8.22C275.23,171.35,275.42,171.63,273.58,171.31Z" transform="translate(-13.65 -16.55)"/><path class="cls-3" d="M263.72,168.14s-1.72-8.86-2-9.41-1-1.83-1.28-2.42c-.57-1.19-1.06-2.41-1.58-3.62,0-.1.11-.17.15-.07.57,1.16,1.23,2.28,1.9,3.39.33.54.66,1.09,1,1.62,0,0-1.61-8.6-1.84-10.12,0-.11.1-.15.14,0,.49,1.53,3.91,18.84,4.38,20.76A6.53,6.53,0,0,1,263.72,168.14Z" transform="translate(-13.65 -16.55)"/><path class="cls-3" d="M244.48,193.9c-1.71-.47-8.54-1.57-10.2-1.81a21.59,21.59,0,0,0,.6-3.74.08.08,0,0,0-.11,0l0,0a30,30,0,0,0-1.25,4.28c0,.14,9.2,1.3,11,1.39C244.51,194,244.53,193.92,244.48,193.9Z" transform="translate(-13.65 -16.55)"/><path class="cls-12" d="M242.19,125.63s.68,6.76,6.29,7.81,16.08-6.31,16.08-6.31a15.62,15.62,0,0,0-11.81-5.68C245.44,121.44,242.19,125.63,242.19,125.63Z" transform="translate(-13.65 -16.55)"/><path class="cls-12" d="M258.28,123.74c-.3,1-5.59,7.42-10.28,6.93-1.53-.17-1-8.55-1-8.55l-.1-.62-1.45-8.78,10.56-6,1.52-.78s.24,2.43.5,5.46v.43a1.67,1.67,0,0,0,.05.49c0,.45.09.91.12,1.37s.06.7.08,1.06l.06,1.1A57.71,57.71,0,0,1,258.28,123.74Z" transform="translate(-13.65 -16.55)"/><path class="cls-3" d="M258,111.44a17.89,17.89,0,0,1-11.13,10.06l-1.45-8.78,10.56-6,1.52-.78S257.75,108.41,258,111.44Z" transform="translate(-13.65 -16.55)"/><path class="cls-12" d="M235.28,96.33c-4.11,15.06,4.46,19.23,7.71,20.11,3,.8,13.09,3.15,18.74-11.41S261.67,83.79,255,81.6,239.39,81.26,235.28,96.33Z" transform="translate(-13.65 -16.55)"/><path class="cls-3" d="M240.71,93.38h1.08a1.75,1.75,0,0,0,1.1-.18.54.54,0,0,0,.16-.66,1.37,1.37,0,0,0-1.24-.63,2,2,0,0,0-1.41.4.59.59,0,0,0-.1.84A.61.61,0,0,0,240.71,93.38Z" transform="translate(-13.65 -16.55)"/><path class="cls-3" d="M251.45,94.88a9,9,0,0,1-1-.45,1.71,1.71,0,0,1-.92-.64.54.54,0,0,1,.15-.66,1.35,1.35,0,0,1,1.4,0,2,2,0,0,1,1.08,1,.59.59,0,0,1-.38.74A.62.62,0,0,1,251.45,94.88Z" transform="translate(-13.65 -16.55)"/><path class="cls-3" d="M248,99.7s.06.07,0,.11c-.29,1-.44,2.25.41,2.82v.05C247.34,102.24,247.57,100.62,248,99.7Z" transform="translate(-13.65 -16.55)"/><path class="cls-3" d="M249.19,98.85c1.7.28,1,3.65-.56,3.38S247.78,98.61,249.19,98.85Z" transform="translate(-13.65 -16.55)"/><path class="cls-3" d="M249.82,99.16c.25.25.47.65.82.76s.78-.17,1.12-.45c0,0,.06,0,0,0-.13.65-.51,1.26-1.22,1.21s-1-.71-1-1.39C249.58,99.22,249.72,99.06,249.82,99.16Z" transform="translate(-13.65 -16.55)"/><path class="cls-3" d="M241.8,97.64s-.09,0-.1.08c-.19,1-.58,2.21-1.6,2.35v.06C241.28,100.22,241.79,98.67,241.8,97.64Z" transform="translate(-13.65 -16.55)"/><path class="cls-3" d="M241.11,96.36c-1.65-.49-2.5,2.84-1,3.29S242.49,96.77,241.11,96.36Z" transform="translate(-13.65 -16.55)"/><path class="cls-3" d="M240.36,96.4c-.31.11-.65.36-1,.3s-.55-.5-.69-.9h-.06c-.18.63-.14,1.35.44,1.63s1.07-.19,1.39-.78C240.53,96.56,240.48,96.36,240.36,96.4Z" transform="translate(-13.65 -16.55)"/><path class="cls-3" d="M245.34,107.58a1.62,1.62,0,0,1-1,.47,2.84,2.84,0,0,1-1.08-.44h-.06a1.45,1.45,0,0,0,1.24.79,1.16,1.16,0,0,0,1-.8S245.39,107.55,245.34,107.58Z" transform="translate(-13.65 -16.55)"/><path class="cls-3" d="M241.82,102.87s-.55,1.51-.71,2.24c0,.07.15.14.4.21h0a3.54,3.54,0,0,0,3.66-.56c.07-.06,0-.15-.09-.12a5.33,5.33,0,0,1-3.37.21c0-.21,1-2.54.92-2.58a6.41,6.41,0,0,0-1.75,0c1.07-3.17,2.63-6.14,3.64-9.31,0-.12-.13-.19-.18-.09a53.8,53.8,0,0,0-4.34,9.86C239.87,103.15,241.5,102.93,241.82,102.87Z" transform="translate(-13.65 -16.55)"/><path class="cls-3" d="M241.8,105.09a4.24,4.24,0,0,0,1.29,1.7,2,2,0,0,0,1.1.37c.86,0,1.08-.74,1.1-1.41a4.7,4.7,0,0,0-.1-1.06A5.5,5.5,0,0,1,241.8,105.09Z" transform="translate(-13.65 -16.55)"/><path class="cls-13" d="M243.09,106.79a2,2,0,0,0,1.1.37c.86,0,1.08-.74,1.1-1.41A2,2,0,0,0,243.09,106.79Z" transform="translate(-13.65 -16.55)"/><path class="cls-3" d="M260.89,104.78c-1.61-.57-4.58-6.29-2.44-14.22,0,0-1.43,7.26-1.19,8.45s-1.66-3.22,0-9.64a26.82,26.82,0,0,1-7.51,1.52c-3.24,0-5.08-.58-5.23-.86s4.67-.4,6.26-1.44c0,0-9.06,1.43-12.83.65-.43-.09,1.57-9,8.34-11.09s14.64,4.52,16.4,7.56c0,0,2.73,1.22,4.62,6.33S262.62,105.39,260.89,104.78Z" transform="translate(-13.65 -16.55)"/><path class="cls-12" d="M258.56,105.11s4.22-4.19,6.18-2.6-1.83,8.09-4.55,8.57a2.65,2.65,0,0,1-3.21-1.91s0-.06,0-.09Z" transform="translate(-13.65 -16.55)"/><path class="cls-3" d="M263.61,104.35v.07c-1.92.4-3.17,1.89-4.14,3.49a1.45,1.45,0,0,1,2-.18l.18.18s0,.1-.07.08a1.62,1.62,0,0,0-1.86.24,8.29,8.29,0,0,0-1.1,1.27c-.12.15-.39,0-.29-.16h0C258.76,107,261.11,104.13,263.61,104.35Z" transform="translate(-13.65 -16.55)"/><path class="cls-12" d="M274.63,198.65l.26.06h0Z" transform="translate(-13.65 -16.55)"/><path class="cls-7" d="M299.56,193.76a5,5,0,0,1,.09.56v-.11Z" transform="translate(-13.65 -16.55)"/><path class="cls-7" d="M299.56,193.76a5,5,0,0,1,.09.56v-.11Z" transform="translate(-13.65 -16.55)"/><path class="cls-7" d="M273.45,201.37h0l.81.19Z" transform="translate(-13.65 -16.55)"/><path class="cls-11" d="M299.56,193.76a5,5,0,0,1,.09.56v-.11Z" transform="translate(-13.65 -16.55)"/></g><g id="freepik--character-1--inject-152"><path class="cls-1" d="M13.65,26.62V66H53.08V26.62Zm3,36.44V29.59H50.1V63.06Z" transform="translate(-13.65 -16.55)"/><rect class="cls-5" x="28.02" width="133.77" height="123.19"/><path class="cls-14" d="M132.45,77.64c16.3,16.52,36.8,51.27,33,58.32-4.26,7.85-26.95-15.31-26.87-16.67.07-1-7.91-22.13-14-37.48S128.42,73.55,132.45,77.64Z" transform="translate(-13.65 -16.55)"/><path class="cls-7" d="M138.41,119.32c-.69-2.26-11.56-30.09-14.66-38.9s-.23-11.52,8.64-3.46,28.31,35,32.75,49.29C169.41,140,162.32,140,153,133.67,145.31,128.48,138.41,119.32,138.41,119.32Z" transform="translate(-13.65 -16.55)"/><path class="cls-15" d="M130.85,77.87a7.14,7.14,0,0,1-1.54,3.36,7.19,7.19,0,0,1,1.54-3.36Zm26.88,38.28a6.13,6.13,0,0,0-.55,1.78,6.7,6.7,0,0,0,1-1.58,6.93,6.93,0,0,0,.55-1.78A6.21,6.21,0,0,0,157.73,116.15Zm-9.61-14.63a6.29,6.29,0,0,0-.55,1.79,6.76,6.76,0,0,0,1-1.59,6.46,6.46,0,0,0,.55-1.78,6.7,6.7,0,0,0-1,1.58Zm-10-3.67a6.13,6.13,0,0,0-1.78-.55,7.14,7.14,0,0,0,3.36,1.54,6.54,6.54,0,0,0-1.56-1Zm9,14.79a6.29,6.29,0,0,0-1.79-.55,6.76,6.76,0,0,0,1.59,1,6.46,6.46,0,0,0,1.78.55,6.91,6.91,0,0,0-1.56-1ZM139.8,87.31a6.13,6.13,0,0,0-1.78-.55,6.7,6.7,0,0,0,1.58,1,6.13,6.13,0,0,0,1.78.55,6.58,6.58,0,0,0-1.56-1Zm-5.58,19.75a6.52,6.52,0,0,0,.87,1.65,7.27,7.27,0,0,0-1.29-3.47,6.72,6.72,0,0,0,.44,1.82Zm18.83,17.62a6.52,6.52,0,0,0,.87,1.65,7.27,7.27,0,0,0-1.29-3.47,6.72,6.72,0,0,0,.44,1.82Zm-12.68-3h0l.33.39a6.26,6.26,0,0,0,1.53-.82,6.54,6.54,0,0,0-1.84.46Zm22.31,10.52a6.52,6.52,0,0,0,1.65-.87,7.24,7.24,0,0,0-3.47,1.29,7.19,7.19,0,0,0,1.84-.39ZM129.21,91.41A7.44,7.44,0,0,0,128,92l.09.25A7.58,7.58,0,0,0,131,91a7,7,0,0,0-1.8.45Z" transform="translate(-13.65 -16.55)"/><path class="cls-7" d="M136.46,139.77h-62s9.85-48.6,33.61-69.64c2.94-2.6,9.56-2,13.89.14,1.54.77,7.08,8.52,8.66,15.85S136.64,139.55,136.46,139.77Z" transform="translate(-13.65 -16.55)"/><path class="cls-3" d="M131.2,89.15c.49,1.64.89,3.33,1.22,5V94a21.21,21.21,0,0,1,.13-2.89s.09-.06.09,0a14.15,14.15,0,0,1,.08,2.91c0,.45-.05.91-.09,1.37.13.76.25,1.53.34,2.29.19,1.44.67,6.83.71,7.9,0,.22-.25.26-.31,0-.29-1.08-1.06-6.64-1.31-8.07a78.32,78.32,0,0,1-1-8.37S131.18,89.09,131.2,89.15Z" transform="translate(-13.65 -16.55)"/><path class="cls-15" d="M112,82.82a6.48,6.48,0,0,1-.56,1.78,6.21,6.21,0,0,1-1,1.58A6.48,6.48,0,0,1,111,84.4,6.39,6.39,0,0,1,112,82.82Zm-8.4,24.68a6.13,6.13,0,0,0-.55,1.78,7.14,7.14,0,0,0,1.54-3.36A6.66,6.66,0,0,0,103.6,107.5Zm-20.13,8.83a6.29,6.29,0,0,0-.55,1.79,6.7,6.7,0,0,0,1-1.58,6.29,6.29,0,0,0,.55-1.79A6.7,6.7,0,0,0,83.47,116.33Zm14.8,15.83a6.13,6.13,0,0,0-.55,1.78,7.05,7.05,0,0,0,1.55-3.37A6.27,6.27,0,0,0,98.27,132.16Zm25.83-30.58a6.63,6.63,0,0,0-.55,1.79,6.27,6.27,0,0,0,1-1.59,6.13,6.13,0,0,0,.55-1.78,7,7,0,0,0-1,1.58Zm8.14,16.79a6.29,6.29,0,0,0-.55,1.79,6.7,6.7,0,0,0,1-1.58,6.29,6.29,0,0,0,.55-1.79A7,7,0,0,0,132.24,118.37Zm-19.7,12.1a7,7,0,0,0-.55,1.79,6.27,6.27,0,0,0,1-1.59,6.48,6.48,0,0,0,.56-1.78,6.74,6.74,0,0,0-1,1.58ZM93.67,97.74a6.48,6.48,0,0,0-.56,1.78,6.21,6.21,0,0,0,1-1.58,6.48,6.48,0,0,0,.56-1.78,6.39,6.39,0,0,0-1,1.58Zm23.42-5.52a6.13,6.13,0,0,0-1.78-.55,6.7,6.7,0,0,0,1.58,1,6.46,6.46,0,0,0,1.78.55A6.7,6.7,0,0,0,117.09,92.22ZM121,112.16a6.13,6.13,0,0,0-1.78-.55,7,7,0,0,0,1.58,1,6.46,6.46,0,0,0,1.78.55A6.21,6.21,0,0,0,121,112.16ZM84.56,133.29a6.48,6.48,0,0,0-1.78-.56,6.21,6.21,0,0,0,1.58,1,6.48,6.48,0,0,0,1.78.56,6.21,6.21,0,0,0-1.58-1Zm37.08,4a6.46,6.46,0,0,0-1.78-.55,6.7,6.7,0,0,0,1.58,1l.38.17a5.71,5.71,0,0,1,1,.06,7.52,7.52,0,0,0-1.18-.65ZM98.49,117.11a6.46,6.46,0,0,0-1.78-.55,6.21,6.21,0,0,0,1.58,1,6.46,6.46,0,0,0,1.78.55,6.92,6.92,0,0,0-1.58-1Zm18.6-42.57a6.48,6.48,0,0,0-1.78-.56,6.7,6.7,0,0,0,1.58,1,7.06,7.06,0,0,0,1.78.55,6.24,6.24,0,0,0-1.58-1Zm4,9.25a6.35,6.35,0,0,0,.87,1.65,7.08,7.08,0,0,0-.42-1.82,6.52,6.52,0,0,0-.87-1.65,6.57,6.57,0,0,0,.44,1.85ZM131,129.94a6.35,6.35,0,0,0,.87,1.65,7.27,7.27,0,0,0-1.29-3.47A6.34,6.34,0,0,0,131,129.94ZM104.41,95.41a6.85,6.85,0,0,0,.87,1.65,6.68,6.68,0,0,0-.41-1.82,6.85,6.85,0,0,0-.87-1.65,7.08,7.08,0,0,0,.36,1.82Zm7.66,20.3a6.35,6.35,0,0,0,.87,1.65,6.34,6.34,0,0,0-.42-1.82,6.52,6.52,0,0,0-.87-1.65,6.67,6.67,0,0,0,.35,1.82ZM76.56,139.52v.25h.16ZM94,139.44a6.58,6.58,0,0,0-.87-1.66,6.34,6.34,0,0,0,.42,1.82l.06.17h.5A.4.4,0,0,1,94,139.44Zm-3.56-14.31a6.52,6.52,0,0,0,.87,1.65A7.24,7.24,0,0,0,90,123.31a6.69,6.69,0,0,0,.37,1.82Zm15-47.78a6.07,6.07,0,0,0,.87,1.65,6.34,6.34,0,0,0-.42-1.82,6.52,6.52,0,0,0-.87-1.65,6.71,6.71,0,0,0,.38,1.82ZM122,124.18a6.52,6.52,0,0,0,1.65-.87,6.68,6.68,0,0,0-1.82.41,6.85,6.85,0,0,0-1.65.87A6.68,6.68,0,0,0,122,124.18ZM105.76,139.1a6.52,6.52,0,0,0,1.65-.87,7.27,7.27,0,0,0-3.47,1.29A6.34,6.34,0,0,0,105.76,139.1ZM78.17,125.59A1.69,1.69,0,0,1,78,126a5.69,5.69,0,0,0,.85-.52,5.93,5.93,0,0,0-.72.1ZM92.31,108.4a6.58,6.58,0,0,0,1.66-.87,6.34,6.34,0,0,0-1.82.42,6.58,6.58,0,0,0-1.66.87,7.08,7.08,0,0,0,1.82-.42Zm13,16.42A6.61,6.61,0,0,0,107,124a7.27,7.27,0,0,0-3.47,1.29,6.48,6.48,0,0,0,1.79-.47ZM113,101.27a6.92,6.92,0,0,0,1.66-.87,6.68,6.68,0,0,0-1.82.41,6.52,6.52,0,0,0-1.65.87A6.61,6.61,0,0,0,113,101.27Zm16.35-9.38A6.58,6.58,0,0,0,131,91a7.24,7.24,0,0,0-3.47,1.29,6.54,6.54,0,0,0,1.85-.42Zm-29.23-5.48a6.52,6.52,0,0,0,1.65-.87,7.27,7.27,0,0,0-3.47,1.29,6.61,6.61,0,0,0,1.86-.42Z" transform="translate(-13.65 -16.55)"/><path class="cls-14" d="M54.45,51c-.13-3,.47-16.67,1.49-20.44s4.74-14.42,7.71-13.93,2.13,3.69,2.13,3.69,2.28-4.25,5.23-3.49,1.47,5.71,1.47,5.71,2.66-4.19,5.55-3.22S78.6,25,78.6,25s2.25-3.94,4.29-2.14c2.45,2.16-2.53,9-3.34,13.21-.19,1-2.36,19.83-2.36,19.83Z" transform="translate(-13.65 -16.55)"/><path class="cls-3" d="M78.79,24.63c-3.66,5-4.39,7.84-4.79,13.93a.1.1,0,0,1-.19,0c-.15-6,.26-9.68,4.74-14.13C78.77,24.23,79,24.4,78.79,24.63Z" transform="translate(-13.65 -16.55)"/><path class="cls-3" d="M72.78,22.18c-3.34,5.53-4.16,8.59-5.06,14.93,0,.09-.16.08-.16,0,.36-6.3.85-10,4.91-15C72.66,21.82,72.93,21.92,72.78,22.18Z" transform="translate(-13.65 -16.55)"/><path class="cls-3" d="M65.74,20.67c-2.84,5.59-3.88,8.91-4,15.18a.12.12,0,0,1-.15.08.11.11,0,0,1-.08-.08c-.54-6.4.73-10.55,4-15.26C65.79,20.28,65.92,20.32,65.74,20.67Z" transform="translate(-13.65 -16.55)"/><path class="cls-14" d="M77,59.84s5.65-5.33,7.62-8.21S90,35.28,87.1,34.38c-3.7-1.15-7.18,6.23-8.41,10.07,0,0-8.56-2.68-12.2,2.08S77,59.84,77,59.84Z" transform="translate(-13.65 -16.55)"/><path class="cls-3" d="M86,34.4c-4.13,1.38-5.42,6.52-6.9,10.16a.35.35,0,0,1-.46.22.24.24,0,0,1-.11-.06c-3.66-.89-9.08-1.07-12,1.57a.09.09,0,1,1-.14-.12c2.81-3.27,8.15-3.52,12.1-2.3,1.45-3.75,3-8.86,7.55-9.51C86,34.35,86,34.39,86,34.4Z" transform="translate(-13.65 -16.55)"/><path class="cls-14" d="M111.53,77.38c-3.72,6.44-25.22,26.29-44,29.73-2.54.46-12.22-1.58-14.25-8-3.61-11.44-.72-35.06,1.12-49.28.36-2.77,26.14,2.93,25.47,7.17-.74,4.7-3.5,22-3.07,22.15,1.54.71,18-6.41,28.83-8.74C113.33,68.75,114.4,72.42,111.53,77.38Z" transform="translate(-13.65 -16.55)"/><path class="cls-2" d="M50.79,56.85l29.38,6.36S77.5,78.21,78,78.14s21.14-7.61,29.09-8.4S115.05,72.45,111,79s-30.43,28.52-43.44,28.52c-6.62,0-12.78-4.24-14-6.27C49.87,95,50.79,56.85,50.79,56.85Z" transform="translate(-13.65 -16.55)"/><path class="cls-7" d="M50.79,56.85l29.38,6.36S77.5,78.21,78,78.14s21.14-7.61,29.09-8.4S115.05,72.45,111,79s-30.43,28.52-43.44,28.52c-6.62,0-12.78-4.24-14-6.27C49.87,95,50.79,56.85,50.79,56.85Z" transform="translate(-13.65 -16.55)"/><path class="cls-15" d="M92.89,77.77a6.46,6.46,0,0,0-.55,1.78,6.21,6.21,0,0,0,1-1.58,6.13,6.13,0,0,0,.55-1.78A7,7,0,0,0,92.89,77.77ZM69.55,104a6.13,6.13,0,0,0-.55,1.78,7.14,7.14,0,0,0,1.54-3.36A7,7,0,0,0,69.55,104ZM52.25,86a6.48,6.48,0,0,0-.56,1.78,6.7,6.7,0,0,0,1-1.58,6.93,6.93,0,0,0,.55-1.78A6.35,6.35,0,0,0,52.25,86Zm25.57.07a6.63,6.63,0,0,0-.55,1.79,6.27,6.27,0,0,0,1-1.59,6.48,6.48,0,0,0,.56-1.78,6.6,6.6,0,0,0-1,1.59ZM65,93.49a6.93,6.93,0,0,0-.55,1.78,6.21,6.21,0,0,0,1-1.58A6.48,6.48,0,0,0,66,91.91,6.74,6.74,0,0,0,65,93.49Zm1.14-18.06a6.46,6.46,0,0,0-.55,1.78,7.14,7.14,0,0,0,1.54-3.36,6.65,6.65,0,0,0-1,1.58ZM53,62a6.48,6.48,0,0,0-.56,1.78,6,6,0,0,0,1-1.58A6.48,6.48,0,0,0,54,60.42,6.7,6.7,0,0,0,53,62Zm52.83,15.17a6.52,6.52,0,0,0-.87-1.65,6.34,6.34,0,0,0,.42,1.82,6,6,0,0,0,.86,1.65,6.23,6.23,0,0,0-.39-1.81Zm-17.4,12a6.52,6.52,0,0,0-.87-1.65A7.24,7.24,0,0,0,88.85,91a6.91,6.91,0,0,0-.4-1.8ZM75.36,75.64A6.52,6.52,0,0,0,74.49,74a7.27,7.27,0,0,0,1.29,3.47,6.52,6.52,0,0,0-.4-1.8ZM73.67,95.22a6.52,6.52,0,0,0-.87-1.65A7.24,7.24,0,0,0,74.09,97a6.52,6.52,0,0,0-.4-1.8ZM56.91,93.11A6.35,6.35,0,0,0,56,91.46a7.18,7.18,0,0,0,.42,1.82,6.52,6.52,0,0,0,.87,1.65,6.52,6.52,0,0,0-.4-1.8ZM62.2,65.43a6.58,6.58,0,0,0-.87-1.66,6.75,6.75,0,0,0,.41,1.83,7.23,7.23,0,0,0,.87,1.65,6.17,6.17,0,0,0-.39-1.8Zm-2,15.7a6.52,6.52,0,0,0-.87-1.65A7.24,7.24,0,0,0,60.62,83a6.49,6.49,0,0,0-.38-1.8ZM100,86a6.52,6.52,0,0,0-1.65.87,6.34,6.34,0,0,0,1.82-.42,6.52,6.52,0,0,0,1.65-.87A6.34,6.34,0,0,0,100,86Zm-31.08-.72a7.23,7.23,0,0,0-1.65.87,7.24,7.24,0,0,0,3.47-1.29,6.7,6.7,0,0,0-1.83.38Zm2.94-18.46a6.52,6.52,0,0,0-1.65.87A6.28,6.28,0,0,0,72,67.27a6.07,6.07,0,0,0,1.65-.87,6.71,6.71,0,0,0-1.82.38ZM55.18,72.61a6.52,6.52,0,0,0-1.65.87A7,7,0,0,0,57,72.2a6.77,6.77,0,0,0-1.83.37Zm27.73,25a6.85,6.85,0,0,0-1.65.87,7,7,0,0,0,3.47-1.28,6.75,6.75,0,0,0-1.83.41ZM60.58,102.5a6.52,6.52,0,0,0-1.65.87,7.24,7.24,0,0,0,3.47-1.29,6.41,6.41,0,0,0-1.83.42ZM84.65,77.64a6.52,6.52,0,0,0-1.65.87,6.76,6.76,0,0,0,1.82-.41,7.23,7.23,0,0,0,1.65-.87,6.39,6.39,0,0,0-1.83.41Z" transform="translate(-13.65 -16.55)"/><path class="cls-3" d="M78.25,78.27a44,44,0,0,1-1.17,6.64c-.49,2.22-1.19,4.37-1.84,6.54m-.08,0c.57-2.18,1-4.41,1.46-6.62s.81-4.42,1.38-6.6c0-.16.26-.11.25,0Z" transform="translate(-13.65 -16.55)"/><path class="cls-3" d="M78.44,68.75c-3.4-.84-6.84-1.51-10.29-2.16s-6.9-1.32-10.36-1.89c-2-.32-3.92-.65-5.89-.91,0,0-.07.08,0,.09,3.39.85,6.84,1.53,10.28,2.21s6.9,1.32,10.35,1.93c2,.34,3.92.65,5.89.9C78.49,68.94,78.54,68.78,78.44,68.75Z" transform="translate(-13.65 -16.55)"/><path class="cls-3" d="M88.14,98.76c.54-.48,1.14-.89,1.71-1.33s1.1-.87,1.66-1.29l3.4-2.61c2.26-1.75,4.48-3.56,6.72-5.34,1.28-1,2.54-2,3.8-3.08a.05.05,0,0,1,.08,0,.06.06,0,0,1,0,.07c-1.54,1.45-3.1,2.88-4.7,4.26l.6-.29c.62-.31,1.22-.64,1.82-1,0,0,.09,0,0,.08a15.08,15.08,0,0,1-1.76,1.08c-.3.16-.6.32-.91.46l-.45.19h0c-.36.31-.72.62-1.09.92q-3.33,2.72-6.8,5.23l-1.95,1.35c-.69.45-1.36,1-2.09,1.36A.05.05,0,0,1,88.14,98.76Z" transform="translate(-13.65 -16.55)"/><polygon class="cls-3" points="103.65 68.42 107.08 63.2 110.31 67.59 108.99 71.47 105.33 71.55 103.65 68.42"/><polygon class="cls-3" points="105.33 71.55 99.25 111.98 105.42 126.23 110.99 111.54 108.99 71.47 105.33 71.55"/><path class="cls-14" d="M122,79.38c-3.57.86-9.74-4.56-12.19-9-.17-.3.28-3.5.63-7.42.21-2.38.38-5,.37-7.47l15.28,3.61a38.46,38.46,0,0,0-1.41,9.35,4.79,4.79,0,0,0,.11,1v.17C125.09,71.53,125.41,78.53,122,79.38Z" transform="translate(-13.65 -16.55)"/><path class="cls-3" d="M111.84,55.77c.47,3.22,2.65,13.82,11.36,14a10.34,10.34,0,0,0,1.57-.09v-.17a5.58,5.58,0,0,1-.12-1,39,39,0,0,1,1.42-9.35Z" transform="translate(-13.65 -16.55)"/><path class="cls-14" d="M107.25,38.46c-1.17,5.53,3.06,20.85,7.2,24,6,4.54,15.14,4.21,18.82-2.85,3.57-6.84-2.29-26.7-6.85-29.47C119.7,26,109,30.28,107.25,38.46Z" transform="translate(-13.65 -16.55)"/><path class="cls-3" d="M120.89,47.54s-.07.07-.06.11c.31,1,.5,2.25-.34,2.85v0C121.61,50.08,121.35,48.46,120.89,47.54Z" transform="translate(-13.65 -16.55)"/><path class="cls-3" d="M119.67,46.71c-1.69.32-.92,3.69.65,3.39S121.09,46.44,119.67,46.71Z" transform="translate(-13.65 -16.55)"/><path class="cls-3" d="M127.11,46s.09,0,.1.07c.2,1,.62,2.22,1.64,2.35v.06C127.67,48.57,127.13,47,127.11,46Z" transform="translate(-13.65 -16.55)"/><path class="cls-3" d="M127.79,44.68c1.65-.51,2.55,2.83,1,3.3S126.41,45.11,127.79,44.68Z" transform="translate(-13.65 -16.55)"/><path class="cls-8" d="M118,45.48c.43-.22.79-.5,1.2-.76a2.35,2.35,0,0,0,1.07-1,.72.72,0,0,0-.31-.83,1.79,1.79,0,0,0-1.82.22,2.68,2.68,0,0,0-1.24,1.47.78.78,0,0,0,.55,1A.8.8,0,0,0,118,45.48Z" transform="translate(-13.65 -16.55)"/><path class="cls-8" d="M128.7,42.69c-.47,0-.95,0-1.42,0a2.19,2.19,0,0,1-1.43-.32.73.73,0,0,1-.16-.88,1.81,1.81,0,0,1,1.68-.73,2.65,2.65,0,0,1,1.81.63.78.78,0,0,1-.48,1.3Z" transform="translate(-13.65 -16.55)"/><path class="cls-3" d="M122.47,57.16c.31.19.63.47,1,.41a2.63,2.63,0,0,0,1.06-.52m.06,0a1.45,1.45,0,0,1-1.2.87,1.15,1.15,0,0,1-1-.74s0,0,.08,0Z" transform="translate(-13.65 -16.55)"/><path class="cls-3" d="M122.85,53.79a3.65,3.65,0,0,0,2.74,1,4.38,4.38,0,0,0,1.29-.23l.23-.08.23-.09a.26.26,0,0,0,.15-.28h0V54h0v-.09c-.16-.81-.52-2-.52-2,.33.08,2,.41,1.86,0A55.28,55.28,0,0,0,125,41.48a.1.1,0,0,0-.19.07c.84,3.33,2.25,6.49,3.14,9.82a6,6,0,0,0-1.79-.12c-.11.06.73,2.31.78,2.68h0a5,5,0,0,1-3.94-.3C122.84,53.63,122.77,53.72,122.85,53.79Z" transform="translate(-13.65 -16.55)"/><path class="cls-3" d="M126.32,54.42a4.38,4.38,0,0,1-1.47,1.64,2,2,0,0,1-1.14.28c-.89-.07-1-.84-1-1.52a4.37,4.37,0,0,1,.19-1.08A5.66,5.66,0,0,0,126.32,54.42Z" transform="translate(-13.65 -16.55)"/><path class="cls-13" d="M124.85,56.06a2,2,0,0,1-1.14.28c-.89-.07-1-.84-1-1.52A2,2,0,0,1,124.85,56.06Z" transform="translate(-13.65 -16.55)"/><g class="cls-16"><path d="M122.5,40.36a13.14,13.14,0,0,0,1.65-.25c.55-.14,1.06-.39,1.61-.52a9,9,0,0,1,3.19,0c.09,0,.09.07,0,.06a7.81,7.81,0,0,0-3.33.27,9.91,9.91,0,0,1-2.68.65,10,10,0,0,0-5.86,1.94h0A10,10,0,0,1,122.5,40.36Z" transform="translate(-13.65 -16.55)"/><path d="M122.14,38.9a10.43,10.43,0,0,0,1.57-.23c.52-.13,1-.37,1.53-.49a8.89,8.89,0,0,1,3,0c.09,0,.09.07,0,.06a7.67,7.67,0,0,0-3.16.26,9.24,9.24,0,0,1-2.54.61A9.48,9.48,0,0,0,117,41h0A9.53,9.53,0,0,1,122.14,38.9Z" transform="translate(-13.65 -16.55)"/></g><path class="cls-8" d="M108.77,51.66s-5.36-8.83-4.86-13.94c.22-2.31,3.36-3.86,3.36-3.86a5.23,5.23,0,0,1,1.65-5.25c2.73-2.57,9.34-2,9.34-2s4.28-6.19,10.34-3.74,2.12,9.32,2.12,9.32,2.22,3.16-3.21,5.63-16.1,0-16.1,0a37.55,37.55,0,0,1-.16,11.2A3.44,3.44,0,0,1,108.77,51.66Z" transform="translate(-13.65 -16.55)"/><path class="cls-8" d="M119.3,26.69a10.52,10.52,0,0,0-4.26-.77,11.42,11.42,0,0,0-3.84.6,6.38,6.38,0,0,0-4.49,4.79,4.46,4.46,0,0,0,.85,3.35h.06c-1.4-1.74-.67-4.44.78-5.89a9.67,9.67,0,0,1,6.39-2.37,19.24,19.24,0,0,1,4.47.47C119.35,26.84,119.38,26.73,119.3,26.69Z" transform="translate(-13.65 -16.55)"/><path class="cls-8" d="M132.94,25.79a5.21,5.21,0,0,0-3.6-3.3,8.89,8.89,0,0,0-5.74.2,11.32,11.32,0,0,0-4.69,3.48s0,.08.06,0a9.79,9.79,0,0,1,9.37-3.49,4.79,4.79,0,0,1,3.75,7.15,10,10,0,0,1-3.89,3.91m0,.06a10.46,10.46,0,0,0,3.88-3.32,5.86,5.86,0,0,0,.86-4.69Z" transform="translate(-13.65 -16.55)"/><path class="cls-14" d="M111.7,50.85s-4.06-4.64-6.21-3.14,1.3,8.5,4.08,9.2A2.73,2.73,0,0,0,113,55.18l0-.13Z" transform="translate(-13.65 -16.55)"/><path class="cls-3" d="M106.53,49.76c2,.56,3.14,2.19,4,3.92a1.53,1.53,0,0,0-2.14-.31l-.16.14a.06.06,0,0,0,0,.09.06.06,0,0,0,.08,0h0a1.67,1.67,0,0,1,1.9.38,8.11,8.11,0,0,1,1,1.4c.1.16.4,0,.31-.15h0c-.16-2.44-2.39-5.59-5-5.55Z" transform="translate(-13.65 -16.55)"/><path class="cls-2" d="M120.59,53a4.72,4.72,0,1,1,3.75-6.44h0a4.72,4.72,0,0,1-2.62,6.14h0A5.37,5.37,0,0,1,120.59,53Zm-1.16-8.74a4.9,4.9,0,0,0-1,.26,4.08,4.08,0,1,0,1-.26Z" transform="translate(-13.65 -16.55)"/><path class="cls-2" d="M131.07,50.26c-1.79.24-3.66-1.38-4.27-3.76a5.65,5.65,0,0,1,.16-3.45,2.93,2.93,0,0,1,4.87-1.23,5.49,5.49,0,0,1,1.78,3c.64,2.52-.36,5-2.24,5.43A1.51,1.51,0,0,1,131.07,50.26Zm-1.63-8.63h-.24a2.53,2.53,0,0,0-1.66,1.62,5,5,0,0,0-.13,3c.56,2.19,2.26,3.65,3.8,3.25s2.35-2.48,1.79-4.67a5,5,0,0,0-1.57-2.62,2.58,2.58,0,0,0-2-.63Z" transform="translate(-13.65 -16.55)"/><path class="cls-2" d="M124.33,47.12l-.52-.37c.55-.76,2-2,3.37-1l-.34.53C125.57,45.43,124.38,47.05,124.33,47.12Z" transform="translate(-13.65 -16.55)"/><path class="cls-2" d="M104.25,53.47l-.61-.14c.06-.29.68-2.81,2-3.38s9.62-1.85,10-1.9l.1.62c-2.41.38-8.87,1.44-9.82,1.86S104.41,52.78,104.25,53.47Z" transform="translate(-13.65 -16.55)"/><path class="cls-1" d="M124.76,69.31l-4.27,8.76L110.12,66l-3.41,3.43s9.67,18.78,9.79,18L120.73,80l5,5.75.49-13.54Z" transform="translate(-13.65 -16.55)"/><path class="cls-3" d="M126.32,78.94c0-2.24.08-4.49,0-6.73a.08.08,0,0,0-.15,0c-.59,2.12-.58,10.68-.73,12.72h0c-.2-.24-4.62-5.07-4.67-5-.89,1.17-4,6.62-4.21,7.12-1.52-3-7.42-13.85-9.27-16.7a.08.08,0,0,0-.11,0,.07.07,0,0,0,0,.08c1.31,3.13,9.1,17.75,9.23,17.72a88.76,88.76,0,0,0,4.43-7.91c.73,1,5.15,6.44,5.19,6.11A73.14,73.14,0,0,0,126.32,78.94Z" transform="translate(-13.65 -16.55)"/><path class="cls-14" d="M165.43,136c-3.67,5.24-13.66,6.25-38.56,11.12-3.45.68-14.76-22.36-11.12-23.27,4.59-1.15,22.65-4.6,24-4.69C151.16,118.4,167.92,132.4,165.43,136Z" transform="translate(-13.65 -16.55)"/><path class="cls-14" d="M120.74,122.67s-10.56,1.6-15.84,4.15a37.81,37.81,0,0,0-13.6,11.86c-3.8,5.38-9.28,21-5,23.38,3.83,2.14,8.62-14.12,8.62-14.12s-7.62,15.77-2.54,17.5S101.9,148,101.9,148s-7.47,16.39-2,17.34c4.18.72,9.22-16.44,9.22-16.44S102.85,163,107.11,164c4.71,1,10.36-14.53,10.36-14.53,11.22.53,16.78-3.81,20.37-7.37C138.71,141.17,120.74,122.67,120.74,122.67Z" transform="translate(-13.65 -16.55)"/><path class="cls-3" d="M97.15,142.31a57.28,57.28,0,0,0-2.74,5.56c-.79,1.9-1.53,3.83-2.15,5.79a36,36,0,0,0-1.67,7.88c.8-4.72,3.55-11.57,4.35-13.47s1.49-3.84,2.29-5.73C97.25,142.29,97.18,142.27,97.15,142.31Z" transform="translate(-13.65 -16.55)"/><path class="cls-3" d="M104.07,145.06c-1.13,2.38-2.34,4.7-3.36,7.13s-1.77,4.8-2.62,7.28c-.07.19.06.16.13,0,1-2.44,2-4.63,3-7.06s1.86-4.91,2.92-7.3C104.14,145.05,104.08,145,104.07,145.06Z" transform="translate(-13.65 -16.55)"/><path class="cls-3" d="M110.43,146.36a58.37,58.37,0,0,0-4.3,11.29c-.06.19.1.14.16-.06,1.36-3.78,2.4-6.75,4.26-11.17C110.58,146.36,110.47,146.28,110.43,146.36Z" transform="translate(-13.65 -16.55)"/><path class="cls-7" d="M118.54,122.67,140.36,147s22.07-5.06,25.32-10.72c2.14-3.73-14.48-18.82-27-17.06Z" transform="translate(-13.65 -16.55)"/><path class="cls-15" d="M137.91,137.84a6.46,6.46,0,0,1-.55,1.78,6.21,6.21,0,0,1-1,1.58,6.46,6.46,0,0,1,.55-1.78A7,7,0,0,1,137.91,137.84Zm15.16-1.37a6.63,6.63,0,0,0-.55,1.79,6.27,6.27,0,0,0,1-1.59,6.48,6.48,0,0,0,.56-1.78A6.74,6.74,0,0,0,153.07,136.47Zm-10.81-5.1a6.13,6.13,0,0,0-1.78-.55,7.14,7.14,0,0,0,3.36,1.54A6.66,6.66,0,0,0,142.26,131.37Zm10.81-6.69a6.52,6.52,0,0,0,.87,1.65,7.27,7.27,0,0,0-1.29-3.47A6.34,6.34,0,0,0,153.07,124.68ZM131,129.94a6.35,6.35,0,0,0,.87,1.65,7.27,7.27,0,0,0-1.29-3.47A6.34,6.34,0,0,0,131,129.94Zm-9-5.76a6.52,6.52,0,0,0,1.65-.87,6.68,6.68,0,0,0-1.82.41,6.85,6.85,0,0,0-1.65.87,6.68,6.68,0,0,0,1.82-.41Zm18.58-2a6.52,6.52,0,0,0,1.65-.87,6.68,6.68,0,0,0-1.82.41,7.23,7.23,0,0,0-1.65.87,6.94,6.94,0,0,0,1.8-.42Zm6.88,21.36a6.52,6.52,0,0,0,1.65-.87,7.24,7.24,0,0,0-3.47,1.29,6.57,6.57,0,0,0,1.8-.43Zm16.4-12.12a7.27,7.27,0,0,0-1.31.37,6.52,6.52,0,0,0-1.65.87,7.08,7.08,0,0,0,1.82-.42,6.42,6.42,0,0,0,1.29-.63Z" transform="translate(-13.65 -16.55)"/><path class="cls-3" d="M153.62,123.14a21.76,21.76,0,0,0-15-4c-.06,0-.06.11,0,.11,5.48-.15,12.87,2.71,14.94,4C153.63,123.27,153.68,123.18,153.62,123.14Z" transform="translate(-13.65 -16.55)"/><path class="cls-3" d="M146.33,142.9c-2.26-2.8-4.66-5.47-7.08-8.14s-4.82-5.35-7.3-8c-1.4-1.47-2.79-3-4.24-4.38a0,0,0,1,0-.08.06c2.26,2.79,4.65,5.48,7,8.16s4.82,5.36,7.27,8c1.38,1.49,2.79,3,4.24,4.39C146.26,143.09,146.39,143,146.33,142.9Z" transform="translate(-13.65 -16.55)"/><path class="cls-3" d="M118.5,122.36a30.28,30.28,0,0,1,4.09-.94c1.37-.25,2.76-.49,4.14-.71,2.75-.44,8.53-1.69,13.61-1.68.06,0-.23.28-.29.27-2.42-.13-19.75,3.32-21.17,3.42.05.1.11.19.15.29a.08.08,0,0,1,0,.12.08.08,0,0,1-.11,0h0c-.18-.12-.3-.27-.47-.4a.21.21,0,0,1-.06-.28A.2.2,0,0,1,118.5,122.36Z" transform="translate(-13.65 -16.55)"/></g></svg>