<?xml version="1.0" encoding="utf-8"?>
<!-- Generator: Adobe Illustrator 25.0.0, SVG Export Plug-In . SVG Version: 6.00 Build 0)  -->
<svg version="1.1" id="Layer_1" xmlns="http://www.w3.org/2000/svg" xmlns:xlink="http://www.w3.org/1999/xlink" x="0px" y="0px"
	 viewBox="0 0 80 79" style="enable-background:new 0 0 80 79;" xml:space="preserve">
<style type="text/css">
	.st0{fill:#FFFFFF;stroke:#000000;stroke-miterlimit:10;}
	.st1{fill:#FFFFFF;stroke:#B51D30;stroke-width:2;stroke-miterlimit:10;}
	.st2{fill:none;stroke:#B51D30;stroke-width:2;stroke-miterlimit:10;}
</style>
<g id="logo">
	<circle class="st0" cx="40.69" cy="39.83" r="35.75"/>
	<polygon class="st1" points="40.51,16.08 50.6,39.83 40.69,63.72 30.55,40 	"/>
	<path class="st2" d="M46.46,12.15l8.07,18.45l4.61-11.53C59.15,19.07,56.84,15.61,46.46,12.15z"/>
	<path class="st2" d="M34.39,11.9l-8.07,18.45L21.7,18.82C21.7,18.82,24.01,15.36,34.39,11.9z"/>
	<path class="st2" d="M47.02,67.72l8.07-18.45l4.61,11.53C59.7,60.81,57.4,64.27,47.02,67.72z"/>
	<path class="st2" d="M34.87,67.6L26.8,49.15l-4.61,11.53C22.18,60.68,24.49,64.14,34.87,67.6z"/>
	<path class="st2" d="M58.7,40l6.22,14.82c0,0,9.23-14.99,0-29.98L58.7,40z"/>
	<path class="st2" d="M22.88,40l-6.22,14.82c0,0-9.23-14.99,0-29.98L22.88,40z"/>
</g>
</svg>
