<?xml version="1.0" encoding="utf-8"?>
<!-- Generator: Adobe Illustrator 23.0.5, SVG Export Plug-In . SVG Version: 6.00 Build 0)  -->
<svg version="1.1" id="Layer_1" xmlns="http://www.w3.org/2000/svg" xmlns:xlink="http://www.w3.org/1999/xlink" x="0px" y="0px"
	 viewBox="0 0 512 512" style="enable-background:new 0 0 512 512;" xml:space="preserve">
<style type="text/css">
	.st0{fill:#FFFFFF;}
</style>
<g>
	<g>
		<g>
			<path class="st0" d="M512,188c0-0.3,0-0.7-0.1-1c0-0.1,0-0.1,0-0.2c0,0,0-0.1,0-0.1c-0.1-0.4-0.1-0.7-0.3-1.1l0,0c0,0,0,0,0-0.1
				c-0.1-0.3-0.3-0.7-0.4-1c0,0,0-0.1-0.1-0.1c0,0,0,0,0-0.1c-0.2-0.3-0.4-0.6-0.6-0.9c0,0,0-0.1-0.1-0.1c0,0-0.1-0.1-0.1-0.1
				c-0.2-0.3-0.4-0.5-0.7-0.8c0,0,0,0,0,0c0,0,0,0,0,0c0,0,0,0,0,0c-0.3-0.3-0.5-0.5-0.8-0.7c0,0-0.1-0.1-0.1-0.1l0,0l-59.6-43.3
				c-3.6-2.6-8.7-1.8-11.3,1.8c-2.6,3.6-1.8,8.7,1.8,11.3L479,180H329.6l-190.5-61.3c-0.5-0.2-1.1-0.3-1.6-0.3
				c-3.7-0.4-7.4,1.8-8.6,5.6L110.8,180H33L256,18.1l163.4,118.6c3.6,2.6,8.7,1.8,11.3-1.8c2.6-3.6,1.8-8.7-1.8-11.3L260.8,1.5
				c-2.8-2.1-6.7-2.1-9.5,0L3.3,181.5l0,0c0,0-0.1,0.1-0.1,0.1c-0.3,0.2-0.6,0.5-0.8,0.7c0,0,0,0,0,0c0,0,0,0,0,0c0,0,0,0,0,0
				c-0.2,0.2-0.5,0.5-0.7,0.8c0,0-0.1,0.1-0.1,0.1c0,0,0,0.1-0.1,0.1c-0.2,0.3-0.4,0.6-0.6,0.9c0,0,0,0,0,0.1c0,0,0,0.1-0.1,0.1
				c-0.2,0.3-0.3,0.7-0.4,1c0,0,0,0,0,0.1c0,0,0,0,0,0c-0.1,0.4-0.2,0.7-0.3,1.1c0,0,0,0.1,0,0.1c0,0.1,0,0.1,0,0.2
				c0,0.3-0.1,0.7-0.1,1c0,0,0,0.1,0,0.1l0,0v0c0,0,0,0,0,0v315.8c0,0,0,0.1,0,0.1c0,0.1,0,0.3,0,0.4c0,0.1,0,0.2,0,0.4
				c0,0.1,0,0.3,0.1,0.4c0,0.1,0,0.3,0.1,0.4c0,0.1,0.1,0.3,0.1,0.4c0,0.1,0.1,0.3,0.1,0.4c0,0.1,0.1,0.2,0.1,0.4
				c0,0.1,0.1,0.3,0.1,0.4c0.1,0.1,0.1,0.2,0.2,0.3c0.1,0.1,0.1,0.3,0.2,0.4c0.1,0.1,0.1,0.2,0.2,0.3c0.1,0.1,0.2,0.3,0.2,0.4
				c0.1,0.1,0.1,0.2,0.2,0.3c0.1,0.1,0.2,0.2,0.3,0.4c0,0,0,0.1,0.1,0.1c0,0.1,0.1,0.1,0.1,0.1c0.1,0.1,0.2,0.3,0.4,0.4
				c0.1,0.1,0.2,0.2,0.3,0.2c0.1,0.1,0.2,0.2,0.4,0.3c0.1,0.1,0.2,0.1,0.3,0.2c0.1,0.1,0.3,0.2,0.4,0.3c0.1,0.1,0.2,0.1,0.3,0.2
				c0.1,0.1,0.3,0.2,0.5,0.2c0.1,0,0.2,0.1,0.3,0.1c0.2,0.1,0.4,0.1,0.6,0.2c0.1,0,0.1,0.1,0.2,0.1c0.2,0.1,0.5,0.1,0.7,0.2
				c0,0,0,0,0,0c0.5,0.1,1.1,0.2,1.7,0.2h495.8c0.6,0,1.1-0.1,1.7-0.2c0,0,0,0,0,0c0.3-0.1,0.5-0.1,0.7-0.2c0.1,0,0.1,0,0.2-0.1
				c0.2-0.1,0.4-0.1,0.6-0.2c0.1,0,0.2-0.1,0.3-0.1c0.2-0.1,0.3-0.1,0.5-0.2c0.1-0.1,0.2-0.1,0.3-0.2c0.1-0.1,0.3-0.2,0.4-0.3
				c0.1-0.1,0.2-0.1,0.3-0.2c0.1-0.1,0.2-0.2,0.4-0.3c0.1-0.1,0.2-0.2,0.3-0.2c0.1-0.1,0.2-0.2,0.4-0.4c0,0,0.1-0.1,0.1-0.1
				c0,0,0-0.1,0.1-0.1c0.1-0.1,0.2-0.2,0.3-0.4c0.1-0.1,0.1-0.2,0.2-0.3c0.1-0.1,0.2-0.2,0.2-0.4c0.1-0.1,0.1-0.2,0.2-0.3
				c0.1-0.1,0.1-0.3,0.2-0.4c0.1-0.1,0.1-0.2,0.2-0.3c0.1-0.1,0.1-0.3,0.1-0.4c0-0.1,0.1-0.2,0.1-0.4c0-0.1,0.1-0.3,0.1-0.4
				c0-0.1,0.1-0.3,0.1-0.4c0-0.1,0-0.3,0.1-0.4c0-0.1,0-0.3,0.1-0.4c0-0.1,0-0.2,0-0.4c0-0.1,0-0.3,0-0.4c0,0,0-0.1,0-0.1V188.1
				c0,0,0,0,0,0v0L512,188C512,188,512,188,512,188z M479,196.2l-30.5,22.1l-68.7-22.1H479z M124.4,190.6l17.4-54l184.1,59.2
				L432.3,230L395.3,257L239,206.7c-4.2-1.4-8.8,1-10.2,5.2c-1.4,4.2,1,8.8,5.2,10.2l145,46.7l-19.8,14.4l-186.9-60.2
				c-4.2-1.4-8.8,1-10.2,5.2c-1.4,4.2,1,8.8,5.2,10.2L343,294.9l-19.8,14.4l-24.3-7.8c-4.2-1.4-8.8,1-10.2,5.2
				c-1.4,4.2,1,8.8,5.2,10.2L307,321l-51,37L105.6,248.9L124.4,190.6z M105.6,196.2l-13.8,42.7L33,196.2H105.6z M16.2,203.9
				l175.4,127.3L16.2,486V203.9z M29.5,495.8L205,341l46.3,33.6c0,0,0.1,0,0.1,0.1c0.3,0.2,0.6,0.4,1,0.6c0,0,0,0,0,0c0,0,0,0,0,0
				c0.3,0.2,0.7,0.3,1.1,0.4c0.1,0,0.2,0.1,0.3,0.1c0.3,0.1,0.5,0.1,0.8,0.2c0.1,0,0.2,0,0.4,0.1c0.4,0,0.7,0.1,1.1,0.1c0,0,0,0,0,0
				c0,0,0,0,0,0c0,0,0,0,0,0c0,0,0,0,0,0c0.4,0,0.7,0,1.1-0.1c0.1,0,0.2,0,0.4-0.1c0.3,0,0.5-0.1,0.8-0.2c0.1,0,0.2-0.1,0.4-0.1
				c0.4-0.1,0.7-0.3,1-0.4c0,0,0,0,0,0c0,0,0,0,0,0c0.3-0.2,0.7-0.4,1-0.6c0,0,0.1,0,0.1-0.1L307,341l175.5,154.8L29.5,495.8
				L29.5,495.8z M495.8,486L320.4,331.3l81-58.8c0,0,0,0,0,0l94.4-68.5V486z"/>
			<path class="st0" d="M180.8,204.9l29.5,9.5c0.8,0.3,1.7,0.4,2.5,0.4c3.4,0,6.6-2.2,7.7-5.6c1.4-4.3-1-8.8-5.2-10.2l-29.5-9.5
				c-4.2-1.4-8.8,1-10.2,5.2C174.2,198.9,176.6,203.5,180.8,204.9z"/>
			<path class="st0" d="M273.1,309.7c3.4,0,6.6-2.2,7.7-5.6c1.4-4.2-1-8.8-5.2-10.2l-116.7-37.5c-4.2-1.4-8.8,1-10.2,5.2
				c-1.4,4.3,1,8.8,5.2,10.2l116.7,37.5C271.4,309.6,272.2,309.7,273.1,309.7z"/>
		</g>
	</g>
</g>
</svg>
