<svg xmlns="http://www.w3.org/2000/svg" viewBox="0 0 39.04 43.12"><defs><style>.cls-1{fill:#b4b22f;fill-rule:evenodd;}</style></defs><g id="Layer_2" data-name="Layer 2"><g id="Layer_1-2" data-name="Layer 1"><g id="Layer_1-3" data-name="Layer_1"><g id="_1243652003376" data-name=" 1243652003376"><path class="cls-1" d="M36.23,5.8l.7,2A.32.32,0,0,0,37.1,8l1.76.79a.36.36,0,0,1,0,.62l-1.76.79a.3.3,0,0,0-.17.18l-.7,2a.29.29,0,0,1-.55,0l-.7-2a.3.3,0,0,0-.17-.18l-1.75-.79a.35.35,0,0,1,0-.62L34.81,8A.32.32,0,0,0,35,7.78l.7-2A.29.29,0,0,1,36.23,5.8Z"/><path class="cls-1" d="M10,.16l.52,1.46a.24.24,0,0,0,.12.14l1.3.59a.26.26,0,0,1,0,.46l-1.3.58a.24.24,0,0,0-.12.14L10,5a.22.22,0,0,1-.41,0L9,3.53a.29.29,0,0,0-.13-.14L7.6,2.81a.26.26,0,0,1,0-.46l1.3-.59A.29.29,0,0,0,9,1.62L9.55.16A.21.21,0,0,1,10,.16Z"/><path class="cls-1" d="M31.25,3.22a1,1,0,0,1-2.07,0,1,1,0,1,1,2.07,0Z"/><path class="cls-1" d="M3.05,9A1.53,1.53,0,1,1,1.53,7.45,1.53,1.53,0,0,1,3.05,9Z"/><path class="cls-1" d="M18.81,43.12A17.45,17.45,0,1,1,36.25,25.67,17.47,17.47,0,0,1,18.81,43.12Zm0-33.2A15.75,15.75,0,1,0,34.56,25.67,15.77,15.77,0,0,0,18.81,9.92Z"/><path class="cls-1" d="M14.88,21.77a.85.85,0,0,1-.84-.85,2.36,2.36,0,1,0-4.72,0,.85.85,0,1,1-1.69,0,4,4,0,0,1,8.1,0,.85.85,0,0,1-.85.85Z"/><path class="cls-1" d="M29.14,21.77a.85.85,0,0,1-.85-.85,2.36,2.36,0,1,0-4.71,0,.85.85,0,0,1-1.7,0,4.05,4.05,0,0,1,8.1,0,.84.84,0,0,1-.84.85Z"/><path class="cls-1" d="M30.08,25.14H7.54a.85.85,0,0,0-.85.85,12.12,12.12,0,1,0,24.23,0,.85.85,0,0,0-.84-.85Zm-17.71,9a7.56,7.56,0,0,1,6.44-3.06,7.55,7.55,0,0,1,6.43,3.06,10.4,10.4,0,0,1-12.87,0ZM26.5,33a9.38,9.38,0,0,0-7.69-3.59A9.35,9.35,0,0,0,11.12,33a10.37,10.37,0,0,1-2.7-6.19H29.2A10.49,10.49,0,0,1,26.5,33Z"/></g></g></g></g></svg>