<svg xmlns="http://www.w3.org/2000/svg" viewBox="0 0 36.39 36.39"><defs><style>.cls-1,.cls-2{fill:#b4b22f;}.cls-1{fill-rule:evenodd;}</style></defs><g id="Layer_2" data-name="Layer 2"><g id="Layer_1-2" data-name="Layer 1"><g id="Layer_1-3" data-name="Layer_1"><g id="_1243652003424" data-name=" 1243652003424"><path class="cls-1" d="M18.19,0a18.2,18.2,0,1,0,18.2,18.19A18.2,18.2,0,0,0,18.19,0Zm0,34.11A15.92,15.92,0,1,1,34.11,18.19,15.92,15.92,0,0,1,18.19,34.11Z"/><circle class="cls-2" cx="12.51" cy="12.51" r="2.27"/><circle class="cls-2" cx="23.88" cy="12.51" r="2.27"/><path class="cls-1" d="M18.19,17.06A10.23,10.23,0,0,0,8,27.29h2.27a8,8,0,1,1,15.92,0h2.28A10.23,10.23,0,0,0,18.19,17.06Z"/></g></g></g></g></svg>