<svg xmlns="http://www.w3.org/2000/svg" viewBox="0 0 32.6 29.34"><defs><style>.cls-1,.cls-2{fill:#fff;}.cls-2{fill-rule:evenodd;}</style></defs><g id="Layer_2" data-name="Layer 2"><g id="Layer_1-2" data-name="Layer 1"><rect class="cls-1" x="31.51" y="28.25" width="1.09" height="1.09"/><rect class="cls-1" x="4.89" width="14.13" height="1.09"/><rect class="cls-1" x="20.1" width="1.09" height="1.09"/><path class="cls-2" d="M2.17,15.76a.55.55,0,0,1,.55-.55H4.89V12.5A.55.55,0,0,1,5.43,12H8.69V9.78H5.43a.54.54,0,0,1-.54-.54V6.52H1.63A.54.54,0,0,1,1.09,6V2.72a.55.55,0,0,1,.54-.55H24.45a.55.55,0,0,1,.54.55V6a.54.54,0,0,1-.54.54H21.19V8.69H32.06a.55.55,0,0,1,.54.55V12.5a.54.54,0,0,1-.54.54H28.8v2.72a.55.55,0,0,1-.55.54H25v2.17h3.26a.55.55,0,0,1,.55.55v3.26a.55.55,0,0,1-.55.54H25V25h3.26a.55.55,0,0,1,.55.55v2.71h1.63v1.09H0V28.25H2.17V15.76ZM3.26,28.25h13V22.53l-3.61-3.1,0,0,0-.05A.48.48,0,0,1,12.5,19V16.3H3.26v12ZM20.1,19.56H14.51L17,21.73H20.1V19.56Zm3.81-9.78H17.39V12h6.52V9.78ZM20.1,13H13.58v2.17H20.1V13ZM16.3,16.3H13.58v2.17H16.3V16.3ZM6,15.21H12.5V13H6v2.17ZM9.78,12H16.3V9.78H9.78V12ZM6,8.69H12.5V6.52H6V8.69ZM2.17,5.43H8.69V3.26H2.17V5.43Zm7.61,0H16.3V3.26H9.78V5.43ZM23.91,3.26H17.39V5.43h6.52V3.26ZM20.1,6.52H13.58V8.69H20.1V6.52ZM31.51,9.78H25V12h6.52V9.78ZM27.71,13H21.19v2.17h6.52V13Zm-3.8,3.26H17.39v2.17h6.52V16.3Zm3.8,3.26H21.19v2.17h6.52V19.56Zm-3.8,3.26H17.39V25h6.52V22.82Zm3.8,3.26H21.19v2.17h6.52V26.08Zm-7.61,0H17.39v2.17H20.1Z"/><rect class="cls-1" y="17.39" width="1.09" height="7.61"/></g></g></svg>