<svg xmlns="http://www.w3.org/2000/svg" viewBox="0 0 31.33 31.33"><defs><style>.cls-1,.cls-2{fill:#fff;}.cls-1{fill-rule:evenodd;}</style></defs><g id="Layer_2" data-name="Layer 2"><g id="Layer_1-2" data-name="Layer 1"><path class="cls-1" d="M30.81,26.11h-1v-.53a1.56,1.56,0,0,0-1-1.47V13.48a1.56,1.56,0,0,0,1-1.47v-.52a1.57,1.57,0,0,0,0-3.14h-.37L15.94.08a.5.5,0,0,0-.55,0L1.94,8.35H1.57a1.57,1.57,0,0,0,0,3.14V12a1.56,1.56,0,0,0,1,1.47V24.11a1.56,1.56,0,0,0-1,1.47v.53h-1a.52.52,0,0,0-.52.52v4.18a.52.52,0,0,0,.52.52H30.81a.53.53,0,0,0,.52-.52V26.63a.52.52,0,0,0-.52-.52ZM28.72,12a.52.52,0,0,1-.53.52H26.11a.52.52,0,0,1-.53-.52v-.52h3.14V12Zm-.53,13.05a.53.53,0,0,1,.53.52v.53H25.58v-.53a.53.53,0,0,1,.53-.52Zm-1.56-1V13.58h1V24ZM1.57,10.44a.52.52,0,1,1,0-1H5.22V8.35H3.93L15.66,1.14,27.39,8.35h-19V9.4H29.76a.52.52,0,1,1,0,1ZM12,24.11V13.48a1.56,1.56,0,0,0,1-1.47v-.52h5.22V12a1.57,1.57,0,0,0,1.05,1.47V24.11a1.57,1.57,0,0,0-1.05,1.47v.53H13.05v-.53a1.56,1.56,0,0,0-1-1.47Zm-.52.95a.52.52,0,0,1,.52.52v.53H8.88v-.53a.52.52,0,0,1,.52-.52ZM9.92,24V13.58h1V24Zm1.57-11.49H9.4A.52.52,0,0,1,8.88,12v-.52H12V12a.52.52,0,0,1-.52.52Zm7.83,13.05a.52.52,0,0,1,.52-.52h2.09a.52.52,0,0,1,.52.52v.53H19.32v-.53Zm1-1.56V13.58h1.05V24Zm1.57-11.49H19.84a.52.52,0,0,1-.52-.52v-.52h3.13V12a.52.52,0,0,1-.52.52Zm-18.8,0A.52.52,0,0,1,2.61,12v-.52H5.74V12a.52.52,0,0,1-.52.52ZM4.7,13.58V24h-1V13.58Zm-2.09,12a.52.52,0,0,1,.52-.52H5.22a.52.52,0,0,1,.52.52v.53H2.61v-.53Zm4.18,4.7H1V27.15H6.79v3.13Zm-1-6.17V13.48a1.57,1.57,0,0,0,1-1.47v-.52h1V12a1.56,1.56,0,0,0,1.05,1.47V24.11a1.56,1.56,0,0,0-1.05,1.47v.53h-1v-.53a1.57,1.57,0,0,0-1-1.47ZM23.5,30.28H7.83v-1H20.36v-1H7.83v-1H23.5v3.13Zm-1.05-6.17V13.48A1.59,1.59,0,0,0,23.5,12v-.52h1V12a1.56,1.56,0,0,0,1,1.47V24.11a1.56,1.56,0,0,0-1,1.47v.53h-1v-.53a1.59,1.59,0,0,0-1.05-1.47Zm7.83,6.17H24.54V27.15h5.74Z"/><rect class="cls-2" x="21.41" y="28.19" width="1.04" height="1.04"/><rect class="cls-2" x="6.27" y="8.35" width="1.04" height="1.04"/><path class="cls-1" d="M15.66,3.13a2.09,2.09,0,1,0,2.09,2.09,2.09,2.09,0,0,0-2.09-2.09Zm0,3.14a1,1,0,1,1,1.05-1A1,1,0,0,1,15.66,6.27Z"/></g></g></svg>