<svg xmlns="http://www.w3.org/2000/svg" viewBox="0 0 32.6 32.6"><defs><style>.cls-1,.cls-2{fill:#fff;}.cls-1{fill-rule:evenodd;}</style></defs><g id="Layer_2" data-name="Layer 2"><g id="Layer_1-2" data-name="Layer 1"><path class="cls-1" d="M32.06,29.34H31V27.71a.54.54,0,0,0-.54-.54h-.55v-12h.55a.54.54,0,0,0,.54-.54V12.5a.55.55,0,0,0-.54-.55h-.55V10.32a.54.54,0,0,0-.54-.54h-1L16.84,5.07V3.26h3.81a.54.54,0,0,0,.54-.54V.54A.54.54,0,0,0,20.65,0H16.3a.54.54,0,0,0-.54.54V5.07L4.24,9.78h-1a.54.54,0,0,0-.54.54V12H2.17a.55.55,0,0,0-.54.55v2.17a.54.54,0,0,0,.54.54h.55v12H2.17a.54.54,0,0,0-.54.54v1.63H.54a.54.54,0,0,0-.54.54v2.18a.54.54,0,0,0,.54.54H32.06a.54.54,0,0,0,.54-.54V29.88a.54.54,0,0,0-.54-.54ZM16.84,1.09H20.1V2.17H16.84V1.09ZM16.3,6l9.19,3.76H7.11L16.3,6ZM3.8,10.87h25V12H3.8V10.87ZM2.72,13H29.88v1.09H2.72V13ZM28.8,15.21v12H22.28v-12Zm-12.5,6A3.8,3.8,0,0,0,12.5,25v2.18H11.41v-12h9.78v12H20.1V25a3.8,3.8,0,0,0-3.8-3.8ZM19,25v2.18H13.58V25A2.72,2.72,0,0,1,19,25Zm-8.7-9.78v12H3.8v-12Zm-7.6,13H29.88v1.09H2.72V28.25Zm28.79,3.26H1.09V30.43H31.51Z"/><rect class="cls-2" x="6.24" y="5.15" width="7.63" height="1.09" transform="translate(-1.41 4.23) rotate(-22.25)"/><rect class="cls-2" x="4.31" y="7.27" width="1.11" height="1.09" transform="translate(-2.6 2.42) rotate(-22.24)"/><rect class="cls-2" x="16.84" y="24.99" width="1.09" height="1.09"/><rect class="cls-2" x="14.67" y="24.99" width="1.09" height="1.09"/><rect class="cls-2" x="5.43" y="16.84" width="1.09" height="1.09"/><rect class="cls-2" x="7.61" y="16.84" width="1.09" height="1.09"/><rect class="cls-2" x="5.43" y="19.02" width="1.09" height="1.09"/><rect class="cls-2" x="7.61" y="19.02" width="1.09" height="1.09"/><rect class="cls-2" x="13.58" y="16.84" width="1.09" height="1.09"/><rect class="cls-2" x="15.76" y="16.84" width="1.09" height="1.09"/><rect class="cls-2" x="17.93" y="16.84" width="1.09" height="1.09"/><rect class="cls-2" x="13.58" y="19.02" width="1.09" height="1.09"/><rect class="cls-2" x="15.76" y="19.02" width="1.09" height="1.09"/><rect class="cls-2" x="17.93" y="19.02" width="1.09" height="1.09"/><rect class="cls-2" x="5.43" y="22.28" width="1.09" height="1.09"/><rect class="cls-2" x="7.61" y="22.28" width="1.09" height="1.09"/><rect class="cls-2" x="5.43" y="24.45" width="1.09" height="1.09"/><rect class="cls-2" x="7.61" y="24.45" width="1.09" height="1.09"/><rect class="cls-2" x="26.08" y="16.84" width="1.09" height="1.09"/><rect class="cls-2" x="23.91" y="16.84" width="1.09" height="1.09"/><rect class="cls-2" x="26.08" y="19.02" width="1.09" height="1.09"/><rect class="cls-2" x="23.91" y="19.02" width="1.09" height="1.09"/><rect class="cls-2" x="26.08" y="22.28" width="1.09" height="1.09"/><rect class="cls-2" x="23.91" y="22.28" width="1.09" height="1.09"/><rect class="cls-2" x="26.08" y="24.45" width="1.09" height="1.09"/><rect class="cls-2" x="23.91" y="24.45" width="1.09" height="1.09"/><rect class="cls-2" x="30.97" y="17.93" width="1.09" height="4.89"/><rect class="cls-2" x="30.97" y="23.91" width="1.09" height="1.09"/></g></g></svg>