<svg xmlns="http://www.w3.org/2000/svg" viewBox="0 0 33.75 33.72"><defs><style>.cls-1{fill:#fff;fill-rule:evenodd;}</style></defs><g id="Layer_2" data-name="Layer 2"><g id="Layer_1-2" data-name="Layer 1"><path class="cls-1" d="M30.79,7H24l-.16-2.27h-3V3.89a3.89,3.89,0,1,0-7.77,0v.86H9.94L9.79,7H3a3,3,0,0,0-3,3V26.14a3,3,0,0,0,3,3h9.64v1.64a1,1,0,0,1-1,1H9v2H24.79v-2H22.13a1,1,0,0,1-1-1V29.11h9.65a3,3,0,0,0,3-3V10a3,3,0,0,0-3-3ZM15,3.89a1.91,1.91,0,1,1,3.81,0v.86H15V3.89ZM11.79,6.73H22l.82,11.83H11l.81-11.83ZM3,9H9.65L8.86,20.54h16L24.1,9h6.69a1,1,0,0,1,1,1V23.17H2V10A1,1,0,0,1,3,9ZM19.33,31.74H14.42a2.94,2.94,0,0,0,.17-1V29.11h4.57v1.64a2.94,2.94,0,0,0,.17,1Zm11.46-4.61H3a1,1,0,0,1-1-1v-1h29.8v1a1,1,0,0,1-1,1Z"/><path class="cls-1" d="M16.88,9.65a3,3,0,1,0,3,3,3,3,0,0,0-3-3Zm0,4a1,1,0,1,1,0-2,1,1,0,0,1,0,2Z"/></g></g></svg>