<svg id="Layer_1" data-name="Layer 1" xmlns="http://www.w3.org/2000/svg" xmlns:xlink="http://www.w3.org/1999/xlink" viewBox="0 0 1920 1080"><defs><style>.cls-1{fill:none;}.cls-2,.cls-3{fill:#f4f2ee;}.cls-2{clip-path:url(#clip-path);}.cls-4{clip-path:url(#clip-path-2);}.cls-5{fill:#fff;}.cls-6{fill:#e64837;opacity:0.25;}</style><clipPath id="clip-path"><rect class="cls-1" x="0.48" y="0.34" width="1920" height="950"/></clipPath><clipPath id="clip-path-2"><rect class="cls-2" width="1920" height="1080"/></clipPath></defs><g id="Banner-BG"><rect class="cls-3" width="1920" height="1080"/><g class="cls-4"><line class="cls-5" x1="1530.48" y1="1080" x2="1530.48" y2="0.09"/><line class="cls-5" x1="1150.48" y1="1080" x2="1150.48" y2="0.09"/><line class="cls-5" x1="770.48" y1="1080" x2="770.48" y2="0.09"/><line class="cls-5" x1="390.48" y1="1080" x2="390.48" y2="0.09"/><circle class="cls-5" cx="1043.91" cy="227.09" r="6"/><circle class="cls-5" cx="1065.62" cy="227.09" r="6"/><circle class="cls-5" cx="1000.48" cy="227.09" r="6"/><circle class="cls-5" cx="1022.19" cy="227.09" r="6"/><circle class="cls-5" cx="1087.34" cy="227.09" r="6"/><circle class="cls-5" cx="1109.05" cy="227.09" r="6"/><circle class="cls-5" cx="1130.76" cy="227.09" r="6"/><circle class="cls-5" cx="1152.48" cy="227.09" r="6"/><circle class="cls-5" cx="1043.91" cy="248.09" r="6"/><circle class="cls-5" cx="1065.62" cy="248.09" r="6"/><circle class="cls-5" cx="1000.48" cy="248.09" r="6"/><circle class="cls-5" cx="1022.19" cy="248.09" r="6"/><circle class="cls-5" cx="1087.34" cy="248.09" r="6"/><circle class="cls-5" cx="1109.05" cy="248.09" r="6"/><circle class="cls-5" cx="1130.76" cy="248.09" r="6"/><circle class="cls-5" cx="1152.48" cy="248.09" r="6"/><circle class="cls-5" cx="1043.91" cy="269.09" r="6"/><circle class="cls-5" cx="1065.62" cy="269.09" r="6"/><circle class="cls-5" cx="1000.48" cy="269.09" r="6"/><circle class="cls-5" cx="1022.19" cy="269.09" r="6"/><circle class="cls-5" cx="1087.34" cy="269.09" r="6"/><circle class="cls-5" cx="1109.05" cy="269.09" r="6"/><circle class="cls-5" cx="1130.76" cy="269.09" r="6"/><circle class="cls-5" cx="1152.48" cy="269.09" r="6"/><circle class="cls-5" cx="1043.91" cy="290.09" r="6"/><circle class="cls-5" cx="1065.62" cy="290.09" r="6"/><circle class="cls-5" cx="1000.48" cy="290.09" r="6"/><circle class="cls-5" cx="1022.19" cy="290.09" r="6"/><circle class="cls-5" cx="1087.34" cy="290.09" r="6"/><circle class="cls-5" cx="1109.05" cy="290.09" r="6"/><circle class="cls-5" cx="1130.76" cy="290.09" r="6"/><circle class="cls-5" cx="1152.48" cy="290.09" r="6"/><circle class="cls-5" cx="1043.91" cy="311.09" r="6"/><circle class="cls-5" cx="1065.62" cy="311.09" r="6"/><circle class="cls-5" cx="1000.48" cy="311.09" r="6"/><circle class="cls-5" cx="1022.19" cy="311.09" r="6"/><circle class="cls-5" cx="1087.34" cy="311.09" r="6"/><circle class="cls-5" cx="1109.05" cy="311.09" r="6"/><circle class="cls-5" cx="1130.76" cy="311.09" r="6"/><circle class="cls-5" cx="1043.91" cy="332.09" r="6"/><circle class="cls-5" cx="1065.62" cy="332.09" r="6"/><circle class="cls-5" cx="1000.48" cy="332.09" r="6"/><circle class="cls-5" cx="1022.19" cy="332.09" r="6"/><circle class="cls-5" cx="1087.34" cy="332.09" r="6"/><circle class="cls-5" cx="1109.05" cy="332.09" r="6"/><circle class="cls-5" cx="1043.91" cy="353.09" r="6"/><circle class="cls-5" cx="1065.62" cy="353.09" r="6"/><circle class="cls-5" cx="1000.48" cy="353.09" r="6"/><circle class="cls-5" cx="1022.19" cy="353.09" r="6"/><circle class="cls-5" cx="1087.34" cy="353.09" r="6"/><circle class="cls-5" cx="150.91" cy="617.09" r="6"/><circle class="cls-5" cx="172.62" cy="617.09" r="6"/><circle class="cls-5" cx="107.48" cy="617.09" r="6"/><circle class="cls-5" cx="129.19" cy="617.09" r="6"/><circle class="cls-5" cx="194.34" cy="617.09" r="6"/><circle class="cls-5" cx="150.91" cy="638.09" r="6"/><circle class="cls-5" cx="172.62" cy="638.09" r="6"/><circle class="cls-5" cx="107.48" cy="638.09" r="6"/><circle class="cls-5" cx="129.19" cy="638.09" r="6"/><circle class="cls-5" cx="194.34" cy="638.09" r="6"/><circle class="cls-5" cx="150.91" cy="659.09" r="6"/><circle class="cls-5" cx="172.62" cy="659.09" r="6"/><circle class="cls-5" cx="107.48" cy="659.09" r="6"/><circle class="cls-5" cx="129.19" cy="659.09" r="6"/><circle class="cls-5" cx="194.34" cy="659.09" r="6"/><circle class="cls-5" cx="150.91" cy="680.09" r="6"/><circle class="cls-5" cx="172.62" cy="680.09" r="6"/><circle class="cls-5" cx="107.48" cy="680.09" r="6"/><circle class="cls-5" cx="129.19" cy="680.09" r="6"/><circle class="cls-5" cx="194.34" cy="680.09" r="6"/><circle class="cls-5" cx="150.91" cy="701.09" r="6"/><circle class="cls-5" cx="172.62" cy="701.09" r="6"/><circle class="cls-5" cx="107.48" cy="701.09" r="6"/><circle class="cls-5" cx="129.19" cy="701.09" r="6"/><circle class="cls-5" cx="194.34" cy="701.09" r="6"/><circle class="cls-5" cx="1380.91" cy="877.09" r="6"/><circle class="cls-5" cx="1402.62" cy="877.09" r="6"/><circle class="cls-5" cx="1337.48" cy="877.09" r="6"/><circle class="cls-5" cx="1359.19" cy="877.09" r="6"/><circle class="cls-5" cx="1424.34" cy="877.09" r="6"/><circle class="cls-5" cx="1380.91" cy="898.09" r="6"/><circle class="cls-5" cx="1402.62" cy="898.09" r="6"/><circle class="cls-5" cx="1337.48" cy="898.09" r="6"/><circle class="cls-5" cx="1359.19" cy="898.09" r="6"/><circle class="cls-5" cx="1424.34" cy="898.09" r="6"/><circle class="cls-5" cx="1380.91" cy="919.09" r="6"/><circle class="cls-5" cx="1402.62" cy="919.09" r="6"/><circle class="cls-5" cx="1337.48" cy="919.09" r="6"/><circle class="cls-5" cx="1359.19" cy="919.09" r="6"/><circle class="cls-5" cx="1424.34" cy="919.09" r="6"/><circle class="cls-5" cx="1380.91" cy="940.09" r="6"/><circle class="cls-5" cx="1402.62" cy="940.09" r="6"/><circle class="cls-5" cx="1337.48" cy="940.09" r="6"/><circle class="cls-5" cx="1359.19" cy="940.09" r="6"/><circle class="cls-5" cx="1424.34" cy="940.09" r="6"/><circle class="cls-5" cx="1768.91" cy="342.09" r="6"/><circle class="cls-5" cx="1790.62" cy="342.09" r="6"/><circle class="cls-5" cx="1812.34" cy="342.09" r="6"/><circle class="cls-5" cx="1834.05" cy="342.09" r="6"/><circle class="cls-5" cx="1855.76" cy="342.09" r="6"/><circle class="cls-5" cx="1877.48" cy="342.09" r="6"/><circle class="cls-5" cx="1768.91" cy="363.09" r="6"/><circle class="cls-5" cx="1790.62" cy="363.09" r="6"/><circle class="cls-5" cx="1812.34" cy="363.09" r="6"/><circle class="cls-5" cx="1834.05" cy="363.09" r="6"/><circle class="cls-5" cx="1855.76" cy="363.09" r="6"/><circle class="cls-5" cx="1877.48" cy="363.09" r="6"/><circle class="cls-5" cx="1768.91" cy="384.09" r="6"/><circle class="cls-5" cx="1790.62" cy="384.09" r="6"/><circle class="cls-5" cx="1812.34" cy="384.09" r="6"/><circle class="cls-5" cx="1834.05" cy="384.09" r="6"/><circle class="cls-5" cx="1855.76" cy="384.09" r="6"/><circle class="cls-5" cx="1877.48" cy="384.09" r="6"/><circle class="cls-5" cx="1768.91" cy="405.09" r="6"/><circle class="cls-5" cx="1790.62" cy="405.09" r="6"/><circle class="cls-5" cx="1812.34" cy="405.09" r="6"/><circle class="cls-5" cx="1834.05" cy="405.09" r="6"/><circle class="cls-5" cx="1855.76" cy="405.09" r="6"/><circle class="cls-5" cx="1877.48" cy="405.09" r="6"/><circle class="cls-5" cx="1768.91" cy="426.09" r="6"/><circle class="cls-5" cx="1790.62" cy="426.09" r="6"/><circle class="cls-5" cx="1812.34" cy="426.09" r="6"/><circle class="cls-5" cx="1834.05" cy="426.09" r="6"/><circle class="cls-5" cx="1855.76" cy="426.09" r="6"/><circle class="cls-5" cx="1877.48" cy="426.09" r="6"/><circle class="cls-5" cx="1492.62" cy="645.09" r="6"/><circle class="cls-5" cx="1514.34" cy="645.09" r="6"/><circle class="cls-5" cx="1536.05" cy="645.09" r="6"/><circle class="cls-5" cx="1470.91" cy="666.09" r="6"/><circle class="cls-5" cx="1470.48" cy="645.09" r="6"/><circle class="cls-5" cx="1492.62" cy="666.09" r="6"/><circle class="cls-5" cx="1514.34" cy="666.09" r="6"/><circle class="cls-5" cx="1536.05" cy="666.09" r="6"/><circle class="cls-5" cx="1470.91" cy="687.09" r="6"/><circle class="cls-5" cx="1492.62" cy="687.09" r="6"/><circle class="cls-5" cx="1449.19" cy="687.09" r="6"/><circle class="cls-5" cx="1427.48" cy="687.09" r="6"/><circle class="cls-5" cx="1514.34" cy="687.09" r="6"/><circle class="cls-5" cx="1536.05" cy="687.09" r="6"/><circle class="cls-5" cx="1470.91" cy="708.09" r="6"/><circle class="cls-5" cx="1492.62" cy="708.09" r="6"/><circle class="cls-5" cx="1427.48" cy="708.09" r="6"/><circle class="cls-5" cx="1449.19" cy="708.09" r="6"/><circle class="cls-5" cx="1514.34" cy="708.09" r="6"/><circle class="cls-5" cx="1536.05" cy="708.09" r="6"/><circle class="cls-5" cx="1470.91" cy="729.09" r="6"/><circle class="cls-5" cx="1492.62" cy="729.09" r="6"/><circle class="cls-5" cx="1427.48" cy="729.09" r="6"/><circle class="cls-5" cx="1449.19" cy="729.09" r="6"/><circle class="cls-5" cx="1514.34" cy="729.09" r="6"/><circle class="cls-5" cx="1536.05" cy="729.09" r="6"/><circle class="cls-5" cx="1470.91" cy="749.09" r="6"/><circle class="cls-5" cx="1492.62" cy="749.09" r="6"/><circle class="cls-5" cx="1427.48" cy="749.09" r="6"/><circle class="cls-5" cx="1449.19" cy="749.09" r="6"/><circle class="cls-5" cx="1514.34" cy="749.09" r="6"/><circle class="cls-5" cx="1536.05" cy="749.09" r="6"/><circle class="cls-6" cx="1221.48" cy="403.09" r="113"/><rect class="cls-6" x="1221.48" y="403.09" width="209" height="249"/></g></g></svg>