<?xml version="1.0" encoding="utf-8"?>
<!-- Generator: Adobe Illustrator 25.2.0, SVG Export Plug-In . SVG Version: 6.00 Build 0)  -->
<svg version="1.1" id="Layer_1" xmlns="http://www.w3.org/2000/svg" xmlns:xlink="http://www.w3.org/1999/xlink" x="0px" y="0px"
	 viewBox="0 0 319 302" style="enable-background:new 0 0 319 302;" xml:space="preserve">
<style type="text/css">
	.st0{fill:#FFFFFF;}
</style>
<g>
	<path class="st0" d="M71.3,22.8L43.5,67c-0.6,1-0.7,2.2-0.2,3.3l5.9,13.5c0.4,0.9,1.4,1.5,2.4,1.5l63.2-3.8c1-0.1,1.9-0.6,2.5-1.4
		l43.5-61.5c0.7-0.9,0.4-2.2-0.5-2.8L144.5,5.6c-0.8-0.5-1.8-0.7-2.7-0.5L73.6,21.2C72.6,21.4,71.8,22,71.3,22.8z"/>
	<path class="st0" d="M196.2,64.8L255.4,97c0.9,0.5,2-0.2,1.9-1.2c-1.3-11-10.1-57.1-68.1-70.4c-0.9-0.2-1.8,0.6-1.6,1.5
		c0,0,12.5,11.3,8,37.1C195.5,64.5,196,64.7,196.2,64.8z"/>
	<path class="st0" d="M253,123.8l3.9-14.9c0.2-0.8-0.2-1.6-0.9-2l-34-17.2c-1.7-0.9-3.4,1.3-2,2.7l22.5,23.8
		c0.1,0.2,0.3,0.3,0.4,0.6l3,7.5c0.3,0.7,1,1.1,1.7,1.1c1.1-0.1,2.9-0.2,4-0.3C252.3,125,252.9,124.4,253,123.8z"/>
	<path class="st0" d="M189.7,72.2"/>
	<path class="st0" d="M186.1,75.9l-9.3,13.6c-1.3,1.9-1.1,4.5,0.4,6.2l21.2,24.2c0,0,2.8,5.7-1.4,6.9c-1.7,0.5-2.8,2-3.2,3.7
		c-1.2,5.6-2.8,16.9,1.9,26c0.3,0.5,0.6,1,1,1.4c3.8,3.8,23.9,21.7,43.5-3.1c0.1-0.2,0.2-0.3,0.4-0.5c1.1-1.7,6.1-11.2-2-30.1
		c-0.2-0.6-0.6-1.1-1-1.5L194,75.3C191.8,72.9,187.9,73.1,186.1,75.9z"/>
	<path class="st0" d="M189.8,166.8c-0.8-0.6-1.9-0.3-1.8,0.7c1.5,13.6,8.4,62.3,28.6,70.3c22.4,9,43.6,2.1,64.7,14.2
		c0.9,0.5,1.9-0.4,1.4-1.3c-6-11.4-25.3-51.1-30.1-93.4c-0.1-1-1.4-1.2-1.9-0.3C244.6,168.6,226.2,196.2,189.8,166.8z"/>
	<path class="st0" d="M194,292.5h-87.3c-2.5,0-4.6-2-4.6-4.6v-30.7c0-0.9,0.2-1.7,0.7-2.5c2.9-4.4,13-23.3,11-65.2
		c0-1-0.4-1.9-1-2.6c-2.4-3.1-10.1-11.6-27-21.5c-3.9-2.3-5.7-7.2-3.7-11.4c4.9-10.3,12.9-18.9,7.2-34.2c-0.7-1.8,1.2-3.7,3-4.3
		c1.4-0.4,2.8-1.3,3.5-2.9c1-2.2,3.6-3,5.7-1.9c12.8,6.5,44.3,18.5,69-5.9h3.6c0,0-14.6,105.9,34.7,139c1.9,1.2,2.5,3.7,1.5,5.7
		c-3,6.2-9,20.2-11.9,39.1C198.2,290.8,196.2,292.5,194,292.5z"/>
	<path class="st0" d="M219.5,248.4c0,0,2.9,20.1-11.4,36.5l-0.9,7.6H247c0,0-3.8-15.4,6.5-31.1v-9.2L219.5,248.4z"/>
	<path class="st0" d="M262.1,262.1l-7.8,22.8c-0.5,1.6-0.8,3.2-0.8,4.9v2.7h51.3c1.8,0,3.2-1.6,3-3.4l-0.4-4
		c-0.3-2.8-1.1-5.5-2.4-7.9c-3.4-6.6-10.5-19.2-13.9-18.7c-4.4,0.6-8.6,11.5-24.6,2.1C264.9,259.5,262.7,260.3,262.1,262.1z"/>
	<path class="st0" d="M96.3,239.6V251c0,0.7-0.4,1.3-1,1.6c-1.4,0.6-3.8,2-4.5,3.7c-0.1,0.2-0.1,0.4-0.1,0.7v33.7
		c0,1-0.8,1.8-1.8,1.8H63.1c-1,0-1.8-0.8-1.8-1.8v-21.1c0-0.5,0.2-1,0.6-1.3c2.6-2.1,12.1-11.2,10.4-28.5c-0.1-1,0.7-2,1.7-2h20.5
		C95.5,237.8,96.3,238.6,96.3,239.6z"/>
	<path class="st0" d="M61.4,245.2v7.2c0,2.1-1,4.1-2.7,5.5c-1.8,1.5-4,4.5-5.2,10.7c-2.2,11.4-3,11.7-2.5,21.3v0.6
		c0.1,1.1-0.8,2.1-2,2.1H22.9c-0.9,0-1.6-0.7-1.6-1.6v-4.1c0-5.5,1.7-10.9,5-15.3c5.4-7.3,14.6-18.3,25.3-24.5
		c2.2-1.3,4.8-1.9,7.3-1.9h2.3C61.3,245,61.4,245.1,61.4,245.2z"/>
	<path class="st0" d="M80.1,224.9h20.5c0.2,0,0.4-0.1,0.5-0.4c0.3-1.2,1.6-5.3,6.4-7.6c0.2-0.1,0.3-0.2,0.3-0.4v-9.8
		c0-0.4-0.5-0.7-0.8-0.4c-3,2.8-13.9,12.5-27,17.5C79.4,224.1,79.5,224.9,80.1,224.9z"/>
	<g>
		<path class="st0" d="M186.4,43.9l-14.2-20.7c-0.7-1.1-1.9-1.7-3.1-1.7H168c-1.5,0-2.8,0.8-3.6,1.9l-39.2,59.4
			c-1,1.5-2.6,2.5-4.4,2.7l-30.7,4c-0.4,0-0.7,0.1-1,0.2l-8.3,3c-0.8,0.3-1.5,0.4-2.3,0.4H60.9c-0.7,0-1,0.8-0.5,1.3l7,7
			c1,1,2.4,1.6,3.8,1.6h8.2c1.4,0,2.8-0.3,4.1-1l1.4-0.7c2.4-1.2,5.2-1.4,7.8-0.4l11.7,4.4c3.8,1.4,7.9,2.2,12,2.2h30.4
			c4.6,0,9-2.2,11.8-5.8l26.9-34.8c1.1-1.5,1.8-3.4,1.8-5.3v-15C187.2,45.6,186.9,44.7,186.4,43.9z M160,73.6
			c-8.4,0-15.1-6.7-15.1-15.1c0-8.3,6.8-15.1,15.1-15.1s15.1,6.8,15.1,15.1C175.1,66.9,168.3,73.6,160,73.6z"/>
		<path class="st0" d="M170,58.5c0,5.6-4.5,10.1-10,10.1c-5.6,0-10.1-4.5-10.1-10.1s4.5-10.1,10.1-10.1C165.5,48.4,170,53,170,58.5z
			"/>
	</g>
</g>
</svg>
