<svg xmlns="http://www.w3.org/2000/svg" viewBox="0 0 45.85 45.85"><defs><style>.cls-1{fill:#2a79be;fill-rule:evenodd;}</style></defs><g id="Layer_2" data-name="Layer 2"><g id="Layer_1-2" data-name="Layer 1"><path class="cls-1" d="M32.33,1.34V0H21.58V6.05L10.84,14.11v7.47H0V45.85H45.85V21.58H35V14.11L26.81,8a6.72,6.72,0,0,0,5.52-6.61ZM2.69,43.17V24.27h8.15v18.9ZM27,35v8.15H24.27V35Zm0-2.69H18.9V29.64H27v2.69ZM18.9,35h2.68v8.15H18.9V35ZM43.17,24.27v18.9H35V24.27ZM32.33,43.17H29.64V27H16.21V43.17H13.52V15.45l9.41-7,9.4,7V43.17ZM25.61,5.37H24.27V2.69h5.14A4,4,0,0,1,25.61,5.37Z"/><path class="cls-1" d="M5.46,27H8.15v2.68H5.46Z"/><path class="cls-1" d="M5.46,32.33H8.15V35H5.46Z"/><path class="cls-1" d="M5.46,37.7H8.15v2.69H5.46Z"/><path class="cls-1" d="M37.7,27h2.69v2.68H37.7Z"/><path class="cls-1" d="M37.7,32.33h2.69V35H37.7Z"/><path class="cls-1" d="M37.7,37.7h2.69v2.69H37.7Z"/><path class="cls-1" d="M18.9,17.46a4,4,0,1,0,4-4,4,4,0,0,0-4,4Zm5.37,0a1.35,1.35,0,1,1-1.34-1.34A1.35,1.35,0,0,1,24.27,17.46Z"/></g></g></svg>