<svg xmlns="http://www.w3.org/2000/svg" viewBox="0 0 57.13 57.14"><defs><style>.cls-1,.cls-2{fill:#fff;}.cls-1{fill-rule:evenodd;}</style></defs><g id="Layer_2" data-name="Layer 2"><g id="Layer_1-2" data-name="Layer 1"><path class="cls-1" d="M57.13,33.33V29.52a.94.94,0,0,0-1-.95H43.8v-1a2.86,2.86,0,0,0-2.86-2.85H40V22.85h4.76A2.86,2.86,0,0,0,47.61,20V2.86A2.87,2.87,0,0,0,44.75,0H12.38A2.87,2.87,0,0,0,9.52,2.86V20a2.86,2.86,0,0,0,2.86,2.85h4.76v1.91h-.95a2.86,2.86,0,0,0-2.86,2.85v1H1a1,1,0,0,0-.95.95v3.81a1,1,0,0,0,1,1H2.73L0,56.07a.92.92,0,0,0,.23.74.93.93,0,0,0,.71.32H2.86a1,1,0,0,0,.91-.68l6.47-22.17h3.09v2.86a1,1,0,0,0,.95,1h2.86V40a1,1,0,0,0,.95.95h7.62v5.72H19a1,1,0,0,0-.95,1v4a2.86,2.86,0,1,0,1.91,0v-3h7.61v3a2.86,2.86,0,1,0,1.91,0v-3h7.62v3a2.85,2.85,0,1,0,1.9,0v-4a1,1,0,0,0-.95-1H31.42V40.94H39A.94.94,0,0,0,40,40v-1.9h2.86a1,1,0,0,0,.95-1V34.28h3.1l6.46,22.17a1,1,0,0,0,.91.68h1.91a.93.93,0,0,0,.71-.32.89.89,0,0,0,.23-.74L54.4,34.28h1.78a1,1,0,0,0,1-1Zm-55,21.9H2L4.65,34.28H8.26L2.14,55.23ZM13.33,32.37H1.9v-1.9H13.33v1.9Zm3.81,3.81h-1.9V27.61a1,1,0,0,1,1-.95h.95v9.52Zm1.9,19a1,1,0,0,1-.88-.59,1,1,0,0,1,.21-1A1,1,0,1,1,19,55.23Zm19.05-1.91a1,1,0,0,1,.88.59,1,1,0,0,1-.21,1,1,1,0,0,1-1,.2.94.94,0,0,1-.58-.87,1,1,0,0,1,1-1Zm-9.52,1.91a.94.94,0,0,1-.88-.59.94.94,0,0,1,1.24-1.24.94.94,0,0,1,.59.88,1,1,0,0,1-.95.95Zm.95-8.57H27.61V40.94h1.91v5.72ZM38.09,39H19V20a1,1,0,0,1,1-1H37.14a1,1,0,0,1,1,1V39ZM22.85,17.14v-1.9a5.72,5.72,0,1,1,11.43,0v1.9Zm14.29,0h-1v-1.9a7.62,7.62,0,1,0-15.23,0v1.9H20A2.86,2.86,0,0,0,17.14,20V21H12.38a1,1,0,0,1-1-.95V2.86a1,1,0,0,1,1-1H44.75a1,1,0,0,1,1,1V20a1,1,0,0,1-1,.95H40V20a2.86,2.86,0,0,0-2.85-2.86Zm4.76,19H40V26.66h.95a1,1,0,0,1,1,.95v8.57Zm13.2,19H55L48.88,34.28h3.6L55.1,55.23Zm.13-22.86H43.8v-1.9H55.23Z"/><path class="cls-1" d="M41.9,8.57h1.9V4.76a1,1,0,0,0-.95-.95H39v1.9H41.9Z"/><rect class="cls-2" x="41.9" y="10.47" width="1.9" height="1.9"/></g></g></svg>