<svg xmlns="http://www.w3.org/2000/svg" viewBox="0 0 27.7 58.85"><defs><style>.cls-1{fill:#122867;fill-rule:evenodd;}</style></defs><g id="Layer_2" data-name="Layer 2"><g id="Layer_1-2" data-name="Layer 1"><path class="cls-1" d="M13.85,11.59a5.8,5.8,0,1,0-5.8-5.8,5.8,5.8,0,0,0,5.8,5.8ZM27.66,30.07a.63.63,0,0,0,0-.36L24.8,14.41a2.92,2.92,0,0,0-2.89-2.47H5.79A2.92,2.92,0,0,0,2.9,14.39L0,29.71a.88.88,0,0,0,0,.36,2.83,2.83,0,0,0,0,.41A2.94,2.94,0,0,0,5.83,31L7.65,19.62l0,36.3a2.94,2.94,0,0,0,5.88,0V38h.7v18a2.94,2.94,0,0,0,5.87,0l0-36.3L21.87,31a2.94,2.94,0,0,0,5.83-.53A1.9,1.9,0,0,0,27.66,30.07Z"/></g></g></svg>