<svg xmlns="http://www.w3.org/2000/svg" viewBox="0 0 45.56 45.53"><defs><style>.cls-1,.cls-2{fill:#2a79be;}.cls-2{fill-rule:evenodd;}</style></defs><g id="Layer_2" data-name="Layer 2"><g id="Layer_1-2" data-name="Layer 1"><rect class="cls-1" x="16.11" y="10.74" width="2.67" height="2.67"/><rect class="cls-1" x="21.44" y="10.74" width="2.67" height="2.67"/><rect class="cls-1" x="26.78" y="10.74" width="2.67" height="2.67"/><path class="cls-2" d="M45.56,18.75v-7.5L22.78,0,0,11.25v7.5H5.34V32.1H2.67v5.34H0v8.09H45.56V37.44H42.89V32.1H40.22V18.75ZM16.4,42.86H2.67V40.11H17.08l-.68,2.75Zm1.34-5.42H5.34V34.77H18.4l-.66,2.67ZM8,32.1V18.75h2.76V32.1Zm10.76,0H13.44V18.75h5.33V32.1Zm.38,10.76,2-8.09H24.4l2,8.09ZM21.44,32.1V18.75h2.67V32.1Zm5.71,2.67H40.22v2.67H27.82l-.67-2.67Zm-.37-2.67V18.75h5.34V32.1Zm8,0V18.75h2.76V32.1Zm8.1,8v2.75H29.16l-.68-2.75Zm-40.22-24V12.91L22.78,3l20.11,9.93v3.17Z"/></g></g></svg>