<svg xmlns="http://www.w3.org/2000/svg" viewBox="0 0 41.48 41.48"><defs><style>.cls-1{fill:#2a79be;fill-rule:evenodd;}</style></defs><g id="Layer_2" data-name="Layer 2"><g id="Layer_1-2" data-name="Layer 1"><path class="cls-1" d="M20.73,37.1A14.64,14.64,0,0,1,19.11,37a16.35,16.35,0,1,1,15.35-7.36.8.8,0,0,1-1.12.23.82.82,0,0,1-.24-1.12,14.72,14.72,0,1,0-4.34,4.35.81.81,0,1,1,.88,1.35,16.4,16.4,0,0,1-8.91,2.63Z"/><path class="cls-1" d="M31.71,32.57a.81.81,0,0,1-.57-.24.8.8,0,0,1,0-1.14l0,0a.81.81,0,0,1,1.14,0,.8.8,0,0,1,0,1.14l0,0a.81.81,0,0,1-.57.23Z"/><path class="cls-1" d="M17,18.56a.81.81,0,0,1-.81-.81.5.5,0,0,0-.5-.51.51.51,0,0,0-.51.51.81.81,0,0,1-1.62,0,2.13,2.13,0,1,1,4.25,0,.81.81,0,0,1-.81.81Z"/><path class="cls-1" d="M27.56,18.56a.81.81,0,0,1-.81-.81.51.51,0,1,0-1,0,.81.81,0,0,1-1.62,0,2.13,2.13,0,0,1,4.26,0,.81.81,0,0,1-.81.81Z"/><path class="cls-1" d="M21,29a4.63,4.63,0,0,1-4.63-4.62.81.81,0,1,1,1.62,0,3,3,0,0,0,6,0,.81.81,0,1,1,1.62,0A4.62,4.62,0,0,1,21,29Z"/><path class="cls-1" d="M37.43,2.74a.81.81,0,0,1-.81-.81V.81a.81.81,0,0,1,1.62,0V1.93A.81.81,0,0,1,37.43,2.74Z"/><path class="cls-1" d="M37.43,8.1a.81.81,0,0,1-.81-.81V6.17a.81.81,0,0,1,1.62,0V7.29A.81.81,0,0,1,37.43,8.1Z"/><path class="cls-1" d="M40.67,4.86H39.55a.81.81,0,0,1,0-1.62h1.12a.81.81,0,1,1,0,1.62Z"/><path class="cls-1" d="M35.31,4.86H34.19a.81.81,0,0,1,0-1.62h1.12a.81.81,0,1,1,0,1.62Z"/><path class="cls-1" d="M4.05,36.12a.81.81,0,0,1-.81-.81V34.19a.81.81,0,0,1,1.62,0v1.12A.81.81,0,0,1,4.05,36.12Z"/><path class="cls-1" d="M4.05,41.48a.81.81,0,0,1-.81-.81V39.55a.81.81,0,0,1,1.62,0v1.12A.81.81,0,0,1,4.05,41.48Z"/><path class="cls-1" d="M7.29,38.24H6.17a.81.81,0,1,1,0-1.62H7.29a.81.81,0,0,1,0,1.62Z"/><path class="cls-1" d="M1.93,38.24H.81a.81.81,0,0,1,0-1.62H1.93a.81.81,0,0,1,0,1.62Z"/></g></g></svg>