<svg xmlns="http://www.w3.org/2000/svg" viewBox="0 0 49.25 43"><defs><style>.cls-1{fill:#fff;fill-rule:evenodd;}</style></defs><g id="Layer_2" data-name="Layer 2"><g id="Layer_1-2" data-name="Layer 1"><path class="cls-1" d="M25.85,3.6v0a1.4,1.4,0,0,0-2.43,0v0L3.1,37.9v0a1.45,1.45,0,0,0,1.21,2.2h31a.72.72,0,0,0,0-1.44H4.33S24.61,4.4,24.62,4.36s20.29,34.27,20.3,34.32H38.13a.73.73,0,0,0,0,1.45h6.81a1.45,1.45,0,0,0,1.22-2.2L25.85,3.6Zm.73,10.52h0a2.67,2.67,0,0,1,.69,2L26.33,28a1.71,1.71,0,0,1-3.41,0l-.38-4.73a.72.72,0,0,1,.67-.77.72.72,0,0,1,.77.66l.38,4.73a.27.27,0,0,0,.53,0L25.84,16a1.24,1.24,0,0,0-.32-.92,1.23,1.23,0,0,0-.9-.39A1.22,1.22,0,0,0,23.41,16l.37,4.64a.72.72,0,1,1-1.44.12L22,16.14a2.66,2.66,0,0,1,4.61-2ZM48.63,36.43h0a4.34,4.34,0,0,1,0,4.39A4.26,4.26,0,0,1,44.92,43H4.33A4.26,4.26,0,0,1,.58,40.82a4.32,4.32,0,0,1,0-4.39L20.91,2.12a4.32,4.32,0,0,1,7.43,0L48.63,36.43Zm-1.22,3.68a2.84,2.84,0,0,1-2.49,1.45H4.33a2.84,2.84,0,0,1-2.49-1.45,2.91,2.91,0,0,1,0-3L22.15,2.86a2.86,2.86,0,0,1,4.94,0l20.3,34.3a2.91,2.91,0,0,1,0,3ZM24.62,31a2.27,2.27,0,1,1-2.27,2.27A2.27,2.27,0,0,1,24.62,31Zm0,3.1a.83.83,0,1,1,.83-.83A.83.83,0,0,1,24.62,34.07Z"/></g></g></svg>