<svg xmlns="http://www.w3.org/2000/svg" viewBox="0 0 34.37 34.37"><defs><style>.cls-1,.cls-2{fill:#e05434;}.cls-1{fill-rule:evenodd;}</style></defs><g id="Layer_2" data-name="Layer 2"><g id="Layer_1-2" data-name="Layer 1"><path class="cls-1" d="M17.19,0A17.19,17.19,0,1,0,34.37,17.19,17.21,17.21,0,0,0,17.19,0Zm0,32.51A15.3,15.3,0,0,1,6.38,28.05,15.87,15.87,0,0,1,3.6,24.29a15.33,15.33,0,0,1,24-18.36A15.63,15.63,0,0,1,31,10.58,15.34,15.34,0,0,1,17.19,32.51ZM10.7,32.1l.08,0Z"/><path class="cls-1" d="M13.3,13.47a1.86,1.86,0,1,0-1.86,1.86A1.87,1.87,0,0,0,13.3,13.47Z"/><path class="cls-1" d="M24.79,13.47a1.86,1.86,0,1,0-1.86,1.86A1.86,1.86,0,0,0,24.79,13.47Z"/><rect class="cls-2" x="23.12" y="5.2" width="1.86" height="6.41" transform="translate(6.77 27.13) rotate(-66.58)"/><rect class="cls-2" x="7.12" y="7.48" width="6.41" height="1.86" transform="translate(-2.49 4.8) rotate(-23.42)"/><path class="cls-1" d="M24.88,23.55q.21.38.39.78l1.7-.75a10.3,10.3,0,0,0-.47-.94,10.69,10.69,0,0,0-19.1.94l1.7.75a8.83,8.83,0,0,1,15.78-.78Z"/></g></g></svg>