<svg xmlns="http://www.w3.org/2000/svg" viewBox="0 0 50.27 49.6"><defs><style>.cls-1{fill:#fff;fill-rule:evenodd;}</style></defs><g id="Layer_2" data-name="Layer 2"><g id="Layer_1-2" data-name="Layer 1"><path class="cls-1" d="M50.07,21.05,41.65,10.12a1,1,0,0,0-1.31-.23l-5.43,3.45H27.82a.86.86,0,0,0-.27.05L22.06,15l-5.7-1.56L10.82,9.89a1,1,0,0,0-1.29.21L.22,21.63A1,1,0,0,0,.34,23l4.88,4.2,4.38,5.9a3.48,3.48,0,0,0,.07,4.84,3.42,3.42,0,0,0,2.12,1,3.27,3.27,0,0,0,0,.54A3.48,3.48,0,0,0,15.23,43h0V43a3.48,3.48,0,0,0,3.48,3.48,3.27,3.27,0,0,0,.54,0,3.48,3.48,0,0,0,5.93,2.12l.53-.53.23.18a3.48,3.48,0,0,0,4.88,0,3.42,3.42,0,0,0,1-2.52,3.42,3.42,0,0,0,2.52-1,3.48,3.48,0,0,0,1-2.51,3.48,3.48,0,0,0,2.51-1,3.44,3.44,0,0,0,1-2.52,3.48,3.48,0,0,0,3-5.38l3.19-6.69,4.81-4.13a1,1,0,0,0,.14-1.35ZM10.51,12l4,2.54L5.82,25.11l-3.47-3L10.51,12Zm.56,22.38,1.2-1.2.11-.1a1.49,1.49,0,0,1,.82-.34h.16a1.49,1.49,0,0,1,1.08.47,1.54,1.54,0,0,1-.07,2.14l-1.16,1.17a1.51,1.51,0,0,1-2.14-2.14Zm3.09,6.14a1.5,1.5,0,0,1-.44-1.07,1.46,1.46,0,0,1,.44-1.07l2.33-2.33a1.53,1.53,0,0,1,1.72-.3A1.5,1.5,0,0,1,19,37.33a1.52,1.52,0,0,1-.45.91l-2.29,2.3a1.52,1.52,0,0,1-2.14,0Zm3.52,3.55a1.52,1.52,0,0,1,0-2.14L20,39.62a1.5,1.5,0,0,1,2.55,1.29,1.62,1.62,0,0,1-.45.89l-2.29,2.29a1.5,1.5,0,0,1-1.07.44,1.48,1.48,0,0,1-1.07-.44Zm4,3.1a1.51,1.51,0,0,1,0-2.14l1.2-1.2.11-.1h0a1.48,1.48,0,0,1,.67-.31h0l.13,0H24a1.49,1.49,0,0,1,1.08.47l.1.11A1.57,1.57,0,0,1,25,46l-1.16,1.16a1.51,1.51,0,0,1-2.14,0Zm18.39-11a1.51,1.51,0,0,1-2.14,0l-.07-.06-6.34-6.41a1,1,0,0,0-1.4,1.39l6.41,6.47h0a1.5,1.5,0,0,1,0,2.13,1.47,1.47,0,0,1-1.07.45,1.51,1.51,0,0,1-1.07-.45l-4.28-4.33a1,1,0,0,0-1.4,0,1,1,0,0,0,0,1.39L32.94,41l.06.08a1.51,1.51,0,1,1-2.13,2.14L28.53,40.9a1,1,0,0,0-1.4,0,1,1,0,0,0,0,1.39l2.27,2.3.07.08a1.51,1.51,0,0,1-2.14,2.14c-.07-.07-.15-.12-.22-.18s-.08-.09-.05-.16.08-.16.11-.23.07-.19.1-.28a3.5,3.5,0,0,0,.12-1.51A3.45,3.45,0,0,0,25.92,42a3.4,3.4,0,0,0-1.47-.57,3.5,3.5,0,0,0-.84-3.17,3.43,3.43,0,0,0-2.48-1.09H21a3.45,3.45,0,0,0-3.41-3.56,3.93,3.93,0,0,0-.84.09A3.47,3.47,0,0,0,11,31.68L7.2,26.55l9.11-11.11,2.91.79-3.8,6.7a3.49,3.49,0,0,0,1.32,4.75l.15.08h0l.42.17a3.37,3.37,0,0,0,2.06.06,3.44,3.44,0,0,0,2.11-1.64L24,22l4.4.32L40.08,34.05a1.51,1.51,0,0,1,0,2.14Zm.41-4.52-11-11-.07-.06a1,1,0,0,0-.56-.22L23.47,20a1,1,0,0,0-.93.5l-2.77,4.89a1.47,1.47,0,0,1-.91.71A1.49,1.49,0,0,1,17.71,26a1.47,1.47,0,0,1-.71-.91,1.49,1.49,0,0,1,.14-1.15l3.7-6.53,1.5-.43h0L28,15.31h6.76l8.44,10.74-2.68,5.62Zm4-7.17-7.81-9.93,4-2.54,7.29,9.48Z"/><path class="cls-1" d="M30.46,11.49a1,1,0,0,0,.69-.29l6.74-6.73a1,1,0,0,0-1.4-1.4L29.76,9.81a1,1,0,0,0,0,1.39A1,1,0,0,0,30.46,11.49Z"/><path class="cls-1" d="M19.12,11.2a1,1,0,0,0,1.39,0,1,1,0,0,0,0-1.39L13.78,3.07a1,1,0,1,0-1.4,1.4Z"/><path class="cls-1" d="M25.14,11.49a1,1,0,0,0,1-1V4.93a1,1,0,0,0-2,0V10.5A1,1,0,0,0,25.14,11.49Z"/><path class="cls-1" d="M24.23,1.36a1,1,0,0,0,1.84-.08A1,1,0,0,0,25.74.2a1,1,0,0,0-1.15,0,1,1,0,0,0-.36,1.2Z"/></g></g></svg>