<svg xmlns="http://www.w3.org/2000/svg" viewBox="0 0 37.82 43.03"><defs><style>.cls-1{fill:#fff;fill-rule:evenodd;}</style></defs><g id="Layer_2" data-name="Layer 2"><g id="Layer_1-2" data-name="Layer 1"><path class="cls-1" d="M26.74,12.89a8.72,8.72,0,0,0,1-4.07,8.83,8.83,0,1,0-16.66,4.07A14.08,14.08,0,0,0,0,26.64v1.78A15.12,15.12,0,0,0,4.46,39.19a4.48,4.48,0,0,0,3.19,1.32,4.42,4.42,0,0,0,4.25-3.08c1.7,1.52,3.95,3.36,6.18,5.29a1.27,1.27,0,0,0,1.66,0C22,40.77,24.22,39,25.92,37.43a4.42,4.42,0,0,0,4.25,3.08,4.48,4.48,0,0,0,3.19-1.32,15.12,15.12,0,0,0,4.46-10.77V26.64A14.07,14.07,0,0,0,26.74,12.89ZM18.91,2.52a6.31,6.31,0,1,1-6.3,6.3,6.31,6.31,0,0,1,6.3-6.3ZM26.84,33h0c-.44.5-.94,1-1.53,1.58-1.69,1.62-3.87,3.38-6.4,5.55-6-5.16-10-8-10-11.76,0-2.77,1.88-4.86,4.37-4.86a4.06,4.06,0,0,1,3.36,1.86,8.17,8.17,0,0,1,1.07,2.1,1.25,1.25,0,0,0,2.42,0,8,8,0,0,1,1.07-2.11,4.06,4.06,0,0,1,3.36-1.86c2.49,0,4.37,2.09,4.37,4.86A6.83,6.83,0,0,1,26.84,33Zm8.46-4.55a12.64,12.64,0,0,1-3.72,9,2,2,0,0,1-1.41.58,2,2,0,0,1-1.49-3.29,9.5,9.5,0,0,0,2.76-6.35c0-4-2.86-7.38-6.89-7.38a6.56,6.56,0,0,0-5.45,3l-.19.27-.19-.27a6.56,6.56,0,0,0-5.45-3c-4,0-6.89,3.36-6.89,7.38A9.51,9.51,0,0,0,9.1,34.66,2,2,0,0,1,7.65,38a2,2,0,0,1-1.41-.58,12.64,12.64,0,0,1-3.72-9V26.64A11.57,11.57,0,0,1,12.79,15.18a8.82,8.82,0,0,0,12.24,0A11.57,11.57,0,0,1,35.3,26.64Z"/></g></g></svg>