<svg xmlns="http://www.w3.org/2000/svg" viewBox="0 0 41.73 47.87"><defs><style>.cls-1,.cls-2{fill:#fefefe;}.cls-2{fill-rule:evenodd;}</style></defs><g id="Layer_2" data-name="Layer 2"><g id="Layer_1-2" data-name="Layer 1"><g id="Layer_1-3" data-name="Layer_1"><path class="cls-1" d="M1.33,0H40.79l.07.39c2,11.77.41,21-2.51,28A38.9,38.9,0,0,1,21,47.84l-.16,0-.15-.07C20.56,47.77-5,35.64.87.39L.94,0ZM40,.94H1.74C-3.47,33.49,18.59,45.7,20.86,46.87A38,38,0,0,0,37.48,28C40.32,21.21,41.82,12.32,40,.94Z"/><path class="cls-2" d="M7.81,2.64a4.59,4.59,0,0,1,4.61,4.55,4.61,4.61,0,0,1-9.22,0A4.59,4.59,0,0,1,7.81,2.64Z"/><path class="cls-2" d="M33.92,2.64a4.59,4.59,0,0,1,4.61,4.55,4.61,4.61,0,0,1-9.22,0A4.59,4.59,0,0,1,33.92,2.64Z"/><path class="cls-2" d="M20.87,2.64a4.55,4.55,0,1,1-4.61,4.55A4.58,4.58,0,0,1,20.87,2.64Z"/><path class="cls-2" d="M21,33.67a4.56,4.56,0,1,1-4.62,4.55A4.58,4.58,0,0,1,21,33.67Z"/><path class="cls-2" d="M20.87,13.92c0,.59.08,1.17.14,1.74,1.63.07,3.26,1.19,4.89,1.19s3.35-1.19,5-1.19,3.35,1.19,5,1.19,3.36-1.19,5-1.19v0q.09-.87.15-1.77H.6c0,.6.09,1.2.15,1.78v0c1.67,0,3.35,1.19,5,1.19s3.35-1.19,5-1.19,3.35,1.19,5,1.19,3.25-1.12,4.88-1.19q.09-.86.15-1.74Zm.17,2h0l0,.3Zm.06.53h0l0,.28Zm.22,1.62h0c.13.85.28,1.67.45,2.48,1.38.29,2.75,1.09,4.13,1.09,1.68,0,3.35-1.19,5-1.19s3.35,1.19,5,1.19c1.43,0,2.86-.87,4.29-1.12.17-.8.31-1.62.44-2.46-1.58.12-3.15,1.17-4.73,1.17s-3.35-1.19-5-1.19-3.35,1.19-5,1.19c-1.53,0-3-1-4.58-1.16Zm1.08,5h0c.26.93.54,1.82.84,2.69a8.33,8.33,0,0,0,2.66.64c1.68,0,3.35-1.19,5-1.19s3.35,1.19,5,1.19a8.85,8.85,0,0,0,2.86-.72v.05c.3-.87.58-1.78.83-2.71a14.77,14.77,0,0,1-3.68,1c-1.68,0-3.35-1.19-5-1.19s-3.35,1.19-5,1.19a13,13,0,0,1-3.5-.93ZM23.31,26h0l.09.25Zm1,2.59h0c.4.93.83,1.81,1.28,2.66l.29,0c1.68,0,3.35-1.2,5-1.2s3.35,1.2,5,1.2a4.55,4.55,0,0,0,.52,0c.45-.86.87-1.77,1.28-2.71a6,6,0,0,1-1.8.34c-1.68,0-3.35-1.19-5-1.19s-3.35,1.19-5,1.19a5.39,5.39,0,0,1-1.57-.27ZM26.7,33.2h0c.05.09.11.18.17.27C26.81,33.38,26.75,33.29,26.7,33.2Zm.19.31h0c.44.73.9,1.43,1.37,2.1l-.05-.06a8.47,8.47,0,0,1,2.72-.67,9.43,9.43,0,0,1,2.91.73c.46-.65.9-1.34,1.34-2.06l0,0c-1.41-.27-2.82-1.11-4.23-1.11s-2.68.76-4,1.06Zm2.75,4h0c.47.59.94,1.16,1.42,1.7h0c.45-.52.91-1.07,1.36-1.65a5.47,5.47,0,0,0-1.49-.25,4.81,4.81,0,0,0-1.29.2Zm5.58-4h0l.15-.25Zm.21-.36h0l.15-.25Zm2.76-5.66h0a1.43,1.43,0,0,0,.08-.22A1.43,1.43,0,0,1,38.19,27.46Zm.15-.39h0l.1-.25Zm.15-.39h0c0-.09.06-.18.1-.27C38.55,26.5,38.52,26.59,38.49,26.68Zm.16-.45h0l.09-.25Zm2.16-8.95h0l0-.27Zm.06-.54h0a2.51,2.51,0,0,0,0-.27A2.51,2.51,0,0,1,40.87,16.74Zm.07-.52h0l0-.28ZM1,18.08H1c.15.94.32,1.85.51,2.74l-.06-.28c1.43.25,2.86,1.12,4.29,1.12,1.67,0,3.35-1.19,5-1.19s3.35,1.19,5,1.19c1.37,0,2.75-.8,4.12-1.09.17-.81.33-1.63.46-2.48-1.53.18-3.06,1.16-4.58,1.16-1.68,0-3.36-1.19-5-1.19s-3.36,1.19-5,1.19S2.62,18.2,1,18.08ZM1.58,21h0c0,.1,0,.19.07.29C1.62,21.17,1.6,21.08,1.58,21Zm.11.5h0l.06.26Zm.41,1.6h0c.25.92.52,1.8.81,2.66a8.91,8.91,0,0,0,2.87.72c1.67,0,3.35-1.19,5-1.19s3.35,1.19,5,1.19a8.27,8.27,0,0,0,2.65-.64c.31-.87.59-1.76.85-2.69a13.08,13.08,0,0,1-3.5.93c-1.68,0-3.36-1.19-5-1.19s-3.36,1.19-5,1.19A14.66,14.66,0,0,1,2.1,23.08ZM4,28.52H4q.61,1.43,1.29,2.73v0a4.38,4.38,0,0,0,.52,0c1.67,0,3.35-1.2,5-1.2s3.35,1.2,5,1.2l.29,0v0c.45-.87.89-1.77,1.3-2.71v0a5.45,5.45,0,0,1-1.57.27c-1.68,0-3.36-1.19-5-1.19s-3.36,1.19-5,1.19A6,6,0,0,1,4,28.52Zm2.6,5.07h0c.43.7.87,1.38,1.32,2a9.43,9.43,0,0,1,2.91-.73,8.66,8.66,0,0,1,2.71.66l0,.07q.69-1,1.35-2.07c-1.34-.3-2.68-1.06-4-1.06S8,33.32,6.58,33.59Zm2.74,3.94h0c.45.58.9,1.12,1.36,1.64h0c.47-.53.94-1.1,1.41-1.7a5.15,5.15,0,0,0-1.28-.19,5.47,5.47,0,0,0-1.49.25Zm5.78-4.44h0l.12-.21Z"/></g></g></g></svg>