<svg xmlns="http://www.w3.org/2000/svg" width="376.079" height="376.102" viewBox="0 0 376.079 376.102">
  <g id="Artificial_intelligence-pana" data-name="Artificial intelligence-pana" transform="translate(-33.73 -31.17)">
    <g id="freepik--background-complete--inject-16" transform="translate(57.251 126.583)">
      <path id="Path_534" data-name="Path 534" d="M362.909,181.4a15.682,15.682,0,0,1,2.958-3.036l-.716-3.873,5.977-2.588,2.312,3.174a16.232,16.232,0,0,1,4.244-.06l2.225-3.243,6.038,2.406-.612,3.89a15.97,15.97,0,0,1,3.045,2.958l3.864-.725,2.588,5.977-3.174,2.32a15.811,15.811,0,0,1,.06,4.235l3.243,2.225-2.406,6.038-3.881-.6a15.931,15.931,0,0,1-2.958,3.036l.716,3.873-5.977,2.588-2.312-3.183a16.232,16.232,0,0,1-4.244.069l-2.225,3.234-6.038-2.4.612-3.89a15.975,15.975,0,0,1-3.045-2.958l-3.864.725-2.588-5.977,3.183-2.32a15.81,15.81,0,0,1-.06-4.235l-3.243-2.225,2.406-6.038,3.881.6Zm6.5,6.7a6.986,6.986,0,1,0,3.74-3.839A6.978,6.978,0,0,0,369.413,188.1Z" transform="translate(-101.641 -145.911)" fill="none"/>
      <path id="Path_535" data-name="Path 535" d="M371.352,189.972a1.725,1.725,0,0,1,.138-.423,5.554,5.554,0,0,1,.621-1.13,6.9,6.9,0,0,1,3.8-2.734,7.193,7.193,0,0,1,3.295-.164,7.3,7.3,0,0,1,3.4,1.665,7.189,7.189,0,0,1-5.029,12.55,7.271,7.271,0,0,1-3.614-1.13,7.073,7.073,0,0,1-2.277-2.372,6.952,6.952,0,0,1-.863-4.606,5.515,5.515,0,0,1,.328-1.242,1.865,1.865,0,0,1,.19-.414A15.947,15.947,0,0,0,371,191.7a6.9,6.9,0,0,0,.992,4.416,6.771,6.771,0,0,0,5.632,3.252,6.65,6.65,0,0,0,3.786-1.044,6.779,6.779,0,0,0,.914-10.782,6.9,6.9,0,0,0-3.2-1.6,6.668,6.668,0,0,0-3.131.1,6.969,6.969,0,0,0-3.752,2.527A11.982,11.982,0,0,0,371.352,189.972Z" transform="translate(-103.581 -147.786)" fill="#e0e0e0"/>
      <path id="Path_536" data-name="Path 536" d="M362.9,181.371h-.242l-.742-.1L359,180.854l.078-.043-2.363,6.038-.043-.129c.992.664,2.087,1.415,3.252,2.208l.069.043v.078a15.749,15.749,0,0,0,.078,4.209v.086l-.069.052-3.174,2.329.052-.2c.819,1.88,1.682,3.881,2.588,5.977l-.2-.1,3.864-.733h.112l.069.086a15.9,15.9,0,0,0,3.01,2.915l.095.069v.121c-.19,1.2-.4,2.527-.6,3.881l-.121-.216,6.038,2.4-.25.078c.69-1.009,1.449-2.122,2.225-3.243l.069-.112h.129a15.87,15.87,0,0,0,4.183-.06h.129l.078.112,2.32,3.174-.267-.069,5.977-2.588-.129.242c-.233-1.216-.474-2.536-.725-3.864v-.138l.112-.078a16.088,16.088,0,0,0,2.915-3h0l.216-.086h.241l.242.043.492.078.975.147,1.932.311-.242.138q1.216-3.071,2.406-6.038l.078.267L391.6,193l-.112-.069v-.138a16.159,16.159,0,0,0-.06-4.183v-.129l.1-.078,3.183-2.312-.069.259-2.588-5.977.224.121-3.864.716H388.3l-.078-.095a15.725,15.725,0,0,0-2.993-2.924l-.095-.069V178c.207-1.328.414-2.588.612-3.881l.121.2-6.038-2.415.207-.06c-.785,1.139-1.518,2.208-2.234,3.234l-.052.078h-.112a15.829,15.829,0,0,0-4.2,0h-.095l-.052-.069c-.863-1.164-1.587-2.208-2.3-3.191l.164.043-5.977,2.6.06-.112.69,3.873v.043h0a16.613,16.613,0,0,0-2.346,2.234l-.509.6a.949.949,0,0,1-.173.2l.147-.216c.1-.147.259-.354.483-.63a15.6,15.6,0,0,1,2.286-2.251v.069c-.207-1.052-.449-2.32-.75-3.855v-.086h.078l5.96-2.588.1-.043.06.086,2.329,3.165-.138-.052a15.648,15.648,0,0,1,4.313-.078l-.155.069,2.217-3.252.078-.112.129.052,6.038,2.389.138.06v.147c-.2,1.259-.4,2.588-.6,3.881l-.078-.181a16.025,16.025,0,0,1,3.088,2.984l-.2-.069,3.873-.724h.155l.069.155,2.588,5.969.069.155-.138.1-3.174,2.32.086-.207a16.258,16.258,0,0,1,.06,4.313l-.095-.207,3.243,2.225.147.1-.06.164q-1.19,2.976-2.406,6.038l-.06.164h-.181l-1.941-.3-.966-.155-.492-.078h-.483c.095,0-.216.095.216-.086h0a16.387,16.387,0,0,1-2.993,3.079l.078-.224c.25,1.328.492,2.648.725,3.873v.173l-.164.069-5.977,2.588-.155.078-.1-.147-2.32-3.183.207.086a15.991,15.991,0,0,1-4.313.06l.2-.086-2.225,3.234-.095.138-.155-.06-6.038-2.415-.147-.06v-.155c.216-1.354.423-2.682.621-3.881l.069.181a16.092,16.092,0,0,1-3.071-2.993l.181.06-3.864.716h-.147l-.052-.129-2.588-5.986-.052-.121.1-.069,3.191-2.312-.06.147a16.208,16.208,0,0,1,0-4.313l.052.121-3.234-2.243-.069-.052V186.9l2.441-6.038v-.052h.052l2.872.492.742.138Z" transform="translate(-101.627 -145.887)" fill="#e0e0e0"/>
      <path id="Path_537" data-name="Path 537" d="M371.308,189.954a7.136,7.136,0,0,1,.379-.768,6.931,6.931,0,1,1,1.639,8.789,7.228,7.228,0,0,1-2.639-5.857,8.244,8.244,0,0,1,.138-1.13,2.137,2.137,0,0,1,.129-.552l.078-.276v-.19h0a.233.233,0,0,0,.147.19l.267-.095a4.911,4.911,0,0,0-.319.863,6.642,6.642,0,0,0,.259,4.252,6.905,6.905,0,0,0,12.627.405,6.98,6.98,0,0,0-10.8-8.384,6.719,6.719,0,0,0-1.587,1.958c-.138.25-.224.449-.285.587s-.086.216-.086.207a.518.518,0,0,1,.043-.216,3.842,3.842,0,0,1,.25-.621,6.529,6.529,0,0,1,1.553-2.044,7.193,7.193,0,0,1,8.858-.518,7.331,7.331,0,0,1,3.131,5.606,7.418,7.418,0,0,1-.725,3.605,7.347,7.347,0,0,1-13.421-.414,7.038,7.038,0,0,1-.276-4.537,4.907,4.907,0,0,1,.362-.975l.086-.155.181.06c.155.052.172.259.155.216v.328l-.078.259c-.043.172-.086.354-.121.526a8.9,8.9,0,0,0-.129,1.061,7.116,7.116,0,0,0,.242,2.1,6.617,6.617,0,1,0,10.35-7.038A6.736,6.736,0,0,0,376.9,185.9a6.9,6.9,0,0,0-3.519,1.484,7.306,7.306,0,0,0-1.622,1.846C371.463,189.7,371.343,189.989,371.308,189.954Z" transform="translate(-103.537 -147.768)" fill="#e0e0e0"/>
      <path id="Path_538" data-name="Path 538" d="M362.868,181.291l-3.933-.63H359c-.63,1.561-1.449,3.631-2.467,6.167v-.095l3.3,2.277-.138.112-.052-.112h.181a16.044,16.044,0,0,0,.06,4.252h-.207l.06-.129.155.129-3.269,2.381v-.138L359.3,201.7l-.147-.078,3.993-.742v.267l-.164-.06.164-.216a16.1,16.1,0,0,0,3.045,2.967l-.224.172-.069-.164h.285c-.2,1.225-.414,2.588-.638,4.019l-.086-.164,6.314,2.51-.19.06,2.3-3.364.207.25-.181.078-.043-.319a15.992,15.992,0,0,0,4.244-.06l-.043.328-.181-.078.207-.259,2.406,3.3-.216-.06,6.271-2.7-.112.2c-.233-1.225-.492-2.588-.75-4.019h.362l-.069.19-.3-.216a15.887,15.887,0,0,0,2.967-3.053l.224.3-.19.078-.043-.371,4.037.638-.216.121c.785-1.958,1.647-4.14,2.519-6.348l.078.242-3.381-2.312.3-.25.086.181-.388.06a15.928,15.928,0,0,0-.069-4.235l.4.052-.078.181-.31-.25,3.295-2.406-.069.25c-.863-1.941-1.725-4.08-2.7-6.245l.233.121-4.011.759.043-.414.173.06-.25.336a15.912,15.912,0,0,0-3.036-2.941l.328-.259.069.164-.414.052c.19-1.251.405-2.631.621-4.019l.138.242-6.288-2.484.259-.086c-.707,1.044-1.492,2.2-2.286,3.347l-.267-.328.129-.06.069.423a15.785,15.785,0,0,0-4.218.078l.052-.423.121.052-.267.336-2.381-3.252.267.078-6.115,2.665.129-.25c.242,1.242.5,2.588.759,3.933h-.431v-.06l.354.25a14.577,14.577,0,0,0-2.588,2.588l-.181.233h-.112c.06,0-.207-.233-.3-.129H362.7l.388-.457c.259-.319.543-.63.819-.923a18.069,18.069,0,0,1,1.82-1.63l-.078.216c-.242-1.32-.474-2.588-.707-3.907l.423.069-.052.095-.285-.311,5.986-2.544v.414h-.138l.233-.345q1.19,1.63,2.355,3.252l-.216-.095a16.249,16.249,0,0,1,4.433-.043l-.207.086,2.277-3.3.25.336-.181.052v-.414l6.038,2.424-.267.311-.1-.181.405-.078c-.216,1.346-.423,2.674-.638,3.985l-.086-.207a16.157,16.157,0,0,1,3.2,3.122l-.216-.078,3.976-.733-.06.4-.2-.1.293-.276,2.588,5.977h-.4l.06-.224.328.224-3.278,2.381.086-.2a15.906,15.906,0,0,1,.052,4.477l-.086-.19,3.338,2.294-.31.224-.069-.233h.38q-1.229,3.105-2.406,6.038l-.285-.242.216-.121.069.362-4-.63.181-.078a16,16,0,0,1-3.122,3.209l.069-.181.742,3.985-.345-.052.112-.224.241.259-5.986,2.588v-.336l.233.069-.19.276L378,206.693l.164.069a15.9,15.9,0,0,1-4.468.06l.155-.069L371.571,210l-.181-.25.224-.069V210l-6.038-2.406.19-.216.112.19-.285.052c.233-1.466.431-2.743.63-3.985l.052.138a16.276,16.276,0,0,1-3.183-3.1l.138.052-3.968.742.043-.25.173.095-.181.164-2.588-5.969h.216l-.043.173-.181-.129,3.243-2.363-.043.1a16.019,16.019,0,0,1-.06-4.382v.086l-3.3-2.26.121-.095.043.121h-.155l2.4-6.038.069.06h-.069v-.095l3.89.6a5.89,5.89,0,0,1-.966-.095l-2.933-.4h-.147l.129-.069.069-.043.121-.069-.052.129c-.569,1.492-1.32,3.45-2.346,6.038l-.078.216-.069-.216v-.121l-.069-.224.19.129L360,188.8h.052v.052a16.112,16.112,0,0,0,.086,4.313v.069h-.052l-3.234,2.381-.267.2.086-.319.052-.173.086-.319.129.3c.776,1.794,1.613,3.709,2.588,5.96l.155.345-.328-.173-.181-.095-.328-.173.371-.069,3.959-.75h.086l.052.06a15.526,15.526,0,0,0,3.131,3.036l.078.052v.086l-.612,3.985-.069.431-.216-.38-.112-.19-.216-.38.405.164,6.038,2.389.431.172-.448.129-.216.069-.449.138.267-.38,2.277-3.347.06-.086h.1a15.905,15.905,0,0,0,4.373-.078h.1l.06.086,2.389,3.269.3.414-.492-.129-.233-.069-.492-.129.466-.207,5.977-2.588.483-.216-.25.466-.112.224-.25.466-.1-.518-.742-3.985v-.121l.095-.069a15.773,15.773,0,0,0,3.053-3.14l.069-.095h.112l4,.63.561.086-.492.276-.216.129-.492.276.207-.526q1.177-2.95,2.406-6.038l.207-.535.172.552.069.233.173.561-.474-.328-3.347-2.294-.1-.069v-.129a15.769,15.769,0,0,0-.06-4.364v-.121l.1-.078,3.269-2.389.483-.345-.155.578a.329.329,0,0,1-.06.224l-.164.587-.233-.561q-1.294-2.95-2.588-5.977l-.242-.552.535.285.207.1.535.293-.6.112-3.968.733h-.129l-.086-.1a15.293,15.293,0,0,0-3.114-3.036l-.1-.078v-.129c.216-1.32.423-2.648.638-3.993l.095-.612.31.543.1.181.31.543-.587-.233-6.038-2.415-.587-.233.6-.19.181-.052.6-.181-.362.518-2.277,3.312-.078.112h-.129a15.707,15.707,0,0,0-4.313,0h-.138l-.078-.112q-1.164-1.613-2.355-3.252l-.371-.509.612.164h.147l.621.173-.6.25-5.986,2.588-.586.25.3-.561.052-.1.3-.569.112.638c.233,1.294.466,2.588.707,3.907v.138l-.112.078a17.092,17.092,0,0,0-1.768,1.587c-.276.293-.543.587-.8.863l-.4.474v.043h-.052c-.086.1-.362-.138-.293-.129h0a.707.707,0,0,1,0-.129,1.337,1.337,0,0,1,.121-.25l.2-.242a14.56,14.56,0,0,1,2.588-2.674l.638-.518-.285.768v.06l-.276.75-.155-.785c-.259-1.346-.518-2.691-.759-3.933v-.173l.164-.078,6.124-2.665.164-.069.1.147,2.381,3.243.474.647-.742-.311-.121-.052-.733-.3.785-.121a16.707,16.707,0,0,1,4.313-.078l.794.095-.733.328-.129.06-.724.328.448-.656,2.286-3.347.095-.147.173.069,6.288,2.484.155.069v.173c-.216,1.389-.431,2.769-.621,4.019l-.121.768-.293-.725-.069-.164-.293-.716.621.457a16.57,16.57,0,0,1,3.122,3.027l.474.612-.725-.276-.172-.06-.725-.276.759-.138,4.011-.75h.173l.069.155,2.691,6.253.069.155-.138.095-3.3,2.406-.6.44.293-.69.078-.181.285-.681.112.733a16.39,16.39,0,0,1,.06,4.313l-.086.725-.3-.664-.086-.19-.3-.664.6.414,3.372,2.312.138.095-.06.147-2.527,6.348-.06.147h-.155l-4.037-.638-.69-.112.647-.259.19-.078.638-.267-.414.561a16.526,16.526,0,0,1-3.028,3.114l-.535.414.233-.63.078-.2.241-.63.121.664c.259,1.406.518,2.795.742,4.019v.147l-.129.06-6.271,2.691-.129.06-.086-.121-2.406-3.3-.362-.509.569.242.19.078.569.242-.612.095a16.321,16.321,0,0,1-4.313.052l-.6-.078.543-.241.181-.086.552-.25-.345.5c-.811,1.182-1.613,2.337-2.312,3.364l-.078.1-.121-.052-6.314-2.527-.112-.043v-.121c.233-1.415.448-2.8.647-4.019l.086-.518.2.483.06.164.2.483-.414-.311a16.165,16.165,0,0,1-3.1-3.028l-.3-.388.466.173.155.06.466.181-.483.086-3.993.725h-.1l-.043-.095c-.931-2.191-1.82-4.261-2.639-6.2l-.043-.086.078-.06,3.286-2.363.3-.224-.147.354-.052.121-.147.354-.052-.38a16.335,16.335,0,0,1-.043-4.313l.043-.336.138.3.052.112.138.311-.276-.19-3.295-2.294-.052-.043v-.06l2.519-6.141h0l2.933.518.742.147Z" transform="translate(-101.6 -145.807)" fill="#e0e0e0"/>
      <path id="Path_539" data-name="Path 539" d="M129.373,213.748a6.848,6.848,0,0,1,1.018-1.484l-.578-1.561,2.312-1.492,1.19,1.156a7.116,7.116,0,0,1,1.725-.328l.7-1.509,2.691.578v1.665a6.3,6.3,0,0,1,1.484,1.018l1.561-.578,1.5,2.312-1.164,1.19a7.046,7.046,0,0,1,.328,1.768l1.509.69-.578,2.7h-1.656a6.848,6.848,0,0,1-1.018,1.484l.569,1.561-2.251,1.544-1.19-1.156a7.047,7.047,0,0,1-1.725.328l-.7,1.509-2.7-.578V222.9a6.5,6.5,0,0,1-1.475-1.018l-1.57.578-1.544-2.312,1.156-1.19a7.117,7.117,0,0,1-.328-1.768l-1.509-.7.578-2.691h1.665Zm3.183,2.329a2.958,2.958,0,1,0,3.51-2.268,2.958,2.958,0,0,0-3.51,2.268Z" transform="translate(-70.091 -150.965)" fill="#e0e0e0"/>
      <path id="Path_540" data-name="Path 540" d="M133.4,216.9a2.208,2.208,0,0,1,.216-.7,2.933,2.933,0,0,1,1.389-1.406,3.105,3.105,0,0,1,1.363-.3,3.01,3.01,0,0,1,1.527.457,2.735,2.735,0,0,1,.664.561,2.7,2.7,0,0,1,.5.759,3.1,3.1,0,0,1,.207,1.88,3.019,3.019,0,0,1-.957,1.63,2.821,2.821,0,0,1-.759.5,3.036,3.036,0,0,1-.863.241,3.1,3.1,0,0,1-1.578-.216,2.9,2.9,0,0,1-1.113-.863,2.959,2.959,0,0,1-.707-1.846,2.26,2.26,0,0,1,.095-.733v.725a2.967,2.967,0,0,0,.725,1.777,2.829,2.829,0,0,0,1.078.776,3.027,3.027,0,0,0,1.509.19,2.976,2.976,0,0,0,.794-.233,2.794,2.794,0,0,0,.716-.474,2.838,2.838,0,0,0,.707-3.321,2.665,2.665,0,0,0-.466-.725,2.794,2.794,0,0,0-.621-.535,2.889,2.889,0,0,0-1.458-.44,2.924,2.924,0,0,0-2.682,1.6C133.462,216.655,133.428,216.905,133.4,216.9Z" transform="translate(-70.938 -151.784)" fill="#e0e0e0"/>
      <path id="Path_541" data-name="Path 541" d="M129.367,213.728H127.7c-.147.69-.328,1.6-.561,2.691h0l1.518.69h0a6.9,6.9,0,0,0,.336,1.725h0l-1.121,1.294v-.078c.466.733.975,1.5,1.5,2.312H129.3l1.561-.578h0a6.656,6.656,0,0,0,1.466,1.009h0V224.5l-.06-.069,2.7.569-.095.043.7-1.509v-.043h.052a6.772,6.772,0,0,0,1.725-.319h.052l1.19,1.164h-.1l2.312-1.492v.095l-.578-1.561v-.052h0a6.624,6.624,0,0,0,1.009-1.458h0v-.052h1.708l-.078.069c.19-.914.388-1.811.569-2.7l.052.095-1.509-.7h-.052v-.052a6.544,6.544,0,0,0-.319-1.725v-.052h0q.6-.6,1.164-1.19v.1c-.509-.794-1.009-1.561-1.5-2.312h.095l-1.561.578h-.043a6.9,6.9,0,0,0-1.458-1.009h-.043v-1.708l.052.069-2.691-.578.078-.043-.707,1.509h0a6.9,6.9,0,0,0-1.725.319h0c-.431-.423-.819-.811-1.19-1.164h.121l-2.312,1.492v-.181l.569,1.561h0a7.313,7.313,0,0,0-.811,1.078l-.173.293-.052.095a.389.389,0,0,1,.043-.1l.155-.293a6.9,6.9,0,0,1,.794-1.1h0c-.164-.423-.354-.932-.587-1.553h0c.647-.431,1.406-.932,2.3-1.509h0l1.2,1.164h-.06a6.761,6.761,0,0,1,1.777-.336h-.052c.224-.474.457-.975.7-1.509v-.043h.052l2.7.569h.052v1.656a6.9,6.9,0,0,1,1.5,1.026h-.078l1.561-.578h.06v.052c.492.75.992,1.518,1.5,2.312l.043.052h-.052l-1.156,1.2v-.086a6.53,6.53,0,0,1,.328,1.785l-.043-.069,1.509.7h.06v.069c-.181.863-.38,1.777-.569,2.691v.06h-1.725l.069-.043h0a6.624,6.624,0,0,1-1.026,1.492v-.086c.2.535.388,1.07.569,1.561v.069h-.06l-2.217,1.63-.06.043-.043-.052-1.19-1.156h.078a6.685,6.685,0,0,1-1.785.328l.069-.043-.7,1.509v.052h-.06l-2.691-.578h-.06v-1.656a6.632,6.632,0,0,1-1.492-1.035h.069l-1.561.569h-.052l-1.527-2.294v-.043h0l1.164-1.19v.06a6.79,6.79,0,0,1-.319-1.777v.043l-1.509-.707h0c.233-1.1.431-2,.587-2.682H129.4Z" transform="translate(-70.086 -150.944)" fill="#e0e0e0"/>
      <path id="Path_542" data-name="Path 542" d="M414.957,190.577a6.547,6.547,0,0,1,1.251-1.285l-.3-1.639,2.527-1.087.983,1.346a6.574,6.574,0,0,1,1.794,0l.94-1.371,2.588,1.018-.259,1.639a6.848,6.848,0,0,1,1.294,1.251l1.63-.3,1.1,2.527-1.346.983a6.9,6.9,0,0,1,0,1.794l1.371.94-1.018,2.588-1.647-.259A7.065,7.065,0,0,1,424.608,200l.3,1.639-2.519,1.035-.975-1.346a6.9,6.9,0,0,1-1.794,0l-.949,1.371-2.588-1.018.259-1.647a6.545,6.545,0,0,1-1.285-1.251l-1.639.311-1.087-2.536,1.337-.975a6.9,6.9,0,0,1,0-1.794l-1.371-.94,1.018-2.588,1.647.259Zm2.751,2.838a2.95,2.95,0,1,0,1.575-1.625A2.95,2.95,0,0,0,417.708,193.414Z" transform="translate(-109.294 -147.942)" fill="#e0e0e0"/>
      <path id="Path_543" data-name="Path 543" d="M418.528,194.2a2.235,2.235,0,0,1,.328-.656,2.916,2.916,0,0,1,1.6-1.156,3,3,0,0,1,3.39,1.3,2.778,2.778,0,0,1,.354.863,3,3,0,0,1-.112,1.88,3.044,3.044,0,0,1-1.208,1.449,2.993,2.993,0,0,1-1.725.457,3,3,0,0,1-2.864-3.416,2.087,2.087,0,0,1,.216-.7,4.91,4.91,0,0,0-.147.707,2.915,2.915,0,0,0,.414,1.872,2.951,2.951,0,0,0,.932.949,3.01,3.01,0,0,0,1.458.431,2.889,2.889,0,0,0,2.752-1.811,2.9,2.9,0,0,0-.75-3.209,2.907,2.907,0,0,0-4.269.44A6.161,6.161,0,0,0,418.528,194.2Z" transform="translate(-110.114 -148.73)" fill="#e0e0e0"/>
      <path id="Path_544" data-name="Path 544" d="M414.947,190.592h-.1l-.31-.043-1.233-.181h0c-.25.655-.6,1.518-1,2.588V192.9l1.38.94h0a6.9,6.9,0,0,0,0,1.785h0l-1.337.983v-.069l1.1,2.527h-.078L415,198.76h.043A6.727,6.727,0,0,0,416.318,200h0v.043c-.078.509-.164,1.07-.259,1.639l-.043-.078,2.588,1.009h-.095l.94-1.371h.052a7.167,7.167,0,0,0,1.768,0h.052l.983,1.346h-.1l2.536-1.087-.052.086c-.095-.518-.2-1.07-.31-1.63v-.052h.043a6.635,6.635,0,0,0,1.233-1.268h.181l1.639.259-.086.052,1.018-2.588v.1l-1.371-.94h-.043a6.8,6.8,0,0,0,0-1.777V193.7h.043l1.346-.975v.095l-1.087-2.527.086.043-1.639.3h-.043a6.675,6.675,0,0,0-1.277-1.242h0c.086-.569.181-1.113.259-1.647v.078l-2.588-1.018h.078l-.949,1.371h0a6.772,6.772,0,0,0-1.777,0h0l-.975-1.346h.06l-2.536,1.078v-.043c.121.656.216,1.19.293,1.639h0a7.154,7.154,0,0,0-.983.932l-.216.25-.069.086.06-.095.207-.267a6.707,6.707,0,0,1,.966-.949h0c-.086-.44-.19-.983-.319-1.63h0l2.527-1.1h0l.983,1.346h-.052a6.592,6.592,0,0,1,1.8,0h-.052c.293-.44.6-.863.94-1.38v-.043h.052l2.588,1.009h.052v.06l-.25,1.639v-.069a6.949,6.949,0,0,1,1.311,1.113h-.078l1.639-.311h.06v.052l1.087,2.527v.06h-.052l-1.346.975v-.078a6.763,6.763,0,0,1,0,1.82v-.078l1.371.94h.06v.069l-1.018,2.588v.06h-.069l-1.639-.259h.078a6.993,6.993,0,0,1-1.268,1.3v-.086l.31,1.63h-.06l-2.527,1.156h-.06l-.043-.052-.975-1.354h.078a6.8,6.8,0,0,1-1.82,0h.078l-.94,1.371v.052h-.06l-2.588-1.018h-.06v-.052c.095-.578.181-1.139.259-1.647v.069a6.755,6.755,0,0,1-1.3-1.268h.069l-1.639.3h-.052v-.043l-1.087-2.536v-.043h0l1.354-.975v.052a6.726,6.726,0,0,1,0-1.811v.043l-1.363-.94h0c.423-1.044.768-1.9,1.026-2.588h0l1.216.207.311.052Z" transform="translate(-109.285 -147.957)" fill="#e0e0e0"/>
      <path id="Path_545" data-name="Path 545" d="M400.375,148.754a11.505,11.505,0,0,1,2.1-2.148l-.509-2.734,4.226-1.82,1.639,2.243a11.274,11.274,0,0,1,3,0L412.373,142l4.313,1.725-.431,2.743a11,11,0,0,1,2.148,2.1l2.734-.509,1.82,4.226-2.243,1.639a11.214,11.214,0,0,1,0,2.993l2.294,1.578-1.725,4.313-2.743-.431a11.215,11.215,0,0,1-2.1,2.148l.509,2.734-4.226,1.82-1.639-2.243a11.567,11.567,0,0,1-2.993,0l-1.578,2.286-4.313-1.725.431-2.743a11.506,11.506,0,0,1-2.148-2.1l-2.734.509-1.82-4.226,2.251-1.639a11.274,11.274,0,0,1,0-3l-2.294-1.57,1.725-4.313,2.743.431Zm4.6,4.744a4.934,4.934,0,1,0,2.636-2.711,4.942,4.942,0,0,0-2.636,2.711Z" transform="translate(-107.038 -141.819)" fill="#f5f5f5"/>
      <path id="Path_546" data-name="Path 546" d="M406.354,154.817a3.759,3.759,0,0,1,.543-1.1,5,5,0,0,1,7.409-.863,4.491,4.491,0,0,1,.94,1.1,4.935,4.935,0,0,1,.6,1.4,5.054,5.054,0,0,1-2.217,5.581,4.839,4.839,0,0,1-1.4.6,4.649,4.649,0,0,1-1.449.164,5.029,5.029,0,0,1-4.157-2.467,4.882,4.882,0,0,1-.63-3.252,3.649,3.649,0,0,1,.354-1.164,6.163,6.163,0,0,0-.242,1.182,4.856,4.856,0,0,0,4.684,5.443,4.7,4.7,0,0,0,1.371-.164,4.365,4.365,0,0,0,1.32-.578,4.813,4.813,0,0,0,1.915-2.286,4.873,4.873,0,0,0,.181-2.984,4.613,4.613,0,0,0-.561-1.32,4.839,4.839,0,0,0-3.157-2.2,4.753,4.753,0,0,0-2.217.078,4.874,4.874,0,0,0-2.657,1.794C406.527,154.412,406.389,154.834,406.354,154.817Z" transform="translate(-108.42 -143.139)" fill="#f5f5f5"/>
      <path id="Path_547" data-name="Path 547" d="M400.374,148.725H400.2l-.518-.069-2.061-.3h.052c-.431,1.1-.992,2.588-1.682,4.313v-.086l2.3,1.561h.043v.052a11.539,11.539,0,0,0,.052,2.976v.052h-.043l-2.243,1.647v-.129q.863,2.01,1.829,4.226l-.121-.069,2.734-.509h.069l.043.06a11.031,11.031,0,0,0,2.13,2.061h.06v.078c-.129.863-.276,1.794-.423,2.743l-.078-.129,4.313,1.725-.155.052c.483-.716,1.026-1.5,1.57-2.294v-.069h.078a11.073,11.073,0,0,0,2.967,0h.086l.043.069,1.639,2.251-.164-.052,4.226-1.82-.086.155c-.155-.863-.328-1.794-.509-2.734V164.4l.069-.052a11.211,11.211,0,0,0,2.07-2.122h0l.052-.069h.078l2.751.431-.155.095q.862-2.174,1.725-4.313l.052.164-2.286-1.57-.069-.052v-.078a11,11,0,0,0-.043-2.967v-.086h.06l2.251-1.639-.043.164c-.621-1.44-1.225-2.855-1.82-4.226l.147.078-2.734.5h-.078l-.043-.06a10.982,10.982,0,0,0-2.13-2.07l-.052-.052V146.4c.147-.94.293-1.854.431-2.743l.078.121-4.313-1.725h.129l-1.578,2.286v.052h-.06a11.023,11.023,0,0,0-2.976,0h-.052v-.043l-1.63-2.26h.1l-4.269,1.811v-.078c.2,1.1.362,1.992.492,2.743h0a11.978,11.978,0,0,0-1.639,1.544l-.362.431c-.078.095-.112.147-.121.138l.1-.155.345-.44a10.5,10.5,0,0,1,1.622-1.587h0c-.147-.75-.319-1.639-.526-2.734v-.052h0l4.218-1.837h.06l.043.052,1.647,2.243h-.095a11.032,11.032,0,0,1,3.027-.052l-.095.043,1.57-2.3.043-.069h.086l4.313,1.725h.086v.095c-.138.863-.276,1.8-.423,2.743l-.052-.112a11.215,11.215,0,0,1,2.182,2.113l-.121-.052,2.734-.509h.095l.043.095q.863,2.053,1.829,4.226v.095l-.086.06-2.251,1.639.052-.129a11.211,11.211,0,0,1,.052,3.036l-.06-.129,2.294,1.57.086.069v.1q-.863,2.1-1.725,4.313l-.043.1h-.112l-2.751-.431.138-.06h0a11.291,11.291,0,0,1-2.122,2.174l.052-.138c.181.94.354,1.872.509,2.734v.112h-.1l-4.226,1.82h-.1l-.069-.086-1.63-2.251.129.052a11.6,11.6,0,0,1-3.036,0l.121-.06L406.67,169l-.06.086h-.095l-4.313-1.725-.095-.043v-.095c.155-.957.3-1.9.431-2.743l.052.112a11.3,11.3,0,0,1-2.174-2.122l.121.043-2.743.509h-.086v-.086l-1.811-4.226v-.078h.069L398.218,157v.095a11.525,11.525,0,0,1,0-3.027v.078l-2.286-1.578h-.052v-.052c.7-1.725,1.285-3.174,1.725-4.27h0l2.036.345.518.095Z" transform="translate(-107.037 -141.79)" fill="#f5f5f5"/>
      <path id="Path_548" data-name="Path 548" d="M170.972,376.873v-17.19c0-11.006-.052-26.868-.086-46.335l.172.173-109.8.052h0l.224-.224v63.525l-.207-.207,78.973.1,22.684.052h.052l-22.633.06-79.111.095H61V313.02h.233l109.8.052h.173v.173c0,19.51-.069,35.415-.095,46.438,0,5.494,0,9.764-.043,12.679v3.295A6.716,6.716,0,0,1,170.972,376.873Z" transform="translate(-61 -165.33)" fill="#e0e0e0"/>
      <path id="Path_549" data-name="Path 549" d="M171.063,322.283c0,.121-24.565.224-54.857.224s-54.857-.1-54.857-.224,24.556-.233,54.857-.233S171.063,322.154,171.063,322.283Z" transform="translate(-61.048 -166.571)" fill="#e0e0e0"/>
      <rect id="Rectangle_35" data-name="Rectangle 35" width="33.915" height="33.915" transform="translate(9.678 166.183)" fill="#f5f5f5"/>
      <path id="Path_550" data-name="Path 550" d="M171.435,340.97a3.058,3.058,0,0,1-.492.043l-1.432.043-5.261.069-17.354.069-17.363-.069-5.261-.069-1.432-.043a3.279,3.279,0,0,1-.5-.043,1.922,1.922,0,0,1,.5-.052h1.432l5.261-.078,17.363-.06,17.354.06,5.261.078h1.432a1.8,1.8,0,0,1,.492.052Z" transform="translate(-69.433 -169.146)" fill="#e0e0e0"/>
      <path id="Path_551" data-name="Path 551" d="M172.53,349.694a1.8,1.8,0,0,1-.509,0l-1.458.043-5.382.069-17.742.069-17.751-.069-5.374-.069-1.466-.043a1.865,1.865,0,0,1-.509,0,1.859,1.859,0,0,1,.509-.043l1.466-.043,5.374-.069,17.751-.069,17.742.069,5.382.069,1.458.043a1.8,1.8,0,0,1,.509.043Z" transform="translate(-69.433 -170.34)" fill="#e0e0e0"/>
      <path id="Path_552" data-name="Path 552" d="M172.53,358.481a1.959,1.959,0,0,1-.509.052l-1.458.043-5.382.069-17.742.06-17.751-.06-5.374-.069-1.466-.043a2.036,2.036,0,0,1-.509-.052,3.5,3.5,0,0,1,.509-.043h1.466l5.374-.069,17.751-.069,17.742.069,5.382.069h1.458A3.321,3.321,0,0,1,172.53,358.481Z" transform="translate(-69.433 -171.554)" fill="#e0e0e0"/>
      <path id="Path_553" data-name="Path 553" d="M172.53,367.264a2.327,2.327,0,0,1-.509.043h-1.458l-5.382.069-17.742.069-17.751-.069-5.374-.069h-1.466a2.425,2.425,0,0,1-.509-.043,1.863,1.863,0,0,1,.509-.043l1.466-.043,5.374-.078,17.751-.06,17.742.06,5.382.078,1.458.043a1.792,1.792,0,0,1,.509.043Z" transform="translate(-69.433 -172.756)" fill="#e0e0e0"/>
      <path id="Path_554" data-name="Path 554" d="M388.835,437.373c-.656-2.588,1.07-5.236,3.01-7.116s4.235-3.579,5.253-6.081c1.639-4.054-.509-9.333,2.277-12.7,1.639-1.984,4.563-2.639,6.038-4.761a10.73,10.73,0,0,0,1.32-3.8,38.813,38.813,0,0,1,9.7-17.906,33.639,33.639,0,0,1-3.873,17.337c-1.13,2.122-2.519,4.192-2.907,6.572-.621,3.856,1.509,7.849.543,11.644-1.113,4.313-6.038,7.2-6.262,11.67-.216,3.778,3.053,7.107,2.795,10.885a10.35,10.35,0,0,1-1.725,4.468c-2.95,4.839-7.254,8.151-13.757,8.013l-7.97.233Z" transform="translate(-105.305 -175.225)" fill="#ebebeb"/>
      <path id="Path_555" data-name="Path 555" d="M376.991,451.393a6.339,6.339,0,0,1-2.191-.06,13.612,13.612,0,0,1-2.588-.664,11,11,0,0,1-3.183-1.725,4.381,4.381,0,0,1-1.3-1.725,7.988,7.988,0,0,1-.362-2.381,24.271,24.271,0,0,0-.173-2.588,7.237,7.237,0,0,0-.957-2.588c-.932-1.647-2.484-3.217-2.976-5.46a18.811,18.811,0,0,1,.259-6.986c.388-2.4.759-4.985-.147-7.478s-2.588-4.753-3.45-7.564-.431-5.891-.6-8.9a11.652,11.652,0,0,0-1.009-4.425c-.638-1.415-1.527-2.751-2.217-4.235-1.389-3.01-1.622-6.409-1.992-9.747-.173-1.682-.354-3.372-.543-5.089a24.221,24.221,0,0,0-.863-5.1,45.949,45.949,0,0,0-1.872-4.942,15.455,15.455,0,0,1-.914-2.588,27.249,27.249,0,0,1-.241-2.734,32.783,32.783,0,0,1,.242-5.512c.233-1.837.569-3.657.776-5.5a.818.818,0,0,1,.043-.319l.043-.362.319.164a12.291,12.291,0,0,1,4.27,3.64,19.664,19.664,0,0,1,2.588,4.873,60.588,60.588,0,0,1,2.424,10.437,28.092,28.092,0,0,0,3.269,9.591c.862,1.423,1.915,2.726,2.829,4.114a11.213,11.213,0,0,1,1.949,4.554c.449,3.364-1.423,6.314-1.052,9.3a10.351,10.351,0,0,0,1.432,4.14c.716,1.277,1.561,2.467,2.355,3.657a23.516,23.516,0,0,1,2.122,3.683,11.739,11.739,0,0,1,.949,4c.181,2.682-.216,5.227,0,7.633a17.476,17.476,0,0,0,1.923,6.555c.949,1.967,2.018,3.743,2.9,5.468a28.031,28.031,0,0,1,1.2,2.588,12.16,12.16,0,0,1,.681,2.519,16.1,16.1,0,0,1,0,4.546,11.48,11.48,0,0,1-2.312,5.788,5.1,5.1,0,0,1-.647.69,3.076,3.076,0,0,1-.526.44l-.457.319a10.582,10.582,0,0,0,1.553-1.518,11.54,11.54,0,0,0,2.191-5.745,15.413,15.413,0,0,0-.078-4.477,12.3,12.3,0,0,0-.69-2.467,27.4,27.4,0,0,0-1.2-2.51c-.863-1.725-1.967-3.45-2.941-5.451a17.853,17.853,0,0,1-1.992-6.676c-.2-2.458.19-5.011,0-7.633a11.333,11.333,0,0,0-.94-3.864,23.169,23.169,0,0,0-2.087-3.614c-.8-1.182-1.656-2.372-2.389-3.674a10.763,10.763,0,0,1-1.5-4.313c-.362-3.174,1.492-6.141,1.035-9.281a10.817,10.817,0,0,0-1.889-4.313c-.862-1.363-1.949-2.665-2.846-4.123a28.877,28.877,0,0,1-3.286-9.816,59.416,59.416,0,0,0-2.406-10.35,18.9,18.9,0,0,0-2.536-4.744,11.833,11.833,0,0,0-4.088-3.493l.371-.2v.319c-.207,1.863-.552,3.683-.776,5.5a31.783,31.783,0,0,0-.242,5.425,26.23,26.23,0,0,0,.233,2.657,16.522,16.522,0,0,0,.862,2.493,45.3,45.3,0,0,1,1.889,4.994,25.15,25.15,0,0,1,.863,5.175l.543,5.1c.362,3.347.586,6.693,1.932,9.6.664,1.449,1.553,2.786,2.208,4.244a12.282,12.282,0,0,1,1.035,4.589c.155,3.079-.259,6.081.561,8.806s2.536,4.985,3.4,7.556a15.836,15.836,0,0,1,.121,7.668c-.4,2.381-.794,4.727-.293,6.848s1.949,3.7,2.9,5.4a7.184,7.184,0,0,1,.975,2.665,23.138,23.138,0,0,1,.155,2.588,7.874,7.874,0,0,0,.328,2.312,4.175,4.175,0,0,0,1.225,1.682,10.693,10.693,0,0,0,3.105,1.777,13.228,13.228,0,0,0,2.588.707,9.028,9.028,0,0,0,1.613.164Z" transform="translate(-100.68 -170.787)" fill="#e0e0e0"/>
      <path id="Path_556" data-name="Path 556" d="M352.8,358.19a.793.793,0,0,1,.069.242c.052.19.1.423.172.716.155.63.336,1.578.63,2.76s1.018,2.519,1.63,4.166,1.277,3.536,1.863,5.667,1.121,4.485,1.665,7.012a29.509,29.509,0,0,0,2.51,7.763c.638,1.294,1.371,2.588,1.941,4.045a18.468,18.468,0,0,1,1.121,4.571,94.859,94.859,0,0,0,1.665,9.643l4.4,18.432c1.389,5.641,2.639,10.738,3.692,15.025s1.854,7.7,2.441,10.143l.638,2.76q.095.44.155.724a.792.792,0,0,1,0,.25,1.147,1.147,0,0,1-.086-.242l-.181-.69c-.172-.664-.423-1.578-.724-2.743-.63-2.424-1.518-5.865-2.588-10.1s-2.372-9.367-3.8-15-2.864-11.894-4.442-18.432a91.788,91.788,0,0,1-1.656-9.686,18.331,18.331,0,0,0-1.078-4.459c-.561-1.406-1.277-2.708-1.915-4.019a29.628,29.628,0,0,1-2.5-7.909c-.526-2.536-1.035-4.891-1.6-7.012s-1.173-4.019-1.777-5.658a42.746,42.746,0,0,1-1.553-4.218c-.285-1.225-.414-2.148-.543-2.795a3.5,3.5,0,0,0-.121-.725,1.093,1.093,0,0,1-.026-.233Z" transform="translate(-101.115 -171.539)" fill="#e0e0e0"/>
      <path id="Path_557" data-name="Path 557" d="M378.857,447.437c-5.175-3.122-6.624-12.515-4.425-18.113s6.038-10.782,6.65-16.8c.474-4.623-1.009-9.384.095-13.9,1.484-6.1,7.478-10.79,7.444-17.069,0-3.519-2-6.849-1.829-10.35.224-4.313,3.554-7.72,5.632-11.506,3.174-5.8,3.45-12.679,4.528-19.2s3.64-13.5,9.436-16.673c.862,5.546,2.26,9.35,1.725,16.854-.181,2.691-3.338,7.832-3.8,13.74-.276,3.528-.474,7.064-.707,10.592s-.474,6.943-1.725,10.152c-.957,2.458-2.493,4.684-3.209,7.228-1.346,4.778.362,9.979-.733,14.818-.923,4.106-3.786,7.625-4.39,11.791-.863,5.848,2.9,11.955.932,17.527-.983,2.769-3.269,4.977-3.933,7.84-.518,2.217,0,4.571-.448,6.8-.75,3.588-7.625,6.572-11.282,6.331" transform="translate(-103.952 -166.814)" fill="#e0e0e0"/>
      <path id="Path_558" data-name="Path 558" d="M405.789,330.13a1.39,1.39,0,0,1,0,.311,8.709,8.709,0,0,1-.121.914c-.121.794-.259,1.975-.543,3.493s-1.1,3.235-1.725,5.3-1.354,4.451-1.949,7.116-1.121,5.615-1.665,8.789a36.132,36.132,0,0,1-2.717,9.936c-.742,1.665-1.57,3.321-2.191,5.089a23.089,23.089,0,0,0-1.13,5.615,113.576,113.576,0,0,1-1.6,12.075l-4.658,23.185c-1.492,7.081-2.846,13.455-3.976,18.829s-2.079,9.634-2.691,12.645l-.768,3.45c-.086.371-.155.673-.216.863a4.357,4.357,0,0,0-.086.535,3,3,0,0,1,0-.543l.164-.906c.164-.862.388-1.984.673-3.45.612-3.045,1.492-7.375,2.588-12.722s2.415-11.756,3.864-18.846S390,396.9,391.635,388.7a116.765,116.765,0,0,0,1.6-12.075,23.541,23.541,0,0,1,1.164-5.727c.647-1.8,1.484-3.45,2.225-5.115a36.707,36.707,0,0,0,2.734-9.816c.578-3.157,1.1-6.133,1.725-8.806s1.328-5.054,2.027-7.116,1.5-3.778,1.82-5.261.474-2.682.638-3.45c.069-.371.121-.673.173-.863a1.293,1.293,0,0,1,.052-.336Z" transform="translate(-104.819 -167.682)" fill="#fafafa"/>
    </g>
    <g id="freepik--Floor--inject-16" transform="translate(36.447 406.732)">
      <path id="Path_559" data-name="Path 559" d="M404.524,466.814c0,.121-82.311.224-183.813.224s-183.83-.095-183.83-.224,82.294-.224,183.83-.224S404.524,466.685,404.524,466.814Z" transform="translate(-36.88 -466.59)" fill="#263238"/>
    </g>
    <g id="freepik--Character--inject-16" transform="translate(107.307 93.775)">
      <path id="Path_560" data-name="Path 560" d="M267.166,432.411a.362.362,0,1,1,.052.638.38.38,0,0,1-.052-.638" transform="translate(-139.377 -148.927)" fill="#fff"/>
      <path id="Path_561" data-name="Path 561" d="M345.491,137.07l13.231,5.951s-20.7,29.455-24.936,34.2S287.822,187.9,287.822,187.9L285.83,170.45l35.571-6.038Z" transform="translate(-141.964 -108.334)" fill="#ff6262"/>
      <path id="Path_562" data-name="Path 562" d="M337.59,182.931c-.078,0-.172-1.052-.621-2.674a18.619,18.619,0,0,0-1.018-2.769,21.559,21.559,0,0,0-1.829-3.105,20.7,20.7,0,0,0-2.406-2.691,17.889,17.889,0,0,0-2.32-1.82c-1.406-.932-2.381-1.337-2.346-1.406s.259.052.707.224a11.79,11.79,0,0,1,1.811.914A16.8,16.8,0,0,1,332,171.382a19.836,19.836,0,0,1,2.484,2.734,18.318,18.318,0,0,1,1.837,3.209,16.06,16.06,0,0,1,.957,2.855,11.673,11.673,0,0,1,.31,2A2.13,2.13,0,0,1,337.59,182.931Z" transform="translate(-147.63 -112.647)" fill="#fff"/>
      <path id="Path_563" data-name="Path 563" d="M330.557,177.52a8.686,8.686,0,0,1-1.328.449c-.863.267-2.122.63-3.674,1.052-3.114.863-7.435,1.915-12.256,2.933s-9.212,1.768-12.395,2.251c-1.6.242-2.889.414-3.787.518a8.346,8.346,0,0,1-1.4.121,8.245,8.245,0,0,1,1.371-.293l3.761-.664c3.165-.552,7.547-1.363,12.36-2.372s9.134-2.036,12.265-2.8l3.709-.906A7.253,7.253,0,0,1,330.557,177.52Z" transform="translate(-143.323 -113.894)" fill="#fff"/>
      <path id="Path_564" data-name="Path 564" d="M355.128,139.3c.095.078-5.261,6.288-11.955,13.861s-12.2,13.654-12.334,13.576,5.261-6.3,11.955-13.869S354.99,139.214,355.128,139.3Z" transform="translate(-148.151 -108.64)" fill="#fff"/>
      <path id="Path_565" data-name="Path 565" d="M339.423,163.593a.38.38,0,0,1,.552.267.362.362,0,1,1-.586-.25" transform="translate(-149.308 -111.974)" fill="#fff"/>
      <path id="Path_566" data-name="Path 566" d="M314.3,179.872a.371.371,0,0,1,.552.267.362.362,0,1,1-.578-.25" transform="translate(-145.854 -114.211)" fill="#fff"/>
      <path id="Path_567" data-name="Path 567" d="M326.386,177.193a.351.351,0,1,1,.052.63.371.371,0,0,1-.086-.6" transform="translate(-147.518 -113.843)" fill="#fff"/>
      <path id="Path_568" data-name="Path 568" d="M346.273,155.9a.371.371,0,0,1,.552.267.362.362,0,1,1-.578-.25" transform="translate(-150.249 -110.916)" fill="#fff"/>
      <path id="Path_569" data-name="Path 569" d="M353.456,147.76a.362.362,0,1,1,.052.63.371.371,0,0,1-.052-.63" transform="translate(-151.239 -109.795)" fill="#fff"/>
      <g id="Group_15" data-name="Group 15" transform="translate(153.034 57.507)" opacity="0.3">
        <path id="Path_570" data-name="Path 570" d="M320.783,170.714c.095.612-5.27,1.992-11.981,3.079s-12.248,1.466-12.343.863,5.261-1.984,11.981-3.071S320.68,170.1,320.783,170.714Z" transform="translate(-296.459 -170.426)" fill="#fff"/>
      </g>
      <path id="Path_571" data-name="Path 571" d="M303.846,181.74a.362.362,0,1,1,.052.63.371.371,0,0,1-.052-.63" transform="translate(-144.419 -114.466)" fill="#fff"/>
      <path id="Path_572" data-name="Path 572" d="M281.5,172.727a9.488,9.488,0,0,1,10.238,3,11.989,11.989,0,0,1,2.018,10.747c-1.026,3.648-5.891,8.574-9.186,9.945" transform="translate(-141.368 -113.172)" fill="#263238"/>
      <path id="Path_573" data-name="Path 573" d="M371.649,135.651a27.218,27.218,0,0,0,2.915-4.727,9.108,9.108,0,0,0,.793-5.408,5.546,5.546,0,0,0-3.295-4.175,4.019,4.019,0,0,0-4.839,1.6l3.51-6.9c.431-.863.863-1.923.293-2.691a1.811,1.811,0,0,0-2.4-.242,5.261,5.261,0,0,0-1.6,2.079l-5.175,9.738-4.589-7.185c-.466-.725-1.13-1.553-1.984-1.415a1.535,1.535,0,0,0-1.139,1.527,4.674,4.674,0,0,0,.586,1.975c1.337,2.829,3.761,9.272,3.761,9.272Z" transform="translate(-151.354 -104.992)" fill="#ff6262"/>
      <path id="Path_574" data-name="Path 574" d="M284.94,195.924c-.069-.069,1.182-1.026,2.682-3a12.663,12.663,0,0,0,2-3.812,13.561,13.561,0,0,0,.535-5.236,19.175,19.175,0,0,0-3.062-9.057,6.572,6.572,0,0,0-1.923-2.139,5.64,5.64,0,0,0-.983-.431.776.776,0,0,1,.293,0,2.588,2.588,0,0,1,.776.267,6.417,6.417,0,0,1,2.1,2.122,18.415,18.415,0,0,1,3.243,9.2,13.567,13.567,0,0,1-.543,5.443,12.481,12.481,0,0,1-2.148,3.881,16.172,16.172,0,0,1-2.061,2.139A4.873,4.873,0,0,1,284.94,195.924Z" transform="translate(-141.738 -113.168)" fill="#455a64"/>
      <path id="Path_575" data-name="Path 575" d="M354.788,136.057a90.18,90.18,0,0,0,11.213,6.1c1.544.716,3.45,1.38,4.847.388a3.252,3.252,0,0,0,1.07-3.312,7.237,7.237,0,0,0-1.837-3.157,20.037,20.037,0,0,0-9.488-5.943,8.177,8.177,0,0,0-3.993-.311,3.838,3.838,0,0,0-2.941,2.493,3.278,3.278,0,0,0,1.1,3.743" transform="translate(-151.26 -107.321)" fill="#263238"/>
      <path id="Path_576" data-name="Path 576" d="M371.512,141.256c-.069,0-.569-1.035-1.725-2.5a16.285,16.285,0,0,0-12.662-6.236c-1.872,0-3.027.224-3.045.147a2.7,2.7,0,0,1,.8-.224,14.38,14.38,0,0,1,2.243-.241,15.525,15.525,0,0,1,12.938,6.365,12.814,12.814,0,0,1,1.182,1.923A2.414,2.414,0,0,1,371.512,141.256Z" transform="translate(-151.346 -107.663)" fill="#455a64"/>
      <path id="Path_577" data-name="Path 577" d="M269.914,246.987c.121.259-1.535,1.44-4.563,2.717a37.616,37.616,0,0,1-5.468,1.8,42.462,42.462,0,0,1-14.051,1.035,38.663,38.663,0,0,1-5.675-.975c-3.183-.819-4.994-1.725-4.908-2.018s2.061.06,5.175.457c1.57.207,3.45.371,5.529.466a61.964,61.964,0,0,0,6.754-.1,62.627,62.627,0,0,0,6.7-.863c2.044-.405,3.873-.863,5.4-1.277C267.879,247.332,269.768,246.668,269.914,246.987Z" transform="translate(-135.01 -123.433)" fill="#263238"/>
      <path id="Path_578" data-name="Path 578" d="M269.129,252.47c.095.285-1.5,1.156-4.27,2.07a49.086,49.086,0,0,1-22.581,1.639c-2.872-.5-4.58-1.139-4.528-1.423.121-.655,7.142.345,15.75-.311S268.922,251.841,269.129,252.47Z" transform="translate(-135.354 -124.181)" fill="#263238"/>
      <path id="Path_579" data-name="Path 579" d="M233.431,105.053s-28.463,5.261-28.1,30.749,24.461,21.2,31.465,20.3c3.174-.405,9.488-1.3,15.465-2.165,12.653-1.829,22.1-7.987,22.848-20.752a23,23,0,0,0-.155-4.485C273.184,115.231,260.6,99.015,233.431,105.053Z" transform="translate(-130.896 -103.753)" fill="#ff6262"/>
      <path id="Path_580" data-name="Path 580" d="M266.374,132.667l-36.321,7.7a7.047,7.047,0,0,1-8.358-5.425h0a7.055,7.055,0,0,1,5.434-8.358l36.321-7.711a7.055,7.055,0,0,1,8.358,5.434h0a7.047,7.047,0,0,1-5.434,8.358Z" transform="translate(-133.126 -105.811)" fill="#263238"/>
      <circle id="Ellipse_20" data-name="Ellipse 20" cx="2.26" cy="2.26" r="2.26" transform="translate(99.576 24.657)" fill="#fff"/>
      <circle id="Ellipse_21" data-name="Ellipse 21" cx="2.26" cy="2.26" r="2.26" transform="translate(124.951 19.257)" fill="#fff"/>
      <path id="Path_581" data-name="Path 581" d="M248.73,118.771a23.78,23.78,0,0,1-1.216-2.588,25.316,25.316,0,0,0-3.528-5.788,12.722,12.722,0,0,0-5.33-4,20.966,20.966,0,0,0-2.726-.69,1.993,1.993,0,0,1,.768,0,8.625,8.625,0,0,1,2.061.414,12.213,12.213,0,0,1,5.572,4.019,22.236,22.236,0,0,1,3.45,5.943c.328.863.569,1.492.725,1.958A2.588,2.588,0,0,1,248.73,118.771Z" transform="translate(-135.104 -104.016)" fill="#fff"/>
      <path id="Path_582" data-name="Path 582" d="M251.83,160.079c-.06-.052.759-.863,1.725-2.337a15.957,15.957,0,0,0,2.5-6.486,27.462,27.462,0,0,0-.06-7.021,23,23,0,0,1-.388-2.924,3.275,3.275,0,0,1,.242.759c.121.5.285,1.216.457,2.113a23.591,23.591,0,0,1,.19,7.133,14.844,14.844,0,0,1-2.683,6.607,13.345,13.345,0,0,1-1.406,1.647A2.769,2.769,0,0,1,251.83,160.079Z" transform="translate(-137.289 -108.916)" fill="#fff"/>
      <g id="Group_16" data-name="Group 16" transform="translate(88.104 36.686)" opacity="0.3">
        <path id="Path_583" data-name="Path 583" d="M274.053,149.7a22.908,22.908,0,0,0-11.075-3.372,55.539,55.539,0,0,0-11.644.8c-8.919,1.346-18.053,3.45-25.272,8.85a13.93,13.93,0,0,0-4.882,5.736s3.83,1.578,11.472,1.07,23.4-3.252,23.4-3.252,8.065-1.363,12.619-4.77S274.053,149.7,274.053,149.7Z" transform="translate(-221.18 -146.287)"/>
      </g>
      <path id="Path_584" data-name="Path 584" d="M273.6,123.291a5.608,5.608,0,0,1,.319,1.311,8.134,8.134,0,0,1-.345,3.838,8.85,8.85,0,0,1-3.856,4.658,24.454,24.454,0,0,1-7.659,2.588l-20.554,4.537-5.943,1.294c-2.027.414-4.08.957-6.245,1.233a9.755,9.755,0,0,1-6.486-1.1,9.35,9.35,0,0,1-4-5.468,9.22,9.22,0,0,1,.785-6.728A10.066,10.066,0,0,1,224.48,125a17.577,17.577,0,0,1,3.105-.863l3.062-.716,5.917-1.38,10.954-2.588c3.45-.733,6.581-1.725,9.531-2.294a31.166,31.166,0,0,1,4.244-.578,16.388,16.388,0,0,1,3.83.129,12.076,12.076,0,0,1,5.624,2.355,8.436,8.436,0,0,1,2.389,3.01,6.175,6.175,0,0,1,.371.94,1.994,1.994,0,0,1,.095.328,10.223,10.223,0,0,0-.543-1.225,8.626,8.626,0,0,0-2.424-2.924,11.98,11.98,0,0,0-5.546-2.234,16.438,16.438,0,0,0-3.769-.095,31.909,31.909,0,0,0-4.209.6c-2.924.6-6.038,1.6-9.488,2.346L236.676,122.4l-5.917,1.406-3.062.716a16.977,16.977,0,0,0-3.027.863,9.686,9.686,0,0,0-4.649,4.261,8.754,8.754,0,0,0-.75,6.4,8.9,8.9,0,0,0,3.8,5.175,9.41,9.41,0,0,0,6.2,1.052c2.113-.276,4.175-.811,6.2-1.225l5.951-1.277L262,135.367a24.358,24.358,0,0,0,7.6-2.493,8.625,8.625,0,0,0,3.821-4.5,8.409,8.409,0,0,0,.423-3.769C273.73,123.74,273.575,123.3,273.6,123.291Z" transform="translate(-132.71 -105.509)" fill="#fff"/>
      <path id="Path_585" data-name="Path 585" d="M205.79,144.927a6.211,6.211,0,0,1,1.389-1.216,24.824,24.824,0,0,1,7.961-3.907,6.451,6.451,0,0,1,1.8-.354c.043.138-2.682.863-5.762,2.355S205.876,145.039,205.79,144.927Z" transform="translate(-130.96 -108.661)" fill="#fff"/>
      <path id="Path_586" data-name="Path 586" d="M240.057,109.39a.362.362,0,1,1,.052.63.38.38,0,0,1-.052-.63" transform="translate(-135.651 -104.52)" fill="#fff"/>
      <path id="Path_587" data-name="Path 587" d="M245.288,117.04a.362.362,0,1,1,.052.63.388.388,0,0,1-.052-.63" transform="translate(-136.371 -105.571)" fill="#fff"/>
      <path id="Path_588" data-name="Path 588" d="M213.616,138.442a.353.353,0,1,1,.052.63.38.38,0,0,1-.078-.612" transform="translate(-132.016 -108.515)" fill="#fff"/>
      <path id="Path_589" data-name="Path 589" d="M207.076,141.991a.362.362,0,1,1,.052.638.379.379,0,0,1-.078-.612" transform="translate(-131.117 -109.002)" fill="#fff"/>
      <g id="Group_17" data-name="Group 17" transform="translate(77.091 1.59)" opacity="0.3">
        <path id="Path_590" data-name="Path 590" d="M241.549,105.72c.069.328-2.493,1.052-6.538,2.355a53.1,53.1,0,0,0-14.758,6.9,30.025,30.025,0,0,0-6.3,6.184,25.1,25.1,0,0,0-3.45,6.331c-1.415,3.9-1.233,6.6-1.622,6.607-.138,0-.345-.647-.449-1.88a16.267,16.267,0,0,1,.552-5.175,22.787,22.787,0,0,1,3.286-7.055,28.231,28.231,0,0,1,6.667-6.805,37.953,37.953,0,0,1,8.332-4.451,50.25,50.25,0,0,1,7.314-2.191C238.823,105.617,241.488,105.436,241.549,105.72Z" transform="translate(-208.412 -105.597)" fill="#fff"/>
      </g>
      <g id="Group_18" data-name="Group 18" transform="translate(78.42 37.077)" opacity="0.3">
        <path id="Path_591" data-name="Path 591" d="M214.246,152.312c-.379.483-2.018-.19-3.226-1.88s-1.3-3.45-.725-3.666,1.544.957,2.588,2.363S214.634,151.82,214.246,152.312Z" transform="translate(-209.952 -146.74)" fill="#fff"/>
      </g>
      <path id="Path_592" data-name="Path 592" d="M273.635,168.824c1.725.492,1.622,25.47,1.251,38.219-.2,6.831-.707,13.964-4.192,19.838a23.92,23.92,0,0,1-18.872,11.213c-9.134.621-18.173-3.8-24.427-10.506S217.433,212.14,215.44,203.2s-2.381-18.113-2.76-27.316C212.68,175.914,242.282,159.983,273.635,168.824Z" transform="translate(-131.907 -112.332)" fill="#ff6262"/>
      <g id="Group_19" data-name="Group 19" transform="translate(82.141 67.11)" opacity="0.2">
        <path id="Path_593" data-name="Path 593" d="M214.287,190.108a67.338,67.338,0,0,0,3.8,24.065,44.4,44.4,0,0,0,13.628,19.321,41.844,41.844,0,0,0,6.038,3.761,26.406,26.406,0,0,0,5.615,2.13c3.217.923,5.106-3.062,5.736-6.348a12.141,12.141,0,0,0-2.588-9.41,28.015,28.015,0,0,0-7.564-6.512,88.778,88.778,0,0,1-8.349-5.555,38.641,38.641,0,0,1-10.221-13.74,115.936,115.936,0,0,1-5.77-16.259" transform="translate(-214.267 -181.56)"/>
      </g>
      <path id="Path_594" data-name="Path 594" d="M238.746,230.993a.388.388,0,0,1,.561.276.379.379,0,0,1-.509.354.371.371,0,0,1-.078-.6" transform="translate(-135.471 -121.239)" fill="#fff"/>
      <path id="Path_595" data-name="Path 595" d="M251.586,230.461a.362.362,0,1,1,.052.638.38.38,0,0,1-.086-.612" transform="translate(-137.235 -121.164)" fill="#fff"/>
      <path id="Path_596" data-name="Path 596" d="M265.6,217.222a.371.371,0,0,1,.552.267.362.362,0,1,1-.578-.25" transform="translate(-139.159 -119.346)" fill="#fff"/>
      <path id="Path_597" data-name="Path 597" d="M259.166,184.493a.38.38,0,0,1,.552.276.388.388,0,0,1-.5.362.38.38,0,0,1-.086-.612" transform="translate(-138.277 -114.847)" fill="#fff"/>
      <path id="Path_598" data-name="Path 598" d="M272.3,189.862a.371.371,0,0,1,.552.267.362.362,0,1,1-.587-.25" transform="translate(-140.08 -115.584)" fill="#fff"/>
      <path id="Path_599" data-name="Path 599" d="M224.206,227.183a.351.351,0,1,1,.052.63.371.371,0,0,1-.086-.6" transform="translate(-133.471 -120.716)" fill="#fff"/>
      <path id="Path_600" data-name="Path 600" d="M222.086,216.293a.351.351,0,1,1,.052.63.371.371,0,0,1-.086-.6" transform="translate(-133.179 -119.219)" fill="#fff"/>
      <path id="Path_601" data-name="Path 601" d="M221.156,206.433a.379.379,0,0,1,.552.276.371.371,0,0,1-.5.354.38.38,0,0,1-.078-.612" transform="translate(-133.052 -117.863)" fill="#fff"/>
      <path id="Path_602" data-name="Path 602" d="M220.226,195.993a.351.351,0,1,1,.052.63.371.371,0,0,1-.086-.6" transform="translate(-132.924 -116.428)" fill="#fff"/>
      <path id="Path_603" data-name="Path 603" d="M280.106,187.3a.362.362,0,1,1,.052.63.371.371,0,0,1-.052-.63" transform="translate(-141.156 -115.23)" fill="#fff"/>
      <path id="Path_604" data-name="Path 604" d="M267.743,229.482a.371.371,0,0,1,.552.267.362.362,0,1,1-.578-.25" transform="translate(-139.454 -121.031)" fill="#fff"/>
      <path id="Path_605" data-name="Path 605" d="M269.157,239.82a.362.362,0,1,1,.052.63.38.38,0,0,1-.052-.63" transform="translate(-139.652 -122.45)" fill="#fff"/>
      <g id="Group_20" data-name="Group 20" transform="translate(83.687 63.094)" opacity="0.3">
        <path id="Path_606" data-name="Path 606" d="M267.234,176.987c.086.267-2.588,1.466-7.159,2.7a75.565,75.565,0,0,1-8.134,1.725,84.71,84.71,0,0,1-20.33.69,79.115,79.115,0,0,1-8.228-1.156c-4.64-.932-7.392-1.941-7.323-2.217.138-.681,11.489,1.932,25.669,1.4S267.044,176.349,267.234,176.987Z" transform="translate(-216.059 -176.904)" fill="#fff"/>
      </g>
      <path id="Path_607" data-name="Path 607" d="M235.351,235.066a5.789,5.789,0,0,1-.474-.362c-.3-.25-.733-.647-1.259-1.173a17.509,17.509,0,0,1-3.64-5.175,28.353,28.353,0,0,1-1.449-4.123c-.449-1.492-.863-3.105-1.346-4.8-.906-3.407-1.785-7.168-2.588-11.152a183.6,183.6,0,0,1-2.855-20.649c-.2-2.648-.31-4.8-.362-6.288v-1.725a4.028,4.028,0,0,1,0-.6,2.785,2.785,0,0,1,.078.6c0,.44.078,1,.129,1.725.1,1.484.267,3.631.509,6.271.509,5.287,1.4,12.584,2.984,20.537.794,3.968,1.656,7.763,2.588,11.135.44,1.725.863,3.3,1.3,4.8a29.193,29.193,0,0,0,1.371,4.1,18.115,18.115,0,0,0,3.45,5.175c.5.543.914.949,1.19,1.225A4.49,4.49,0,0,1,235.351,235.066Z" transform="translate(-133.102 -114.099)" fill="#fff"/>
      <path id="Path_608" data-name="Path 608" d="M260.858,212.1c.121,0,1.044,6.848,2.07,15.336s1.725,15.379,1.63,15.4-1.052-6.857-2.079-15.344S260.728,212.109,260.858,212.1Z" transform="translate(-138.528 -118.648)" fill="#fff"/>
      <path id="Path_609" data-name="Path 609" d="M245.8,167.21a3.27,3.27,0,0,1,.621.621c.371.414.863,1.026,1.553,1.785,1.3,1.527,3.071,3.657,5,6.038l.716.863.086.1a.293.293,0,0,1,.1.138,1.725,1.725,0,0,1,.069.19v.147c.043.19.06.371.086.552.069.725.112,1.423.147,2.087.069,1.32.095,2.519.121,3.519s0,1.811,0,2.372a3.054,3.054,0,0,1-.06.863,24.413,24.413,0,0,1-.267-3.235c-.06-1.035-.138-2.217-.216-3.5a19.352,19.352,0,0,0-.173-2.061,2.586,2.586,0,0,0-.078-.518v-.2a1.333,1.333,0,0,1-.147-.19l-.716-.863c-1.932-2.363-3.666-4.528-4.9-6.1-.621-.794-1.113-1.432-1.449-1.889A3.563,3.563,0,0,1,245.8,167.21Z" transform="translate(-136.46 -112.477)" fill="#fff"/>
      <path id="Path_610" data-name="Path 610" d="M257.3,227.19a4.736,4.736,0,0,1-1.078.224c-.707.121-1.725.259-2.976.414-2.519.319-6.038.656-9.876.863s-7.375.207-9.91.155c-1.259,0-2.286-.069-2.993-.112a5.856,5.856,0,0,1-1.1-.112,5.175,5.175,0,0,1,1.1-.069h3c2.527,0,6.038-.095,9.885-.285s7.34-.483,9.859-.716l2.984-.276A5.914,5.914,0,0,1,257.3,227.19Z" transform="translate(-134.2 -120.723)" fill="#fff"/>
      <path id="Path_611" data-name="Path 611" d="M282.216,188.559a4.2,4.2,0,0,1-.6.423,19.648,19.648,0,0,1-1.725.957,37.473,37.473,0,0,1-6.089,2.337,47.2,47.2,0,0,1-6.365,1.415,13.446,13.446,0,0,1-2.691.259,20.766,20.766,0,0,1,2.631-.569c1.63-.328,3.873-.863,6.3-1.527a52.849,52.849,0,0,0,6.089-2.2A18.394,18.394,0,0,1,282.216,188.559Z" transform="translate(-139.066 -115.411)" fill="#fff"/>
      <circle id="Ellipse_22" data-name="Ellipse 22" cx="10.109" cy="10.109" r="10.109" transform="translate(105.151 83.627) rotate(-45)" fill="#263238"/>
      <circle id="Ellipse_23" data-name="Ellipse 23" cx="7.366" cy="7.366" r="7.366" transform="translate(109.889 79.488) rotate(-21.52)" fill="#fff"/>
      <path id="Path_612" data-name="Path 612" d="M260.776,201.5a8.746,8.746,0,0,1-.155-1.2c-.069-.759-.164-1.846-.267-3.165l.095.138-3.942-1.923h.216l-3.657,2.424c-.095.181.121-.242.095-.2h0V198.7c0,.38.043.75.06,1.113.043.733.078,1.44.121,2.122l-.121-.173,3.9,2.01h-.164c1.121-.716,2.044-1.285,2.691-1.682a10.271,10.271,0,0,1,1.061-.6,5.081,5.081,0,0,1-.906.707c-.612.44-1.518,1.07-2.665,1.846l-.078.052h-.086l-3.942-1.923-.1-.052v-.129c-.043-.681-.095-1.389-.138-2.122,0-.362-.043-.733-.069-1.113v-1.182h0c0,.043.2-.38.1-.207l3.674-2.4.1-.069.1.06,3.9,2.01.095.043v.095c.06,1.371.095,2.484.112,3.243A5.342,5.342,0,0,1,260.776,201.5Z" transform="translate(-137.412 -116.284)" fill="#ff6262"/>
      <g id="Group_21" data-name="Group 21" transform="translate(80.773 53.724)" opacity="0.2">
        <path id="Path_613" data-name="Path 613" d="M212.68,175.9s29.611-16.172,60.955-7.09C273.635,168.809,260.222,181.531,212.68,175.9Z" transform="translate(-212.68 -166.04)"/>
      </g>
      <path id="Path_614" data-name="Path 614" d="M267.977,408.17a.362.362,0,1,1,.06.63.379.379,0,0,1-.086-.612" transform="translate(-139.489 -145.594)" fill="#fff"/>
      <path id="Path_615" data-name="Path 615" d="M253.088,276.582c.543,21.063,2.691,42.134,8.056,62.507.914,3.5,2,7.133,4.511,9.738s6.9,3.769,9.8,1.613c2.493-1.837,3.053-5.27,3.4-8.349a646.355,646.355,0,0,0,4.459-67.967s.664-17.363-11.584-17.354S252.76,263.679,253.088,276.582Z" transform="translate(-137.461 -124.789)" fill="#ff6262"/>
      <g id="Group_22" data-name="Group 22" transform="translate(116.312 132.535)" opacity="0.2">
        <path id="Path_616" data-name="Path 616" d="M261.747,258.782c1.535-1.854,4.623-1.725,6.495-.216s2.691,3.976,2.967,6.365c.863,7.556-2.846,14.8-4.166,22.288-1.268,7.211-.3,14.611-.647,21.917s-1.958,14.775-7.677,19.329c0,0-5.537-28.161-4.761-38.917C254.536,281.673,261.747,258.782,261.747,258.782Z" transform="translate(-253.883 -257.412)"/>
      </g>
      <path id="Path_617" data-name="Path 617" d="M264.9,291.9a3.375,3.375,0,0,1,.1.656l.207,1.889c.173,1.682.414,4.037.707,6.9.612,5.857,1.5,13.938,2.648,22.84s2.329,16.949,3.226,22.762c.448,2.872.811,5.218,1.07,6.9.112.776.207,1.4.276,1.872a3.448,3.448,0,0,1,.069.656,3.111,3.111,0,0,1-.155-.638q-.147-.7-.362-1.863c-.311-1.622-.725-3.959-1.208-6.9-.975-5.8-2.217-13.844-3.364-22.753s-1.984-17-2.51-22.866c-.267-2.933-.457-5.3-.569-6.952q-.078-1.182-.129-1.889A3.916,3.916,0,0,1,264.9,291.9Z" transform="translate(-139.085 -129.618)" fill="#fff"/>
      <path id="Path_618" data-name="Path 618" d="M240.987,291.972c5.719,2.795,13.878.526,17.837-5.253s5.175-12.938,6.34-19.838c.38-2.32.69-4.951-.75-6.805-1.656-2.122-4.77-2.225-7.452-2.139l-25.574.863s-9.307,2.665-9.307,8.28S233.163,288.177,240.987,291.972Z" transform="translate(-133.2 -124.947)" fill="#263238"/>
      <path id="Path_619" data-name="Path 619" d="M268.166,368.917c-2.751.129-5.063,2.337-6.15,4.873a22.412,22.412,0,0,0-1.3,8.116c-.587,16.768-1.173,33.57-.242,50.32.2,3.631.552,7.487,2.769,10.35s6.978,4.08,9.488,1.449c1.432-1.5,1.725-3.726,1.949-5.788l6.521-59.963c.242-2.26.457-4.7-.7-6.659a7.211,7.211,0,0,0-5.46-3.174,21.21,21.21,0,0,0-6.495.561" transform="translate(-138.41 -140.134)" fill="#ff6262"/>
      <path id="Path_620" data-name="Path 620" d="M265.372,447.988a1.484,1.484,0,0,1,0-.2l-.078-.6c-.06-.518-.155-1.285-.25-2.277-.19-1.984-.405-4.865-.561-8.427-.345-7.133-.276-16.992.052-27.868s.647-20.7.863-27.842a24.247,24.247,0,0,1,1.449-8.315,11.742,11.742,0,0,1,1.087-2.036l.362-.474c.078-.112.129-.164.129-.155a.793.793,0,0,1-.095.181l-.319.5a13.279,13.279,0,0,0-1,2.044,24.78,24.78,0,0,0-1.294,8.263c-.19,7.159-.449,16.992-.733,27.851s-.449,20.7-.19,27.834c.121,3.562.293,6.443.431,8.427.06.966.121,1.725.155,2.286v.6A.45.45,0,0,1,265.372,447.988Z" transform="translate(-138.998 -140.327)" fill="#fff"/>
      <path id="Path_621" data-name="Path 621" d="M262.29,460.252a19.788,19.788,0,0,1-.242-5.175,6.607,6.607,0,0,1,2.32-4.459,8.453,8.453,0,0,1,7.633-.75,6.65,6.65,0,0,1,3.278,5.054l1.285,6.253" transform="translate(-138.685 -151.255)" fill="#263238"/>
      <path id="Path_622" data-name="Path 622" d="M261.68,461.66l14.887.155s10.954,2.484,10.721,3.364-26.048-.172-26.048-.172Z" transform="translate(-138.583 -152.956)" fill="#ff6262"/>
      <path id="Path_623" data-name="Path 623" d="M256.571,258.86a9.021,9.021,0,0,1,.5,1.337,14.585,14.585,0,0,1,.474,1.613,22.273,22.273,0,0,1,.5,2.174,26.221,26.221,0,0,1,.423,2.665c.138.966.181,2,.25,3.1a40.752,40.752,0,0,1-.405,7.09,39.575,39.575,0,0,1-1.725,6.9c-.405,1.018-.759,1.992-1.208,2.864-.216.431-.405.863-.621,1.259l-.638,1.13a21.876,21.876,0,0,1-1.2,1.88,12.32,12.32,0,0,1-1,1.354,7.713,7.713,0,0,1-.932,1.078,8.454,8.454,0,0,1,.794-1.182,16.668,16.668,0,0,0,.94-1.4c.345-.552.759-1.164,1.13-1.9.2-.362.4-.742.612-1.13s.379-.863.586-1.268c.423-.862.759-1.837,1.156-2.838a41.084,41.084,0,0,0,1.725-6.823,42.686,42.686,0,0,0,.44-7.012c-.052-1.078-.078-2.1-.207-3.062s-.224-1.846-.362-2.648-.293-1.535-.431-2.174-.267-1.182-.4-1.622A9.916,9.916,0,0,1,256.571,258.86Z" transform="translate(-137.174 -125.076)" fill="#455a64"/>
      <path id="Path_624" data-name="Path 624" d="M270.973,317.063a.379.379,0,0,1,.552.267.362.362,0,1,1-.586-.25" transform="translate(-139.898 -133.072)" fill="#fff"/>
      <path id="Path_625" data-name="Path 625" d="M273.466,338.451a.362.362,0,1,1,.052.638.38.38,0,0,1-.078-.612" transform="translate(-140.244 -136.01)" fill="#fff"/>
      <path id="Path_626" data-name="Path 626" d="M268.387,295.23a.362.362,0,1,1,.052.63.38.38,0,0,1-.078-.612" transform="translate(-139.545 -130.068)" fill="#fff"/>
      <path id="Path_627" data-name="Path 627" d="M268.386,387.762a.353.353,0,1,1,.052.63.38.38,0,0,1-.078-.612" transform="translate(-139.545 -142.79)" fill="#fff"/>
      <path id="Path_628" data-name="Path 628" d="M275.537,456a7.166,7.166,0,0,1-1.923.724,23.925,23.925,0,0,1-4.891.811,23.288,23.288,0,0,1-4.951-.216,7.2,7.2,0,0,1-1.992-.483,53.246,53.246,0,0,0,6.9.25A54.674,54.674,0,0,0,275.537,456Z" transform="translate(-138.657 -152.178)" fill="#455a64"/>
      <g id="Group_23" data-name="Group 23" transform="translate(121.587 230.821)" opacity="0.2">
        <path id="Path_629" data-name="Path 629" d="M260,419.852c3.942-2.881,6.469-7.375,7.875-12.075s1.785-9.591,2.165-14.465.776-9.79,2.217-14.465a6.331,6.331,0,0,0,.457-3.122c-.354-1.673-2.061-2.657-3.623-3.364-1.932-.863-4.364-1.6-6.038-.276-1.251.992-1.527,2.751-1.682,4.313-1.5,14.663-1.38,29.369-1.259,44.067" transform="translate(-260 -371.364)"/>
      </g>
      <circle id="Ellipse_24" data-name="Ellipse 24" cx="10.592" cy="10.592" r="10.592" transform="translate(123.77 215.594)" fill="#263238"/>
      <path id="Path_630" data-name="Path 630" d="M283.165,364.22a2.681,2.681,0,0,1-.552.656,9.376,9.376,0,0,1-1.863,1.4,13.948,13.948,0,0,1-7.435,1.682,27.81,27.81,0,0,1-7.5-1.527c-.923-.3-1.665-.578-2.174-.776a3.545,3.545,0,0,1-.776-.345,22.961,22.961,0,0,1,3.045.819,32.58,32.58,0,0,0,7.418,1.354,14.56,14.56,0,0,0,7.263-1.509,18.836,18.836,0,0,0,2.57-1.751Z" transform="translate(-138.807 -139.561)" fill="#455a64"/>
      <path id="Path_631" data-name="Path 631" d="M143.423,165.587s-2.079-8.513-3.191-8.919-14.456,1.509-14.456,1.509-4.313-6.038-5-6.848-2.113,1.2-1.647,2.113,3.648,9.738,5.624,10.04a48.214,48.214,0,0,0,6.961-.095l1.622,5.555Z" transform="translate(-119.034 -110.268)" fill="#ff6262"/>
      <path id="Path_632" data-name="Path 632" d="M203.538,201.406c-8.418,3.071-13.8,4.623-22.227,7.763-4.675,1.725-10.626,3.657-15.034,4.787-2.941.759-6.314.992-9.16-.25-2.424-1.052-4.2-3.165-5.8-5.279-7.478-9.885-11.644-22.426-14.551-34.5l10.117-1.906,18.3,25.6,33.268-11.377,5.486,13.524a1,1,0,0,1-.405,1.639Z" transform="translate(-121.472 -113.138)" fill="#ff6262"/>
      <path id="Path_633" data-name="Path 633" d="M213.248,181.31a11.817,11.817,0,0,0-4.037,20.433c1.38,1.13,3.321,2,4.934.276a4.683,4.683,0,0,0,1.052-1.941,25.307,25.307,0,0,0-1.949-18.769Z" transform="translate(-130.837 -114.415)" fill="#263238"/>
      <path id="Path_634" data-name="Path 634" d="M208.66,184.927s0-.078.121-.2a2.423,2.423,0,0,1,.474-.457,1.112,1.112,0,0,1,.483-.181,1.431,1.431,0,0,1,.587.121,1.3,1.3,0,0,1,.552.423l.431.569a17.691,17.691,0,0,1,3.191,7.15,16.828,16.828,0,0,1-.216,7.832,4.562,4.562,0,0,1-1.242,2.061,1.6,1.6,0,0,1-.768.431,4.243,4.243,0,0,0,.647-.561,4.735,4.735,0,0,0,1.061-2.018,17.942,17.942,0,0,0,.078-7.651,18.821,18.821,0,0,0-3.01-7.055c-.293-.414-.492-.863-.863-.957a.862.862,0,0,0-.863,0C208.893,184.7,208.686,184.961,208.66,184.927Z" transform="translate(-131.355 -114.798)" fill="#455a64"/>
      <path id="Path_635" data-name="Path 635" d="M168.327,201.75a2.183,2.183,0,0,1,.147.742,10.875,10.875,0,0,1,.095,2.061,13.369,13.369,0,0,1-.466,3.036,14.93,14.93,0,0,1-6.038,8.444,13.4,13.4,0,0,1-1.777,1.052,2.586,2.586,0,0,1-.7.285c0-.078.923-.561,2.286-1.6a16.862,16.862,0,0,0,4.4-4.942,15.811,15.811,0,0,0,1.432-3.355,15.362,15.362,0,0,0,.543-2.941C168.379,202.828,168.241,201.759,168.327,201.75Z" transform="translate(-124.609 -117.225)" fill="#fff"/>
      <path id="Path_636" data-name="Path 636" d="M201.4,192.169c.043.112-7.012,2.872-15.758,6.158s-15.871,5.865-15.914,5.744,7-2.872,15.758-6.158S201.359,192.022,201.4,192.169Z" transform="translate(-126.003 -115.907)" fill="#fff"/>
      <path id="Path_637" data-name="Path 637" d="M140.59,174a1.536,1.536,0,0,1,.173.4l.431,1.173c.362,1.009.863,2.475,1.6,4.313,1.38,3.6,3.45,8.5,6.081,13.8,1.32,2.588,2.657,5.089,3.924,7.3s2.484,4.157,3.554,5.753c.526.811,1.018,1.527,1.458,2.156s.811,1.173,1.139,1.6l.725,1.018c.155.233.242.362.224.371a1.94,1.94,0,0,1-.293-.319l-.794-.957c-.345-.414-.75-.94-1.2-1.561s-.983-1.32-1.518-2.122c-1.113-1.578-2.337-3.536-3.657-5.719s-2.639-4.675-3.968-7.306a134.454,134.454,0,0,1-5.977-13.852c-.664-1.82-1.147-3.3-1.458-4.313-.138-.474-.259-.863-.354-1.19a1.562,1.562,0,0,1-.086-.535Z" transform="translate(-121.997 -113.41)" fill="#fff"/>
      <path id="Path_638" data-name="Path 638" d="M177.224,205.255a.371.371,0,0,0,0-.612.362.362,0,1,0,0,.63" transform="translate(-126.959 -117.616)" fill="#fff"/>
      <path id="Path_639" data-name="Path 639" d="M160.913,210.082a.362.362,0,1,0-.543-.328.371.371,0,0,0,.543.328" transform="translate(-124.716 -118.278)" fill="#fff"/>
      <path id="Path_640" data-name="Path 640" d="M153.463,198.482a.362.362,0,1,0-.543-.336.38.38,0,0,0,.543.336" transform="translate(-123.692 -116.683)" fill="#fff"/>
      <path id="Path_641" data-name="Path 641" d="M186.8,201.892a.362.362,0,1,0-.543-.328.38.38,0,0,0,.543.328" transform="translate(-128.275 -117.152)" fill="#fff"/>
      <path id="Path_642" data-name="Path 642" d="M197.676,198.273a.38.38,0,0,1,.552.276.388.388,0,0,1-.5.362.379.379,0,0,1-.086-.612" transform="translate(-129.824 -116.741)" fill="#fff"/>
      <path id="Path_643" data-name="Path 643" d="M136.091,173.116a75.038,75.038,0,0,0,10.281-1.458c1.354-.276,2.924-.768,3.347-2.087a2.639,2.639,0,0,0-.863-2.682,6.038,6.038,0,0,0-2.726-1.173,16.336,16.336,0,0,0-9.065.707,6.693,6.693,0,0,0-2.751,1.725,3.131,3.131,0,0,0-.716,3.053,2.665,2.665,0,0,0,2.527,1.915" transform="translate(-121.017 -112.225)" fill="#263238"/>
      <path id="Path_644" data-name="Path 644" d="M149.32,168.456c0,.069-.863-.371-2.355-.768a13.369,13.369,0,0,0-11.213,2.044c-1.233.863-1.872,1.6-1.932,1.535a1.88,1.88,0,0,1,.405-.543,11.151,11.151,0,0,1,1.337-1.251,12.507,12.507,0,0,1,11.523-2.087,10.438,10.438,0,0,1,1.725.7,2.018,2.018,0,0,1,.509.371Z" transform="translate(-121.066 -112.42)" fill="#455a64"/>
      <path id="Path_645" data-name="Path 645" d="M231.934,367.862c-2.743.3-4.916,2.639-5.848,5.227s-.863,5.434-.819,8.185c.405,16.776.811,33.578,2.726,50.251.423,3.605,1,7.435,3.381,10.178s7.211,3.657,9.557.863c1.337-1.587,1.5-3.821,1.6-5.891q1.475-30.119,2.958-60.247c.112-2.268.173-4.718-1.1-6.607a7.228,7.228,0,0,0-5.563-2.82,21.371,21.371,0,0,0-6.452.949" transform="translate(-133.635 -139.943)" fill="#ff6262"/>
      <path id="Path_646" data-name="Path 646" d="M216.478,276.842c.535,21.063,2.691,42.143,8.047,62.516.923,3.5,2.01,7.124,4.52,9.729s6.9,3.769,9.8,1.622c2.484-1.846,3.053-5.27,3.39-8.349a646.656,646.656,0,0,0,4.468-67.976s.655-17.363-11.584-17.354S216.15,263.956,216.478,276.842Z" transform="translate(-132.428 -124.825)" fill="#ff6262"/>
      <g id="Group_24" data-name="Group 24" transform="translate(85.368 137.923)" opacity="0.3">
        <path id="Path_647" data-name="Path 647" d="M226.928,343.306c-.3.043-1.285-4.4-2.588-11.635s-3-17.251-4.313-28.412c-.664-5.581-1.147-10.92-1.544-15.758s-.716-9.3-.233-13.05a19.088,19.088,0,0,1,2.82-8.436l.863-1.113a7.545,7.545,0,0,1,.716-.742c.4-.379.638-.543.69-.492s-.06.319-.345.776c-.129.241-.328.5-.518.862s-.4.742-.638,1.173a21.193,21.193,0,0,0-1.992,8.142,73.552,73.552,0,0,0,.716,12.705c.543,4.822,1.052,10.135,1.725,15.689,1.3,11.109,2.726,21.149,3.648,28.463S227.239,343.254,226.928,343.306Z" transform="translate(-218.008 -263.659)" fill="#fff"/>
      </g>
      <path id="Path_648" data-name="Path 648" d="M234.631,351.726a1.148,1.148,0,0,1-.078-.241l-.181-.707-.647-2.743c-.535-2.381-1.251-5.848-2.044-10.143-1.553-8.625-3.174-20.571-4.313-33.854-.587-6.641-1.052-12.981-1.458-18.743-.207-2.872-.4-5.615-.578-8.177a58.571,58.571,0,0,1-.2-7.159,19.614,19.614,0,0,1,1.113-5.8,13.689,13.689,0,0,1,2.156-3.907,10.35,10.35,0,0,1,2.044-1.949,6.355,6.355,0,0,1,.862-.518,12.7,12.7,0,0,0-2.743,2.588,13.74,13.74,0,0,0-2.061,3.881,19.838,19.838,0,0,0-1.026,5.736,58.647,58.647,0,0,0,.25,7.116c.2,2.588.4,5.3.612,8.177.44,5.753.914,12.075,1.5,18.725,1.147,13.274,2.717,25.238,4.192,33.846.742,4.313,1.415,7.763,1.9,10.161.242,1.173.431,2.1.561,2.751.06.3.1.535.138.724A1.278,1.278,0,0,1,234.631,351.726Z" transform="translate(-133.615 -124.928)" fill="#fff"/>
      <path id="Path_649" data-name="Path 649" d="M232.756,442.058a3.67,3.67,0,0,1-.121-.716q-.1-.776-.259-2.07c-.216-1.8-.5-4.407-.811-7.633-.638-6.452-1.371-15.379-1.906-25.255s-.776-18.838-.863-25.315c0-3.243-.043-5.865,0-7.676V371.3a3.636,3.636,0,0,1,0-.725,3.967,3.967,0,0,1,.052.725c0,.518,0,1.208.052,2.087,0,1.854.095,4.459.155,7.668.155,6.478.44,15.422.975,25.3s1.216,18.794,1.768,25.246c.285,3.2.509,5.8.673,7.651.069.863.129,1.561.173,2.079A6.5,6.5,0,0,1,232.756,442.058Z" transform="translate(-134.12 -140.435)" fill="#fff"/>
      <circle id="Ellipse_25" data-name="Ellipse 25" cx="10.592" cy="10.592" r="10.592" transform="translate(90.709 215.844)" fill="#263238"/>
      <path id="Path_650" data-name="Path 650" d="M229.32,462.309c0-1.725,0-6.512.5-8.168a6.693,6.693,0,0,1,2.95-4.071,7.315,7.315,0,0,1,3.907-.725,7.228,7.228,0,0,1,3.752,1.113,6.607,6.607,0,0,1,2.5,5.477l.354,6.374" transform="translate(-134.195 -151.259)" fill="#263238"/>
      <path id="Path_651" data-name="Path 651" d="M229.531,461.978l14.9-.138s11,2.26,10.782,3.148-26.048.336-26.048.336Z" transform="translate(-134.173 -152.981)" fill="#ff6262"/>
      <path id="Path_652" data-name="Path 652" d="M230.043,300.343a.379.379,0,0,1,.552.267.362.362,0,1,1-.587-.25" transform="translate(-134.271 -130.773)" fill="#fff"/>
      <path id="Path_653" data-name="Path 653" d="M228.8,281.89a.362.362,0,1,1,.052.63.38.38,0,0,1-.052-.63" transform="translate(-134.103 -128.234)" fill="#fff"/>
      <path id="Path_654" data-name="Path 654" d="M231.586,322.993a.38.38,0,0,1,.552.276.388.388,0,0,1-.5.362.38.38,0,0,1-.086-.612" transform="translate(-134.485 -133.887)" fill="#fff"/>
      <path id="Path_655" data-name="Path 655" d="M234.706,348.453a.379.379,0,0,1,.552.276.388.388,0,0,1-.5.362.38.38,0,0,1-.086-.612" transform="translate(-134.914 -137.387)" fill="#fff"/>
      <path id="Path_656" data-name="Path 656" d="M231.176,387.311a.362.362,0,1,1,.052.638.379.379,0,0,1-.052-.638" transform="translate(-134.429 -142.727)" fill="#fff"/>
      <path id="Path_657" data-name="Path 657" d="M233.126,407.38a.362.362,0,1,1,.052.63.371.371,0,0,1-.052-.63" transform="translate(-134.697 -145.485)" fill="#fff"/>
      <path id="Path_658" data-name="Path 658" d="M233.366,429.871a.362.362,0,1,1,.052.638.38.38,0,0,1-.052-.638" transform="translate(-134.73 -148.578)" fill="#fff"/>
      <path id="Path_659" data-name="Path 659" d="M245.252,363.84a4.766,4.766,0,0,1-.612.638,13.19,13.19,0,0,1-1.949,1.406,15.439,15.439,0,0,1-15.275.371,14.121,14.121,0,0,1-2.018-1.32,2.822,2.822,0,0,1-.647-.6c.052-.069,1.009.75,2.812,1.639a16.06,16.06,0,0,0,14.965-.354C244.286,364.642,245.2,363.779,245.252,363.84Z" transform="translate(-133.567 -139.508)" fill="#455a64"/>
      <path id="Path_660" data-name="Path 660" d="M242.861,456.68a6.588,6.588,0,0,1-1.872.716,21.562,21.562,0,0,1-4.778.768,22,22,0,0,1-4.839-.31,6.9,6.9,0,0,1-1.932-.535,47.03,47.03,0,0,0,6.745.4A47.129,47.129,0,0,0,242.861,456.68Z" transform="translate(-134.211 -152.271)" fill="#455a64"/>
      <path id="Path_661" data-name="Path 661" d="M256.446,130.86a2.812,2.812,0,0,1,0,1.915,4.5,4.5,0,0,1-1.035,1.846,4.442,4.442,0,0,1-6.6-.1,2.864,2.864,0,0,1-.863-1.725,8.9,8.9,0,0,0,1.087,1.5,4.364,4.364,0,0,0,1.647,1.044,4.226,4.226,0,0,0,2.355.121,4.183,4.183,0,0,0,2.061-1.13,4.606,4.606,0,0,0,1.035-1.656A8.859,8.859,0,0,0,256.446,130.86Z" transform="translate(-136.756 -107.48)" fill="#fff"/>
    </g>
    <g id="freepik--Plant--inject-16" transform="translate(103.094 357.654)">
      <path id="Path_662" data-name="Path 662" d="M126.077,409.69a9.488,9.488,0,0,1,6.288,4.011,16.863,16.863,0,0,1,2.717,7.107c.819,4.873-.5,10.419-2.312,15.017-4.977-2.329-7.625-8.125-8.789-11.152-1.829-4.778-2.243-14.534,2.1-14.982" transform="translate(-115.321 -409.69)" fill="#455a64"/>
      <path id="Path_663" data-name="Path 663" d="M142.689,445.844a8.1,8.1,0,0,1-.19-8.151,10.781,10.781,0,0,1,6.616-5.08,4.563,4.563,0,0,1,3.821.276,3.45,3.45,0,0,1,1.259,3.286,6.97,6.97,0,0,1-1.561,3.312c-2.588,3.347-5.719,6.107-9.945,6.357" transform="translate(-117.908 -412.801)" fill="#455a64"/>
      <path id="Path_664" data-name="Path 664" d="M141.344,462.085a3.959,3.959,0,0,1-.164-1.026c-.069-.664-.155-1.622-.216-2.82a34.83,34.83,0,0,1,.561-9.324,17.466,17.466,0,0,1,4.244-8.3,11.023,11.023,0,0,1,2.2-1.811,3.148,3.148,0,0,1,.932-.466,24.217,24.217,0,0,0-2.846,2.536,18.415,18.415,0,0,0-3.985,8.159,40.625,40.625,0,0,0-.716,9.195A31.057,31.057,0,0,1,141.344,462.085Z" transform="translate(-117.823 -413.629)" fill="#263238"/>
      <path id="Path_665" data-name="Path 665" d="M128,418.27a8.91,8.91,0,0,1,.63,1.6c.371,1.035.863,2.544,1.492,4.416,1.225,3.752,2.829,8.953,4.459,14.741s2.984,11.075,3.89,14.9c.457,1.915.811,3.45,1.035,4.554a10.074,10.074,0,0,1,.3,1.725,9.689,9.689,0,0,1-.509-1.639l-1.208-4.511c-1.009-3.8-2.415-9.065-4.037-14.844s-3.174-11.006-4.313-14.775c-.543-1.82-.983-3.329-1.328-4.477A11.369,11.369,0,0,1,128,418.27Z" transform="translate(-116.054 -410.869)" fill="#263238"/>
      <path id="Path_666" data-name="Path 666" d="M132.306,451.582a19.036,19.036,0,0,0-13.585-10.825c-1.509-.285-3.364-.241-4.2,1.044s-.121,3.01.776,4.252A16.259,16.259,0,0,0,132.315,452" transform="translate(-114.149 -413.941)" fill="#455a64"/>
      <path id="Path_667" data-name="Path 667" d="M121.36,445.809a3.172,3.172,0,0,1,.992.1,7.646,7.646,0,0,1,1.147.242,14.289,14.289,0,0,1,1.484.44,20.161,20.161,0,0,1,3.657,1.725,22.921,22.921,0,0,1,3.925,3.01,22.621,22.621,0,0,1,3.131,3.83,19.673,19.673,0,0,1,1.829,3.6,15.408,15.408,0,0,1,.492,1.466,8.211,8.211,0,0,1,.276,1.138,3.769,3.769,0,0,1,.138.983c-.1,0-.38-1.363-1.268-3.45a22.862,22.862,0,0,0-1.889-3.45,24.689,24.689,0,0,0-3.088-3.709,24.076,24.076,0,0,0-3.812-2.967,21.451,21.451,0,0,0-3.528-1.777C122.775,446.137,121.343,445.913,121.36,445.809Z" transform="translate(-115.141 -414.655)" fill="#263238"/>
    </g>
    <g id="freepik--Cube--inject-16" transform="translate(310.6 43.221)">
      <path id="Path_668" data-name="Path 668" d="M414.158,65.789c-2.958-10.333-14.189-19.907-24.936-19.907-9-2.657-21.123,2.294-25.936,7.625-6.322,7-10.35,16.7-7.763,25.772A31.026,31.026,0,0,0,374.18,99.221c10.04,3.847,22.115,2.268,30.473-4.494S417.125,76.122,414.158,65.789Z" transform="translate(-354.728 -45.142)" fill="#ff6262"/>
      <path id="Path_669" data-name="Path 669" d="M414.158,65.789c-2.958-10.333-14.189-19.907-24.936-19.907-9-2.657-21.123,2.294-25.936,7.625-6.322,7-10.35,16.7-7.763,25.772A31.026,31.026,0,0,0,374.18,99.221c10.04,3.847,22.115,2.268,30.473-4.494S417.125,76.122,414.158,65.789Z" transform="translate(-354.728 -45.142)" fill="#5538a4" opacity="0.8"/>
      <path id="Path_670" data-name="Path 670" d="M401.3,83.053a1.327,1.327,0,0,1,0-.293V81.9c0-.759,0-1.82-.043-3.174,0-2.777-.052-6.728-.086-11.592l.086.147-13.8-7.909h.216l-13.757,7.952c-.1.181.129-.233.1-.19h0V83.1l-.1-.181,13.74,7.987h-.164l10.074-5.727,2.777-1.553.733-.4.267-.129a1.086,1.086,0,0,1-.224.155l-.7.423-2.708,1.613-10.057,5.9-.078.052-.086-.052-13.8-7.909-.1-.06V67.174h0c0,.043.216-.371.121-.2l13.8-7.935.112-.06.1.06,13.74,7.987.086.052v.095c0,4.891-.06,8.867-.078,11.661,0,1.346,0,2.4-.043,3.157V82.8C401.432,83.01,401.3,83.062,401.3,83.053Z" transform="translate(-357.321 -47.044)" fill="#fff"/>
      <path id="Path_671" data-name="Path 671" d="M401.335,68.459a7.553,7.553,0,0,1-1.044.7l-2.915,1.725c-2.467,1.475-5.9,3.45-9.695,5.675h-.293l-.086-.052-.181-.1-.354-.2-.716-.38-1.371-.863-2.588-1.5-4.313-2.588-2.915-1.725a6.9,6.9,0,0,1-1.044-.7,6.668,6.668,0,0,1,1.13.552l2.984,1.639,4.4,2.484,2.588,1.484,1.363.785.7.405.354.2.181.1.086.052h-.155c3.778-2.139,7.228-4.1,9.816-5.5l2.984-1.639A6.663,6.663,0,0,1,401.335,68.459Z" transform="translate(-357.353 -48.346)" fill="#fff"/>
      <path id="Path_672" data-name="Path 672" d="M389.74,93.35a71.3,71.3,0,0,1-.224-7.935,71.3,71.3,0,0,1,.224-7.935,68.863,68.863,0,0,1,.224,7.935A68.863,68.863,0,0,1,389.74,93.35Z" transform="translate(-359.507 -49.588)" fill="#fff"/>
    </g>
    <g id="freepik--Gears--inject-16" transform="translate(107.053 200.941)">
      <path id="Path_673" data-name="Path 673" d="M162.385,238.661a13.8,13.8,0,0,1,2.1-3.027l-1.173-3.209,4.753-3.062,2.441,2.4a13.852,13.852,0,0,1,3.631-.664l1.44-3.1,5.52,1.2v3.45a13.567,13.567,0,0,1,3.027,2.1l3.217-1.173,3.053,4.753-2.389,2.441a13.8,13.8,0,0,1,.656,3.623l3.1,1.449-1.2,5.52h-3.45a13.8,13.8,0,0,1-2.1,3.027l1.164,3.209-4.753,3.062-2.441-2.389a14.069,14.069,0,0,1-3.623.656l-1.44,3.1-5.529-1.2v-3.45a14.034,14.034,0,0,1-3.027-2.1l-3.174,1.182-3.062-4.753,2.4-2.441a13.723,13.723,0,0,1-.664-3.623l-3.1-1.44,1.2-5.529h3.45Zm6.529,4.822a4.115,4.115,0,1,1,0,.043Z" transform="translate(-124.106 -228)" fill="#ff6262" fill-rule="evenodd"/>
      <path id="Path_674" data-name="Path 674" d="M162.385,238.661a13.8,13.8,0,0,1,2.1-3.027l-1.173-3.209,4.753-3.062,2.441,2.4a13.852,13.852,0,0,1,3.631-.664l1.44-3.1,5.52,1.2v3.45a13.567,13.567,0,0,1,3.027,2.1l3.217-1.173,3.053,4.753-2.389,2.441a13.8,13.8,0,0,1,.656,3.623l3.1,1.449-1.2,5.52h-3.45a13.8,13.8,0,0,1-2.1,3.027l1.164,3.209-4.753,3.062-2.441-2.389a14.069,14.069,0,0,1-3.623.656l-1.44,3.1-5.529-1.2v-3.45a14.034,14.034,0,0,1-3.027-2.1l-3.174,1.182-3.062-4.753,2.4-2.441a13.723,13.723,0,0,1-.664-3.623l-3.1-1.44,1.2-5.529h3.45Zm6.529,4.822a4.115,4.115,0,1,1,0,.043Z" transform="translate(-124.106 -228)" fill="#fff" fill-rule="evenodd" opacity="0.5"/>
      <path id="Path_675" data-name="Path 675" d="M122.2,245.6a9.9,9.9,0,0,1,1.509-2.191l-.863-2.32,3.45-2.225,1.725,1.725a9.859,9.859,0,0,1,2.588-.483l1.035-2.243,4,.862v2.467a9.754,9.754,0,0,1,2.2,1.509l2.32-.863,2.225,3.45-1.725,1.768a9.858,9.858,0,0,1,.483,2.588l2.243,1.035-.863,4h-2.467a10.039,10.039,0,0,1-1.406,2.277l.863,2.32-3.45,2.225-1.768-1.725a9.988,9.988,0,0,1-2.588.483l-1.035,2.243-4-.863v-2.467a10.2,10.2,0,0,1-2.191-1.509l-2.32.862-2.225-3.45,1.725-1.768a9.989,9.989,0,0,1-.483-2.588l-2.243-1.035.863-4h2.475Zm4.735,3.45a3.694,3.694,0,1,1,0,.017Z" transform="translate(-118.767 -229.355)" fill="none"/>
      <path id="Path_676" data-name="Path 676" d="M128.181,250.268v-.276a2.9,2.9,0,0,1,.25-.776,4.313,4.313,0,0,1,2.07-2.139,4.571,4.571,0,1,1-1.5,7.073,4.364,4.364,0,0,1-1-2.8,3.448,3.448,0,0,1,.086-.8c.043-.181.078-.276.095-.276a8.722,8.722,0,0,0,0,1.078,4.373,4.373,0,0,0,1.1,2.588,4.193,4.193,0,1,0,1.4-6.572,4.313,4.313,0,0,0-2.053,1.923C128.293,249.9,128.224,250.285,128.181,250.268Z" transform="translate(-120.013 -230.559)" fill="#263238"/>
      <path id="Path_677" data-name="Path 677" d="M122.2,245.572a3.12,3.12,0,0,1-.612,0l-1.854.06.069-.052c-.216,1.035-.483,2.381-.811,4l-.069-.121,2.251,1.018h.069v.078a9.773,9.773,0,0,0,.492,2.588v.086l-.06.069-1.725,1.777v-.2c.7,1.078,1.449,2.217,2.234,3.45l-.207-.069,2.312-.863h.112l.078.078a10.047,10.047,0,0,0,2.165,1.475l.1.052v2.588l-.155-.19,4,.863-.233.121,1.026-2.243.06-.121h.129a9.6,9.6,0,0,0,2.588-.474l.121-.043.095.095c.561.535,1.164,1.13,1.777,1.725h-.276l3.45-2.225-.095.267-.863-2.32-.043-.129.086-.1a9.825,9.825,0,0,0,1.484-2.139h0l.2-.129h2.553l-.216.173c.285-1.346.569-2.682.863-3.993l.121.242-2.243-1.035-.121-.052v-.138a9.817,9.817,0,0,0-.474-2.588l-.043-.129.095-.095,1.725-1.725v.259c-.759-1.173-1.5-2.312-2.217-3.45l.242.086-2.32.863h-.112l-.095-.086a9.954,9.954,0,0,0-2.148-1.484l-.1-.052V238.75l.147.181-3.993-.863.19-.095-1.044,2.243-.043.086h-.095a10.066,10.066,0,0,0-2.588.466h-.086l-.06-.06-1.725-1.725h.164l-3.45,2.2v-.121l.863,2.329v.043h0a10.53,10.53,0,0,0-1.208,1.578,6.264,6.264,0,0,1-.354.561l.06-.155c0-.095.121-.241.224-.44a9.082,9.082,0,0,1,1.173-1.647v.078c-.242-.638-.526-1.4-.863-2.312v-.078l.069-.043,3.45-2.251.095-.06.078.078,1.777,1.725h-.147a10.083,10.083,0,0,1,2.657-.509l-.138.095,1.026-2.251.06-.121h.129l4,.863h.147v.147c0,.8,0,1.622.043,2.475l-.1-.173a10.153,10.153,0,0,1,2.243,1.535h-.207l2.312-.863.155-.06.095.138q1.087,1.669,2.234,3.45l.086.147-.112.121-1.725,1.777.052-.224a10.687,10.687,0,0,1,.5,2.682l-.129-.19,2.243,1.035.164.069v.173c-.276,1.32-.561,2.648-.863,4v.173h-2.648l.2-.121h0a10.349,10.349,0,0,1-1.544,2.243v-.224l.863,2.32.06.164-.147.1-3.45,2.217-.147.095-.129-.121-1.725-1.725.224.052a10.514,10.514,0,0,1-2.682.492l.181-.129c-.354.776-.716,1.544-1.035,2.243l-.069.155h-.164l-4-.862h-.155v-2.631l.1.173a10.445,10.445,0,0,1-2.234-1.544h.19l-2.32.863h-.129l-.078-.112-2.217-3.45-.069-.112.095-.086,1.725-1.725v.147a10.428,10.428,0,0,1-.483-2.657l.078.112-2.234-1.052h-.086V249.7c.362-1.613.664-2.958.863-3.993v-.052h2.113Z" transform="translate(-118.765 -229.331)" fill="#263238"/>
      <path id="Path_678" data-name="Path 678" d="M128.159,250.253a3.545,3.545,0,0,1,.138-.526,4.313,4.313,0,0,1,.768-1.38,4.433,4.433,0,1,1,3.769,7.288,4.537,4.537,0,0,1-2.588-.552,4.692,4.692,0,0,1-1.889-2.036,5,5,0,0,1-.405-1.38,6.782,6.782,0,0,1,0-.725v-.664h0a.175.175,0,0,0,.181.164l.242-.138a2.251,2.251,0,0,0-.1.543,4.2,4.2,0,0,0,2.536,4.226,4.313,4.313,0,0,0,5.865-4.882,4.315,4.315,0,0,0-7.521-1.863,4.554,4.554,0,0,0-.949,1.889,1.138,1.138,0,0,1,.078-.552,4.046,4.046,0,0,1,.733-1.449,4.511,4.511,0,0,1,2.1-1.475,4.632,4.632,0,0,1,3.39.19,4.684,4.684,0,1,1-6.641,3.873,3.112,3.112,0,0,1,.129-.664l.06-.173h.19a.276.276,0,0,1,.19.181v.733a5.62,5.62,0,0,0,0,.664,4.088,4.088,0,1,0,5.926-4.123,4.209,4.209,0,0,0-3.079-.3,4.312,4.312,0,0,0-2.018,1.277,7.316,7.316,0,0,0-1.1,1.854Z" transform="translate(-119.991 -230.544)" fill="#263238"/>
      <path id="Path_679" data-name="Path 679" d="M122.173,245.549h-2.458c-.216,1.035-.509,2.406-.863,4.08l-.043-.095,2.294,1.061-.121.138v-.069l.173-.052a10.152,10.152,0,0,0,.492,2.588h-.207v-.086l.181.1-1.794,1.863v-.147c.725,1.113,1.492,2.3,2.312,3.554l-.155-.052,2.389-.862v.267h-.1l.121-.233a9.929,9.929,0,0,0,2.182,1.5l-.19.207-.06-.095.276-.078v2.588l-.121-.155,4.175.862-.181.095c.328-.707.7-1.518,1.078-2.329l.242.207-.1.069-.095-.311a9.833,9.833,0,0,0,2.588-.483v.336h-.129l.164-.3,1.846,1.794h-.224l3.588-2.337-.069.216c-.276-.733-.578-1.57-.863-2.406h.362v.129l-.328-.164a10.2,10.2,0,0,0,1.5-2.191l.276.259-.112.069-.1-.362h2.588l-.19.155.863-4.192.112.224-2.337-1.07.259-.3.069.1-.371.121a10.023,10.023,0,0,0-.492-2.588h.405v.121l-.345-.19,1.785-1.837v.259l-2.337-3.588.259.086-2.406.863v-.414h.112l-.181.371a10.289,10.289,0,0,0-2.174-1.492l.276-.311.06.095-.4.121c0-.793,0-1.673-.043-2.588l.172.216-4.157-.863.25-.121-1.061,2.312-.328-.276.078-.052.138.405a10.03,10.03,0,0,0-2.588.483v-.423h.086l-.207.379-1.82-1.725h.276l-3.511,2.294.095-.267.863,2.355h-.431l.388.19a9.168,9.168,0,0,0-1.294,1.863l-.086.155h-.043c.069,0-.259-.181-.311-.078h0l.19-.328c.129-.224.267-.449.414-.656a11.007,11.007,0,0,1,.957-1.216v.233c-.285-.794-.569-1.57-.863-2.346h.423v.069l-.328-.259,3.45-2.217.095.414h-.095l.181-.38c.6.587,1.2,1.182,1.8,1.725l-.224-.052a10.351,10.351,0,0,1,2.76-.5l-.2.129,1.07-2.286.3.285-.112.06-.052-.414,3.994.863-.207.345-.086-.095.388-.147v2.536l-.121-.19a10.2,10.2,0,0,1,2.329,1.613l-.224-.043,2.389-.863v.4l-.138-.043.241-.319,2.225,3.45-.388.095v-.147l.354.164-1.777,1.82.052-.207a10.429,10.429,0,0,1,.509,2.786l-.121-.172,2.312,1.07-.267.276-.069-.138.38-.052c-.293,1.363-.578,2.691-.863,3.994l-.311-.19.121-.1.121.354h-2.544l.172-.1a10.075,10.075,0,0,1-1.613,2.329l.043-.19c.3.862.587,1.622.863,2.389H139.3l.043-.147.276.216-3.45,2.217-.078-.328h.155l-.147.3-1.82-1.777.181.043a9.918,9.918,0,0,1-2.777.509l.138-.095-1.061,2.3-.224-.207.129-.069v.3l-4-.863.155-.25.086.112-.276.095V259.09l.078.129a9.84,9.84,0,0,1-2.3-1.587h.138l-2.381.863v-.242h.112l-.147.2L119.913,255l.207-.052v.1l-.2-.086,1.725-1.8v.1a10.212,10.212,0,0,1-.5-2.717l.06.078-2.286-1.061.1-.1v.069h-.147c.371-1.725.647-3.01.863-3.994l.086.052h0v-.086H122.3a2.706,2.706,0,0,1-.612.052l-1.854.069h-.147l.112-.095h0l.112-.095v.138c-.2.992-.457,2.268-.8,4.011v.224l-.1-.207v-.069l-.1-.2.207.095,2.286,1.026h.052v.06a9.877,9.877,0,0,0,.509,2.657v.112l-1.725,1.811-.224.241v-.768l.181.276,2.243,3.45.207.311-.354-.112-.121-.043-.354-.112.354-.129,2.372-.863h.078l.06.06a9.718,9.718,0,0,0,2.251,1.535l.086.043v.086c0,.794,0,1.6.043,2.536v.431l-.285-.336-.086-.1-.276-.336.423.086,4,.862.457.095-.414.216-.129.06-.414.207.19-.423c.336-.733.681-1.475,1.061-2.312l.043-.086h.1a9.831,9.831,0,0,0,2.682-.5h.1l.069.069,1.829,1.777.371.354-.509-.052h-.155l-.509-.043.431-.285,3.45-2.225.44-.293-.164.5-.052.155-.164.5-.181-.5-.863-2.389v-.1l.078-.086a9.805,9.805,0,0,0,1.544-2.251l.052-.1h3.226l-.431.362-.121.095-.44.362.121-.552c.276-1.3.552-2.631.863-4l.121-.561.259.518.069.138.259.518-.526-.25-2.312-1.061-.112-.052v-.129a9.669,9.669,0,0,0-.492-2.674v-.121l.086-.086,1.777-1.829.423-.431-.06.6v.147l-.052.6-.328-.5-2.225-3.45-.336-.509.578.19.138.043.587.2-.578.207-2.381.863-.129.043-.095-.086a9.634,9.634,0,0,0-2.234-1.544l-.112-.06v-3.286l.4.483.086.095.4.483-.612-.129-4-.863-.612-.138.561-.276.112-.052.561-.285-.267.569c-.345.759-.707,1.527-1.061,2.294l-.052.121h-.138a9.937,9.937,0,0,0-2.648.474h-.121l-.1-.095-1.794-1.725-.457-.448.63.06h.095l.638.069-.535.345-3.45,2.208-.535.345.2-.6v-.06l.2-.621.224.612c.276.776.561,1.553.863,2.346v.129l-.086.1a9.2,9.2,0,0,0-.923,1.156c-.138.207-.276.414-.4.638l-.2.328v.043h0c-.052.112-.38-.06-.319-.069h0V245.6a.784.784,0,0,1,.06-.216l.095-.173a9.269,9.269,0,0,1,1.354-1.958l.543-.612-.155.811h0l-.147.785-.285-.742-.863-2.355-.06-.172.147-.095,3.51-2.3.147-.095.129.121c.621.612,1.251,1.216,1.82,1.768l.578.552-.785-.181h-.086l-.768-.181.75-.25a10.523,10.523,0,0,1,2.7-.5h.8l-.664.448-.078.052-.656.44.328-.716c.371-.8.733-1.6,1.061-2.32l.078-.155h.172l4.157.863h.172v3.545l-.405-.664-.06-.095-.414-.656.69.345a10.239,10.239,0,0,1,2.268,1.561l.578.518-.759-.147h-.112l-.759-.147.725-.267,2.406-.863.155-.06.095.138,2.329,3.588.095.147-.121.121-1.794,1.837-.518.535.164-.733V247l.164-.716.233.7a10.489,10.489,0,0,1,.5,2.708v.733l-.405-.6-.078-.112-.405-.6.664.3,2.329,1.078.147.069v.164c-.319,1.458-.621,2.9-.906,4.192v.155h-3.441l.586-.362.112-.069.587-.362-.311.621a10.5,10.5,0,0,1-1.561,2.251l-.457.5.129-.664v-.121l.129-.673.233.638.863,2.415.052.138-.121.086-3.605,2.32-.121.078-.095-.095-1.837-1.8-.75-.466.6.138h.129l.6.138-.6.19a10.108,10.108,0,0,1-2.7.492h-.6l.5-.336.095-.069.509-.336-.259.543-1.078,2.329-.06.112h-.121l-4.183-.906h-.112v-3.226l.276.44.06.095.276.449-.466-.242a10.022,10.022,0,0,1-2.243-1.561l-.362-.328.483.095h.1l.492.095-.466.173-2.4.863h-.1l-.052-.086-2.294-3.571v-.078l.06-.069,1.785-1.811.267-.267-.086.371v.078l-.086.38-.121-.371a10.1,10.1,0,0,1-.474-2.665v-.336l.181.276v.069l.19.276-.3-.138-2.286-1.087h-.06v-.06l.923-4.071h2.346Z" transform="translate(-118.74 -229.307)" fill="#263238"/>
    </g>
    <g id="freepik--Screens--inject-16" transform="translate(33.73 31.17)">
      <path id="Path_680" data-name="Path 680" d="M159.038,117.164v7.694H33.73V40.96h8.358" transform="translate(-33.73 -32.516)" fill="#ff6262"/>
      <path id="Path_681" data-name="Path 681" d="M159.038,117.164v7.694H33.73V40.96h8.358" transform="translate(-33.73 -32.516)" fill="#fff" opacity="0.8"/>
      <rect id="Rectangle_36" data-name="Rectangle 36" width="125.308" height="83.907" transform="translate(8.746 0.336)" fill="#fff"/>
      <path id="Path_682" data-name="Path 682" d="M169.166,115.4V92.582c0-14.585-.052-35.536-.095-61.076l.181.173-125.3.052h0l.224-.224v83.9l-.207-.207,90.272.1,25.8.052h.1L134.4,115.4l-90.41.1H43.78V31.17h.233l125.3.052h.181V31.4c-.043,25.591-.078,46.576-.095,61.179,0,7.28,0,12.938-.043,16.837v4.4A5.645,5.645,0,0,1,169.166,115.4Z" transform="translate(-35.112 -31.17)" fill="#ff6262"/>
      <path id="Path_683" data-name="Path 683" d="M43.87,40.2c0-.129,28.032-.224,62.594-.224s62.611.095,62.611.224-28.024.224-62.611.224S43.87,40.325,43.87,40.2Z" transform="translate(-35.124 -32.381)" fill="#ff6262"/>
      <path id="Path_684" data-name="Path 684" d="M49.278,35.7a1,1,0,1,1-.293-.716,1.009,1.009,0,0,1,.293.716Z" transform="translate(-35.59 -31.654)" fill="#ff6262"/>
      <path id="Path_685" data-name="Path 685" d="M53.268,35.7a1,1,0,1,1-.293-.716,1.009,1.009,0,0,1,.293.716Z" transform="translate(-36.139 -31.654)" fill="#ff6262"/>
      <path id="Path_686" data-name="Path 686" d="M57.2,35.7a1,1,0,1,1-.29-.713,1.009,1.009,0,0,1,.29.713Z" transform="translate(-36.679 -31.654)" fill="#ff6262"/>
      <g id="Group_25" data-name="Group 25" transform="translate(11.67 3.036)" opacity="0.6">
        <path id="Path_687" data-name="Path 687" d="M49.278,35.7a1,1,0,1,1-.293-.716,1.009,1.009,0,0,1,.293.716Z" transform="translate(-47.26 -34.69)" fill="#5538a4"/>
        <path id="Path_688" data-name="Path 688" d="M53.268,35.7a1,1,0,1,1-.293-.716,1.009,1.009,0,0,1,.293.716Z" transform="translate(-47.809 -34.69)" fill="#5538a4"/>
        <path id="Path_689" data-name="Path 689" d="M57.2,35.7a1,1,0,1,1-.29-.713,1.009,1.009,0,0,1,.29.713Z" transform="translate(-48.349 -34.69)" fill="#5538a4"/>
      </g>
      <g id="Group_26" data-name="Group 26" transform="translate(19.519 16.569)" opacity="0.3">
        <rect id="Rectangle_37" data-name="Rectangle 37" width="33.423" height="33.423" fill="#5538a4"/>
      </g>
      <path id="Path_690" data-name="Path 690" d="M159.948,61.294c0,.129-13.041.224-29.119.224s-29.119-.095-29.119-.224,13.033-.224,29.119-.224S159.948,61.173,159.948,61.294Z" transform="translate(-43.075 -35.28)" fill="#5538a4"/>
      <path id="Path_691" data-name="Path 691" d="M159.948,68.5c0,.121-13.041.224-29.119.224s-29.119-.1-29.119-.224,13.033-.224,29.119-.224S159.948,68.375,159.948,68.5Z" transform="translate(-43.075 -36.272)" fill="#5538a4"/>
      <path id="Path_692" data-name="Path 692" d="M159.948,75.7c0,.121-13.041.224-29.119.224s-29.119-.1-29.119-.224,13.033-.224,29.119-.224S159.948,75.575,159.948,75.7Z" transform="translate(-43.075 -37.261)" fill="#5538a4"/>
      <path id="Path_693" data-name="Path 693" d="M136.125,82.9a7.238,7.238,0,0,1-1.346.086l-3.692.069c-3.114,0-7.418.069-12.17.069s-9.048,0-12.162-.069l-3.692-.1a7.4,7.4,0,0,1-1.354-.086,7.4,7.4,0,0,1,1.354-.086l3.692-.069c3.114-.043,7.409-.069,12.162-.069s9.057,0,12.17.069l3.692.069A7.237,7.237,0,0,1,136.125,82.9Z" transform="translate(-43.075 -38.246)" fill="#5538a4"/>
      <rect id="Rectangle_38" data-name="Rectangle 38" width="15.707" height="15.707" transform="translate(21.606 61.265)" fill="#ff6262"/>
      <rect id="Rectangle_39" data-name="Rectangle 39" width="15.707" height="15.707" transform="translate(21.606 61.265)" fill="#5538a4" opacity="0.6"/>
      <rect id="Rectangle_40" data-name="Rectangle 40" width="15.707" height="15.707" transform="translate(50.096 61.265)" fill="#ff6262"/>
      <rect id="Rectangle_41" data-name="Rectangle 41" width="15.707" height="15.707" transform="translate(50.096 61.265)" fill="#5538a4" opacity="0.6"/>
      <rect id="Rectangle_42" data-name="Rectangle 42" width="15.707" height="15.707" transform="translate(78.585 61.265)" fill="#ff6262"/>
      <rect id="Rectangle_43" data-name="Rectangle 43" width="15.707" height="15.707" transform="translate(78.585 61.265)" fill="#5538a4" opacity="0.6"/>
      <rect id="Rectangle_44" data-name="Rectangle 44" width="15.707" height="15.707" transform="translate(107.074 61.265)" fill="#ff6262"/>
      <rect id="Rectangle_45" data-name="Rectangle 45" width="15.707" height="15.707" transform="translate(107.074 61.265)" fill="#5538a4" opacity="0.6"/>
      <rect id="Rectangle_46" data-name="Rectangle 46" width="141.843" height="57.617" transform="translate(234.021 171.695)" fill="#fff"/>
      <path id="Path_694" data-name="Path 694" d="M446.874,287.789V283.77c0-2.631,0-6.486-.043-11.463,0-9.945-.052-24.332-.086-42.134l.164.164-141.834.06h0l.233-.224v57.617l-.216-.216,101.666.129,29.507.06h.095l-29.455.06-101.847.1h-.207V230h.241l141.834.069h.155v.155c0,17.846-.069,32.258-.086,42.264v14.387A2.3,2.3,0,0,1,446.874,287.789Z" transform="translate(-71.002 -58.504)" fill="#ff6262"/>
      <path id="Path_695" data-name="Path 695" d="M305.22,239.2c0-.121,31.707-.224,70.8-.224s70.814.1,70.814.224-31.7.224-70.814.224S305.22,239.334,305.22,239.2Z" transform="translate(-71.053 -59.738)" fill="#ff6262"/>
      <path id="Path_696" data-name="Path 696" d="M311.773,235.046a1.026,1.026,0,1,1-1.026-1.026A1.026,1.026,0,0,1,311.773,235.046Z" transform="translate(-71.671 -59.056)" fill="#ff6262"/>
      <path id="Path_697" data-name="Path 697" d="M315.863,235.044a1.026,1.026,0,1,1-.294-.737A1.026,1.026,0,0,1,315.863,235.044Z" transform="translate(-72.233 -59.054)" fill="#ff6262"/>
      <path id="Path_698" data-name="Path 698" d="M319.893,235.044a1.026,1.026,0,1,1-.3-.746,1.027,1.027,0,0,1,.3.746Z" transform="translate(-72.787 -59.054)" fill="#ff6262"/>
      <g id="Group_27" data-name="Group 27" transform="translate(238.049 174.946)" opacity="0.6">
        <path id="Path_699" data-name="Path 699" d="M311.773,235.046a1.026,1.026,0,1,1-1.026-1.026A1.026,1.026,0,0,1,311.773,235.046Z" transform="translate(-309.72 -234.002)" fill="#5538a4"/>
        <path id="Path_700" data-name="Path 700" d="M315.863,235.044a1.026,1.026,0,1,1-.294-.737A1.026,1.026,0,0,1,315.863,235.044Z" transform="translate(-310.282 -234)" fill="#5538a4"/>
        <path id="Path_701" data-name="Path 701" d="M319.893,235.044a1.026,1.026,0,1,1-.3-.746,1.027,1.027,0,0,1,.3.746Z" transform="translate(-310.836 -234)" fill="#5538a4"/>
      </g>
      <rect id="Rectangle_47" data-name="Rectangle 47" width="34.26" height="34.26" transform="translate(246.079 188.833)" fill="#ff6262"/>
      <rect id="Rectangle_48" data-name="Rectangle 48" width="34.26" height="34.26" transform="translate(246.079 188.833)" fill="#5538a4" opacity="0.6"/>
      <path id="Path_702" data-name="Path 702" d="M445.579,260.7c0,.129-17.63.224-39.374.224s-39.374-.095-39.374-.224,17.621-.224,39.374-.224S445.579,260.583,445.579,260.7Z" transform="translate(-79.522 -62.694)" fill="#5538a4"/>
      <path id="Path_703" data-name="Path 703" d="M445.579,268.8c0,.121-17.63.224-39.374.224s-39.374-.1-39.374-.224,17.621-.224,39.374-.224S445.579,268.675,445.579,268.8Z" transform="translate(-79.522 -63.807)" fill="#5538a4"/>
      <path id="Path_704" data-name="Path 704" d="M417.521,276.894a2.475,2.475,0,0,1-.517.043h-1.475l-5.434.069-17.923.069-17.923-.069-5.434-.069h-1.475a2.332,2.332,0,0,1-.509-.043,1.793,1.793,0,0,1,.509-.043l1.475-.043,5.434-.078,17.923-.06,17.923.06,5.434.078,1.475.043A1.9,1.9,0,0,1,417.521,276.894Z" transform="translate(-79.522 -64.92)" fill="#5538a4"/>
    </g>
  </g>
</svg>
